# OMX visual mesh; coordinates in metres
mtllib materials.mtl
usemtl motor_housing
v 0.0000335 0.0034065 0.0197000
v 0.0006870 0.0033323 0.0197000
v 0.0013347 0.0031344 0.0197000
v 0.0021425 0.0026565 0.0197000
v 0.0026713 0.0021059 0.0197000
v 0.0030832 0.0014633 0.0197000
v 0.0033914 0.0004015 0.0197000
v 0.0033594 -0.0005661 0.0197000
v 0.0031344 -0.0013347 0.0197000
v 0.0027363 -0.0020294 0.0197000
v 0.0021868 -0.0026123 0.0197000
v 0.0013943 -0.0031150 0.0197000
v 0.0006406 -0.0033415 0.0197000
v -0.0000335 -0.0034065 0.0197000
v -0.0006869 -0.0033323 0.0197000
v -0.0013346 -0.0031344 0.0197000
v -0.0021426 -0.0026564 0.0197000
v -0.0028585 -0.0018644 0.0197000
v -0.0032948 -0.0008898 0.0197000
v -0.0034006 -0.0001101 0.0197000
v -0.0033593 0.0005660 0.0197000
v -0.0031838 0.0011997 0.0197000
v -0.0029034 0.0017793 0.0197000
v -0.0024100 0.0024101 0.0197000
v -0.0016343 0.0029960 0.0197000
v -0.0007626 0.0033202 0.0197000
v 0.0000000 -0.0028043 0.0197000
v 0.0006281 -0.0027343 0.0197000
v 0.0013459 -0.0024673 0.0197000
v 0.0020425 -0.0019306 0.0197000
v 0.0024871 -0.0012983 0.0197000
v 0.0026976 -0.0007607 0.0197000
v 0.0028066 -0.0001103 0.0197000
v 0.0027134 0.0007326 0.0197000
v 0.0024453 0.0013698 0.0197000
v 0.0019903 0.0019903 0.0197000
v 0.0012743 0.0025010 0.0197000
v 0.0006281 0.0027343 0.0197000
v -0.0001102 0.0028066 0.0197000
v -0.0007418 0.0027020 0.0197000
v -0.0012490 0.0025121 0.0197000
v -0.0018009 0.0021512 0.0197000
v -0.0023843 0.0015001 0.0197000
v -0.0027214 0.0006818 0.0197000
v -0.0028094 -0.0000789 0.0197000
v -0.0026766 -0.0008406 0.0197000
v -0.0024541 -0.0013522 0.0197000
v -0.0021343 -0.0018230 0.0197000
v -0.0014707 -0.0024000 0.0197000
v -0.0006553 -0.0027293 0.0197000
v 0.0000335 0.0034065 0.0197000
v 0.0006870 0.0033323 0.0197000
v 0.0013347 0.0031344 0.0197000
v 0.0021425 0.0026565 0.0197000
v 0.0026713 0.0021059 0.0197000
v 0.0030832 0.0014633 0.0197000
v 0.0033914 0.0004015 0.0197000
v 0.0033594 -0.0005661 0.0197000
v 0.0031344 -0.0013347 0.0197000
v 0.0027363 -0.0020294 0.0197000
v 0.0021868 -0.0026123 0.0197000
v 0.0013943 -0.0031150 0.0197000
v 0.0006406 -0.0033415 0.0197000
v -0.0000335 -0.0034065 0.0197000
v -0.0006869 -0.0033323 0.0197000
v -0.0013346 -0.0031344 0.0197000
v -0.0021426 -0.0026564 0.0197000
v -0.0028585 -0.0018644 0.0197000
v -0.0032948 -0.0008898 0.0197000
v -0.0034006 -0.0001101 0.0197000
v -0.0033593 0.0005660 0.0197000
v -0.0031838 0.0011997 0.0197000
v -0.0029034 0.0017793 0.0197000
v -0.0024100 0.0024101 0.0197000
v -0.0016343 0.0029960 0.0197000
v -0.0007626 0.0033202 0.0197000
v -0.0002338 -0.0033987 0.0175000
v -0.0004014 0.0033914 0.0175000
v -0.0013346 0.0031344 0.0175000
v -0.0020015 0.0027549 0.0175000
v -0.0025918 0.0022135 0.0175000
v -0.0029800 0.0016418 0.0175000
v -0.0032385 0.0010523 0.0175000
v -0.0033979 0.0002674 0.0175000
v -0.0033593 -0.0005660 0.0175000
v -0.0030974 -0.0014278 0.0175000
v -0.0026728 -0.0021069 0.0175000
v -0.0021869 -0.0026121 0.0175000
v -0.0015167 -0.0030505 0.0175000
v -0.0009007 -0.0032810 0.0175000
v 0.0004234 -0.0033759 0.0175000
v 0.0010845 -0.0032295 0.0175000
v 0.0016829 -0.0029570 0.0175000
v 0.0022377 -0.0025687 0.0175000
v 0.0028360 -0.0018948 0.0175000
v 0.0032295 -0.0010846 0.0175000
v 0.0033798 -0.0004004 0.0175000
v 0.0033870 0.0004011 0.0175000
v 0.0031150 0.0013943 0.0175000
v 0.0026727 0.0021070 0.0175000
v 0.0021867 0.0026123 0.0175000
v 0.0015167 0.0030505 0.0175000
v 0.0006654 0.0033451 0.0175000
v -0.0002338 -0.0033987 0.0175000
v -0.0004014 0.0033914 0.0175000
v -0.0013346 0.0031344 0.0175000
v -0.0020015 0.0027549 0.0175000
v -0.0025918 0.0022135 0.0175000
v -0.0029800 0.0016418 0.0175000
v -0.0032385 0.0010523 0.0175000
v -0.0033979 0.0002674 0.0175000
v -0.0033593 -0.0005660 0.0175000
v -0.0030974 -0.0014278 0.0175000
v -0.0026728 -0.0021069 0.0175000
v -0.0021869 -0.0026121 0.0175000
v -0.0015167 -0.0030505 0.0175000
v -0.0009007 -0.0032810 0.0175000
v 0.0004234 -0.0033759 0.0175000
v 0.0010845 -0.0032295 0.0175000
v 0.0016829 -0.0029570 0.0175000
v 0.0022377 -0.0025687 0.0175000
v 0.0028360 -0.0018948 0.0175000
v 0.0032295 -0.0010846 0.0175000
v 0.0033798 -0.0004004 0.0175000
v 0.0033870 0.0004011 0.0175000
v 0.0031150 0.0013943 0.0175000
v 0.0026727 0.0021070 0.0175000
v 0.0021867 0.0026123 0.0175000
v 0.0015167 0.0030505 0.0175000
v 0.0006654 0.0033451 0.0175000
v -0.0000131 0.0025665 0.0174962
v 0.0000024 -0.0025424 0.0174934
v -0.0025752 -0.0001097 0.0174981
v 0.0000073 -0.0024037 0.0173540
v -0.0003070 -0.0023877 0.0173608
v -0.0006670 -0.0023108 0.0173464
v -0.0009279 -0.0022188 0.0173567
v -0.0011850 -0.0020929 0.0173461
v -0.0014195 -0.0019433 0.0173645
v -0.0016405 -0.0017601 0.0173523
v -0.0018981 -0.0014850 0.0173722
v -0.0020540 -0.0012539 0.0173644
v -0.0021891 -0.0010023 0.0173609
v -0.0023177 -0.0006463 0.0173524
v -0.0023940 -0.0002704 0.0173684
v -0.0024054 0.0001011 0.0173606
v -0.0023562 0.0004742 0.0173326
v -0.0021818 0.0010123 0.0173470
v -0.0020036 0.0013373 0.0173669
v -0.0017679 0.0016344 0.0173613
v -0.0014930 0.0018902 0.0173662
v -0.0011751 0.0021021 0.0173641
v -0.0008312 0.0022573 0.0173490
v -0.0004677 0.0023651 0.0173757
v -0.0001026 0.0024444 0.0174313
v -0.0000258 0.0024053 0.0173542
v -0.0001945 -0.0024843 0.0174710
v -0.0005921 -0.0023816 0.0174344
v -0.0008053 -0.0024191 0.0174953
v -0.0010429 -0.0022257 0.0174415
v -0.0011549 -0.0022763 0.0174956
v -0.0014569 -0.0019756 0.0174351
v -0.0017976 -0.0018262 0.0174955
v -0.0018419 -0.0016703 0.0174676
v -0.0020721 -0.0013695 0.0174640
v -0.0022915 -0.0011419 0.0174968
v -0.0022468 -0.0010276 0.0174537
v -0.0024379 -0.0006013 0.0174789
v -0.0023533 -0.0006605 0.0174254
v -0.0024801 -0.0000782 0.0174639
v -0.0024218 0.0002945 0.0174202
v -0.0024995 0.0004264 0.0174926
v -0.0023259 0.0006527 0.0173873
v -0.0023101 0.0008663 0.0174528
v -0.0023475 0.0010292 0.0174970
v -0.0021423 0.0012122 0.0174475
v -0.0020198 0.0015858 0.0174969
v -0.0019398 0.0015385 0.0174584
v -0.0016901 0.0018166 0.0174632
v -0.0012912 0.0021249 0.0174639
v -0.0015077 0.0020723 0.0174972
v -0.0008473 0.0023025 0.0174367
v -0.0008572 0.0023970 0.0174931
v -0.0004064 0.0024527 0.0174631
v -0.0001049 0.0023997 0.0151000
v -0.0006792 0.0023113 0.0151000
v -0.0013598 0.0019885 0.0151000
v -0.0019075 0.0014714 0.0151000
v -0.0022687 0.0008102 0.0151000
v -0.0023989 0.0001669 0.0151000
v -0.0023717 -0.0003974 0.0151000
v -0.0022134 -0.0009401 0.0151000
v -0.0018196 -0.0015872 0.0151000
v -0.0011568 -0.0021131 0.0151000
v -0.0004476 -0.0023671 0.0151000
v 0.0002845 -0.0023941 0.0151000
v 0.0010322 -0.0021767 0.0151000
v 0.0016540 -0.0017515 0.0151000
v 0.0021141 -0.0011551 0.0151000
v 0.0023675 -0.0004456 0.0151000
v 0.0023956 0.0002101 0.0151000
v 0.0022209 0.0009475 0.0151000
v 0.0017530 0.0016525 0.0151000
v 0.0011569 0.0021131 0.0151000
v 0.0004476 0.0023671 0.0151000
v 0.0003051 0.0023870 0.0173562
v 0.0006665 0.0023114 0.0173490
v 0.0009283 0.0022172 0.0173490
v 0.0012854 0.0020369 0.0173515
v 0.0016384 0.0017609 0.0173470
v 0.0018352 0.0015562 0.0173631
v 0.0020130 0.0013266 0.0173750
v 0.0021899 0.0009988 0.0173570
v 0.0023199 0.0006464 0.0173645
v 0.0023750 0.0003695 0.0173477
v 0.0024029 0.0000859 0.0173413
v 0.0023880 -0.0002897 0.0173490
v 0.0023119 -0.0006572 0.0173325
v 0.0021822 -0.0010135 0.0173524
v 0.0019966 -0.0013395 0.0173398
v 0.0018290 -0.0015635 0.0173632
v 0.0016303 -0.0017681 0.0173454
v 0.0013340 -0.0020012 0.0173455
v 0.0010067 -0.0021862 0.0173567
v 0.0006524 -0.0023149 0.0173460
v 0.0002838 -0.0023893 0.0173525
v 0.0003593 0.0024607 0.0174679
v 0.0006798 0.0023576 0.0174369
v 0.0007340 0.0024462 0.0174958
v 0.0010341 0.0022093 0.0174225
v 0.0012210 0.0022340 0.0174945
v 0.0012971 0.0020866 0.0174432
v 0.0015397 0.0019306 0.0174552
v 0.0017590 0.0018479 0.0174942
v 0.0017878 0.0016649 0.0174268
v 0.0021808 0.0013050 0.0174939
v 0.0021530 0.0011928 0.0174434
v 0.0023113 0.0008466 0.0174439
v 0.0024221 0.0007869 0.0174943
v 0.0024361 0.0004805 0.0174632
v 0.0024331 0.0002771 0.0174318
v 0.0025410 0.0001754 0.0174945
v 0.0024457 -0.0001975 0.0174334
v 0.0025255 -0.0003055 0.0174951
v 0.0023400 -0.0006671 0.0174116
v 0.0023394 -0.0008044 0.0174540
v 0.0024195 -0.0008250 0.0174963
v 0.0020803 -0.0012860 0.0174239
v 0.0021265 -0.0013188 0.0174751
v 0.0020099 -0.0015977 0.0174972
v 0.0017250 -0.0017503 0.0174404
v 0.0015190 -0.0020365 0.0174928
v 0.0013581 -0.0020367 0.0174305
v 0.0009564 -0.0022799 0.0174529
v 0.0009954 -0.0023588 0.0174966
v 0.0006618 -0.0023516 0.0174235
v 0.0004603 -0.0024993 0.0174945
v 0.0002883 -0.0024377 0.0174378
v -0.0001049 0.0023997 0.0151000
v -0.0006792 0.0023113 0.0151000
v -0.0013598 0.0019885 0.0151000
v -0.0019075 0.0014714 0.0151000
v -0.0022687 0.0008102 0.0151000
v -0.0023989 0.0001669 0.0151000
v -0.0023717 -0.0003974 0.0151000
v -0.0022134 -0.0009401 0.0151000
v -0.0018196 -0.0015872 0.0151000
v -0.0011568 -0.0021131 0.0151000
v -0.0004476 -0.0023671 0.0151000
v 0.0002845 -0.0023941 0.0151000
v 0.0010322 -0.0021767 0.0151000
v 0.0016540 -0.0017515 0.0151000
v 0.0021141 -0.0011551 0.0151000
v 0.0023675 -0.0004456 0.0151000
v 0.0023956 0.0002101 0.0151000
v 0.0022209 0.0009475 0.0151000
v 0.0017530 0.0016525 0.0151000
v 0.0011569 0.0021131 0.0151000
v 0.0004476 0.0023671 0.0151000
v 0.0000709 -0.0014035 0.0151000
v -0.0004727 -0.0013310 0.0151000
v -0.0009423 -0.0010425 0.0151000
v -0.0011887 -0.0007447 0.0151000
v -0.0013482 -0.0003965 0.0151000
v -0.0014046 0.0001489 0.0151000
v -0.0012560 0.0006245 0.0151000
v -0.0010076 0.0009841 0.0151000
v -0.0006025 0.0012695 0.0151000
v -0.0002330 0.0013833 0.0151000
v 0.0002039 0.0013937 0.0151000
v 0.0007704 0.0011839 0.0151000
v 0.0011006 0.0008675 0.0151000
v 0.0013003 0.0005386 0.0151000
v 0.0014119 -0.0000382 0.0151000
v 0.0012827 -0.0005741 0.0151000
v 0.0009714 -0.0010254 0.0151000
v 0.0005011 -0.0013129 0.0151000
v 0.0000709 -0.0014035 0.0151000
v -0.0004727 -0.0013310 0.0151000
v -0.0009423 -0.0010425 0.0151000
v -0.0011887 -0.0007447 0.0151000
v -0.0013482 -0.0003965 0.0151000
v -0.0014046 0.0001489 0.0151000
v -0.0012560 0.0006245 0.0151000
v -0.0010076 0.0009841 0.0151000
v -0.0006025 0.0012695 0.0151000
v -0.0002330 0.0013833 0.0151000
v 0.0002039 0.0013937 0.0151000
v 0.0007704 0.0011839 0.0151000
v 0.0011006 0.0008675 0.0151000
v 0.0013003 0.0005386 0.0151000
v 0.0014119 -0.0000382 0.0151000
v 0.0012827 -0.0005741 0.0151000
v 0.0009714 -0.0010254 0.0151000
v 0.0005011 -0.0013129 0.0151000
v -0.0013863 -0.0002704 0.0179006
v -0.0011733 -0.0007735 0.0178998
v -0.0008541 -0.0011201 0.0179014
v -0.0003815 -0.0013526 0.0179010
v 0.0000988 -0.0014050 0.0178999
v -0.0000608 0.0014041 0.0178977
v -0.0005274 0.0013060 0.0179015
v -0.0009474 0.0010378 0.0178998
v -0.0012061 0.0007178 0.0179009
v -0.0013679 0.0003309 0.0179001
v 0.0006856 -0.0012349 0.0179006
v 0.0010982 -0.0008768 0.0178998
v 0.0013428 -0.0004259 0.0178977
v 0.0014047 0.0000400 0.0179021
v 0.0013230 0.0004738 0.0178999
v 0.0011404 0.0008169 0.0178995
v 0.0008737 0.0011008 0.0179019
v 0.0004344 0.0013399 0.0178986
v -0.0013863 -0.0002704 0.0179006
v -0.0011733 -0.0007735 0.0178998
v -0.0008541 -0.0011201 0.0179014
v -0.0003815 -0.0013526 0.0179010
v 0.0000988 -0.0014050 0.0178999
v -0.0000608 0.0014041 0.0178977
v -0.0005274 0.0013060 0.0179015
v -0.0009474 0.0010378 0.0178998
v -0.0012061 0.0007178 0.0179009
v -0.0013679 0.0003309 0.0179001
v -0.0000451 -0.0016054 0.0181000
v -0.0015911 -0.0002637 0.0180998
v -0.0013546 -0.0008621 0.0180999
v -0.0010409 -0.0012188 0.0181000
v -0.0006220 -0.0014830 0.0180999
v -0.0003239 0.0015813 0.0181000
v -0.0008381 0.0013678 0.0180999
v -0.0012486 0.0010157 0.0180999
v -0.0015653 0.0003685 0.0180999
v 0.0006856 -0.0012349 0.0179006
v 0.0010982 -0.0008768 0.0178998
v 0.0013428 -0.0004259 0.0178977
v 0.0014047 0.0000400 0.0179021
v 0.0013230 0.0004738 0.0178999
v 0.0011404 0.0008169 0.0178995
v 0.0008737 0.0011008 0.0179019
v 0.0004344 0.0013399 0.0178986
v 0.0016026 0.0001333 0.0180999
v 0.0014821 0.0006140 0.0180999
v 0.0012385 0.0010220 0.0180999
v 0.0007425 0.0014318 0.0180998
v 0.0002422 0.0015854 0.0181000
v 0.0004240 -0.0015455 0.0181000
v 0.0008342 -0.0013749 0.0180999
v 0.0012198 -0.0010419 0.0180999
v 0.0015014 -0.0005802 0.0180999
v -0.0000451 -0.0016054 0.0181000
v -0.0015911 -0.0002637 0.0180998
v -0.0013546 -0.0008621 0.0180999
v -0.0010409 -0.0012188 0.0181000
v -0.0006220 -0.0014830 0.0180999
v -0.0003239 0.0015813 0.0181000
v -0.0008381 0.0013678 0.0180999
v -0.0012486 0.0010157 0.0180999
v -0.0015653 0.0003685 0.0180999
v 0.0016026 0.0001333 0.0180999
v 0.0014821 0.0006140 0.0180999
v 0.0012385 0.0010220 0.0180999
v 0.0007425 0.0014318 0.0180998
v 0.0002422 0.0015854 0.0181000
v 0.0004240 -0.0015455 0.0181000
v 0.0008342 -0.0013749 0.0180999
v 0.0012198 -0.0010419 0.0180999
v 0.0015014 -0.0005802 0.0180999
v -0.0001294 0.0027990 0.0181000
v 0.0004116 0.0027752 0.0181000
v 0.0010742 0.0025932 0.0181000
v 0.0015729 0.0023189 0.0181000
v 0.0020850 0.0018847 0.0181000
v 0.0024986 0.0012732 0.0181000
v 0.0026976 0.0007607 0.0181000
v 0.0028066 0.0001104 0.0181000
v 0.0027343 -0.0006280 0.0181000
v 0.0024673 -0.0013459 0.0181000
v 0.0020709 -0.0018875 0.0181000
v 0.0015001 -0.0023843 0.0181000
v 0.0006818 -0.0027214 0.0181000
v 0.0000000 -0.0028069 0.0181000
v -0.0006547 -0.0027268 0.0181000
v -0.0012490 -0.0025121 0.0181000
v -0.0017351 -0.0022011 0.0181000
v -0.0021323 -0.0018213 0.0181000
v -0.0025541 -0.0011775 0.0181000
v -0.0027698 -0.0004387 0.0181000
v -0.0027929 0.0003305 0.0181000
v -0.0025508 0.0011760 0.0181000
v -0.0021511 0.0018010 0.0181000
v -0.0015001 0.0023843 0.0181000
v -0.0006817 0.0027214 0.0181000
v 0.0000000 -0.0028043 0.0197000
v 0.0006281 -0.0027343 0.0197000
v 0.0013459 -0.0024673 0.0197000
v 0.0020425 -0.0019306 0.0197000
v 0.0024871 -0.0012983 0.0197000
v 0.0026976 -0.0007607 0.0197000
v 0.0028066 -0.0001103 0.0197000
v 0.0027134 0.0007326 0.0197000
v 0.0024453 0.0013698 0.0197000
v 0.0019903 0.0019903 0.0197000
v 0.0012743 0.0025010 0.0197000
v 0.0006281 0.0027343 0.0197000
v -0.0001102 0.0028066 0.0197000
v -0.0007418 0.0027020 0.0197000
v -0.0012490 0.0025121 0.0197000
v -0.0018009 0.0021512 0.0197000
v -0.0023843 0.0015001 0.0197000
v -0.0027214 0.0006818 0.0197000
v -0.0028094 -0.0000789 0.0197000
v -0.0026766 -0.0008406 0.0197000
v -0.0024541 -0.0013522 0.0197000
v -0.0021343 -0.0018230 0.0197000
v -0.0014707 -0.0024000 0.0197000
v -0.0006553 -0.0027293 0.0197000
v -0.0001294 0.0027990 0.0181000
v 0.0004116 0.0027752 0.0181000
v 0.0010742 0.0025932 0.0181000
v 0.0015729 0.0023189 0.0181000
v 0.0020850 0.0018847 0.0181000
v 0.0024986 0.0012732 0.0181000
v 0.0026976 0.0007607 0.0181000
v 0.0028066 0.0001104 0.0181000
v 0.0027343 -0.0006280 0.0181000
v 0.0024673 -0.0013459 0.0181000
v 0.0020709 -0.0018875 0.0181000
v 0.0015001 -0.0023843 0.0181000
v 0.0006818 -0.0027214 0.0181000
v 0.0000000 -0.0028069 0.0181000
v -0.0006547 -0.0027268 0.0181000
v -0.0012490 -0.0025121 0.0181000
v -0.0017351 -0.0022011 0.0181000
v -0.0021323 -0.0018213 0.0181000
v -0.0025541 -0.0011775 0.0181000
v -0.0027698 -0.0004387 0.0181000
v -0.0027929 0.0003305 0.0181000
v -0.0025508 0.0011760 0.0181000
v -0.0021511 0.0018010 0.0181000
v -0.0015001 0.0023843 0.0181000
v -0.0006817 0.0027214 0.0181000
v -0.0025752 -0.0001097 0.0174981
v -0.0022915 -0.0011419 0.0174968
v -0.0024379 -0.0006013 0.0174789
vn 0.000000 0.000000 1.000000
vn 0.000000 0.000000 1.000000
vn 0.000000 0.000000 1.000000
vn 0.000000 0.000000 1.000000
vn 0.000000 0.000000 1.000000
vn 0.000000 0.000000 1.000000
vn 0.000000 0.000000 1.000000
vn 0.000000 0.000000 1.000000
vn 0.000000 0.000000 1.000000
vn 0.000000 0.000000 1.000000
vn 0.000000 0.000000 1.000000
vn 0.000000 0.000000 1.000000
vn 0.000000 0.000000 1.000000
vn 0.000000 0.000000 1.000000
vn 0.000000 0.000000 1.000000
vn 0.000000 0.000000 1.000000
vn 0.000000 0.000000 1.000000
vn 0.000000 0.000000 1.000000
vn 0.000000 0.000000 1.000000
vn 0.000000 0.000000 1.000000
vn 0.000000 0.000000 1.000000
vn 0.000000 0.000000 1.000000
vn 0.000000 0.000000 1.000000
vn 0.000000 0.000000 1.000000
vn 0.000000 0.000000 1.000000
vn 0.000000 0.000000 1.000000
vn 0.000000 0.000000 1.000000
vn 0.000000 0.000000 1.000000
vn 0.000000 0.000000 1.000000
vn 0.000000 0.000000 1.000000
vn 0.000000 0.000000 1.000000
vn 0.000000 0.000000 1.000000
vn 0.000000 0.000000 1.000000
vn 0.000000 0.000000 1.000000
vn 0.000000 0.000000 1.000000
vn 0.000000 0.000000 1.000000
vn 0.000000 0.000000 1.000000
vn 0.000000 0.000000 1.000000
vn 0.000000 0.000000 1.000000
vn 0.000000 0.000000 1.000000
vn 0.000000 0.000000 1.000000
vn 0.000000 0.000000 1.000000
vn 0.000000 0.000000 1.000000
vn 0.000000 0.000000 1.000000
vn 0.000000 0.000000 1.000000
vn 0.000000 0.000000 1.000000
vn 0.000000 0.000000 1.000000
vn 0.000000 0.000000 1.000000
vn 0.000000 0.000000 1.000000
vn 0.000000 0.000000 1.000000
vn 0.005729 0.999966 0.005963
vn 0.204039 0.978956 0.003711
vn 0.401552 0.915826 0.004357
vn 0.622880 0.782310 0.003437
vn 0.785304 0.619109 0.000813
vn 0.909918 0.414781 0.002363
vn 0.992157 0.124932 0.004043
vn 0.987497 -0.157501 0.006611
vn 0.919905 -0.392083 0.006722
vn 0.802053 -0.597234 0.004720
vn 0.638075 -0.769956 0.005365
vn 0.415535 -0.909545 0.007608
vn 0.191895 -0.981395 0.006330
vn -0.008233 -0.999953 0.005208
vn -0.203555 -0.979050 0.005203
vn -0.402568 -0.915367 0.006438
vn -0.632136 -0.774820 0.007621
vn -0.836428 -0.547956 0.011527
vn -0.962304 -0.271792 0.009976
vn -0.999291 -0.036973 0.007084
vn -0.986138 0.165828 0.005715
vn -0.935505 0.353286 0.004319
vn -0.849665 0.527293 0.005635
vn -0.701732 0.712383 0.009121
vn -0.480272 0.877067 0.009627
vn -0.230972 0.972913 0.009591
vn -0.070240 -0.997517 -0.005208
vn -0.113377 0.993494 -0.010766
vn -0.382784 0.923789 -0.009454
vn -0.589664 0.807609 -0.008038
vn -0.757490 0.652818 -0.006187
vn -0.875550 0.483107 -0.004421
vn -0.952774 0.303627 -0.005655
vn -0.997023 0.076720 -0.007741
vn -0.985737 -0.168017 -0.009661
vn -0.910020 -0.414464 -0.009132
vn -0.785789 -0.618481 -0.004094
vn -0.639676 -0.768640 -0.002590
vn -0.452095 -0.891959 -0.004276
vn -0.263098 -0.964755 -0.005205
vn 0.126106 -0.992003 -0.005204
vn 0.315539 -0.948890 -0.006607
vn 0.498222 -0.867036 -0.004918
vn 0.664357 -0.747406 -0.003764
vn 0.830818 -0.556504 -0.006678
vn 0.945064 -0.326813 -0.006947
vn 0.993848 -0.110702 -0.003255
vn 0.991672 0.128774 -0.002002
vn 0.916919 0.399068 -0.002037
vn 0.788663 0.614825 -0.001290
vn 0.639637 0.768673 -0.002594
vn 0.441596 0.897198 -0.005352
vn 0.189157 0.981902 -0.009339
vn -0.000724 -0.006465 -0.999979
vn -0.000615 0.004335 -0.999990
vn -0.002568 0.005004 -0.999984
vn -0.001958 0.002830 -0.999994
vn -0.002801 0.002364 -0.999993
vn -0.003094 0.001768 -0.999994
vn -0.004626 0.001619 -0.999988
vn -0.002163 0.000221 -0.999998
vn -0.002780 -0.000144 -0.999996
vn -0.003779 -0.001392 -0.999992
vn -0.004190 -0.003127 -0.999986
vn -0.003322 -0.004136 -0.999986
vn -0.002323 -0.004611 -0.999987
vn -0.001472 -0.005165 -0.999986
vn 0.000750 -0.006372 -0.999979
vn 0.002265 -0.004623 -0.999987
vn 0.002002 -0.006004 -0.999980
vn 0.005560 -0.006070 -0.999966
vn 0.004260 -0.002006 -0.999989
vn 0.004473 -0.001897 -0.999988
vn 0.005668 -0.000641 -0.999984
vn 0.006342 0.000554 -0.999980
vn 0.006421 0.002677 -0.999976
vn 0.005495 0.004391 -0.999975
vn 0.004200 0.005245 -0.999977
vn 0.002249 0.005488 -0.999982
vn 0.000812 0.004723 -0.999989
vn 0.007745 0.219262 -0.975635
vn -0.008249 -0.220357 -0.975385
vn -0.150555 -0.007215 -0.988575
vn 0.013095 -0.960148 -0.279184
vn -0.134986 -0.940903 -0.310613
vn -0.283266 -0.931195 -0.229424
vn -0.357510 -0.897155 -0.259422
vn -0.484565 -0.847179 -0.217909
vn -0.563539 -0.765564 -0.310380
vn -0.650680 -0.712041 -0.263843
vn -0.741670 -0.583078 -0.331581
vn -0.815225 -0.485144 -0.316297
vn -0.872343 -0.389513 -0.295461
vn -0.936561 -0.259156 -0.235989
vn -0.940089 -0.105240 -0.324281
vn -0.959098 0.053432 -0.277987
vn -0.975309 0.181895 -0.125248
vn -0.876121 0.413728 -0.247468
vn -0.798255 0.525172 -0.294930
vn -0.699435 0.647030 -0.303550
vn -0.589877 0.747460 -0.305531
vn -0.445811 0.837925 -0.314855
vn -0.336645 0.909890 -0.242425
vn -0.189318 0.920103 -0.342883
vn -0.054015 0.700143 -0.711956
vn -0.018785 0.968038 -0.250098
vn -0.077745 -0.702387 -0.707537
vn -0.157519 -0.740240 -0.653631
vn -0.080472 -0.237237 -0.968113
vn -0.288052 -0.634704 -0.717062
vn -0.114936 -0.216679 -0.969453
vn -0.431547 -0.593687 -0.679192
vn -0.136723 -0.127822 -0.982328
vn -0.456969 -0.394310 -0.797307
vn -0.562154 -0.384722 -0.732101
vn -0.177912 -0.092519 -0.979688
vn -0.606002 -0.257201 -0.752735
vn -0.618757 -0.172052 -0.766510
vn -0.743206 -0.233871 -0.626857
vn -0.590010 -0.012891 -0.807293
vn -0.776437 0.067202 -0.626601
vn -0.317710 0.045920 -0.947075
vn -0.887829 0.263960 -0.376942
vn -0.627095 0.207105 -0.750905
vn -0.187222 0.081320 -0.978946
vn -0.589847 0.342756 -0.731163
vn -0.147914 0.119690 -0.981731
vn -0.475618 0.379733 -0.793467
vn -0.438032 0.473016 -0.764450
vn -0.327398 0.567763 -0.755285
vn -0.105987 0.141204 -0.984291
vn -0.251110 0.674413 -0.694342
vn -0.084646 0.242499 -0.966452
vn -0.116422 0.685711 -0.718503
vn -0.045449 0.998946 -0.006362
vn -0.293096 0.956041 -0.008940
vn -0.564528 0.825359 -0.009496
vn -0.791947 0.610523 -0.009009
vn -0.939439 0.342611 -0.008461
vn -0.997141 0.075217 -0.007230
vn -0.986260 -0.165049 -0.007078
vn -0.915495 -0.402226 -0.009154
vn -0.749844 -0.661519 -0.011296
vn -0.484721 -0.874606 -0.010457
vn -0.189035 -0.981935 -0.008345
vn 0.121807 -0.992510 -0.009289
vn 0.427311 -0.904045 -0.010407
vn 0.687120 -0.726486 -0.009187
vn 0.877586 -0.479354 -0.007889
vn 0.981590 -0.190889 -0.006486
vn 0.995656 0.092751 -0.008120
vn 0.917847 0.396744 -0.012312
vn 0.730316 0.683021 -0.010976
vn 0.480552 0.876929 -0.008119
vn 0.198546 0.980070 -0.006484
vn 0.121624 0.943808 -0.307303
vn 0.269615 0.931006 -0.246039
vn 0.370023 0.906993 -0.201116
vn 0.512586 0.819624 -0.255875
vn 0.661127 0.711670 -0.237564
vn 0.756542 0.617706 -0.214670
vn 0.763318 0.517697 -0.386439
vn 0.877537 0.399665 -0.264948
vn 0.917578 0.259683 -0.301023
vn 0.961964 0.166675 -0.216437
vn 0.978367 0.027527 -0.205037
vn 0.962917 -0.136343 -0.232813
vn 0.946411 -0.271054 -0.175603
vn 0.879122 -0.414331 -0.235531
vn 0.805062 -0.559441 -0.197230
vn 0.752140 -0.619351 -0.225143
vn 0.645717 -0.727069 -0.233280
vn 0.538702 -0.809845 -0.232273
vn 0.412254 -0.866729 -0.280764
vn 0.268492 -0.936172 -0.226925
vn 0.118368 -0.958685 -0.258676
vn 0.105471 0.653739 -0.749334
vn 0.188667 0.686949 -0.701788
vn 0.066544 0.243518 -0.967611
vn 0.318791 0.680038 -0.660243
vn 0.135568 0.230712 -0.963532
vn 0.394291 0.621695 -0.676779
vn 0.422197 0.551758 -0.719245
vn 0.161657 0.182150 -0.969891
vn 0.561565 0.491567 -0.665587
vn 0.278060 0.148247 -0.949055
vn 0.619953 0.302533 -0.723969
vn 0.646724 0.246554 -0.721775
vn 0.232834 0.068791 -0.970080
vn 0.640090 0.116434 -0.759426
vn 0.739312 0.097906 -0.666207
vn 0.263360 0.015940 -0.964566
vn 0.730680 -0.058565 -0.680204
vn 0.262143 -0.045764 -0.963943
vn 0.860906 -0.211934 -0.462520
vn 0.590509 -0.194923 -0.783137
vn 0.206068 -0.071515 -0.975921
vn 0.676334 -0.412725 -0.610107
vn 0.540130 -0.313826 -0.780880
vn 0.144967 -0.101473 -0.984219
vn 0.510897 -0.516264 -0.687354
vn 0.163034 -0.213777 -0.963182
vn 0.408752 -0.650414 -0.640221
vn 0.241848 -0.596790 -0.765082
vn 0.082913 -0.193918 -0.977508
vn 0.233398 -0.763446 -0.602225
vn 0.050989 -0.275005 -0.960090
vn 0.081347 -0.728108 -0.680618
vn 0.000000 0.000000 -1.000000
vn 0.000000 0.000000 -1.000000
vn 0.000000 0.000000 -1.000000
vn 0.000000 0.000000 -1.000000
vn 0.000000 0.000000 -1.000000
vn 0.000000 0.000000 -1.000000
vn 0.000000 0.000000 -1.000000
vn 0.000000 0.000000 -1.000000
vn 0.000000 0.000000 -1.000000
vn 0.000000 0.000000 -1.000000
vn 0.000000 0.000000 -1.000000
vn 0.000000 0.000000 -1.000000
vn 0.000000 0.000000 -1.000000
vn 0.000000 0.000000 -1.000000
vn 0.000000 0.000000 -1.000000
vn 0.000000 0.000000 -1.000000
vn 0.000000 0.000000 -1.000000
vn 0.000000 0.000000 -1.000000
vn 0.000000 0.000000 -1.000000
vn 0.000000 0.000000 -1.000000
vn 0.000000 0.000000 -1.000000
vn 0.000000 0.000000 -1.000000
vn 0.000000 0.000000 -1.000000
vn 0.000000 0.000000 -1.000000
vn 0.000000 0.000000 -1.000000
vn 0.000000 0.000000 -1.000000
vn 0.000000 0.000000 -1.000000
vn 0.000000 0.000000 -1.000000
vn 0.000000 0.000000 -1.000000
vn 0.000000 0.000000 -1.000000
vn 0.000000 0.000000 -1.000000
vn 0.000000 0.000000 -1.000000
vn 0.000000 0.000000 -1.000000
vn 0.000000 0.000000 -1.000000
vn 0.000000 0.000000 -1.000000
vn 0.000000 0.000000 -1.000000
vn 0.000000 0.000000 -1.000000
vn 0.000000 0.000000 -1.000000
vn 0.000000 0.000000 -1.000000
vn -0.036382 0.999338 0.000917
vn 0.332826 0.942984 0.002711
vn 0.656926 0.753943 0.004335
vn 0.847601 0.530633 0.000765
vn 0.963960 0.266020 0.003727
vn 0.994939 -0.100259 0.006714
vn 0.898506 -0.438931 0.005169
vn 0.710153 -0.704039 0.003434
vn 0.440884 -0.897557 0.003586
vn 0.160938 -0.986953 0.004756
vn -0.163243 -0.986558 0.007479
vn -0.532293 -0.846535 0.006495
vn -0.780216 -0.625503 0.003199
vn -0.932821 -0.360328 0.002924
vn -0.999761 0.021191 0.005359
vn -0.912787 0.408374 0.007125
vn -0.688118 0.725557 0.007820
vn -0.366775 0.930292 0.005739
vn 0.982566 0.185783 -0.007053
vn 0.840417 0.541924 -0.004293
vn 0.599364 0.800460 -0.005145
vn 0.275888 0.961189 -0.001557
vn -0.082596 0.996581 -0.001959
vn 0.040411 -0.999163 -0.006336
vn 0.378879 -0.925437 -0.004049
vn 0.666264 -0.745707 -0.003708
vn 0.858955 -0.512038 -0.003727
vn 0.976790 -0.214092 -0.006696
vn -0.477522 0.878581 -0.008310
vn -0.780363 0.625282 -0.007561
vn -0.951022 0.309075 -0.005457
vn -0.999546 -0.030076 -0.001723
vn -0.944306 -0.329067 -0.000417
vn -0.812498 -0.582958 -0.002614
vn -0.612760 -0.790254 -0.004863
vn -0.309044 -0.951020 -0.007249
vn 0.689276 0.138578 0.711122
vn 0.589936 0.389642 0.707217
vn 0.429091 0.558566 0.709848
vn 0.184504 0.680628 0.709016
vn -0.058243 0.696301 0.715382
vn 0.020582 -0.705433 0.708478
vn 0.270623 -0.649744 0.710349
vn 0.467237 -0.527114 0.709817
vn 0.636339 -0.351772 0.686534
vn 0.686614 -0.154047 0.710515
vn 0.033281 0.712899 0.700476
vn 0.696766 0.108897 0.708984
vn 0.598997 0.373172 0.708481
vn 0.471489 0.528259 0.706145
vn 0.272662 0.647876 0.711275
vn 0.141869 -0.691078 0.708721
vn 0.373252 -0.603450 0.704650
vn 0.562379 -0.442259 0.698668
vn 0.695180 -0.161046 0.700563
vn -0.340509 0.608909 0.716438
vn -0.548411 0.440143 0.710999
vn -0.690160 0.196059 0.696592
vn -0.707535 0.002503 0.706674
vn -0.664470 -0.230216 0.710972
vn -0.574995 -0.403394 0.711796
vn -0.446697 -0.558906 0.698631
vn -0.212160 -0.670086 0.711317
vn -0.708455 -0.046959 0.704192
vn -0.658253 -0.275591 0.700537
vn -0.546707 -0.461406 0.698724
vn -0.333901 -0.620933 0.709191
vn -0.101980 -0.706547 0.700280
vn -0.184517 0.671839 0.717347
vn -0.382934 0.597210 0.704771
vn -0.532774 0.465055 0.707019
vn -0.667210 0.253635 0.700357
vn -0.000014 0.000054 1.000000
vn 0.000105 0.000005 1.000000
vn -0.000014 0.000181 1.000000
vn 0.000021 0.000039 1.000000
vn 0.000012 0.000015 1.000000
vn -0.000038 -0.000071 1.000000
vn -0.000012 -0.000140 1.000000
vn 0.000090 -0.000047 1.000000
vn 0.000093 -0.000082 1.000000
vn -0.000100 -0.000008 1.000000
vn -0.000093 -0.000012 1.000000
vn -0.000129 -0.000010 1.000000
vn 0.000064 -0.000157 1.000000
vn 0.000073 -0.000100 1.000000
vn 0.000047 0.000077 1.000000
vn 0.000002 0.000111 1.000000
vn -0.000051 0.000112 1.000000
vn -0.000108 0.000015 1.000000
vn 0.000002 -0.000049 1.000000
vn -0.000014 -0.000024 1.000000
vn 0.000003 -0.000122 1.000000
vn -0.000107 -0.000152 1.000000
vn -0.000112 -0.000071 1.000000
vn -0.000088 -0.000046 1.000000
vn -0.000087 -0.000017 1.000000
vn -0.000074 -0.000002 1.000000
vn -0.000103 0.000009 1.000000
vn -0.000103 0.000060 1.000000
vn -0.000065 0.000074 1.000000
vn -0.000029 0.000058 1.000000
vn 0.000001 0.000036 1.000000
vn -0.000000 0.000012 1.000000
vn -0.000007 0.000048 1.000000
vn 0.000033 0.000067 1.000000
vn 0.000035 0.000011 1.000000
vn 0.000020 0.000054 1.000000
vn 0.000116 0.000079 1.000000
vn 0.000185 0.000029 1.000000
vn 0.000119 -0.000044 1.000000
vn 0.000095 -0.000029 1.000000
vn 0.000095 -0.000081 1.000000
vn 0.000034 -0.000090 1.000000
vn 0.000013 -0.000048 1.000000
vn 0.001465 0.999998 -0.001621
vn -0.230551 0.973058 -0.002159
vn -0.480892 0.876744 -0.007985
vn -0.724505 0.689226 -0.007728
vn -0.882065 0.471117 -0.003149
vn -0.963010 0.269450 -0.002922
vn -0.999509 0.030135 -0.008636
vn -0.967244 -0.253737 -0.007543
vn -0.870148 -0.492754 -0.005973
vn -0.703816 -0.710327 -0.008863
vn -0.463386 -0.886087 -0.011133
vn -0.220545 -0.975336 -0.008952
vn 0.035227 -0.999359 -0.006329
vn 0.260562 -0.965455 -0.001946
vn 0.445718 -0.895157 -0.005418
vn 0.652138 -0.758003 -0.012182
vn 0.846459 -0.532309 -0.012415
vn 0.968029 -0.250501 -0.012975
vn 0.999477 0.030219 -0.011555
vn 0.957752 0.287428 -0.009750
vn 0.872326 0.488923 -0.001120
vn 0.752792 0.658255 -0.001943
vn 0.522102 0.852816 -0.010645
vn 0.242942 0.970027 -0.005244
vn 0.048443 -0.998817 0.004202
vn -0.153367 -0.988154 0.005511
vn -0.376279 -0.926476 0.007522
vn -0.566732 -0.823877 0.006395
vn -0.745776 -0.666162 0.006859
vn -0.886371 -0.462965 0.003121
vn -0.963898 -0.266227 0.004851
vn -0.999309 -0.036639 0.006326
vn -0.973968 0.226551 0.007777
vn -0.879541 0.475816 0.002477
vn -0.737819 0.674979 0.005128
vn -0.526753 0.850001 0.005543
vn -0.252860 0.967487 0.005438
vn -0.000823 0.999998 0.001675
vn 0.232031 0.972707 0.001620
vn 0.437927 0.898994 0.005478
vn 0.621446 0.783441 0.004966
vn 0.768779 0.639512 0.001619
vn 0.906514 0.422127 0.006368
vn 0.987440 0.157558 0.011763
vn 0.992179 -0.124211 0.012347
vn 0.911995 -0.409993 0.013059
vn 0.760838 -0.648807 0.013234
vn 0.531048 -0.847268 0.011157
vn 0.258682 -0.965943 0.006134
vn -0.958252 -0.263306 -0.111458
vn -0.958252 -0.263306 -0.111458
vn -0.958252 -0.263306 -0.111458
f 30//30 11//11 10//10
f 47//47 18//18 48//48
f 3//3 37//37 4//4
f 19//19 47//47 46//46
f 19//19 18//18 47//47
f 3//3 38//38 37//37
f 19//19 46//46 45//45
f 2//2 38//38 3//3
f 20//20 19//19 45//45
f 1//1 39//39 38//38
f 1//1 38//38 2//2
f 37//37 36//36 4//4
f 21//21 20//20 45//45
f 26//26 40//40 39//39
f 26//26 41//41 40//40
f 22//22 21//21 44//44
f 25//25 41//41 26//26
f 22//22 44//44 43//43
f 23//23 22//22 43//43
f 25//25 42//42 41//41
f 24//24 42//42 25//25
f 24//24 23//23 43//43
f 24//24 43//43 42//42
f 26//26 39//39 1//1
f 18//18 17//17 48//48
f 21//21 45//45 44//44
f 4//4 36//36 5//5
f 48//48 17//17 49//49
f 29//29 11//11 30//30
f 31//31 30//30 10//10
f 29//29 12//12 11//11
f 31//31 10//10 9//9
f 28//28 12//12 29//29
f 32//32 31//31 9//9
f 28//28 13//13 12//12
f 33//33 32//32 8//8
f 27//27 13//13 28//28
f 27//27 14//14 13//13
f 32//32 9//9 8//8
f 33//33 8//8 7//7
f 34//34 33//33 7//7
f 50//50 15//15 14//14
f 50//50 14//14 27//27
f 34//34 7//7 6//6
f 50//50 16//16 15//15
f 49//49 16//16 50//50
f 35//35 34//34 6//6
f 17//17 16//16 49//49
f 36//36 6//6 5//5
f 36//36 35//35 6//6
f 57//57 98//98 99//99
f 56//56 57//57 99//99
f 56//56 99//99 100//100
f 55//55 56//56 100//100
f 54//54 55//55 100//100
f 53//53 102//102 103//103
f 54//54 101//101 102//102
f 53//53 54//54 102//102
f 52//52 53//53 103//103
f 57//57 58//58 97//97
f 54//54 100//100 101//101
f 57//57 97//97 98//98
f 63//63 64//64 91//91
f 58//58 59//59 96//96
f 59//59 95//95 96//96
f 59//59 60//60 95//95
f 60//60 94//94 95//95
f 60//60 61//61 94//94
f 61//61 93//93 94//94
f 61//61 62//62 93//93
f 62//62 92//92 93//93
f 62//62 63//63 92//92
f 63//63 91//91 92//92
f 64//64 77//77 91//91
f 51//51 52//52 103//103
f 58//58 96//96 97//97
f 51//51 103//103 78//78
f 72//72 82//82 83//83
f 69//69 85//85 86//86
f 73//73 74//74 81//81
f 71//71 72//72 83//83
f 71//71 83//83 84//84
f 70//70 71//71 84//84
f 70//70 84//84 85//85
f 69//69 70//70 85//85
f 74//74 80//80 81//81
f 68//68 69//69 86//86
f 68//68 86//86 87//87
f 67//67 68//68 87//87
f 67//67 87//87 88//88
f 67//67 88//88 89//89
f 72//72 73//73 82//82
f 66//66 67//67 89//89
f 65//65 66//66 90//90
f 65//65 90//90 77//77
f 64//64 65//65 77//77
f 74//74 75//75 80//80
f 75//75 79//79 80//80
f 75//75 76//76 79//79
f 76//76 78//78 79//79
f 76//76 51//51 78//78
f 66//66 89//89 90//90
f 73//73 81//81 82//82
f 196//196 226//226 134//134
f 196//196 225//225 226//226
f 196//196 197//197 225//225
f 197//197 223//223 224//224
f 230//230 208//208 207//207
f 229//229 230//230 228//228
f 230//230 209//209 208//208
f 227//227 156//156 155//155
f 227//227 206//206 156//156
f 227//227 155//155 131//131
f 229//229 227//227 131//131
f 228//228 207//207 206//206
f 228//228 206//206 227//227
f 229//229 228//228 227//227
f 230//230 207//207 228//228
f 197//197 198//198 223//223
f 198//198 222//222 223//223
f 189//189 147//147 173//173
f 198//198 220//220 221//221
f 185//185 186//186 154//154
f 186//186 153//153 154//154
f 186//186 152//152 153//153
f 186//186 187//187 152//152
f 187//187 151//151 152//152
f 187//187 150//150 151//151
f 187//187 188//188 150//150
f 188//188 149//149 150//150
f 188//188 148//148 149//149
f 188//188 189//189 148//148
f 189//189 173//173 148//148
f 231//231 230//230 229//229
f 189//189 190//190 147//147
f 190//190 146//146 147//147
f 190//190 191//191 145//145
f 190//190 145//145 146//146
f 191//191 144//144 145//145
f 191//191 192//192 144//144
f 192//192 143//143 144//144
f 185//185 154//154 156//156
f 205//205 156//156 206//206
f 205//205 185//185 156//156
f 205//205 206//206 207//207
f 198//198 199//199 220//220
f 199//199 219//219 220//220
f 199//199 200//200 218//218
f 199//199 218//218 219//219
f 200//200 217//217 218//218
f 200//200 201//201 216//216
f 200//200 216//216 217//217
f 201//201 215//215 216//216
f 201//201 202//202 214//214
f 198//198 221//221 222//222
f 201//201 214//214 215//215
f 202//202 212//212 213//213
f 202//202 203//203 212//212
f 203//203 211//211 212//212
f 203//203 210//210 211//211
f 203//203 209//209 210//210
f 203//203 204//204 209//209
f 204//204 208//208 209//209
f 204//204 207//207 208//208
f 204//204 205//205 207//207
f 202//202 213//213 214//214
f 232//232 209//209 230//230
f 242//242 241//241 240//240
f 233//233 209//209 232//232
f 248//248 219//219 246//246
f 249//249 246//246 247//247
f 249//249 248//248 246//246
f 248//248 220//220 219//219
f 250//250 249//249 247//247
f 221//221 220//220 248//248
f 251//251 221//221 248//248
f 251//251 248//248 249//249
f 250//250 251//251 249//249
f 251//251 222//222 221//221
f 252//252 251//251 250//250
f 253//253 223//223 222//222
f 253//253 222//222 251//251
f 252//252 253//253 251//251
f 224//224 223//223 253//253
f 254//254 224//224 253//253
f 254//254 253//253 252//252
f 255//255 254//254 252//252
f 256//256 225//225 224//224
f 256//256 224//224 254//254
f 257//257 256//256 254//254
f 257//257 254//254 255//255
f 258//258 226//226 225//225
f 258//258 225//225 256//256
f 258//258 256//256 257//257
f 258//258 157//157 134//134
f 258//258 134//134 226//226
f 258//258 132//132 157//157
f 132//132 258//258 257//257
f 246//246 219//219 245//245
f 232//232 230//230 231//231
f 219//219 218//218 245//245
f 246//246 243//243 244//244
f 233//233 232//232 231//231
f 234//234 233//233 231//231
f 233//233 210//210 209//209
f 235//235 210//210 233//233
f 234//234 235//235 233//233
f 211//211 210//210 235//235
f 212//212 211//211 235//235
f 236//236 212//212 235//235
f 236//236 235//235 234//234
f 237//237 212//212 236//236
f 237//237 213//213 212//212
f 238//238 213//213 237//237
f 238//238 237//237 236//236
f 239//239 238//238 236//236
f 214//214 213//213 238//238
f 240//240 214//214 238//238
f 240//240 238//238 239//239
f 241//241 215//215 214//214
f 241//241 214//214 240//240
f 242//242 240//240 239//239
f 241//241 216//216 215//215
f 192//192 142//142 143//143
f 243//243 216//216 241//241
f 243//243 241//241 242//242
f 217//217 216//216 243//243
f 244//244 243//243 242//242
f 245//245 218//218 217//217
f 245//245 217//217 243//243
f 246//246 245//245 243//243
f 247//247 246//246 244//244
f 192//192 193//193 142//142
f 197//197 224//224 225//225
f 193//193 140//140 141//141
f 119//119 255//255 120//120
f 110//110 172//172 133//133
f 119//119 257//257 255//255
f 118//118 257//257 119//119
f 111//111 110//110 133//133
f 104//104 132//132 257//257
f 104//104 257//257 118//118
f 112//112 111//111 133//133
f 104//104 159//159 132//132
f 112//112 133//133 166//166
f 117//117 159//159 104//104
f 117//117 161//161 159//159
f 113//113 112//112 166//166
f 116//116 161//161 117//117
f 113//113 166//166 163//163
f 115//115 161//161 116//116
f 114//114 113//113 163//163
f 115//115 163//163 161//161
f 115//115 114//114 163//163
f 135//135 134//134 157//157
f 158//158 135//135 157//157
f 158//158 136//136 135//135
f 159//159 158//158 157//157
f 137//137 136//136 158//158
f 160//160 137//137 158//158
f 160//160 158//158 159//159
f 160//160 138//138 137//137
f 161//161 160//160 159//159
f 162//162 138//138 160//160
f 110//110 109//109 175//175
f 162//162 160//160 161//161
f 110//110 175//175 172//172
f 120//120 255//255 252//252
f 193//193 141//141 142//142
f 234//234 128//128 127//127
f 236//236 234//234 127//127
f 231//231 128//128 234//234
f 236//236 127//127 126//126
f 231//231 129//129 128//128
f 229//229 129//129 231//231
f 239//239 236//236 126//126
f 229//229 130//130 129//129
f 239//239 126//126 125//125
f 242//242 239//239 125//125
f 244//244 242//242 125//125
f 131//131 105//105 130//130
f 131//131 130//130 229//229
f 244//244 125//125 124//124
f 244//244 124//124 123//123
f 247//247 244//244 123//123
f 131//131 106//106 105//105
f 183//183 106//106 131//131
f 247//247 123//123 122//122
f 181//181 107//107 106//106
f 181//181 106//106 183//183
f 250//250 247//247 122//122
f 252//252 250//250 122//122
f 177//177 107//107 181//181
f 108//108 107//107 177//177
f 121//121 252//252 122//122
f 175//175 108//108 177//177
f 109//109 108//108 175//175
f 120//120 252//252 121//121
f 139//139 138//138 162//162
f 159//159 157//157 132//132
f 162//162 140//140 139//139
f 178//178 149//149 176//176
f 178//178 176//176 177//177
f 178//178 150//150 149//149
f 179//179 150//150 178//178
f 179//179 178//178 177//177
f 179//179 151//151 150//150
f 163//163 162//162 161//161
f 180//180 151//151 179//179
f 180//180 179//179 181//181
f 180//180 152//152 151//151
f 183//183 180//180 181//181
f 182//182 153//153 152//152
f 182//182 152//152 180//180
f 183//183 182//182 180//180
f 177//177 176//176 175//175
f 154//154 153//153 182//182
f 184//184 182//182 183//183
f 131//131 184//184 183//183
f 155//155 156//156 154//154
f 155//155 154//154 184//184
f 184//184 131//131 155//155
f 195//195 134//134 135//135
f 195//195 196//196 134//134
f 195//195 135//135 136//136
f 194//194 195//195 136//136
f 194//194 136//136 137//137
f 194//194 137//137 138//138
f 194//194 138//138 139//139
f 193//193 194//194 139//139
f 193//193 139//139 140//140
f 184//184 154//154 182//182
f 149//149 148//148 176//176
f 181//181 179//179 177//177
f 176//176 148//148 174//174
f 164//164 140//140 162//162
f 164//164 162//162 163//163
f 141//141 140//140 164//164
f 165//165 141//141 164//164
f 163//163 165//165 164//164
f 165//165 142//142 141//141
f 176//176 174//174 175//175
f 167//167 143//143 142//142
f 167//167 142//142 165//165
f 166//166 167//167 165//165
f 168//168 167//167 166//166
f 169//169 144//144 143//143
f 169//169 143//143 167//167
f 168//168 169//169 167//167
f 166//166 165//165 163//163
f 145//145 144//144 169//169
f 174//174 148//148 173//173
f 175//175 174//174 172//172
f 174//174 173//173 172//172
f 173//173 171//171 172//172
f 171//171 147//147 146//146
f 133//133 172//172 170//170
f 173//173 147//147 171//171
f 172//172 171//171 170//170
f 171//171 146//146 170//170
f 146//146 145//145 170//170
f 170//170 168//168 133//133
f 170//170 145//145 168//168
f 168//168 145//145 169//169
f 264//264 285//285 265//265
f 266//266 284//284 283//283
f 279//279 291//291 290//290
f 279//279 278//278 291//291
f 265//265 284//284 266//266
f 265//265 285//285 284//284
f 266//266 283//283 267//267
f 259//259 290//290 289//289
f 262//262 287//287 286//286
f 260//260 259//259 289//289
f 263//263 285//285 264//264
f 260//260 289//289 288//288
f 263//263 286//286 285//285
f 261//261 260//260 288//288
f 262//262 261//261 287//287
f 261//261 288//288 287//287
f 278//278 277//277 291//291
f 259//259 279//279 290//290
f 283//283 282//282 267//267
f 262//262 286//286 263//263
f 282//282 268//268 267//267
f 296//296 273//273 272//272
f 295//295 273//273 296//296
f 296//296 272//272 271//271
f 297//297 296//296 271//271
f 295//295 274//274 273//273
f 297//297 271//271 270//270
f 294//294 274//274 295//295
f 280//280 297//297 270//270
f 291//291 277//277 292//292
f 280//280 270//270 269//269
f 294//294 276//276 275//275
f 281//281 280//280 269//269
f 293//293 276//276 294//294
f 281//281 269//269 268//268
f 293//293 277//277 276//276
f 292//292 277//277 293//293
f 282//282 281//281 268//268
f 294//294 275//275 274//274
f 331//331 310//310 311//311
f 331//331 311//311 330//330
f 333//333 308//308 309//309
f 332//332 309//309 310//310
f 333//333 309//309 332//332
f 330//330 312//312 329//329
f 332//332 310//310 331//331
f 330//330 311//311 312//312
f 327//327 313//313 314//314
f 328//328 312//312 313//313
f 328//328 313//313 327//327
f 327//327 314//314 326//326
f 326//326 314//314 315//315
f 326//326 315//315 320//320
f 320//320 315//315 298//298
f 321//321 308//308 333//333
f 329//329 312//312 328//328
f 320//320 299//299 319//319
f 317//317 302//302 316//316
f 319//319 299//299 318//318
f 321//321 307//307 308//308
f 322//322 307//307 321//321
f 322//322 306//306 307//307
f 323//323 306//306 322//322
f 320//320 298//298 299//299
f 324//324 305//305 323//323
f 324//324 304//304 305//305
f 325//325 304//304 324//324
f 323//323 305//305 306//306
f 316//316 303//303 325//325
f 316//316 302//302 303//303
f 317//317 301//301 302//302
f 317//317 300//300 301//301
f 318//318 300//300 317//317
f 318//318 299//299 300//300
f 325//325 303//303 304//304
f 362//362 357//357 361//361
f 360//360 364//364 365//365
f 360//360 365//365 339//339
f 364//364 360//360 359//359
f 359//359 363//363 364//364
f 363//363 359//359 358//358
f 363//363 358//358 362//362
f 362//362 358//358 357//357
f 361//361 357//357 356//356
f 349//349 339//339 365//365
f 355//355 369//369 361//361
f 340//340 339//339 349//349
f 350//350 340//340 349//349
f 356//356 355//355 361//361
f 351//351 341//341 350//350
f 351//351 342//342 341//341
f 342//342 351//351 352//352
f 343//343 342//342 352//352
f 345//345 334//334 343//343
f 345//345 343//343 352//352
f 346//346 335//335 334//334
f 346//346 334//334 345//345
f 336//336 346//346 347//347
f 350//350 341//341 340//340
f 336//336 347//347 348//348
f 336//336 335//335 346//346
f 369//369 354//354 368//368
f 368//368 353//353 367//367
f 368//368 354//354 353//353
f 367//367 353//353 366//366
f 369//369 355//355 354//354
f 338//338 344//344 366//366
f 337//337 348//348 344//344
f 337//337 344//344 338//338
f 348//348 337//337 336//336
f 366//366 353//353 338//338
f 391//391 382//382 392//392
f 389//389 375//375 383//383
f 406//406 405//405 372//372
f 390//390 382//382 391//391
f 406//406 372//372 371//371
f 390//390 383//383 382//382
f 407//407 406//406 371//371
f 389//389 383//383 390//390
f 408//408 371//371 378//378
f 411//411 376//376 375//375
f 388//388 375//375 389//389
f 412//412 375//375 388//388
f 409//409 408//408 378//378
f 411//411 375//375 412//412
f 409//409 378//378 377//377
f 410//410 409//409 377//377
f 411//411 377//377 376//376
f 410//410 377//377 411//411
f 392//392 382//382 381//381
f 408//408 407//407 371//371
f 405//405 373//373 372//372
f 385//385 399//399 398//398
f 373//373 404//404 374//374
f 405//405 404//404 373//373
f 385//385 398//398 386//386
f 386//386 398//398 397//397
f 387//387 386//386 397//397
f 384//384 400//400 399//399
f 387//387 397//397 396//396
f 379//379 396//396 395//395
f 379//379 387//387 396//396
f 370//370 400//400 384//384
f 384//384 399//399 385//385
f 370//370 402//402 401//401
f 379//379 395//395 394//394
f 374//374 402//402 370//370
f 380//380 379//379 394//394
f 374//374 403//403 402//402
f 380//380 394//394 393//393
f 381//381 393//393 392//392
f 381//381 380//380 393//393
f 370//370 401//401 400//400
f 374//374 404//404 403//403
f 418//418 445//445 446//446
f 418//418 446//446 417//417
f 417//417 446//446 416//416
f 415//415 449//449 414//414
f 416//416 447//447 448//448
f 416//416 448//448 415//415
f 415//415 448//448 449//449
f 419//419 445//445 418//418
f 416//416 446//446 447//447
f 419//419 444//444 445//445
f 424//424 439//439 423//423
f 420//420 444//444 419//419
f 420//420 442//442 443//443
f 421//421 442//442 420//420
f 421//421 441//441 442//442
f 422//422 441//441 421//421
f 422//422 440//440 441//441
f 423//423 440//440 422//422
f 423//423 439//439 440//440
f 414//414 450//450 413//413
f 424//424 438//438 439//439
f 420//420 443//443 444//444
f 414//414 449//449 450//450
f 432//432 456//456 431//431
f 436//436 450//450 451//451
f 425//425 438//438 424//424
f 425//425 461//461 437//437
f 426//426 461//461 425//425
f 427//427 461//461 426//426
f 427//427 460//460 461//461
f 428//428 460//460 427//427
f 428//428 459//459 460//460
f 429//429 459//459 428//428
f 429//429 458//458 459//459
f 430//430 458//458 429//429
f 413//413 450//450 436//436
f 430//430 457//457 458//458
f 431//431 456//456 457//457
f 432//432 455//455 456//456
f 433//433 455//455 432//432
f 434//434 454//454 455//455
f 434//434 455//455 433//433
f 434//434 453//453 454//454
f 435//435 453//453 434//434
f 435//435 452//452 453//453
f 436//436 452//452 435//435
f 436//436 451//451 452//452
f 431//431 457//457 430//430
f 425//425 437//437 438//438
f 462//462 464//464 463//463
v 0.0000335 -0.0034065 -0.0197000
v 0.0006870 -0.0033323 -0.0197000
v 0.0013347 -0.0031343 -0.0197000
v 0.0021425 -0.0026565 -0.0197000
v 0.0026713 -0.0021059 -0.0197000
v 0.0030832 -0.0014633 -0.0197000
v 0.0033914 -0.0004015 -0.0197000
v 0.0033594 0.0005661 -0.0197000
v 0.0031344 0.0013347 -0.0197000
v 0.0027363 0.0020294 -0.0197000
v 0.0021867 0.0026123 -0.0197000
v 0.0016417 0.0029801 -0.0197000
v 0.0008897 0.0032948 -0.0197000
v -0.0000335 0.0034065 -0.0197000
v -0.0006869 0.0033323 -0.0197000
v -0.0013346 0.0031344 -0.0197000
v -0.0021426 0.0026564 -0.0197000
v -0.0028585 0.0018644 -0.0197000
v -0.0032948 0.0008898 -0.0197000
v -0.0034006 0.0001101 -0.0197000
v -0.0033593 -0.0005660 -0.0197000
v -0.0031838 -0.0011997 -0.0197000
v -0.0029034 -0.0017793 -0.0197000
v -0.0024100 -0.0024101 -0.0197000
v -0.0016343 -0.0029960 -0.0197000
v -0.0007626 -0.0033202 -0.0197000
v 0.0000000 0.0028043 -0.0197000
v 0.0007327 0.0027134 -0.0197000
v 0.0014422 0.0024064 -0.0197000
v 0.0020425 0.0019306 -0.0197000
v 0.0024871 0.0012983 -0.0197000
v 0.0026976 0.0007607 -0.0197000
v 0.0028066 0.0001103 -0.0197000
v 0.0027344 -0.0006279 -0.0197000
v 0.0025010 -0.0012744 -0.0197000
v 0.0019903 -0.0019903 -0.0197000
v 0.0012743 -0.0025010 -0.0197000
v 0.0006281 -0.0027343 -0.0197000
v -0.0001102 -0.0028066 -0.0197000
v -0.0007418 -0.0027020 -0.0197000
v -0.0012490 -0.0025121 -0.0197000
v -0.0018009 -0.0021512 -0.0197000
v -0.0023843 -0.0015002 -0.0197000
v -0.0027214 -0.0006818 -0.0197000
v -0.0028094 0.0000789 -0.0197000
v -0.0026766 0.0008406 -0.0197000
v -0.0024541 0.0013522 -0.0197000
v -0.0021343 0.0018230 -0.0197000
v -0.0014707 0.0024000 -0.0197000
v -0.0006553 0.0027293 -0.0197000
v 0.0000335 -0.0034065 -0.0197000
v 0.0006870 -0.0033323 -0.0197000
v 0.0013347 -0.0031343 -0.0197000
v 0.0021425 -0.0026565 -0.0197000
v 0.0026713 -0.0021059 -0.0197000
v 0.0030832 -0.0014633 -0.0197000
v 0.0033914 -0.0004015 -0.0197000
v 0.0033594 0.0005661 -0.0197000
v 0.0031344 0.0013347 -0.0197000
v 0.0027363 0.0020294 -0.0197000
v 0.0021867 0.0026123 -0.0197000
v 0.0016417 0.0029801 -0.0197000
v 0.0008897 0.0032948 -0.0197000
v -0.0000335 0.0034065 -0.0197000
v -0.0006869 0.0033323 -0.0197000
v -0.0013346 0.0031344 -0.0197000
v -0.0021426 0.0026564 -0.0197000
v -0.0028585 0.0018644 -0.0197000
v -0.0032948 0.0008898 -0.0197000
v -0.0034006 0.0001101 -0.0197000
v -0.0033593 -0.0005660 -0.0197000
v -0.0031838 -0.0011997 -0.0197000
v -0.0029034 -0.0017793 -0.0197000
v -0.0024100 -0.0024101 -0.0197000
v -0.0016343 -0.0029960 -0.0197000
v -0.0007626 -0.0033202 -0.0197000
v -0.0002338 0.0033987 -0.0175000
v -0.0004014 -0.0033914 -0.0175000
v -0.0013346 -0.0031344 -0.0175000
v -0.0020015 -0.0027549 -0.0175000
v -0.0025918 -0.0022135 -0.0175000
v -0.0029800 -0.0016418 -0.0175000
v -0.0032385 -0.0010523 -0.0175000
v -0.0033979 -0.0002674 -0.0175000
v -0.0033593 0.0005660 -0.0175000
v -0.0030974 0.0014278 -0.0175000
v -0.0025318 0.0022885 -0.0175000
v -0.0018084 0.0028871 -0.0175000
v -0.0010532 0.0032415 -0.0175000
v 0.0004234 0.0033759 -0.0175000
v 0.0010845 0.0032295 -0.0175000
v 0.0016829 0.0029570 -0.0175000
v 0.0022377 0.0025687 -0.0175000
v 0.0028360 0.0018948 -0.0175000
v 0.0032295 0.0010846 -0.0175000
v 0.0033798 0.0004004 -0.0175000
v 0.0033870 -0.0004011 -0.0175000
v 0.0031150 -0.0013943 -0.0175000
v 0.0026727 -0.0021070 -0.0175000
v 0.0021867 -0.0026123 -0.0175000
v 0.0015167 -0.0030505 -0.0175000
v 0.0006654 -0.0033452 -0.0175000
v -0.0002338 0.0033987 -0.0175000
v -0.0004014 -0.0033914 -0.0175000
v -0.0013346 -0.0031344 -0.0175000
v -0.0020015 -0.0027549 -0.0175000
v -0.0025918 -0.0022135 -0.0175000
v -0.0029800 -0.0016418 -0.0175000
v -0.0032385 -0.0010523 -0.0175000
v -0.0033979 -0.0002674 -0.0175000
v -0.0033593 0.0005660 -0.0175000
v -0.0030974 0.0014278 -0.0175000
v -0.0025318 0.0022885 -0.0175000
v -0.0018084 0.0028871 -0.0175000
v -0.0010532 0.0032415 -0.0175000
v 0.0004234 0.0033759 -0.0175000
v 0.0010845 0.0032295 -0.0175000
v 0.0016829 0.0029570 -0.0175000
v 0.0022377 0.0025687 -0.0175000
v 0.0028360 0.0018948 -0.0175000
v 0.0032295 0.0010846 -0.0175000
v 0.0033798 0.0004004 -0.0175000
v 0.0033870 -0.0004011 -0.0175000
v 0.0031150 -0.0013943 -0.0175000
v 0.0026727 -0.0021070 -0.0175000
v 0.0021867 -0.0026123 -0.0175000
v 0.0015167 -0.0030505 -0.0175000
v 0.0006654 -0.0033452 -0.0175000
v -0.0000059 -0.0025569 -0.0174978
v 0.0009011 -0.0024893 -0.0175000
v 0.0019284 -0.0017499 -0.0174990
v 0.0021452 0.0013901 -0.0174956
v 0.0000064 0.0025555 -0.0174976
v -0.0012475 0.0022630 -0.0174976
v -0.0020889 -0.0015006 -0.0174982
v -0.0000027 0.0024014 -0.0173285
v -0.0003088 0.0023839 -0.0173391
v -0.0006675 0.0023090 -0.0173337
v -0.0010237 0.0021775 -0.0173532
v -0.0013466 0.0019940 -0.0173526
v -0.0016405 0.0017601 -0.0173523
v -0.0018954 0.0014795 -0.0173413
v -0.0021048 0.0011671 -0.0173563
v -0.0022625 0.0008284 -0.0173694
v -0.0023635 0.0004672 -0.0173686
v -0.0024068 0.0000871 -0.0173648
v -0.0023758 -0.0003856 -0.0173364
v -0.0022198 -0.0009299 -0.0173335
v -0.0020039 -0.0013304 -0.0173487
v -0.0016391 -0.0017675 -0.0173739
v -0.0013385 -0.0020042 -0.0173722
v -0.0010904 -0.0021453 -0.0173645
v -0.0008324 -0.0022583 -0.0173567
v -0.0004677 -0.0023651 -0.0173757
v 0.0000994 -0.0024750 -0.0174590
v -0.0000258 -0.0024053 -0.0173542
v 0.0000865 0.0024478 -0.0174363
v -0.0003015 0.0024324 -0.0174373
v -0.0005333 0.0024895 -0.0174940
v -0.0007661 0.0023150 -0.0174141
v -0.0010090 0.0023044 -0.0174821
v -0.0012011 0.0021344 -0.0174323
v -0.0013882 0.0020500 -0.0174584
v -0.0016693 0.0017916 -0.0174315
v -0.0017785 0.0017826 -0.0174822
v -0.0019339 0.0015131 -0.0174416
v -0.0020662 0.0015195 -0.0174972
v -0.0021646 0.0012068 -0.0174617
v -0.0023340 0.0008484 -0.0174634
v -0.0023886 0.0009397 -0.0174977
v -0.0024318 0.0004747 -0.0174598
v -0.0025197 0.0004028 -0.0174941
v -0.0024722 -0.0000071 -0.0174535
v -0.0025613 -0.0001436 -0.0174979
v -0.0023904 -0.0004809 -0.0174183
v -0.0024497 -0.0005975 -0.0174842
v -0.0022805 -0.0008494 -0.0174129
v -0.0023165 -0.0010909 -0.0174961
v -0.0021688 -0.0011590 -0.0174431
v -0.0018860 -0.0015018 -0.0173713
v -0.0018868 -0.0016164 -0.0174637
v -0.0015336 -0.0019547 -0.0174633
v -0.0015474 -0.0020423 -0.0174963
v -0.0012150 -0.0021659 -0.0174633
v -0.0008522 -0.0023164 -0.0174517
v -0.0008955 -0.0023953 -0.0174958
v -0.0003216 -0.0024266 -0.0174309
v -0.0003315 -0.0025207 -0.0174943
v -0.0001050 -0.0023997 -0.0151000
v -0.0006792 -0.0023113 -0.0151000
v -0.0013598 -0.0019885 -0.0151000
v -0.0019075 -0.0014714 -0.0151000
v -0.0022687 -0.0008102 -0.0151000
v -0.0023989 -0.0001669 -0.0151000
v -0.0023717 0.0003974 -0.0151000
v -0.0022134 0.0009401 -0.0151000
v -0.0018196 0.0015872 -0.0151000
v -0.0011568 0.0021131 -0.0151000
v -0.0004476 0.0023671 -0.0151000
v 0.0002845 0.0023941 -0.0151000
v 0.0010323 0.0021767 -0.0151000
v 0.0016540 0.0017515 -0.0151000
v 0.0021141 0.0011551 -0.0151000
v 0.0023675 0.0004456 -0.0151000
v 0.0023956 -0.0002101 -0.0151000
v 0.0022209 -0.0009475 -0.0151000
v 0.0017530 -0.0016525 -0.0151000
v 0.0011569 -0.0021131 -0.0151000
v 0.0004476 -0.0023671 -0.0151000
v 0.0003089 -0.0023839 -0.0173391
v 0.0006675 -0.0023090 -0.0173337
v 0.0010206 -0.0021768 -0.0173387
v 0.0013471 -0.0019906 -0.0173337
v 0.0016467 -0.0017610 -0.0173757
v 0.0018963 -0.0014859 -0.0173677
v 0.0020526 -0.0012508 -0.0173490
v 0.0021951 -0.0009964 -0.0173758
v 0.0023159 -0.0006409 -0.0173263
v 0.0023897 -0.0002725 -0.0173467
v 0.0024029 0.0001023 -0.0173457
v 0.0023414 0.0005615 -0.0173433
v 0.0022205 0.0009233 -0.0173554
v 0.0020953 0.0011805 -0.0173448
v 0.0018855 0.0014905 -0.0173318
v 0.0014856 0.0018906 -0.0173412
v 0.0010975 0.0021426 -0.0173392
v 0.0006513 0.0023143 -0.0173392
v 0.0002895 0.0023889 -0.0173544
v 0.0003011 -0.0024235 -0.0174245
v 0.0004983 -0.0024886 -0.0174912
v 0.0007661 -0.0023132 -0.0174113
v 0.0007955 -0.0023696 -0.0174733
v 0.0013071 -0.0021865 -0.0174924
v 0.0012086 -0.0021325 -0.0174377
v 0.0014894 -0.0019394 -0.0174318
v 0.0017918 -0.0017446 -0.0174754
v 0.0021185 -0.0013658 -0.0174874
v 0.0021700 -0.0011515 -0.0174409
v 0.0023539 -0.0009700 -0.0174925
v 0.0023479 -0.0006520 -0.0174199
v 0.0025079 -0.0004335 -0.0174952
v 0.0024233 -0.0002825 -0.0174201
v 0.0025064 -0.0000988 -0.0174789
v 0.0024457 0.0001975 -0.0174334
v 0.0025230 0.0003077 -0.0174941
v 0.0023400 0.0006671 -0.0174116
v 0.0023394 0.0008043 -0.0174540
v 0.0024117 0.0008140 -0.0174926
v 0.0021448 0.0011977 -0.0174420
v 0.0019716 0.0014385 -0.0174256
v 0.0017687 0.0016388 -0.0173720
v 0.0017424 0.0017470 -0.0174480
v 0.0015677 0.0020038 -0.0174926
v 0.0013567 0.0020349 -0.0174273
v 0.0010156 0.0022066 -0.0174056
v 0.0010547 0.0023023 -0.0174930
v 0.0006783 0.0023595 -0.0174426
v 0.0005492 0.0025043 -0.0174968
v 0.0003656 0.0024587 -0.0174698
v -0.0001050 -0.0023997 -0.0151000
v -0.0006792 -0.0023113 -0.0151000
v -0.0013598 -0.0019885 -0.0151000
v -0.0019075 -0.0014714 -0.0151000
v -0.0022687 -0.0008102 -0.0151000
v -0.0023989 -0.0001669 -0.0151000
v -0.0023717 0.0003974 -0.0151000
v -0.0022134 0.0009401 -0.0151000
v -0.0018196 0.0015872 -0.0151000
v -0.0011568 0.0021131 -0.0151000
v -0.0004476 0.0023671 -0.0151000
v 0.0002845 0.0023941 -0.0151000
v 0.0010323 0.0021767 -0.0151000
v 0.0016540 0.0017515 -0.0151000
v 0.0021141 0.0011551 -0.0151000
v 0.0023675 0.0004456 -0.0151000
v 0.0023956 -0.0002101 -0.0151000
v 0.0022209 -0.0009475 -0.0151000
v 0.0017530 -0.0016525 -0.0151000
v 0.0011569 -0.0021131 -0.0151000
v 0.0004476 -0.0023671 -0.0151000
v 0.0000709 0.0014035 -0.0151000
v -0.0004194 0.0013446 -0.0151000
v -0.0008133 0.0011429 -0.0151000
v -0.0011296 0.0008413 -0.0151000
v -0.0013481 0.0003965 -0.0151000
v -0.0014046 -0.0001489 -0.0151000
v -0.0012560 -0.0006245 -0.0151000
v -0.0010076 -0.0009841 -0.0151000
v -0.0006490 -0.0012436 -0.0151000
v -0.0002894 -0.0013751 -0.0151000
v 0.0002039 -0.0013937 -0.0151000
v 0.0007704 -0.0011839 -0.0151000
v 0.0011006 -0.0008675 -0.0151000
v 0.0013003 -0.0005386 -0.0151000
v 0.0014119 0.0000382 -0.0151000
v 0.0012827 0.0005741 -0.0151000
v 0.0009714 0.0010254 -0.0151000
v 0.0005011 0.0013129 -0.0151000
v 0.0000709 0.0014035 -0.0151000
v -0.0004194 0.0013446 -0.0151000
v -0.0008133 0.0011429 -0.0151000
v -0.0011296 0.0008413 -0.0151000
v -0.0013481 0.0003965 -0.0151000
v -0.0014046 -0.0001489 -0.0151000
v -0.0012560 -0.0006245 -0.0151000
v -0.0010076 -0.0009841 -0.0151000
v -0.0006490 -0.0012436 -0.0151000
v -0.0002894 -0.0013751 -0.0151000
v 0.0002039 -0.0013937 -0.0151000
v 0.0007704 -0.0011839 -0.0151000
v 0.0011006 -0.0008675 -0.0151000
v 0.0013003 -0.0005386 -0.0151000
v 0.0014119 0.0000382 -0.0151000
v 0.0012827 0.0005741 -0.0151000
v 0.0009714 0.0010254 -0.0151000
v 0.0005011 0.0013129 -0.0151000
v -0.0013863 0.0002704 -0.0179006
v -0.0011733 0.0007735 -0.0178998
v -0.0008768 0.0010981 -0.0178998
v -0.0004907 0.0013169 -0.0179018
v -0.0001354 0.0013962 -0.0178997
v -0.0000608 -0.0014041 -0.0178977
v -0.0005274 -0.0013060 -0.0179014
v -0.0009474 -0.0010378 -0.0178998
v -0.0012061 -0.0007178 -0.0179008
v -0.0013679 -0.0003309 -0.0179001
v 0.0002569 0.0013816 -0.0179019
v 0.0007291 0.0012052 -0.0179009
v 0.0010982 0.0008768 -0.0178998
v 0.0013428 0.0004259 -0.0178976
v 0.0014047 -0.0000400 -0.0179021
v 0.0013230 -0.0004738 -0.0178999
v 0.0011404 -0.0008169 -0.0178995
v 0.0008737 -0.0011008 -0.0179018
v 0.0004344 -0.0013399 -0.0178986
v -0.0013863 0.0002704 -0.0179006
v -0.0011733 0.0007735 -0.0178998
v -0.0008768 0.0010981 -0.0178998
v -0.0004907 0.0013169 -0.0179018
v -0.0001354 0.0013962 -0.0178997
v -0.0000608 -0.0014041 -0.0178977
v -0.0005274 -0.0013060 -0.0179014
v -0.0009474 -0.0010378 -0.0178998
v -0.0012061 -0.0007178 -0.0179008
v -0.0013679 -0.0003309 -0.0179001
v -0.0015653 0.0003685 -0.0180999
v -0.0013546 0.0008621 -0.0180999
v -0.0009472 0.0013038 -0.0180998
v -0.0002427 0.0016026 -0.0180999
v -0.0002427 -0.0016026 -0.0180999
v -0.0008381 -0.0013678 -0.0180999
v -0.0012486 -0.0010157 -0.0180998
v -0.0015911 -0.0002637 -0.0180998
v 0.0002569 0.0013816 -0.0179019
v 0.0007291 0.0012052 -0.0179009
v 0.0010982 0.0008768 -0.0178998
v 0.0013428 0.0004259 -0.0178976
v 0.0014047 -0.0000400 -0.0179021
v 0.0013230 -0.0004738 -0.0178999
v 0.0011404 -0.0008169 -0.0178995
v 0.0008737 -0.0011008 -0.0179018
v 0.0004344 -0.0013399 -0.0178986
v 0.0016026 -0.0001332 -0.0180999
v 0.0014821 -0.0006140 -0.0180999
v 0.0012385 -0.0010220 -0.0180999
v 0.0008342 -0.0013749 -0.0180999
v 0.0004240 -0.0015455 -0.0180999
v 0.0004240 0.0015455 -0.0180999
v 0.0008342 0.0013749 -0.0180999
v 0.0012198 0.0010419 -0.0180999
v 0.0015014 0.0005802 -0.0180998
v -0.0015653 0.0003685 -0.0180999
v -0.0013546 0.0008621 -0.0180999
v -0.0009472 0.0013038 -0.0180998
v -0.0002427 0.0016026 -0.0180999
v -0.0002427 -0.0016026 -0.0180999
v -0.0008381 -0.0013678 -0.0180999
v -0.0012486 -0.0010157 -0.0180998
v -0.0015911 -0.0002637 -0.0180998
v 0.0016026 -0.0001332 -0.0180999
v 0.0014821 -0.0006140 -0.0180999
v 0.0012385 -0.0010220 -0.0180999
v 0.0008342 -0.0013749 -0.0180999
v 0.0004240 -0.0015455 -0.0180999
v 0.0004240 0.0015455 -0.0180999
v 0.0008342 0.0013749 -0.0180999
v 0.0012198 0.0010419 -0.0180999
v 0.0015014 0.0005802 -0.0180998
v -0.0001294 -0.0027990 -0.0181000
v 0.0004116 -0.0027752 -0.0181000
v 0.0011481 -0.0025653 -0.0181000
v 0.0017352 -0.0022011 -0.0181000
v 0.0021511 -0.0018010 -0.0181000
v 0.0026151 -0.0010473 -0.0181000
v 0.0028066 -0.0001105 -0.0181000
v 0.0027343 0.0006280 -0.0181000
v 0.0024673 0.0013459 -0.0181000
v 0.0020709 0.0018875 -0.0181000
v 0.0015001 0.0023843 -0.0181000
v 0.0006818 0.0027214 -0.0181000
v 0.0000000 0.0028069 -0.0181000
v -0.0006547 0.0027268 -0.0181000
v -0.0012490 0.0025121 -0.0181000
v -0.0019682 0.0020153 -0.0181000
v -0.0025541 0.0011775 -0.0181000
v -0.0027698 0.0004387 -0.0181000
v -0.0027929 -0.0003305 -0.0181000
v -0.0025508 -0.0011760 -0.0181000
v -0.0021511 -0.0018010 -0.0181000
v -0.0015001 -0.0023843 -0.0181000
v -0.0006817 -0.0027214 -0.0181000
v 0.0000000 0.0028043 -0.0197000
v 0.0007327 0.0027134 -0.0197000
v 0.0014422 0.0024064 -0.0197000
v 0.0020425 0.0019306 -0.0197000
v 0.0024871 0.0012983 -0.0197000
v 0.0026976 0.0007607 -0.0197000
v 0.0028066 0.0001103 -0.0197000
v 0.0027344 -0.0006279 -0.0197000
v 0.0025010 -0.0012744 -0.0197000
v 0.0019903 -0.0019903 -0.0197000
v 0.0012743 -0.0025010 -0.0197000
v 0.0006281 -0.0027343 -0.0197000
v -0.0001102 -0.0028066 -0.0197000
v -0.0007418 -0.0027020 -0.0197000
v -0.0012490 -0.0025121 -0.0197000
v -0.0018009 -0.0021512 -0.0197000
v -0.0023843 -0.0015002 -0.0197000
v -0.0027214 -0.0006818 -0.0197000
v -0.0028094 0.0000789 -0.0197000
v -0.0026766 0.0008406 -0.0197000
v -0.0024541 0.0013522 -0.0197000
v -0.0021343 0.0018230 -0.0197000
v -0.0014707 0.0024000 -0.0197000
v -0.0006553 0.0027293 -0.0197000
v -0.0001294 -0.0027990 -0.0181000
v 0.0004116 -0.0027752 -0.0181000
v 0.0011481 -0.0025653 -0.0181000
v 0.0017352 -0.0022011 -0.0181000
v 0.0021511 -0.0018010 -0.0181000
v 0.0026151 -0.0010473 -0.0181000
v 0.0028066 -0.0001105 -0.0181000
v 0.0027343 0.0006280 -0.0181000
v 0.0024673 0.0013459 -0.0181000
v 0.0020709 0.0018875 -0.0181000
v 0.0015001 0.0023843 -0.0181000
v 0.0006818 0.0027214 -0.0181000
v 0.0000000 0.0028069 -0.0181000
v -0.0006547 0.0027268 -0.0181000
v -0.0012490 0.0025121 -0.0181000
v -0.0019682 0.0020153 -0.0181000
v -0.0025541 0.0011775 -0.0181000
v -0.0027698 0.0004387 -0.0181000
v -0.0027929 -0.0003305 -0.0181000
v -0.0025508 -0.0011760 -0.0181000
v -0.0021511 -0.0018010 -0.0181000
v -0.0015001 -0.0023843 -0.0181000
v -0.0006817 -0.0027214 -0.0181000
v -0.0012475 0.0022630 -0.0174976
v -0.0017785 0.0017826 -0.0174822
v -0.0020662 0.0015195 -0.0174972
v -0.0023886 0.0009397 -0.0174977
v -0.0025197 0.0004028 -0.0174941
v -0.0025613 -0.0001436 -0.0174979
v -0.0025613 -0.0001436 -0.0174979
v -0.0024497 -0.0005975 -0.0174842
v -0.0023165 -0.0010909 -0.0174961
v 0.0004983 -0.0024886 -0.0174912
v 0.0007955 -0.0023696 -0.0174733
v 0.0013071 -0.0021865 -0.0174924
v 0.0019284 -0.0017499 -0.0174990
v 0.0023539 -0.0009700 -0.0174925
v 0.0025079 -0.0004335 -0.0174952
v 0.0021452 0.0013901 -0.0174956
v 0.0025230 0.0003077 -0.0174941
v 0.0024117 0.0008140 -0.0174926
vn 0.000000 0.000000 -1.000000
vn 0.000000 0.000000 -1.000000
vn 0.000000 0.000000 -1.000000
vn 0.000000 0.000000 -1.000000
vn 0.000000 0.000000 -1.000000
vn 0.000000 0.000000 -1.000000
vn 0.000000 0.000000 -1.000000
vn 0.000000 0.000000 -1.000000
vn 0.000000 0.000000 -1.000000
vn 0.000000 0.000000 -1.000000
vn 0.000000 0.000000 -1.000000
vn 0.000000 0.000000 -1.000000
vn 0.000000 0.000000 -1.000000
vn 0.000000 0.000000 -1.000000
vn 0.000000 0.000000 -1.000000
vn 0.000000 0.000000 -1.000000
vn 0.000000 0.000000 -1.000000
vn 0.000000 0.000000 -1.000000
vn 0.000000 0.000000 -1.000000
vn 0.000000 0.000000 -1.000000
vn 0.000000 0.000000 -1.000000
vn 0.000000 0.000000 -1.000000
vn 0.000000 0.000000 -1.000000
vn 0.000000 0.000000 -1.000000
vn 0.000000 0.000000 -1.000000
vn 0.000000 0.000000 -1.000000
vn 0.000000 0.000000 -1.000000
vn 0.000000 0.000000 -1.000000
vn 0.000000 0.000000 -1.000000
vn 0.000000 0.000000 -1.000000
vn 0.000000 0.000000 -1.000000
vn 0.000000 0.000000 -1.000000
vn 0.000000 0.000000 -1.000000
vn 0.000000 0.000000 -1.000000
vn 0.000000 0.000000 -1.000000
vn 0.000000 0.000000 -1.000000
vn 0.000000 0.000000 -1.000000
vn 0.000000 0.000000 -1.000000
vn 0.000000 0.000000 -1.000000
vn 0.000000 0.000000 -1.000000
vn 0.000000 0.000000 -1.000000
vn 0.000000 0.000000 -1.000000
vn 0.000000 0.000000 -1.000000
vn 0.000000 0.000000 -1.000000
vn 0.000000 0.000000 -1.000000
vn 0.000000 0.000000 -1.000000
vn 0.000000 0.000000 -1.000000
vn 0.000000 0.000000 -1.000000
vn 0.000000 0.000000 -1.000000
vn 0.000000 0.000000 -1.000000
vn 0.005731 -0.999966 -0.005964
vn 0.204036 -0.978956 -0.003713
vn 0.401547 -0.915828 -0.004359
vn 0.622880 -0.782310 -0.003438
vn 0.785305 -0.619108 -0.000814
vn 0.909918 -0.414782 -0.002363
vn 0.992157 -0.124931 -0.004043
vn 0.987497 0.157502 -0.006611
vn 0.919905 0.392083 -0.006722
vn 0.802047 0.597242 -0.004723
vn 0.647077 0.762422 -0.002085
vn 0.476370 0.879238 -0.003541
vn 0.256759 0.966449 -0.007129
vn 0.002346 0.999970 -0.007428
vn -0.202611 0.979241 -0.005957
vn -0.402550 0.915358 -0.008513
vn -0.631190 0.775539 -0.011775
vn -0.837687 0.545988 -0.013323
vn -0.962304 0.271792 -0.009977
vn -0.999291 0.036973 -0.007084
vn -0.986138 -0.165828 -0.005715
vn -0.935506 -0.353285 -0.004319
vn -0.849663 -0.527296 -0.005636
vn -0.701729 -0.712386 -0.009123
vn -0.480272 -0.877067 -0.009629
vn -0.230970 -0.972914 -0.009591
vn -0.076650 0.997037 0.006556
vn -0.113377 -0.993494 0.010766
vn -0.382783 -0.923790 0.009454
vn -0.589667 -0.807607 0.008036
vn -0.757491 -0.652817 0.006185
vn -0.875551 -0.483106 0.004422
vn -0.952775 -0.303625 0.005655
vn -0.997023 -0.076721 0.007741
vn -0.985737 0.168017 0.009661
vn -0.905931 0.423272 0.011356
vn -0.744347 0.667689 0.011762
vn -0.533863 0.845514 0.009786
vn -0.308662 0.951139 0.007931
vn 0.124989 0.992142 0.005717
vn 0.319519 0.947569 0.004603
vn 0.495677 0.868505 0.001933
vn 0.664355 0.747408 0.003760
vn 0.830818 0.556504 0.006678
vn 0.945064 0.326812 0.006947
vn 0.993848 0.110702 0.003255
vn 0.991672 -0.128774 0.002002
vn 0.916919 -0.399069 0.002037
vn 0.788664 -0.614823 0.001290
vn 0.639638 -0.768672 0.002594
vn 0.441594 -0.897199 0.005351
vn 0.189157 -0.981902 0.009338
vn 0.000825 0.004733 0.999988
vn 0.000138 -0.004631 0.999989
vn -0.001935 -0.004536 0.999988
vn -0.002752 -0.003589 0.999990
vn -0.002660 -0.001565 0.999995
vn -0.002802 -0.002340 0.999993
vn -0.003737 -0.000591 0.999993
vn -0.002481 -0.000204 0.999997
vn -0.002525 0.000377 0.999997
vn -0.002719 0.001108 0.999996
vn -0.002197 0.002156 0.999995
vn -0.001549 0.002380 0.999996
vn -0.002694 0.004702 0.999985
vn 0.000129 0.003350 0.999994
vn 0.000766 0.006065 0.999981
vn 0.004014 0.007308 0.999965
vn 0.005615 0.005015 0.999972
vn 0.004295 0.002890 0.999987
vn 0.005456 0.002317 0.999982
vn 0.006431 0.000400 0.999979
vn 0.005515 -0.000644 0.999985
vn 0.002741 -0.002327 0.999994
vn 0.000925 -0.000700 0.999999
vn 0.000276 -0.000758 1.000000
vn 0.000009 -0.000017 1.000000
vn 0.000888 -0.001112 0.999999
vn -0.004982 -0.198288 0.980131
vn 0.010688 -0.026727 0.999586
vn 0.072508 -0.060777 0.995514
vn 0.206689 0.128830 0.969888
vn 0.002648 0.244262 0.969706
vn -0.057430 0.118424 0.991301
vn -0.119157 -0.076087 0.989956
vn -0.016934 0.982229 0.186922
vn -0.131337 0.966968 0.218455
vn -0.256663 0.951029 0.172244
vn -0.405117 0.889781 0.210168
vn -0.540244 0.790508 0.288503
vn -0.658300 0.710007 0.250063
vn -0.768608 0.597124 0.229532
vn -0.834504 0.466640 0.293001
vn -0.885287 0.325295 0.332341
vn -0.930193 0.180604 0.319566
vn -0.955070 0.050213 0.292097
vn -0.967207 -0.165525 0.192646
vn -0.910102 -0.366889 0.192629
vn -0.822308 -0.541910 0.173618
vn -0.645295 -0.692483 0.322585
vn -0.526374 -0.782867 0.331736
vn -0.419508 -0.851704 0.314027
vn -0.326985 -0.902496 0.280324
vn -0.191889 -0.946799 0.258359
vn 0.042898 -0.640553 0.766715
vn -0.024019 -0.960758 0.276344
vn 0.040450 0.741938 0.669247
vn -0.088817 0.736502 0.670579
vn -0.050190 0.263692 0.963300
vn -0.263273 0.748115 0.609107
vn -0.187468 0.454723 0.870679
vn -0.389154 0.688824 0.611621
vn -0.384315 0.530216 0.755760
vn -0.510507 0.569607 0.644151
vn -0.400950 0.391776 0.828101
vn -0.550871 0.440057 0.709148
vn -0.171550 0.118605 0.978010
vn -0.568516 0.318091 0.758688
vn -0.568265 0.196222 0.799107
vn -0.166434 0.067013 0.983773
vn -0.618441 0.126862 0.775523
vn -0.410498 0.061681 0.909773
vn -0.651209 0.007569 0.758861
vn -0.178348 -0.019778 0.983769
vn -0.786434 -0.158849 0.596899
vn -0.585863 -0.143614 0.797584
vn -0.806920 -0.292247 0.513296
vn -0.185369 -0.077291 0.979625
vn -0.615906 -0.357805 0.701880
vn -0.752021 -0.579983 0.313185
vn -0.467503 -0.417158 0.779372
vn -0.373113 -0.457988 0.806867
vn -0.114317 -0.151362 0.981846
vn -0.322426 -0.580740 0.747518
vn -0.222687 -0.618042 0.753946
vn -0.079552 -0.202982 0.975946
vn -0.090991 -0.690678 0.717415
vn -0.032030 -0.276552 0.960465
vn -0.045461 -0.998946 0.006364
vn -0.292728 -0.956148 0.009539
vn -0.563895 -0.825765 0.011599
vn -0.793139 -0.608967 0.009468
vn -0.939101 -0.343574 0.006765
vn -0.997109 -0.075533 0.008275
vn -0.986121 0.165864 0.007422
vn -0.915516 0.402189 0.008597
vn -0.749530 0.661900 0.009699
vn -0.485201 0.874356 0.009057
vn -0.188983 0.981951 0.007559
vn 0.121679 0.992531 0.008765
vn 0.427938 0.903764 0.008915
vn 0.686127 0.727424 0.009106
vn 0.878154 0.478313 0.007965
vn 0.981255 0.192586 0.007033
vn 0.995484 -0.094540 0.008621
vn 0.917653 -0.397261 0.009834
vn 0.731299 -0.681987 0.009814
vn 0.480188 -0.877131 0.007841
vn 0.198766 -0.980029 0.005990
vn 0.132274 -0.969812 0.204863
vn 0.255756 -0.951897 0.168762
vn 0.407365 -0.893875 0.187191
vn 0.550851 -0.810072 0.200866
vn 0.623556 -0.700290 0.347522
vn 0.737690 -0.577624 0.349520
vn 0.824187 -0.526000 0.209858
vn 0.892727 -0.375638 0.248868
vn 0.951544 -0.260137 0.163992
vn 0.969085 -0.111869 0.219907
vn 0.972903 0.027029 0.229627
vn 0.958808 0.224675 0.173803
vn 0.886347 0.371385 0.276518
vn 0.841876 0.483146 0.240448
vn 0.778902 0.606539 0.159442
vn 0.594813 0.774523 0.215202
vn 0.448333 0.878106 0.167112
vn 0.267987 0.936918 0.224429
vn 0.113288 0.950402 0.289657
vn 0.090563 -0.783313 0.614995
vn 0.067695 -0.357114 0.931605
vn 0.261021 -0.778478 0.570824
vn 0.220944 -0.635756 0.739593
vn 0.307601 -0.465312 0.829980
vn 0.342858 -0.643898 0.683991
vn 0.494475 -0.599359 0.629494
vn 0.355457 -0.367440 0.859441
vn 0.471729 -0.274501 0.837927
vn 0.637621 -0.332690 0.694807
vn 0.465816 -0.201426 0.861652
vn 0.763735 -0.218583 0.607396
vn 0.276757 -0.049478 0.959665
vn 0.768859 -0.080699 0.634305
vn 0.754637 -0.014106 0.655991
vn 0.738230 0.057829 0.672065
vn 0.257946 0.042576 0.965221
vn 0.846111 0.221114 0.484980
vn 0.609016 0.198429 0.767936
vn 0.450348 0.146748 0.880711
vn 0.646984 0.337270 0.683857
vn 0.613998 0.458590 0.642419
vn 0.709804 0.637409 0.299814
vn 0.533273 0.513049 0.672607
vn 0.163875 0.197818 0.966444
vn 0.410956 0.640927 0.648327
vn 0.319074 0.744081 0.586971
vn 0.132440 0.298428 0.945199
vn 0.214509 0.688550 0.692737
vn 0.030345 0.191501 0.981023
vn 0.087723 0.603544 0.792489
vn 0.000000 0.000000 1.000000
vn 0.000000 0.000000 1.000000
vn 0.000000 0.000000 1.000000
vn 0.000000 0.000000 1.000000
vn 0.000000 0.000000 1.000000
vn 0.000000 0.000000 1.000000
vn 0.000000 0.000000 1.000000
vn 0.000000 0.000000 1.000000
vn 0.000000 0.000000 1.000000
vn 0.000000 0.000000 1.000000
vn 0.000000 0.000000 1.000000
vn 0.000000 0.000000 1.000000
vn 0.000000 0.000000 1.000000
vn 0.000000 0.000000 1.000000
vn 0.000000 0.000000 1.000000
vn 0.000000 0.000000 1.000000
vn 0.000000 0.000000 1.000000
vn 0.000000 0.000000 1.000000
vn 0.000000 0.000000 1.000000
vn 0.000000 0.000000 1.000000
vn 0.000000 0.000000 1.000000
vn 0.000000 0.000000 1.000000
vn 0.000000 0.000000 1.000000
vn 0.000000 0.000000 1.000000
vn 0.000000 0.000000 1.000000
vn 0.000000 0.000000 1.000000
vn 0.000000 0.000000 1.000000
vn 0.000000 0.000000 1.000000
vn 0.000000 0.000000 1.000000
vn 0.000000 0.000000 1.000000
vn 0.000000 0.000000 1.000000
vn 0.000000 0.000000 1.000000
vn 0.000000 0.000000 1.000000
vn 0.000000 0.000000 1.000000
vn 0.000000 0.000000 1.000000
vn 0.000000 0.000000 1.000000
vn 0.000000 0.000000 1.000000
vn 0.000000 0.000000 1.000000
vn 0.000000 0.000000 1.000000
vn -0.044035 -0.999014 -0.005686
vn 0.293067 -0.956083 -0.004175
vn 0.578556 -0.815636 -0.003191
vn 0.806428 -0.591323 -0.003311
vn 0.960577 -0.277957 -0.005602
vn 0.994940 0.100242 -0.006716
vn 0.898504 0.438934 -0.005167
vn 0.714486 0.699643 -0.003250
vn 0.470194 0.882554 -0.004052
vn 0.193296 0.981122 -0.006009
vn -0.156857 0.987588 -0.008112
vn -0.532293 0.846535 -0.006495
vn -0.780217 0.625501 -0.003198
vn -0.932821 0.360328 -0.002924
vn -0.999761 -0.021192 -0.005360
vn -0.912786 -0.408375 -0.007126
vn -0.687904 -0.725763 -0.007537
vn -0.368097 -0.929761 -0.007056
vn 0.982568 -0.185771 0.007055
vn 0.841771 -0.539816 0.004518
vn 0.622758 -0.782408 0.003392
vn 0.359802 -0.933023 0.003158
vn 0.091467 -0.995800 0.004147
vn 0.040020 0.999176 0.006813
vn 0.378942 0.925406 0.005174
vn 0.666540 0.745457 0.004288
vn 0.858953 0.512040 0.003728
vn 0.976789 0.214100 0.006698
vn -0.195645 -0.980657 0.005877
vn -0.515335 -0.856956 0.007517
vn -0.783980 -0.620745 0.007142
vn -0.951021 -0.309079 0.005456
vn -0.999546 0.030078 0.001723
vn -0.944305 0.329070 0.000417
vn -0.812494 0.582963 0.002614
vn -0.612770 0.790246 0.004864
vn -0.309046 0.951019 0.007249
vn 0.693577 -0.130328 -0.708495
vn 0.591292 -0.388820 -0.706536
vn 0.452118 -0.537570 -0.711764
vn 0.271802 -0.674322 -0.686596
vn 0.043934 -0.683737 -0.728405
vn -0.017597 0.721422 -0.692273
vn 0.271583 0.657390 -0.702909
vn 0.467245 0.527126 -0.709803
vn 0.653729 0.347672 -0.672133
vn 0.685628 0.184965 -0.704061
vn 0.689863 -0.170696 -0.703528
vn 0.596096 -0.377401 -0.708688
vn 0.415750 -0.576218 -0.703651
vn 0.105349 -0.698319 -0.707992
vn 0.096719 0.692664 -0.714746
vn 0.371417 0.607056 -0.702519
vn 0.568273 0.439727 -0.695489
vn 0.697732 0.117869 -0.706596
vn -0.123379 -0.702443 -0.700965
vn -0.364278 -0.596363 -0.715299
vn -0.551194 -0.437453 -0.710507
vn -0.690166 -0.196069 -0.696583
vn -0.707563 -0.002510 -0.706646
vn -0.664490 0.230234 -0.710947
vn -0.574993 0.403399 -0.711795
vn -0.439132 0.549107 -0.711087
vn -0.202384 0.678881 -0.705806
vn -0.708481 0.046954 -0.704167
vn -0.658267 0.275604 -0.700519
vn -0.546921 0.455709 -0.702286
vn -0.366694 0.600142 -0.710891
vn -0.156551 0.695162 -0.701599
vn -0.183344 -0.683758 -0.706301
vn -0.370992 -0.600751 -0.708141
vn -0.536157 -0.464413 -0.704880
vn -0.667217 -0.253635 -0.700350
vn 0.000117 -0.000055 -1.000000
vn 0.000145 0.000000 -1.000000
vn 0.000098 -0.000101 -1.000000
vn -0.000039 -0.000114 -1.000000
vn -0.000017 0.000089 -1.000000
vn 0.000045 0.000102 -1.000000
vn 0.000083 0.000102 -1.000000
vn 0.000153 -0.000038 -1.000000
vn -0.000103 0.000013 -1.000000
vn -0.000101 0.000010 -1.000000
vn -0.000056 0.000071 -1.000000
vn 0.000004 0.000087 -1.000000
vn -0.000038 0.000063 -1.000000
vn -0.000051 -0.000055 -1.000000
vn 0.000002 -0.000111 -1.000000
vn -0.000051 -0.000112 -1.000000
vn -0.000108 -0.000015 -1.000000
vn 0.000005 0.000113 -1.000000
vn -0.000029 0.000073 -1.000000
vn -0.000019 0.000060 -1.000000
vn -0.000048 0.000072 -1.000000
vn -0.000077 0.000063 -1.000000
vn -0.000086 0.000027 -1.000000
vn -0.000074 0.000003 -1.000000
vn -0.000103 -0.000009 -1.000000
vn -0.000103 -0.000060 -1.000000
vn -0.000065 -0.000074 -1.000000
vn -0.000029 -0.000058 -1.000000
vn -0.000033 -0.000065 -1.000000
vn -0.000002 -0.000111 -1.000000
vn 0.000027 -0.000109 -1.000000
vn 0.000051 -0.000146 -1.000000
vn 0.000120 -0.000088 -1.000000
vn 0.000082 -0.000032 -1.000000
vn 0.000074 -0.000011 -1.000000
vn 0.000138 -0.000010 -1.000000
vn 0.000129 0.000073 -1.000000
vn 0.000095 0.000081 -1.000000
vn 0.000058 0.000099 -1.000000
vn 0.000030 0.000108 -1.000000
vn -0.004797 -0.999987 0.001620
vn -0.262937 -0.964813 0.000089
vn -0.510755 -0.859701 0.006613
vn -0.727998 -0.685558 0.005462
vn -0.882065 -0.471116 0.003148
vn -0.963010 -0.269449 0.002922
vn -0.999325 -0.035883 0.007837
vn -0.975800 0.218461 0.009495
vn -0.884537 0.466335 0.011273
vn -0.707359 0.706774 0.010655
vn -0.463629 0.885972 0.010096
vn -0.220842 0.975276 0.008150
vn 0.035225 0.999359 0.006329
vn 0.260567 0.965454 0.001945
vn 0.445720 0.895156 0.005416
vn 0.652134 0.758006 0.012181
vn 0.846460 0.532308 0.012415
vn 0.968030 0.250500 0.012975
vn 0.999477 -0.030219 0.011555
vn 0.957753 -0.287427 0.009750
vn 0.872326 -0.488923 0.001119
vn 0.754720 -0.656037 0.003631
vn 0.520368 -0.853869 0.011124
vn 0.242942 -0.970027 0.005242
vn 0.048441 0.998817 -0.004202
vn -0.157677 0.987472 -0.006116
vn -0.405750 0.913957 -0.007035
vn -0.611426 0.791268 -0.007259
vn -0.779186 0.626712 -0.010087
vn -0.929064 0.369714 -0.012298
vn -0.998666 0.050087 -0.012532
vn -0.973970 -0.226544 -0.007779
vn -0.879541 -0.475816 -0.002476
vn -0.737819 -0.674980 -0.005128
vn -0.525472 -0.850802 -0.003914
vn -0.252252 -0.967657 -0.003143
vn -0.002300 -0.999997 0.000199
vn 0.232031 -0.972707 -0.001621
vn 0.452192 -0.891885 -0.007970
vn 0.705759 -0.708356 -0.011669
vn 0.901846 -0.431901 -0.011654
vn 0.987440 -0.157558 -0.011763
vn 0.992179 0.124212 -0.012347
vn 0.911995 0.409994 -0.013059
vn 0.760835 0.648810 -0.013235
vn 0.531046 0.847270 -0.011158
vn 0.258683 0.965943 -0.006134
vn -0.669712 0.737385 -0.088031
vn -0.669712 0.737385 -0.088031
vn -0.669712 0.737385 -0.088031
vn -0.082044 0.013226 -0.996541
vn -0.082044 0.013226 -0.996541
vn -0.082044 0.013226 -0.996541
vn -0.889638 -0.230625 -0.394154
vn -0.889638 -0.230625 -0.394154
vn -0.889638 -0.230625 -0.394154
vn 0.324620 -0.867723 0.376402
vn 0.324620 -0.867723 0.376402
vn 0.324620 -0.867723 0.376402
vn 0.051832 -0.019864 -0.998458
vn 0.051832 -0.019864 -0.998458
vn 0.051832 -0.019864 -0.998458
vn 0.034247 0.010619 -0.999357
vn 0.034247 0.010619 -0.999357
vn 0.034247 0.010619 -0.999357
f 494//494 475//475 474//474
f 511//511 482//482 512//512
f 467//467 501//501 468//468
f 483//483 511//511 510//510
f 483//483 482//482 511//511
f 467//467 502//502 501//501
f 483//483 510//510 509//509
f 466//466 502//502 467//467
f 484//484 483//483 509//509
f 465//465 503//503 502//502
f 465//465 502//502 466//466
f 501//501 500//500 468//468
f 485//485 509//509 508//508
f 490//490 504//504 503//503
f 490//490 505//505 504//504
f 486//486 485//485 508//508
f 489//489 505//505 490//490
f 486//486 508//508 507//507
f 487//487 486//486 507//507
f 489//489 506//506 505//505
f 488//488 506//506 489//489
f 488//488 487//487 507//507
f 488//488 507//507 506//506
f 490//490 503//503 465//465
f 482//482 481//481 512//512
f 485//485 484//484 509//509
f 468//468 500//500 469//469
f 512//512 481//481 513//513
f 493//493 475//475 494//494
f 495//495 494//494 474//474
f 493//493 476//476 475//475
f 495//495 474//474 473//473
f 492//492 477//477 476//476
f 492//492 476//476 493//493
f 496//496 473//473 472//472
f 497//497 496//496 472//472
f 491//491 477//477 492//492
f 491//491 478//478 477//477
f 496//496 495//495 473//473
f 500//500 499//499 470//470
f 498//498 497//497 471//471
f 514//514 479//479 478//478
f 514//514 478//478 491//491
f 498//498 471//471 470//470
f 514//514 480//480 479//479
f 499//499 498//498 470//470
f 513//513 480//480 514//514
f 481//481 480//480 513//513
f 500//500 470//470 469//469
f 497//497 472//472 471//471
f 521//521 561//561 562//562
f 520//520 521//521 562//562
f 520//520 562//562 563//563
f 519//519 520//520 563//563
f 518//518 519//519 563//563
f 516//516 517//517 566//566
f 518//518 564//564 565//565
f 517//517 518//518 565//565
f 517//517 565//565 566//566
f 521//521 522//522 560//560
f 518//518 563//563 564//564
f 521//521 560//560 561//561
f 527//527 528//528 554//554
f 522//522 523//523 559//559
f 523//523 558//558 559//559
f 523//523 524//524 558//558
f 524//524 557//557 558//558
f 524//524 525//525 557//557
f 525//525 556//556 557//557
f 525//525 526//526 556//556
f 526//526 555//555 556//556
f 526//526 527//527 555//555
f 527//527 554//554 555//555
f 515//515 516//516 566//566
f 522//522 559//559 560//560
f 515//515 566//566 542//542
f 536//536 546//546 547//547
f 531//531 551//551 552//552
f 532//532 550//550 551//551
f 531//531 532//532 551//551
f 533//533 534//534 549//549
f 530//530 531//531 552//552
f 530//530 552//552 553//553
f 529//529 530//530 553//553
f 529//529 553//553 541//541
f 528//528 529//529 541//541
f 534//534 548//548 549//549
f 534//534 535//535 548//548
f 532//532 533//533 550//550
f 535//535 547//547 548//548
f 528//528 541//541 554//554
f 536//536 537//537 546//546
f 537//537 545//545 546//546
f 537//537 538//538 545//545
f 538//538 544//544 545//545
f 538//538 539//539 544//544
f 539//539 543//543 544//544
f 539//539 540//540 543//543
f 540//540 542//542 543//543
f 540//540 515//515 542//542
f 535//535 536//536 547//547
f 533//533 549//549 550//550
f 698//698 676//676 695//695
f 698//698 695//695 696//696
f 664//664 665//665 691//691
f 664//664 691//691 692//692
f 664//664 692//692 600//600
f 693//693 674//674 620//620
f 693//693 620//620 619//619
f 694//694 619//619 593//593
f 594//594 694//694 593//593
f 694//694 693//693 619//619
f 695//695 674//674 693//693
f 695//695 675//675 674//674
f 696//696 695//695 693//693
f 694//694 696//696 693//693
f 695//695 676//676 675//675
f 697//697 694//694 594//594
f 665//665 689//689 690//690
f 656//656 657//657 612//612
f 666//666 715//715 689//689
f 653//653 618//618 620//620
f 653//653 654//654 618//618
f 654//654 617//617 618//618
f 654//654 616//616 617//617
f 654//654 655//655 616//616
f 655//655 615//615 616//616
f 655//655 614//614 615//615
f 655//655 656//656 614//614
f 656//656 644//644 614//614
f 656//656 613//613 644//644
f 656//656 612//612 613//613
f 697//697 698//698 696//696
f 657//657 611//611 612//612
f 657//657 658//658 611//611
f 658//658 610//610 611//611
f 658//658 659//659 610//610
f 659//659 609//609 610//610
f 659//659 608//608 609//609
f 659//659 660//660 608//608
f 673//673 620//620 674//674
f 673//673 653//653 620//620
f 673//673 674//674 675//675
f 672//672 673//673 675//675
f 666//666 688//688 715//715
f 666//666 667//667 688//688
f 667//667 687//687 688//688
f 667//667 686//686 687//687
f 667//667 668//668 685//685
f 667//667 685//685 686//686
f 668//668 684//684 685//685
f 668//668 669//669 684//684
f 669//669 683//683 684//684
f 665//665 666//666 689//689
f 669//669 670//670 682//682
f 670//670 681//681 682//682
f 670//670 680//680 681//681
f 670//670 679//679 680//680
f 670//670 671//671 679//679
f 671//671 678//678 679//679
f 671//671 677//677 678//678
f 671//671 672//672 677//677
f 672//672 676//676 677//677
f 672//672 675//675 676//676
f 669//669 682//682 683//683
f 698//698 677//677 676//676
f 708//708 684//684 683//683
f 697//697 699//699 698//698
f 713//713 686//686 711//711
f 713//713 687//687 686//686
f 596//596 711//711 712//712
f 596//596 713//713 711//711
f 714//714 688//688 687//687
f 714//714 687//687 713//713
f 596//596 714//714 713//713
f 715//715 688//688 714//714
f 716//716 715//715 714//714
f 716//716 714//714 596//596
f 717//717 716//716 596//596
f 716//716 689//689 715//715
f 718//718 689//689 716//716
f 717//717 718//718 716//716
f 690//690 689//689 718//718
f 719//719 690//690 718//718
f 720//720 719//719 718//718
f 720//720 718//718 717//717
f 691//691 690//690 719//719
f 721//721 691//691 719//719
f 721//721 719//719 720//720
f 722//722 721//721 720//720
f 692//692 691//691 721//721
f 723//723 692//692 721//721
f 723//723 721//721 722//722
f 621//621 600//600 692//692
f 621//621 692//692 723//723
f 723//723 597//597 621//621
f 722//722 597//597 723//723
f 711//711 686//686 710//710
f 699//699 677//677 698//698
f 686//686 685//685 710//710
f 711//711 708//708 709//709
f 678//678 677//677 699//699
f 595//595 697//697 594//594
f 700//700 699//699 697//697
f 595//595 700//700 697//697
f 700//700 678//678 699//699
f 700//700 679//679 678//678
f 701//701 679//679 700//700
f 701//701 700//700 595//595
f 702//702 680//680 679//679
f 702//702 679//679 701//701
f 702//702 681//681 680//680
f 703//703 702//702 701//701
f 595//595 703//703 701//701
f 704//704 682//682 681//681
f 704//704 681//681 702//702
f 703//703 704//704 702//702
f 705//705 704//704 703//703
f 683//683 682//682 704//704
f 706//706 683//683 704//704
f 705//705 706//706 704//704
f 707//707 706//706 705//705
f 660//660 607//607 608//608
f 708//708 683//683 706//706
f 708//708 706//706 707//707
f 709//709 707//707 705//705
f 709//709 708//708 707//707
f 685//685 684//684 708//708
f 710//710 685//685 708//708
f 711//711 710//710 708//708
f 712//712 711//711 709//709
f 660//660 661//661 607//607
f 665//665 690//690 691//691
f 661//661 605//605 606//606
f 574//574 573//573 638//638
f 580//580 597//597 722//722
f 567//567 597//597 580//580
f 575//575 574//574 638//638
f 575//575 638//638 634//634
f 567//567 623//623 597//597
f 579//579 623//623 567//567
f 579//579 598//598 623//623
f 576//576 575//575 634//634
f 578//578 598//598 579//579
f 576//576 634//634 631//631
f 577//577 576//576 631//631
f 577//577 598//598 578//578
f 577//577 631//631 598//598
f 601//601 600//600 621//621
f 622//622 601//601 621//621
f 622//622 621//621 597//597
f 623//623 622//622 597//597
f 624//624 601//601 622//622
f 624//624 602//602 601//601
f 623//623 624//624 622//622
f 625//625 624//624 623//623
f 624//624 603//603 602//602
f 626//626 603//603 624//624
f 626//626 624//624 625//625
f 626//626 604//604 603//603
f 627//627 626//626 625//625
f 598//598 627//627 625//625
f 627//627 604//604 626//626
f 580//580 722//722 581//581
f 628//628 605//605 604//604
f 581//581 722//722 720//720
f 581//581 720//720 582//582
f 661//661 606//606 607//607
f 595//595 590//590 589//589
f 594//594 590//590 595//595
f 595//595 589//589 588//588
f 594//594 591//591 590//590
f 705//705 595//595 588//588
f 594//594 592//592 591//591
f 705//705 588//588 587//587
f 593//593 568//568 592//592
f 593//593 592//592 594//594
f 705//705 587//587 586//586
f 709//709 705//705 586//586
f 652//652 568//568 593//593
f 709//709 586//586 585//585
f 596//596 709//709 585//585
f 650//650 569//569 568//568
f 650//650 568//568 652//652
f 596//596 585//585 584//584
f 650//650 570//570 569//569
f 647//647 570//570 650//650
f 571//571 570//570 647//647
f 583//583 596//596 584//584
f 599//599 571//571 647//647
f 583//583 717//717 596//596
f 572//572 571//571 599//599
f 582//582 720//720 717//717
f 582//582 717//717 583//583
f 572//572 599//599 642//642
f 573//573 572//572 642//642
f 573//573 642//642 638//638
f 628//628 604//604 627//627
f 625//625 623//623 598//598
f 629//629 627//627 598//598
f 645//645 643//643 642//642
f 599//599 645//645 642//642
f 614//614 644//644 645//645
f 647//647 645//645 599//599
f 646//646 614//614 645//645
f 647//647 646//646 645//645
f 629//629 628//628 627//627
f 648//648 615//615 646//646
f 648//648 646//646 647//647
f 648//648 616//616 615//615
f 650//650 648//648 647//647
f 649//649 616//616 648//648
f 649//649 617//617 616//616
f 650//650 649//649 648//648
f 645//645 644//644 643//643
f 618//618 617//617 649//649
f 651//651 649//649 650//650
f 652//652 651//651 650//650
f 651//651 620//620 618//618
f 651//651 619//619 620//620
f 652//652 619//619 651//651
f 652//652 593//593 619//619
f 663//663 600//600 601//601
f 663//663 664//664 600//600
f 663//663 601//601 602//602
f 662//662 663//663 602//602
f 662//662 602//602 603//603
f 662//662 603//603 604//604
f 661//661 662//662 604//604
f 661//661 604//604 605//605
f 651//651 618//618 649//649
f 644//644 613//613 643//643
f 646//646 615//615 614//614
f 643//643 612//612 641//641
f 630//630 606//606 605//605
f 630//630 605//605 628//628
f 630//630 628//628 629//629
f 631//631 630//630 629//629
f 607//607 606//606 630//630
f 632//632 607//607 630//630
f 613//613 612//612 643//643
f 634//634 632//632 631//631
f 608//608 607//607 632//632
f 633//633 608//608 632//632
f 634//634 633//633 632//632
f 635//635 609//609 608//608
f 635//635 608//608 633//633
f 636//636 633//633 634//634
f 632//632 630//630 631//631
f 637//637 610//610 609//609
f 642//642 643//643 640//640
f 636//636 635//635 633//633
f 643//643 641//641 640//640
f 641//641 639//639 640//640
f 641//641 611//611 639//639
f 640//640 637//637 638//638
f 640//640 639//639 637//637
f 641//641 612//612 611//611
f 639//639 611//611 637//637
f 637//637 611//611 610//610
f 638//638 637//637 636//636
f 636//636 637//637 635//635
f 637//637 609//609 635//635
f 729//729 750//750 730//730
f 744//744 756//756 755//755
f 744//744 743//743 756//756
f 731//731 748//748 732//732
f 730//730 749//749 731//731
f 730//730 750//750 749//749
f 731//731 749//749 748//748
f 724//724 755//755 754//754
f 727//727 752//752 751//751
f 725//725 724//724 754//754
f 728//728 750//750 729//729
f 728//728 751//751 750//750
f 725//725 754//754 753//753
f 727//727 751//751 728//728
f 726//726 753//753 752//752
f 743//743 742//742 756//756
f 727//727 726//726 752//752
f 724//724 744//744 755//755
f 756//756 742//742 757//757
f 726//726 725//725 753//753
f 747//747 733//733 732//732
f 748//748 747//747 732//732
f 761//761 738//738 737//737
f 760//760 738//738 761//761
f 761//761 737//737 736//736
f 762//762 761//761 736//736
f 762//762 736//736 735//735
f 759//759 739//739 760//760
f 745//745 762//762 735//735
f 760//760 739//739 738//738
f 745//745 735//735 734//734
f 759//759 741//741 740//740
f 746//746 745//745 734//734
f 758//758 741//741 759//759
f 746//746 734//734 733//733
f 747//747 746//746 733//733
f 758//758 742//742 741//741
f 759//759 740//740 739//739
f 757//757 742//742 758//758
f 794//794 778//778 793//793
f 793//793 778//778 779//779
f 793//793 779//779 792//792
f 791//791 780//780 763//763
f 792//792 780//780 791//791
f 794//794 777//777 778//778
f 792//792 779//779 780//780
f 795//795 777//777 794//794
f 786//786 773//773 799//799
f 796//796 777//777 795//795
f 797//797 775//775 776//776
f 797//797 776//776 796//796
f 798//798 775//775 797//797
f 798//798 774//774 775//775
f 799//799 773//773 774//774
f 791//791 763//763 785//785
f 796//796 776//776 777//777
f 785//785 763//763 764//764
f 799//799 774//774 798//798
f 784//784 764//764 765//765
f 784//784 765//765 783//783
f 783//783 765//765 766//766
f 783//783 766//766 782//782
f 782//782 767//767 781//781
f 781//781 767//767 768//768
f 781//781 768//768 790//790
f 790//790 768//768 769//769
f 790//790 769//769 789//789
f 782//782 766//766 767//767
f 789//789 770//770 788//788
f 788//788 770//770 771//771
f 788//788 771//771 787//787
f 787//787 771//771 772//772
f 787//787 772//772 786//786
f 786//786 772//772 773//773
f 785//785 764//764 784//784
f 789//789 769//769 770//770
f 829//829 824//824 828//828
f 829//829 825//825 824//824
f 825//825 829//829 830//830
f 826//826 831//831 814//814
f 831//831 826//826 830//830
f 826//826 814//814 805//805
f 828//828 824//824 823//823
f 830//830 826//826 825//825
f 828//828 823//823 827//827
f 806//806 805//805 814//814
f 822//822 821//821 827//827
f 815//815 806//806 814//814
f 815//815 807//807 806//806
f 816//816 807//807 815//815
f 827//827 823//823 822//822
f 808//808 816//816 817//817
f 809//809 808//808 817//817
f 817//817 800//800 809//809
f 810//810 800//800 817//817
f 811//811 801//801 800//800
f 811//811 800//800 810//810
f 812//812 802//802 801//801
f 812//812 801//801 811//811
f 816//816 808//808 807//807
f 803//803 812//812 813//813
f 812//812 803//803 802//802
f 821//821 835//835 827//827
f 835//835 820//820 834//834
f 834//834 819//819 833//833
f 834//834 820//820 819//819
f 835//835 821//821 820//820
f 832//832 819//819 818//818
f 818//818 813//813 832//832
f 813//813 818//818 804//804
f 804//804 803//803 813//813
f 833//833 819//819 832//832
f 869//869 868//868 837//837
f 854//854 840//840 848//848
f 855//855 847//847 856//856
f 869//869 837//837 836//836
f 855//855 848//848 847//847
f 870//870 869//869 836//836
f 854//854 848//848 855//855
f 871//871 836//836 843//843
f 874//874 841//841 840//840
f 853//853 840//840 854//854
f 875//875 840//840 853//853
f 872//872 871//871 843//843
f 874//874 840//840 875//875
f 872//872 843//843 842//842
f 873//873 872//872 842//842
f 874//874 842//842 841//841
f 873//873 842//842 874//874
f 856//856 847//847 846//846
f 871//871 870//870 836//836
f 856//856 846//846 857//857
f 846//846 858//858 857//857
f 838//838 868//868 867//867
f 868//868 838//838 837//837
f 850//850 863//863 862//862
f 850//850 862//862 851//851
f 851//851 862//862 861//861
f 852//852 851//851 861//861
f 849//849 863//863 850//850
f 852//852 861//861 860//860
f 844//844 860//860 859//859
f 849//849 864//864 863//863
f 839//839 864//864 849//849
f 839//839 865//865 864//864
f 839//839 866//866 865//865
f 844//844 859//859 858//858
f 845//845 844//844 858//858
f 839//839 867//867 866//866
f 838//838 867//867 839//839
f 844//844 852//852 860//860
f 846//846 845//845 858//858
f 881//881 908//908 880//880
f 880//880 908//908 879//879
f 879//879 908//908 909//909
f 877//877 910//910 911//911
f 879//879 910//910 878//878
f 878//878 910//910 877//877
f 881//881 907//907 908//908
f 879//879 909//909 910//910
f 882//882 907//907 881//881
f 886//886 902//902 903//903
f 883//883 905//905 906//906
f 883//883 906//906 882//882
f 884//884 905//905 883//883
f 884//884 904//904 905//905
f 885//885 904//904 884//884
f 885//885 903//903 904//904
f 886//886 903//903 885//885
f 877//877 912//912 876//876
f 887//887 902//902 886//886
f 887//887 901//901 902//902
f 882//882 906//906 907//907
f 877//877 911//911 912//912
f 895//895 917//917 894//894
f 899//899 912//912 913//913
f 888//888 901//901 887//887
f 888//888 922//922 900//900
f 889//889 922//922 888//888
f 890//890 922//922 889//889
f 890//890 921//921 922//922
f 891//891 921//921 890//890
f 891//891 920//920 921//921
f 892//892 920//920 891//891
f 892//892 919//919 920//920
f 893//893 919//919 892//892
f 893//893 918//918 919//919
f 894//894 918//918 893//893
f 894//894 917//917 918//918
f 895//895 916//916 917//917
f 896//896 916//916 895//895
f 897//897 915//915 916//916
f 897//897 916//916 896//896
f 898//898 915//915 897//897
f 898//898 914//914 915//915
f 899//899 914//914 898//898
f 899//899 913//913 914//914
f 876//876 912//912 899//899
f 888//888 900//900 901//901
f 925//925 924//924 923//923
f 927//927 926//926 928//928
f 931//931 930//930 929//929
f 934//934 933//933 932//932
f 936//936 935//935 937//937
f 940//940 939//939 938//938
