# OMX visual mesh; coordinates in metres
mtllib materials.mtl
usemtl white_led_diffuser
v 0.0191000 -0.0025000 -0.0093000
v 0.0191000 0.0025000 -0.0093000
v 0.0191000 -0.0025000 -0.0085000
v 0.0191000 0.0025000 -0.0085000
v 0.0191000 -0.0025000 -0.0093000
v 0.0191000 0.0025000 -0.0093000
v 0.0189000 -0.0025000 -0.0095000
v 0.0189000 0.0025000 -0.0095000
v 0.0191000 0.0025000 -0.0093000
v 0.0191000 0.0025000 -0.0085000
v 0.0189000 0.0025000 -0.0095000
v 0.0217000 0.0025000 -0.0085000
v 0.0174000 0.0025000 -0.0095000
v 0.0172000 0.0025000 -0.0093000
v 0.0172000 0.0025000 -0.0075000
v 0.0210986 0.0025000 -0.0075000
v 0.0217000 0.0025000 -0.0076060
v 0.0217000 0.0025000 -0.0085000
v 0.0217000 0.0025000 -0.0076060
v 0.0217000 -0.0025000 -0.0076060
v 0.0217000 -0.0025000 -0.0085000
v 0.0191000 -0.0025000 -0.0085000
v 0.0191000 0.0025000 -0.0085000
v 0.0217000 0.0025000 -0.0085000
v 0.0217000 -0.0025000 -0.0085000
v 0.0191000 -0.0025000 -0.0093000
v 0.0191000 -0.0025000 -0.0085000
v 0.0189000 -0.0025000 -0.0095000
v 0.0217000 -0.0025000 -0.0076060
v 0.0217000 -0.0025000 -0.0085000
v 0.0210986 -0.0025000 -0.0075000
v 0.0172000 -0.0025000 -0.0075000
v 0.0172000 -0.0025000 -0.0093000
v 0.0174000 -0.0025000 -0.0095000
v 0.0189000 -0.0025000 -0.0095000
v 0.0189000 0.0025000 -0.0095000
v 0.0174000 0.0025000 -0.0095000
v 0.0174000 -0.0025000 -0.0095000
v 0.0174000 0.0025000 -0.0095000
v 0.0172000 0.0025000 -0.0093000
v 0.0172000 -0.0025000 -0.0093000
v 0.0174000 -0.0025000 -0.0095000
v 0.0172000 0.0025000 -0.0093000
v 0.0172000 0.0025000 -0.0075000
v 0.0172000 -0.0025000 -0.0075000
v 0.0172000 -0.0025000 -0.0093000
v 0.0172000 0.0025000 -0.0075000
v 0.0210986 0.0025000 -0.0075000
v 0.0217000 0.0025000 -0.0076060
v 0.0217000 -0.0025000 -0.0076060
v 0.0210986 -0.0025000 -0.0075000
v 0.0172000 -0.0025000 -0.0075000
vn 1.000000 0.000000 0.000000
vn 1.000000 0.000000 0.000000
vn 1.000000 0.000000 0.000000
vn 1.000000 0.000000 0.000000
vn 0.707159 0.000000 -0.707054
vn 0.707159 0.000000 -0.707054
vn 0.707159 0.000000 -0.707054
vn 0.707159 0.000000 -0.707054
vn 0.000000 1.000000 0.000000
vn 0.000000 1.000000 0.000000
vn 0.000000 1.000000 0.000000
vn 0.000000 1.000000 0.000000
vn 0.000000 1.000000 0.000000
vn 0.000000 1.000000 0.000000
vn 0.000000 1.000000 0.000000
vn 0.000000 1.000000 0.000000
vn 0.000000 1.000000 0.000000
vn 1.000000 0.000000 0.000000
vn 1.000000 0.000000 0.000000
vn 1.000000 0.000000 0.000000
vn 1.000000 0.000000 0.000000
vn 0.000000 0.000000 -1.000000
vn 0.000000 0.000000 -1.000000
vn 0.000000 0.000000 -1.000000
vn 0.000000 0.000000 -1.000000
vn 0.000000 -1.000000 0.000000
vn 0.000000 -1.000000 0.000000
vn 0.000000 -1.000000 0.000000
vn 0.000000 -1.000000 0.000000
vn 0.000000 -1.000000 0.000000
vn 0.000000 -1.000000 0.000000
vn 0.000000 -1.000000 0.000000
vn 0.000000 -1.000000 0.000000
vn 0.000000 -1.000000 0.000000
vn 0.000000 0.000000 -1.000000
vn 0.000000 0.000000 -1.000000
vn 0.000000 0.000000 -1.000000
vn 0.000000 0.000000 -1.000000
vn -0.707133 0.000000 -0.707080
vn -0.707133 0.000000 -0.707080
vn -0.707133 0.000000 -0.707080
vn -0.707133 0.000000 -0.707080
vn -1.000000 0.000000 0.000000
vn -1.000000 0.000000 0.000000
vn -1.000000 0.000000 0.000000
vn -1.000000 0.000000 0.000000
vn 0.000000 0.000000 1.000000
vn 0.087141 0.000000 0.996196
vn 0.173620 0.000000 0.984813
vn 0.173620 0.000000 0.984813
vn 0.087141 0.000000 0.996196
vn 0.000000 0.000000 1.000000
f 2//2 3//3 1//1
f 2//2 4//4 3//3
f 8//8 6//6 5//5
f 8//8 5//5 7//7
f 13//13 14//14 10//10
f 13//13 10//10 11//11
f 11//11 10//10 9//9
f 14//14 15//15 10//10
f 10//10 16//16 12//12
f 12//12 16//16 17//17
f 15//15 16//16 10//10
f 21//21 19//19 20//20
f 21//21 18//18 19//19
f 24//24 25//25 22//22
f 24//24 22//22 23//23
f 32//32 27//27 31//31
f 32//32 33//33 27//27
f 33//33 34//34 27//27
f 31//31 30//30 29//29
f 27//27 30//30 31//31
f 27//27 28//28 26//26
f 34//34 28//28 27//27
f 38//38 37//37 36//36
f 38//38 36//36 35//35
f 42//42 41//41 40//40
f 42//42 40//40 39//39
f 43//43 46//46 45//45
f 43//43 45//45 44//44
f 50//50 48//48 51//51
f 47//47 52//52 51//51
f 47//47 51//51 48//48
f 50//50 49//49 48//48
