# OMX visual mesh; coordinates in metres
mtllib materials.mtl
usemtl bic30_rev02_black
v 0.0579998 0.0018144 -0.0112450
v 0.0579525 0.0017834 -0.0112450
v 0.0579972 0.0018140 -0.0112350
v 0.0579671 0.0017876 -0.0112350
v 0.0570136 0.0019752 -0.0112292
v 0.0569551 -0.0000450 -0.0106450
v 0.0569500 0.0001400 -0.0106450
v 0.0569605 0.0001400 -0.0107450
v 0.0569605 0.0003600 -0.0107450
v 0.0569500 0.0003600 -0.0106450
v 0.0569500 0.0006400 -0.0106450
v 0.0569605 0.0006400 -0.0107450
v 0.0569605 0.0008600 -0.0107450
v 0.0569500 0.0008600 -0.0106450
v 0.0569500 0.0011400 -0.0106450
v 0.0569605 0.0011400 -0.0107450
v 0.0569605 0.0013600 -0.0107450
v 0.0569500 0.0013600 -0.0106450
v 0.0569500 0.0016400 -0.0106450
v 0.0569605 0.0016400 -0.0107450
v 0.0569605 0.0018600 -0.0107450
v 0.0569500 0.0018600 -0.0106450
v 0.0569546 0.0020442 -0.0106450
v 0.0570127 0.0000273 -0.0112288
v 0.0579998 0.0018144 -0.0112450
v 0.0579525 0.0017834 -0.0112450
v 0.0579049 0.0017969 -0.0112450
v 0.0578818 0.0018510 -0.0112450
v 0.0570136 0.0019752 -0.0112292
v 0.0569551 -0.0000450 -0.0106450
v 0.0569546 0.0020442 -0.0106450
v 0.0581449 0.0020450 -0.0106450
v 0.0570254 0.0000143 -0.0112313
v 0.0579118 0.0018962 -0.0112450
v 0.0579557 0.0019049 -0.0112450
v 0.0579983 0.0018755 -0.0112450
v 0.0580807 0.0019716 -0.0112387
v 0.0580877 0.0019732 -0.0112266
v 0.0580736 0.0019865 -0.0112302
v 0.0580671 0.0019748 -0.0112440
v 0.0570260 0.0019686 -0.0112440
v 0.0570287 0.0019797 -0.0112393
v 0.0570285 0.0019871 -0.0112299
v 0.0580806 0.0000264 -0.0112382
v 0.0580672 0.0000254 -0.0112439
v 0.0570267 0.0000257 -0.0112429
v 0.0570127 0.0000273 -0.0112288
v 0.0569551 -0.0000450 -0.0106450
v 0.0581500 0.0001400 -0.0106450
v 0.0580884 0.0000322 -0.0112271
v 0.0581449 0.0020450 -0.0106450
v 0.0581500 0.0018600 -0.0106450
v 0.0581395 0.0018600 -0.0107450
v 0.0581395 0.0016400 -0.0107450
v 0.0581500 0.0016400 -0.0106450
v 0.0581500 0.0013600 -0.0106450
v 0.0581395 0.0013600 -0.0107450
v 0.0581395 0.0011400 -0.0107450
v 0.0581500 0.0011400 -0.0106450
v 0.0581500 0.0008600 -0.0106450
v 0.0581395 0.0008600 -0.0107450
v 0.0581395 0.0006400 -0.0107450
v 0.0581500 0.0006400 -0.0106450
v 0.0581500 0.0003600 -0.0106450
v 0.0581395 0.0003600 -0.0107450
v 0.0581395 0.0001400 -0.0107450
v 0.0570254 0.0000143 -0.0112313
v 0.0581454 -0.0000442 -0.0106450
v 0.0580807 0.0019716 -0.0112387
v 0.0580877 0.0019732 -0.0112266
v 0.0580822 0.0000188 -0.0112284
v 0.0580692 0.0000125 -0.0112296
v 0.0580806 0.0000264 -0.0112382
v 0.0580672 0.0000254 -0.0112439
v 0.0570267 0.0000257 -0.0112429
v 0.0569551 -0.0000450 -0.0106450
v 0.0569500 0.0001400 -0.0106450
v 0.0569500 0.0003600 -0.0106450
v 0.0569500 0.0006400 -0.0106450
v 0.0569500 0.0008600 -0.0106450
v 0.0569500 0.0011400 -0.0106450
v 0.0569500 0.0013600 -0.0106450
v 0.0569500 0.0016400 -0.0106450
v 0.0569500 0.0018600 -0.0106450
v 0.0569546 0.0020442 -0.0106450
v 0.0581500 0.0001400 -0.0106450
v 0.0581449 0.0020450 -0.0106450
v 0.0581500 0.0018600 -0.0106450
v 0.0581500 0.0016400 -0.0106450
v 0.0581500 0.0013600 -0.0106450
v 0.0581500 0.0011400 -0.0106450
v 0.0581500 0.0008600 -0.0106450
v 0.0581500 0.0006400 -0.0106450
v 0.0581500 0.0003600 -0.0106450
v 0.0581454 -0.0000442 -0.0106450
v 0.0580500 0.0001400 -0.0106450
v 0.0580500 0.0003600 -0.0106450
v 0.0580500 0.0006400 -0.0106450
v 0.0580500 0.0008600 -0.0106450
v 0.0580500 0.0011400 -0.0106450
v 0.0580500 0.0013600 -0.0106450
v 0.0580500 0.0016400 -0.0106450
v 0.0580500 0.0018600 -0.0106450
v 0.0570500 0.0018600 -0.0106450
v 0.0570500 0.0016400 -0.0106450
v 0.0570500 0.0013600 -0.0106450
v 0.0570500 0.0011400 -0.0106450
v 0.0570500 0.0008600 -0.0106450
v 0.0570500 0.0006400 -0.0106450
v 0.0570500 0.0003600 -0.0106450
v 0.0570500 0.0001400 -0.0106450
v 0.0569605 0.0016400 -0.0107450
v 0.0569605 0.0018600 -0.0107450
v 0.0570500 0.0018600 -0.0107450
v 0.0570500 0.0016400 -0.0107450
v 0.0569605 0.0018600 -0.0107450
v 0.0569500 0.0018600 -0.0106450
v 0.0570500 0.0018600 -0.0106450
v 0.0570500 0.0018600 -0.0107450
v 0.0569500 0.0016400 -0.0106450
v 0.0569605 0.0016400 -0.0107450
v 0.0570500 0.0016400 -0.0106450
v 0.0570500 0.0016400 -0.0107450
v 0.0570500 0.0018600 -0.0106450
v 0.0570500 0.0016400 -0.0106450
v 0.0570500 0.0018600 -0.0107450
v 0.0570500 0.0016400 -0.0107450
v 0.0581395 0.0018600 -0.0107450
v 0.0581395 0.0016400 -0.0107450
v 0.0580500 0.0016400 -0.0107450
v 0.0580500 0.0018600 -0.0107450
v 0.0581395 0.0016400 -0.0107450
v 0.0581500 0.0016400 -0.0106450
v 0.0580500 0.0016400 -0.0106450
v 0.0580500 0.0016400 -0.0107450
v 0.0581500 0.0018600 -0.0106450
v 0.0581395 0.0018600 -0.0107450
v 0.0580500 0.0018600 -0.0106450
v 0.0580500 0.0018600 -0.0107450
v 0.0580500 0.0016400 -0.0106450
v 0.0580500 0.0018600 -0.0106450
v 0.0580500 0.0016400 -0.0107450
v 0.0580500 0.0018600 -0.0107450
v 0.0581395 0.0013600 -0.0107450
v 0.0581395 0.0011400 -0.0107450
v 0.0580500 0.0011400 -0.0107450
v 0.0580500 0.0013600 -0.0107450
v 0.0581395 0.0011400 -0.0107450
v 0.0581500 0.0011400 -0.0106450
v 0.0580500 0.0011400 -0.0106450
v 0.0580500 0.0011400 -0.0107450
v 0.0581500 0.0013600 -0.0106450
v 0.0581395 0.0013600 -0.0107450
v 0.0580500 0.0013600 -0.0106450
v 0.0580500 0.0013600 -0.0107450
v 0.0580500 0.0011400 -0.0106450
v 0.0580500 0.0013600 -0.0106450
v 0.0580500 0.0011400 -0.0107450
v 0.0580500 0.0013600 -0.0107450
v 0.0569605 0.0001400 -0.0107450
v 0.0569605 0.0003600 -0.0107450
v 0.0570500 0.0003600 -0.0107450
v 0.0570500 0.0001400 -0.0107450
v 0.0569605 0.0003600 -0.0107450
v 0.0569500 0.0003600 -0.0106450
v 0.0570500 0.0003600 -0.0106450
v 0.0570500 0.0003600 -0.0107450
v 0.0569500 0.0001400 -0.0106450
v 0.0569605 0.0001400 -0.0107450
v 0.0570500 0.0001400 -0.0106450
v 0.0570500 0.0001400 -0.0107450
v 0.0570500 0.0003600 -0.0106450
v 0.0570500 0.0001400 -0.0106450
v 0.0570500 0.0003600 -0.0107450
v 0.0570500 0.0001400 -0.0107450
v 0.0569605 0.0011400 -0.0107450
v 0.0569605 0.0013600 -0.0107450
v 0.0570500 0.0013600 -0.0107450
v 0.0570500 0.0011400 -0.0107450
v 0.0569605 0.0013600 -0.0107450
v 0.0569500 0.0013600 -0.0106450
v 0.0570500 0.0013600 -0.0106450
v 0.0570500 0.0013600 -0.0107450
v 0.0569500 0.0011400 -0.0106450
v 0.0569605 0.0011400 -0.0107450
v 0.0570500 0.0011400 -0.0106450
v 0.0570500 0.0011400 -0.0107450
v 0.0570500 0.0013600 -0.0106450
v 0.0570500 0.0011400 -0.0106450
v 0.0570500 0.0013600 -0.0107450
v 0.0570500 0.0011400 -0.0107450
v 0.0581395 0.0008600 -0.0107450
v 0.0581395 0.0006400 -0.0107450
v 0.0580500 0.0006400 -0.0107450
v 0.0580500 0.0008600 -0.0107450
v 0.0581395 0.0006400 -0.0107450
v 0.0581500 0.0006400 -0.0106450
v 0.0580500 0.0006400 -0.0106450
v 0.0580500 0.0006400 -0.0107450
v 0.0581500 0.0008600 -0.0106450
v 0.0581395 0.0008600 -0.0107450
v 0.0580500 0.0008600 -0.0106450
v 0.0580500 0.0008600 -0.0107450
v 0.0580500 0.0006400 -0.0106450
v 0.0580500 0.0008600 -0.0106450
v 0.0580500 0.0006400 -0.0107450
v 0.0580500 0.0008600 -0.0107450
v 0.0569605 0.0006400 -0.0107450
v 0.0569605 0.0008600 -0.0107450
v 0.0570500 0.0008600 -0.0107450
v 0.0570500 0.0006400 -0.0107450
v 0.0569605 0.0008600 -0.0107450
v 0.0569500 0.0008600 -0.0106450
v 0.0570500 0.0008600 -0.0106450
v 0.0570500 0.0008600 -0.0107450
v 0.0569500 0.0006400 -0.0106450
v 0.0569605 0.0006400 -0.0107450
v 0.0570500 0.0006400 -0.0106450
v 0.0570500 0.0006400 -0.0107450
v 0.0570500 0.0008600 -0.0106450
v 0.0570500 0.0006400 -0.0106450
v 0.0570500 0.0008600 -0.0107450
v 0.0570500 0.0006400 -0.0107450
v 0.0581395 0.0003600 -0.0107450
v 0.0581395 0.0001400 -0.0107450
v 0.0580500 0.0001400 -0.0107450
v 0.0580500 0.0003600 -0.0107450
v 0.0581500 0.0001400 -0.0106450
v 0.0581395 0.0001400 -0.0107450
v 0.0580500 0.0001400 -0.0106450
v 0.0580500 0.0001400 -0.0107450
v 0.0581500 0.0003600 -0.0106450
v 0.0581395 0.0003600 -0.0107450
v 0.0580500 0.0003600 -0.0106450
v 0.0580500 0.0003600 -0.0107450
v 0.0580500 0.0001400 -0.0106450
v 0.0580500 0.0003600 -0.0106450
v 0.0580500 0.0001400 -0.0107450
v 0.0580500 0.0003600 -0.0107450
v 0.0579972 0.0018140 -0.0112350
v 0.0579671 0.0017876 -0.0112350
v 0.0579201 0.0017876 -0.0112350
v 0.0578854 0.0018261 -0.0112350
v 0.0578886 0.0018684 -0.0112350
v 0.0579213 0.0019025 -0.0112350
v 0.0579684 0.0019002 -0.0112350
v 0.0580038 0.0018655 -0.0112350
v 0.0579998 0.0018144 -0.0112450
v 0.0579972 0.0018140 -0.0112350
v 0.0580038 0.0018655 -0.0112350
v 0.0579525 0.0017834 -0.0112450
v 0.0579671 0.0017876 -0.0112350
v 0.0579201 0.0017876 -0.0112350
v 0.0579525 0.0017834 -0.0112450
v 0.0579049 0.0017969 -0.0112450
v 0.0579201 0.0017876 -0.0112350
v 0.0579049 0.0017969 -0.0112450
v 0.0579201 0.0017876 -0.0112350
v 0.0578854 0.0018261 -0.0112350
v 0.0579049 0.0017969 -0.0112450
v 0.0578818 0.0018510 -0.0112450
v 0.0578854 0.0018261 -0.0112350
v 0.0578818 0.0018510 -0.0112450
v 0.0578854 0.0018261 -0.0112350
v 0.0578886 0.0018684 -0.0112350
v 0.0578818 0.0018510 -0.0112450
v 0.0579118 0.0018962 -0.0112450
v 0.0578886 0.0018684 -0.0112350
v 0.0579118 0.0018962 -0.0112450
v 0.0578886 0.0018684 -0.0112350
v 0.0579213 0.0019025 -0.0112350
v 0.0579118 0.0018962 -0.0112450
v 0.0579557 0.0019049 -0.0112450
v 0.0579213 0.0019025 -0.0112350
v 0.0579557 0.0019049 -0.0112450
v 0.0579213 0.0019025 -0.0112350
v 0.0579684 0.0019002 -0.0112350
v 0.0579557 0.0019049 -0.0112450
v 0.0579983 0.0018755 -0.0112450
v 0.0579684 0.0019002 -0.0112350
v 0.0579983 0.0018755 -0.0112450
v 0.0579684 0.0019002 -0.0112350
v 0.0580038 0.0018655 -0.0112350
v 0.0579998 0.0018144 -0.0112450
v 0.0579983 0.0018755 -0.0112450
v 0.0580038 0.0018655 -0.0112350
vn -0.640465 0.767294 -0.032631
vn -0.497438 0.760687 0.417025
vn -0.653308 0.745106 -0.134184
vn -0.519571 0.770132 0.370058
vn -0.994194 0.005136 -0.107482
vn -0.994396 -0.026251 -0.102409
vn -0.994146 -0.027394 -0.104511
vn -0.994411 -0.016261 -0.104318
vn -0.994328 0.000000 -0.106354
vn -0.994520 0.000000 -0.104550
vn -0.994520 0.000000 -0.104550
vn -0.994328 0.000000 -0.106354
vn -0.994328 0.000000 -0.106354
vn -0.994520 0.000000 -0.104550
vn -0.994520 0.000000 -0.104550
vn -0.994262 0.000191 -0.106969
vn -0.994212 0.000000 -0.107436
vn -0.994520 0.000000 -0.104550
vn -0.994520 0.000000 -0.104550
vn -0.994212 0.000000 -0.107436
vn -0.994287 0.015109 -0.105663
vn -0.994210 0.024940 -0.104517
vn -0.994316 0.024451 -0.103623
vn -0.994325 -0.005206 -0.106258
vn 0.010866 -0.000118 -0.999941
vn 0.000109 -0.000569 -1.000000
vn -0.000852 -0.000575 -0.999999
vn -0.001087 0.000072 -0.999999
vn -0.708257 0.515296 -0.482537
vn -0.722113 -0.674256 -0.154699
vn -0.014180 0.994989 -0.098971
vn 0.015677 0.994793 -0.100700
vn -0.701347 -0.614739 -0.360844
vn -0.000581 0.009774 -0.999952
vn -0.001482 0.016229 -0.999867
vn 0.010115 0.002744 -0.999945
vn 0.503427 0.368828 -0.781362
vn 0.694121 0.663526 -0.279157
vn 0.339242 0.853065 -0.396478
vn 0.178598 0.395390 -0.900983
vn -0.396169 0.188494 -0.898621
vn -0.267950 0.602328 -0.751934
vn -0.288737 0.886767 -0.360938
vn 0.395044 -0.000265 -0.918662
vn 0.196941 -0.000469 -0.980415
vn -0.465240 -0.143414 -0.873489
vn -0.761768 -0.410290 -0.501369
vn -0.000825 -0.995051 -0.099360
vn 0.994226 -0.024941 -0.104371
vn 0.931760 -0.161928 -0.324965
vn 0.994431 0.026088 -0.102110
vn 0.994155 0.027354 -0.104437
vn 0.994448 0.016153 -0.103980
vn 0.994361 0.000000 -0.106049
vn 0.994527 0.000000 -0.104476
vn 0.994527 0.000000 -0.104476
vn 0.994361 0.000000 -0.106049
vn 0.994408 0.000178 -0.105611
vn 0.994527 0.000000 -0.104476
vn 0.994527 0.000000 -0.104476
vn 0.994469 0.000000 -0.105035
vn 0.994469 0.000000 -0.105035
vn 0.994527 0.000000 -0.104476
vn 0.994527 0.000000 -0.104476
vn 0.994469 0.000000 -0.105035
vn 0.994561 -0.014591 -0.103126
vn -0.000928 -0.913506 -0.406824
vn 0.693015 -0.707562 -0.138157
vn 0.863789 -0.000187 -0.503853
vn 0.954990 0.002880 -0.296624
vn 0.670308 -0.656714 -0.345564
vn 0.203944 -0.892268 -0.402822
vn 0.661437 -0.440617 -0.606925
vn 0.141353 -0.723832 -0.675342
vn -0.000094 -0.710343 -0.703856
vn -0.000000 0.000081 1.000000
vn 0.000000 0.000081 1.000000
vn 0.000000 0.000000 1.000000
vn 0.000000 0.000000 1.000000
vn 0.000000 0.000000 1.000000
vn 0.000000 0.000000 1.000000
vn 0.000000 0.000000 1.000000
vn 0.000000 0.000000 1.000000
vn 0.000000 -0.000081 1.000000
vn 0.000000 -0.000081 1.000000
vn 0.000000 0.000081 1.000000
vn 0.000000 -0.000081 1.000000
vn 0.000000 -0.000081 1.000000
vn 0.000000 0.000000 1.000000
vn 0.000000 0.000000 1.000000
vn 0.000000 0.000000 1.000000
vn 0.000000 0.000000 1.000000
vn 0.000000 0.000000 1.000000
vn 0.000000 0.000000 1.000000
vn -0.000000 0.000081 1.000000
vn -0.000000 0.000054 1.000000
vn 0.000000 0.000000 1.000000
vn 0.000000 0.000000 1.000000
vn 0.000000 0.000000 1.000000
vn 0.000000 0.000000 1.000000
vn 0.000000 0.000000 1.000000
vn 0.000000 0.000000 1.000000
vn -0.000000 -0.000054 1.000000
vn 0.000000 -0.000054 1.000000
vn 0.000000 0.000000 1.000000
vn 0.000000 0.000000 1.000000
vn 0.000000 0.000000 1.000000
vn 0.000000 0.000000 1.000000
vn 0.000000 0.000000 1.000000
vn 0.000000 0.000000 1.000000
vn 0.000000 0.000054 1.000000
vn 0.000000 0.000000 1.000000
vn 0.000000 0.000000 1.000000
vn 0.000000 0.000000 1.000000
vn 0.000000 0.000000 1.000000
vn 0.000000 -1.000000 0.000000
vn 0.000000 -1.000000 0.000000
vn 0.000000 -1.000000 0.000000
vn 0.000000 -1.000000 0.000000
vn 0.000000 1.000000 0.000000
vn 0.000000 1.000000 0.000000
vn 0.000000 1.000000 0.000000
vn 0.000000 1.000000 0.000000
vn -1.000000 0.000000 0.000000
vn -1.000000 0.000000 0.000000
vn -1.000000 0.000000 0.000000
vn -1.000000 0.000000 0.000000
vn 0.000000 0.000000 1.000000
vn 0.000000 0.000000 1.000000
vn 0.000000 0.000000 1.000000
vn 0.000000 0.000000 1.000000
vn 0.000000 1.000000 0.000000
vn 0.000000 1.000000 0.000000
vn 0.000000 1.000000 0.000000
vn 0.000000 1.000000 0.000000
vn 0.000000 -1.000000 0.000000
vn 0.000000 -1.000000 0.000000
vn 0.000000 -1.000000 0.000000
vn 0.000000 -1.000000 0.000000
vn 1.000000 0.000000 0.000000
vn 1.000000 0.000000 0.000000
vn 1.000000 0.000000 0.000000
vn 1.000000 0.000000 0.000000
vn 0.000000 0.000000 1.000000
vn 0.000000 0.000000 1.000000
vn 0.000000 0.000000 1.000000
vn 0.000000 0.000000 1.000000
vn 0.000000 1.000000 0.000000
vn 0.000000 1.000000 0.000000
vn 0.000000 1.000000 0.000000
vn 0.000000 1.000000 0.000000
vn 0.000000 -1.000000 0.000000
vn 0.000000 -1.000000 0.000000
vn 0.000000 -1.000000 0.000000
vn 0.000000 -1.000000 0.000000
vn 1.000000 0.000000 0.000000
vn 1.000000 0.000000 0.000000
vn 1.000000 0.000000 0.000000
vn 1.000000 0.000000 0.000000
vn 0.000000 0.000000 1.000000
vn 0.000000 0.000000 1.000000
vn 0.000000 0.000000 1.000000
vn 0.000000 0.000000 1.000000
vn -0.000000 -1.000000 -0.000000
vn -0.000000 -1.000000 -0.000000
vn -0.000000 -1.000000 -0.000000
vn -0.000000 -1.000000 0.000000
vn 0.000000 1.000000 0.000000
vn 0.000000 1.000000 0.000000
vn 0.000000 1.000000 0.000000
vn 0.000000 1.000000 0.000000
vn -1.000000 0.000000 0.000000
vn -1.000000 0.000000 0.000000
vn -1.000000 0.000000 0.000000
vn -1.000000 0.000000 0.000000
vn 0.000000 0.000000 1.000000
vn 0.000000 0.000000 1.000000
vn 0.000000 0.000000 1.000000
vn 0.000000 0.000000 1.000000
vn 0.000000 -1.000000 0.000000
vn 0.000000 -1.000000 0.000000
vn 0.000000 -1.000000 0.000000
vn 0.000000 -1.000000 0.000000
vn 0.000001 1.000000 0.000000
vn 0.000001 1.000000 0.000000
vn 0.000001 1.000000 0.000000
vn 0.000001 1.000000 0.000000
vn -1.000000 0.000000 0.000000
vn -1.000000 0.000000 0.000000
vn -1.000000 0.000000 0.000000
vn -1.000000 0.000000 0.000000
vn 0.000000 0.000000 1.000000
vn 0.000000 0.000000 1.000000
vn 0.000000 0.000000 1.000000
vn 0.000000 0.000000 1.000000
vn 0.000000 1.000000 0.000000
vn 0.000000 1.000000 0.000000
vn 0.000000 1.000000 0.000000
vn 0.000000 1.000000 0.000000
vn -0.000001 -1.000000 0.000000
vn -0.000001 -1.000000 0.000000
vn -0.000001 -1.000000 0.000000
vn -0.000001 -1.000000 0.000000
vn 1.000000 0.000000 0.000000
vn 1.000000 0.000000 0.000000
vn 1.000000 0.000000 0.000000
vn 1.000000 0.000000 0.000000
vn 0.000000 0.000000 1.000000
vn 0.000000 0.000000 1.000000
vn 0.000000 0.000000 1.000000
vn 0.000000 0.000000 1.000000
vn -0.000001 -1.000000 -0.000000
vn -0.000001 -1.000000 -0.000000
vn -0.000001 -1.000000 -0.000000
vn -0.000001 -1.000000 0.000000
vn 0.000000 1.000000 0.000000
vn 0.000000 1.000000 0.000000
vn 0.000000 1.000000 0.000000
vn 0.000000 1.000000 0.000000
vn -1.000000 0.000000 0.000000
vn -1.000000 0.000000 0.000000
vn -1.000000 0.000000 0.000000
vn -1.000000 0.000000 0.000000
vn 0.000000 0.000000 1.000000
vn 0.000000 0.000000 1.000000
vn 0.000000 0.000000 1.000000
vn 0.000000 0.000000 1.000000
vn 0.000000 1.000000 0.000000
vn 0.000000 1.000000 0.000000
vn 0.000000 1.000000 0.000000
vn 0.000000 1.000000 0.000000
vn -0.000001 -1.000000 0.000000
vn -0.000001 -1.000000 0.000000
vn -0.000001 -1.000000 0.000000
vn -0.000001 -1.000000 0.000000
vn 1.000000 0.000000 0.000000
vn 1.000000 0.000000 0.000000
vn 1.000000 0.000000 0.000000
vn 1.000000 0.000000 0.000000
vn 0.000000 0.000000 -1.000000
vn 0.000000 0.000000 -1.000000
vn 0.000000 0.000000 -1.000000
vn 0.000000 0.000000 -1.000000
vn 0.000000 0.000000 -1.000000
vn 0.000000 0.000000 -1.000000
vn 0.000000 0.000000 -1.000000
vn 0.000000 0.000000 -1.000000
vn -0.963050 0.122606 -0.239798
vn -0.963050 0.122606 -0.239798
vn -0.963050 0.122606 -0.239798
vn 0.000596 0.923596 -0.383368
vn 0.000596 0.923596 -0.383368
vn 0.000596 0.923596 -0.383368
vn 0.245240 0.866827 0.434129
vn 0.245240 0.866827 0.434129
vn 0.245240 0.866827 0.434129
vn 0.662827 0.597238 -0.451628
vn 0.662827 0.597238 -0.451628
vn 0.662827 0.597238 -0.451628
vn 0.771528 0.329031 0.544503
vn 0.771528 0.329031 0.544503
vn 0.771528 0.329031 0.544503
vn 0.874172 -0.066968 -0.480977
vn 0.874172 -0.066968 -0.480977
vn 0.874172 -0.066968 -0.480977
vn 0.775860 -0.514424 0.365252
vn 0.775860 -0.514424 0.365252
vn 0.775860 -0.514424 0.365252
vn 0.701798 -0.670312 -0.241166
vn 0.701798 -0.670312 -0.241166
vn 0.701798 -0.670312 -0.241166
vn 0.178005 -0.899081 0.399960
vn 0.178005 -0.899081 0.399960
vn 0.178005 -0.899081 0.399960
vn -0.044979 -0.925915 -0.375044
vn -0.044979 -0.925915 -0.375044
vn -0.044979 -0.925915 -0.375044
vn -0.537937 -0.779701 0.320453
vn -0.537937 -0.779701 0.320453
vn -0.537937 -0.779701 0.320453
vn -0.665055 -0.677009 -0.315215
vn -0.665055 -0.677009 -0.315215
vn -0.665055 -0.677009 -0.315215
vn -0.884934 -0.021361 0.465226
vn -0.884934 -0.021361 0.465226
vn -0.884934 -0.021361 0.465226
f 1//1 4//4 3//3
f 2//2 4//4 1//1
f 23//23 5//5 21//21
f 23//23 21//21 22//22
f 21//21 5//5 20//20
f 19//19 20//20 17//17
f 19//19 17//17 18//18
f 5//5 24//24 16//16
f 5//5 16//16 17//17
f 15//15 16//16 13//13
f 20//20 5//5 17//17
f 16//16 24//24 13//13
f 13//13 24//24 12//12
f 11//11 12//12 9//9
f 11//11 9//9 10//10
f 12//12 24//24 9//9
f 9//9 24//24 8//8
f 7//7 8//8 6//6
f 8//8 24//24 6//6
f 15//15 13//13 14//14
f 42//42 39//39 40//40
f 40//40 34//34 41//41
f 40//40 45//45 25//25
f 40//40 25//25 36//36
f 25//25 45//45 26//26
f 40//40 35//35 34//34
f 34//34 28//28 41//41
f 47//47 46//46 33//33
f 40//40 36//36 35//35
f 30//30 47//47 33//33
f 41//41 42//42 40//40
f 46//46 29//29 41//41
f 40//40 37//37 45//45
f 37//37 44//44 45//45
f 43//43 42//42 29//29
f 29//29 42//42 41//41
f 39//39 37//37 40//40
f 39//39 38//38 37//37
f 31//31 43//43 29//29
f 26//26 45//45 27//27
f 42//42 43//43 39//39
f 46//46 47//47 29//29
f 28//28 27//27 41//41
f 32//32 38//38 39//39
f 27//27 46//46 41//41
f 27//27 45//45 46//46
f 43//43 32//32 39//39
f 43//43 31//31 32//32
f 62//62 65//65 50//50
f 61//61 62//62 50//50
f 58//58 59//59 60//60
f 58//58 60//60 61//61
f 58//58 61//61 50//50
f 73//73 71//71 72//72
f 74//74 73//73 72//72
f 73//73 50//50 71//71
f 54//54 55//55 56//56
f 72//72 67//67 75//75
f 74//74 72//72 75//75
f 69//69 70//70 73//73
f 70//70 50//50 73//73
f 68//68 71//71 50//50
f 70//70 57//57 58//58
f 62//62 64//64 65//65
f 62//62 63//63 64//64
f 50//50 66//66 68//68
f 50//50 65//65 66//66
f 54//54 56//56 57//57
f 66//66 49//49 68//68
f 51//51 52//52 53//53
f 70//70 53//53 54//54
f 71//71 68//68 72//72
f 70//70 54//54 57//57
f 70//70 58//58 50//50
f 70//70 51//51 53//53
f 48//48 67//67 72//72
f 48//48 72//72 68//68
f 87//87 85//85 104//104
f 103//103 105//105 102//102
f 87//87 103//103 88//88
f 87//87 104//104 103//103
f 103//103 104//104 105//105
f 102//102 105//105 106//106
f 89//89 101//101 90//90
f 111//111 77//77 76//76
f 109//109 79//79 78//78
f 109//109 78//78 110//110
f 107//107 80//80 108//108
f 96//96 76//76 95//95
f 96//96 111//111 76//76
f 86//86 96//96 95//95
f 97//97 111//111 96//96
f 97//97 110//110 111//111
f 105//105 83//83 82//82
f 105//105 82//82 106//106
f 98//98 110//110 97//97
f 98//98 109//109 110//110
f 93//93 97//97 94//94
f 93//93 98//98 97//97
f 99//99 109//109 98//98
f 99//99 108//108 109//109
f 85//85 84//84 104//104
f 100//100 108//108 99//99
f 100//100 107//107 108//108
f 91//91 99//99 92//92
f 91//91 100//100 99//99
f 101//101 106//106 107//107
f 101//101 107//107 100//100
f 102//102 106//106 101//101
f 89//89 102//102 101//101
f 107//107 81//81 80//80
f 113//113 112//112 115//115
f 113//113 115//115 114//114
f 119//119 118//118 116//116
f 116//116 118//118 117//117
f 121//121 122//122 123//123
f 121//121 120//120 122//122
f 126//126 127//127 125//125
f 126//126 125//125 124//124
f 131//131 129//129 128//128
f 131//131 130//130 129//129
f 134//134 133//133 132//132
f 134//134 132//132 135//135
f 137//137 136//136 138//138
f 139//139 137//137 138//138
f 141//141 142//142 143//143
f 141//141 140//140 142//142
f 147//147 145//145 144//144
f 147//147 146//146 145//145
f 150//150 149//149 148//148
f 150//150 148//148 151//151
f 153//153 152//152 154//154
f 155//155 153//153 154//154
f 157//157 156//156 158//158
f 157//157 158//158 159//159
f 161//161 163//163 162//162
f 161//161 160//160 163//163
f 164//164 166//166 165//165
f 167//167 166//166 164//164
f 169//169 170//170 171//171
f 169//169 168//168 170//170
f 174//174 175//175 173//173
f 174//174 173//173 172//172
f 177//177 179//179 178//178
f 177//177 176//176 179//179
f 180//180 182//182 181//181
f 183//183 182//182 180//180
f 185//185 186//186 187//187
f 185//185 184//184 186//186
f 190//190 191//191 189//189
f 190//190 189//189 188//188
f 195//195 193//193 192//192
f 195//195 194//194 193//193
f 198//198 197//197 196//196
f 198//198 196//196 199//199
f 201//201 200//200 202//202
f 203//203 201//201 202//202
f 205//205 204//204 206//206
f 205//205 206//206 207//207
f 209//209 211//211 210//210
f 209//209 208//208 211//211
f 215//215 214//214 212//212
f 212//212 214//214 213//213
f 217//217 218//218 219//219
f 217//217 216//216 218//218
f 222//222 223//223 221//221
f 222//222 221//221 220//220
f 227//227 226//226 225//225
f 227//227 225//225 224//224
f 230//230 228//228 229//229
f 230//230 229//229 231//231
f 233//233 232//232 234//234
f 235//235 233//233 234//234
f 237//237 238//238 239//239
f 237//237 236//236 238//238
f 245//245 241//241 242//242
f 245//245 243//243 244//244
f 245//245 246//246 247//247
f 245//245 247//247 240//240
f 245//245 240//240 241//241
f 245//245 242//242 243//243
f 248//248 249//249 250//250
f 251//251 253//253 252//252
f 255//255 256//256 254//254
f 257//257 259//259 258//258
f 261//261 262//262 260//260
f 263//263 265//265 264//264
f 267//267 268//268 266//266
f 269//269 271//271 270//270
f 273//273 274//274 272//272
f 275//275 277//277 276//276
f 279//279 280//280 278//278
f 281//281 283//283 282//282
f 284//284 286//286 285//285
v 0.0547500 -0.0002000 -0.0109600
v 0.0547500 -0.0008000 -0.0109600
v 0.0547500 -0.0002000 -0.0109950
v 0.0547500 -0.0008000 -0.0109950
v 0.0547500 -0.0002000 -0.0109600
v 0.0547500 -0.0002000 -0.0109950
v 0.0542500 -0.0002000 -0.0109600
v 0.0542500 -0.0002000 -0.0109950
v 0.0542500 -0.0002000 -0.0109600
v 0.0542500 -0.0002000 -0.0109950
v 0.0542500 -0.0008000 -0.0109600
v 0.0542500 -0.0008000 -0.0109950
v 0.0547500 -0.0008000 -0.0109600
v 0.0547500 -0.0008000 -0.0109950
v 0.0542500 -0.0008000 -0.0109600
v 0.0542500 -0.0008000 -0.0109950
v 0.0547500 -0.0002000 -0.0109950
v 0.0547500 -0.0008000 -0.0109950
v 0.0542500 -0.0002000 -0.0109950
v 0.0542500 -0.0008000 -0.0109950
vn 1.000000 0.000000 0.000213
vn 1.000000 0.000000 0.000213
vn 1.000000 0.000000 0.000213
vn 1.000000 0.000000 0.000213
vn 0.000000 1.000000 -0.000001
vn 0.000000 1.000000 -0.000001
vn 0.000000 1.000000 -0.000001
vn 0.000000 1.000000 -0.000001
vn -1.000000 0.000000 0.000000
vn -1.000000 0.000000 0.000000
vn -1.000000 0.000000 0.000000
vn -1.000000 0.000000 0.000000
vn 0.000000 -1.000000 0.000000
vn 0.000000 -1.000000 0.000000
vn 0.000000 -1.000000 0.000000
vn 0.000000 -1.000000 0.000000
vn 0.000000 0.000000 -1.000000
vn 0.000000 0.000000 -1.000000
vn 0.000000 0.000000 -1.000000
vn 0.000000 0.000000 -1.000000
f 290//290 287//287 288//288
f 290//290 289//289 287//287
f 292//292 293//293 291//291
f 292//292 294//294 293//293
f 298//298 297//297 295//295
f 298//298 295//295 296//296
f 300//300 299//299 301//301
f 300//300 301//301 302//302
f 306//306 305//305 303//303
f 306//306 303//303 304//304
v 0.0578000 0.0032500 -0.0109600
v 0.0572000 0.0032500 -0.0109600
v 0.0578000 0.0032500 -0.0109950
v 0.0572000 0.0032500 -0.0109950
v 0.0578000 0.0032500 -0.0109600
v 0.0578000 0.0032500 -0.0109950
v 0.0578000 0.0037500 -0.0109600
v 0.0578000 0.0037500 -0.0109950
v 0.0578000 0.0037500 -0.0109600
v 0.0578000 0.0037500 -0.0109950
v 0.0572000 0.0037500 -0.0109600
v 0.0572000 0.0037500 -0.0109950
v 0.0572000 0.0032500 -0.0109600
v 0.0572000 0.0032500 -0.0109950
v 0.0572000 0.0037500 -0.0109600
v 0.0572000 0.0037500 -0.0109950
v 0.0578000 0.0032500 -0.0109950
v 0.0572000 0.0032500 -0.0109950
v 0.0578000 0.0037500 -0.0109950
v 0.0572000 0.0037500 -0.0109950
vn -0.000000 -1.000000 -0.000000
vn -0.000000 -1.000000 -0.000000
vn -0.000000 -1.000000 0.000000
vn -0.000000 -1.000000 -0.000000
vn 1.000000 0.000000 0.000000
vn 1.000000 0.000000 0.000000
vn 1.000000 0.000000 0.000000
vn 1.000000 0.000000 0.000000
vn 0.000000 1.000000 0.000000
vn 0.000000 1.000000 0.000000
vn 0.000000 1.000000 0.000000
vn 0.000000 1.000000 0.000000
vn -1.000000 0.000000 -0.000213
vn -1.000000 0.000000 -0.000213
vn -1.000000 0.000000 -0.000213
vn -1.000000 0.000000 -0.000213
vn 0.000000 0.000000 -1.000000
vn 0.000000 0.000000 -1.000000
vn 0.000000 0.000000 -1.000000
vn 0.000000 0.000000 -1.000000
f 310//310 307//307 308//308
f 310//310 309//309 307//307
f 312//312 313//313 311//311
f 312//312 314//314 313//313
f 318//318 317//317 315//315
f 318//318 315//315 316//316
f 320//320 319//319 321//321
f 320//320 321//321 322//322
f 326//326 325//325 323//323
f 326//326 323//323 324//324
v 0.0555500 0.0032500 -0.0109600
v 0.0549500 0.0032500 -0.0109600
v 0.0555500 0.0032500 -0.0109950
v 0.0549500 0.0032500 -0.0109950
v 0.0555500 0.0032500 -0.0109600
v 0.0555500 0.0032500 -0.0109950
v 0.0555500 0.0037500 -0.0109600
v 0.0555500 0.0037500 -0.0109950
v 0.0555500 0.0037500 -0.0109600
v 0.0555500 0.0037500 -0.0109950
v 0.0549500 0.0037500 -0.0109600
v 0.0549500 0.0037500 -0.0109950
v 0.0549500 0.0032500 -0.0109600
v 0.0549500 0.0032500 -0.0109950
v 0.0549500 0.0037500 -0.0109600
v 0.0549500 0.0037500 -0.0109950
v 0.0555500 0.0032500 -0.0109950
v 0.0549500 0.0032500 -0.0109950
v 0.0555500 0.0037500 -0.0109950
v 0.0549500 0.0037500 -0.0109950
vn 0.000000 -1.000000 0.000000
vn 0.000000 -1.000000 0.000000
vn 0.000000 -1.000000 0.000000
vn 0.000000 -1.000000 0.000000
vn 1.000000 0.000000 0.000213
vn 1.000000 0.000000 0.000213
vn 1.000000 0.000000 0.000213
vn 1.000000 0.000000 0.000213
vn 0.000000 1.000000 0.000000
vn 0.000000 1.000000 0.000000
vn 0.000000 1.000000 0.000000
vn 0.000000 1.000000 0.000000
vn -1.000000 0.000000 0.000000
vn -1.000000 0.000000 0.000000
vn -1.000000 0.000000 0.000000
vn -1.000000 0.000000 0.000000
vn 0.000000 0.000000 -1.000000
vn 0.000000 0.000000 -1.000000
vn 0.000000 0.000000 -1.000000
vn 0.000000 0.000000 -1.000000
f 330//330 327//327 328//328
f 330//330 329//329 327//327
f 332//332 333//333 331//331
f 332//332 334//334 333//333
f 338//338 337//337 335//335
f 338//338 335//335 336//336
f 340//340 339//339 341//341
f 340//340 341//341 342//342
f 346//346 345//345 343//343
f 346//346 343//343 344//344
v 0.0577500 0.0049500 -0.0109600
v 0.0577500 0.0055500 -0.0109600
v 0.0577500 0.0049500 -0.0109950
v 0.0577500 0.0055500 -0.0109950
v 0.0577500 0.0049500 -0.0109600
v 0.0577500 0.0049500 -0.0109950
v 0.0582500 0.0049500 -0.0109600
v 0.0582500 0.0049500 -0.0109950
v 0.0582500 0.0049500 -0.0109600
v 0.0582500 0.0049500 -0.0109950
v 0.0582500 0.0055500 -0.0109600
v 0.0582500 0.0055500 -0.0109950
v 0.0577500 0.0055500 -0.0109600
v 0.0577500 0.0055500 -0.0109950
v 0.0582500 0.0055500 -0.0109600
v 0.0582500 0.0055500 -0.0109950
v 0.0577500 0.0049500 -0.0109950
v 0.0577500 0.0055500 -0.0109950
v 0.0582500 0.0049500 -0.0109950
v 0.0582500 0.0055500 -0.0109950
vn -1.000000 0.000000 -0.000213
vn -1.000000 0.000000 -0.000213
vn -1.000000 0.000000 -0.000213
vn -1.000000 0.000000 -0.000213
vn 0.000000 -1.000000 0.000000
vn 0.000000 -1.000000 0.000000
vn 0.000000 -1.000000 0.000000
vn 0.000000 -1.000000 0.000000
vn 1.000000 0.000000 0.000000
vn 1.000000 0.000000 0.000000
vn 1.000000 0.000000 0.000000
vn 1.000000 0.000000 0.000000
vn 0.000000 1.000000 0.000000
vn 0.000000 1.000000 0.000000
vn 0.000000 1.000000 0.000000
vn 0.000000 1.000000 0.000000
vn 0.000000 0.000000 -1.000000
vn 0.000000 0.000000 -1.000000
vn 0.000000 0.000000 -1.000000
vn 0.000000 0.000000 -1.000000
f 350//350 347//347 348//348
f 350//350 349//349 347//347
f 352//352 353//353 351//351
f 352//352 354//354 353//353
f 358//358 357//357 355//355
f 358//358 355//355 356//356
f 360//360 359//359 361//361
f 360//360 361//361 362//362
f 366//366 365//365 363//363
f 366//366 363//363 364//364
v 0.0547500 0.0020500 -0.0109600
v 0.0547500 0.0014500 -0.0109600
v 0.0547500 0.0020500 -0.0109950
v 0.0547500 0.0014500 -0.0109950
v 0.0547500 0.0020500 -0.0109600
v 0.0547500 0.0020500 -0.0109950
v 0.0542500 0.0020500 -0.0109600
v 0.0542500 0.0020500 -0.0109950
v 0.0542500 0.0020500 -0.0109600
v 0.0542500 0.0020500 -0.0109950
v 0.0542500 0.0014500 -0.0109600
v 0.0542500 0.0014500 -0.0109950
v 0.0547500 0.0014500 -0.0109600
v 0.0547500 0.0014500 -0.0109950
v 0.0542500 0.0014500 -0.0109600
v 0.0542500 0.0014500 -0.0109950
v 0.0547500 0.0020500 -0.0109950
v 0.0547500 0.0014500 -0.0109950
v 0.0542500 0.0020500 -0.0109950
v 0.0542500 0.0014500 -0.0109950
vn 1.000000 0.000000 0.000213
vn 1.000000 0.000000 0.000213
vn 1.000000 0.000000 0.000213
vn 1.000000 0.000000 0.000213
vn 0.000000 1.000000 0.000000
vn 0.000000 1.000000 0.000000
vn 0.000000 1.000000 0.000000
vn 0.000000 1.000000 0.000000
vn -1.000000 0.000000 0.000000
vn -1.000000 0.000000 0.000000
vn -1.000000 0.000000 0.000000
vn -1.000000 0.000000 0.000000
vn 0.000000 -1.000000 0.000000
vn 0.000000 -1.000000 0.000000
vn 0.000000 -1.000000 0.000000
vn 0.000000 -1.000000 0.000000
vn 0.000000 0.000000 -1.000000
vn 0.000000 0.000000 -1.000000
vn 0.000000 0.000000 -1.000000
vn 0.000000 0.000000 -1.000000
f 370//370 367//367 368//368
f 370//370 369//369 367//367
f 372//372 373//373 371//371
f 372//372 374//374 373//373
f 378//378 377//377 375//375
f 378//378 375//375 376//376
f 380//380 379//379 381//381
f 380//380 381//381 382//382
f 386//386 385//385 383//383
f 386//386 383//383 384//384
v 0.0595000 0.0043000 -0.0109600
v 0.0595000 0.0037000 -0.0109600
v 0.0595000 0.0043000 -0.0109950
v 0.0595000 0.0037000 -0.0109950
v 0.0595000 0.0043000 -0.0109600
v 0.0595000 0.0043000 -0.0109950
v 0.0590000 0.0043000 -0.0109600
v 0.0590000 0.0043000 -0.0109950
v 0.0590000 0.0043000 -0.0109600
v 0.0590000 0.0043000 -0.0109950
v 0.0590000 0.0037000 -0.0109600
v 0.0590000 0.0037000 -0.0109950
v 0.0595000 0.0037000 -0.0109600
v 0.0595000 0.0037000 -0.0109950
v 0.0590000 0.0037000 -0.0109600
v 0.0590000 0.0037000 -0.0109950
v 0.0595000 0.0043000 -0.0109950
v 0.0595000 0.0037000 -0.0109950
v 0.0590000 0.0043000 -0.0109950
v 0.0590000 0.0037000 -0.0109950
vn 1.000000 0.000000 0.000000
vn 1.000000 0.000000 0.000000
vn 1.000000 0.000000 0.000000
vn 1.000000 0.000000 0.000000
vn 0.000000 1.000000 0.000000
vn 0.000000 1.000000 0.000000
vn 0.000000 1.000000 0.000000
vn 0.000000 1.000000 0.000000
vn -1.000000 0.000000 0.000000
vn -1.000000 0.000000 0.000000
vn -1.000000 0.000000 0.000000
vn -1.000000 0.000000 0.000000
vn 0.000000 -1.000000 0.000000
vn 0.000000 -1.000000 0.000000
vn 0.000000 -1.000000 0.000000
vn 0.000000 -1.000000 0.000000
vn 0.000000 0.000000 -1.000000
vn 0.000000 0.000000 -1.000000
vn 0.000000 0.000000 -1.000000
vn 0.000000 0.000000 -1.000000
f 390//390 387//387 388//388
f 390//390 389//389 387//387
f 392//392 393//393 391//391
f 392//392 394//394 393//393
f 398//398 397//397 395//395
f 398//398 395//395 396//396
f 400//400 399//399 401//401
f 400//400 401//401 402//402
f 406//406 405//405 403//403
f 406//406 403//403 404//404
