# OMX visual mesh; coordinates in metres
mtllib materials.mtl
usemtl bearing_recess
v -0.0133256 0.0107242 0.0570000
v -0.0146481 0.0103888 0.0540000
v -0.0158716 0.0099054 0.0570000
v -0.0173752 0.0090630 0.0540000
v -0.0179931 0.0085853 0.0570000
v -0.0197423 0.0068947 0.0540000
v -0.0197760 0.0068398 0.0570000
v -0.0212557 0.0044000 0.0570000
v -0.0213780 0.0041327 0.0540000
v -0.0220874 0.0014850 0.0570000
v -0.0220869 0.0013698 0.0540000
v -0.0221257 -0.0009473 0.0540000
v -0.0220089 -0.0020804 0.0570000
v -0.0215382 -0.0037430 0.0540000
v -0.0207520 -0.0054193 0.0570000
v -0.0198930 -0.0067048 0.0540000
v -0.0188925 -0.0078145 0.0570000
v -0.0179931 -0.0085853 0.0540000
v -0.0169098 -0.0093351 0.0570000
v -0.0158716 -0.0099054 0.0540000
v -0.0146481 -0.0103888 0.0570000
v -0.0133256 -0.0107242 0.0540000
v -0.0118435 -0.0109143 0.0570000
v -0.0106565 -0.0109143 0.0540000
v -0.0091744 -0.0107242 0.0570000
v -0.0075070 -0.0102882 0.0540000
v -0.0062997 -0.0097648 0.0570000
v -0.0041086 -0.0083263 0.0540000
v -0.0038243 -0.0080109 0.0570000
v -0.0020946 -0.0059711 0.0570000
v -0.0019443 -0.0057202 0.0540000
v -0.0006805 -0.0028926 0.0570000
v -0.0008885 -0.0034576 0.0540000
v -0.0003311 -0.0006578 0.0540000
v -0.0003311 0.0006578 0.0570000
v -0.0006805 0.0028926 0.0540000
v -0.0011038 0.0041394 0.0570000
v -0.0020946 0.0059711 0.0540000
v -0.0027706 0.0068858 0.0570000
v -0.0038243 0.0080109 0.0540000
v -0.0049718 0.0089689 0.0570000
v -0.0062997 0.0097648 0.0540000
v -0.0078519 0.0103888 0.0570000
v -0.0091744 0.0107242 0.0540000
v -0.0106565 0.0109143 0.0570000
v -0.0118435 0.0109143 0.0540000
v -0.0146481 0.0103888 0.0540000
v -0.0173752 0.0090630 0.0540000
v -0.0197423 0.0068947 0.0540000
v -0.0213780 0.0041327 0.0540000
v -0.0220869 0.0013698 0.0540000
v -0.0221257 -0.0009473 0.0540000
v -0.0215382 -0.0037430 0.0540000
v -0.0198930 -0.0067048 0.0540000
v -0.0179931 -0.0085853 0.0540000
v -0.0158716 -0.0099054 0.0540000
v -0.0133256 -0.0107242 0.0540000
v -0.0106565 -0.0109143 0.0540000
v -0.0075070 -0.0102882 0.0540000
v -0.0041086 -0.0083263 0.0540000
v -0.0019443 -0.0057202 0.0540000
v -0.0008885 -0.0034576 0.0540000
v -0.0003311 -0.0006578 0.0540000
v -0.0006805 0.0028926 0.0540000
v -0.0020946 0.0059711 0.0540000
v -0.0038243 0.0080109 0.0540000
v -0.0062997 0.0097648 0.0540000
v -0.0091744 0.0107242 0.0540000
v -0.0118435 0.0109143 0.0540000
v -0.0140803 0.0124288 0.0540000
v -0.0172079 0.0112895 0.0540000
v -0.0197575 0.0094827 0.0540000
v -0.0218263 0.0071479 0.0540000
v -0.0235161 0.0035734 0.0540000
v -0.0240104 -0.0003503 0.0540000
v -0.0231801 -0.0046407 0.0540000
v -0.0204960 -0.0088529 0.0540000
v -0.0171374 -0.0113156 0.0540000
v -0.0134004 -0.0126058 0.0540000
v -0.0096515 -0.0126464 0.0540000
v -0.0062307 -0.0117487 0.0540000
v -0.0025583 -0.0093799 0.0540000
v 0.0002924 -0.0055350 0.0540000
v 0.0013792 -0.0017291 0.0540000
v 0.0014146 0.0015993 0.0540000
v 0.0006217 0.0046219 0.0540000
v -0.0008347 0.0073805 0.0540000
v -0.0035850 0.0102212 0.0540000
v -0.0074726 0.0122172 0.0540000
v -0.0111841 0.0127469 0.0540000
v -0.0140803 0.0124288 0.0540000
v -0.0172079 0.0112895 0.0540000
v -0.0197575 0.0094827 0.0540000
v -0.0218263 0.0071479 0.0540000
v -0.0235161 0.0035734 0.0540000
v -0.0240104 -0.0003503 0.0540000
v -0.0231801 -0.0046407 0.0540000
v -0.0204960 -0.0088529 0.0540000
v -0.0171374 -0.0113156 0.0540000
v -0.0134004 -0.0126058 0.0540000
v -0.0096515 -0.0126464 0.0540000
v -0.0062307 -0.0117487 0.0540000
v -0.0025583 -0.0093799 0.0540000
v 0.0002924 -0.0055350 0.0540000
v 0.0013792 -0.0017291 0.0540000
v 0.0014146 0.0015993 0.0540000
v 0.0006217 0.0046219 0.0540000
v -0.0008347 0.0073805 0.0540000
v -0.0035850 0.0102212 0.0540000
v -0.0074726 0.0122172 0.0540000
v -0.0111841 0.0127469 0.0540000
v -0.0142087 0.0123989 0.0570000
v -0.0171374 0.0113156 0.0570000
v -0.0193762 0.0098033 0.0570000
v -0.0211453 0.0080356 0.0570000
v -0.0228093 0.0053933 0.0570000
v -0.0239747 0.0013948 0.0570000
v -0.0237391 -0.0025514 0.0570000
v -0.0227522 -0.0055140 0.0570000
v -0.0205366 -0.0087914 0.0570000
v -0.0172079 -0.0112895 0.0570000
v -0.0140803 -0.0124288 0.0570000
v -0.0111841 -0.0127469 0.0570000
v -0.0080859 -0.0123569 0.0570000
v -0.0051831 -0.0112107 0.0570000
v -0.0029588 -0.0096724 0.0570000
v -0.0008347 -0.0073805 0.0570000
v 0.0006217 -0.0046219 0.0570000
v 0.0014146 -0.0015993 0.0570000
v 0.0013792 0.0017291 0.0570000
v 0.0006567 0.0045518 0.0570000
v -0.0006880 0.0071366 0.0570000
v -0.0028841 0.0096417 0.0570000
v -0.0056713 0.0114615 0.0570000
v -0.0084197 0.0124288 0.0570000
v -0.0113159 0.0127469 0.0570000
v -0.0133256 0.0107242 0.0570000
v -0.0158716 0.0099054 0.0570000
v -0.0179931 0.0085853 0.0570000
v -0.0197760 0.0068398 0.0570000
v -0.0212557 0.0044000 0.0570000
v -0.0220874 0.0014850 0.0570000
v -0.0220089 -0.0020804 0.0570000
v -0.0207520 -0.0054193 0.0570000
v -0.0188925 -0.0078145 0.0570000
v -0.0169098 -0.0093351 0.0570000
v -0.0146481 -0.0103888 0.0570000
v -0.0118435 -0.0109143 0.0570000
v -0.0091744 -0.0107242 0.0570000
v -0.0062997 -0.0097648 0.0570000
v -0.0038243 -0.0080109 0.0570000
v -0.0020946 -0.0059711 0.0570000
v -0.0006805 -0.0028926 0.0570000
v -0.0003311 0.0006578 0.0570000
v -0.0011038 0.0041394 0.0570000
v -0.0027706 0.0068858 0.0570000
v -0.0049718 0.0089689 0.0570000
v -0.0078519 0.0103888 0.0570000
v -0.0106565 0.0109143 0.0570000
v -0.0142087 0.0123989 0.0570000
v -0.0171374 0.0113156 0.0570000
v -0.0193762 0.0098033 0.0570000
v -0.0211453 0.0080356 0.0570000
v -0.0228093 0.0053933 0.0570000
v -0.0239747 0.0013948 0.0570000
v -0.0237391 -0.0025514 0.0570000
v -0.0227522 -0.0055140 0.0570000
v -0.0205366 -0.0087914 0.0570000
v -0.0172079 -0.0112895 0.0570000
v -0.0140803 -0.0124288 0.0570000
v -0.0111841 -0.0127469 0.0570000
v -0.0080859 -0.0123569 0.0570000
v -0.0051831 -0.0112107 0.0570000
v -0.0029588 -0.0096724 0.0570000
v -0.0008347 -0.0073805 0.0570000
v 0.0006217 -0.0046219 0.0570000
v 0.0014146 -0.0015993 0.0570000
v 0.0013792 0.0017291 0.0570000
v 0.0006567 0.0045518 0.0570000
v -0.0006880 0.0071366 0.0570000
v -0.0028841 0.0096417 0.0570000
v -0.0056713 0.0114615 0.0570000
v -0.0084197 0.0124288 0.0570000
v -0.0113159 0.0127469 0.0570000
vn 0.189650 -0.981775 -0.012303
vn 0.312053 -0.949943 0.015237
vn 0.421563 -0.906749 -0.009492
vn 0.564051 -0.825623 0.013879
vn 0.623698 -0.781642 -0.006100
vn 0.778169 -0.628007 0.007718
vn 0.784512 -0.620108 -0.002537
vn 0.914322 -0.404967 -0.004063
vn 0.924418 -0.381364 0.003525
vn 0.991134 -0.132483 -0.010093
vn 0.991404 -0.130731 0.005189
vn 0.996605 0.082153 0.005331
vn 0.982431 0.185849 -0.017035
vn 0.937025 0.349105 0.010483
vn 0.871292 0.490542 -0.014817
vn 0.794318 0.607342 0.013931
vn 0.702050 0.711997 -0.013634
vn 0.617957 0.786098 0.013345
vn 0.519819 0.854185 -0.012520
vn 0.422158 0.906440 0.012201
vn 0.306270 0.951862 -0.012542
vn 0.189650 0.981775 0.012303
vn 0.057282 0.998268 -0.013411
vn -0.061161 0.998010 0.015365
vn -0.192892 0.981146 -0.012069
vn -0.346873 0.937724 0.018794
vn -0.456898 0.889508 -0.004537
vn -0.650378 0.759547 0.009870
vn -0.683880 0.729498 -0.011869
vn -0.840586 0.541678 0.000335
vn -0.849794 0.527115 -0.000158
vn -0.963442 0.267722 -0.010246
vn -0.945491 0.325620 0.004223
vn -0.998444 0.054724 0.010698
vn -0.998007 -0.061146 -0.015603
vn -0.965996 -0.258206 0.013485
vn -0.925713 -0.377981 -0.013652
vn -0.841312 -0.540389 0.013164
vn -0.776918 -0.629360 -0.017430
vn -0.678788 -0.734207 0.013640
vn -0.573752 -0.818908 -0.014038
vn -0.450411 -0.892741 0.011995
vn -0.312830 -0.949693 -0.014883
vn -0.193552 -0.980988 0.014128
vn -0.057283 -0.998268 -0.013411
vn 0.057282 -0.998268 0.013411
vn 0.000000 0.000000 -1.000000
vn 0.000000 0.000000 -1.000000
vn 0.000000 0.000000 -1.000000
vn 0.000000 0.000000 -1.000000
vn 0.000000 0.000000 -1.000000
vn 0.000000 0.000000 -1.000000
vn 0.000000 0.000000 -1.000000
vn 0.000000 0.000000 -1.000000
vn 0.000000 0.000000 -1.000000
vn 0.000000 0.000000 -1.000000
vn 0.000000 0.000000 -1.000000
vn 0.000000 0.000000 -1.000000
vn 0.000000 0.000000 -1.000000
vn 0.000000 0.000000 -1.000000
vn 0.000000 0.000000 -1.000000
vn 0.000000 0.000000 -1.000000
vn 0.000000 0.000000 -1.000000
vn 0.000000 0.000000 -1.000000
vn 0.000000 0.000000 -1.000000
vn 0.000000 0.000000 -1.000000
vn 0.000000 0.000000 -1.000000
vn 0.000000 0.000000 -1.000000
vn 0.000000 0.000000 -1.000000
vn 0.000000 0.000000 -1.000000
vn 0.000000 0.000000 -1.000000
vn 0.000000 0.000000 -1.000000
vn 0.000000 0.000000 -1.000000
vn 0.000000 0.000000 -1.000000
vn 0.000000 0.000000 -1.000000
vn 0.000000 0.000000 -1.000000
vn 0.000000 0.000000 -1.000000
vn 0.000000 0.000000 -1.000000
vn 0.000000 0.000000 -1.000000
vn 0.000000 0.000000 -1.000000
vn 0.000000 0.000000 -1.000000
vn 0.000000 0.000000 -1.000000
vn 0.000000 0.000000 -1.000000
vn 0.000000 0.000000 -1.000000
vn 0.000000 0.000000 -1.000000
vn 0.000000 0.000000 -1.000000
vn 0.000000 0.000000 -1.000000
vn 0.000000 0.000000 -1.000000
vn 0.000000 0.000000 -1.000000
vn 0.000000 0.000000 -1.000000
vn -0.226629 0.973978 -0.002628
vn -0.462641 0.886539 -0.003596
vn -0.665753 0.746091 -0.011013
vn -0.832269 0.554185 -0.014387
vn -0.959146 0.282693 -0.011123
vn -0.999138 -0.037258 -0.018311
vn -0.928268 -0.371518 -0.017102
vn -0.724836 -0.688893 -0.006233
vn -0.461946 -0.886903 -0.003152
vn -0.178149 -0.983977 -0.007207
vn 0.122649 -0.992288 -0.017914
vn 0.401556 -0.915701 -0.015614
vn 0.679612 -0.733327 -0.018948
vn 0.902922 -0.429640 -0.011929
vn 0.989028 -0.147633 -0.005277
vn 0.992370 0.123293 -0.000775
vn 0.931218 0.364455 -0.002331
vn 0.813513 0.581528 -0.004779
vn 0.596799 0.802200 -0.017494
vn 0.297999 0.954443 -0.015350
vn 0.011530 0.999903 -0.007788
vn -0.236648 0.971595 0.000893
vn -0.454924 0.890525 0.002954
vn -0.633346 0.773858 0.004153
vn -0.776893 0.629555 0.009886
vn -0.909247 0.416096 0.011562
vn -0.993816 0.110595 0.009910
vn -0.981732 -0.190153 0.006704
vn -0.889545 -0.456837 0.003170
vn -0.726091 -0.687585 0.004279
vn -0.471162 -0.882033 -0.004859
vn -0.244388 -0.969676 0.001792
vn 0.007425 -0.999948 0.007045
vn 0.246536 -0.969086 0.009587
vn 0.484313 -0.874895 -0.000917
vn 0.646371 -0.762930 0.011922
vn 0.812880 -0.582406 -0.005417
vn 0.939930 -0.341366 0.000723
vn 0.991391 -0.130791 -0.006121
vn 0.991018 0.133601 0.005908
vn 0.933644 0.358192 -0.002491
vn 0.829526 0.558448 0.004832
vn 0.661691 0.749748 0.006483
vn 0.444711 0.895673 0.001779
vn 0.210457 0.977569 0.008137
vn -0.005759 0.999981 0.002394
vn 0.000000 0.000000 1.000000
vn 0.000000 0.000000 1.000000
vn 0.000000 0.000000 1.000000
vn 0.000000 0.000000 1.000000
vn 0.000000 0.000000 1.000000
vn 0.000000 0.000000 1.000000
vn 0.000000 0.000000 1.000000
vn 0.000000 0.000000 1.000000
vn 0.000000 0.000000 1.000000
vn 0.000000 0.000000 1.000000
vn 0.000000 0.000000 1.000000
vn 0.000000 0.000000 1.000000
vn 0.000000 0.000000 1.000000
vn 0.000000 0.000000 1.000000
vn 0.000000 0.000000 1.000000
vn 0.000000 0.000000 1.000000
vn 0.000000 0.000000 1.000000
vn 0.000000 0.000000 1.000000
vn 0.000000 0.000000 1.000000
vn 0.000000 0.000000 1.000000
vn 0.000000 0.000000 1.000000
vn 0.000000 0.000000 1.000000
vn 0.000000 0.000000 1.000000
vn 0.000000 0.000000 1.000000
vn 0.000000 0.000000 1.000000
vn 0.000000 0.000000 1.000000
vn 0.000000 0.000000 1.000000
vn 0.000000 0.000000 1.000000
vn 0.000000 0.000000 1.000000
vn 0.000000 0.000000 1.000000
vn 0.000000 0.000000 1.000000
vn 0.000000 0.000000 1.000000
vn 0.000000 0.000000 1.000000
vn 0.000000 0.000000 1.000000
vn 0.000000 0.000000 1.000000
vn 0.000000 0.000000 1.000000
vn 0.000000 0.000000 1.000000
vn 0.000000 0.000000 1.000000
vn 0.000000 0.000000 1.000000
vn 0.000000 0.000000 1.000000
vn 0.000000 0.000000 1.000000
vn 0.000000 0.000000 1.000000
vn 0.000000 0.000000 1.000000
vn 0.000000 0.000000 1.000000
vn 0.000000 0.000000 1.000000
vn 0.000000 0.000000 1.000000
vn 0.000000 0.000000 1.000000
vn 0.000000 0.000000 1.000000
f 45//45 1//1 46//46
f 24//24 25//25 26//26
f 25//25 27//27 26//26
f 26//26 27//27 28//28
f 27//27 29//29 28//28
f 29//29 30//30 28//28
f 28//28 30//30 31//31
f 30//30 32//32 31//31
f 31//31 32//32 33//33
f 32//32 35//35 34//34
f 23//23 25//25 24//24
f 34//34 35//35 36//36
f 36//36 37//37 38//38
f 37//37 39//39 38//38
f 38//38 39//39 40//40
f 39//39 41//41 40//40
f 40//40 41//41 42//42
f 41//41 43//43 42//42
f 42//42 43//43 44//44
f 43//43 45//45 44//44
f 44//44 45//45 46//46
f 35//35 37//37 36//36
f 22//22 23//23 24//24
f 33//33 32//32 34//34
f 20//20 21//21 22//22
f 21//21 23//23 22//22
f 1//1 3//3 2//2
f 2//2 3//3 4//4
f 3//3 5//5 4//4
f 4//4 5//5 6//6
f 5//5 7//7 6//6
f 7//7 8//8 6//6
f 6//6 8//8 9//9
f 8//8 10//10 9//9
f 9//9 10//10 11//11
f 46//46 1//1 2//2
f 10//10 13//13 12//12
f 11//11 10//10 12//12
f 18//18 19//19 20//20
f 17//17 19//19 18//18
f 16//16 17//17 18//18
f 19//19 21//21 20//20
f 14//14 15//15 16//16
f 13//13 15//15 14//14
f 12//12 13//13 14//14
f 15//15 17//17 16//16
f 84//84 63//63 85//85
f 59//59 60//60 81//81
f 81//81 60//60 82//82
f 60//60 61//61 82//82
f 82//82 61//61 83//83
f 61//61 62//62 83//83
f 80//80 59//59 81//81
f 83//83 62//62 84//84
f 62//62 63//63 84//84
f 63//63 64//64 85//85
f 87//87 66//66 88//88
f 64//64 65//65 86//86
f 86//86 65//65 87//87
f 65//65 66//66 87//87
f 66//66 67//67 88//88
f 88//88 67//67 89//89
f 67//67 68//68 89//89
f 89//89 68//68 90//90
f 68//68 69//69 90//90
f 58//58 59//59 80//80
f 85//85 64//64 86//86
f 79//79 58//58 80//80
f 74//74 51//51 75//75
f 56//56 57//57 79//79
f 57//57 58//58 79//79
f 90//90 69//69 70//70
f 69//69 47//47 70//70
f 70//70 47//47 71//71
f 47//47 48//48 71//71
f 71//71 48//48 72//72
f 72//72 49//49 73//73
f 49//49 50//50 73//73
f 73//73 50//50 74//74
f 50//50 51//51 74//74
f 48//48 49//49 72//72
f 51//51 52//52 75//75
f 55//55 56//56 78//78
f 77//77 55//55 78//78
f 54//54 55//55 77//77
f 76//76 54//54 77//77
f 78//78 56//56 79//79
f 75//75 53//53 76//76
f 52//52 53//53 75//75
f 53//53 54//54 76//76
f 105//105 106//106 129//129
f 124//124 102//102 125//125
f 102//102 103//103 125//125
f 125//125 103//103 126//126
f 126//126 103//103 127//127
f 103//103 104//104 127//127
f 127//127 104//104 128//128
f 128//128 104//104 129//129
f 104//104 105//105 129//129
f 129//129 106//106 130//130
f 135//135 111//111 136//136
f 106//106 107//107 131//131
f 107//107 108//108 131//131
f 131//131 108//108 132//132
f 132//132 108//108 133//133
f 108//108 109//109 133//133
f 133//133 109//109 134//134
f 109//109 110//110 134//134
f 134//134 110//110 135//135
f 110//110 111//111 135//135
f 101//101 102//102 124//124
f 130//130 106//106 131//131
f 123//123 101//101 124//124
f 136//136 91//91 112//112
f 122//122 100//100 123//123
f 100//100 101//101 123//123
f 111//111 91//91 136//136
f 91//91 92//92 112//112
f 112//112 92//92 113//113
f 113//113 92//92 114//114
f 92//92 93//93 114//114
f 93//93 94//94 115//115
f 115//115 94//94 116//116
f 94//94 95//95 116//116
f 116//116 95//95 117//117
f 114//114 93//93 115//115
f 117//117 96//96 118//118
f 121//121 100//100 122//122
f 95//95 96//96 117//117
f 98//98 99//99 121//121
f 120//120 98//98 121//121
f 99//99 100//100 121//121
f 97//97 98//98 119//119
f 118//118 97//97 119//119
f 96//96 97//97 118//118
f 119//119 98//98 120//120
f 152//152 176//176 153//153
f 171//171 172//172 149//149
f 149//149 172//172 150//150
f 172//172 173//173 150//150
f 173//173 174//174 150//150
f 150//150 174//174 151//151
f 174//174 175//175 151//151
f 151//151 175//175 152//152
f 175//175 176//176 152//152
f 176//176 177//177 153//153
f 157//157 182//182 158//158
f 177//177 178//178 154//154
f 154//154 178//178 155//155
f 178//178 179//179 155//155
f 179//179 180//180 155//155
f 155//155 180//180 156//156
f 180//180 181//181 156//156
f 156//156 181//181 157//157
f 181//181 182//182 157//157
f 148//148 171//171 149//149
f 182//182 183//183 158//158
f 153//153 177//177 154//154
f 170//170 171//171 148//148
f 142//142 165//165 143//143
f 169//169 170//170 147//147
f 158//158 183//183 159//159
f 159//159 184//184 137//137
f 184//184 160//160 137//137
f 137//137 160//160 138//138
f 160//160 161//161 138//138
f 138//138 161//161 139//139
f 161//161 162//162 139//139
f 162//162 163//163 139//139
f 139//139 163//163 140//140
f 163//163 164//164 140//140
f 140//140 164//164 141//141
f 164//164 165//165 141//141
f 141//141 165//165 142//142
f 165//165 166//166 143//143
f 166//166 167//167 143//143
f 143//143 167//167 144//144
f 167//167 168//168 144//144
f 144//144 168//168 145//145
f 168//168 169//169 145//145
f 145//145 169//169 146//146
f 146//146 169//169 147//147
f 147//147 170//170 148//148
f 183//183 184//184 159//159
