# OMX visual mesh; coordinates in metres
mtllib materials.mtl
usemtl black_electronics
v 0.0254667 -0.0099000 0.0044200
v 0.0216500 -0.0087762 0.0134750
v 0.0248000 -0.0091480 0.0123600
v 0.0263000 -0.0091480 0.0131280
v 0.0216500 -0.0087762 0.0134750
v 0.0263000 -0.0091480 0.0131280
v 0.0248000 -0.0079007 0.0136125
v 0.0263000 -0.0067400 0.0132733
v 0.0207000 -0.0074366 0.0135200
v 0.0295000 -0.0077000 0.0115000
v 0.0248000 -0.0073972 0.0051011
v 0.0259539 -0.0077857 0.0045450
v 0.0207000 -0.0074007 0.0044800
v 0.0248000 -0.0079007 0.0136125
v 0.0207000 -0.0074366 0.0135200
v 0.0248000 -0.0073341 0.0125120
v 0.0254667 -0.0099000 0.0044200
v 0.0248000 -0.0073972 0.0051011
v 0.0248000 -0.0091480 0.0123600
v 0.0248000 -0.0075400 0.0100640
v 0.0248000 -0.0078067 0.0074400
v 0.0248000 -0.0080200 0.0065000
v 0.0248000 -0.0073972 0.0051011
v 0.0248000 -0.0073341 0.0125120
v 0.0248000 -0.0075400 0.0100640
v 0.0248000 -0.0078067 0.0074400
v 0.0248000 -0.0073800 0.0086800
v 0.0248000 -0.0075400 0.0100640
v 0.0248000 -0.0078067 0.0074400
v 0.0248000 -0.0073800 0.0086800
v 0.0208000 -0.0077000 0.0090000
v 0.0259539 -0.0077857 0.0045450
v 0.0207000 -0.0074007 0.0044800
v 0.0263000 -0.0067400 0.0132733
v 0.0207000 -0.0074366 0.0135200
v 0.0263000 -0.0073800 0.0090000
v 0.0263000 -0.0075933 0.0080600
v 0.0254667 -0.0099000 0.0044200
v 0.0259539 -0.0077857 0.0045450
v 0.0263000 -0.0091480 0.0131280
v 0.0263000 -0.0078600 0.0104360
v 0.0263000 -0.0075933 0.0080600
v 0.0263000 -0.0080200 0.0068200
v 0.0263000 -0.0078600 0.0104360
v 0.0263000 -0.0073800 0.0090000
v 0.0263000 -0.0075933 0.0080600
v 0.0295000 -0.0077000 0.0090000
v 0.0259539 -0.0077857 0.0045450
v 0.0263000 -0.0075933 0.0080600
v 0.0263000 -0.0080200 0.0068200
v 0.0295000 -0.0077000 0.0065000
v 0.0216500 -0.0087762 0.0045250
v 0.0254667 -0.0099000 0.0044200
v 0.0248000 -0.0073972 0.0051011
v 0.0216500 -0.0087762 0.0045250
v 0.0248000 -0.0073972 0.0051011
v 0.0259539 -0.0077857 0.0045450
v 0.0216500 -0.0087762 0.0045250
v 0.0254667 -0.0099000 0.0044200
v 0.0259539 -0.0077857 0.0045450
v 0.0216500 -0.0087762 0.0134750
v 0.0248000 -0.0091480 0.0123600
v 0.0248000 -0.0079007 0.0136125
v 0.0248000 -0.0091480 0.0123600
v 0.0248000 -0.0079007 0.0136125
v 0.0248000 -0.0073341 0.0125120
v 0.0248000 -0.0091480 0.0123600
v 0.0248000 -0.0073341 0.0125120
v 0.0208000 -0.0077000 0.0115000
v 0.0248000 -0.0091480 0.0123600
v 0.0248000 -0.0075400 0.0100640
v 0.0208000 -0.0077000 0.0115000
v 0.0248000 -0.0073341 0.0125120
v 0.0248000 -0.0075400 0.0100640
v 0.0208000 -0.0077000 0.0115000
v 0.0248000 -0.0075400 0.0100640
v 0.0248000 -0.0078067 0.0074400
v 0.0208000 -0.0077000 0.0090000
v 0.0248000 -0.0078067 0.0074400
v 0.0248000 -0.0080200 0.0065000
v 0.0208000 -0.0077000 0.0065000
v 0.0248000 -0.0073972 0.0051011
v 0.0248000 -0.0080200 0.0065000
v 0.0208000 -0.0077000 0.0065000
v 0.0248000 -0.0073972 0.0051011
v 0.0248000 -0.0078067 0.0074400
v 0.0208000 -0.0077000 0.0065000
v 0.0263000 -0.0067400 0.0132733
v 0.0263000 -0.0078600 0.0104360
v 0.0263000 -0.0073800 0.0090000
v 0.0263000 -0.0067400 0.0132733
v 0.0263000 -0.0078600 0.0104360
v 0.0295000 -0.0077000 0.0115000
v 0.0263000 -0.0091480 0.0131280
v 0.0263000 -0.0078600 0.0104360
v 0.0295000 -0.0077000 0.0115000
v 0.0263000 -0.0078600 0.0104360
v 0.0263000 -0.0075933 0.0080600
v 0.0295000 -0.0077000 0.0090000
v 0.0259539 -0.0077857 0.0045450
v 0.0263000 -0.0075933 0.0080600
v 0.0295000 -0.0077000 0.0065000
vn -0.046253 -0.994837 0.090338
vn -0.068985 -0.988477 0.134735
vn -0.058604 -0.991698 0.114460
vn -0.054339 -0.992867 0.106129
vn 0.045715 -0.313448 0.948504
vn 0.312488 -0.117178 0.942667
vn 0.083290 -0.020539 0.996314
vn 0.317450 0.009230 0.948230
vn 0.008836 0.269916 0.962843
vn 0.471794 -0.053117 0.880107
vn -0.039325 -0.957672 0.285162
vn -0.070319 -0.880320 0.469139
vn -0.005731 -0.999039 0.043446
vn -0.089958 -0.885477 -0.455892
vn -0.001441 -0.996703 -0.081123
vn -0.023518 -0.980462 -0.195299
vn -0.968412 -0.244687 -0.048025
vn -0.967808 -0.229932 -0.102370
vn -0.991791 -0.104738 -0.073354
vn -0.988816 -0.136698 -0.059639
vn -0.931803 -0.360283 0.044038
vn -0.929055 -0.368274 0.035090
vn -1.000000 0.000000 0.000000
vn -1.000000 0.000000 0.000000
vn -1.000000 0.000000 0.000000
vn -1.000000 0.000000 0.000000
vn -1.000000 0.000000 0.000000
vn -0.070110 0.990940 0.114558
vn -0.101156 0.940737 -0.323699
vn -0.088507 0.989159 -0.117179
vn -0.087025 0.991544 -0.096268
vn 0.109448 0.986356 -0.122974
vn 0.002367 0.997073 -0.076421
vn -0.037622 0.998444 -0.041171
vn -0.123263 0.992366 0.003939
vn 0.613388 0.780800 -0.118767
vn 0.862636 0.493282 -0.111949
vn 0.960609 -0.257434 -0.104678
vn 0.962696 -0.211877 -0.168298
vn 0.983596 -0.172453 -0.052902
vn 1.000000 0.000000 0.000000
vn 0.963676 -0.264453 -0.037326
vn 0.834108 -0.536004 0.130248
vn 0.094418 0.944182 0.315605
vn 0.099386 0.993860 0.048621
vn 0.097060 0.970597 -0.220275
vn 0.098935 0.989347 0.106788
vn 0.087428 -0.989487 -0.115202
vn 0.126083 -0.938042 0.322771
vn 0.109597 -0.988107 0.107856
vn 0.104669 -0.993061 0.053620
vn -0.054796 -0.275754 0.959665
vn -0.054796 -0.275754 0.959665
vn -0.054796 -0.275754 0.959665
vn -0.144831 0.644486 -0.750774
vn -0.144831 0.644486 -0.750774
vn -0.144831 0.644486 -0.750774
vn -0.009442 0.061180 -0.998082
vn -0.009442 0.061180 -0.998082
vn -0.009442 0.061180 -0.998082
vn -0.163887 0.698995 -0.696094
vn -0.163887 0.698995 -0.696094
vn -0.163887 0.698995 -0.696094
vn -1.000000 0.000000 0.000000
vn -1.000000 0.000000 0.000000
vn -1.000000 0.000000 0.000000
vn -0.237486 -0.081120 0.967998
vn -0.237486 -0.081120 0.967998
vn -0.237486 -0.081120 0.967998
vn -0.170636 -0.807083 -0.565243
vn -0.170636 -0.807083 -0.565243
vn -0.170636 -0.807083 -0.565243
vn -0.069774 0.994054 -0.083600
vn -0.069774 0.994054 -0.083600
vn -0.069774 0.994054 -0.083600
vn 0.012900 -0.994793 0.101097
vn 0.012900 -0.994793 0.101097
vn 0.012900 -0.994793 0.101097
vn -0.077780 -0.972247 0.220650
vn -0.077780 -0.972247 0.220650
vn -0.077780 -0.972247 0.220650
vn -0.072889 -0.911118 -0.405649
vn -0.072889 -0.911118 -0.405649
vn -0.072889 -0.911118 -0.405649
vn -0.014258 0.984918 0.172434
vn -0.014258 0.984918 0.172434
vn -0.014258 0.984918 0.172434
vn 1.000000 0.000000 0.000000
vn 1.000000 0.000000 0.000000
vn 1.000000 0.000000 0.000000
vn 0.075359 0.927510 -0.366123
vn 0.075359 0.927510 -0.366123
vn 0.075359 0.927510 -0.366123
vn 0.185340 -0.886437 -0.424120
vn 0.185340 -0.886437 -0.424120
vn 0.185340 -0.886437 -0.424120
vn -0.000362 -0.993761 -0.111533
vn -0.000362 -0.993761 -0.111533
vn -0.000362 -0.993761 -0.111533
vn 0.006337 0.998451 -0.055271
vn 0.006337 0.998451 -0.055271
vn 0.006337 0.998451 -0.055271
f 2//2 3//3 4//4
f 1//1 4//4 3//3
f 8//8 7//7 6//6
f 5//5 6//6 7//7
f 9//9 7//7 8//8
f 8//8 6//6 10//10
f 14//14 15//15 16//16
f 12//12 11//11 13//13
f 15//15 13//13 11//11
f 15//15 11//11 16//16
f 17//17 20//20 21//21
f 17//17 19//19 20//20
f 22//22 17//17 21//21
f 18//18 17//17 22//22
f 23//23 26//26 27//27
f 24//24 23//23 27//27
f 24//24 27//27 25//25
f 29//29 31//31 30//30
f 30//30 31//31 28//28
f 34//34 36//36 32//32
f 36//36 37//37 32//32
f 34//34 32//32 33//33
f 34//34 33//33 35//35
f 42//42 38//38 43//43
f 40//40 42//42 41//41
f 40//40 38//38 42//42
f 43//43 38//38 39//39
f 45//45 44//44 47//47
f 47//47 46//46 45//45
f 49//49 50//50 51//51
f 50//50 48//48 51//51
f 52//52 53//53 54//54
f 57//57 55//55 56//56
f 58//58 60//60 59//59
f 62//62 61//61 63//63
f 66//66 64//64 65//65
f 69//69 67//67 68//68
f 70//70 72//72 71//71
f 74//74 75//75 73//73
f 78//78 77//77 76//76
f 81//81 80//80 79//79
f 83//83 84//84 82//82
f 85//85 87//87 86//86
f 88//88 89//89 90//90
f 93//93 92//92 91//91
f 94//94 95//95 96//96
f 97//97 98//98 99//99
f 102//102 100//100 101//101
v 0.0254667 0.0099000 0.0135800
v 0.0216500 0.0087762 0.0045250
v 0.0248000 0.0091480 0.0056400
v 0.0263000 0.0091480 0.0048720
v 0.0216500 0.0087762 0.0045250
v 0.0263000 0.0091480 0.0048720
v 0.0248000 0.0079007 0.0043875
v 0.0263000 0.0067400 0.0047267
v 0.0207000 0.0074366 0.0044800
v 0.0295000 0.0077000 0.0065000
v 0.0248000 0.0073972 0.0128989
v 0.0259539 0.0077857 0.0134550
v 0.0207000 0.0074007 0.0135200
v 0.0248000 0.0079007 0.0043875
v 0.0207000 0.0074366 0.0044800
v 0.0248000 0.0073341 0.0054880
v 0.0254667 0.0099000 0.0135800
v 0.0248000 0.0073972 0.0128989
v 0.0248000 0.0091480 0.0056400
v 0.0248000 0.0075400 0.0079360
v 0.0248000 0.0078067 0.0105600
v 0.0248000 0.0080200 0.0115000
v 0.0248000 0.0073972 0.0128989
v 0.0248000 0.0073341 0.0054880
v 0.0248000 0.0075400 0.0079360
v 0.0248000 0.0078067 0.0105600
v 0.0248000 0.0073800 0.0093200
v 0.0248000 0.0075400 0.0079360
v 0.0248000 0.0078067 0.0105600
v 0.0248000 0.0073800 0.0093200
v 0.0208000 0.0077000 0.0090000
v 0.0259539 0.0077857 0.0134550
v 0.0207000 0.0074007 0.0135200
v 0.0263000 0.0067400 0.0047267
v 0.0207000 0.0074366 0.0044800
v 0.0263000 0.0073800 0.0090000
v 0.0263000 0.0075933 0.0099400
v 0.0254667 0.0099000 0.0135800
v 0.0259539 0.0077857 0.0134550
v 0.0263000 0.0091480 0.0048720
v 0.0263000 0.0078600 0.0075640
v 0.0263000 0.0075933 0.0099400
v 0.0263000 0.0080200 0.0111800
v 0.0263000 0.0078600 0.0075640
v 0.0263000 0.0073800 0.0090000
v 0.0263000 0.0075933 0.0099400
v 0.0295000 0.0077000 0.0090000
v 0.0259539 0.0077857 0.0134550
v 0.0263000 0.0075933 0.0099400
v 0.0263000 0.0080200 0.0111800
v 0.0295000 0.0077000 0.0115000
v 0.0216500 0.0087762 0.0134750
v 0.0254667 0.0099000 0.0135800
v 0.0248000 0.0073972 0.0128989
v 0.0216500 0.0087762 0.0134750
v 0.0248000 0.0073972 0.0128989
v 0.0259539 0.0077857 0.0134550
v 0.0216500 0.0087762 0.0134750
v 0.0254667 0.0099000 0.0135800
v 0.0259539 0.0077857 0.0134550
v 0.0216500 0.0087762 0.0045250
v 0.0248000 0.0091480 0.0056400
v 0.0248000 0.0079007 0.0043875
v 0.0248000 0.0091480 0.0056400
v 0.0248000 0.0079007 0.0043875
v 0.0248000 0.0073341 0.0054880
v 0.0248000 0.0091480 0.0056400
v 0.0248000 0.0073341 0.0054880
v 0.0208000 0.0077000 0.0065000
v 0.0248000 0.0091480 0.0056400
v 0.0248000 0.0075400 0.0079360
v 0.0208000 0.0077000 0.0065000
v 0.0248000 0.0073341 0.0054880
v 0.0248000 0.0075400 0.0079360
v 0.0208000 0.0077000 0.0065000
v 0.0248000 0.0075400 0.0079360
v 0.0248000 0.0078067 0.0105600
v 0.0208000 0.0077000 0.0090000
v 0.0248000 0.0078067 0.0105600
v 0.0248000 0.0080200 0.0115000
v 0.0208000 0.0077000 0.0115000
v 0.0248000 0.0073972 0.0128989
v 0.0248000 0.0080200 0.0115000
v 0.0208000 0.0077000 0.0115000
v 0.0248000 0.0073972 0.0128989
v 0.0248000 0.0078067 0.0105600
v 0.0208000 0.0077000 0.0115000
v 0.0263000 0.0067400 0.0047267
v 0.0263000 0.0078600 0.0075640
v 0.0263000 0.0073800 0.0090000
v 0.0263000 0.0067400 0.0047267
v 0.0263000 0.0078600 0.0075640
v 0.0295000 0.0077000 0.0065000
v 0.0263000 0.0091480 0.0048720
v 0.0263000 0.0078600 0.0075640
v 0.0295000 0.0077000 0.0065000
v 0.0263000 0.0078600 0.0075640
v 0.0263000 0.0075933 0.0099400
v 0.0295000 0.0077000 0.0090000
v 0.0259539 0.0077857 0.0134550
v 0.0263000 0.0075933 0.0099400
v 0.0295000 0.0077000 0.0115000
vn -0.046254 0.994836 -0.090338
vn -0.068984 0.988478 -0.134734
vn -0.058604 0.991698 -0.114459
vn -0.054339 0.992867 -0.106129
vn 0.045717 0.313456 -0.948502
vn 0.312489 0.117180 -0.942666
vn 0.083292 0.020536 -0.996314
vn 0.317451 -0.009233 -0.948230
vn 0.008834 -0.269930 -0.962839
vn 0.471791 0.053118 -0.880109
vn -0.039326 0.957673 -0.285160
vn -0.070320 0.880321 -0.469137
vn -0.005731 0.999039 -0.043446
vn -0.089957 0.885480 0.455887
vn -0.001441 0.996703 0.081123
vn -0.023517 0.980462 0.195297
vn -0.968412 0.244687 0.048025
vn -0.967808 0.229932 0.102370
vn -0.991791 0.104739 0.073354
vn -0.988816 0.136698 0.059639
vn -0.931803 0.360284 -0.044038
vn -0.929054 0.368275 -0.035092
vn -1.000000 0.000000 0.000000
vn -1.000000 0.000000 0.000000
vn -1.000000 0.000000 0.000000
vn -1.000000 0.000000 0.000000
vn -1.000000 0.000000 0.000000
vn -0.070110 -0.990939 -0.114559
vn -0.101155 -0.940737 0.323699
vn -0.088507 -0.989159 0.117178
vn -0.087025 -0.991544 0.096269
vn 0.109448 -0.986356 0.122975
vn 0.002367 -0.997073 0.076421
vn -0.037623 -0.998444 0.041171
vn -0.123263 -0.992366 -0.003939
vn 0.613379 -0.780808 0.118768
vn 0.862633 -0.493286 0.111950
vn 0.960609 0.257434 0.104678
vn 0.962696 0.211877 0.168299
vn 0.983596 0.172454 0.052902
vn 1.000000 0.000000 0.000000
vn 0.963676 0.264454 0.037326
vn 0.834107 0.536005 -0.130250
vn 0.094418 -0.944182 -0.315602
vn 0.099386 -0.993860 -0.048619
vn 0.097060 -0.970597 0.220275
vn 0.098935 -0.989347 -0.106787
vn 0.087429 0.989487 0.115203
vn 0.126082 0.938041 -0.322774
vn 0.109597 0.988107 -0.107857
vn 0.104668 0.993061 -0.053621
vn -0.054796 0.275754 -0.959665
vn -0.054796 0.275754 -0.959665
vn -0.054796 0.275754 -0.959665
vn -0.144831 -0.644486 0.750774
vn -0.144831 -0.644486 0.750774
vn -0.144831 -0.644486 0.750774
vn -0.009442 -0.061180 0.998082
vn -0.009442 -0.061180 0.998082
vn -0.009442 -0.061180 0.998082
vn -0.163888 -0.698999 0.696090
vn -0.163888 -0.698999 0.696090
vn -0.163888 -0.698999 0.696090
vn -1.000000 0.000000 0.000000
vn -1.000000 0.000000 0.000000
vn -1.000000 0.000000 0.000000
vn -0.237483 0.081120 -0.967999
vn -0.237483 0.081120 -0.967999
vn -0.237483 0.081120 -0.967999
vn -0.170639 0.807085 0.565240
vn -0.170639 0.807085 0.565240
vn -0.170639 0.807085 0.565240
vn -0.069775 -0.994054 0.083600
vn -0.069775 -0.994054 0.083600
vn -0.069775 -0.994054 0.083600
vn 0.012900 0.994793 -0.101097
vn 0.012900 0.994793 -0.101097
vn 0.012900 0.994793 -0.101097
vn -0.077780 0.972246 -0.220653
vn -0.077780 0.972246 -0.220653
vn -0.077780 0.972246 -0.220653
vn -0.072889 0.911118 0.405649
vn -0.072889 0.911118 0.405649
vn -0.072889 0.911118 0.405649
vn -0.014258 -0.984918 -0.172435
vn -0.014258 -0.984918 -0.172435
vn -0.014258 -0.984918 -0.172435
vn 1.000000 0.000000 0.000000
vn 1.000000 0.000000 0.000000
vn 1.000000 0.000000 0.000000
vn 0.075361 -0.927510 0.366123
vn 0.075361 -0.927510 0.366123
vn 0.075361 -0.927510 0.366123
vn 0.185342 0.886437 0.424120
vn 0.185342 0.886437 0.424120
vn 0.185342 0.886437 0.424120
vn -0.000362 0.993761 0.111532
vn -0.000362 0.993761 0.111532
vn -0.000362 0.993761 0.111532
vn 0.006338 -0.998451 0.055271
vn 0.006338 -0.998451 0.055271
vn 0.006338 -0.998451 0.055271
f 104//104 105//105 106//106
f 103//103 106//106 105//105
f 110//110 109//109 108//108
f 107//107 108//108 109//109
f 111//111 109//109 110//110
f 110//110 108//108 112//112
f 116//116 117//117 118//118
f 114//114 113//113 115//115
f 117//117 115//115 113//113
f 117//117 113//113 118//118
f 119//119 122//122 123//123
f 119//119 121//121 122//122
f 124//124 119//119 123//123
f 120//120 119//119 124//124
f 125//125 128//128 129//129
f 126//126 125//125 129//129
f 126//126 129//129 127//127
f 131//131 133//133 132//132
f 132//132 133//133 130//130
f 136//136 138//138 134//134
f 138//138 139//139 134//134
f 136//136 134//134 135//135
f 136//136 135//135 137//137
f 144//144 140//140 145//145
f 142//142 144//144 143//143
f 142//142 140//140 144//144
f 145//145 140//140 141//141
f 147//147 146//146 149//149
f 149//149 148//148 147//147
f 151//151 152//152 153//153
f 152//152 150//150 153//153
f 154//154 155//155 156//156
f 159//159 157//157 158//158
f 160//160 162//162 161//161
f 164//164 163//163 165//165
f 168//168 166//166 167//167
f 171//171 169//169 170//170
f 172//172 174//174 173//173
f 176//176 177//177 175//175
f 180//180 179//179 178//178
f 183//183 182//182 181//181
f 185//185 186//186 184//184
f 187//187 189//189 188//188
f 190//190 191//191 192//192
f 195//195 194//194 193//193
f 196//196 197//197 198//198
f 199//199 200//200 201//201
f 204//204 202//202 203//203
