# OMX visual mesh; coordinates in metres
mtllib materials.mtl
usemtl black_electronics
v 0.0394000 0.0030800 -0.0032333
v 0.0382762 -0.0059750 -0.0070500
v 0.0386480 -0.0048600 -0.0039000
v 0.0386480 -0.0056280 -0.0024000
v 0.0382762 -0.0059750 -0.0070500
v 0.0386480 -0.0056280 -0.0024000
v 0.0374007 -0.0061125 -0.0039000
v 0.0362400 -0.0057733 -0.0024000
v 0.0369366 -0.0060200 -0.0080000
v 0.0372000 -0.0040000 0.0008000
v 0.0368972 0.0023989 -0.0039000
v 0.0372857 0.0029550 -0.0027461
v 0.0369007 0.0030200 -0.0080000
v 0.0374007 -0.0061125 -0.0039000
v 0.0369366 -0.0060200 -0.0080000
v 0.0368341 -0.0050120 -0.0039000
v 0.0394000 0.0030800 -0.0032333
v 0.0368972 0.0023989 -0.0039000
v 0.0386480 -0.0048600 -0.0039000
v 0.0370400 -0.0025640 -0.0039000
v 0.0373067 0.0000600 -0.0039000
v 0.0375200 0.0010000 -0.0039000
v 0.0368972 0.0023989 -0.0039000
v 0.0368341 -0.0050120 -0.0039000
v 0.0370400 -0.0025640 -0.0039000
v 0.0373067 0.0000600 -0.0039000
v 0.0368800 -0.0011800 -0.0039000
v 0.0370400 -0.0025640 -0.0039000
v 0.0373067 0.0000600 -0.0039000
v 0.0368800 -0.0011800 -0.0039000
v 0.0372000 -0.0015000 -0.0079000
v 0.0372857 0.0029550 -0.0027461
v 0.0369007 0.0030200 -0.0080000
v 0.0362400 -0.0057733 -0.0024000
v 0.0369366 -0.0060200 -0.0080000
v 0.0368800 -0.0015000 -0.0024000
v 0.0370933 -0.0005600 -0.0024000
v 0.0394000 0.0030800 -0.0032333
v 0.0372857 0.0029550 -0.0027461
v 0.0386480 -0.0056280 -0.0024000
v 0.0373600 -0.0029360 -0.0024000
v 0.0370933 -0.0005600 -0.0024000
v 0.0375200 0.0006800 -0.0024000
v 0.0373600 -0.0029360 -0.0024000
v 0.0368800 -0.0015000 -0.0024000
v 0.0370933 -0.0005600 -0.0024000
v 0.0372000 -0.0015000 0.0008000
v 0.0372857 0.0029550 -0.0027461
v 0.0370933 -0.0005600 -0.0024000
v 0.0375200 0.0006800 -0.0024000
v 0.0372000 0.0010000 0.0008000
v 0.0382762 0.0029750 -0.0070500
v 0.0394000 0.0030800 -0.0032333
v 0.0368972 0.0023989 -0.0039000
v 0.0382762 0.0029750 -0.0070500
v 0.0368972 0.0023989 -0.0039000
v 0.0372857 0.0029550 -0.0027461
v 0.0382762 0.0029750 -0.0070500
v 0.0394000 0.0030800 -0.0032333
v 0.0372857 0.0029550 -0.0027461
v 0.0382762 -0.0059750 -0.0070500
v 0.0386480 -0.0048600 -0.0039000
v 0.0374007 -0.0061125 -0.0039000
v 0.0386480 -0.0048600 -0.0039000
v 0.0374007 -0.0061125 -0.0039000
v 0.0368341 -0.0050120 -0.0039000
v 0.0386480 -0.0048600 -0.0039000
v 0.0368341 -0.0050120 -0.0039000
v 0.0372000 -0.0040000 -0.0079000
v 0.0386480 -0.0048600 -0.0039000
v 0.0370400 -0.0025640 -0.0039000
v 0.0372000 -0.0040000 -0.0079000
v 0.0368341 -0.0050120 -0.0039000
v 0.0370400 -0.0025640 -0.0039000
v 0.0372000 -0.0040000 -0.0079000
v 0.0370400 -0.0025640 -0.0039000
v 0.0373067 0.0000600 -0.0039000
v 0.0372000 -0.0015000 -0.0079000
v 0.0373067 0.0000600 -0.0039000
v 0.0375200 0.0010000 -0.0039000
v 0.0372000 0.0010000 -0.0079000
v 0.0368972 0.0023989 -0.0039000
v 0.0375200 0.0010000 -0.0039000
v 0.0372000 0.0010000 -0.0079000
v 0.0368972 0.0023989 -0.0039000
v 0.0373067 0.0000600 -0.0039000
v 0.0372000 0.0010000 -0.0079000
v 0.0362400 -0.0057733 -0.0024000
v 0.0373600 -0.0029360 -0.0024000
v 0.0368800 -0.0015000 -0.0024000
v 0.0362400 -0.0057733 -0.0024000
v 0.0373600 -0.0029360 -0.0024000
v 0.0372000 -0.0040000 0.0008000
v 0.0386480 -0.0056280 -0.0024000
v 0.0373600 -0.0029360 -0.0024000
v 0.0372000 -0.0040000 0.0008000
v 0.0373600 -0.0029360 -0.0024000
v 0.0370933 -0.0005600 -0.0024000
v 0.0372000 -0.0015000 0.0008000
v 0.0372857 0.0029550 -0.0027461
v 0.0370933 -0.0005600 -0.0024000
v 0.0372000 0.0010000 0.0008000
vn 0.994836 -0.090342 -0.046255
vn 0.988479 -0.134724 -0.068979
vn 0.991698 -0.114455 -0.058601
vn 0.992867 -0.106127 -0.054337
vn 0.313457 -0.948501 0.045719
vn 0.117182 -0.942666 0.312489
vn 0.020538 -0.996313 0.083294
vn -0.009232 -0.948229 0.317452
vn -0.269928 -0.962840 0.008837
vn 0.053118 -0.880109 0.471790
vn 0.957673 -0.285161 -0.039327
vn 0.880320 -0.469139 -0.070322
vn 0.999039 -0.043446 -0.005732
vn 0.885476 0.455894 -0.089962
vn 0.996703 0.081125 -0.001443
vn 0.980462 0.195299 -0.023520
vn 0.244683 0.048024 -0.968413
vn 0.229928 0.102368 -0.967809
vn 0.104739 0.073353 -0.991791
vn 0.136698 0.059638 -0.988816
vn 0.360271 -0.044033 -0.931808
vn 0.368261 -0.035086 -0.929060
vn 0.000000 0.000000 -1.000000
vn 0.000000 0.000000 -1.000000
vn 0.000000 0.000000 -1.000000
vn 0.000000 0.000000 -1.000000
vn 0.000000 0.000000 -1.000000
vn -0.990939 -0.114566 -0.070107
vn -0.940743 0.323684 -0.101151
vn -0.989161 0.117166 -0.088503
vn -0.991545 0.096259 -0.087021
vn -0.986356 0.122973 0.109450
vn -0.997073 0.076421 0.002369
vn -0.998444 0.041170 -0.037619
vn -0.992367 -0.003939 -0.123260
vn -0.780783 0.118765 0.613411
vn -0.493293 0.111949 0.862630
vn 0.257430 0.104677 0.960611
vn 0.211873 0.168298 0.962697
vn 0.172450 0.052901 0.983597
vn 0.000000 0.000000 1.000000
vn 0.264448 0.037326 0.963677
vn 0.535974 -0.130229 0.834130
vn -0.944189 -0.315584 0.094415
vn -0.993861 -0.048613 0.099382
vn -0.970599 0.220269 0.097056
vn -0.989349 -0.106778 0.098931
vn 0.989488 0.115198 0.087425
vn 0.938047 -0.322756 0.126076
vn 0.988108 -0.107850 0.109592
vn 0.993061 -0.053618 0.104664
vn 0.275752 -0.959666 -0.054794
vn 0.275752 -0.959666 -0.054794
vn 0.275752 -0.959666 -0.054794
vn -0.644478 0.750780 -0.144835
vn -0.644478 0.750780 -0.144835
vn -0.644478 0.750780 -0.144835
vn -0.061183 0.998082 -0.009443
vn -0.061183 0.998082 -0.009443
vn -0.061183 0.998082 -0.009443
vn -0.698999 0.696089 -0.163893
vn -0.698999 0.696089 -0.163893
vn -0.698999 0.696089 -0.163893
vn 0.000000 0.000000 -1.000000
vn 0.000000 0.000000 -1.000000
vn 0.000000 0.000000 -1.000000
vn 0.081116 -0.967999 -0.237483
vn 0.081116 -0.967999 -0.237483
vn 0.081116 -0.967999 -0.237483
vn 0.807087 0.565237 -0.170640
vn 0.807087 0.565237 -0.170640
vn 0.807087 0.565237 -0.170640
vn -0.994053 0.083611 -0.069773
vn -0.994053 0.083611 -0.069773
vn -0.994053 0.083611 -0.069773
vn 0.994794 -0.101087 0.012897
vn 0.994794 -0.101087 0.012897
vn 0.994794 -0.101087 0.012897
vn 0.972249 -0.220644 -0.077777
vn 0.972249 -0.220644 -0.077777
vn 0.972249 -0.220644 -0.077777
vn 0.911120 0.405646 -0.072887
vn 0.911120 0.405646 -0.072887
vn 0.911120 0.405646 -0.072887
vn -0.984918 -0.172436 -0.014259
vn -0.984918 -0.172436 -0.014259
vn -0.984918 -0.172436 -0.014259
vn 0.000000 0.000000 1.000000
vn 0.000000 0.000000 1.000000
vn 0.000000 0.000000 1.000000
vn -0.927513 0.366114 0.075363
vn -0.927513 0.366114 0.075363
vn -0.927513 0.366114 0.075363
vn 0.886434 0.424127 0.185338
vn 0.886434 0.424127 0.185338
vn 0.886434 0.424127 0.185338
vn 0.993762 0.111523 -0.000364
vn 0.993762 0.111523 -0.000364
vn 0.993762 0.111523 -0.000364
vn -0.998451 0.055269 0.006337
vn -0.998451 0.055269 0.006337
vn -0.998451 0.055269 0.006337
f 2//2 3//3 4//4
f 1//1 4//4 3//3
f 8//8 7//7 6//6
f 5//5 6//6 7//7
f 9//9 7//7 8//8
f 8//8 6//6 10//10
f 14//14 15//15 16//16
f 12//12 11//11 13//13
f 15//15 13//13 11//11
f 15//15 11//11 16//16
f 17//17 20//20 21//21
f 17//17 19//19 20//20
f 22//22 17//17 21//21
f 18//18 17//17 22//22
f 23//23 26//26 27//27
f 24//24 23//23 27//27
f 24//24 27//27 25//25
f 29//29 31//31 30//30
f 30//30 31//31 28//28
f 34//34 36//36 32//32
f 36//36 37//37 32//32
f 34//34 32//32 33//33
f 34//34 33//33 35//35
f 42//42 38//38 43//43
f 40//40 42//42 41//41
f 40//40 38//38 42//42
f 43//43 38//38 39//39
f 45//45 44//44 47//47
f 47//47 46//46 45//45
f 49//49 50//50 51//51
f 50//50 48//48 51//51
f 52//52 53//53 54//54
f 57//57 55//55 56//56
f 58//58 60//60 59//59
f 62//62 61//61 63//63
f 66//66 64//64 65//65
f 69//69 67//67 68//68
f 70//70 72//72 71//71
f 74//74 75//75 73//73
f 78//78 77//77 76//76
f 81//81 80//80 79//79
f 83//83 84//84 82//82
f 85//85 87//87 86//86
f 88//88 89//89 90//90
f 93//93 92//92 91//91
f 94//94 95//95 96//96
f 97//97 98//98 99//99
f 102//102 100//100 101//101
v 0.0200700 0.0025771 -0.0029000
v 0.0213667 0.0035000 -0.0039000
v 0.0226320 0.0022500 -0.0024000
v 0.0218000 0.0010000 0.0008000
v 0.0221029 -0.0053989 -0.0039000
v 0.0220993 -0.0060200 -0.0080000
v 0.0220635 0.0030200 -0.0080000
v 0.0224477 0.0029000 -0.0039000
v 0.0196000 -0.0060800 -0.0032333
v 0.0221029 -0.0053989 -0.0039000
v 0.0200700 0.0025771 -0.0029000
v 0.0214240 0.0019980 -0.0039000
v 0.0214800 0.0010000 -0.0039000
v 0.0214800 -0.0027500 -0.0039000
v 0.0221029 -0.0053989 -0.0039000
v 0.0214240 0.0019980 -0.0039000
v 0.0224477 0.0029000 -0.0039000
v 0.0221201 -0.0002500 -0.0039000
v 0.0221201 -0.0027500 -0.0039000
v 0.0214240 0.0019980 -0.0039000
v 0.0214800 0.0010000 -0.0039000
v 0.0221201 -0.0002500 -0.0039000
v 0.0218000 0.0010000 -0.0079000
v 0.0224400 -0.0054100 -0.0024000
v 0.0220993 -0.0060200 -0.0080000
v 0.0226320 0.0022500 -0.0024000
v 0.0220635 0.0030200 -0.0080000
v 0.0196000 -0.0060800 -0.0032333
v 0.0224400 -0.0054100 -0.0024000
v 0.0200700 0.0025771 -0.0029000
v 0.0214800 -0.0002500 -0.0024000
v 0.0214800 -0.0027500 -0.0024000
v 0.0224400 -0.0054100 -0.0024000
v 0.0226320 0.0022500 -0.0024000
v 0.0214800 -0.0002500 -0.0024000
v 0.0221201 -0.0027500 -0.0024000
v 0.0207238 -0.0059750 -0.0070500
v 0.0196000 -0.0060800 -0.0032333
v 0.0221029 -0.0053989 -0.0039000
v 0.0207238 -0.0059750 -0.0070500
v 0.0221029 -0.0053989 -0.0039000
v 0.0212500 -0.0065000 -0.0039000
v 0.0196000 -0.0060800 -0.0032333
v 0.0212500 -0.0065000 -0.0039000
v 0.0224400 -0.0054100 -0.0024000
v 0.0207238 -0.0059750 -0.0070500
v 0.0196000 -0.0060800 -0.0032333
v 0.0212500 -0.0065000 -0.0039000
v 0.0212500 -0.0065000 -0.0039000
v 0.0224400 -0.0054100 -0.0024000
v 0.0220993 -0.0060200 -0.0080000
v 0.0207238 0.0029750 -0.0070500
v 0.0200700 0.0025771 -0.0029000
v 0.0214240 0.0019980 -0.0039000
v 0.0207238 0.0029750 -0.0070500
v 0.0214240 0.0019980 -0.0039000
v 0.0213667 0.0035000 -0.0039000
v 0.0207238 0.0029750 -0.0070500
v 0.0200700 0.0025771 -0.0029000
v 0.0213667 0.0035000 -0.0039000
v 0.0213667 0.0035000 -0.0039000
v 0.0226320 0.0022500 -0.0024000
v 0.0220635 0.0030200 -0.0080000
v 0.0214240 0.0019980 -0.0039000
v 0.0213667 0.0035000 -0.0039000
v 0.0220635 0.0030200 -0.0080000
v 0.0214240 0.0019980 -0.0039000
v 0.0220635 0.0030200 -0.0080000
v 0.0224477 0.0029000 -0.0039000
v 0.0214800 0.0010000 -0.0039000
v 0.0221201 -0.0002500 -0.0039000
v 0.0214800 -0.0027500 -0.0039000
v 0.0221029 -0.0053989 -0.0039000
v 0.0212500 -0.0065000 -0.0039000
v 0.0220993 -0.0060200 -0.0080000
v 0.0214240 0.0019980 -0.0039000
v 0.0221201 -0.0002500 -0.0039000
v 0.0218000 0.0010000 -0.0079000
v 0.0221201 -0.0002500 -0.0039000
v 0.0214800 -0.0027500 -0.0039000
v 0.0218000 -0.0015000 -0.0079000
v 0.0214800 -0.0027500 -0.0039000
v 0.0221201 -0.0027500 -0.0039000
v 0.0218000 -0.0015000 -0.0079000
v 0.0221201 -0.0002500 -0.0039000
v 0.0221201 -0.0027500 -0.0039000
v 0.0218000 -0.0015000 -0.0079000
v 0.0214800 -0.0027500 -0.0039000
v 0.0221201 -0.0027500 -0.0039000
v 0.0218000 -0.0040000 -0.0079000
v 0.0221029 -0.0053989 -0.0039000
v 0.0214800 -0.0027500 -0.0039000
v 0.0218000 -0.0040000 -0.0079000
v 0.0221029 -0.0053989 -0.0039000
v 0.0221201 -0.0027500 -0.0039000
v 0.0218000 -0.0040000 -0.0079000
v 0.0226320 0.0022500 -0.0024000
v 0.0214800 -0.0002500 -0.0024000
v 0.0218000 0.0010000 0.0008000
v 0.0200700 0.0025771 -0.0029000
v 0.0214800 -0.0002500 -0.0024000
v 0.0218000 0.0010000 0.0008000
v 0.0214800 -0.0002500 -0.0024000
v 0.0221201 -0.0027500 -0.0024000
v 0.0218000 -0.0015000 0.0008000
v 0.0221201 -0.0027500 -0.0024000
v 0.0214800 -0.0027500 -0.0024000
v 0.0218000 -0.0015000 0.0008000
v 0.0214800 -0.0002500 -0.0024000
v 0.0214800 -0.0027500 -0.0024000
v 0.0218000 -0.0015000 0.0008000
v 0.0221201 -0.0027500 -0.0024000
v 0.0214800 -0.0027500 -0.0024000
v 0.0218000 -0.0040000 0.0008000
v 0.0224400 -0.0054100 -0.0024000
v 0.0221201 -0.0027500 -0.0024000
v 0.0218000 -0.0040000 0.0008000
v 0.0224400 -0.0054100 -0.0024000
v 0.0214800 -0.0027500 -0.0024000
v 0.0218000 -0.0040000 0.0008000
vn 0.005098 0.848555 0.529082
vn -0.031562 0.754583 0.655446
vn 0.020211 0.880927 0.472820
vn 0.045370 0.926444 0.373687
vn -0.999629 0.008009 0.026051
vn -0.999991 -0.003969 0.001459
vn -0.997345 0.028058 0.067199
vn -0.994674 0.041328 0.094421
vn -0.315428 -0.011884 -0.948875
vn -0.242454 -0.057009 -0.968486
vn -0.546927 0.004676 -0.837167
vn -0.603073 -0.033839 -0.796968
vn -0.584852 -0.008591 -0.811094
vn -0.399304 0.026665 -0.916431
vn 0.000000 0.000000 -1.000000
vn 0.000000 0.000000 -1.000000
vn 0.000000 0.000000 -1.000000
vn 0.000000 0.000000 -1.000000
vn 0.000000 0.000000 -1.000000
vn -0.995259 -0.055845 -0.079625
vn -0.963021 -0.258174 -0.077046
vn -0.887855 -0.454607 -0.071032
vn -0.952653 -0.294352 -0.076216
vn 0.998004 -0.025017 -0.057990
vn 0.997069 -0.013190 -0.075368
vn 0.996305 -0.006169 -0.085664
vn 0.994932 0.003949 -0.100476
vn -0.307415 -0.064036 0.949419
vn -0.259878 -0.093791 0.961076
vn -0.364422 -0.009057 0.931190
vn -0.334213 0.000000 0.942498
vn -0.348829 -0.033711 0.936580
vn 0.000000 0.000000 1.000000
vn 0.000000 0.000000 1.000000
vn 0.000000 0.000000 1.000000
vn 0.000000 0.000000 1.000000
vn -0.275753 0.959665 -0.054794
vn -0.275753 0.959665 -0.054794
vn -0.275753 0.959665 -0.054794
vn 0.769781 -0.596215 -0.227957
vn 0.769781 -0.596215 -0.227957
vn 0.769781 -0.596215 -0.227957
vn 0.024186 -0.817759 0.575052
vn 0.024186 -0.817759 0.575052
vn 0.024186 -0.817759 0.575052
vn -0.286921 -0.951541 -0.110662
vn -0.286921 -0.951541 -0.110662
vn -0.286921 -0.951541 -0.110662
vn 0.644057 -0.763710 0.044008
vn 0.644057 -0.763710 0.044008
vn 0.644057 -0.763710 0.044008
vn -0.485129 -0.859890 -0.158870
vn -0.485129 -0.859890 -0.158870
vn -0.485129 -0.859890 -0.158870
vn 0.977885 0.037331 -0.205785
vn 0.977885 0.037331 -0.205785
vn 0.977885 0.037331 -0.205785
vn -0.587426 0.809139 -0.014978
vn -0.587426 0.809139 -0.014978
vn -0.587426 0.809139 -0.014978
vn 0.683704 0.729107 0.030834
vn 0.683704 0.729107 0.030834
vn 0.683704 0.729107 0.030834
vn -0.985885 -0.037637 -0.163142
vn -0.985885 -0.037637 -0.163142
vn -0.985885 -0.037637 -0.163142
vn 0.658803 -0.747654 -0.083619
vn 0.658803 -0.747654 -0.083619
vn 0.658803 -0.747654 -0.083619
vn 0.000000 0.000000 -1.000000
vn 0.000000 0.000000 -1.000000
vn 0.000000 0.000000 -1.000000
vn -0.787266 0.609757 -0.091698
vn -0.787266 0.609757 -0.091698
vn -0.787266 0.609757 -0.091698
vn 0.955137 0.295733 0.016001
vn 0.955137 0.295733 0.016001
vn 0.955137 0.295733 0.016001
vn -0.968756 0.248015 -0.000000
vn -0.968756 0.248015 -0.000000
vn -0.968756 0.248015 -0.000000
vn 0.000000 -0.954480 -0.298274
vn 0.000000 -0.954480 -0.298274
vn 0.000000 -0.954480 -0.298274
vn 0.996815 0.000000 -0.079749
vn 0.996815 0.000000 -0.079749
vn 0.996815 0.000000 -0.079749
vn 0.000000 0.954480 -0.298274
vn 0.000000 0.954480 -0.298274
vn 0.000000 0.954480 -0.298274
vn -0.973433 -0.228885 -0.006352
vn -0.973433 -0.228885 -0.006352
vn -0.973433 -0.228885 -0.006352
vn 0.996953 -0.006472 -0.077738
vn 0.996953 -0.006472 -0.077738
vn 0.996953 -0.006472 -0.077738
vn 0.905823 -0.417412 0.072464
vn 0.905823 -0.417412 0.072464
vn 0.905823 -0.417412 0.072464
vn -0.884394 -0.397949 0.243892
vn -0.884394 -0.397949 0.243892
vn -0.884394 -0.397949 0.243892
vn 0.968756 0.248015 0.000000
vn 0.968756 0.248015 0.000000
vn 0.968756 0.248015 0.000000
vn 0.000000 -0.931458 0.363850
vn 0.000000 -0.931458 0.363850
vn 0.000000 -0.931458 0.363850
vn -0.995037 0.000000 0.099509
vn -0.995037 0.000000 0.099509
vn -0.995037 0.000000 0.099509
vn 0.000000 0.931458 0.363850
vn 0.000000 0.931458 0.363850
vn 0.000000 0.931458 0.363850
vn 0.982435 0.118178 0.144412
vn 0.982435 0.118178 0.144412
vn 0.982435 0.118178 0.144412
vn -0.939918 -0.339221 -0.038511
vn -0.939918 -0.339221 -0.038511
vn -0.939918 -0.339221 -0.038511
f 105//105 104//104 103//103
f 105//105 103//103 106//106
f 109//109 107//107 110//110
f 109//109 108//108 107//107
f 115//115 113//113 114//114
f 116//116 113//113 115//115
f 111//111 113//113 116//116
f 112//112 111//111 116//116
f 119//119 121//121 120//120
f 120//120 118//118 119//119
f 119//119 117//117 121//121
f 123//123 125//125 124//124
f 125//125 123//123 122//122
f 128//128 127//127 129//129
f 128//128 126//126 127//127
f 134//134 130//130 131//131
f 132//132 134//134 133//133
f 132//132 130//130 134//134
f 136//136 138//138 135//135
f 137//137 138//138 136//136
f 139//139 140//140 141//141
f 144//144 142//142 143//143
f 147//147 145//145 146//146
f 148//148 150//150 149//149
f 153//153 152//152 151//151
f 155//155 154//154 156//156
f 157//157 159//159 158//158
f 160//160 161//161 162//162
f 165//165 163//163 164//164
f 166//166 167//167 168//168
f 170//170 171//171 169//169
f 173//173 174//174 172//172
f 176//176 175//175 177//177
f 179//179 180//180 178//178
f 183//183 182//182 181//181
f 184//184 186//186 185//185
f 188//188 189//189 187//187
f 192//192 190//190 191//191
f 194//194 195//195 193//193
f 196//196 198//198 197//197
f 201//201 200//200 199//199
f 202//202 203//203 204//204
f 206//206 205//205 207//207
f 210//210 209//209 208//208
f 211//211 212//212 213//213
f 214//214 215//215 216//216
f 219//219 217//217 218//218
f 221//221 220//220 222//222
