# OMX visual mesh; coordinates in metres
mtllib materials.mtl
usemtl black_electronics
v -0.0123500 -0.0046333 0.0539800
v -0.0112262 -0.0084500 0.0449250
v -0.0114100 -0.0053000 0.0461750
v -0.0115980 -0.0038000 0.0452720
v -0.0115980 -0.0038000 0.0452720
v -0.0106500 -0.0053000 0.0447150
v -0.0093180 -0.0038000 0.0456500
v -0.0098866 -0.0094000 0.0448800
v -0.0101500 -0.0006000 0.0469000
v -0.0098472 -0.0053000 0.0532989
v -0.0098507 -0.0094000 0.0539200
v -0.0098866 -0.0094000 0.0448800
v -0.0095679 -0.0053000 0.0455267
v -0.0123500 -0.0046333 0.0539800
v -0.0098472 -0.0053000 0.0532989
v -0.0114100 -0.0053000 0.0461750
v -0.0099900 -0.0053000 0.0483360
v -0.0102567 -0.0053000 0.0509600
v -0.0104700 -0.0053000 0.0519000
v -0.0098472 -0.0053000 0.0532989
v -0.0095679 -0.0053000 0.0455267
v -0.0099900 -0.0053000 0.0483360
v -0.0102567 -0.0053000 0.0509600
v -0.0098300 -0.0053000 0.0497200
v -0.0099900 -0.0053000 0.0483360
v -0.0102567 -0.0053000 0.0509600
v -0.0098300 -0.0053000 0.0497200
v -0.0101500 -0.0093000 0.0494000
v -0.0095100 -0.0038000 0.0533100
v -0.0098507 -0.0094000 0.0539200
v -0.0093180 -0.0038000 0.0456500
v -0.0098866 -0.0094000 0.0448800
v -0.0123500 -0.0046333 0.0539800
v -0.0095100 -0.0038000 0.0533100
v -0.0115980 -0.0038000 0.0452720
v -0.0104700 -0.0038000 0.0481500
v -0.0104700 -0.0038000 0.0506500
v -0.0095100 -0.0038000 0.0533100
v -0.0093180 -0.0038000 0.0456500
v -0.0104700 -0.0038000 0.0481500
v -0.0098300 -0.0038000 0.0506500
v -0.0112262 -0.0084500 0.0538750
v -0.0123500 -0.0046333 0.0539800
v -0.0098472 -0.0053000 0.0532989
v -0.0112262 -0.0084500 0.0538750
v -0.0098472 -0.0053000 0.0532989
v -0.0107000 -0.0053000 0.0544000
v -0.0123500 -0.0046333 0.0539800
v -0.0107000 -0.0053000 0.0544000
v -0.0095100 -0.0038000 0.0533100
v -0.0112262 -0.0084500 0.0538750
v -0.0123500 -0.0046333 0.0539800
v -0.0107000 -0.0053000 0.0544000
v -0.0107000 -0.0053000 0.0544000
v -0.0095100 -0.0038000 0.0533100
v -0.0098507 -0.0094000 0.0539200
v -0.0112262 -0.0084500 0.0449250
v -0.0114100 -0.0053000 0.0461750
v -0.0106500 -0.0053000 0.0447150
v -0.0112262 -0.0084500 0.0449250
v -0.0115980 -0.0038000 0.0452720
v -0.0106500 -0.0053000 0.0447150
v -0.0106500 -0.0053000 0.0447150
v -0.0098866 -0.0094000 0.0448800
v -0.0095679 -0.0053000 0.0455267
v -0.0114100 -0.0053000 0.0461750
v -0.0106500 -0.0053000 0.0447150
v -0.0095679 -0.0053000 0.0455267
v -0.0098472 -0.0053000 0.0532989
v -0.0107000 -0.0053000 0.0544000
v -0.0098507 -0.0094000 0.0539200
v -0.0114100 -0.0053000 0.0461750
v -0.0095679 -0.0053000 0.0455267
v -0.0101500 -0.0093000 0.0469000
v -0.0114100 -0.0053000 0.0461750
v -0.0099900 -0.0053000 0.0483360
v -0.0101500 -0.0093000 0.0469000
v -0.0095679 -0.0053000 0.0455267
v -0.0099900 -0.0053000 0.0483360
v -0.0101500 -0.0093000 0.0469000
v -0.0099900 -0.0053000 0.0483360
v -0.0102567 -0.0053000 0.0509600
v -0.0101500 -0.0093000 0.0494000
v -0.0102567 -0.0053000 0.0509600
v -0.0104700 -0.0053000 0.0519000
v -0.0101500 -0.0093000 0.0519000
v -0.0098472 -0.0053000 0.0532989
v -0.0104700 -0.0053000 0.0519000
v -0.0101500 -0.0093000 0.0519000
v -0.0098472 -0.0053000 0.0532989
v -0.0102567 -0.0053000 0.0509600
v -0.0101500 -0.0093000 0.0519000
v -0.0093180 -0.0038000 0.0456500
v -0.0104700 -0.0038000 0.0481500
v -0.0101500 -0.0006000 0.0469000
v -0.0115980 -0.0038000 0.0452720
v -0.0104700 -0.0038000 0.0481500
v -0.0101500 -0.0006000 0.0469000
v -0.0104700 -0.0038000 0.0481500
v -0.0098300 -0.0038000 0.0506500
v -0.0101500 -0.0006000 0.0494000
v -0.0098300 -0.0038000 0.0506500
v -0.0104700 -0.0038000 0.0506500
v -0.0101500 -0.0006000 0.0494000
v -0.0104700 -0.0038000 0.0481500
v -0.0104700 -0.0038000 0.0506500
v -0.0101500 -0.0006000 0.0494000
v -0.0098300 -0.0038000 0.0506500
v -0.0104700 -0.0038000 0.0506500
v -0.0101500 -0.0006000 0.0519000
v -0.0095100 -0.0038000 0.0533100
v -0.0098300 -0.0038000 0.0506500
v -0.0101500 -0.0006000 0.0519000
v -0.0095100 -0.0038000 0.0533100
v -0.0104700 -0.0038000 0.0506500
v -0.0101500 -0.0006000 0.0519000
vn -0.977626 -0.183951 -0.102029
vn -0.994193 -0.084471 0.066668
vn -0.991118 -0.132303 -0.013427
vn -0.988687 -0.145603 -0.036026
vn 0.149239 0.409198 -0.900158
vn 0.402457 0.199525 -0.893430
vn 0.241145 0.334787 -0.910915
vn 0.524490 0.063493 -0.849046
vn 0.150371 0.393390 -0.906991
vn -0.999714 0.023015 -0.006533
vn -0.999991 0.001453 0.003969
vn -0.998108 0.056986 -0.023084
vn -0.995903 0.083049 -0.035787
vn -0.248590 -0.967466 0.047043
vn -0.229933 -0.967807 0.102371
vn -0.108917 -0.991471 0.071569
vn -0.139963 -0.988443 0.058230
vn -0.360285 -0.931802 -0.044038
vn -0.368277 -0.929054 -0.035092
vn 0.000000 -1.000000 0.000000
vn 0.000000 -1.000000 0.000000
vn 0.000000 -1.000000 0.000000
vn 0.000000 -1.000000 0.000000
vn 0.000000 -1.000000 0.000000
vn 0.990939 -0.070110 -0.114560
vn 0.940738 -0.101155 0.323696
vn 0.989159 -0.088507 0.117176
vn 0.991544 -0.087025 0.096268
vn 0.998004 -0.057989 0.025015
vn 0.997069 -0.075365 0.013189
vn 0.996305 -0.085660 0.006168
vn 0.994932 -0.100471 -0.003949
vn -0.276621 0.957353 0.083408
vn -0.259879 0.961075 0.093791
vn -0.201299 0.978620 0.042221
vn 0.000000 1.000000 0.000000
vn -0.277601 0.958274 0.068181
vn 0.000000 1.000000 0.000000
vn 0.000000 1.000000 0.000000
vn 0.000000 1.000000 0.000000
vn 0.000000 1.000000 0.000000
vn -0.275753 -0.054794 -0.959665
vn -0.275753 -0.054794 -0.959665
vn -0.275753 -0.054794 -0.959665
vn 0.769788 -0.227956 0.596207
vn 0.769788 -0.227956 0.596207
vn 0.769788 -0.227956 0.596207
vn 0.024185 0.575051 0.817760
vn 0.024185 0.575051 0.817760
vn 0.024185 0.575051 0.817760
vn -0.286924 -0.110663 0.951540
vn -0.286924 -0.110663 0.951540
vn -0.286924 -0.110663 0.951540
vn 0.644058 0.044009 0.763710
vn 0.644058 0.044009 0.763710
vn 0.644058 0.044009 0.763710
vn 0.879450 -0.130346 0.457797
vn 0.879450 -0.130346 0.457797
vn 0.879450 -0.130346 0.457797
vn -0.473241 0.027865 -0.880492
vn -0.473241 0.027865 -0.880492
vn -0.473241 0.027865 -0.880492
vn -0.598153 -0.079286 0.797450
vn -0.598153 -0.079286 0.797450
vn -0.598153 -0.079286 0.797450
vn 0.000000 -1.000000 0.000000
vn 0.000000 -1.000000 0.000000
vn 0.000000 -1.000000 0.000000
vn -0.787272 -0.091700 -0.609749
vn -0.787272 -0.091700 -0.609749
vn -0.787272 -0.091700 -0.609749
vn -0.320063 -0.265647 -0.909391
vn -0.320063 -0.265647 -0.909391
vn -0.320063 -0.265647 -0.909391
vn -0.824741 -0.161567 0.541939
vn -0.824741 -0.161567 0.541939
vn -0.824741 -0.161567 0.541939
vn 0.984660 -0.092499 0.147946
vn 0.984660 -0.092499 0.147946
vn 0.984660 -0.092499 0.147946
vn -0.994793 0.012900 -0.101097
vn -0.994793 0.012900 -0.101097
vn -0.994793 0.012900 -0.101097
vn -0.972246 -0.077780 -0.220654
vn -0.972246 -0.077780 -0.220654
vn -0.972246 -0.077780 -0.220654
vn -0.911117 -0.072890 0.405650
vn -0.911117 -0.072890 0.405650
vn -0.911117 -0.072890 0.405650
vn 0.984918 -0.014257 -0.172436
vn 0.984918 -0.014257 -0.172436
vn 0.984918 -0.014257 -0.172436
vn 0.905826 0.072466 0.417406
vn 0.905826 0.072466 0.417406
vn 0.905826 0.072466 0.417406
vn -0.906221 0.229366 0.355183
vn -0.906221 0.229366 0.355183
vn -0.906221 0.229366 0.355183
vn 0.968759 0.000000 -0.248003
vn 0.968759 0.000000 -0.248003
vn 0.968759 0.000000 -0.248003
vn 0.000000 0.363850 0.931457
vn 0.000000 0.363850 0.931457
vn 0.000000 0.363850 0.931457
vn -0.995037 0.099504 0.000000
vn -0.995037 0.099504 0.000000
vn -0.995037 0.099504 0.000000
vn 0.000000 0.363850 -0.931457
vn 0.000000 0.363850 -0.931457
vn 0.000000 0.363850 -0.931457
vn 0.982434 0.144410 -0.118187
vn 0.982434 0.144410 -0.118187
vn 0.982434 0.144410 -0.118187
vn -0.939918 -0.038515 0.339219
vn -0.939918 -0.038515 0.339219
vn -0.939918 -0.038515 0.339219
f 2//2 3//3 4//4
f 1//1 4//4 3//3
f 8//8 6//6 7//7
f 7//7 5//5 9//9
f 7//7 6//6 5//5
f 12//12 11//11 10//10
f 12//12 10//10 13//13
f 14//14 17//17 18//18
f 14//14 16//16 17//17
f 19//19 14//14 18//18
f 15//15 14//14 19//19
f 21//21 24//24 22//22
f 21//21 20//20 24//24
f 20//20 23//23 24//24
f 27//27 28//28 25//25
f 26//26 28//28 27//27
f 31//31 30//30 32//32
f 31//31 29//29 30//30
f 37//37 33//33 34//34
f 35//35 37//37 36//36
f 35//35 33//33 37//37
f 40//40 41//41 39//39
f 39//39 41//41 38//38
f 42//42 43//43 44//44
f 47//47 45//45 46//46
f 50//50 48//48 49//49
f 51//51 53//53 52//52
f 56//56 55//55 54//54
f 58//58 57//57 59//59
f 60//60 61//61 62//62
f 64//64 65//65 63//63
f 68//68 66//66 67//67
f 70//70 69//69 71//71
f 74//74 72//72 73//73
f 75//75 77//77 76//76
f 79//79 80//80 78//78
f 83//83 82//82 81//81
f 86//86 85//85 84//84
f 88//88 89//89 87//87
f 90//90 92//92 91//91
f 95//95 94//94 93//93
f 96//96 97//97 98//98
f 100//100 99//99 101//101
f 104//104 103//103 102//102
f 105//105 106//106 107//107
f 108//108 109//109 110//110
f 113//113 111//111 112//112
f 115//115 114//114 116//116
v 0.0117233 -0.0049250 0.0454143
v 0.0107000 -0.0053000 0.0444000
v 0.0095100 -0.0038000 0.0454900
v 0.0123500 -0.0038000 0.0544000
v 0.0095100 -0.0038000 0.0533100
v 0.0104700 -0.0038000 0.0506500
v 0.0104700 -0.0038000 0.0481500
v 0.0117233 -0.0049250 0.0454143
v 0.0112262 -0.0084500 0.0538750
v 0.0114100 -0.0053000 0.0526250
v 0.0123500 -0.0038000 0.0544000
v 0.0112262 -0.0084500 0.0538750
v 0.0123500 -0.0038000 0.0544000
v 0.0106500 -0.0053000 0.0540850
v 0.0095100 -0.0038000 0.0533100
v 0.0098866 -0.0094000 0.0539200
v 0.0098472 -0.0053000 0.0455011
v 0.0098507 -0.0094000 0.0448800
v 0.0098866 -0.0094000 0.0539200
v 0.0095679 -0.0053000 0.0532733
v 0.0117233 -0.0049250 0.0454143
v 0.0114100 -0.0053000 0.0526250
v 0.0099900 -0.0053000 0.0504640
v 0.0102567 -0.0053000 0.0478400
v 0.0098472 -0.0053000 0.0455011
v 0.0095679 -0.0053000 0.0532733
v 0.0099900 -0.0053000 0.0504640
v 0.0102567 -0.0053000 0.0478400
v 0.0098300 -0.0053000 0.0490800
v 0.0099900 -0.0053000 0.0504640
v 0.0102567 -0.0053000 0.0478400
v 0.0098300 -0.0053000 0.0490800
v 0.0101500 -0.0093000 0.0494000
v 0.0095100 -0.0038000 0.0454900
v 0.0098507 -0.0094000 0.0448800
v 0.0095100 -0.0038000 0.0533100
v 0.0098866 -0.0094000 0.0539200
v 0.0095100 -0.0038000 0.0454900
v 0.0095100 -0.0038000 0.0533100
v 0.0098300 -0.0038000 0.0506500
v 0.0104700 -0.0038000 0.0481500
v 0.0098300 -0.0038000 0.0469000
v 0.0095100 -0.0038000 0.0454900
v 0.0104700 -0.0038000 0.0481500
v 0.0098300 -0.0038000 0.0469000
v 0.0101500 -0.0006000 0.0469000
v 0.0112262 -0.0084500 0.0449250
v 0.0117233 -0.0049250 0.0454143
v 0.0098472 -0.0053000 0.0455011
v 0.0112262 -0.0084500 0.0449250
v 0.0098472 -0.0053000 0.0455011
v 0.0107000 -0.0053000 0.0444000
v 0.0112262 -0.0084500 0.0449250
v 0.0117233 -0.0049250 0.0454143
v 0.0107000 -0.0053000 0.0444000
v 0.0107000 -0.0053000 0.0444000
v 0.0095100 -0.0038000 0.0454900
v 0.0098507 -0.0094000 0.0448800
v 0.0112262 -0.0084500 0.0538750
v 0.0114100 -0.0053000 0.0526250
v 0.0106500 -0.0053000 0.0540850
v 0.0106500 -0.0053000 0.0540850
v 0.0098866 -0.0094000 0.0539200
v 0.0095679 -0.0053000 0.0532733
v 0.0114100 -0.0053000 0.0526250
v 0.0106500 -0.0053000 0.0540850
v 0.0095679 -0.0053000 0.0532733
v 0.0098472 -0.0053000 0.0455011
v 0.0107000 -0.0053000 0.0444000
v 0.0098507 -0.0094000 0.0448800
v 0.0114100 -0.0053000 0.0526250
v 0.0095679 -0.0053000 0.0532733
v 0.0101500 -0.0093000 0.0519000
v 0.0114100 -0.0053000 0.0526250
v 0.0099900 -0.0053000 0.0504640
v 0.0101500 -0.0093000 0.0519000
v 0.0095679 -0.0053000 0.0532733
v 0.0099900 -0.0053000 0.0504640
v 0.0101500 -0.0093000 0.0519000
v 0.0099900 -0.0053000 0.0504640
v 0.0102567 -0.0053000 0.0478400
v 0.0101500 -0.0093000 0.0494000
v 0.0117233 -0.0049250 0.0454143
v 0.0102567 -0.0053000 0.0478400
v 0.0101500 -0.0093000 0.0469000
v 0.0117233 -0.0049250 0.0454143
v 0.0098472 -0.0053000 0.0455011
v 0.0101500 -0.0093000 0.0469000
v 0.0098472 -0.0053000 0.0455011
v 0.0102567 -0.0053000 0.0478400
v 0.0101500 -0.0093000 0.0469000
v 0.0095100 -0.0038000 0.0533100
v 0.0098300 -0.0038000 0.0506500
v 0.0101500 -0.0006000 0.0519000
v 0.0098300 -0.0038000 0.0506500
v 0.0104700 -0.0038000 0.0506500
v 0.0101500 -0.0006000 0.0519000
v 0.0095100 -0.0038000 0.0533100
v 0.0104700 -0.0038000 0.0506500
v 0.0101500 -0.0006000 0.0519000
v 0.0098300 -0.0038000 0.0506500
v 0.0104700 -0.0038000 0.0506500
v 0.0101500 -0.0006000 0.0494000
v 0.0098300 -0.0038000 0.0506500
v 0.0104700 -0.0038000 0.0481500
v 0.0101500 -0.0006000 0.0494000
v 0.0104700 -0.0038000 0.0506500
v 0.0104700 -0.0038000 0.0481500
v 0.0101500 -0.0006000 0.0494000
v 0.0095100 -0.0038000 0.0454900
v 0.0104700 -0.0038000 0.0481500
v 0.0101500 -0.0006000 0.0469000
vn 0.420428 0.836625 -0.351141
vn 0.342449 0.714778 -0.609771
vn 0.421167 0.849919 -0.316633
vn 0.105195 0.993948 -0.031643
vn 0.000000 1.000000 0.000000
vn 0.000000 1.000000 0.000000
vn 0.429347 0.892898 -0.135624
vn 0.842708 -0.538302 0.008624
vn 0.924586 -0.185910 -0.332533
vn 0.907986 -0.391100 -0.150342
vn 0.914971 -0.361703 -0.178884
vn -0.107858 -0.085760 0.990460
vn -0.245376 0.075123 0.966513
vn -0.329773 0.047052 0.942887
vn -0.419263 0.144445 0.896300
vn -0.506329 0.059662 0.860274
vn 0.999714 0.023015 0.006533
vn 0.999991 0.001453 -0.003969
vn 0.998108 0.056986 0.023084
vn 0.995903 0.083049 0.035787
vn 0.170594 -0.985233 -0.014608
vn 0.073944 -0.996078 -0.048589
vn 0.095520 -0.994580 -0.041071
vn 0.293646 -0.955448 0.029842
vn 0.000000 -1.000000 0.000000
vn 0.000000 -1.000000 0.000000
vn 0.000000 -1.000000 0.000000
vn 0.000000 -1.000000 0.000000
vn 0.000000 -1.000000 0.000000
vn -0.990939 -0.070110 0.114559
vn -0.940739 -0.101155 -0.323693
vn -0.989160 -0.088507 -0.117175
vn -0.991544 -0.087025 -0.096268
vn -0.998155 -0.060723 0.000000
vn -0.998005 -0.063108 0.001591
vn -0.997909 -0.064585 0.002575
vn -0.997768 -0.066661 0.003961
vn 0.000000 1.000000 0.000000
vn 0.000000 1.000000 0.000000
vn 0.000000 1.000000 0.000000
vn 0.000000 1.000000 0.000000
vn 0.000000 1.000000 0.000000
vn -0.970596 0.097060 0.220277
vn -0.886608 0.088661 0.453944
vn -0.936762 0.093676 0.337196
vn -0.935853 0.093585 0.339738
vn 0.075121 -0.147485 0.986207
vn 0.075121 -0.147485 0.986207
vn 0.075121 -0.147485 0.986207
vn -0.769790 -0.227955 -0.596204
vn -0.769790 -0.227955 -0.596204
vn -0.769790 -0.227955 -0.596204
vn 0.704096 -0.000736 -0.710105
vn 0.704096 -0.000736 -0.710105
vn 0.704096 -0.000736 -0.710105
vn -0.644061 0.044008 -0.763707
vn -0.644061 0.044008 -0.763707
vn -0.644061 0.044008 -0.763707
vn -0.879450 -0.130345 -0.457798
vn -0.879450 -0.130345 -0.457798
vn -0.879450 -0.130345 -0.457798
vn 0.598149 -0.079287 -0.797453
vn 0.598149 -0.079287 -0.797453
vn 0.598149 -0.079287 -0.797453
vn 0.000000 -1.000000 0.000000
vn 0.000000 -1.000000 0.000000
vn 0.000000 -1.000000 0.000000
vn 0.787274 -0.091700 0.609746
vn 0.787274 -0.091700 0.609746
vn 0.787274 -0.091700 0.609746
vn 0.320063 -0.265647 0.909391
vn 0.320063 -0.265647 0.909391
vn 0.320063 -0.265647 0.909391
vn 0.824740 -0.161566 -0.541941
vn 0.824740 -0.161566 -0.541941
vn 0.824740 -0.161566 -0.541941
vn -0.984660 -0.092499 -0.147946
vn -0.984660 -0.092499 -0.147946
vn -0.984660 -0.092499 -0.147946
vn 0.994793 0.012900 0.101096
vn 0.994793 0.012900 0.101096
vn 0.994793 0.012900 0.101096
vn 0.856772 -0.139516 0.496464
vn 0.856772 -0.139516 0.496464
vn 0.856772 -0.139516 0.496464
vn 0.021971 -0.328555 -0.944229
vn 0.021971 -0.328555 -0.944229
vn 0.021971 -0.328555 -0.944229
vn -0.984918 -0.014258 0.172435
vn -0.984918 -0.014258 0.172435
vn -0.984918 -0.014258 0.172435
vn -0.982434 0.144410 -0.118188
vn -0.982434 0.144410 -0.118188
vn -0.982434 0.144410 -0.118188
vn 0.000000 0.363850 -0.931457
vn 0.000000 0.363850 -0.931457
vn 0.000000 0.363850 -0.931457
vn 0.939919 -0.038515 0.339219
vn 0.939919 -0.038515 0.339219
vn 0.939919 -0.038515 0.339219
vn 0.000000 0.363850 0.931457
vn 0.000000 0.363850 0.931457
vn 0.000000 0.363850 0.931457
vn -0.968760 0.000000 -0.248002
vn -0.968760 0.000000 -0.248002
vn -0.968760 0.000000 -0.248002
vn 0.995037 0.099504 0.000000
vn 0.995037 0.099504 0.000000
vn 0.995037 0.099504 0.000000
vn 0.939919 -0.038515 -0.339219
vn 0.939919 -0.038515 -0.339219
vn 0.939919 -0.038515 -0.339219
f 119//119 117//117 118//118
f 120//120 117//117 123//123
f 120//120 123//123 122//122
f 120//120 122//122 121//121
f 123//123 117//117 119//119
f 125//125 126//126 127//127
f 124//124 127//127 126//126
f 131//131 130//130 129//129
f 128//128 129//129 130//130
f 132//132 130//130 131//131
f 135//135 134//134 133//133
f 135//135 133//133 136//136
f 137//137 139//139 140//140
f 137//137 138//138 139//139
f 142//142 145//145 143//143
f 142//142 141//141 145//145
f 141//141 144//144 145//145
f 147//147 149//149 148//148
f 148//148 149//149 146//146
f 152//152 151//151 153//153
f 152//152 150//150 151//151
f 156//156 158//158 154//154
f 157//157 158//158 156//156
f 155//155 156//156 154//154
f 161//161 160//160 162//162
f 162//162 159//159 161//161
f 163//163 164//164 165//165
f 168//168 166//166 167//167
f 169//169 171//171 170//170
f 174//174 173//173 172//172
f 176//176 175//175 177//177
f 179//179 180//180 178//178
f 183//183 181//181 182//182
f 185//185 184//184 186//186
f 189//189 187//187 188//188
f 190//190 192//192 191//191
f 194//194 195//195 193//193
f 198//198 197//197 196//196
f 201//201 199//199 200//200
f 202//202 204//204 203//203
f 205//205 207//207 206//206
f 209//209 208//208 210//210
f 213//213 212//212 211//211
f 214//214 215//215 216//216
f 217//217 218//218 219//219
f 222//222 221//221 220//220
f 223//223 224//224 225//225
f 227//227 226//226 228//228
