# OMX visual mesh; coordinates in metres
mtllib materials.mtl
usemtl black_electronics
v 0.0203700 -0.0027455 0.0044229
v 0.0210238 -0.0068500 0.0040250
v 0.0224629 -0.0026091 0.0037180
v 0.0221000 0.0010000 0.0060000
v 0.0223994 -0.0078000 0.0130200
v 0.0223635 -0.0078000 0.0039800
v 0.0224028 -0.0037000 0.0123989
v 0.0227477 -0.0037000 0.0041000
v 0.0199000 -0.0029500 0.0130800
v 0.0203700 -0.0027455 0.0044229
v 0.0217334 -0.0037000 0.0051150
v 0.0224028 -0.0037000 0.0123989
v 0.0217800 -0.0037000 0.0077734
v 0.0224200 -0.0037000 0.0097500
v 0.0217800 -0.0037000 0.0110000
v 0.0217334 -0.0037000 0.0051150
v 0.0224028 -0.0037000 0.0123989
v 0.0227477 -0.0037000 0.0041000
v 0.0224200 -0.0037000 0.0072500
v 0.0224200 -0.0037000 0.0097500
v 0.0226334 -0.0022000 0.0121920
v 0.0223994 -0.0078000 0.0130200
v 0.0224629 -0.0026091 0.0037180
v 0.0223635 -0.0078000 0.0039800
v 0.0199000 -0.0029500 0.0130800
v 0.0226334 -0.0022000 0.0121920
v 0.0203700 -0.0027455 0.0044229
v 0.0219400 -0.0022000 0.0070640
v 0.0222067 -0.0022000 0.0094400
v 0.0217800 -0.0022000 0.0106800
v 0.0219400 -0.0022000 0.0070640
v 0.0224200 -0.0022000 0.0085000
v 0.0222067 -0.0022000 0.0094400
v 0.0221000 0.0010000 0.0085000
v 0.0210238 -0.0068500 0.0129750
v 0.0199000 -0.0029500 0.0130800
v 0.0224028 -0.0037000 0.0123989
v 0.0210238 -0.0068500 0.0129750
v 0.0215500 -0.0037000 0.0135000
v 0.0224028 -0.0037000 0.0123989
v 0.0199000 -0.0029500 0.0130800
v 0.0215500 -0.0037000 0.0135000
v 0.0226334 -0.0022000 0.0121920
v 0.0210238 -0.0068500 0.0129750
v 0.0199000 -0.0029500 0.0130800
v 0.0215500 -0.0037000 0.0135000
v 0.0215500 -0.0037000 0.0135000
v 0.0226334 -0.0022000 0.0121920
v 0.0223994 -0.0078000 0.0130200
v 0.0203700 -0.0027455 0.0044229
v 0.0210238 -0.0068500 0.0040250
v 0.0217334 -0.0037000 0.0051150
v 0.0210238 -0.0068500 0.0040250
v 0.0217334 -0.0037000 0.0051150
v 0.0224629 -0.0026091 0.0037180
v 0.0217334 -0.0037000 0.0051150
v 0.0224629 -0.0026091 0.0037180
v 0.0223635 -0.0078000 0.0039800
v 0.0217334 -0.0037000 0.0051150
v 0.0223635 -0.0078000 0.0039800
v 0.0227477 -0.0037000 0.0041000
v 0.0215500 -0.0037000 0.0135000
v 0.0223994 -0.0078000 0.0130200
v 0.0224028 -0.0037000 0.0123989
v 0.0217334 -0.0037000 0.0051150
v 0.0217800 -0.0037000 0.0077734
v 0.0221000 -0.0077000 0.0060000
v 0.0217800 -0.0037000 0.0077734
v 0.0224200 -0.0037000 0.0072500
v 0.0221000 -0.0077000 0.0060000
v 0.0217334 -0.0037000 0.0051150
v 0.0224200 -0.0037000 0.0072500
v 0.0221000 -0.0077000 0.0060000
v 0.0217800 -0.0037000 0.0077734
v 0.0224200 -0.0037000 0.0072500
v 0.0221000 -0.0077000 0.0085000
v 0.0217800 -0.0037000 0.0077734
v 0.0224200 -0.0037000 0.0097500
v 0.0221000 -0.0077000 0.0085000
v 0.0224200 -0.0037000 0.0072500
v 0.0224200 -0.0037000 0.0097500
v 0.0221000 -0.0077000 0.0085000
v 0.0224200 -0.0037000 0.0097500
v 0.0217800 -0.0037000 0.0110000
v 0.0221000 -0.0077000 0.0110000
v 0.0224028 -0.0037000 0.0123989
v 0.0217800 -0.0037000 0.0110000
v 0.0221000 -0.0077000 0.0110000
v 0.0224028 -0.0037000 0.0123989
v 0.0224200 -0.0037000 0.0097500
v 0.0221000 -0.0077000 0.0110000
v 0.0226334 -0.0022000 0.0121920
v 0.0224200 -0.0022000 0.0085000
v 0.0222067 -0.0022000 0.0094400
v 0.0224629 -0.0026091 0.0037180
v 0.0219400 -0.0022000 0.0070640
v 0.0224200 -0.0022000 0.0085000
v 0.0226334 -0.0022000 0.0121920
v 0.0224629 -0.0026091 0.0037180
v 0.0224200 -0.0022000 0.0085000
v 0.0224629 -0.0026091 0.0037180
v 0.0219400 -0.0022000 0.0070640
v 0.0221000 0.0010000 0.0060000
v 0.0203700 -0.0027455 0.0044229
v 0.0219400 -0.0022000 0.0070640
v 0.0221000 0.0010000 0.0060000
v 0.0219400 -0.0022000 0.0070640
v 0.0222067 -0.0022000 0.0094400
v 0.0221000 0.0010000 0.0085000
v 0.0222067 -0.0022000 0.0094400
v 0.0217800 -0.0022000 0.0106800
v 0.0221000 0.0010000 0.0110000
v 0.0226334 -0.0022000 0.0121920
v 0.0222067 -0.0022000 0.0094400
v 0.0221000 0.0010000 0.0110000
v 0.0226334 -0.0022000 0.0121920
v 0.0217800 -0.0022000 0.0106800
v 0.0221000 0.0010000 0.0110000
vn -0.323520 0.254205 -0.911435
vn -0.321278 0.040529 -0.946117
vn -0.322439 0.288226 -0.901642
vn -0.307178 0.486328 -0.818002
vn -0.999991 0.001452 0.003969
vn -0.997346 0.067191 -0.028058
vn -0.999629 0.026043 -0.008009
vn -0.994675 0.094413 -0.041328
vn -0.352322 -0.935135 0.037305
vn -0.538172 -0.842725 -0.013608
vn -0.576963 -0.816707 0.010129
vn -0.256524 -0.959767 0.114209
vn -0.443959 -0.895530 -0.030448
vn 0.000000 -1.000000 0.000000
vn -0.296192 -0.954538 0.033566
vn 0.000000 -1.000000 0.000000
vn 0.000000 -1.000000 0.000000
vn 0.000000 -1.000000 0.000000
vn 0.000000 -1.000000 0.000000
vn 0.000000 -1.000000 0.000000
vn 0.998853 -0.044394 -0.017952
vn 0.999288 -0.035445 -0.012956
vn 0.999561 -0.028253 -0.008940
vn 0.999805 -0.019347 -0.003968
vn -0.295208 0.954245 0.047632
vn -0.224068 0.966334 0.126457
vn -0.334348 0.942441 0.004115
vn -0.322971 0.946371 0.008463
vn -0.300508 0.953760 0.006083
vn -0.476786 0.873244 -0.100597
vn 0.944183 0.094419 -0.315600
vn 0.993860 0.099387 -0.048619
vn 0.970597 0.097060 0.220273
vn 0.989347 0.098935 -0.106790
vn -0.277258 -0.054070 -0.959273
vn -0.277258 -0.054070 -0.959273
vn -0.277258 -0.054070 -0.959273
vn 0.769794 -0.227956 0.596199
vn 0.769794 -0.227956 0.596199
vn 0.769794 -0.227956 0.596199
vn 0.083289 0.620094 0.780094
vn 0.083289 0.620094 0.780094
vn 0.083289 0.620094 0.780094
vn -0.291705 -0.109639 0.950204
vn -0.291705 -0.109639 0.950204
vn -0.291705 -0.109639 0.950204
vn 0.726943 0.070618 0.683057
vn 0.726943 0.070618 0.683057
vn 0.726943 0.070618 0.683057
vn -0.536177 -0.165635 0.827695
vn -0.536177 -0.165635 0.827695
vn -0.536177 -0.165635 0.827695
vn 0.921955 -0.294644 0.251364
vn 0.921955 -0.294644 0.251364
vn 0.921955 -0.294644 0.251364
vn -0.884260 -0.006634 -0.466948
vn -0.884260 -0.006634 -0.466948
vn -0.884260 -0.006634 -0.466948
vn 0.704691 -0.086642 0.704205
vn 0.704691 -0.086642 0.704205
vn 0.704691 -0.086642 0.704205
vn -0.787279 -0.091700 -0.609740
vn -0.787279 -0.091700 -0.609740
vn -0.787279 -0.091700 -0.609740
vn -0.996017 -0.087431 0.017486
vn -0.996017 -0.087431 0.017486
vn -0.996017 -0.087431 0.017486
vn 0.607554 -0.280792 0.742990
vn 0.607554 -0.280792 0.742990
vn 0.607554 -0.280792 0.742990
vn 0.951794 0.019518 -0.306116
vn 0.951794 0.019518 -0.306116
vn 0.951794 0.019518 -0.306116
vn -0.621749 -0.187869 -0.760351
vn -0.621749 -0.187869 -0.760351
vn -0.621749 -0.187869 -0.760351
vn -0.951183 -0.020144 0.307969
vn -0.951183 -0.020144 0.307969
vn -0.951183 -0.020144 0.307969
vn 0.996815 -0.079746 0.000000
vn 0.996815 -0.079746 0.000000
vn 0.996815 -0.079746 0.000000
vn -0.887868 -0.071027 -0.454582
vn -0.887868 -0.071027 -0.454582
vn -0.887868 -0.071027 -0.454582
vn -0.911120 -0.072887 0.405645
vn -0.911120 -0.072887 0.405645
vn -0.911120 -0.072887 0.405645
vn 0.996953 -0.077736 0.006466
vn 0.996953 -0.077736 0.006466
vn 0.996953 -0.077736 0.006466
vn 0.000000 1.000000 0.000000
vn 0.000000 1.000000 0.000000
vn 0.000000 1.000000 0.000000
vn 0.241067 0.967158 -0.080578
vn 0.241067 0.967158 -0.080578
vn 0.241067 0.967158 -0.080578
vn 0.787601 0.614503 -0.045511
vn 0.787601 0.614503 -0.045511
vn 0.787601 0.614503 -0.045511
vn 0.988043 0.001860 0.154167
vn 0.988043 0.001860 0.154167
vn 0.988043 0.001860 0.154167
vn -0.859882 0.199266 0.469996
vn -0.859882 0.199266 0.469996
vn -0.859882 0.199266 0.469996
vn -0.993760 -0.000366 0.111536
vn -0.993760 -0.000366 0.111536
vn -0.993760 -0.000366 0.111536
vn -0.938044 0.126078 -0.322766
vn -0.938044 0.126078 -0.322766
vn -0.938044 0.126078 -0.322766
vn 0.982519 0.107014 -0.152328
vn 0.982519 0.107014 -0.152328
vn 0.982519 0.107014 -0.152328
vn -0.870253 0.037907 0.491144
vn -0.870253 0.037907 0.491144
vn -0.870253 0.037907 0.491144
f 2//2 1//1 3//3
f 3//3 1//1 4//4
f 6//6 5//5 7//7
f 6//6 7//7 8//8
f 13//13 10//10 11//11
f 9//9 10//10 13//13
f 15//15 9//9 13//13
f 14//14 15//15 13//13
f 12//12 9//9 15//15
f 18//18 20//20 19//19
f 18//18 17//17 20//20
f 19//19 16//16 18//18
f 23//23 22//22 24//24
f 23//23 21//21 22//22
f 30//30 25//25 26//26
f 29//29 25//25 30//30
f 28//28 25//25 29//29
f 27//27 25//25 28//28
f 32//32 31//31 34//34
f 34//34 33//33 32//32
f 35//35 36//36 37//37
f 39//39 38//38 40//40
f 43//43 41//41 42//42
f 44//44 46//46 45//45
f 49//49 48//48 47//47
f 50//50 51//51 52//52
f 53//53 55//55 54//54
f 56//56 57//57 58//58
f 60//60 61//61 59//59
f 62//62 64//64 63//63
f 67//67 66//66 65//65
f 68//68 70//70 69//69
f 72//72 73//73 71//71
f 76//76 74//74 75//75
f 77//77 79//79 78//78
f 81//81 82//82 80//80
f 85//85 84//84 83//83
f 87//87 88//88 86//86
f 89//89 91//91 90//90
f 93//93 94//94 92//92
f 95//95 96//96 97//97
f 99//99 100//100 98//98
f 103//103 102//102 101//101
f 104//104 105//105 106//106
f 107//107 108//108 109//109
f 110//110 111//111 112//112
f 115//115 113//113 114//114
f 117//117 116//116 118//118
v 0.0397000 -0.0029500 0.0039200
v 0.0389480 -0.0037000 0.0118600
v 0.0385762 -0.0068500 0.0129750
v 0.0389480 -0.0022000 0.0126280
v 0.0385762 -0.0068500 0.0129750
v 0.0389480 -0.0022000 0.0126280
v 0.0377007 -0.0037000 0.0131125
v 0.0365400 -0.0022000 0.0127733
v 0.0372366 -0.0078000 0.0130200
v 0.0375000 0.0010000 0.0110000
v 0.0375857 -0.0025462 0.0040450
v 0.0372007 -0.0078000 0.0039800
v 0.0377007 -0.0037000 0.0131125
v 0.0372366 -0.0078000 0.0130200
v 0.0371972 -0.0037000 0.0046011
v 0.0371341 -0.0037000 0.0120120
v 0.0397000 -0.0029500 0.0039200
v 0.0389480 -0.0037000 0.0118600
v 0.0371972 -0.0037000 0.0046011
v 0.0373400 -0.0037000 0.0095640
v 0.0376067 -0.0037000 0.0069400
v 0.0378200 -0.0037000 0.0060000
v 0.0371972 -0.0037000 0.0046011
v 0.0371341 -0.0037000 0.0120120
v 0.0373400 -0.0037000 0.0095640
v 0.0376067 -0.0037000 0.0069400
v 0.0371800 -0.0037000 0.0081800
v 0.0373400 -0.0037000 0.0095640
v 0.0376067 -0.0037000 0.0069400
v 0.0371800 -0.0037000 0.0081800
v 0.0375000 -0.0077000 0.0085000
v 0.0375857 -0.0025462 0.0040450
v 0.0372007 -0.0078000 0.0039800
v 0.0365400 -0.0022000 0.0127733
v 0.0372366 -0.0078000 0.0130200
v 0.0371800 -0.0022000 0.0085000
v 0.0373934 -0.0022000 0.0075600
v 0.0397000 -0.0029500 0.0039200
v 0.0375857 -0.0025462 0.0040450
v 0.0389480 -0.0022000 0.0126280
v 0.0376600 -0.0022000 0.0099360
v 0.0373934 -0.0022000 0.0075600
v 0.0378200 -0.0022000 0.0063200
v 0.0376600 -0.0022000 0.0099360
v 0.0371800 -0.0022000 0.0085000
v 0.0373934 -0.0022000 0.0075600
v 0.0375000 0.0010000 0.0085000
v 0.0375857 -0.0025462 0.0040450
v 0.0373934 -0.0022000 0.0075600
v 0.0378200 -0.0022000 0.0063200
v 0.0375000 0.0010000 0.0060000
v 0.0385762 -0.0068500 0.0040250
v 0.0397000 -0.0029500 0.0039200
v 0.0371972 -0.0037000 0.0046011
v 0.0385762 -0.0068500 0.0040250
v 0.0375857 -0.0025462 0.0040450
v 0.0371972 -0.0037000 0.0046011
v 0.0385762 -0.0068500 0.0040250
v 0.0397000 -0.0029500 0.0039200
v 0.0375857 -0.0025462 0.0040450
v 0.0389480 -0.0037000 0.0118600
v 0.0385762 -0.0068500 0.0129750
v 0.0377007 -0.0037000 0.0131125
v 0.0389480 -0.0037000 0.0118600
v 0.0377007 -0.0037000 0.0131125
v 0.0371341 -0.0037000 0.0120120
v 0.0389480 -0.0037000 0.0118600
v 0.0371341 -0.0037000 0.0120120
v 0.0375000 -0.0077000 0.0110000
v 0.0389480 -0.0037000 0.0118600
v 0.0373400 -0.0037000 0.0095640
v 0.0375000 -0.0077000 0.0110000
v 0.0371341 -0.0037000 0.0120120
v 0.0373400 -0.0037000 0.0095640
v 0.0375000 -0.0077000 0.0110000
v 0.0373400 -0.0037000 0.0095640
v 0.0376067 -0.0037000 0.0069400
v 0.0375000 -0.0077000 0.0085000
v 0.0376067 -0.0037000 0.0069400
v 0.0378200 -0.0037000 0.0060000
v 0.0375000 -0.0077000 0.0060000
v 0.0371972 -0.0037000 0.0046011
v 0.0378200 -0.0037000 0.0060000
v 0.0375000 -0.0077000 0.0060000
v 0.0371972 -0.0037000 0.0046011
v 0.0376067 -0.0037000 0.0069400
v 0.0375000 -0.0077000 0.0060000
v 0.0365400 -0.0022000 0.0127733
v 0.0376600 -0.0022000 0.0099360
v 0.0371800 -0.0022000 0.0085000
v 0.0365400 -0.0022000 0.0127733
v 0.0376600 -0.0022000 0.0099360
v 0.0375000 0.0010000 0.0110000
v 0.0389480 -0.0022000 0.0126280
v 0.0376600 -0.0022000 0.0099360
v 0.0375000 0.0010000 0.0110000
v 0.0376600 -0.0022000 0.0099360
v 0.0373934 -0.0022000 0.0075600
v 0.0375000 0.0010000 0.0085000
v 0.0375857 -0.0025462 0.0040450
v 0.0373934 -0.0022000 0.0075600
v 0.0375000 0.0010000 0.0060000
vn 0.994889 -0.046019 0.089880
vn 0.991720 -0.058527 0.114309
vn 0.988478 -0.068984 0.134734
vn 0.992919 -0.054138 0.105738
vn 0.313460 0.045717 0.948500
vn 0.117180 0.312491 0.942665
vn 0.020540 0.083292 0.996313
vn -0.009233 0.317452 0.948229
vn -0.269927 0.008834 0.962840
vn 0.053118 0.471793 0.880108
vn 0.880328 -0.070319 0.469125
vn 0.999039 -0.005732 0.043444
vn 0.885478 -0.089958 -0.455891
vn 0.996703 -0.001440 -0.081124
vn 0.957675 -0.039325 0.285152
vn 0.980462 -0.023516 -0.195297
vn 0.272856 -0.960571 -0.053421
vn 0.117578 -0.989644 -0.082345
vn 0.256527 -0.959766 -0.114209
vn 0.153384 -0.985901 -0.066875
vn 0.398567 -0.915839 0.048826
vn 0.405951 -0.913118 0.037669
vn 0.000000 -1.000000 0.000000
vn 0.000000 -1.000000 0.000000
vn 0.000000 -1.000000 0.000000
vn 0.000000 -1.000000 0.000000
vn 0.000000 -1.000000 0.000000
vn -0.990938 -0.070110 0.114566
vn -0.940739 -0.101155 -0.323694
vn -0.989160 -0.088507 -0.117172
vn -0.991544 -0.087025 -0.096265
vn -0.986356 0.109448 -0.122975
vn -0.997073 0.002365 -0.076421
vn -0.998444 -0.037621 -0.041171
vn -0.992366 -0.123264 0.003939
vn -0.780765 0.613434 -0.118765
vn -0.493299 0.862626 -0.111949
vn 0.222249 0.970047 -0.098053
vn 0.175560 0.970418 -0.165734
vn 0.150357 0.986011 -0.071938
vn 0.169178 0.983424 -0.065234
vn 0.300512 0.953759 -0.006083
vn 0.496707 0.859514 0.120492
vn -0.944185 0.094415 0.315597
vn -0.993861 0.099382 0.048621
vn -0.970599 0.097056 -0.220267
vn -0.989348 0.098931 0.106785
vn 0.989488 0.087425 -0.115199
vn 0.938047 0.126077 0.322756
vn 0.988108 0.109592 0.107849
vn 0.993061 0.104664 0.053618
vn 0.277255 -0.054068 0.959274
vn 0.277255 -0.054068 0.959274
vn 0.277255 -0.054068 0.959274
vn -0.644493 -0.144832 -0.750768
vn -0.644493 -0.144832 -0.750768
vn -0.644493 -0.144832 -0.750768
vn -0.060792 -0.009353 -0.998107
vn -0.060792 -0.009353 -0.998107
vn -0.060792 -0.009353 -0.998107
vn -0.699004 -0.163886 -0.696085
vn -0.699004 -0.163886 -0.696085
vn -0.699004 -0.163886 -0.696085
vn 0.000000 -1.000000 0.000000
vn 0.000000 -1.000000 0.000000
vn 0.000000 -1.000000 0.000000
vn 0.081113 -0.237484 0.967999
vn 0.081113 -0.237484 0.967999
vn 0.081113 -0.237484 0.967999
vn 0.807088 -0.170637 -0.565237
vn 0.807088 -0.170637 -0.565237
vn 0.807088 -0.170637 -0.565237
vn -0.994053 -0.069775 -0.083605
vn -0.994053 -0.069775 -0.083605
vn -0.994053 -0.069775 -0.083605
vn 0.994793 0.012900 0.101093
vn 0.994793 0.012900 0.101093
vn 0.994793 0.012900 0.101093
vn 0.972249 -0.077777 0.220641
vn 0.972249 -0.077777 0.220641
vn 0.972249 -0.077777 0.220641
vn 0.911122 -0.072887 -0.405641
vn 0.911122 -0.072887 -0.405641
vn 0.911122 -0.072887 -0.405641
vn -0.984919 -0.014258 0.172430
vn -0.984919 -0.014258 0.172430
vn -0.984919 -0.014258 0.172430
vn 0.000000 1.000000 0.000000
vn 0.000000 1.000000 0.000000
vn 0.000000 1.000000 0.000000
vn -0.927510 0.075362 -0.366121
vn -0.927510 0.075362 -0.366121
vn -0.927510 0.075362 -0.366121
vn 0.886439 0.185340 -0.424117
vn 0.886439 0.185340 -0.424117
vn 0.886439 0.185340 -0.424117
vn 0.993761 -0.000362 -0.111529
vn 0.993761 -0.000362 -0.111529
vn 0.993761 -0.000362 -0.111529
vn -0.998451 0.006337 -0.055269
vn -0.998451 0.006337 -0.055269
vn -0.998451 0.006337 -0.055269
f 121//121 120//120 122//122
f 119//119 122//122 120//120
f 126//126 125//125 124//124
f 123//123 124//124 125//125
f 127//127 125//125 126//126
f 126//126 124//124 128//128
f 131//131 132//132 134//134
f 129//129 133//133 130//130
f 132//132 130//130 133//133
f 132//132 133//133 134//134
f 135//135 138//138 139//139
f 135//135 136//136 138//138
f 140//140 135//135 139//139
f 137//137 135//135 140//140
f 141//141 144//144 145//145
f 142//142 141//141 145//145
f 142//142 145//145 143//143
f 147//147 149//149 148//148
f 148//148 149//149 146//146
f 152//152 154//154 150//150
f 154//154 155//155 150//150
f 152//152 150//150 151//151
f 152//152 151//151 153//153
f 160//160 156//156 161//161
f 159//159 156//156 160//160
f 158//158 156//156 159//159
f 161//161 156//156 157//157
f 163//163 162//162 165//165
f 165//165 164//164 163//163
f 167//167 168//168 169//169
f 168//168 166//166 169//169
f 170//170 171//171 172//172
f 174//174 173//173 175//175
f 176//176 178//178 177//177
f 179//179 180//180 181//181
f 184//184 182//182 183//183
f 187//187 185//185 186//186
f 188//188 190//190 189//189
f 192//192 193//193 191//191
f 196//196 195//195 194//194
f 199//199 198//198 197//197
f 201//201 202//202 200//200
f 203//203 205//205 204//204
f 206//206 207//207 208//208
f 211//211 210//210 209//209
f 212//212 213//213 214//214
f 215//215 216//216 217//217
f 220//220 218//218 219//219
