# OMX visual mesh; coordinates in metres
mtllib materials.mtl
usemtl black_electronics
v -0.0099000 -0.0031500 0.0375800
v -0.0091480 -0.0039000 0.0296400
v -0.0087762 -0.0070500 0.0285250
v -0.0091480 -0.0024000 0.0288720
v -0.0087762 -0.0070500 0.0285250
v -0.0091480 -0.0024000 0.0288720
v -0.0079007 -0.0039000 0.0283875
v -0.0067400 -0.0024000 0.0287267
v -0.0074366 -0.0080000 0.0284800
v -0.0077000 0.0008000 0.0305000
v -0.0077857 -0.0027462 0.0374550
v -0.0074007 -0.0080000 0.0375200
v -0.0079007 -0.0039000 0.0283875
v -0.0074366 -0.0080000 0.0284800
v -0.0073972 -0.0039000 0.0368989
v -0.0073341 -0.0039000 0.0294880
v -0.0099000 -0.0031500 0.0375800
v -0.0091480 -0.0039000 0.0296400
v -0.0073972 -0.0039000 0.0368989
v -0.0075400 -0.0039000 0.0319360
v -0.0078067 -0.0039000 0.0345600
v -0.0080200 -0.0039000 0.0355000
v -0.0073972 -0.0039000 0.0368989
v -0.0073341 -0.0039000 0.0294880
v -0.0075400 -0.0039000 0.0319360
v -0.0078067 -0.0039000 0.0345600
v -0.0073800 -0.0039000 0.0333200
v -0.0075400 -0.0039000 0.0319360
v -0.0078067 -0.0039000 0.0345600
v -0.0073800 -0.0039000 0.0333200
v -0.0077000 -0.0079000 0.0330000
v -0.0077857 -0.0027462 0.0374550
v -0.0074007 -0.0080000 0.0375200
v -0.0067400 -0.0024000 0.0287267
v -0.0074366 -0.0080000 0.0284800
v -0.0073800 -0.0024000 0.0330000
v -0.0075933 -0.0024000 0.0339400
v -0.0099000 -0.0031500 0.0375800
v -0.0077857 -0.0027462 0.0374550
v -0.0091480 -0.0024000 0.0288720
v -0.0078600 -0.0024000 0.0315640
v -0.0075933 -0.0024000 0.0339400
v -0.0080200 -0.0024000 0.0351800
v -0.0078600 -0.0024000 0.0315640
v -0.0073800 -0.0024000 0.0330000
v -0.0075933 -0.0024000 0.0339400
v -0.0077000 0.0008000 0.0330000
v -0.0077857 -0.0027462 0.0374550
v -0.0075933 -0.0024000 0.0339400
v -0.0080200 -0.0024000 0.0351800
v -0.0077000 0.0008000 0.0355000
v -0.0087762 -0.0070500 0.0374750
v -0.0099000 -0.0031500 0.0375800
v -0.0073972 -0.0039000 0.0368989
v -0.0087762 -0.0070500 0.0374750
v -0.0077857 -0.0027462 0.0374550
v -0.0073972 -0.0039000 0.0368989
v -0.0087762 -0.0070500 0.0374750
v -0.0099000 -0.0031500 0.0375800
v -0.0077857 -0.0027462 0.0374550
v -0.0091480 -0.0039000 0.0296400
v -0.0087762 -0.0070500 0.0285250
v -0.0079007 -0.0039000 0.0283875
v -0.0091480 -0.0039000 0.0296400
v -0.0079007 -0.0039000 0.0283875
v -0.0073341 -0.0039000 0.0294880
v -0.0091480 -0.0039000 0.0296400
v -0.0073341 -0.0039000 0.0294880
v -0.0077000 -0.0079000 0.0305000
v -0.0091480 -0.0039000 0.0296400
v -0.0075400 -0.0039000 0.0319360
v -0.0077000 -0.0079000 0.0305000
v -0.0073341 -0.0039000 0.0294880
v -0.0075400 -0.0039000 0.0319360
v -0.0077000 -0.0079000 0.0305000
v -0.0075400 -0.0039000 0.0319360
v -0.0078067 -0.0039000 0.0345600
v -0.0077000 -0.0079000 0.0330000
v -0.0078067 -0.0039000 0.0345600
v -0.0080200 -0.0039000 0.0355000
v -0.0077000 -0.0079000 0.0355000
v -0.0073972 -0.0039000 0.0368989
v -0.0080200 -0.0039000 0.0355000
v -0.0077000 -0.0079000 0.0355000
v -0.0073972 -0.0039000 0.0368989
v -0.0078067 -0.0039000 0.0345600
v -0.0077000 -0.0079000 0.0355000
v -0.0067400 -0.0024000 0.0287267
v -0.0078600 -0.0024000 0.0315640
v -0.0073800 -0.0024000 0.0330000
v -0.0067400 -0.0024000 0.0287267
v -0.0078600 -0.0024000 0.0315640
v -0.0077000 0.0008000 0.0305000
v -0.0091480 -0.0024000 0.0288720
v -0.0078600 -0.0024000 0.0315640
v -0.0077000 0.0008000 0.0305000
v -0.0078600 -0.0024000 0.0315640
v -0.0075933 -0.0024000 0.0339400
v -0.0077000 0.0008000 0.0330000
v -0.0077857 -0.0027462 0.0374550
v -0.0075933 -0.0024000 0.0339400
v -0.0077000 0.0008000 0.0355000
vn -0.994889 -0.046019 -0.089879
vn -0.991720 -0.058527 -0.114309
vn -0.988478 -0.068985 -0.134734
vn -0.992919 -0.054138 -0.105738
vn -0.313455 0.045717 -0.948502
vn -0.117180 0.312490 -0.942666
vn -0.020537 0.083293 -0.996313
vn 0.009232 0.317452 -0.948229
vn 0.269928 0.008836 -0.962840
vn -0.053118 0.471792 -0.880108
vn -0.880323 -0.070320 -0.469134
vn -0.999039 -0.005731 -0.043446
vn -0.885481 -0.089958 0.455886
vn -0.996703 -0.001441 0.081123
vn -0.957674 -0.039326 -0.285157
vn -0.980463 -0.023517 0.195295
vn -0.272854 -0.960571 0.053422
vn -0.117576 -0.989644 0.082345
vn -0.256524 -0.959766 0.114211
vn -0.153383 -0.985901 0.066875
vn -0.398569 -0.915838 -0.048828
vn -0.405957 -0.913116 -0.037674
vn 0.000000 -1.000000 0.000000
vn 0.000000 -1.000000 0.000000
vn 0.000000 -1.000000 0.000000
vn 0.000000 -1.000000 0.000000
vn 0.000000 -1.000000 0.000000
vn 0.990939 -0.070110 -0.114559
vn 0.940738 -0.101156 0.323697
vn 0.989159 -0.088507 0.117177
vn 0.991544 -0.087025 0.096268
vn 0.986356 0.109448 0.122975
vn 0.997073 0.002367 0.076421
vn 0.998444 -0.037622 0.041171
vn 0.992366 -0.123263 -0.003939
vn 0.780805 0.613382 0.118767
vn 0.493281 0.862636 0.111950
vn -0.222248 0.970047 0.098052
vn -0.175560 0.970418 0.165734
vn -0.150356 0.986011 0.071938
vn -0.169177 0.983424 0.065234
vn -0.300511 0.953759 0.006083
vn -0.496722 0.859503 -0.120504
vn 0.944182 0.094418 -0.315605
vn 0.993860 0.099386 -0.048620
vn 0.970597 0.097060 0.220276
vn 0.989347 0.098935 -0.106788
vn -0.989487 0.087429 0.115202
vn -0.938042 0.126082 -0.322769
vn -0.988107 0.109596 -0.107854
vn -0.993061 0.104668 -0.053620
vn -0.277259 -0.054067 -0.959273
vn -0.277259 -0.054067 -0.959273
vn -0.277259 -0.054067 -0.959273
vn 0.644489 -0.144832 0.750771
vn 0.644489 -0.144832 0.750771
vn 0.644489 -0.144832 0.750771
vn 0.060796 -0.009354 0.998106
vn 0.060796 -0.009354 0.998106
vn 0.060796 -0.009354 0.998106
vn 0.698999 -0.163888 0.696090
vn 0.698999 -0.163888 0.696090
vn 0.698999 -0.163888 0.696090
vn 0.000000 -1.000000 0.000000
vn 0.000000 -1.000000 0.000000
vn 0.000000 -1.000000 0.000000
vn -0.081116 -0.237483 -0.967999
vn -0.081116 -0.237483 -0.967999
vn -0.081116 -0.237483 -0.967999
vn -0.807084 -0.170638 0.565241
vn -0.807084 -0.170638 0.565241
vn -0.807084 -0.170638 0.565241
vn 0.994054 -0.069775 0.083600
vn 0.994054 -0.069775 0.083600
vn 0.994054 -0.069775 0.083600
vn -0.994793 0.012900 -0.101097
vn -0.994793 0.012900 -0.101097
vn -0.994793 0.012900 -0.101097
vn -0.972246 -0.077780 -0.220652
vn -0.972246 -0.077780 -0.220652
vn -0.972246 -0.077780 -0.220652
vn -0.911117 -0.072889 0.405651
vn -0.911117 -0.072889 0.405651
vn -0.911117 -0.072889 0.405651
vn 0.984918 -0.014258 -0.172435
vn 0.984918 -0.014258 -0.172435
vn 0.984918 -0.014258 -0.172435
vn 0.000000 1.000000 0.000000
vn 0.000000 1.000000 0.000000
vn 0.000000 1.000000 0.000000
vn 0.927510 0.075360 0.366122
vn 0.927510 0.075360 0.366122
vn 0.927510 0.075360 0.366122
vn -0.886437 0.185342 0.424120
vn -0.886437 0.185342 0.424120
vn -0.886437 0.185342 0.424120
vn -0.993761 -0.000362 0.111533
vn -0.993761 -0.000362 0.111533
vn -0.993761 -0.000362 0.111533
vn 0.998451 0.006337 0.055271
vn 0.998451 0.006337 0.055271
vn 0.998451 0.006337 0.055271
f 3//3 2//2 4//4
f 1//1 4//4 2//2
f 8//8 7//7 6//6
f 5//5 6//6 7//7
f 9//9 7//7 8//8
f 8//8 6//6 10//10
f 13//13 14//14 16//16
f 11//11 15//15 12//12
f 14//14 12//12 15//15
f 14//14 15//15 16//16
f 17//17 20//20 21//21
f 17//17 18//18 20//20
f 22//22 17//17 21//21
f 19//19 17//17 22//22
f 23//23 26//26 27//27
f 24//24 23//23 27//27
f 24//24 27//27 25//25
f 29//29 31//31 30//30
f 30//30 31//31 28//28
f 34//34 36//36 32//32
f 36//36 37//37 32//32
f 34//34 32//32 33//33
f 34//34 33//33 35//35
f 42//42 38//38 43//43
f 41//41 38//38 42//42
f 40//40 38//38 41//41
f 43//43 38//38 39//39
f 45//45 44//44 47//47
f 47//47 46//46 45//45
f 49//49 50//50 51//51
f 50//50 48//48 51//51
f 52//52 53//53 54//54
f 56//56 55//55 57//57
f 58//58 60//60 59//59
f 61//61 62//62 63//63
f 66//66 64//64 65//65
f 69//69 67//67 68//68
f 70//70 72//72 71//71
f 74//74 75//75 73//73
f 78//78 77//77 76//76
f 81//81 80//80 79//79
f 83//83 84//84 82//82
f 85//85 87//87 86//86
f 88//88 89//89 90//90
f 93//93 92//92 91//91
f 94//94 95//95 96//96
f 97//97 98//98 99//99
f 102//102 100//100 101//101
v 0.0099000 -0.0031500 0.0284200
v 0.0091480 -0.0039000 0.0363600
v 0.0087762 -0.0070500 0.0374750
v 0.0091480 -0.0024000 0.0371280
v 0.0087762 -0.0070500 0.0374750
v 0.0091480 -0.0024000 0.0371280
v 0.0079007 -0.0039000 0.0376125
v 0.0067400 -0.0024000 0.0372733
v 0.0074366 -0.0080000 0.0375200
v 0.0077000 0.0008000 0.0355000
v 0.0077857 -0.0027462 0.0285450
v 0.0074007 -0.0080000 0.0284800
v 0.0079007 -0.0039000 0.0376125
v 0.0074366 -0.0080000 0.0375200
v 0.0073972 -0.0039000 0.0291011
v 0.0073341 -0.0039000 0.0365120
v 0.0099000 -0.0031500 0.0284200
v 0.0091480 -0.0039000 0.0363600
v 0.0073972 -0.0039000 0.0291011
v 0.0075400 -0.0039000 0.0340640
v 0.0078067 -0.0039000 0.0314400
v 0.0080200 -0.0039000 0.0305000
v 0.0073972 -0.0039000 0.0291011
v 0.0073341 -0.0039000 0.0365120
v 0.0075400 -0.0039000 0.0340640
v 0.0078067 -0.0039000 0.0314400
v 0.0073800 -0.0039000 0.0326800
v 0.0075400 -0.0039000 0.0340640
v 0.0078067 -0.0039000 0.0314400
v 0.0073800 -0.0039000 0.0326800
v 0.0077000 -0.0079000 0.0330000
v 0.0077857 -0.0027462 0.0285450
v 0.0074007 -0.0080000 0.0284800
v 0.0067400 -0.0024000 0.0372733
v 0.0074366 -0.0080000 0.0375200
v 0.0073800 -0.0024000 0.0330000
v 0.0075933 -0.0024000 0.0320600
v 0.0099000 -0.0031500 0.0284200
v 0.0077857 -0.0027462 0.0285450
v 0.0091480 -0.0024000 0.0371280
v 0.0078600 -0.0024000 0.0344360
v 0.0075933 -0.0024000 0.0320600
v 0.0080200 -0.0024000 0.0308200
v 0.0078600 -0.0024000 0.0344360
v 0.0073800 -0.0024000 0.0330000
v 0.0075933 -0.0024000 0.0320600
v 0.0077000 0.0008000 0.0330000
v 0.0077857 -0.0027462 0.0285450
v 0.0075933 -0.0024000 0.0320600
v 0.0080200 -0.0024000 0.0308200
v 0.0077000 0.0008000 0.0305000
v 0.0087762 -0.0070500 0.0285250
v 0.0099000 -0.0031500 0.0284200
v 0.0073972 -0.0039000 0.0291011
v 0.0087762 -0.0070500 0.0285250
v 0.0077857 -0.0027462 0.0285450
v 0.0073972 -0.0039000 0.0291011
v 0.0087762 -0.0070500 0.0285250
v 0.0099000 -0.0031500 0.0284200
v 0.0077857 -0.0027462 0.0285450
v 0.0091480 -0.0039000 0.0363600
v 0.0087762 -0.0070500 0.0374750
v 0.0079007 -0.0039000 0.0376125
v 0.0091480 -0.0039000 0.0363600
v 0.0079007 -0.0039000 0.0376125
v 0.0073341 -0.0039000 0.0365120
v 0.0091480 -0.0039000 0.0363600
v 0.0073341 -0.0039000 0.0365120
v 0.0077000 -0.0079000 0.0355000
v 0.0091480 -0.0039000 0.0363600
v 0.0075400 -0.0039000 0.0340640
v 0.0077000 -0.0079000 0.0355000
v 0.0073341 -0.0039000 0.0365120
v 0.0075400 -0.0039000 0.0340640
v 0.0077000 -0.0079000 0.0355000
v 0.0075400 -0.0039000 0.0340640
v 0.0078067 -0.0039000 0.0314400
v 0.0077000 -0.0079000 0.0330000
v 0.0078067 -0.0039000 0.0314400
v 0.0080200 -0.0039000 0.0305000
v 0.0077000 -0.0079000 0.0305000
v 0.0073972 -0.0039000 0.0291011
v 0.0080200 -0.0039000 0.0305000
v 0.0077000 -0.0079000 0.0305000
v 0.0073972 -0.0039000 0.0291011
v 0.0078067 -0.0039000 0.0314400
v 0.0077000 -0.0079000 0.0305000
v 0.0067400 -0.0024000 0.0372733
v 0.0078600 -0.0024000 0.0344360
v 0.0073800 -0.0024000 0.0330000
v 0.0067400 -0.0024000 0.0372733
v 0.0078600 -0.0024000 0.0344360
v 0.0077000 0.0008000 0.0355000
v 0.0091480 -0.0024000 0.0371280
v 0.0078600 -0.0024000 0.0344360
v 0.0077000 0.0008000 0.0355000
v 0.0078600 -0.0024000 0.0344360
v 0.0075933 -0.0024000 0.0320600
v 0.0077000 0.0008000 0.0330000
v 0.0077857 -0.0027462 0.0285450
v 0.0075933 -0.0024000 0.0320600
v 0.0077000 0.0008000 0.0305000
vn 0.994889 -0.046019 0.089879
vn 0.991720 -0.058527 0.114310
vn 0.988477 -0.068985 0.134735
vn 0.992919 -0.054138 0.105738
vn 0.313457 0.045716 0.948501
vn 0.117181 0.312489 0.942666
vn 0.020538 0.083292 0.996314
vn -0.009232 0.317452 0.948229
vn -0.269928 0.008836 0.962840
vn 0.053118 0.471792 0.880108
vn 0.880321 -0.070320 0.469137
vn 0.999039 -0.005731 0.043446
vn 0.885481 -0.089958 -0.455885
vn 0.996703 -0.001441 -0.081123
vn 0.957673 -0.039326 0.285160
vn 0.980463 -0.023518 -0.195295
vn 0.272854 -0.960571 -0.053421
vn 0.117576 -0.989644 -0.082345
vn 0.256525 -0.959766 -0.114210
vn 0.153383 -0.985901 -0.066875
vn 0.398569 -0.915838 0.048828
vn 0.405957 -0.913116 0.037674
vn 0.000000 -1.000000 0.000000
vn 0.000000 -1.000000 0.000000
vn 0.000000 -1.000000 0.000000
vn 0.000000 -1.000000 0.000000
vn 0.000000 -1.000000 0.000000
vn -0.990939 -0.070110 0.114558
vn -0.940738 -0.101155 -0.323697
vn -0.989159 -0.088507 -0.117177
vn -0.991544 -0.087025 -0.096268
vn -0.986356 0.109448 -0.122975
vn -0.997073 0.002367 -0.076421
vn -0.998444 -0.037623 -0.041171
vn -0.992366 -0.123263 0.003939
vn -0.780805 0.613383 -0.118767
vn -0.493275 0.862640 -0.111949
vn 0.222248 0.970047 -0.098053
vn 0.175560 0.970418 -0.165734
vn 0.150356 0.986011 -0.071938
vn 0.169177 0.983424 -0.065234
vn 0.300510 0.953759 -0.006083
vn 0.496721 0.859504 0.120503
vn -0.944182 0.094418 0.315603
vn -0.993860 0.099386 0.048618
vn -0.970596 0.097060 -0.220278
vn -0.989347 0.098935 0.106788
vn 0.989487 0.087428 -0.115203
vn 0.938043 0.126081 0.322767
vn 0.988107 0.109596 0.107853
vn 0.993061 0.104668 0.053620
vn 0.277256 -0.054067 0.959274
vn 0.277256 -0.054067 0.959274
vn 0.277256 -0.054067 0.959274
vn -0.644485 -0.144831 -0.750775
vn -0.644485 -0.144831 -0.750775
vn -0.644485 -0.144831 -0.750775
vn -0.060796 -0.009354 -0.998106
vn -0.060796 -0.009354 -0.998106
vn -0.060796 -0.009354 -0.998106
vn -0.698999 -0.163887 -0.696090
vn -0.698999 -0.163887 -0.696090
vn -0.698999 -0.163887 -0.696090
vn 0.000000 -1.000000 0.000000
vn 0.000000 -1.000000 0.000000
vn 0.000000 -1.000000 0.000000
vn 0.081116 -0.237483 0.967999
vn 0.081116 -0.237483 0.967999
vn 0.081116 -0.237483 0.967999
vn 0.807084 -0.170638 -0.565242
vn 0.807084 -0.170638 -0.565242
vn 0.807084 -0.170638 -0.565242
vn -0.994054 -0.069774 -0.083600
vn -0.994054 -0.069774 -0.083600
vn -0.994054 -0.069774 -0.083600
vn 0.994793 0.012900 0.101097
vn 0.994793 0.012900 0.101097
vn 0.994793 0.012900 0.101097
vn 0.972247 -0.077780 0.220651
vn 0.972247 -0.077780 0.220651
vn 0.972247 -0.077780 0.220651
vn 0.911118 -0.072889 -0.405649
vn 0.911118 -0.072889 -0.405649
vn 0.911118 -0.072889 -0.405649
vn -0.984918 -0.014258 0.172435
vn -0.984918 -0.014258 0.172435
vn -0.984918 -0.014258 0.172435
vn 0.000000 1.000000 0.000000
vn 0.000000 1.000000 0.000000
vn 0.000000 1.000000 0.000000
vn -0.927510 0.075360 -0.366122
vn -0.927510 0.075360 -0.366122
vn -0.927510 0.075360 -0.366122
vn 0.886437 0.185342 -0.424119
vn 0.886437 0.185342 -0.424119
vn 0.886437 0.185342 -0.424119
vn 0.993761 -0.000363 -0.111533
vn 0.993761 -0.000363 -0.111533
vn 0.993761 -0.000363 -0.111533
vn -0.998451 0.006337 -0.055271
vn -0.998451 0.006337 -0.055271
vn -0.998451 0.006337 -0.055271
f 105//105 104//104 106//106
f 103//103 106//106 104//104
f 110//110 109//109 108//108
f 107//107 108//108 109//109
f 111//111 109//109 110//110
f 110//110 108//108 112//112
f 115//115 116//116 118//118
f 113//113 117//117 114//114
f 116//116 114//114 117//117
f 116//116 117//117 118//118
f 119//119 122//122 123//123
f 119//119 120//120 122//122
f 124//124 119//119 123//123
f 121//121 119//119 124//124
f 125//125 128//128 129//129
f 126//126 125//125 129//129
f 126//126 129//129 127//127
f 131//131 133//133 132//132
f 132//132 133//133 130//130
f 136//136 138//138 134//134
f 138//138 139//139 134//134
f 136//136 134//134 135//135
f 136//136 135//135 137//137
f 144//144 140//140 145//145
f 143//143 140//140 144//144
f 142//142 140//140 143//143
f 145//145 140//140 141//141
f 147//147 146//146 149//149
f 149//149 148//148 147//147
f 151//151 152//152 153//153
f 152//152 150//150 153//153
f 154//154 155//155 156//156
f 158//158 157//157 159//159
f 160//160 162//162 161//161
f 163//163 164//164 165//165
f 168//168 166//166 167//167
f 171//171 169//169 170//170
f 172//172 174//174 173//173
f 176//176 177//177 175//175
f 180//180 179//179 178//178
f 183//183 182//182 181//181
f 185//185 186//186 184//184
f 187//187 189//189 188//188
f 190//190 191//191 192//192
f 195//195 194//194 193//193
f 196//196 197//197 198//198
f 199//199 200//200 201//201
f 204//204 202//202 203//203
