# OMX visual mesh; coordinates in metres
mtllib materials.mtl
usemtl bic30_rev02_silk
v 0.0578886 0.0018684 -0.0112350
v 0.0579094 0.0018940 -0.0112350
v 0.0579381 0.0019046 -0.0112350
v 0.0579684 0.0019002 -0.0112350
v 0.0579940 0.0018795 -0.0112350
v 0.0580046 0.0018508 -0.0112350
v 0.0580046 0.0018380 -0.0112450
v 0.0578836 0.0018413 -0.0112450
v 0.0578895 0.0018690 -0.0112450
v 0.0579028 0.0018883 -0.0112450
v 0.0579251 0.0019016 -0.0112450
v 0.0579556 0.0019044 -0.0112450
v 0.0579831 0.0018908 -0.0112450
v 0.0580002 0.0018684 -0.0112450
v 0.0579986 0.0018159 -0.0112350
v 0.0579671 0.0017876 -0.0112350
v 0.0579319 0.0017852 -0.0112350
v 0.0579084 0.0017960 -0.0112350
v 0.0578913 0.0018155 -0.0112350
v 0.0578842 0.0018404 -0.0112350
v 0.0579915 0.0018053 -0.0112450
v 0.0579638 0.0017872 -0.0112450
v 0.0579404 0.0017842 -0.0112450
v 0.0579176 0.0017903 -0.0112450
v 0.0578958 0.0018081 -0.0112450
v 0.0578886 0.0018684 -0.0112350
v 0.0579094 0.0018940 -0.0112350
v 0.0579381 0.0019046 -0.0112350
v 0.0579684 0.0019002 -0.0112350
v 0.0579940 0.0018795 -0.0112350
v 0.0580046 0.0018508 -0.0112350
v 0.0579986 0.0018159 -0.0112350
v 0.0579671 0.0017876 -0.0112350
v 0.0579319 0.0017852 -0.0112350
v 0.0579084 0.0017960 -0.0112350
v 0.0578913 0.0018155 -0.0112350
v 0.0578842 0.0018404 -0.0112350
v 0.0580046 0.0018380 -0.0112450
v 0.0578836 0.0018413 -0.0112450
v 0.0578895 0.0018690 -0.0112450
v 0.0579028 0.0018883 -0.0112450
v 0.0579251 0.0019016 -0.0112450
v 0.0579556 0.0019044 -0.0112450
v 0.0579831 0.0018908 -0.0112450
v 0.0580002 0.0018684 -0.0112450
v 0.0579915 0.0018053 -0.0112450
v 0.0579638 0.0017872 -0.0112450
v 0.0579404 0.0017842 -0.0112450
v 0.0579176 0.0017903 -0.0112450
v 0.0578958 0.0018081 -0.0112450
vn -0.921274 0.388769 -0.010617
vn -0.567034 0.823591 -0.013041
vn -0.105616 0.993506 -0.042333
vn 0.416952 0.907861 -0.044049
vn 0.806057 0.590945 -0.032504
vn 0.993224 0.110696 -0.035381
vn 0.989164 -0.130677 0.066923
vn -0.998590 -0.048956 0.020547
vn -0.912850 0.405339 -0.049039
vn -0.718551 0.693777 0.048563
vn -0.323699 0.945272 0.040991
vn 0.168319 0.983352 0.068461
vn 0.632706 0.772258 0.057450
vn 0.925794 0.374203 0.053642
vn 0.897384 -0.435068 -0.073613
vn 0.394783 -0.918283 -0.030026
vn -0.201881 -0.979409 0.001569
vn -0.604790 -0.795860 -0.028909
vn -0.901089 -0.429925 -0.056592
vn -0.995611 -0.073132 0.058403
vn 0.721653 -0.678401 0.137802
vn 0.302060 -0.950666 -0.070665
vn -0.017234 -0.998016 0.060552
vn -0.443260 -0.896238 0.016675
vn -0.797436 -0.603246 0.013752
vn 0.000000 0.000000 1.000000
vn 0.000000 0.000000 1.000000
vn 0.000000 0.000000 1.000000
vn 0.000000 0.000000 1.000000
vn 0.000000 0.000000 1.000000
vn 0.000000 0.000000 1.000000
vn 0.000000 0.000000 1.000000
vn 0.000000 0.000000 1.000000
vn 0.000000 0.000000 1.000000
vn 0.000000 0.000000 1.000000
vn 0.000000 0.000000 1.000000
vn 0.000000 0.000000 1.000000
vn 0.000000 0.000000 -1.000000
vn 0.000000 0.000000 -1.000000
vn 0.000000 0.000000 -1.000000
vn 0.000000 0.000000 -1.000000
vn 0.000000 0.000000 -1.000000
vn 0.000000 0.000000 -1.000000
vn 0.000000 0.000000 -1.000000
vn 0.000000 0.000000 -1.000000
vn 0.000000 0.000000 -1.000000
vn 0.000000 0.000000 -1.000000
vn 0.000000 0.000000 -1.000000
vn 0.000000 0.000000 -1.000000
vn 0.000000 0.000000 -1.000000
f 8//8 20//20 1//1
f 8//8 19//19 20//20
f 8//8 25//25 19//19
f 25//25 24//24 18//18
f 24//24 17//17 18//18
f 24//24 23//23 17//17
f 23//23 16//16 17//17
f 23//23 22//22 16//16
f 22//22 21//21 16//16
f 21//21 15//15 16//16
f 21//21 7//7 15//15
f 7//7 6//6 15//15
f 25//25 18//18 19//19
f 14//14 5//5 6//6
f 9//9 8//8 1//1
f 10//10 9//9 1//1
f 11//11 10//10 2//2
f 11//11 2//2 3//3
f 10//10 1//1 2//2
f 12//12 3//3 4//4
f 13//13 12//12 4//4
f 13//13 4//4 5//5
f 14//14 13//13 5//5
f 12//12 11//11 3//3
f 7//7 14//14 6//6
f 27//27 37//37 36//36
f 27//27 31//31 30//30
f 27//27 30//30 29//29
f 27//27 29//29 28//28
f 27//27 26//26 37//37
f 27//27 36//36 35//35
f 27//27 34//34 33//33
f 27//27 33//33 32//32
f 27//27 32//32 31//31
f 27//27 35//35 34//34
f 41//41 49//49 50//50
f 41//41 39//39 40//40
f 41//41 42//42 43//43
f 41//41 43//43 44//44
f 41//41 44//44 45//45
f 41//41 45//45 38//38
f 41//41 38//38 46//46
f 41//41 46//46 47//47
f 41//41 47//47 48//48
f 41//41 48//48 49//49
f 41//41 50//50 39//39
