# OMX visual mesh; coordinates in metres
mtllib materials.mtl
usemtl bic30_rev02_gerber_bottom
v 0.0439047 0.0117411 -0.0090000
v 0.0425381 0.0112876 -0.0090000
v 0.0413250 0.0096434 -0.0090000
v 0.0413250 -0.0096434 -0.0090000
v 0.0421981 -0.0109659 -0.0090000
v 0.0434692 -0.0116942 -0.0090000
v 0.0760953 -0.0117411 -0.0090000
v 0.0775662 -0.0112313 -0.0090000
v 0.0786942 -0.0095308 -0.0090000
v 0.0786942 0.0095308 -0.0090000
v 0.0778139 0.0109788 -0.0090000
v 0.0764191 0.0117103 -0.0090000
v 0.0751505 0.0077868 -0.0090000
v 0.0745739 0.0088673 -0.0090000
v 0.0754345 0.0098540 -0.0090000
v 0.0765373 0.0095858 -0.0090000
v 0.0768711 0.0086831 -0.0090000
v 0.0763296 0.0077305 -0.0090000
v 0.0751505 -0.0097132 -0.0090000
v 0.0746537 -0.0089937 -0.0090000
v 0.0747467 -0.0082563 -0.0090000
v 0.0754345 -0.0076460 -0.0090000
v 0.0765373 -0.0079142 -0.0090000
v 0.0768711 -0.0088169 -0.0090000
v 0.0763296 -0.0097695 -0.0090000
v 0.0727250 -0.0033250 -0.0090000
v 0.0710750 -0.0033250 -0.0090000
v 0.0710750 -0.0016750 -0.0090000
v 0.0727250 -0.0016750 -0.0090000
v 0.0713576 0.0018238 -0.0090000
v 0.0710526 0.0026533 -0.0090000
v 0.0715113 0.0032519 -0.0090000
v 0.0723648 0.0032468 -0.0090000
v 0.0727516 0.0024151 -0.0090000
v 0.0722672 0.0017147 -0.0090000
v 0.0713576 -0.0006762 -0.0090000
v 0.0710526 0.0001533 -0.0090000
v 0.0715113 0.0007519 -0.0090000
v 0.0723648 0.0007468 -0.0090000
v 0.0727516 -0.0000849 -0.0090000
v 0.0722672 -0.0007853 -0.0090000
v 0.0489250 0.0016750 -0.0090000
v 0.0472750 0.0016750 -0.0090000
v 0.0472750 0.0033250 -0.0090000
v 0.0489250 0.0033250 -0.0090000
v 0.0477163 -0.0007420 -0.0090000
v 0.0472619 -0.0002216 -0.0090000
v 0.0476020 0.0007334 -0.0090000
v 0.0484887 0.0007519 -0.0090000
v 0.0489688 0.0000867 -0.0090000
v 0.0484726 -0.0007968 -0.0090000
v 0.0477163 -0.0032420 -0.0090000
v 0.0472619 -0.0027216 -0.0090000
v 0.0476020 -0.0017666 -0.0090000
v 0.0484887 -0.0017481 -0.0090000
v 0.0489688 -0.0024133 -0.0090000
v 0.0484726 -0.0032968 -0.0090000
v 0.0434398 0.0079558 -0.0090000
v 0.0431216 0.0090008 -0.0090000
v 0.0437742 0.0097673 -0.0090000
v 0.0447809 0.0097768 -0.0090000
v 0.0453269 0.0090347 -0.0090000
v 0.0453147 0.0084227 -0.0090000
v 0.0446197 0.0076273 -0.0090000
v 0.0440292 -0.0098462 -0.0090000
v 0.0432633 -0.0093372 -0.0090000
v 0.0432010 -0.0083337 -0.0090000
v 0.0437742 -0.0077327 -0.0090000
v 0.0447809 -0.0077232 -0.0090000
v 0.0453269 -0.0084653 -0.0090000
v 0.0453147 -0.0090773 -0.0090000
v 0.0448495 -0.0097132 -0.0090000
v 0.0439047 0.0117411 -0.0090100
v 0.0425381 0.0112876 -0.0090100
v 0.0413250 0.0096434 -0.0090100
v 0.0413250 -0.0096434 -0.0090100
v 0.0421981 -0.0109659 -0.0090100
v 0.0434692 -0.0116942 -0.0090100
v 0.0760953 -0.0117411 -0.0090100
v 0.0775662 -0.0112313 -0.0090100
v 0.0786942 -0.0095308 -0.0090100
v 0.0786942 0.0095308 -0.0090100
v 0.0778139 0.0109788 -0.0090100
v 0.0764191 0.0117103 -0.0090100
v 0.0751505 0.0077868 -0.0090100
v 0.0745739 0.0088673 -0.0090100
v 0.0754345 0.0098540 -0.0090100
v 0.0765373 0.0095858 -0.0090100
v 0.0768711 0.0086831 -0.0090100
v 0.0763296 0.0077305 -0.0090100
v 0.0751505 -0.0097132 -0.0090100
v 0.0746537 -0.0089937 -0.0090100
v 0.0747467 -0.0082563 -0.0090100
v 0.0754345 -0.0076460 -0.0090100
v 0.0765373 -0.0079142 -0.0090100
v 0.0768711 -0.0088169 -0.0090100
v 0.0763296 -0.0097695 -0.0090100
v 0.0727250 -0.0033250 -0.0090100
v 0.0710750 -0.0033250 -0.0090100
v 0.0710750 -0.0016750 -0.0090100
v 0.0727250 -0.0016750 -0.0090100
v 0.0713576 0.0018238 -0.0090100
v 0.0710526 0.0026533 -0.0090100
v 0.0715113 0.0032519 -0.0090100
v 0.0723648 0.0032468 -0.0090100
v 0.0727516 0.0024151 -0.0090100
v 0.0722672 0.0017147 -0.0090100
v 0.0713576 -0.0006762 -0.0090100
v 0.0710526 0.0001533 -0.0090100
v 0.0715113 0.0007519 -0.0090100
v 0.0723648 0.0007468 -0.0090100
v 0.0727516 -0.0000849 -0.0090100
v 0.0722672 -0.0007853 -0.0090100
v 0.0489250 0.0016750 -0.0090100
v 0.0472750 0.0016750 -0.0090100
v 0.0472750 0.0033250 -0.0090100
v 0.0489250 0.0033250 -0.0090100
v 0.0477163 -0.0007420 -0.0090100
v 0.0472619 -0.0002216 -0.0090100
v 0.0476020 0.0007334 -0.0090100
v 0.0484887 0.0007519 -0.0090100
v 0.0489688 0.0000867 -0.0090100
v 0.0484726 -0.0007968 -0.0090100
v 0.0477163 -0.0032420 -0.0090100
v 0.0472619 -0.0027216 -0.0090100
v 0.0476020 -0.0017666 -0.0090100
v 0.0484887 -0.0017481 -0.0090100
v 0.0489688 -0.0024133 -0.0090100
v 0.0484726 -0.0032968 -0.0090100
v 0.0434398 0.0079558 -0.0090100
v 0.0431216 0.0090008 -0.0090100
v 0.0437742 0.0097673 -0.0090100
v 0.0447809 0.0097768 -0.0090100
v 0.0453269 0.0090347 -0.0090100
v 0.0453147 0.0084227 -0.0090100
v 0.0446197 0.0076273 -0.0090100
v 0.0440292 -0.0098462 -0.0090100
v 0.0432633 -0.0093372 -0.0090100
v 0.0432010 -0.0083337 -0.0090100
v 0.0437742 -0.0077327 -0.0090100
v 0.0447809 -0.0077232 -0.0090100
v 0.0453269 -0.0084653 -0.0090100
v 0.0453147 -0.0090773 -0.0090100
v 0.0448495 -0.0097132 -0.0090100
vn -0.117672 0.730400 0.672807
vn -0.448873 0.618531 0.644928
vn -0.727455 0.239323 0.643066
vn -0.729671 -0.219144 0.647732
vn -0.515045 -0.548671 0.658551
vn -0.195197 -0.731177 0.653665
vn 0.122538 -0.730870 0.671426
vn 0.469872 -0.606195 0.641676
vn 0.729592 -0.219985 0.647535
vn 0.730831 0.204720 0.651134
vn 0.519191 0.553080 0.651570
vn 0.180641 0.731826 0.657114
vn 0.292802 0.462732 0.836747
vn 0.507838 -0.057899 0.859505
vn 0.162084 -0.510409 0.844519
vn -0.371425 -0.417012 0.829545
vn -0.576934 0.047054 0.815434
vn -0.257254 0.467447 0.845762
vn 0.276766 0.498153 0.821732
vn 0.586876 0.143234 0.796907
vn 0.535934 -0.282603 0.795557
vn 0.135342 -0.544543 0.827741
vn -0.371426 -0.417012 0.829544
vn -0.576934 0.047054 0.815434
vn -0.257255 0.467447 0.845762
vn -0.301511 0.301511 0.904534
vn 0.301511 0.301511 0.904534
vn 0.301511 -0.301511 0.904534
vn -0.301511 -0.301511 0.904534
vn 0.331186 0.418990 0.845437
vn 0.546639 -0.083047 0.833240
vn 0.250340 -0.511071 0.822275
vn -0.285113 -0.444120 0.849393
vn -0.544109 0.046285 0.837737
vn -0.220541 0.489617 0.843586
vn 0.331186 0.418990 0.845437
vn 0.546639 -0.083046 0.833240
vn 0.250340 -0.511070 0.822276
vn -0.285113 -0.444120 0.849393
vn -0.544109 0.046285 0.837737
vn -0.220541 0.489617 0.843586
vn -0.301511 0.301511 0.904534
vn 0.301511 0.301511 0.904534
vn 0.301511 -0.301511 0.904534
vn -0.301511 -0.301511 0.904534
vn 0.265636 0.532617 0.803590
vn 0.532601 0.101209 0.840293
vn 0.298898 -0.414518 0.859555
vn -0.250148 -0.501803 0.828021
vn -0.525378 -0.029812 0.850347
vn -0.249796 0.464472 0.849628
vn 0.265636 0.532617 0.803590
vn 0.532601 0.101209 0.840293
vn 0.298898 -0.414518 0.859555
vn -0.250148 -0.501803 0.828021
vn -0.525378 -0.029812 0.850347
vn -0.249796 0.464472 0.849628
vn 0.386567 0.395988 0.832922
vn 0.542385 -0.112700 0.832537
vn 0.246376 -0.526827 0.813481
vn -0.252489 -0.505106 0.825298
vn -0.587990 -0.186551 0.787062
vn -0.568464 0.219841 0.792792
vn -0.151533 0.506711 0.848694
vn 0.127013 0.587522 0.799178
vn 0.493071 0.284360 0.822204
vn 0.551932 -0.201390 0.809205
vn 0.235498 -0.542950 0.806068
vn -0.252489 -0.505106 0.825298
vn -0.587990 -0.186550 0.787062
vn -0.591030 0.199618 0.781560
vn -0.311286 0.507767 0.803290
vn -0.117672 0.730400 -0.672807
vn -0.448873 0.618531 -0.644928
vn -0.727455 0.239323 -0.643066
vn -0.729671 -0.219144 -0.647732
vn -0.515045 -0.548671 -0.658551
vn -0.195197 -0.731177 -0.653665
vn 0.122538 -0.730870 -0.671426
vn 0.469872 -0.606195 -0.641676
vn 0.729592 -0.219985 -0.647535
vn 0.730831 0.204720 -0.651134
vn 0.519191 0.553080 -0.651570
vn 0.180641 0.731826 -0.657114
vn 0.292802 0.462732 -0.836747
vn 0.507838 -0.057899 -0.859505
vn 0.162084 -0.510409 -0.844519
vn -0.371425 -0.417012 -0.829545
vn -0.576934 0.047054 -0.815434
vn -0.257254 0.467447 -0.845762
vn 0.276766 0.498153 -0.821732
vn 0.586876 0.143234 -0.796907
vn 0.535934 -0.282603 -0.795557
vn 0.135342 -0.544543 -0.827741
vn -0.371426 -0.417012 -0.829544
vn -0.576934 0.047054 -0.815434
vn -0.257255 0.467447 -0.845762
vn -0.301511 0.301511 -0.904534
vn 0.301511 0.301511 -0.904534
vn 0.301511 -0.301511 -0.904534
vn -0.301511 -0.301511 -0.904534
vn 0.331186 0.418990 -0.845437
vn 0.546639 -0.083047 -0.833240
vn 0.250340 -0.511071 -0.822275
vn -0.285113 -0.444120 -0.849393
vn -0.544109 0.046285 -0.837737
vn -0.220541 0.489617 -0.843586
vn 0.331186 0.418990 -0.845437
vn 0.546639 -0.083046 -0.833240
vn 0.250340 -0.511070 -0.822276
vn -0.285113 -0.444120 -0.849393
vn -0.544109 0.046285 -0.837737
vn -0.220541 0.489617 -0.843586
vn -0.301511 0.301511 -0.904534
vn 0.301511 0.301511 -0.904534
vn 0.301511 -0.301511 -0.904534
vn -0.301511 -0.301511 -0.904534
vn 0.265636 0.532617 -0.803590
vn 0.532601 0.101209 -0.840293
vn 0.298898 -0.414518 -0.859555
vn -0.250148 -0.501803 -0.828021
vn -0.525378 -0.029812 -0.850347
vn -0.249796 0.464472 -0.849628
vn 0.265636 0.532617 -0.803590
vn 0.532601 0.101209 -0.840293
vn 0.298898 -0.414518 -0.859555
vn -0.250148 -0.501803 -0.828021
vn -0.525378 -0.029812 -0.850347
vn -0.249796 0.464472 -0.849628
vn 0.386567 0.395988 -0.832922
vn 0.542385 -0.112700 -0.832537
vn 0.246376 -0.526827 -0.813481
vn -0.252489 -0.505106 -0.825298
vn -0.587990 -0.186551 -0.787062
vn -0.568464 0.219841 -0.792792
vn -0.151533 0.506711 -0.848694
vn 0.127013 0.587522 -0.799178
vn 0.493071 0.284360 -0.822204
vn 0.551932 -0.201390 -0.809205
vn 0.235498 -0.542950 -0.806068
vn -0.252489 -0.505106 -0.825298
vn -0.587990 -0.186550 -0.787062
vn -0.591030 0.199618 -0.781560
vn -0.311286 0.507767 -0.803290
vt 0.0003776 0.9292118
vt 0.0196749 0.9656529
vt 0.0896414 0.9980035
vt 0.9103579 0.9980035
vt 0.9666320 0.9747210
vt 0.9976259 0.9408234
vt 0.9996217 0.0707942
vt 0.9779260 0.0315706
vt 0.9055639 0.0014901
vt 0.0944354 0.0014901
vt 0.0328184 0.0249648
vt 0.0016878 0.0621597
vt 0.1686463 0.0959903
vt 0.1226671 0.1113663
vt 0.0806790 0.0884169
vt 0.0920939 0.0590068
vt 0.1305081 0.0501074
vt 0.1710431 0.0645458
vt 0.9133272 0.0959903
vt 0.8827093 0.1092380
vt 0.8513299 0.1067567
vt 0.8253599 0.0884169
vt 0.8367748 0.0590068
vt 0.8751889 0.0501074
vt 0.9157239 0.0645458
vt 0.6414889 0.1606695
vt 0.6414889 0.2046694
vt 0.5712764 0.2046694
vt 0.5712764 0.1606695
vt 0.4223931 0.1971344
vt 0.3870938 0.2052674
vt 0.3616231 0.1930358
vt 0.3618400 0.1702753
vt 0.3972314 0.1599600
vt 0.4270330 0.1728761
vt 0.5287760 0.1971344
vt 0.4934768 0.2052674
vt 0.4680061 0.1930358
vt 0.4682230 0.1702753
vt 0.5036144 0.1599600
vt 0.5334160 0.1728761
vt 0.4287229 0.7953358
vt 0.4287229 0.8393360
vt 0.3585104 0.8393360
vt 0.3585104 0.7953358
vt 0.5315760 0.8275690
vt 0.5094296 0.8396858
vt 0.4687918 0.8306156
vt 0.4680061 0.8069696
vt 0.4963121 0.7941693
vt 0.5339042 0.8073998
vt 0.6379590 0.8275690
vt 0.6158126 0.8396858
vt 0.5751748 0.8306156
vt 0.5743891 0.8069696
vt 0.6026950 0.7941693
vt 0.6402872 0.8073998
vt 0.1614569 0.9416072
vt 0.1169864 0.9500921
vt 0.0843688 0.9326898
vt 0.0839670 0.9058458
vt 0.1155437 0.8912866
vt 0.1415867 0.8916110
vt 0.1754319 0.9101439
vt 0.9189853 0.9258913
vt 0.8973286 0.9463152
vt 0.8546261 0.9479748
vt 0.8290497 0.9326898
vt 0.8286478 0.9058458
vt 0.8602246 0.8912866
vt 0.8862675 0.8916110
vt 0.9133275 0.9040156
vt 0.0003776 0.9292118
vt 0.0196749 0.9656529
vt 0.0896414 0.9980035
vt 0.9103579 0.9980035
vt 0.9666320 0.9747210
vt 0.9976259 0.9408234
vt 0.9996217 0.0707942
vt 0.9779260 0.0315706
vt 0.9055639 0.0014901
vt 0.0944354 0.0014901
vt 0.0328184 0.0249648
vt 0.0016878 0.0621597
vt 0.1686463 0.0959903
vt 0.1226671 0.1113663
vt 0.0806790 0.0884169
vt 0.0920939 0.0590068
vt 0.1305081 0.0501074
vt 0.1710431 0.0645458
vt 0.9133272 0.0959903
vt 0.8827093 0.1092380
vt 0.8513299 0.1067567
vt 0.8253599 0.0884169
vt 0.8367748 0.0590068
vt 0.8751889 0.0501074
vt 0.9157239 0.0645458
vt 0.6414889 0.1606695
vt 0.6414889 0.2046694
vt 0.5712764 0.2046694
vt 0.5712764 0.1606695
vt 0.4223931 0.1971344
vt 0.3870938 0.2052674
vt 0.3616231 0.1930358
vt 0.3618400 0.1702753
vt 0.3972314 0.1599600
vt 0.4270330 0.1728761
vt 0.5287760 0.1971344
vt 0.4934768 0.2052674
vt 0.4680061 0.1930358
vt 0.4682230 0.1702753
vt 0.5036144 0.1599600
vt 0.5334160 0.1728761
vt 0.4287229 0.7953358
vt 0.4287229 0.8393360
vt 0.3585104 0.8393360
vt 0.3585104 0.7953358
vt 0.5315760 0.8275690
vt 0.5094296 0.8396858
vt 0.4687918 0.8306156
vt 0.4680061 0.8069696
vt 0.4963121 0.7941693
vt 0.5339042 0.8073998
vt 0.6379590 0.8275690
vt 0.6158126 0.8396858
vt 0.5751748 0.8306156
vt 0.5743891 0.8069696
vt 0.6026950 0.7941693
vt 0.6402872 0.8073998
vt 0.1614569 0.9416072
vt 0.1169864 0.9500921
vt 0.0843688 0.9326898
vt 0.0839670 0.9058458
vt 0.1155437 0.8912866
vt 0.1415867 0.8916110
vt 0.1754319 0.9101439
vt 0.9189853 0.9258913
vt 0.8973286 0.9463152
vt 0.8546261 0.9479748
vt 0.8290497 0.9326898
vt 0.8286478 0.9058458
vt 0.8602246 0.8912866
vt 0.8862675 0.8916110
vt 0.9133275 0.9040156
f 25/25/25 8/8/8 9/9/9
f 24/24/24 25/25/25 9/9/9
f 25/25/25 7/7/7 8/8/8
f 19/19/19 7/7/7 25/25/25
f 23/23/23 24/24/24 9/9/9
f 20/20/20 7/7/7 19/19/19
f 26/26/26 22/22/22 23/23/23
f 26/26/26 21/21/21 22/22/22
f 27/27/27 21/21/21 26/26/26
f 27/27/27 20/20/20 21/21/21
f 29/29/29 23/23/23 9/9/9
f 29/29/29 26/26/26 23/23/23
f 40/40/40 41/41/41 29/29/29
f 40/40/40 29/29/29 9/9/9
f 41/41/41 28/28/28 29/29/29
f 36/36/36 28/28/28 41/41/41
f 37/37/37 28/28/28 36/36/36
f 34/34/34 35/35/35 39/39/39
f 34/34/34 39/39/39 40/40/40
f 35/35/35 38/38/38 39/39/39
f 30/30/30 38/38/38 35/35/35
f 10/10/10 40/40/40 9/9/9
f 10/10/10 34/34/34 40/40/40
f 30/30/30 37/37/37 38/38/38
f 31/31/31 37/37/37 30/30/30
f 18/18/18 34/34/34 10/10/10
f 17/17/17 18/18/18 10/10/10
f 18/18/18 33/33/33 34/34/34
f 13/13/13 33/33/33 18/18/18
f 16/16/16 17/17/17 10/10/10
f 16/16/16 10/10/10 11/11/11
f 14/14/14 33/33/33 13/13/13
f 14/14/14 32/32/32 33/33/33
f 12/12/12 16/16/16 11/11/11
f 12/12/12 15/15/15 16/16/16
f 12/12/12 14/14/14 15/15/15
f 71/71/71 72/72/72 6/6/6
f 71/71/71 6/6/6 7/7/7
f 71/71/71 7/7/7 20/20/20
f 71/71/71 20/20/20 27/27/27
f 65/65/65 6/6/6 72/72/72
f 66/66/66 6/6/6 65/65/65
f 66/66/66 5/5/5 6/6/6
f 4/4/4 5/5/5 66/66/66
f 57/57/57 71/71/71 27/27/27
f 57/57/57 70/70/70 71/71/71
f 56/56/56 57/57/57 27/27/27
f 57/57/57 69/69/69 70/70/70
f 56/56/56 27/27/27 28/28/28
f 52/52/52 69/69/69 57/57/57
f 53/53/53 69/69/69 52/52/52
f 53/53/53 68/68/68 69/69/69
f 4/4/4 66/66/66 67/67/67
f 4/4/4 67/67/67 68/68/68
f 53/53/53 4/4/4 68/68/68
f 51/51/51 55/55/55 56/56/56
f 50/50/50 51/51/51 56/56/56
f 50/50/50 56/56/56 28/28/28
f 51/51/51 54/54/54 55/55/55
f 50/50/50 28/28/28 37/37/37
f 46/46/46 54/54/54 51/51/51
f 47/47/47 54/54/54 46/46/46
f 47/47/47 53/53/53 54/54/54
f 47/47/47 4/4/4 53/53/53
f 42/42/42 37/37/37 31/31/31
f 42/42/42 50/50/50 37/37/37
f 42/42/42 48/48/48 49/49/49
f 42/42/42 49/49/49 50/50/50
f 45/45/45 32/32/32 14/14/14
f 45/45/45 42/42/42 31/31/31
f 45/45/45 31/31/31 32/32/32
f 43/43/43 47/47/47 48/48/48
f 43/43/43 48/48/48 42/42/42
f 63/63/63 44/44/44 45/45/45
f 63/63/63 64/64/64 44/44/44
f 62/62/62 63/63/63 45/45/45
f 62/62/62 45/45/45 14/14/14
f 58/58/58 43/43/43 44/44/44
f 58/58/58 44/44/44 64/64/64
f 62/62/62 14/14/14 12/12/12
f 3/3/3 43/43/43 58/58/58
f 3/3/3 4/4/4 47/47/47
f 3/3/3 47/47/47 43/43/43
f 3/3/3 58/58/58 59/59/59
f 1/1/1 61/61/61 62/62/62
f 1/1/1 62/62/62 12/12/12
f 1/1/1 60/60/60 61/61/61
f 2/2/2 60/60/60 1/1/1
f 2/2/2 3/3/3 59/59/59
f 2/2/2 59/59/59 60/60/60
f 81/81/81 80/80/80 97/97/97
f 81/81/81 97/97/97 96/96/96
f 80/80/80 79/79/79 97/97/97
f 97/97/97 79/79/79 91/91/91
f 81/81/81 96/96/96 95/95/95
f 91/91/91 79/79/79 92/92/92
f 95/95/95 94/94/94 98/98/98
f 94/94/94 93/93/93 98/98/98
f 98/98/98 93/93/93 99/99/99
f 93/93/93 92/92/92 99/99/99
f 81/81/81 95/95/95 101/101/101
f 95/95/95 98/98/98 101/101/101
f 101/101/101 113/113/113 112/112/112
f 81/81/81 101/101/101 112/112/112
f 101/101/101 100/100/100 113/113/113
f 113/113/113 100/100/100 108/108/108
f 108/108/108 100/100/100 109/109/109
f 111/111/111 107/107/107 106/106/106
f 112/112/112 111/111/111 106/106/106
f 111/111/111 110/110/110 107/107/107
f 107/107/107 110/110/110 102/102/102
f 81/81/81 112/112/112 82/82/82
f 112/112/112 106/106/106 82/82/82
f 110/110/110 109/109/109 102/102/102
f 102/102/102 109/109/109 103/103/103
f 82/82/82 106/106/106 90/90/90
f 82/82/82 90/90/90 89/89/89
f 106/106/106 105/105/105 90/90/90
f 90/90/90 105/105/105 85/85/85
f 82/82/82 89/89/89 88/88/88
f 83/83/83 82/82/82 88/88/88
f 85/85/85 105/105/105 86/86/86
f 105/105/105 104/104/104 86/86/86
f 83/83/83 88/88/88 84/84/84
f 88/88/88 87/87/87 84/84/84
f 87/87/87 86/86/86 84/84/84
f 78/78/78 144/144/144 143/143/143
f 79/79/79 78/78/78 143/143/143
f 92/92/92 79/79/79 143/143/143
f 99/99/99 92/92/92 143/143/143
f 144/144/144 78/78/78 137/137/137
f 137/137/137 78/78/78 138/138/138
f 78/78/78 77/77/77 138/138/138
f 138/138/138 77/77/77 76/76/76
f 99/99/99 143/143/143 129/129/129
f 143/143/143 142/142/142 129/129/129
f 99/99/99 129/129/129 128/128/128
f 142/142/142 141/141/141 129/129/129
f 100/100/100 99/99/99 128/128/128
f 129/129/129 141/141/141 124/124/124
f 124/124/124 141/141/141 125/125/125
f 141/141/141 140/140/140 125/125/125
f 139/139/139 138/138/138 76/76/76
f 140/140/140 139/139/139 76/76/76
f 140/140/140 76/76/76 125/125/125
f 128/128/128 127/127/127 123/123/123
f 128/128/128 123/123/123 122/122/122
f 100/100/100 128/128/128 122/122/122
f 127/127/127 126/126/126 123/123/123
f 109/109/109 100/100/100 122/122/122
f 123/123/123 126/126/126 118/118/118
f 118/118/118 126/126/126 119/119/119
f 126/126/126 125/125/125 119/119/119
f 125/125/125 76/76/76 119/119/119
f 103/103/103 109/109/109 114/114/114
f 109/109/109 122/122/122 114/114/114
f 121/121/121 120/120/120 114/114/114
f 122/122/122 121/121/121 114/114/114
f 86/86/86 104/104/104 117/117/117
f 103/103/103 114/114/114 117/117/117
f 104/104/104 103/103/103 117/117/117
f 120/120/120 119/119/119 115/115/115
f 114/114/114 120/120/120 115/115/115
f 117/117/117 116/116/116 135/135/135
f 116/116/116 136/136/136 135/135/135
f 117/117/117 135/135/135 134/134/134
f 86/86/86 117/117/117 134/134/134
f 116/116/116 115/115/115 130/130/130
f 136/136/136 116/116/116 130/130/130
f 84/84/84 86/86/86 134/134/134
f 130/130/130 115/115/115 75/75/75
f 119/119/119 76/76/76 75/75/75
f 115/115/115 119/119/119 75/75/75
f 131/131/131 130/130/130 75/75/75
f 134/134/134 133/133/133 73/73/73
f 84/84/84 134/134/134 73/73/73
f 133/133/133 132/132/132 73/73/73
f 73/73/73 132/132/132 74/74/74
f 131/131/131 75/75/75 74/74/74
f 132/132/132 131/131/131 74/74/74
f 1/1/1 73/73/73 74/74/74
f 1/1/1 74/74/74 2/2/2
f 2/2/2 74/74/74 75/75/75
f 2/2/2 75/75/75 3/3/3
f 3/3/3 75/75/75 76/76/76
f 3/3/3 76/76/76 4/4/4
f 4/4/4 76/76/76 77/77/77
f 4/4/4 77/77/77 5/5/5
f 5/5/5 77/77/77 78/78/78
f 5/5/5 78/78/78 6/6/6
f 6/6/6 78/78/78 79/79/79
f 6/6/6 79/79/79 7/7/7
f 7/7/7 79/79/79 80/80/80
f 7/7/7 80/80/80 8/8/8
f 8/8/8 80/80/80 81/81/81
f 8/8/8 81/81/81 9/9/9
f 9/9/9 81/81/81 82/82/82
f 9/9/9 82/82/82 10/10/10
f 10/10/10 82/82/82 83/83/83
f 10/10/10 83/83/83 11/11/11
f 12/12/12 84/84/84 73/73/73
f 12/12/12 73/73/73 1/1/1
f 11/11/11 83/83/83 84/84/84
f 11/11/11 84/84/84 12/12/12
f 13/13/13 85/85/85 86/86/86
f 13/13/13 86/86/86 14/14/14
f 14/14/14 86/86/86 87/87/87
f 14/14/14 87/87/87 15/15/15
f 15/15/15 87/87/87 88/88/88
f 15/15/15 88/88/88 16/16/16
f 16/16/16 88/88/88 89/89/89
f 16/16/16 89/89/89 17/17/17
f 18/18/18 90/90/90 85/85/85
f 18/18/18 85/85/85 13/13/13
f 17/17/17 89/89/89 90/90/90
f 17/17/17 90/90/90 18/18/18
f 19/19/19 91/91/91 92/92/92
f 19/19/19 92/92/92 20/20/20
f 20/20/20 92/92/92 93/93/93
f 20/20/20 93/93/93 21/21/21
f 21/21/21 93/93/93 94/94/94
f 21/21/21 94/94/94 22/22/22
f 22/22/22 94/94/94 95/95/95
f 22/22/22 95/95/95 23/23/23
f 23/23/23 95/95/95 96/96/96
f 23/23/23 96/96/96 24/24/24
f 25/25/25 97/97/97 91/91/91
f 25/25/25 91/91/91 19/19/19
f 24/24/24 96/96/96 97/97/97
f 24/24/24 97/97/97 25/25/25
f 26/26/26 98/98/98 99/99/99
f 26/26/26 99/99/99 27/27/27
f 27/27/27 99/99/99 100/100/100
f 27/27/27 100/100/100 28/28/28
f 29/29/29 101/101/101 98/98/98
f 29/29/29 98/98/98 26/26/26
f 28/28/28 100/100/100 101/101/101
f 28/28/28 101/101/101 29/29/29
f 30/30/30 102/102/102 103/103/103
f 30/30/30 103/103/103 31/31/31
f 31/31/31 103/103/103 104/104/104
f 31/31/31 104/104/104 32/32/32
f 32/32/32 104/104/104 105/105/105
f 32/32/32 105/105/105 33/33/33
f 33/33/33 105/105/105 106/106/106
f 33/33/33 106/106/106 34/34/34
f 35/35/35 107/107/107 102/102/102
f 35/35/35 102/102/102 30/30/30
f 34/34/34 106/106/106 107/107/107
f 34/34/34 107/107/107 35/35/35
f 36/36/36 108/108/108 109/109/109
f 36/36/36 109/109/109 37/37/37
f 37/37/37 109/109/109 110/110/110
f 37/37/37 110/110/110 38/38/38
f 38/38/38 110/110/110 111/111/111
f 38/38/38 111/111/111 39/39/39
f 39/39/39 111/111/111 112/112/112
f 39/39/39 112/112/112 40/40/40
f 41/41/41 113/113/113 108/108/108
f 41/41/41 108/108/108 36/36/36
f 40/40/40 112/112/112 113/113/113
f 40/40/40 113/113/113 41/41/41
f 42/42/42 114/114/114 115/115/115
f 42/42/42 115/115/115 43/43/43
f 43/43/43 115/115/115 116/116/116
f 43/43/43 116/116/116 44/44/44
f 45/45/45 117/117/117 114/114/114
f 45/45/45 114/114/114 42/42/42
f 44/44/44 116/116/116 117/117/117
f 44/44/44 117/117/117 45/45/45
f 46/46/46 118/118/118 119/119/119
f 46/46/46 119/119/119 47/47/47
f 47/47/47 119/119/119 120/120/120
f 47/47/47 120/120/120 48/48/48
f 48/48/48 120/120/120 121/121/121
f 48/48/48 121/121/121 49/49/49
f 49/49/49 121/121/121 122/122/122
f 49/49/49 122/122/122 50/50/50
f 51/51/51 123/123/123 118/118/118
f 51/51/51 118/118/118 46/46/46
f 50/50/50 122/122/122 123/123/123
f 50/50/50 123/123/123 51/51/51
f 52/52/52 124/124/124 125/125/125
f 52/52/52 125/125/125 53/53/53
f 53/53/53 125/125/125 126/126/126
f 53/53/53 126/126/126 54/54/54
f 54/54/54 126/126/126 127/127/127
f 54/54/54 127/127/127 55/55/55
f 55/55/55 127/127/127 128/128/128
f 55/55/55 128/128/128 56/56/56
f 57/57/57 129/129/129 124/124/124
f 57/57/57 124/124/124 52/52/52
f 56/56/56 128/128/128 129/129/129
f 56/56/56 129/129/129 57/57/57
f 58/58/58 130/130/130 131/131/131
f 58/58/58 131/131/131 59/59/59
f 59/59/59 131/131/131 132/132/132
f 59/59/59 132/132/132 60/60/60
f 60/60/60 132/132/132 133/133/133
f 60/60/60 133/133/133 61/61/61
f 61/61/61 133/133/133 134/134/134
f 61/61/61 134/134/134 62/62/62
f 62/62/62 134/134/134 135/135/135
f 62/62/62 135/135/135 63/63/63
f 64/64/64 136/136/136 130/130/130
f 64/64/64 130/130/130 58/58/58
f 63/63/63 135/135/135 136/136/136
f 63/63/63 136/136/136 64/64/64
f 65/65/65 137/137/137 138/138/138
f 65/65/65 138/138/138 66/66/66
f 66/66/66 138/138/138 139/139/139
f 66/66/66 139/139/139 67/67/67
f 67/67/67 139/139/139 140/140/140
f 67/67/67 140/140/140 68/68/68
f 68/68/68 140/140/140 141/141/141
f 68/68/68 141/141/141 69/69/69
f 69/69/69 141/141/141 142/142/142
f 69/69/69 142/142/142 70/70/70
f 70/70/70 142/142/142 143/143/143
f 70/70/70 143/143/143 71/71/71
f 72/72/72 144/144/144 137/137/137
f 72/72/72 137/137/137 65/65/65
f 71/71/71 143/143/143 144/144/144
f 71/71/71 144/144/144 72/72/72
