# OMX visual mesh; coordinates in metres
mtllib materials.mtl
usemtl bic30_rev02_white
v 0.0496000 0.0050000 -0.0106450
v 0.0496000 0.0050000 -0.0148450
v 0.0414000 0.0050000 -0.0106450
v 0.0414000 0.0050000 -0.0148450
v 0.0496000 0.0050000 -0.0106450
v 0.0496000 0.0050000 -0.0148450
v 0.0496000 -0.0050000 -0.0106450
v 0.0496000 -0.0050000 -0.0148450
v 0.0496000 0.0050000 -0.0148450
v 0.0414000 0.0050000 -0.0148450
v 0.0496000 -0.0050000 -0.0148450
v 0.0414000 0.0031250 -0.0148450
v 0.0414000 -0.0050000 -0.0148450
v 0.0414000 0.0018750 -0.0148450
v 0.0426500 0.0025000 -0.0148450
v 0.0414000 0.0050000 -0.0106450
v 0.0414000 0.0050000 -0.0148450
v 0.0414000 0.0031250 -0.0148450
v 0.0414000 -0.0050000 -0.0148450
v 0.0414000 0.0018750 -0.0148450
v 0.0414000 -0.0050000 -0.0106450
v 0.0414000 0.0031250 -0.0147786
v 0.0414000 0.0018750 -0.0147786
v 0.0414000 -0.0045350 -0.0111100
v 0.0414000 -0.0045350 -0.0143800
v 0.0414000 0.0045350 -0.0143800
v 0.0414000 0.0045350 -0.0111100
v 0.0496000 0.0050000 -0.0106450
v 0.0414000 0.0050000 -0.0106450
v 0.0496000 -0.0050000 -0.0106450
v 0.0414000 -0.0050000 -0.0106450
v 0.0496000 -0.0050000 -0.0106450
v 0.0496000 -0.0050000 -0.0148450
v 0.0414000 -0.0050000 -0.0148450
v 0.0414000 -0.0050000 -0.0106450
v 0.0414000 0.0031250 -0.0148450
v 0.0426500 0.0025000 -0.0148450
v 0.0414000 0.0031250 -0.0147786
v 0.0426500 0.0025000 -0.0147786
v 0.0414000 0.0018750 -0.0148450
v 0.0426500 0.0025000 -0.0148450
v 0.0414000 0.0018750 -0.0147786
v 0.0426500 0.0025000 -0.0147786
v 0.0414000 -0.0045350 -0.0111100
v 0.0414000 -0.0045350 -0.0143800
v 0.0481300 -0.0045350 -0.0111100
v 0.0481300 -0.0045350 -0.0143800
v 0.0414000 -0.0045350 -0.0143800
v 0.0414000 0.0045350 -0.0143800
v 0.0481300 -0.0045350 -0.0143800
v 0.0481300 0.0045350 -0.0143800
v 0.0414000 -0.0045350 -0.0111100
v 0.0414000 0.0045350 -0.0111100
v 0.0481300 -0.0045350 -0.0111100
v 0.0481300 0.0045350 -0.0111100
v 0.0414000 0.0045350 -0.0143800
v 0.0414000 0.0045350 -0.0111100
v 0.0481300 0.0045350 -0.0143800
v 0.0481300 0.0045350 -0.0111100
v 0.0481300 -0.0045350 -0.0111100
v 0.0481300 -0.0045350 -0.0143800
v 0.0481300 0.0045350 -0.0143800
v 0.0481300 0.0045350 -0.0111100
v 0.0414000 0.0031250 -0.0147786
v 0.0414000 0.0018750 -0.0147786
v 0.0426500 0.0025000 -0.0147786
vn 0.000000 1.000000 0.000000
vn 0.000000 1.000000 0.000000
vn 0.000000 1.000000 0.000000
vn 0.000000 1.000000 0.000000
vn 1.000000 0.000000 0.000002
vn 1.000000 0.000000 0.000002
vn 1.000000 0.000000 0.000002
vn 1.000000 0.000000 0.000002
vn 0.000000 0.000000 -1.000000
vn 0.000000 0.000000 -1.000000
vn 0.000000 0.000000 -1.000000
vn 0.000000 0.000000 -1.000000
vn 0.000000 0.000000 -1.000000
vn 0.000000 0.000000 -1.000000
vn 0.000000 0.000000 -1.000000
vn -1.000000 0.000000 0.000000
vn -1.000000 0.000000 0.000000
vn -1.000000 0.000000 0.000000
vn -1.000000 0.000000 0.000000
vn -1.000000 0.000000 0.000000
vn -1.000000 0.000000 0.000000
vn -1.000000 0.000000 0.000000
vn -1.000000 0.000000 0.000000
vn -1.000000 0.000000 0.000000
vn -1.000000 0.000000 0.000000
vn -1.000000 0.000000 0.000000
vn -1.000000 0.000000 0.000000
vn 0.000000 0.000000 1.000000
vn 0.000000 0.000000 1.000000
vn 0.000000 0.000000 1.000000
vn 0.000000 0.000000 1.000000
vn 0.000000 -1.000000 0.000000
vn 0.000000 -1.000000 0.000000
vn 0.000000 -1.000000 0.000000
vn 0.000000 -1.000000 0.000000
vn -0.447214 -0.894427 0.000000
vn -0.447214 -0.894427 0.000000
vn -0.447214 -0.894427 0.000000
vn -0.447214 -0.894427 0.000000
vn -0.447214 0.894427 0.000000
vn -0.447214 0.894427 0.000000
vn -0.447214 0.894427 0.000000
vn -0.447214 0.894427 0.000000
vn 0.000000 1.000000 0.000000
vn 0.000000 1.000000 0.000000
vn 0.000000 1.000000 0.000000
vn 0.000000 1.000000 0.000000
vn 0.000000 0.000000 1.000000
vn 0.000000 0.000000 1.000000
vn 0.000000 0.000000 1.000000
vn 0.000000 0.000000 1.000000
vn 0.000000 0.000000 -1.000000
vn 0.000000 0.000000 -1.000000
vn 0.000000 0.000000 -1.000000
vn 0.000000 0.000000 -1.000000
vn 0.000000 -1.000000 0.000000
vn 0.000000 -1.000000 0.000000
vn 0.000000 -1.000000 0.000000
vn 0.000000 -1.000000 0.000000
vn -1.000000 0.000000 0.000000
vn -1.000000 0.000000 0.000000
vn -1.000000 0.000000 0.000000
vn -1.000000 0.000000 0.000000
vn 0.000000 0.000000 -1.000000
vn 0.000000 0.000000 -1.000000
vn 0.000000 0.000000 -1.000000
f 2//2 3//3 1//1
f 2//2 4//4 3//3
f 8//8 5//5 7//7
f 8//8 6//6 5//5
f 15//15 10//10 9//9
f 11//11 15//15 9//9
f 12//12 10//10 15//15
f 13//13 14//14 15//15
f 13//13 15//15 11//11
f 25//25 22//22 23//23
f 19//19 25//25 20//20
f 19//19 21//21 24//24
f 19//19 24//24 25//25
f 25//25 23//23 20//20
f 25//25 26//26 22//22
f 24//24 21//21 16//16
f 18//18 26//26 17//17
f 18//18 22//22 26//26
f 17//17 27//27 16//16
f 24//24 16//16 27//27
f 17//17 26//26 27//27
f 31//31 28//28 29//29
f 31//31 30//30 28//28
f 33//33 32//32 35//35
f 33//33 35//35 34//34
f 37//37 39//39 38//38
f 37//37 38//38 36//36
f 41//41 40//40 42//42
f 41//41 42//42 43//43
f 47//47 44//44 46//46
f 47//47 45//45 44//44
f 48//48 51//51 49//49
f 48//48 50//50 51//51
f 52//52 53//53 55//55
f 52//52 55//55 54//54
f 58//58 59//59 57//57
f 58//58 57//57 56//56
f 61//61 60//60 63//63
f 61//61 63//63 62//62
f 64//64 66//66 65//65
v 0.0704000 -0.0050000 -0.0106450
v 0.0704000 -0.0050000 -0.0148450
v 0.0786000 -0.0050000 -0.0106450
v 0.0786000 -0.0050000 -0.0148450
v 0.0704000 -0.0050000 -0.0106450
v 0.0704000 -0.0050000 -0.0148450
v 0.0704000 0.0050000 -0.0106450
v 0.0704000 0.0050000 -0.0148450
v 0.0704000 -0.0050000 -0.0148450
v 0.0786000 -0.0050000 -0.0148450
v 0.0704000 0.0050000 -0.0148450
v 0.0786000 -0.0031250 -0.0148450
v 0.0786000 0.0050000 -0.0148450
v 0.0786000 -0.0018750 -0.0148450
v 0.0773500 -0.0025000 -0.0148450
v 0.0786000 -0.0050000 -0.0106450
v 0.0786000 -0.0050000 -0.0148450
v 0.0786000 -0.0031250 -0.0148450
v 0.0786000 0.0050000 -0.0148450
v 0.0786000 -0.0018750 -0.0148450
v 0.0786000 0.0050000 -0.0106450
v 0.0786000 -0.0031250 -0.0147786
v 0.0786000 -0.0018750 -0.0147786
v 0.0786000 0.0045350 -0.0111100
v 0.0786000 0.0045350 -0.0143800
v 0.0786000 -0.0045350 -0.0143800
v 0.0786000 -0.0045350 -0.0111100
v 0.0704000 -0.0050000 -0.0106450
v 0.0786000 -0.0050000 -0.0106450
v 0.0704000 0.0050000 -0.0106450
v 0.0786000 0.0050000 -0.0106450
v 0.0704000 0.0050000 -0.0106450
v 0.0704000 0.0050000 -0.0148450
v 0.0786000 0.0050000 -0.0148450
v 0.0786000 0.0050000 -0.0106450
v 0.0786000 -0.0031250 -0.0148450
v 0.0773500 -0.0025000 -0.0148450
v 0.0786000 -0.0031250 -0.0147786
v 0.0773500 -0.0025000 -0.0147786
v 0.0786000 -0.0018750 -0.0148450
v 0.0773500 -0.0025000 -0.0148450
v 0.0786000 -0.0018750 -0.0147786
v 0.0773500 -0.0025000 -0.0147786
v 0.0786000 0.0045350 -0.0111100
v 0.0786000 0.0045350 -0.0143800
v 0.0718700 0.0045350 -0.0111100
v 0.0718700 0.0045350 -0.0143800
v 0.0786000 0.0045350 -0.0143800
v 0.0786000 -0.0045350 -0.0143800
v 0.0718700 0.0045350 -0.0143800
v 0.0718700 -0.0045350 -0.0143800
v 0.0786000 0.0045350 -0.0111100
v 0.0786000 -0.0045350 -0.0111100
v 0.0718700 0.0045350 -0.0111100
v 0.0718700 -0.0045350 -0.0111100
v 0.0786000 -0.0045350 -0.0143800
v 0.0786000 -0.0045350 -0.0111100
v 0.0718700 -0.0045350 -0.0143800
v 0.0718700 -0.0045350 -0.0111100
v 0.0718700 0.0045350 -0.0111100
v 0.0718700 0.0045350 -0.0143800
v 0.0718700 -0.0045350 -0.0143800
v 0.0718700 -0.0045350 -0.0111100
v 0.0786000 -0.0031250 -0.0147786
v 0.0786000 -0.0018750 -0.0147786
v 0.0773500 -0.0025000 -0.0147786
vn 0.000000 -1.000000 0.000000
vn 0.000000 -1.000000 0.000000
vn 0.000000 -1.000000 0.000000
vn 0.000000 -1.000000 0.000000
vn -1.000000 0.000000 0.000000
vn -1.000000 0.000000 0.000000
vn -1.000000 0.000000 0.000000
vn -1.000000 0.000000 0.000000
vn 0.000000 0.000000 -1.000000
vn 0.000000 0.000000 -1.000000
vn 0.000000 0.000000 -1.000000
vn 0.000000 0.000000 -1.000000
vn 0.000000 0.000000 -1.000000
vn 0.000000 0.000000 -1.000000
vn 0.000000 0.000000 -1.000000
vn 1.000000 -0.000015 0.000016
vn 1.000000 -0.000001 -0.000002
vn 1.000000 0.000000 0.000000
vn 1.000000 0.000000 0.000000
vn 1.000000 0.000000 0.000000
vn 1.000000 0.000000 0.000000
vn 1.000000 0.000000 0.000000
vn 1.000000 0.000000 0.000000
vn 1.000000 0.000000 0.000000
vn 1.000000 0.000000 0.000000
vn 1.000000 0.000002 -0.000002
vn 1.000000 -0.000014 0.000017
vn 0.000000 0.000000 1.000000
vn 0.000000 0.000000 1.000000
vn 0.000000 0.000000 1.000000
vn 0.000000 0.000000 1.000000
vn -0.000000 1.000000 0.000000
vn -0.000000 1.000000 -0.000000
vn 0.000000 1.000000 -0.000000
vn -0.000000 1.000000 -0.000000
vn 0.447214 0.894427 0.000000
vn 0.447214 0.894427 0.000000
vn 0.447214 0.894427 0.000000
vn 0.447214 0.894427 0.000000
vn 0.447214 -0.894427 0.000000
vn 0.447214 -0.894427 0.000000
vn 0.447214 -0.894427 0.000000
vn 0.447214 -0.894427 0.000000
vn 0.000000 -1.000000 0.000000
vn 0.000000 -1.000000 0.000000
vn 0.000000 -1.000000 0.000000
vn 0.000000 -1.000000 0.000000
vn 0.000000 0.000000 1.000000
vn 0.000000 0.000000 1.000000
vn 0.000000 0.000000 1.000000
vn 0.000000 0.000000 1.000000
vn 0.000000 0.000000 -1.000000
vn 0.000000 0.000000 -1.000000
vn 0.000000 0.000000 -1.000000
vn 0.000000 0.000000 -1.000000
vn -0.000000 1.000000 0.000000
vn -0.000000 1.000000 0.000000
vn -0.000000 1.000000 0.000000
vn -0.000000 1.000000 0.000000
vn 1.000000 0.000000 0.000000
vn 1.000000 0.000000 0.000000
vn 1.000000 0.000000 0.000000
vn 1.000000 0.000000 0.000000
vn 0.000000 0.000000 -1.000000
vn 0.000000 0.000000 -1.000000
vn 0.000000 0.000000 -1.000000
f 68//68 69//69 67//67
f 68//68 70//70 69//69
f 74//74 71//71 73//73
f 74//74 72//72 71//71
f 81//81 76//76 75//75
f 77//77 81//81 75//75
f 78//78 76//76 81//81
f 79//79 80//80 81//81
f 79//79 81//81 77//77
f 91//91 88//88 89//89
f 85//85 91//91 86//86
f 85//85 87//87 90//90
f 85//85 90//90 91//91
f 91//91 89//89 86//86
f 91//91 92//92 88//88
f 90//90 87//87 82//82
f 84//84 92//92 83//83
f 84//84 88//88 92//92
f 83//83 93//93 82//82
f 90//90 82//82 93//93
f 83//83 92//92 93//93
f 97//97 94//94 95//95
f 97//97 96//96 94//94
f 99//99 98//98 101//101
f 99//99 101//101 100//100
f 103//103 105//105 104//104
f 103//103 104//104 102//102
f 107//107 106//106 108//108
f 107//107 108//108 109//109
f 113//113 110//110 112//112
f 113//113 111//111 110//110
f 114//114 117//117 115//115
f 114//114 116//116 117//117
f 118//118 119//119 121//121
f 118//118 121//121 120//120
f 124//124 125//125 123//123
f 124//124 123//123 122//122
f 127//127 126//126 129//129
f 127//127 129//129 128//128
f 130//130 132//132 131//131
