# OMX visual mesh; coordinates in metres
mtllib materials.mtl
usemtl ivory_connectors
v -0.0343493 -0.0412386 0.0181500
v -0.0336333 -0.0412759 0.0181500
v -0.0386757 -0.0412386 0.0181500
v -0.0393620 -0.0412569 0.0181500
v -0.0409202 -0.0419420 0.0181541
v -0.0326125 -0.0432973 0.0178885
v -0.0315125 -0.0420108 0.0181253
v -0.0365125 -0.0412684 0.0181500
v -0.0362125 -0.0418684 0.0181500
v -0.0368125 -0.0418684 0.0181500
v -0.0390125 -0.0418684 0.0181500
v -0.0340125 -0.0418684 0.0181500
v -0.0404125 -0.0437141 0.0175360
v -0.0343493 -0.0412386 0.0181500
v -0.0336333 -0.0412759 0.0181500
v -0.0386757 -0.0412386 0.0181500
v -0.0393620 -0.0412569 0.0181500
v -0.0409202 -0.0419420 0.0181541
v -0.0315125 -0.0420108 0.0181253
v -0.0320505 -0.0411118 0.0222221
v -0.0409751 -0.0412088 0.0222253
v -0.0365125 -0.0406384 0.0221800
v -0.0409202 -0.0419420 0.0181541
v -0.0409751 -0.0412088 0.0222253
v -0.0415125 -0.0437684 0.0166500
v -0.0403698 -0.0400509 0.0167780
v -0.0409625 -0.0424827 0.0208193
v -0.0409722 -0.0436425 0.0221328
v -0.0415125 -0.0437684 0.0166500
v -0.0403698 -0.0400509 0.0167780
v -0.0386743 -0.0419045 0.0168335
v -0.0375285 -0.0400152 0.0167745
v -0.0393306 -0.0418888 0.0168871
v -0.0315125 -0.0437684 0.0166500
v -0.0336944 -0.0418888 0.0168871
v -0.0361743 -0.0419046 0.0168270
v -0.0338083 -0.0400483 0.0169177
v -0.0362009 -0.0412653 0.0167584
v -0.0343242 -0.0418715 0.0167584
v -0.0390033 -0.0412665 0.0167026
v -0.0368187 -0.0415694 0.0166727
v -0.0320505 -0.0411118 0.0222221
v -0.0409751 -0.0412088 0.0222253
v -0.0403698 -0.0400509 0.0167780
v -0.0375285 -0.0400152 0.0167745
v -0.0338083 -0.0400483 0.0169177
v -0.0315125 -0.0420108 0.0181253
v -0.0320505 -0.0411118 0.0222221
v -0.0315125 -0.0437684 0.0166500
v -0.0338083 -0.0400483 0.0169177
v -0.0326125 -0.0432973 0.0178885
v -0.0415125 -0.0437684 0.0166500
v -0.0315125 -0.0437684 0.0166500
v -0.0320625 -0.0426515 0.0212898
v -0.0404125 -0.0437141 0.0175360
v -0.0409722 -0.0436425 0.0221328
v -0.0409202 -0.0419420 0.0181541
v -0.0409625 -0.0424827 0.0208193
v -0.0404125 -0.0437141 0.0175360
v -0.0409722 -0.0436425 0.0221328
v -0.0320505 -0.0411118 0.0222221
v -0.0409751 -0.0412088 0.0222253
v -0.0365125 -0.0406384 0.0221800
v -0.0336944 -0.0418888 0.0168871
v -0.0338083 -0.0400483 0.0169177
v -0.0340125 -0.0412679 0.0166122
v -0.0338083 -0.0400483 0.0169177
v -0.0343242 -0.0418715 0.0167584
v -0.0340125 -0.0412679 0.0166122
v -0.0336944 -0.0418888 0.0168871
v -0.0361743 -0.0419046 0.0168270
v -0.0343242 -0.0418715 0.0167584
v -0.0315125 -0.0420108 0.0181253
v -0.0315125 -0.0437684 0.0166500
v -0.0320625 -0.0426515 0.0212898
v -0.0326125 -0.0432973 0.0178885
v -0.0315125 -0.0420108 0.0181253
v -0.0320625 -0.0426515 0.0212898
vn 0.000000 0.000000 1.000000
vn 0.047417 -0.104566 0.993387
vn 0.000000 0.000000 1.000000
vn 0.002127 0.001215 0.999997
vn -0.015804 -0.242265 0.970081
vn -0.006900 -0.164956 0.986277
vn -0.039720 -0.147900 0.988204
vn 0.000000 0.000000 1.000000
vn 0.000000 0.034175 0.999416
vn 0.000000 0.034175 0.999416
vn 0.000440 0.033386 0.999442
vn 0.039821 -0.104297 0.993749
vn -0.024624 -0.335511 0.941714
vn -0.051481 -0.993645 0.100097
vn -0.159070 -0.982045 0.101416
vn 0.017339 -0.990259 0.138156
vn 0.204222 -0.970754 0.126218
vn 0.397152 -0.902277 0.167827
vn -0.321372 -0.932903 0.162520
vn -0.168339 -0.979485 0.110776
vn 0.196616 -0.976403 0.089327
vn 0.003408 -0.994810 0.101697
vn -0.962781 0.270280 0.001426
vn -0.968905 0.240910 -0.056438
vn -0.966053 0.254841 0.042393
vn -0.963860 0.265621 -0.020463
vn -0.985409 0.147793 0.084414
vn -0.988763 0.115598 0.094785
vn 0.038934 0.067193 -0.996980
vn 0.007619 -0.007739 -0.999941
vn 0.005026 0.038901 -0.999230
vn 0.007284 0.033801 -0.999402
vn -0.039522 0.064570 -0.997130
vn -0.022325 0.088071 -0.995864
vn -0.037300 0.082308 -0.995909
vn 0.018039 0.013407 -0.999747
vn -0.017603 0.040680 -0.999017
vn 0.080902 0.005695 -0.996706
vn -0.038662 0.097825 -0.994452
vn -0.020503 -0.083008 -0.996338
vn 0.001389 -0.163086 -0.986611
vn -0.006230 0.979084 0.203362
vn -0.011011 0.978224 0.207260
vn -0.012038 0.978344 0.206637
vn -0.008188 0.978834 0.204490
vn 0.001190 0.980563 0.196199
vn 0.707762 0.623039 -0.333009
vn 0.670214 0.738465 -0.074042
vn 0.689691 0.465533 -0.554622
vn 0.704048 0.655505 -0.273186
vn -0.088131 -0.956907 0.276700
vn 0.037680 -0.998307 0.044302
vn -0.070556 -0.951543 0.299312
vn -0.174565 -0.961808 0.210840
vn 0.044373 -0.998996 0.006101
vn 0.033467 -0.999247 0.019656
vn 0.965107 0.253220 0.066694
vn 0.982333 0.153564 0.106958
vn 0.972688 0.217374 0.081409
vn 0.985066 0.125401 0.117979
vn 0.000544 -0.083516 -0.996506
vn 0.000544 -0.083516 -0.996506
vn 0.000544 -0.083516 -0.996506
vn 0.712833 0.055736 -0.699115
vn 0.712833 0.055736 -0.699115
vn 0.712833 0.055736 -0.699115
vn -0.785551 0.270883 -0.556355
vn -0.785551 0.270883 -0.556355
vn -0.785551 0.270883 -0.556355
vn 0.010742 -0.982730 -0.184731
vn 0.010742 -0.982730 -0.184731
vn 0.010742 -0.982730 -0.184731
vn 0.981706 -0.122413 0.145839
vn 0.981706 -0.122413 0.145839
vn 0.981706 -0.122413 0.145839
vn -0.759986 0.649939 -0.000508
vn -0.759986 0.649939 -0.000508
vn -0.759986 0.649939 -0.000508
f 12//12 6//6 2//2
f 1//1 9//9 12//12
f 8//8 9//9 1//1
f 3//3 10//10 8//8
f 3//3 11//11 10//10
f 3//3 8//8 1//1
f 5//5 11//11 4//4
f 5//5 6//6 12//12
f 5//5 12//12 9//9
f 5//5 9//9 10//10
f 5//5 10//10 11//11
f 7//7 2//2 6//6
f 5//5 13//13 6//6
f 21//21 18//18 17//17
f 17//17 22//22 21//21
f 17//17 16//16 22//22
f 14//14 15//15 20//20
f 16//16 14//14 22//22
f 20//20 15//15 19//19
f 14//14 20//20 22//22
f 26//26 25//25 23//23
f 27//27 23//23 25//25
f 28//28 27//27 25//25
f 24//24 26//26 23//23
f 37//37 39//39 36//36
f 32//32 37//37 38//38
f 33//33 30//30 40//40
f 30//30 32//32 40//40
f 31//31 40//40 32//32
f 36//36 38//38 37//37
f 31//31 29//29 33//33
f 41//41 36//36 31//31
f 33//33 29//29 30//30
f 41//41 32//32 38//38
f 29//29 31//31 36//36
f 34//34 36//36 35//35
f 34//34 35//35 37//37
f 29//29 36//36 34//34
f 32//32 41//41 31//31
f 43//43 45//45 44//44
f 42//42 45//45 43//43
f 42//42 46//46 45//45
f 49//49 50//50 47//47
f 47//47 50//50 48//48
f 52//52 55//55 56//56
f 51//51 53//53 54//54
f 52//52 53//53 51//51
f 52//52 51//51 55//55
f 59//59 57//57 58//58
f 59//59 58//58 60//60
f 61//61 62//62 63//63
f 65//65 64//64 66//66
f 68//68 67//67 69//69
f 72//72 70//70 71//71
f 74//74 73//73 75//75
f 77//77 76//76 78//78
v -0.0385494 -0.0329831 0.0181052
v -0.0394337 -0.0329933 0.0181322
v -0.0389975 -0.0329601 0.0190507
v -0.0402475 -0.0326162 0.0208439
v -0.0364975 -0.0329975 0.0208507
v -0.0327975 -0.0327314 0.0208507
v -0.0344456 -0.0329850 0.0180921
v -0.0360975 -0.0329600 0.0182507
v -0.0368975 -0.0329600 0.0186507
v -0.0360975 -0.0329600 0.0190507
v -0.0339975 -0.0329601 0.0190507
v -0.0316350 -0.0328964 0.0200871
v -0.0334618 -0.0339406 0.0181031
v -0.0320475 -0.0282219 0.0197387
v -0.0338759 -0.0315691 0.0189574
v -0.0402475 -0.0326162 0.0208439
v -0.0327975 -0.0327314 0.0208507
v -0.0338759 -0.0315691 0.0189574
v -0.0343343 -0.0315600 0.0183209
v -0.0386607 -0.0315600 0.0183136
v -0.0391251 -0.0315560 0.0189538
v -0.0361975 -0.0315600 0.0183507
v -0.0367975 -0.0315600 0.0183507
v -0.0364975 -0.0315600 0.0189507
v -0.0320146 -0.0273624 0.0181072
v -0.0343343 -0.0315600 0.0183209
v -0.0336183 -0.0315600 0.0183582
v -0.0386607 -0.0315600 0.0183136
v -0.0393470 -0.0315600 0.0183468
v -0.0364975 -0.0270920 0.0176789
v -0.0412590 -0.0270677 0.0170107
v -0.0393470 -0.0315600 0.0183468
v -0.0391251 -0.0315560 0.0189538
v -0.0412590 -0.0270677 0.0170107
v -0.0408603 -0.0276367 0.0187864
v -0.0385494 -0.0329831 0.0181052
v -0.0394337 -0.0329933 0.0181322
v -0.0344456 -0.0329850 0.0180921
v -0.0334618 -0.0339406 0.0181031
v -0.0320146 -0.0273624 0.0181072
v -0.0412590 -0.0270677 0.0170107
v -0.0412042 -0.0340227 0.0188549
v -0.0327975 -0.0327314 0.0208507
v -0.0316350 -0.0328964 0.0200871
v -0.0320475 -0.0282219 0.0197387
v -0.0402475 -0.0326162 0.0208439
v -0.0409475 -0.0283355 0.0201715
v -0.0412042 -0.0340227 0.0188549
v -0.0402475 -0.0326162 0.0208439
v -0.0364975 -0.0329975 0.0208507
v -0.0327975 -0.0327314 0.0208507
v -0.0327975 -0.0327314 0.0208507
v -0.0334618 -0.0339406 0.0181031
v -0.0339975 -0.0329601 0.0190507
v -0.0327975 -0.0327314 0.0208507
v -0.0316350 -0.0328964 0.0200871
v -0.0334618 -0.0339406 0.0181031
v -0.0334618 -0.0339406 0.0181031
v -0.0338759 -0.0315691 0.0189574
v -0.0320146 -0.0273624 0.0181072
v -0.0327975 -0.0327314 0.0208507
v -0.0320475 -0.0282219 0.0197387
v -0.0338759 -0.0315691 0.0189574
v -0.0338759 -0.0315691 0.0189574
v -0.0320146 -0.0273624 0.0181072
v -0.0336183 -0.0315600 0.0183582
v -0.0409475 -0.0283355 0.0201715
v -0.0391251 -0.0315560 0.0189538
v -0.0412042 -0.0340227 0.0188549
v -0.0391251 -0.0315560 0.0189538
v -0.0412590 -0.0270677 0.0170107
v -0.0412042 -0.0340227 0.0188549
v -0.0391251 -0.0315560 0.0189538
v -0.0412590 -0.0270677 0.0170107
v -0.0408603 -0.0276367 0.0187864
v -0.0394337 -0.0329933 0.0181322
v -0.0402475 -0.0326162 0.0208439
v -0.0412042 -0.0340227 0.0188549
v -0.0320146 -0.0273624 0.0181072
v -0.0364975 -0.0270920 0.0176789
v -0.0412590 -0.0270677 0.0170107
v -0.0402475 -0.0326162 0.0208439
v -0.0409475 -0.0283355 0.0201715
v -0.0391251 -0.0315560 0.0189538
vn -0.005641 -0.999955 0.007663
vn -0.130922 -0.986547 0.097896
vn -0.087731 -0.993194 0.076608
vn -0.108150 -0.987580 0.113968
vn -0.005669 -0.999439 0.033008
vn 0.071504 -0.994336 0.078633
vn 0.003974 -0.999949 0.009309
vn -0.004014 -0.995751 0.092000
vn 0.013381 -0.999903 -0.003906
vn -0.013723 -0.999725 -0.018992
vn 0.046836 -0.997920 0.044297
vn 0.520840 0.166846 -0.837191
vn 0.582025 0.363659 -0.727323
vn 0.436441 -0.028501 -0.899281
vn 0.511339 0.141969 -0.847571
vn 0.005153 0.866845 0.498552
vn 0.012756 0.855370 0.517860
vn 0.008849 0.931015 0.364874
vn 0.003004 0.999942 0.010318
vn 0.001305 0.999989 -0.004432
vn 0.001776 0.939003 0.343904
vn 0.000000 1.000000 0.000000
vn 0.000000 1.000000 0.000000
vn 0.001403 0.959220 0.282658
vn -0.084669 0.097259 0.991651
vn -0.045215 0.107729 0.993152
vn -0.051993 0.079397 0.995486
vn -0.026142 0.216283 0.975981
vn 0.046098 0.302753 0.951953
vn -0.081039 0.150507 0.985282
vn -0.116318 0.214012 0.969881
vn 0.885250 0.372645 -0.278330
vn 0.871015 0.371929 -0.320940
vn 0.925760 0.367192 -0.090215
vn 0.923413 0.368285 -0.108051
vn -0.012221 -0.187341 -0.982219
vn -0.133163 -0.223751 -0.965507
vn 0.041823 -0.050085 -0.997869
vn 0.009686 -0.001506 -0.999952
vn 0.101553 -0.041243 -0.993975
vn 0.002545 -0.138659 -0.990337
vn -0.237335 -0.250731 -0.938513
vn 0.556572 0.110476 0.823421
vn 0.556572 0.110476 0.823421
vn 0.556572 0.110476 0.823421
vn -0.878889 -0.069585 0.471924
vn -0.878889 -0.069585 0.471924
vn -0.878889 -0.069585 0.471924
vn -0.000747 0.010384 0.999946
vn -0.000747 0.010384 0.999946
vn -0.000747 0.010384 0.999946
vn -0.531029 -0.720747 0.445570
vn -0.531029 -0.720747 0.445570
vn -0.531029 -0.720747 0.445570
vn 0.116758 -0.919129 0.376257
vn 0.116758 -0.919129 0.376257
vn 0.116758 -0.919129 0.376257
vn 0.666252 -0.147034 0.731088
vn 0.666252 -0.147034 0.731088
vn 0.666252 -0.147034 0.731088
vn -0.754380 0.272702 0.597113
vn -0.754380 0.272702 0.597113
vn -0.754380 0.272702 0.597113
vn -0.874554 0.311918 -0.371299
vn -0.874554 0.311918 -0.371299
vn -0.874554 0.311918 -0.371299
vn -0.227112 0.229360 -0.946475
vn -0.227112 0.229360 -0.946475
vn -0.227112 0.229360 -0.946475
vn -0.327849 0.239722 0.913810
vn -0.327849 0.239722 0.913810
vn -0.327849 0.239722 0.913810
vn -0.912914 -0.400914 0.076524
vn -0.912914 -0.400914 0.076524
vn -0.912914 -0.400914 0.076524
vn 0.565039 -0.776958 0.277611
vn 0.565039 -0.776958 0.277611
vn 0.565039 -0.776958 0.277611
vn 0.111509 0.625950 -0.771850
vn 0.111509 0.625950 -0.771850
vn 0.111509 0.625950 -0.771850
vn 0.779805 0.219608 0.586240
vn 0.779805 0.219608 0.586240
vn 0.779805 0.219608 0.586240
f 81//81 83//83 82//82
f 79//79 83//83 81//81
f 80//80 81//81 82//82
f 87//87 88//88 83//83
f 85//85 88//88 86//86
f 85//85 83//83 88//88
f 79//79 86//86 87//87
f 79//79 85//85 86//86
f 79//79 87//87 83//83
f 89//89 84//84 83//83
f 85//85 89//89 83//83
f 93//93 90//90 91//91
f 92//92 90//90 93//93
f 99//99 96//96 102//102
f 98//98 100//100 97//97
f 98//98 101//101 100//100
f 98//98 99//99 102//102
f 98//98 102//102 101//101
f 95//95 96//96 94//94
f 99//99 94//94 96//96
f 100//100 102//102 97//97
f 97//97 102//102 96//96
f 104//104 105//105 103//103
f 104//104 103//103 108//108
f 106//106 104//104 108//108
f 106//106 108//108 109//109
f 107//107 106//106 109//109
f 113//113 111//111 110//110
f 113//113 110//110 112//112
f 119//119 114//114 115//115
f 119//119 115//115 120//120
f 116//116 114//114 119//119
f 118//118 117//117 116//116
f 118//118 116//116 119//119
f 121//121 122//122 123//123
f 126//126 124//124 125//125
f 129//129 127//127 128//128
f 131//131 130//130 132//132
f 133//133 135//135 134//134
f 138//138 137//137 136//136
f 141//141 139//139 140//140
f 144//144 142//142 143//143
f 147//147 145//145 146//146
f 150//150 148//148 149//149
f 151//151 153//153 152//152
f 155//155 156//156 154//154
f 157//157 159//159 158//158
f 161//161 160//160 162//162
v -0.0343493 -0.0371285 0.0181500
v -0.0336333 -0.0371659 0.0181500
v -0.0386757 -0.0371285 0.0181500
v -0.0393620 -0.0371469 0.0181500
v -0.0409202 -0.0378319 0.0181541
v -0.0326125 -0.0391873 0.0178885
v -0.0315125 -0.0379008 0.0181253
v -0.0365125 -0.0371584 0.0181500
v -0.0362125 -0.0377584 0.0181500
v -0.0368125 -0.0377584 0.0181500
v -0.0390125 -0.0377584 0.0181500
v -0.0340125 -0.0377584 0.0181500
v -0.0404125 -0.0396041 0.0175360
v -0.0343493 -0.0371285 0.0181500
v -0.0336333 -0.0371659 0.0181500
v -0.0386757 -0.0371285 0.0181500
v -0.0393620 -0.0371469 0.0181500
v -0.0409202 -0.0378319 0.0181541
v -0.0315125 -0.0379008 0.0181253
v -0.0320505 -0.0370018 0.0222221
v -0.0409751 -0.0370988 0.0222253
v -0.0365125 -0.0365284 0.0221800
v -0.0409202 -0.0378319 0.0181541
v -0.0409751 -0.0370988 0.0222253
v -0.0415125 -0.0396584 0.0166500
v -0.0403698 -0.0359409 0.0167780
v -0.0409625 -0.0383727 0.0208193
v -0.0409722 -0.0395325 0.0221329
v -0.0415125 -0.0396584 0.0166500
v -0.0403698 -0.0359409 0.0167780
v -0.0386743 -0.0377945 0.0168335
v -0.0375285 -0.0359052 0.0167745
v -0.0393306 -0.0377788 0.0168871
v -0.0315125 -0.0396584 0.0166500
v -0.0336944 -0.0377788 0.0168871
v -0.0361743 -0.0377946 0.0168270
v -0.0338083 -0.0359383 0.0169177
v -0.0362009 -0.0371553 0.0167584
v -0.0343242 -0.0377615 0.0167584
v -0.0390033 -0.0371565 0.0167026
v -0.0368187 -0.0374594 0.0166727
v -0.0320505 -0.0370018 0.0222221
v -0.0409751 -0.0370988 0.0222253
v -0.0403698 -0.0359409 0.0167780
v -0.0375285 -0.0359052 0.0167745
v -0.0338083 -0.0359383 0.0169177
v -0.0315125 -0.0379008 0.0181253
v -0.0320505 -0.0370018 0.0222221
v -0.0315125 -0.0396584 0.0166500
v -0.0338083 -0.0359383 0.0169177
v -0.0326125 -0.0391873 0.0178885
v -0.0415125 -0.0396584 0.0166500
v -0.0409722 -0.0395325 0.0221329
v -0.0315125 -0.0396584 0.0166500
v -0.0320625 -0.0385415 0.0212898
v -0.0404125 -0.0396041 0.0175360
v -0.0409202 -0.0378319 0.0181541
v -0.0409625 -0.0383727 0.0208193
v -0.0409722 -0.0395325 0.0221329
v -0.0404125 -0.0396041 0.0175360
v -0.0320505 -0.0370018 0.0222221
v -0.0409751 -0.0370988 0.0222253
v -0.0365125 -0.0365284 0.0221800
v -0.0336944 -0.0377788 0.0168871
v -0.0338083 -0.0359383 0.0169177
v -0.0340125 -0.0371579 0.0166122
v -0.0338083 -0.0359383 0.0169177
v -0.0343242 -0.0377615 0.0167584
v -0.0340125 -0.0371579 0.0166122
v -0.0336944 -0.0377788 0.0168871
v -0.0361743 -0.0377946 0.0168270
v -0.0343242 -0.0377615 0.0167584
v -0.0315125 -0.0379008 0.0181253
v -0.0315125 -0.0396584 0.0166500
v -0.0320625 -0.0385415 0.0212898
v -0.0326125 -0.0391873 0.0178885
v -0.0315125 -0.0379008 0.0181253
v -0.0320625 -0.0385415 0.0212898
vn 0.000000 0.000000 1.000000
vn 0.047416 -0.104566 0.993387
vn 0.000000 0.000000 1.000000
vn 0.002127 0.001215 0.999997
vn -0.015804 -0.242264 0.970082
vn -0.006900 -0.164955 0.986277
vn -0.039721 -0.147899 0.988205
vn 0.000000 0.000000 1.000000
vn 0.000000 0.034177 0.999416
vn 0.000000 0.034177 0.999416
vn 0.000440 0.033388 0.999442
vn 0.039821 -0.104296 0.993749
vn -0.024624 -0.335510 0.941715
vn -0.051481 -0.993645 0.100097
vn -0.159070 -0.982045 0.101416
vn 0.017339 -0.990259 0.138156
vn 0.204221 -0.970754 0.126217
vn 0.397151 -0.902278 0.167826
vn -0.321372 -0.932902 0.162520
vn -0.168339 -0.979485 0.110777
vn 0.196616 -0.976403 0.089326
vn 0.003408 -0.994810 0.101697
vn -0.962781 0.270280 0.001426
vn -0.968905 0.240911 -0.056438
vn -0.966053 0.254843 0.042391
vn -0.963860 0.265621 -0.020464
vn -0.985407 0.147810 0.084409
vn -0.988762 0.115618 0.094779
vn 0.038934 0.067193 -0.996980
vn 0.007619 -0.007739 -0.999941
vn 0.005026 0.038901 -0.999230
vn 0.007283 0.033801 -0.999402
vn -0.039520 0.064568 -0.997130
vn -0.022325 0.088071 -0.995864
vn -0.037301 0.082308 -0.995909
vn 0.018039 0.013407 -0.999747
vn -0.017603 0.040680 -0.999017
vn 0.080902 0.005695 -0.996706
vn -0.038662 0.097825 -0.994452
vn -0.020502 -0.083008 -0.996338
vn 0.001389 -0.163085 -0.986611
vn -0.006230 0.979084 0.203362
vn -0.011011 0.978224 0.207260
vn -0.012038 0.978344 0.206637
vn -0.008188 0.978834 0.204490
vn 0.001190 0.980563 0.196199
vn 0.707763 0.623038 -0.333009
vn 0.670214 0.738465 -0.074042
vn 0.689691 0.465533 -0.554622
vn 0.704048 0.655504 -0.273186
vn -0.088130 -0.956907 0.276700
vn 0.037683 -0.998307 0.044298
vn 0.033471 -0.999246 0.019650
vn -0.070556 -0.951543 0.299312
vn -0.174563 -0.961808 0.210841
vn 0.044375 -0.998996 0.006098
vn 0.965107 0.253219 0.066694
vn 0.982335 0.153548 0.106964
vn 0.985068 0.125381 0.117987
vn 0.972689 0.217367 0.081411
vn 0.000544 -0.083516 -0.996506
vn 0.000544 -0.083516 -0.996506
vn 0.000544 -0.083516 -0.996506
vn 0.712833 0.055736 -0.699115
vn 0.712833 0.055736 -0.699115
vn 0.712833 0.055736 -0.699115
vn -0.785551 0.270883 -0.556355
vn -0.785551 0.270883 -0.556355
vn -0.785551 0.270883 -0.556355
vn 0.010744 -0.982729 -0.184739
vn 0.010744 -0.982729 -0.184739
vn 0.010744 -0.982729 -0.184739
vn 0.981706 -0.122413 0.145839
vn 0.981706 -0.122413 0.145839
vn 0.981706 -0.122413 0.145839
vn -0.759987 0.649938 -0.000509
vn -0.759987 0.649938 -0.000509
vn -0.759987 0.649938 -0.000509
f 174//174 168//168 164//164
f 163//163 171//171 174//174
f 170//170 171//171 163//163
f 165//165 172//172 170//170
f 165//165 173//173 172//172
f 165//165 170//170 163//163
f 167//167 173//173 166//166
f 167//167 168//168 174//174
f 167//167 174//174 171//171
f 167//167 171//171 172//172
f 167//167 172//172 173//173
f 169//169 164//164 168//168
f 167//167 175//175 168//168
f 183//183 180//180 179//179
f 179//179 184//184 183//183
f 179//179 178//178 184//184
f 176//176 177//177 182//182
f 178//178 176//176 184//184
f 182//182 177//177 181//181
f 176//176 182//182 184//184
f 188//188 187//187 185//185
f 189//189 185//185 187//187
f 190//190 189//189 187//187
f 186//186 188//188 185//185
f 199//199 201//201 198//198
f 194//194 199//199 200//200
f 195//195 192//192 202//202
f 192//192 194//194 202//202
f 193//193 202//202 194//194
f 198//198 200//200 199//199
f 193//193 191//191 195//195
f 203//203 198//198 193//193
f 195//195 191//191 192//192
f 203//203 194//194 200//200
f 191//191 193//193 198//198
f 196//196 198//198 197//197
f 196//196 197//197 199//199
f 191//191 198//198 196//196
f 194//194 203//203 193//193
f 205//205 207//207 206//206
f 204//204 207//207 205//205
f 204//204 208//208 207//207
f 211//211 212//212 209//209
f 209//209 212//212 210//210
f 214//214 218//218 215//215
f 213//213 216//216 217//217
f 214//214 216//216 213//213
f 214//214 213//213 218//218
f 222//222 219//219 220//220
f 222//222 220//220 221//221
f 223//223 224//224 225//225
f 227//227 226//226 228//228
f 230//230 229//229 231//231
f 234//234 232//232 233//233
f 236//236 235//235 237//237
f 239//239 238//238 240//240
v -0.0344606 -0.0465369 0.0181052
v -0.0335763 -0.0465267 0.0181322
v -0.0340125 -0.0465600 0.0190507
v -0.0327625 -0.0469038 0.0208439
v -0.0365125 -0.0465225 0.0208507
v -0.0402125 -0.0467886 0.0208507
v -0.0385644 -0.0465350 0.0180921
v -0.0369125 -0.0465600 0.0182507
v -0.0361125 -0.0465600 0.0186507
v -0.0369125 -0.0465600 0.0190507
v -0.0390125 -0.0465600 0.0190507
v -0.0413750 -0.0466236 0.0200871
v -0.0395482 -0.0455794 0.0181031
v -0.0409625 -0.0512981 0.0197387
v -0.0391341 -0.0479509 0.0189574
v -0.0327625 -0.0469038 0.0208439
v -0.0402125 -0.0467886 0.0208507
v -0.0391341 -0.0479509 0.0189574
v -0.0386757 -0.0479600 0.0183209
v -0.0343493 -0.0479600 0.0183136
v -0.0338849 -0.0479640 0.0189538
v -0.0368125 -0.0479600 0.0183507
v -0.0362125 -0.0479600 0.0183507
v -0.0365125 -0.0479600 0.0189507
v -0.0409954 -0.0521576 0.0181072
v -0.0386757 -0.0479600 0.0183209
v -0.0393917 -0.0479600 0.0183582
v -0.0343493 -0.0479600 0.0183136
v -0.0336630 -0.0479600 0.0183468
v -0.0365125 -0.0524280 0.0176789
v -0.0317510 -0.0524523 0.0170107
v -0.0336630 -0.0479600 0.0183468
v -0.0338849 -0.0479640 0.0189538
v -0.0317510 -0.0524523 0.0170107
v -0.0321497 -0.0518833 0.0187864
v -0.0344606 -0.0465369 0.0181052
v -0.0335763 -0.0465267 0.0181322
v -0.0385644 -0.0465350 0.0180921
v -0.0395482 -0.0455794 0.0181031
v -0.0409954 -0.0521576 0.0181072
v -0.0317510 -0.0524523 0.0170107
v -0.0318058 -0.0454973 0.0188549
v -0.0402125 -0.0467886 0.0208507
v -0.0413750 -0.0466236 0.0200871
v -0.0409625 -0.0512981 0.0197387
v -0.0327625 -0.0469038 0.0208439
v -0.0320625 -0.0511845 0.0201715
v -0.0318058 -0.0454973 0.0188549
v -0.0327625 -0.0469038 0.0208439
v -0.0365125 -0.0465225 0.0208507
v -0.0402125 -0.0467886 0.0208507
v -0.0402125 -0.0467886 0.0208507
v -0.0395482 -0.0455794 0.0181031
v -0.0390125 -0.0465600 0.0190507
v -0.0402125 -0.0467886 0.0208507
v -0.0413750 -0.0466236 0.0200871
v -0.0395482 -0.0455794 0.0181031
v -0.0395482 -0.0455794 0.0181031
v -0.0391341 -0.0479509 0.0189574
v -0.0409954 -0.0521576 0.0181072
v -0.0402125 -0.0467886 0.0208507
v -0.0409625 -0.0512981 0.0197387
v -0.0391341 -0.0479509 0.0189574
v -0.0391341 -0.0479509 0.0189574
v -0.0409954 -0.0521576 0.0181072
v -0.0393917 -0.0479600 0.0183582
v -0.0320625 -0.0511845 0.0201715
v -0.0338849 -0.0479640 0.0189538
v -0.0318058 -0.0454973 0.0188549
v -0.0338849 -0.0479640 0.0189538
v -0.0317510 -0.0524523 0.0170107
v -0.0318058 -0.0454973 0.0188549
v -0.0338849 -0.0479640 0.0189538
v -0.0317510 -0.0524523 0.0170107
v -0.0321497 -0.0518833 0.0187864
v -0.0335763 -0.0465267 0.0181322
v -0.0327625 -0.0469038 0.0208439
v -0.0318058 -0.0454973 0.0188549
v -0.0409954 -0.0521576 0.0181072
v -0.0365125 -0.0524280 0.0176789
v -0.0317510 -0.0524523 0.0170107
v -0.0327625 -0.0469038 0.0208439
v -0.0320625 -0.0511845 0.0201715
v -0.0338849 -0.0479640 0.0189538
vn 0.005667 0.999954 0.007694
vn 0.130824 0.986557 0.097930
vn 0.087713 0.993194 0.076626
vn 0.108126 0.987585 0.113949
vn 0.005669 0.999439 0.033000
vn -0.071504 0.994339 0.078596
vn -0.004007 0.999948 0.009336
vn 0.004015 0.995749 0.092021
vn -0.013384 0.999903 -0.003883
vn 0.013736 0.999725 -0.018993
vn -0.046869 0.997918 0.044306
vn -0.520841 -0.166846 -0.837190
vn -0.582026 -0.363659 -0.727323
vn -0.436441 0.028501 -0.899281
vn -0.511339 -0.141968 -0.847571
vn -0.005153 -0.866844 0.498553
vn -0.012756 -0.855369 0.517862
vn -0.008851 -0.931016 0.364871
vn -0.003010 -0.999943 0.010292
vn -0.001298 -0.999989 -0.004454
vn -0.001773 -0.939004 0.343902
vn 0.000000 -1.000000 -0.000020
vn -0.000000 -1.000000 -0.000020
vn -0.001399 -0.958678 0.284488
vn 0.084670 -0.097259 0.991651
vn 0.045215 -0.107729 0.993152
vn 0.051993 -0.079397 0.995486
vn 0.026142 -0.216283 0.975981
vn -0.046098 -0.302753 0.951954
vn 0.081039 -0.150507 0.985282
vn 0.116318 -0.214012 0.969881
vn -0.885250 -0.372645 -0.278333
vn -0.871013 -0.371928 -0.320944
vn -0.925760 -0.367192 -0.090213
vn -0.923413 -0.368285 -0.108050
vn 0.012221 0.187341 -0.982219
vn 0.133164 0.223751 -0.965507
vn -0.041822 0.050085 -0.997869
vn -0.009685 0.001505 -0.999952
vn -0.101553 0.041243 -0.993975
vn -0.002545 0.138658 -0.990337
vn 0.237336 0.250731 -0.938512
vn -0.556574 -0.110476 0.823420
vn -0.556574 -0.110476 0.823420
vn -0.556574 -0.110476 0.823420
vn 0.878890 0.069586 0.471922
vn 0.878890 0.069586 0.471922
vn 0.878890 0.069586 0.471922
vn 0.000747 -0.010384 0.999946
vn 0.000747 -0.010384 0.999946
vn 0.000747 -0.010384 0.999946
vn 0.531073 0.720715 0.445569
vn 0.531073 0.720715 0.445569
vn 0.531073 0.720715 0.445569
vn -0.116758 0.919128 0.376260
vn -0.116758 0.919128 0.376260
vn -0.116758 0.919128 0.376260
vn -0.666249 0.147033 0.731091
vn -0.666249 0.147033 0.731091
vn -0.666249 0.147033 0.731091
vn 0.754379 -0.272702 0.597114
vn 0.754379 -0.272702 0.597114
vn 0.754379 -0.272702 0.597114
vn 0.874552 -0.311918 -0.371304
vn 0.874552 -0.311918 -0.371304
vn 0.874552 -0.311918 -0.371304
vn 0.227113 -0.229360 -0.946474
vn 0.227113 -0.229360 -0.946474
vn 0.227113 -0.229360 -0.946474
vn 0.327850 -0.239722 0.913810
vn 0.327850 -0.239722 0.913810
vn 0.327850 -0.239722 0.913810
vn 0.912914 0.400915 0.076522
vn 0.912914 0.400915 0.076522
vn 0.912914 0.400915 0.076522
vn -0.565037 0.776958 0.277613
vn -0.565037 0.776958 0.277613
vn -0.565037 0.776958 0.277613
vn -0.111509 -0.625961 -0.771841
vn -0.111509 -0.625961 -0.771841
vn -0.111509 -0.625961 -0.771841
vn -0.779804 -0.219608 0.586240
vn -0.779804 -0.219608 0.586240
vn -0.779804 -0.219608 0.586240
f 243//243 245//245 244//244
f 241//241 245//245 243//243
f 242//242 243//243 244//244
f 249//249 250//250 245//245
f 247//247 250//250 248//248
f 247//247 245//245 250//250
f 241//241 248//248 249//249
f 241//241 247//247 248//248
f 241//241 249//249 245//245
f 251//251 246//246 245//245
f 247//247 251//251 245//245
f 255//255 252//252 253//253
f 254//254 252//252 255//255
f 261//261 258//258 264//264
f 260//260 262//262 259//259
f 260//260 263//263 262//262
f 260//260 261//261 264//264
f 260//260 264//264 263//263
f 257//257 258//258 256//256
f 261//261 256//256 258//258
f 262//262 264//264 259//259
f 259//259 264//264 258//258
f 266//266 267//267 265//265
f 266//266 265//265 270//270
f 268//268 266//266 270//270
f 268//268 270//270 271//271
f 269//269 268//268 271//271
f 275//275 273//273 272//272
f 275//275 272//272 274//274
f 281//281 276//276 277//277
f 281//281 277//277 282//282
f 278//278 276//276 281//281
f 280//280 279//279 278//278
f 280//280 278//278 281//281
f 283//283 284//284 285//285
f 288//288 286//286 287//287
f 291//291 289//289 290//290
f 293//293 292//292 294//294
f 295//295 297//297 296//296
f 300//300 299//299 298//298
f 303//303 301//301 302//302
f 306//306 304//304 305//305
f 309//309 307//307 308//308
f 312//312 310//310 311//311
f 313//313 315//315 314//314
f 317//317 318//318 316//316
f 319//319 321//321 320//320
f 323//323 322//322 324//324
