# OMX visual mesh; coordinates in metres
mtllib materials.mtl
usemtl black_electronics
v 0.0312989 -0.0053000 0.1229972
v 0.0319200 -0.0094000 0.1230007
v 0.0228800 -0.0094000 0.1230366
v 0.0230000 -0.0053000 0.1226524
v 0.0319800 -0.0046333 0.1255000
v 0.0312989 -0.0053000 0.1229972
v 0.0228200 -0.0044667 0.1255000
v 0.0239020 -0.0053000 0.1236760
v 0.0261500 -0.0053000 0.1236200
v 0.0286500 -0.0053000 0.1229800
v 0.0299000 -0.0053000 0.1236200
v 0.0312989 -0.0053000 0.1229972
v 0.0239020 -0.0053000 0.1236760
v 0.0230000 -0.0053000 0.1226524
v 0.0261500 -0.0053000 0.1229800
v 0.0286500 -0.0053000 0.1229800
v 0.0313100 -0.0038000 0.1226600
v 0.0319200 -0.0094000 0.1230007
v 0.0227964 -0.0041750 0.1231200
v 0.0228800 -0.0094000 0.1230366
v 0.0261500 -0.0038000 0.1229800
v 0.0249000 -0.0006000 0.1233000
v 0.0319800 -0.0046333 0.1255000
v 0.0313100 -0.0038000 0.1226600
v 0.0228200 -0.0044667 0.1255000
v 0.0227964 -0.0041750 0.1231200
v 0.0261500 -0.0038000 0.1236200
v 0.0286500 -0.0038000 0.1236200
v 0.0313100 -0.0038000 0.1226600
v 0.0261500 -0.0038000 0.1229800
v 0.0286500 -0.0038000 0.1236200
v 0.0299000 -0.0038000 0.1229800
v 0.0313100 -0.0038000 0.1226600
v 0.0286500 -0.0038000 0.1236200
v 0.0299000 -0.0038000 0.1229800
v 0.0299000 -0.0006000 0.1233000
v 0.0318750 -0.0084500 0.1243762
v 0.0319800 -0.0046333 0.1255000
v 0.0312989 -0.0053000 0.1229972
v 0.0318750 -0.0084500 0.1243762
v 0.0312989 -0.0053000 0.1229972
v 0.0324000 -0.0053000 0.1238500
v 0.0319800 -0.0046333 0.1255000
v 0.0324000 -0.0053000 0.1238500
v 0.0313100 -0.0038000 0.1226600
v 0.0318750 -0.0084500 0.1243762
v 0.0319800 -0.0046333 0.1255000
v 0.0324000 -0.0053000 0.1238500
v 0.0324000 -0.0053000 0.1238500
v 0.0313100 -0.0038000 0.1226600
v 0.0319200 -0.0094000 0.1230007
v 0.0229250 -0.0084500 0.1243762
v 0.0228200 -0.0044667 0.1255000
v 0.0239020 -0.0053000 0.1236760
v 0.0229250 -0.0084500 0.1243762
v 0.0239020 -0.0053000 0.1236760
v 0.0227964 -0.0041750 0.1231200
v 0.0229250 -0.0084500 0.1243762
v 0.0228200 -0.0044667 0.1255000
v 0.0227964 -0.0041750 0.1231200
v 0.0239020 -0.0053000 0.1236760
v 0.0227964 -0.0041750 0.1231200
v 0.0228800 -0.0094000 0.1230366
v 0.0239020 -0.0053000 0.1236760
v 0.0228800 -0.0094000 0.1230366
v 0.0230000 -0.0053000 0.1226524
v 0.0312989 -0.0053000 0.1229972
v 0.0324000 -0.0053000 0.1238500
v 0.0319200 -0.0094000 0.1230007
v 0.0239020 -0.0053000 0.1236760
v 0.0261500 -0.0053000 0.1236200
v 0.0249000 -0.0093000 0.1233000
v 0.0261500 -0.0053000 0.1236200
v 0.0261500 -0.0053000 0.1229800
v 0.0249000 -0.0093000 0.1233000
v 0.0239020 -0.0053000 0.1236760
v 0.0261500 -0.0053000 0.1229800
v 0.0249000 -0.0093000 0.1233000
v 0.0261500 -0.0053000 0.1236200
v 0.0261500 -0.0053000 0.1229800
v 0.0274000 -0.0093000 0.1233000
v 0.0261500 -0.0053000 0.1236200
v 0.0286500 -0.0053000 0.1229800
v 0.0274000 -0.0093000 0.1233000
v 0.0261500 -0.0053000 0.1229800
v 0.0286500 -0.0053000 0.1229800
v 0.0274000 -0.0093000 0.1233000
v 0.0286500 -0.0053000 0.1229800
v 0.0299000 -0.0053000 0.1236200
v 0.0299000 -0.0093000 0.1233000
v 0.0312989 -0.0053000 0.1229972
v 0.0299000 -0.0053000 0.1236200
v 0.0299000 -0.0093000 0.1233000
v 0.0312989 -0.0053000 0.1229972
v 0.0286500 -0.0053000 0.1229800
v 0.0299000 -0.0093000 0.1233000
v 0.0261500 -0.0038000 0.1229800
v 0.0261500 -0.0038000 0.1236200
v 0.0249000 -0.0006000 0.1233000
v 0.0227964 -0.0041750 0.1231200
v 0.0261500 -0.0038000 0.1236200
v 0.0249000 -0.0006000 0.1233000
v 0.0261500 -0.0038000 0.1229800
v 0.0261500 -0.0038000 0.1236200
v 0.0274000 -0.0006000 0.1233000
v 0.0261500 -0.0038000 0.1229800
v 0.0286500 -0.0038000 0.1236200
v 0.0274000 -0.0006000 0.1233000
v 0.0261500 -0.0038000 0.1236200
v 0.0286500 -0.0038000 0.1236200
v 0.0274000 -0.0006000 0.1233000
v 0.0313100 -0.0038000 0.1226600
v 0.0286500 -0.0038000 0.1236200
v 0.0299000 -0.0006000 0.1233000
vn -0.008009 0.026043 0.999629
vn 0.003969 0.001452 0.999991
vn -0.028058 0.067191 0.997346
vn -0.041328 0.094413 0.994675
vn 0.038645 -0.952075 0.303414
vn 0.102374 -0.967807 0.229932
vn -0.003474 -0.916470 0.400088
vn 0.010474 -0.907155 0.420665
vn -0.009686 -0.934539 0.355728
vn -0.000001 -1.000000 -0.000000
vn 0.029927 -0.963387 0.266440
vn -0.000000 -1.000000 0.000000
vn -0.000000 -1.000000 -0.000001
vn -0.000000 -1.000000 -0.000001
vn -0.000001 -1.000000 0.000003
vn -0.000000 -1.000000 0.000000
vn -0.051232 -0.059708 -0.996900
vn -0.034284 -0.037057 -0.998725
vn -0.032410 0.025272 -0.999155
vn -0.003969 0.015905 -0.999866
vn -0.057824 0.148533 -0.987215
vn -0.050490 0.079836 -0.995529
vn 0.062761 0.948850 0.309427
vn 0.093792 0.961075 0.259880
vn -0.081704 0.975171 0.205828
vn -0.128228 0.984226 0.121890
vn -0.026014 0.955801 0.292862
vn 0.034821 0.937598 0.345972
vn 0.000000 1.000000 -0.000000
vn 0.000000 1.000000 -0.000000
vn 0.000000 1.000000 -0.000000
vn 0.000000 1.000000 -0.000000
vn -0.220259 0.097065 -0.970600
vn -0.453963 0.088665 -0.886598
vn -0.337197 0.093681 -0.936762
vn -0.339740 0.093590 -0.935851
vn -0.959664 -0.054794 0.275757
vn -0.959664 -0.054794 0.275757
vn -0.959664 -0.054794 0.275757
vn 0.596203 -0.227957 -0.769791
vn 0.596203 -0.227957 -0.769791
vn 0.596203 -0.227957 -0.769791
vn 0.817761 0.575050 -0.024188
vn 0.817761 0.575050 -0.024188
vn 0.817761 0.575050 -0.024188
vn 0.951541 -0.110662 0.286920
vn 0.951541 -0.110662 0.286920
vn 0.951541 -0.110662 0.286920
vn 0.763704 0.044010 -0.644064
vn 0.763704 0.044010 -0.644064
vn 0.763704 0.044010 -0.644064
vn 0.824425 -0.133444 0.550015
vn 0.824425 -0.133444 0.550015
vn 0.824425 -0.133444 0.550015
vn 0.198124 -0.270844 -0.942014
vn 0.198124 -0.270844 -0.942014
vn 0.198124 -0.270844 -0.942014
vn -0.999582 -0.028175 0.006474
vn -0.999582 -0.028175 0.006474
vn -0.999582 -0.028175 0.006474
vn -0.466607 -0.021590 0.884201
vn -0.466607 -0.021590 0.884201
vn -0.466607 -0.021590 0.884201
vn 0.747645 -0.083615 -0.658814
vn 0.747645 -0.083615 -0.658814
vn 0.747645 -0.083615 -0.658814
vn -0.609745 -0.091701 0.787275
vn -0.609745 -0.091701 0.787275
vn -0.609745 -0.091701 0.787275
vn 0.024794 -0.087422 0.995863
vn 0.024794 -0.087422 0.995863
vn 0.024794 -0.087422 0.995863
vn 0.954480 -0.298275 0.000000
vn 0.954480 -0.298275 0.000000
vn 0.954480 -0.298275 0.000000
vn -0.295721 0.015998 -0.955140
vn -0.295721 0.015998 -0.955140
vn -0.295721 0.015998 -0.955140
vn -0.954480 -0.298275 0.000000
vn -0.954480 -0.298275 0.000000
vn -0.954480 -0.298275 0.000000
vn 0.248015 0.000000 0.968756
vn 0.248015 0.000000 0.968756
vn 0.248015 0.000000 0.968756
vn -0.000000 -0.079750 -0.996815
vn -0.000000 -0.079750 -0.996815
vn -0.000000 -0.079750 -0.996815
vn -0.454606 -0.071032 0.887856
vn -0.454606 -0.071032 0.887856
vn -0.454606 -0.071032 0.887856
vn 0.405662 -0.072893 0.911112
vn 0.405662 -0.072893 0.911112
vn 0.405662 -0.072893 0.911112
vn 0.006472 -0.077738 -0.996953
vn 0.006472 -0.077738 -0.996953
vn 0.006472 -0.077738 -0.996953
vn 0.931457 0.363850 0.000001
vn 0.931457 0.363850 0.000001
vn 0.931457 0.363850 0.000001
vn -0.151675 0.039521 0.987640
vn -0.151675 0.039521 0.987640
vn -0.151675 0.039521 0.987640
vn -0.931457 0.363851 -0.000001
vn -0.931457 0.363851 -0.000001
vn -0.931457 0.363851 -0.000001
vn 0.248015 -0.000000 -0.968756
vn 0.248015 -0.000000 -0.968756
vn 0.248015 -0.000000 -0.968756
vn 0.000000 0.099509 0.995037
vn 0.000000 0.099509 0.995037
vn 0.000000 0.099509 0.995037
vn 0.339221 -0.038511 0.939918
vn 0.339221 -0.038511 0.939918
vn 0.339221 -0.038511 0.939918
f 3//3 2//2 1//1
f 3//3 1//1 4//4
f 9//9 7//7 8//8
f 5//5 7//7 9//9
f 11//11 5//5 9//9
f 10//10 11//11 9//9
f 6//6 5//5 11//11
f 15//15 13//13 14//14
f 14//14 12//12 16//16
f 14//14 16//16 15//15
f 21//21 19//19 22//22
f 19//19 21//21 17//17
f 19//19 18//18 20//20
f 19//19 17//17 18//18
f 25//25 27//27 26//26
f 25//25 28//28 27//27
f 25//25 23//23 28//28
f 28//28 23//23 24//24
f 30//30 32//32 29//29
f 31//31 32//32 30//30
f 35//35 34//34 36//36
f 36//36 33//33 35//35
f 37//37 38//38 39//39
f 42//42 40//40 41//41
f 45//45 43//43 44//44
f 46//46 48//48 47//47
f 51//51 50//50 49//49
f 53//53 52//52 54//54
f 55//55 57//57 56//56
f 58//58 59//59 60//60
f 61//61 62//62 63//63
f 65//65 66//66 64//64
f 68//68 67//67 69//69
f 72//72 71//71 70//70
f 73//73 75//75 74//74
f 77//77 78//78 76//76
f 81//81 79//79 80//80
f 82//82 84//84 83//83
f 86//86 87//87 85//85
f 90//90 89//89 88//88
f 92//92 93//93 91//91
f 94//94 96//96 95//95
f 99//99 98//98 97//97
f 100//100 101//101 102//102
f 103//103 104//104 105//105
f 108//108 107//107 106//106
f 109//109 110//110 111//111
f 113//113 112//112 114//114
v 0.0228200 -0.0046333 0.1008000
v 0.0318750 -0.0084500 0.1019238
v 0.0307600 -0.0053000 0.1015520
v 0.0315280 -0.0038000 0.1015520
v 0.0318750 -0.0084500 0.1019238
v 0.0315280 -0.0038000 0.1015520
v 0.0320125 -0.0053000 0.1027993
v 0.0316733 -0.0038000 0.1039600
v 0.0319200 -0.0094000 0.1032635
v 0.0299000 -0.0006000 0.1030000
v 0.0235011 -0.0053000 0.1033028
v 0.0229450 -0.0041462 0.1029143
v 0.0228800 -0.0094000 0.1032993
v 0.0320125 -0.0053000 0.1027993
v 0.0319200 -0.0094000 0.1032635
v 0.0309120 -0.0053000 0.1033659
v 0.0228200 -0.0046333 0.1008000
v 0.0235011 -0.0053000 0.1033028
v 0.0307600 -0.0053000 0.1015520
v 0.0284640 -0.0053000 0.1031600
v 0.0258400 -0.0053000 0.1028933
v 0.0249000 -0.0053000 0.1026800
v 0.0235011 -0.0053000 0.1033028
v 0.0309120 -0.0053000 0.1033659
v 0.0284640 -0.0053000 0.1031600
v 0.0258400 -0.0053000 0.1028933
v 0.0270800 -0.0053000 0.1033200
v 0.0284640 -0.0053000 0.1031600
v 0.0258400 -0.0053000 0.1028933
v 0.0270800 -0.0053000 0.1033200
v 0.0274000 -0.0093000 0.1030000
v 0.0229450 -0.0041462 0.1029143
v 0.0228800 -0.0094000 0.1032993
v 0.0316733 -0.0038000 0.1039600
v 0.0319200 -0.0094000 0.1032635
v 0.0274000 -0.0038000 0.1033200
v 0.0264600 -0.0038000 0.1031067
v 0.0228200 -0.0046333 0.1008000
v 0.0229450 -0.0041462 0.1029143
v 0.0315280 -0.0038000 0.1015520
v 0.0288360 -0.0038000 0.1028400
v 0.0264600 -0.0038000 0.1031067
v 0.0252200 -0.0038000 0.1026800
v 0.0288360 -0.0038000 0.1028400
v 0.0274000 -0.0038000 0.1033200
v 0.0264600 -0.0038000 0.1031067
v 0.0274000 -0.0006000 0.1030000
v 0.0229450 -0.0041462 0.1029143
v 0.0264600 -0.0038000 0.1031067
v 0.0252200 -0.0038000 0.1026800
v 0.0249000 -0.0006000 0.1030000
v 0.0229250 -0.0084500 0.1019238
v 0.0228200 -0.0046333 0.1008000
v 0.0235011 -0.0053000 0.1033028
v 0.0229250 -0.0084500 0.1019238
v 0.0235011 -0.0053000 0.1033028
v 0.0229450 -0.0041462 0.1029143
v 0.0229250 -0.0084500 0.1019238
v 0.0228200 -0.0046333 0.1008000
v 0.0229450 -0.0041462 0.1029143
v 0.0318750 -0.0084500 0.1019238
v 0.0307600 -0.0053000 0.1015520
v 0.0320125 -0.0053000 0.1027993
v 0.0307600 -0.0053000 0.1015520
v 0.0320125 -0.0053000 0.1027993
v 0.0309120 -0.0053000 0.1033659
v 0.0307600 -0.0053000 0.1015520
v 0.0309120 -0.0053000 0.1033659
v 0.0299000 -0.0093000 0.1030000
v 0.0307600 -0.0053000 0.1015520
v 0.0284640 -0.0053000 0.1031600
v 0.0299000 -0.0093000 0.1030000
v 0.0309120 -0.0053000 0.1033659
v 0.0284640 -0.0053000 0.1031600
v 0.0299000 -0.0093000 0.1030000
v 0.0284640 -0.0053000 0.1031600
v 0.0258400 -0.0053000 0.1028933
v 0.0274000 -0.0093000 0.1030000
v 0.0258400 -0.0053000 0.1028933
v 0.0249000 -0.0053000 0.1026800
v 0.0249000 -0.0093000 0.1030000
v 0.0235011 -0.0053000 0.1033028
v 0.0249000 -0.0053000 0.1026800
v 0.0249000 -0.0093000 0.1030000
v 0.0235011 -0.0053000 0.1033028
v 0.0258400 -0.0053000 0.1028933
v 0.0249000 -0.0093000 0.1030000
v 0.0316733 -0.0038000 0.1039600
v 0.0288360 -0.0038000 0.1028400
v 0.0274000 -0.0038000 0.1033200
v 0.0316733 -0.0038000 0.1039600
v 0.0288360 -0.0038000 0.1028400
v 0.0299000 -0.0006000 0.1030000
v 0.0315280 -0.0038000 0.1015520
v 0.0288360 -0.0038000 0.1028400
v 0.0299000 -0.0006000 0.1030000
v 0.0288360 -0.0038000 0.1028400
v 0.0264600 -0.0038000 0.1031067
v 0.0274000 -0.0006000 0.1030000
v 0.0229450 -0.0041462 0.1029143
v 0.0264600 -0.0038000 0.1031067
v 0.0249000 -0.0006000 0.1030000
vn 0.090342 -0.046255 -0.994836
vn 0.134735 -0.068984 -0.988477
vn 0.114461 -0.058604 -0.991698
vn 0.106131 -0.054339 -0.992866
vn 0.948500 0.045716 -0.313462
vn 0.942665 0.312491 -0.117182
vn 0.996313 0.083292 -0.020539
vn 0.948229 0.317453 0.009231
vn 0.962839 0.008837 0.269930
vn 0.880108 0.471792 -0.053119
vn 0.285161 -0.039327 -0.957672
vn 0.469139 -0.070321 -0.880320
vn 0.043446 -0.005732 -0.999039
vn -0.455885 -0.089959 -0.885481
vn -0.081122 -0.001442 -0.996703
vn -0.195295 -0.023519 -0.980462
vn -0.048024 -0.968412 -0.244687
vn -0.102369 -0.967808 -0.229932
vn -0.073353 -0.991791 -0.104739
vn -0.059638 -0.988816 -0.136699
vn 0.044039 -0.931803 -0.360284
vn 0.035088 -0.929057 -0.368269
vn 0.000000 -1.000000 0.000001
vn 0.000000 -1.000000 -0.000004
vn 0.000000 -1.000000 -0.000003
vn 0.000000 -1.000000 0.000001
vn 0.000000 -1.000000 -0.000018
vn 0.114555 -0.070111 0.990940
vn -0.323694 -0.101155 0.940739
vn -0.117177 -0.088508 0.989159
vn -0.096270 -0.087026 0.991544
vn -0.122973 0.109448 0.986356
vn -0.076420 0.002369 0.997073
vn -0.041170 -0.037620 0.998444
vn 0.003939 -0.123259 0.992367
vn -0.118767 0.613367 0.780817
vn -0.111951 0.862625 0.493300
vn -0.104677 0.960609 -0.257434
vn -0.168299 0.962696 -0.211876
vn -0.052902 0.983596 -0.172454
vn -0.000000 1.000000 -0.000000
vn -0.037326 0.963676 -0.264452
vn 0.130242 0.834116 -0.535993
vn 0.315602 0.094419 0.944183
vn 0.048622 0.099387 0.993860
vn -0.220269 0.097061 0.970598
vn 0.106790 0.098935 0.989347
vn -0.115199 0.087430 -0.989487
vn 0.322766 0.126082 -0.938043
vn 0.107855 0.109597 -0.988107
vn 0.053622 0.104669 -0.993060
vn 0.959665 -0.054796 -0.275755
vn 0.959665 -0.054796 -0.275755
vn 0.959665 -0.054796 -0.275755
vn -0.750775 -0.144830 0.644485
vn -0.750775 -0.144830 0.644485
vn -0.750775 -0.144830 0.644485
vn -0.998082 -0.009443 0.061183
vn -0.998082 -0.009443 0.061183
vn -0.998082 -0.009443 0.061183
vn -0.696086 -0.163885 0.699003
vn -0.696086 -0.163885 0.699003
vn -0.696086 -0.163885 0.699003
vn 0.000001 -1.000000 0.000000
vn 0.000001 -1.000000 0.000000
vn 0.000001 -1.000000 0.000000
vn 0.967999 -0.237484 -0.081117
vn 0.967999 -0.237484 -0.081117
vn 0.967999 -0.237484 -0.081117
vn -0.565236 -0.170638 -0.807088
vn -0.565236 -0.170638 -0.807088
vn -0.565236 -0.170638 -0.807088
vn -0.083599 -0.069773 0.994054
vn -0.083599 -0.069773 0.994054
vn -0.083599 -0.069773 0.994054
vn 0.101099 0.012902 -0.994793
vn 0.101099 0.012902 -0.994793
vn 0.101099 0.012902 -0.994793
vn 0.220644 -0.077777 -0.972248
vn 0.220644 -0.077777 -0.972248
vn 0.220644 -0.077777 -0.972248
vn -0.405646 -0.072887 -0.911120
vn -0.405646 -0.072887 -0.911120
vn -0.405646 -0.072887 -0.911120
vn 0.172436 -0.014259 0.984918
vn 0.172436 -0.014259 0.984918
vn 0.172436 -0.014259 0.984918
vn -0.000000 1.000000 -0.000000
vn -0.000000 1.000000 -0.000000
vn -0.000000 1.000000 -0.000000
vn -0.366118 0.075360 0.927512
vn -0.366118 0.075360 0.927512
vn -0.366118 0.075360 0.927512
vn -0.424115 0.185338 -0.886440
vn -0.424115 0.185338 -0.886440
vn -0.424115 0.185338 -0.886440
vn -0.111535 -0.000365 -0.993760
vn -0.111535 -0.000365 -0.993760
vn -0.111535 -0.000365 -0.993760
vn -0.055273 0.006335 0.998451
vn -0.055273 0.006335 0.998451
vn -0.055273 0.006335 0.998451
f 116//116 117//117 118//118
f 115//115 118//118 117//117
f 122//122 121//121 120//120
f 119//119 120//120 121//121
f 123//123 121//121 122//122
f 122//122 120//120 124//124
f 128//128 129//129 130//130
f 126//126 125//125 127//127
f 129//129 127//127 125//125
f 129//129 125//125 130//130
f 131//131 134//134 135//135
f 131//131 133//133 134//134
f 136//136 131//131 135//135
f 132//132 131//131 136//136
f 137//137 140//140 141//141
f 138//138 137//137 141//141
f 138//138 141//141 139//139
f 143//143 145//145 144//144
f 144//144 145//145 142//142
f 148//148 150//150 146//146
f 150//150 151//151 146//146
f 148//148 146//146 147//147
f 148//148 147//147 149//149
f 156//156 152//152 157//157
f 154//154 156//156 155//155
f 154//154 152//152 156//156
f 157//157 152//152 153//153
f 159//159 158//158 161//161
f 161//161 160//160 159//159
f 163//163 164//164 165//165
f 164//164 162//162 165//165
f 166//166 167//167 168//168
f 171//171 169//169 170//170
f 172//172 174//174 173//173
f 176//176 175//175 177//177
f 180//180 178//178 179//179
f 183//183 181//181 182//182
f 184//184 186//186 185//185
f 188//188 189//189 187//187
f 192//192 191//191 190//190
f 195//195 194//194 193//193
f 197//197 198//198 196//196
f 199//199 201//201 200//200
f 202//202 203//203 204//204
f 207//207 206//206 205//205
f 208//208 209//209 210//210
f 211//211 212//212 213//213
f 216//216 214//214 215//215
