# OMX visual mesh; coordinates in metres
mtllib materials.mtl
usemtl bic30_rev02_ferrite
v 0.0620220 -0.0007824 -0.0127621
v 0.0618186 -0.0007824 -0.0122490
v 0.0618186 -0.0000839 -0.0122490
v 0.0618542 -0.0014734 -0.0125648
v 0.0618186 -0.0000842 -0.0108516
v 0.0618535 -0.0014770 -0.0106725
v 0.0684886 0.0030914 -0.0108519
v 0.0683220 0.0037896 -0.0127627
v 0.0684886 0.0037896 -0.0122490
v 0.0684886 0.0030911 -0.0122490
v 0.0684619 0.0044535 -0.0125651
v 0.0684602 0.0044611 -0.0106725
v 0.0683220 0.0037896 -0.0127627
v 0.0621968 0.0047976 -0.0125648
v 0.0680959 0.0048112 -0.0125648
v 0.0684619 0.0044535 -0.0125651
v 0.0678108 0.0047657 -0.0125648
v 0.0681984 0.0044253 -0.0125648
v 0.0624028 0.0047422 -0.0125648
v 0.0620220 -0.0007824 -0.0127621
v 0.0623727 -0.0017208 -0.0125648
v 0.0620829 -0.0012940 -0.0125648
v 0.0681800 -0.0014746 -0.0125648
v 0.0677487 -0.0017697 -0.0125648
v 0.0683220 -0.0007824 -0.0127627
v 0.0684722 -0.0013968 -0.0125650
v 0.0681393 -0.0017928 -0.0125648
v 0.0622357 -0.0018084 -0.0125648
v 0.0618542 -0.0014734 -0.0125648
v 0.0618538 0.0018846 -0.0125648
v 0.0618516 0.0011226 -0.0125648
v 0.0620726 0.0011226 -0.0127660
v 0.0620726 0.0018846 -0.0127680
v 0.0622357 -0.0018084 -0.0125648
v 0.0618542 -0.0014734 -0.0125648
v 0.0622488 -0.0018125 -0.0106725
v 0.0618535 -0.0014770 -0.0106725
v 0.0618351 0.0044053 -0.0125650
v 0.0618364 0.0044127 -0.0106725
v 0.0618186 0.0030914 -0.0108519
v 0.0618186 0.0030911 -0.0122490
v 0.0618186 0.0037896 -0.0122490
v 0.0619857 0.0037896 -0.0127627
v 0.0618351 0.0044053 -0.0125650
v 0.0621968 0.0047976 -0.0125648
v 0.0618364 0.0044127 -0.0106725
v 0.0621706 0.0048000 -0.0106725
v 0.0621968 0.0047976 -0.0125648
v 0.0680959 0.0048112 -0.0125648
v 0.0621706 0.0048000 -0.0106725
v 0.0680827 0.0048159 -0.0106725
v 0.0680959 0.0048112 -0.0125648
v 0.0684619 0.0044535 -0.0125651
v 0.0680827 0.0048159 -0.0106725
v 0.0684602 0.0044611 -0.0106725
v 0.0683220 -0.0007824 -0.0127627
v 0.0684722 -0.0013968 -0.0125650
v 0.0684752 -0.0013802 -0.0106725
v 0.0684886 -0.0000842 -0.0108516
v 0.0684886 -0.0000839 -0.0122490
v 0.0684886 -0.0007824 -0.0122490
v 0.0684722 -0.0013968 -0.0125650
v 0.0681393 -0.0017928 -0.0125648
v 0.0684752 -0.0013802 -0.0106725
v 0.0681610 -0.0017839 -0.0106725
v 0.0681393 -0.0017928 -0.0125648
v 0.0622357 -0.0018084 -0.0125648
v 0.0622488 -0.0018125 -0.0106725
v 0.0681610 -0.0017839 -0.0106725
v 0.0684534 0.0011226 -0.0125648
v 0.0684556 0.0018846 -0.0125648
v 0.0682347 0.0018846 -0.0127660
v 0.0682346 0.0011226 -0.0127680
v 0.0684886 0.0030914 -0.0108519
v 0.0631415 0.0030936 -0.0108109
v 0.0631416 -0.0000865 -0.0108015
v 0.0618186 -0.0000842 -0.0108516
v 0.0622488 -0.0018125 -0.0106725
v 0.0618535 -0.0014770 -0.0106725
v 0.0618364 0.0044127 -0.0106725
v 0.0618186 0.0030914 -0.0108519
v 0.0621706 0.0048000 -0.0106725
v 0.0680827 0.0048159 -0.0106725
v 0.0684602 0.0044611 -0.0106725
v 0.0684752 -0.0013802 -0.0106725
v 0.0684886 -0.0000842 -0.0108516
v 0.0681610 -0.0017839 -0.0106725
v 0.0671658 0.0030936 -0.0108109
v 0.0671659 -0.0000862 -0.0108214
v 0.0678108 0.0047657 -0.0125648
v 0.0681984 0.0044253 -0.0125648
v 0.0681992 0.0044289 -0.0135300
v 0.0677975 0.0047699 -0.0135300
v 0.0683220 0.0037896 -0.0127627
v 0.0681984 0.0044253 -0.0125648
v 0.0681800 -0.0014746 -0.0125648
v 0.0683220 -0.0007824 -0.0127627
v 0.0681992 0.0044289 -0.0135300
v 0.0682347 0.0018846 -0.0127660
v 0.0682346 0.0011226 -0.0127680
v 0.0682040 -0.0014084 -0.0135300
v 0.0623727 -0.0017208 -0.0125648
v 0.0681800 -0.0014746 -0.0125648
v 0.0677487 -0.0017697 -0.0125648
v 0.0678108 -0.0017573 -0.0135300
v 0.0682040 -0.0014084 -0.0135300
v 0.0625098 -0.0017614 -0.0135300
v 0.0620220 -0.0007824 -0.0127621
v 0.0621968 0.0047976 -0.0125648
v 0.0623727 -0.0017208 -0.0125648
v 0.0620829 -0.0012940 -0.0125648
v 0.0619857 0.0037896 -0.0127627
v 0.0621080 -0.0014204 -0.0135300
v 0.0625098 -0.0017614 -0.0135300
v 0.0620726 0.0011226 -0.0127660
v 0.0620726 0.0018846 -0.0127680
v 0.0620849 0.0043273 -0.0135300
v 0.0678108 0.0047657 -0.0125648
v 0.0624028 0.0047422 -0.0125648
v 0.0677975 0.0047699 -0.0135300
v 0.0624055 0.0047408 -0.0135300
v 0.0681992 0.0044289 -0.0135300
v 0.0677975 0.0047699 -0.0135300
v 0.0678108 -0.0017573 -0.0135300
v 0.0682040 -0.0014084 -0.0135300
v 0.0621080 -0.0014204 -0.0135300
v 0.0625098 -0.0017614 -0.0135300
v 0.0624055 0.0047408 -0.0135300
v 0.0620849 0.0043273 -0.0135300
v 0.0618351 0.0044053 -0.0125650
v 0.0621968 0.0047976 -0.0125648
v 0.0619857 0.0037896 -0.0127627
v 0.0624028 0.0047422 -0.0125648
v 0.0624055 0.0047408 -0.0135300
v 0.0620849 0.0043273 -0.0135300
v 0.0621968 0.0047976 -0.0125648
v 0.0624028 0.0047422 -0.0125648
v 0.0620849 0.0043273 -0.0135300
vn -0.922968 0.119587 -0.365826
vn -0.996016 0.007813 -0.088831
vn -1.000000 0.000000 0.000000
vn -0.988751 0.016918 -0.148610
vn -0.999817 -0.017094 0.008541
vn -0.999471 -0.031480 0.008228
vn 0.999875 0.014167 0.007080
vn 0.945657 -0.107961 -0.306719
vn 0.997322 -0.008678 -0.072619
vn 1.000000 0.000000 0.000000
vn 0.991925 -0.019719 -0.125286
vn 0.999653 0.025333 0.007234
vn -0.032168 0.291352 -0.956075
vn 0.000000 0.000000 -1.000000
vn -0.000225 -0.000060 -1.000000
vn -0.019609 0.173788 -0.984588
vn 0.000000 0.000000 -1.000000
vn -0.013180 0.115152 -0.993260
vn 0.000000 0.000000 -1.000000
vn 0.252515 -0.321834 -0.912502
vn 0.000000 0.000000 -1.000000
vn 0.149794 -0.190915 -0.970110
vn 0.021707 -0.083464 -0.996274
vn 0.000000 0.000000 -1.000000
vn 0.076184 -0.288489 -0.954447
vn 0.055343 -0.210274 -0.976075
vn -0.000173 0.000022 -1.000000
vn 0.000000 0.000000 -1.000000
vn 0.087454 -0.111461 -0.989913
vn -0.678780 -0.001019 -0.734341
vn -0.673197 0.001935 -0.739460
vn -0.674943 0.001014 -0.737869
vn -0.680512 -0.001941 -0.732734
vn -0.657762 -0.753226 -0.000916
vn -0.659918 -0.751336 -0.001682
vn -0.647140 -0.762366 0.002831
vn -0.649285 -0.760542 0.002078
vn -0.990319 -0.041459 -0.132471
vn -0.999855 0.016361 0.004803
vn -0.999947 0.009171 0.004583
vn -1.000000 0.000000 0.000000
vn -0.997236 -0.019545 -0.071681
vn -0.942588 -0.132161 -0.306696
vn -0.735201 0.677846 -0.002165
vn -0.738943 0.673758 -0.003709
vn -0.753288 0.657619 -0.009725
vn -0.757042 0.653269 -0.011324
vn -0.002611 0.999995 -0.001548
vn -0.002299 0.999994 -0.002519
vn -0.002687 0.999996 -0.001311
vn -0.002375 0.999995 -0.002281
vn 0.696577 0.717481 -0.001347
vn 0.698946 0.715171 -0.002230
vn 0.684861 0.728668 0.002978
vn 0.687245 0.726422 0.002104
vn 0.942886 0.132027 -0.305836
vn 0.990034 0.042510 -0.134257
vn 0.999898 -0.013931 0.003252
vn 0.999969 -0.007076 0.003536
vn 1.000000 0.000000 0.000000
vn 0.997171 0.020294 -0.072371
vn 0.769573 -0.638546 -0.004095
vn 0.765528 -0.643376 -0.005748
vn 0.789179 -0.614150 0.004119
vn 0.785261 -0.619160 0.002450
vn 0.004408 -0.999985 0.003315
vn 0.002637 -0.999994 -0.002198
vn 0.003071 -0.999995 -0.000846
vn 0.004841 -0.999977 0.004662
vn 0.678798 0.001009 -0.734324
vn 0.673235 -0.001935 -0.739426
vn 0.674974 -0.001017 -0.737841
vn 0.680524 0.001928 -0.732723
vn 0.030493 -0.129155 0.991156
vn -0.001943 -0.060144 0.998188
vn -0.003164 0.058916 0.998258
vn -0.037340 0.126545 0.991258
vn 0.024128 0.062090 0.997779
vn 0.016719 0.076986 0.996892
vn 0.028351 -0.076496 0.996667
vn -0.030465 -0.134039 0.990508
vn 0.030490 -0.063529 0.997514
vn -0.027443 -0.065604 0.997468
vn -0.023480 -0.078619 0.996628
vn -0.036378 0.077841 0.996302
vn 0.022422 0.136651 0.990365
vn -0.032635 0.066474 0.997254
vn 0.003403 -0.060734 0.998148
vn 0.004047 0.064694 0.997897
vn 0.655869 0.754875 0.000497
vn 0.659896 0.751350 0.003348
vn 0.651140 0.758953 -0.002829
vn 0.647125 0.762363 -0.005635
vn 0.991035 0.035911 -0.128688
vn 0.981699 0.190433 0.001540
vn 0.980144 -0.197996 0.010773
vn 0.991874 -0.038273 -0.121334
vn 0.994394 0.068271 -0.080750
vn 0.998325 -0.003559 -0.057744
vn 0.998502 0.004336 -0.054549
vn 0.994571 -0.075803 -0.071292
vn -0.009083 -0.999128 0.040748
vn 0.596674 -0.802455 0.006768
vn 0.283621 -0.958893 0.009175
vn 0.349922 -0.936653 -0.015357
vn 0.663260 -0.747580 -0.034777
vn -0.008033 -0.999353 0.035049
vn -0.995631 -0.026532 -0.089524
vn -0.979249 0.202098 0.015069
vn -0.777943 -0.628083 0.017798
vn -0.932497 -0.360451 0.022917
vn -0.994167 0.040949 -0.099775
vn -0.902883 -0.427278 -0.047294
vn -0.645995 -0.760999 -0.059755
vn -0.999153 -0.000891 -0.041138
vn -0.999531 -0.004422 -0.030292
vn -0.994511 0.092867 -0.048204
vn -0.004342 0.999981 0.004397
vn -0.005277 0.999986 -0.000830
vn -0.004459 0.999983 0.003739
vn -0.005396 0.999984 -0.001495
vn 0.000000 0.000000 -1.000000
vn 0.000000 -0.000002 -1.000000
vn 0.000000 -0.000041 -1.000000
vn 0.000000 -0.000013 -1.000000
vn 0.000002 0.000013 -1.000000
vn 0.000006 0.000050 -1.000000
vn 0.000006 -0.000077 -1.000000
vn 0.000002 -0.000026 -1.000000
vn -0.257368 0.237753 -0.936608
vn -0.257368 0.237753 -0.936608
vn -0.257368 0.237753 -0.936608
vn -0.790269 0.612751 -0.003158
vn -0.790269 0.612751 -0.003158
vn -0.790269 0.612751 -0.003158
vn 0.232138 0.863514 -0.447723
vn 0.232138 0.863514 -0.447723
vn 0.232138 0.863514 -0.447723
f 2//2 6//6 5//5
f 2//2 5//5 3//3
f 4//4 2//2 1//1
f 4//4 6//6 2//2
f 9//9 12//12 7//7
f 9//9 7//7 10//10
f 11//11 9//9 8//8
f 11//11 12//12 9//9
f 14//14 15//15 17//17
f 13//13 18//18 16//16
f 14//14 17//17 19//19
f 18//18 15//15 16//16
f 17//17 15//15 18//18
f 23//23 25//25 26//26
f 23//23 26//26 27//27
f 27//27 24//24 23//23
f 29//29 20//20 22//22
f 29//29 22//22 21//21
f 29//29 21//21 28//28
f 27//27 28//28 21//21
f 27//27 21//21 24//24
f 33//33 32//32 30//30
f 31//31 30//30 32//32
f 37//37 35//35 34//34
f 36//36 37//37 34//34
f 41//41 40//40 42//42
f 42//42 40//40 39//39
f 42//42 39//39 38//38
f 43//43 42//42 38//38
f 46//46 45//45 44//44
f 46//46 47//47 45//45
f 48//48 51//51 49//49
f 48//48 50//50 51//51
f 55//55 53//53 52//52
f 54//54 55//55 52//52
f 56//56 61//61 57//57
f 61//61 58//58 57//57
f 61//61 59//59 58//58
f 60//60 59//59 61//61
f 65//65 63//63 62//62
f 64//64 65//65 62//62
f 66//66 68//68 67//67
f 66//66 69//69 68//68
f 70//70 72//72 71//71
f 73//73 72//72 70//70
f 76//76 88//88 75//75
f 79//79 76//76 77//77
f 76//76 89//89 88//88
f 78//78 87//87 76//76
f 78//78 76//76 79//79
f 76//76 87//87 89//89
f 88//88 84//84 83//83
f 87//87 85//85 89//89
f 80//80 75//75 82//82
f 89//89 85//85 86//86
f 75//75 88//88 83//83
f 75//75 83//83 82//82
f 88//88 74//74 84//84
f 81//81 75//75 80//80
f 90//90 92//92 93//93
f 90//90 91//91 92//92
f 98//98 95//95 94//94
f 99//99 98//98 94//94
f 101//101 100//100 97//97
f 101//101 97//97 96//96
f 101//101 98//98 99//99
f 101//101 99//99 100//100
f 107//107 105//105 104//104
f 107//107 104//104 102//102
f 103//103 104//104 105//105
f 103//103 105//105 106//106
f 117//117 115//115 116//116
f 117//117 112//112 109//109
f 117//117 116//116 112//112
f 117//117 113//113 115//115
f 115//115 113//113 108//108
f 113//113 111//111 108//108
f 110//110 113//113 114//114
f 110//110 111//111 113//113
f 120//120 121//121 119//119
f 120//120 119//119 118//118
f 129//129 122//122 125//125
f 129//129 123//123 122//122
f 129//129 128//128 123//123
f 126//126 125//125 124//124
f 126//126 124//124 127//127
f 126//126 129//129 125//125
f 132//132 130//130 131//131
f 133//133 134//134 135//135
f 136//136 137//137 138//138
