# OMX visual mesh; coordinates in metres
mtllib materials.mtl
usemtl printed_charcoal
v 0.0144500 0.0150000 0.0405000
v 0.0144500 -0.0150000 0.0405000
v 0.0182500 0.0150000 0.0405000
v 0.0182500 -0.0150000 0.0405000
v 0.0144500 0.0150000 0.0405000
v 0.0144500 -0.0150000 0.0405000
v 0.0144500 -0.0170000 0.0385000
v 0.0144500 -0.0170000 0.0280000
v 0.0144500 0.0170000 0.0280000
v 0.0144500 0.0170000 0.0385000
v 0.0144500 0.0074238 0.0350374
v 0.0144500 0.0065191 0.0340928
v 0.0144500 0.0052724 0.0342008
v 0.0144500 0.0044760 0.0353801
v 0.0144500 0.0049609 0.0365390
v 0.0144500 0.0058255 0.0369739
v 0.0144500 0.0071522 0.0365102
v 0.0144500 -0.0046260 0.0349512
v 0.0144500 -0.0053766 0.0341477
v 0.0144500 -0.0064565 0.0340949
v 0.0144500 -0.0072992 0.0347724
v 0.0144500 -0.0074366 0.0358449
v 0.0144500 -0.0069133 0.0366585
v 0.0144500 -0.0059417 0.0369830
v 0.0144500 -0.0047040 0.0363175
v 0.0144500 -0.0150000 0.0405000
v 0.0182500 -0.0150000 0.0405000
v 0.0144500 -0.0170000 0.0385000
v 0.0182500 -0.0170000 0.0385000
v 0.0182500 0.0150000 0.0405000
v 0.0182500 -0.0150000 0.0405000
v 0.0182500 -0.0170000 0.0385000
v 0.0182500 -0.0170000 0.0260000
v 0.0182500 0.0170000 0.0260000
v 0.0182500 0.0170000 0.0385000
v 0.0182500 -0.0049609 0.0365390
v 0.0182500 -0.0058255 0.0369739
v 0.0182500 -0.0071522 0.0365102
v 0.0182500 -0.0074238 0.0350374
v 0.0182500 -0.0065191 0.0340928
v 0.0182500 -0.0052724 0.0342008
v 0.0182500 -0.0044760 0.0353801
v 0.0182500 0.0074366 0.0358449
v 0.0182500 0.0069133 0.0366585
v 0.0182500 0.0059417 0.0369830
v 0.0182500 0.0047040 0.0363175
v 0.0182500 0.0046260 0.0349512
v 0.0182500 0.0053766 0.0341477
v 0.0182500 0.0064565 0.0340949
v 0.0182500 0.0072992 0.0347724
v 0.0144500 0.0150000 0.0405000
v 0.0182500 0.0150000 0.0405000
v 0.0144500 0.0170000 0.0385000
v 0.0182500 0.0170000 0.0385000
v 0.0144500 0.0170000 0.0280000
v 0.0144500 0.0170000 0.0385000
v 0.0182500 0.0170000 0.0260000
v 0.0182500 0.0170000 0.0385000
v 0.0162500 0.0170000 0.0240000
v -0.0162500 0.0170000 0.0240000
v -0.0182500 0.0170000 0.0260000
v -0.0182500 0.0170000 0.0385000
v -0.0144500 0.0170000 0.0385000
v -0.0144500 0.0170000 0.0280000
v 0.0144500 -0.0170000 0.0280000
v 0.0144500 0.0170000 0.0280000
v -0.0144500 0.0170000 0.0280000
v -0.0144500 -0.0170000 0.0280000
v 0.0001053 -0.0059707 0.0280000
v -0.0013873 -0.0064599 0.0280000
v -0.0020160 -0.0078161 0.0280000
v -0.0017534 -0.0090441 0.0280000
v -0.0004305 -0.0100276 0.0280000
v 0.0011785 -0.0096661 0.0280000
v 0.0018950 -0.0086991 0.0280000
v 0.0019703 -0.0074443 0.0280000
v 0.0012102 -0.0063771 0.0280000
v -0.0061049 -0.0036827 0.0280000
v -0.0073086 -0.0044241 0.0280000
v -0.0076751 -0.0057362 0.0280000
v -0.0071123 -0.0071504 0.0280000
v -0.0054970 -0.0076883 0.0280000
v -0.0041487 -0.0070510 0.0280000
v -0.0036027 -0.0052483 0.0280000
v -0.0047747 -0.0038059 0.0280000
v -0.0087902 0.0019077 0.0280000
v -0.0100339 0.0004606 0.0280000
v -0.0095939 -0.0012899 0.0280000
v -0.0084721 -0.0019662 0.0280000
v -0.0073207 -0.0019152 0.0280000
v -0.0062080 -0.0010036 0.0280000
v -0.0060028 0.0003163 0.0280000
v -0.0068114 0.0017300 0.0280000
v -0.0060282 0.0076547 0.0280000
v -0.0073086 0.0068896 0.0280000
v -0.0076751 0.0055776 0.0280000
v -0.0071123 0.0041633 0.0280000
v -0.0054970 0.0036254 0.0280000
v -0.0041487 0.0042627 0.0280000
v -0.0036410 0.0054982 0.0280000
v -0.0039034 0.0067010 0.0280000
v -0.0048590 0.0075174 0.0280000
v -0.0011076 0.0097037 0.0280000
v -0.0020370 0.0084052 0.0280000
v -0.0016874 0.0068725 0.0280000
v -0.0003528 0.0059447 0.0280000
v 0.0012379 0.0063885 0.0280000
v 0.0020314 0.0076515 0.0280000
v 0.0017391 0.0090362 0.0280000
v 0.0005130 0.0100213 0.0280000
v 0.0045347 0.0073363 0.0280000
v 0.0038009 0.0064843 0.0280000
v 0.0037050 0.0049948 0.0280000
v 0.0046206 0.0039177 0.0280000
v 0.0061698 0.0036355 0.0280000
v 0.0075159 0.0047998 0.0280000
v 0.0076478 0.0059481 0.0280000
v 0.0071329 0.0070955 0.0280000
v 0.0056828 0.0076974 0.0280000
v 0.0074687 0.0019804 0.0280000
v 0.0062736 0.0010883 0.0280000
v 0.0059817 -0.0000793 0.0280000
v 0.0065446 -0.0014935 0.0280000
v 0.0081599 -0.0020315 0.0280000
v 0.0096111 -0.0013041 0.0280000
v 0.0099915 0.0006188 0.0280000
v 0.0088739 0.0018346 0.0280000
v 0.0054970 -0.0036254 0.0280000
v 0.0039662 -0.0044285 0.0280000
v 0.0037050 -0.0063189 0.0280000
v 0.0047317 -0.0074725 0.0280000
v 0.0058696 -0.0076634 0.0280000
v 0.0070293 -0.0071802 0.0280000
v 0.0077045 -0.0057635 0.0280000
v 0.0070666 -0.0041318 0.0280000
v -0.0042822 -0.0004514 0.0280000
v -0.0028244 -0.0032232 0.0280000
v 0.0001693 -0.0043098 0.0280000
v 0.0028929 -0.0031296 0.0280000
v 0.0040030 -0.0013531 0.0280000
v 0.0042137 0.0004467 0.0280000
v 0.0034701 0.0024559 0.0280000
v 0.0019626 0.0037420 0.0280000
v 0.0001665 0.0042384 0.0280000
v -0.0020824 0.0037184 0.0280000
v -0.0036715 0.0021154 0.0280000
v 0.0144500 -0.0170000 0.0385000
v 0.0144500 -0.0170000 0.0280000
v 0.0182500 -0.0170000 0.0385000
v 0.0182500 -0.0170000 0.0260000
v -0.0144500 -0.0170000 0.0280000
v -0.0144500 -0.0170000 0.0385000
v -0.0182500 -0.0170000 0.0385000
v -0.0182500 -0.0170000 0.0260000
v -0.0162500 -0.0170000 0.0240000
v 0.0162500 -0.0170000 0.0240000
v 0.0182500 -0.0170000 0.0260000
v 0.0182500 0.0170000 0.0260000
v 0.0162500 0.0170000 0.0240000
v 0.0162500 -0.0170000 0.0240000
v 0.0162500 0.0170000 0.0240000
v -0.0162500 0.0170000 0.0240000
v -0.0162500 -0.0170000 0.0240000
v 0.0162500 -0.0170000 0.0240000
v -0.0109957 -0.0007566 0.0240000
v -0.0107297 0.0027103 0.0240000
v -0.0083760 0.0073358 0.0240000
v -0.0041140 0.0102736 0.0240000
v 0.0001307 0.0110660 0.0240000
v 0.0042317 0.0102162 0.0240000
v 0.0071615 0.0083851 0.0240000
v 0.0099828 0.0049312 0.0240000
v 0.0110830 -0.0005709 0.0240000
v 0.0099750 -0.0047340 0.0240000
v 0.0075259 -0.0081414 0.0240000
v 0.0034227 -0.0105340 0.0240000
v -0.0005563 -0.0110274 0.0240000
v -0.0043555 -0.0101736 0.0240000
v -0.0079172 -0.0077324 0.0240000
v -0.0102736 -0.0041140 0.0240000
v -0.0162500 0.0170000 0.0240000
v -0.0182500 0.0170000 0.0260000
v -0.0182500 -0.0170000 0.0260000
v -0.0162500 -0.0170000 0.0240000
v -0.0182500 0.0170000 0.0260000
v -0.0182500 0.0170000 0.0385000
v -0.0182500 -0.0170000 0.0385000
v -0.0182500 -0.0170000 0.0260000
v -0.0182500 -0.0150000 0.0405000
v -0.0182500 0.0150000 0.0405000
v -0.0182500 -0.0063121 0.0369700
v -0.0182500 -0.0052487 0.0367609
v -0.0182500 -0.0045849 0.0359800
v -0.0182500 -0.0046603 0.0348824
v -0.0182500 -0.0052811 0.0342163
v -0.0182500 -0.0063302 0.0340426
v -0.0182500 -0.0071766 0.0346226
v -0.0182500 -0.0074909 0.0358996
v -0.0182500 0.0048722 0.0364392
v -0.0182500 0.0056364 0.0369342
v -0.0182500 0.0068187 0.0367602
v -0.0182500 0.0074030 0.0359142
v -0.0182500 0.0074011 0.0350033
v -0.0182500 0.0065895 0.0341269
v -0.0182500 0.0051526 0.0342318
v -0.0182500 0.0045083 0.0355000
v -0.0182500 0.0170000 0.0385000
v -0.0144500 0.0170000 0.0385000
v -0.0182500 0.0150000 0.0405000
v -0.0144500 0.0150000 0.0405000
v -0.0144500 0.0170000 0.0385000
v -0.0144500 0.0170000 0.0280000
v -0.0144500 -0.0170000 0.0280000
v -0.0144500 -0.0170000 0.0385000
v -0.0144500 0.0150000 0.0405000
v -0.0144500 -0.0150000 0.0405000
v -0.0144500 0.0046603 0.0348824
v -0.0144500 0.0052811 0.0342163
v -0.0144500 0.0063302 0.0340426
v -0.0144500 0.0071766 0.0346226
v -0.0144500 0.0074818 0.0355000
v -0.0144500 0.0071861 0.0363617
v -0.0144500 0.0063121 0.0369700
v -0.0144500 0.0052487 0.0367609
v -0.0144500 0.0045849 0.0359800
v -0.0144500 -0.0074011 0.0350033
v -0.0144500 -0.0065895 0.0341269
v -0.0144500 -0.0051526 0.0342318
v -0.0144500 -0.0045083 0.0355000
v -0.0144500 -0.0048722 0.0364392
v -0.0144500 -0.0056364 0.0369342
v -0.0144500 -0.0068187 0.0367602
v -0.0144500 -0.0074030 0.0359142
v -0.0182500 -0.0150000 0.0405000
v -0.0182500 0.0150000 0.0405000
v -0.0144500 0.0150000 0.0405000
v -0.0144500 -0.0150000 0.0405000
v -0.0144500 -0.0170000 0.0385000
v -0.0182500 -0.0170000 0.0385000
v -0.0182500 -0.0150000 0.0405000
v -0.0144500 -0.0150000 0.0405000
v -0.0182500 0.0048722 0.0364392
v -0.0182500 0.0056364 0.0369342
v -0.0182500 0.0068187 0.0367602
v -0.0182500 0.0074030 0.0359142
v -0.0182500 0.0074011 0.0350033
v -0.0182500 0.0065895 0.0341269
v -0.0182500 0.0051526 0.0342318
v -0.0182500 0.0045083 0.0355000
v -0.0144500 0.0046603 0.0348824
v -0.0144500 0.0052811 0.0342163
v -0.0144500 0.0063302 0.0340426
v -0.0144500 0.0071766 0.0346226
v -0.0144500 0.0074818 0.0355000
v -0.0144500 0.0071861 0.0363617
v -0.0144500 0.0063121 0.0369700
v -0.0144500 0.0052487 0.0367609
v -0.0144500 0.0045849 0.0359800
v -0.0182500 0.0065895 0.0341269
v -0.0182500 0.0051526 0.0342318
v -0.0144500 0.0052811 0.0342163
v -0.0144500 0.0063302 0.0340426
v -0.0182500 -0.0063121 0.0369700
v -0.0182500 -0.0052487 0.0367609
v -0.0182500 -0.0045849 0.0359800
v -0.0182500 -0.0046603 0.0348824
v -0.0182500 -0.0052811 0.0342163
v -0.0182500 -0.0063302 0.0340426
v -0.0182500 -0.0071766 0.0346226
v -0.0182500 -0.0074909 0.0358996
v -0.0144500 -0.0074011 0.0350033
v -0.0144500 -0.0065895 0.0341269
v -0.0144500 -0.0051526 0.0342318
v -0.0144500 -0.0045083 0.0355000
v -0.0144500 -0.0048722 0.0364392
v -0.0144500 -0.0056364 0.0369342
v -0.0144500 -0.0068187 0.0367602
v -0.0144500 -0.0074030 0.0359142
v -0.0182500 -0.0052811 0.0342163
v -0.0182500 -0.0063302 0.0340426
v -0.0144500 -0.0065895 0.0341269
v -0.0144500 -0.0051526 0.0342318
v -0.0109957 -0.0007566 0.0240000
v -0.0107297 0.0027103 0.0240000
v -0.0043555 -0.0101736 0.0240000
v -0.0079172 -0.0077324 0.0240000
v -0.0102736 -0.0041140 0.0240000
v -0.0103157 -0.0039368 0.0236000
v -0.0078642 -0.0078642 0.0236000
v -0.0110660 -0.0001307 0.0236000
v 0.0042317 0.0102162 0.0240000
v 0.0071615 0.0083851 0.0240000
v 0.0099828 0.0049312 0.0240000
v 0.0076319 0.0080568 0.0236000
v 0.0030155 0.0106920 0.0236000
v -0.0103157 -0.0039368 0.0236000
v -0.0078642 -0.0078642 0.0236000
v -0.0031424 -0.0106435 0.0236000
v 0.0017327 -0.0109398 0.0236000
v 0.0055020 -0.0095729 0.0236000
v 0.0090885 -0.0064321 0.0236000
v 0.0109218 -0.0017298 0.0236000
v 0.0106313 0.0033088 0.0236000
v 0.0076319 0.0080568 0.0236000
v 0.0030155 0.0106920 0.0236000
v -0.0018602 0.0109093 0.0236000
v -0.0062776 0.0091516 0.0236000
v -0.0099828 0.0049312 0.0236000
v -0.0110660 -0.0001307 0.0236000
v -0.0099333 0.0002795 0.0236000
v -0.0093608 0.0033354 0.0236000
v -0.0071733 0.0069972 0.0236000
v -0.0035431 0.0092841 0.0236000
v 0.0006620 0.0099990 0.0236000
v 0.0047587 0.0087237 0.0236000
v 0.0072216 0.0068263 0.0236000
v 0.0093277 0.0035710 0.0236000
v 0.0099379 -0.0006642 0.0236000
v 0.0089272 -0.0044167 0.0236000
v 0.0065575 -0.0074968 0.0236000
v 0.0035431 -0.0092841 0.0236000
v 0.0001176 -0.0099594 0.0236000
v -0.0040707 -0.0091208 0.0236000
v -0.0072216 -0.0068263 0.0236000
v -0.0093278 -0.0035710 0.0236000
v -0.0099333 0.0002795 0.0236000
v -0.0093608 0.0033354 0.0236000
v -0.0071733 0.0069972 0.0236000
v -0.0035431 0.0092841 0.0236000
v 0.0006620 0.0099990 0.0236000
v 0.0047587 0.0087237 0.0236000
v 0.0072216 0.0068263 0.0236000
v 0.0093277 0.0035710 0.0236000
v 0.0099379 -0.0006642 0.0236000
v 0.0089272 -0.0044167 0.0236000
v 0.0065575 -0.0074968 0.0236000
v 0.0035431 -0.0092841 0.0236000
v 0.0001176 -0.0099594 0.0236000
v -0.0040707 -0.0091208 0.0236000
v -0.0072216 -0.0068263 0.0236000
v -0.0093278 -0.0035710 0.0236000
v 0.0099190 -0.0000976 0.0194999
v -0.0099591 0.0001176 0.0194993
v -0.0093607 -0.0033353 0.0194997
v -0.0080820 -0.0057513 0.0194999
v -0.0062386 -0.0077348 0.0194997
v -0.0035431 -0.0092840 0.0194997
v -0.0008755 -0.0098808 0.0194999
v 0.0018300 -0.0097672 0.0194997
v 0.0047586 -0.0087237 0.0194997
v 0.0074966 -0.0065574 0.0194993
v 0.0094354 -0.0031894 0.0194993
v 0.0093570 0.0012133 0.0190000
v -0.0092876 -0.0015648 0.0190000
v -0.0082170 -0.0047343 0.0189998
v -0.0051721 -0.0079487 0.0189998
v -0.0017375 -0.0092740 0.0190000
v 0.0015896 -0.0093224 0.0189999
v 0.0053644 -0.0078203 0.0189998
v 0.0083300 -0.0045325 0.0189998
v 0.0093166 -0.0013818 0.0190000
v 0.0082170 0.0047343 0.0189998
v 0.0066695 0.0064516 0.0189917
v 0.0038650 0.0086599 0.0189998
v 0.0002378 0.0092370 0.0189832
v -0.0034180 0.0089176 0.0189995
v -0.0067401 0.0063247 0.0189895
v -0.0083300 0.0045325 0.0189998
v -0.0093817 0.0010046 0.0190000
v -0.0001602 -0.0067802 0.0190000
v 0.0009535 -0.0071640 0.0190000
v 0.0011373 -0.0085610 0.0190000
v 0.0000648 -0.0092420 0.0190000
v -0.0010144 -0.0087370 0.0190000
v -0.0011273 -0.0074256 0.0190000
v -0.0044876 -0.0053112 0.0190000
v -0.0046512 -0.0064497 0.0190000
v -0.0059152 -0.0068734 0.0190000
v -0.0066993 -0.0062957 0.0190000
v -0.0068581 -0.0053347 0.0190000
v -0.0062266 -0.0045730 0.0190000
v -0.0051444 -0.0045064 0.0190000
v -0.0068994 -0.0005074 0.0190000
v -0.0074528 -0.0011090 0.0190000
v -0.0087546 -0.0010387 0.0190000
v -0.0092228 0.0002269 0.0190000
v -0.0086901 0.0010052 0.0190000
v -0.0076238 0.0012110 0.0190000
v -0.0068013 0.0003041 0.0190000
v -0.0052415 0.0044846 0.0190000
v -0.0061812 0.0045561 0.0190000
v -0.0067806 0.0051561 0.0190000
v -0.0058330 0.0068686 0.0190000
v -0.0048744 0.0066235 0.0190000
v -0.0044070 0.0054423 0.0190000
v -0.0010425 0.0073612 0.0190000
v -0.0011993 0.0083382 0.0190000
v -0.0005551 0.0090894 0.0190000
v 0.0011497 0.0084937 0.0190000
v 0.0010429 0.0073224 0.0190000
v -0.0000997 0.0067328 0.0190000
v 0.0044394 0.0058990 0.0190000
v 0.0052640 0.0068658 0.0190000
v 0.0067694 0.0050900 0.0190000
v 0.0056733 0.0043888 0.0190000
v 0.0046647 0.0049360 0.0190000
v 0.0072072 0.0010057 0.0190000
v 0.0083778 0.0011628 0.0190000
v 0.0090358 0.0006530 0.0190000
v 0.0091778 -0.0004701 0.0190000
v 0.0082554 -0.0012035 0.0190000
v 0.0073735 -0.0010521 0.0190000
v 0.0067835 -0.0002583 0.0190000
v 0.0051930 -0.0044948 0.0190000
v 0.0062266 -0.0045730 0.0190000
v 0.0068951 -0.0054272 0.0190000
v 0.0066131 -0.0064107 0.0190000
v 0.0057711 -0.0069029 0.0190000
v 0.0045395 -0.0062826 0.0190000
v 0.0045405 -0.0051781 0.0190000
v -0.0037835 0.0020558 0.0190000
v -0.0013263 0.0040820 0.0190000
v 0.0014751 0.0039984 0.0190000
v 0.0036596 0.0022426 0.0190000
v 0.0042300 -0.0001662 0.0190000
v 0.0036521 -0.0021761 0.0190000
v 0.0019323 -0.0037924 0.0190000
v -0.0008387 -0.0042163 0.0190000
v -0.0033177 -0.0026839 0.0190000
v -0.0042015 -0.0005493 0.0190000
v 0.0094116 0.0033424 0.0194987
v 0.0071253 0.0069590 0.0194993
v 0.0045901 0.0087936 0.0194999
v 0.0016741 0.0098181 0.0194993
v -0.0025936 0.0096449 0.0194987
v -0.0060647 0.0078718 0.0194997
v -0.0079673 0.0059092 0.0194999
v -0.0092840 0.0035430 0.0194997
v -0.0001602 -0.0067802 0.0190000
v -0.0010144 -0.0087370 0.0190000
v -0.0011273 -0.0074256 0.0190000
v -0.0008324 -0.0070760 0.0255000
v -0.0012096 -0.0078897 0.0255000
v -0.0010023 -0.0087282 0.0255000
v 0.0000478 -0.0067833 0.0255000
v 0.0000648 -0.0092420 0.0190000
v -0.0010144 -0.0087370 0.0190000
v -0.0010023 -0.0087282 0.0255000
v -0.0001444 -0.0092198 0.0255000
v -0.0008324 -0.0070760 0.0255000
v -0.0012096 -0.0078897 0.0255000
v -0.0010023 -0.0087282 0.0255000
v -0.0001444 -0.0092198 0.0255000
v 0.0005369 -0.0059980 0.0255000
v 0.0017128 -0.0069209 0.0255000
v 0.0020396 -0.0082414 0.0255000
v 0.0010233 -0.0098273 0.0255000
v -0.0008599 -0.0098652 0.0255000
v -0.0019682 -0.0086117 0.0255000
v -0.0018682 -0.0072262 0.0255000
v -0.0010883 -0.0062736 0.0255000
v 0.0007071 -0.0089997 0.0255000
v 0.0012189 -0.0082091 0.0255000
v 0.0009151 -0.0071541 0.0255000
v 0.0000478 -0.0067833 0.0255000
v 0.0001053 -0.0059707 0.0280000
v -0.0013873 -0.0064599 0.0280000
v -0.0020160 -0.0078161 0.0280000
v -0.0017534 -0.0090441 0.0280000
v -0.0004305 -0.0100276 0.0280000
v 0.0011785 -0.0096661 0.0280000
v 0.0018950 -0.0086991 0.0280000
v 0.0019703 -0.0074443 0.0280000
v 0.0012102 -0.0063771 0.0280000
v 0.0005369 -0.0059980 0.0255000
v 0.0017128 -0.0069209 0.0255000
v 0.0020396 -0.0082414 0.0255000
v 0.0010233 -0.0098273 0.0255000
v -0.0008599 -0.0098652 0.0255000
v -0.0019682 -0.0086117 0.0255000
v -0.0018682 -0.0072262 0.0255000
v -0.0010883 -0.0062736 0.0255000
v -0.0004305 -0.0100276 0.0280000
v 0.0011785 -0.0096661 0.0280000
v 0.0010233 -0.0098273 0.0255000
v -0.0008599 -0.0098652 0.0255000
v 0.0011373 -0.0085610 0.0190000
v 0.0000648 -0.0092420 0.0190000
v -0.0001444 -0.0092198 0.0255000
v 0.0007071 -0.0089997 0.0255000
v 0.0012189 -0.0082091 0.0255000
v 0.0009535 -0.0071640 0.0190000
v 0.0011373 -0.0085610 0.0190000
v 0.0012189 -0.0082091 0.0255000
v 0.0009151 -0.0071541 0.0255000
v -0.0001602 -0.0067802 0.0190000
v 0.0009535 -0.0071640 0.0190000
v 0.0009151 -0.0071541 0.0255000
v 0.0000478 -0.0067833 0.0255000
v -0.0062266 -0.0045730 0.0190000
v -0.0051444 -0.0045064 0.0190000
v -0.0052114 -0.0044957 0.0255000
v -0.0064679 -0.0046820 0.0255000
v -0.0059152 -0.0068734 0.0190000
v -0.0066993 -0.0062957 0.0190000
v -0.0068581 -0.0053347 0.0190000
v -0.0062266 -0.0045730 0.0190000
v -0.0064679 -0.0046820 0.0255000
v -0.0068807 -0.0058346 0.0255000
v -0.0064466 -0.0065816 0.0255000
v -0.0056410 -0.0068934 0.0255000
v -0.0052114 -0.0044957 0.0255000
v -0.0064679 -0.0046820 0.0255000
v -0.0068807 -0.0058346 0.0255000
v -0.0064466 -0.0065816 0.0255000
v -0.0054434 -0.0036360 0.0255000
v -0.0039857 -0.0044094 0.0255000
v -0.0037200 -0.0064300 0.0255000
v -0.0047898 -0.0074788 0.0255000
v -0.0059766 -0.0076755 0.0255000
v -0.0072064 -0.0069803 0.0255000
v -0.0077154 -0.0054948 0.0255000
v -0.0068662 -0.0039923 0.0255000
v -0.0056410 -0.0068934 0.0255000
v -0.0047549 -0.0064906 0.0255000
v -0.0044186 -0.0054272 0.0255000
v -0.0061049 -0.0036827 0.0280000
v -0.0073086 -0.0044241 0.0280000
v -0.0076751 -0.0057362 0.0280000
v -0.0071123 -0.0071504 0.0280000
v -0.0054970 -0.0076883 0.0280000
v -0.0041487 -0.0070510 0.0280000
v -0.0036027 -0.0052483 0.0280000
v -0.0047747 -0.0038059 0.0280000
v -0.0054434 -0.0036360 0.0255000
v -0.0039857 -0.0044094 0.0255000
v -0.0037200 -0.0064300 0.0255000
v -0.0047898 -0.0074788 0.0255000
v -0.0059766 -0.0076755 0.0255000
v -0.0072064 -0.0069803 0.0255000
v -0.0077154 -0.0054948 0.0255000
v -0.0068662 -0.0039923 0.0255000
v -0.0076751 -0.0057362 0.0280000
v -0.0071123 -0.0071504 0.0280000
v -0.0072064 -0.0069803 0.0255000
v -0.0077154 -0.0054948 0.0255000
v -0.0046512 -0.0064497 0.0190000
v -0.0059152 -0.0068734 0.0190000
v -0.0056410 -0.0068934 0.0255000
v -0.0047549 -0.0064906 0.0255000
v -0.0044876 -0.0053112 0.0190000
v -0.0046512 -0.0064497 0.0190000
v -0.0047549 -0.0064906 0.0255000
v -0.0044186 -0.0054272 0.0255000
v -0.0044876 -0.0053112 0.0190000
v -0.0051444 -0.0045064 0.0190000
v -0.0052114 -0.0044957 0.0255000
v -0.0044186 -0.0054272 0.0255000
v -0.0068994 -0.0005074 0.0190000
v -0.0068013 0.0003041 0.0190000
v -0.0069977 0.0007282 0.0255000
v -0.0068428 -0.0005335 0.0255000
v -0.0076238 0.0012110 0.0190000
v -0.0068013 0.0003041 0.0190000
v -0.0069977 0.0007282 0.0255000
v -0.0078556 0.0012198 0.0255000
v -0.0086901 0.0010052 0.0190000
v -0.0076238 0.0012110 0.0190000
v -0.0078556 0.0012198 0.0255000
v -0.0089928 0.0008038 0.0255000
v -0.0087546 -0.0010387 0.0190000
v -0.0092228 0.0002269 0.0190000
v -0.0086901 0.0010052 0.0190000
v -0.0089928 0.0008038 0.0255000
v -0.0091446 -0.0004741 0.0255000
v -0.0081337 -0.0012704 0.0255000
v -0.0069977 0.0007282 0.0255000
v -0.0078556 0.0012198 0.0255000
v -0.0089928 0.0008038 0.0255000
v -0.0091446 -0.0004741 0.0255000
v -0.0063924 0.0012674 0.0255000
v -0.0059757 0.0000252 0.0255000
v -0.0063339 -0.0011785 0.0255000
v -0.0073505 -0.0019174 0.0255000
v -0.0087902 -0.0019077 0.0255000
v -0.0099206 -0.0007085 0.0255000
v -0.0097602 0.0011434 0.0255000
v -0.0079185 0.0020753 0.0255000
v -0.0081337 -0.0012704 0.0255000
v -0.0068428 -0.0005335 0.0255000
v -0.0087902 0.0019077 0.0280000
v -0.0100339 0.0004606 0.0280000
v -0.0073207 -0.0019152 0.0280000
v -0.0062080 -0.0010036 0.0280000
v -0.0060028 0.0003163 0.0280000
v -0.0068114 0.0017300 0.0280000
v -0.0063924 0.0012674 0.0255000
v -0.0059757 0.0000252 0.0255000
v -0.0063339 -0.0011785 0.0255000
v -0.0073505 -0.0019174 0.0255000
v -0.0097602 0.0011434 0.0255000
v -0.0079185 0.0020753 0.0255000
v -0.0100339 0.0004606 0.0280000
v -0.0095939 -0.0012899 0.0280000
v -0.0084721 -0.0019662 0.0280000
v -0.0073207 -0.0019152 0.0280000
v -0.0073505 -0.0019174 0.0255000
v -0.0087902 -0.0019077 0.0255000
v -0.0099206 -0.0007085 0.0255000
v -0.0097602 0.0011434 0.0255000
v -0.0068994 -0.0005074 0.0190000
v -0.0074528 -0.0011090 0.0190000
v -0.0087546 -0.0010387 0.0190000
v -0.0081337 -0.0012704 0.0255000
v -0.0068428 -0.0005335 0.0255000
v -0.0052415 0.0044846 0.0190000
v -0.0044070 0.0054423 0.0190000
v -0.0045197 0.0052027 0.0255000
v -0.0050872 0.0045730 0.0255000
v -0.0048744 0.0066235 0.0190000
v -0.0044070 0.0054423 0.0190000
v -0.0045197 0.0052027 0.0255000
v -0.0046182 0.0064115 0.0255000
v -0.0058330 0.0068686 0.0190000
v -0.0048744 0.0066235 0.0190000
v -0.0046182 0.0064115 0.0255000
v -0.0059496 0.0068761 0.0255000
v -0.0067401 0.0063247 0.0189895
v -0.0058330 0.0068686 0.0190000
v -0.0059496 0.0068761 0.0255000
v -0.0067463 0.0062119 0.0255000
v -0.0045197 0.0052027 0.0255000
v -0.0046182 0.0064115 0.0255000
v -0.0059496 0.0068761 0.0255000
v -0.0067463 0.0062119 0.0255000
v -0.0047535 0.0074868 0.0255000
v -0.0038223 0.0065308 0.0255000
v -0.0037200 0.0048838 0.0255000
v -0.0047898 0.0038349 0.0255000
v -0.0059766 0.0036382 0.0255000
v -0.0072064 0.0043334 0.0255000
v -0.0077154 0.0058189 0.0255000
v -0.0070867 0.0070867 0.0255000
v -0.0060783 0.0076447 0.0255000
v -0.0068378 0.0052898 0.0255000
v -0.0060882 0.0044878 0.0255000
v -0.0050872 0.0045730 0.0255000
v -0.0060282 0.0076547 0.0280000
v -0.0073086 0.0068896 0.0280000
v -0.0076751 0.0055776 0.0280000
v -0.0077154 0.0058189 0.0255000
v -0.0070867 0.0070867 0.0255000
v -0.0060783 0.0076447 0.0255000
v -0.0076751 0.0055776 0.0280000
v -0.0071123 0.0041633 0.0280000
v -0.0072064 0.0043334 0.0255000
v -0.0077154 0.0058189 0.0255000
v -0.0060282 0.0076547 0.0280000
v -0.0071123 0.0041633 0.0280000
v -0.0054970 0.0036254 0.0280000
v -0.0041487 0.0042627 0.0280000
v -0.0036410 0.0054982 0.0280000
v -0.0039034 0.0067010 0.0280000
v -0.0048590 0.0075174 0.0280000
v -0.0047535 0.0074868 0.0255000
v -0.0038223 0.0065308 0.0255000
v -0.0037200 0.0048838 0.0255000
v -0.0047898 0.0038349 0.0255000
v -0.0059766 0.0036382 0.0255000
v -0.0072064 0.0043334 0.0255000
v -0.0060783 0.0076447 0.0255000
v -0.0067401 0.0063247 0.0189895
v -0.0067806 0.0051561 0.0190000
v -0.0067463 0.0062119 0.0255000
v -0.0068378 0.0052898 0.0255000
v -0.0061812 0.0045561 0.0190000
v -0.0067806 0.0051561 0.0190000
v -0.0068378 0.0052898 0.0255000
v -0.0060882 0.0044878 0.0255000
v -0.0052415 0.0044846 0.0190000
v -0.0061812 0.0045561 0.0190000
v -0.0060882 0.0044878 0.0255000
v -0.0050872 0.0045730 0.0255000
v 0.0010429 0.0073224 0.0190000
v -0.0000997 0.0067328 0.0190000
v 0.0008388 0.0071152 0.0255000
v 0.0000640 0.0067714 0.0255000
v 0.0011497 0.0084937 0.0190000
v 0.0010429 0.0073224 0.0190000
v 0.0008388 0.0071152 0.0255000
v 0.0012556 0.0080493 0.0255000
v 0.0002378 0.0092370 0.0189832
v -0.0005551 0.0090894 0.0190000
v 0.0011497 0.0084937 0.0190000
v 0.0012556 0.0080493 0.0255000
v 0.0006596 0.0090461 0.0255000
v -0.0004313 0.0091691 0.0255000
v 0.0008388 0.0071152 0.0255000
v 0.0012556 0.0080493 0.0255000
v 0.0006596 0.0090461 0.0255000
v -0.0004313 0.0091691 0.0255000
v 0.0000793 0.0100183 0.0255000
v 0.0012674 0.0096076 0.0255000
v 0.0019957 0.0083970 0.0255000
v 0.0017861 0.0069997 0.0255000
v 0.0008670 0.0061780 0.0255000
v -0.0006458 0.0060125 0.0255000
v -0.0019682 0.0073883 0.0255000
v -0.0018682 0.0087738 0.0255000
v -0.0010883 0.0097263 0.0255000
v -0.0012704 0.0081337 0.0255000
v -0.0007833 0.0070589 0.0255000
v 0.0000640 0.0067714 0.0255000
v -0.0011076 0.0097037 0.0280000
v -0.0003528 0.0059447 0.0280000
v 0.0012379 0.0063885 0.0280000
v 0.0020314 0.0076515 0.0280000
v 0.0017391 0.0090362 0.0280000
v 0.0005130 0.0100213 0.0280000
v 0.0000793 0.0100183 0.0255000
v 0.0012674 0.0096076 0.0255000
v 0.0019957 0.0083970 0.0255000
v 0.0017861 0.0069997 0.0255000
v 0.0008670 0.0061780 0.0255000
v -0.0006458 0.0060125 0.0255000
v -0.0010883 0.0097263 0.0255000
v -0.0011076 0.0097037 0.0280000
v -0.0020370 0.0084052 0.0280000
v -0.0018682 0.0087738 0.0255000
v -0.0010883 0.0097263 0.0255000
v -0.0020370 0.0084052 0.0280000
v -0.0016874 0.0068725 0.0280000
v -0.0003528 0.0059447 0.0280000
v -0.0006458 0.0060125 0.0255000
v -0.0019682 0.0073883 0.0255000
v -0.0018682 0.0087738 0.0255000
v -0.0011993 0.0083382 0.0190000
v -0.0005551 0.0090894 0.0190000
v -0.0004313 0.0091691 0.0255000
v -0.0012704 0.0081337 0.0255000
v -0.0010425 0.0073612 0.0190000
v -0.0011993 0.0083382 0.0190000
v -0.0000997 0.0067328 0.0190000
v -0.0012704 0.0081337 0.0255000
v -0.0007833 0.0070589 0.0255000
v 0.0000640 0.0067714 0.0255000
v 0.0056733 0.0043888 0.0190000
v 0.0046647 0.0049360 0.0190000
v 0.0049229 0.0046467 0.0255000
v 0.0058796 0.0044581 0.0255000
v 0.0067694 0.0050900 0.0190000
v 0.0056733 0.0043888 0.0190000
v 0.0058796 0.0044581 0.0255000
v 0.0066132 0.0048829 0.0255000
v 0.0066695 0.0064516 0.0189917
v 0.0067694 0.0050900 0.0190000
v 0.0066132 0.0048829 0.0255000
v 0.0068807 0.0058346 0.0255000
v 0.0063777 0.0066490 0.0255000
v 0.0049229 0.0046467 0.0255000
v 0.0058796 0.0044581 0.0255000
v 0.0066132 0.0048829 0.0255000
v 0.0068807 0.0058346 0.0255000
v 0.0063777 0.0066490 0.0255000
v 0.0069349 0.0073219 0.0255000
v 0.0077182 0.0054398 0.0255000
v 0.0065602 0.0037622 0.0255000
v 0.0047290 0.0038358 0.0255000
v 0.0036333 0.0051710 0.0255000
v 0.0039532 0.0067645 0.0255000
v 0.0050751 0.0076230 0.0255000
v 0.0052993 0.0068644 0.0255000
v 0.0044019 0.0058390 0.0255000
v 0.0045347 0.0073363 0.0280000
v 0.0038009 0.0064843 0.0280000
v 0.0037050 0.0049948 0.0280000
v 0.0071329 0.0070955 0.0280000
v 0.0056828 0.0076974 0.0280000
v 0.0069349 0.0073219 0.0255000
v 0.0036333 0.0051710 0.0255000
v 0.0039532 0.0067645 0.0255000
v 0.0050751 0.0076230 0.0255000
v 0.0037050 0.0049948 0.0280000
v 0.0046206 0.0039177 0.0280000
v 0.0047290 0.0038358 0.0255000
v 0.0036333 0.0051710 0.0255000
v 0.0046206 0.0039177 0.0280000
v 0.0061698 0.0036355 0.0280000
v 0.0065602 0.0037622 0.0255000
v 0.0047290 0.0038358 0.0255000
v 0.0061698 0.0036355 0.0280000
v 0.0075159 0.0047998 0.0280000
v 0.0076478 0.0059481 0.0280000
v 0.0071329 0.0070955 0.0280000
v 0.0069349 0.0073219 0.0255000
v 0.0077182 0.0054398 0.0255000
v 0.0065602 0.0037622 0.0255000
v 0.0066695 0.0064516 0.0189917
v 0.0052640 0.0068658 0.0190000
v 0.0063777 0.0066490 0.0255000
v 0.0052993 0.0068644 0.0255000
v 0.0044394 0.0058990 0.0190000
v 0.0052640 0.0068658 0.0190000
v 0.0052993 0.0068644 0.0255000
v 0.0044019 0.0058390 0.0255000
v 0.0044394 0.0058990 0.0190000
v 0.0046647 0.0049360 0.0190000
v 0.0049229 0.0046467 0.0255000
v 0.0044019 0.0058390 0.0255000
v 0.0072072 0.0010057 0.0190000
v 0.0083778 0.0011628 0.0190000
v 0.0090358 0.0006530 0.0190000
v 0.0091778 -0.0004701 0.0190000
v 0.0082554 -0.0012035 0.0190000
v 0.0073735 -0.0010521 0.0190000
v 0.0067835 -0.0002583 0.0190000
v 0.0069309 -0.0006552 0.0255000
v 0.0080493 -0.0012556 0.0255000
v 0.0089921 -0.0007208 0.0255000
v 0.0092193 0.0001931 0.0255000
v 0.0086216 0.0010772 0.0255000
v 0.0076838 0.0011775 0.0255000
v 0.0068926 0.0005824 0.0255000
v 0.0091778 -0.0004701 0.0190000
v 0.0082554 -0.0012035 0.0190000
v 0.0080493 -0.0012556 0.0255000
v 0.0089921 -0.0007208 0.0255000
v 0.0069309 -0.0006552 0.0255000
v 0.0080493 -0.0012556 0.0255000
v 0.0089921 -0.0007208 0.0255000
v 0.0092193 0.0001931 0.0255000
v 0.0091173 0.0017193 0.0255000
v 0.0099487 0.0005762 0.0255000
v 0.0097602 -0.0011435 0.0255000
v 0.0081604 -0.0020375 0.0255000
v 0.0069209 -0.0017128 0.0255000
v 0.0061570 -0.0008496 0.0255000
v 0.0060196 0.0005313 0.0255000
v 0.0072481 0.0019597 0.0255000
v 0.0086216 0.0010772 0.0255000
v 0.0076838 0.0011775 0.0255000
v 0.0068926 0.0005824 0.0255000
v 0.0074687 0.0019804 0.0280000
v 0.0062736 0.0010883 0.0280000
v 0.0059817 -0.0000793 0.0280000
v 0.0065446 -0.0014935 0.0280000
v 0.0081599 -0.0020315 0.0280000
v 0.0081604 -0.0020375 0.0255000
v 0.0069209 -0.0017128 0.0255000
v 0.0061570 -0.0008496 0.0255000
v 0.0060196 0.0005313 0.0255000
v 0.0072481 0.0019597 0.0255000
v 0.0081599 -0.0020315 0.0280000
v 0.0096111 -0.0013041 0.0280000
v 0.0097602 -0.0011435 0.0255000
v 0.0081604 -0.0020375 0.0255000
v 0.0096111 -0.0013041 0.0280000
v 0.0099915 0.0006188 0.0280000
v 0.0099487 0.0005762 0.0255000
v 0.0097602 -0.0011435 0.0255000
v 0.0099915 0.0006188 0.0280000
v 0.0088739 0.0018346 0.0280000
v 0.0091173 0.0017193 0.0255000
v 0.0099487 0.0005762 0.0255000
v 0.0074687 0.0019804 0.0280000
v 0.0088739 0.0018346 0.0280000
v 0.0091173 0.0017193 0.0255000
v 0.0072481 0.0019597 0.0255000
v 0.0051930 -0.0044948 0.0190000
v 0.0045395 -0.0062826 0.0190000
v 0.0045405 -0.0051781 0.0190000
v 0.0044203 -0.0056727 0.0255000
v 0.0047923 -0.0065214 0.0255000
v 0.0050576 -0.0045177 0.0255000
v 0.0057711 -0.0069029 0.0190000
v 0.0045395 -0.0062826 0.0190000
v 0.0047923 -0.0065214 0.0255000
v 0.0059067 -0.0069128 0.0255000
v 0.0068951 -0.0054272 0.0190000
v 0.0066131 -0.0064107 0.0190000
v 0.0057711 -0.0069029 0.0190000
v 0.0059067 -0.0069128 0.0255000
v 0.0069118 -0.0058390 0.0255000
v 0.0044203 -0.0056727 0.0255000
v 0.0047923 -0.0065214 0.0255000
v 0.0059067 -0.0069128 0.0255000
v 0.0058703 -0.0036360 0.0255000
v 0.0071446 -0.0042459 0.0255000
v 0.0076862 -0.0055515 0.0255000
v 0.0074191 -0.0066438 0.0255000
v 0.0065139 -0.0075159 0.0255000
v 0.0052874 -0.0076405 0.0255000
v 0.0040867 -0.0069979 0.0255000
v 0.0036254 -0.0054970 0.0255000
v 0.0043528 -0.0040457 0.0255000
v 0.0069118 -0.0058390 0.0255000
v 0.0064142 -0.0046703 0.0255000
v 0.0050576 -0.0045177 0.0255000
v 0.0054970 -0.0036254 0.0280000
v 0.0039662 -0.0044285 0.0280000
v 0.0070666 -0.0041318 0.0280000
v 0.0058703 -0.0036360 0.0255000
v 0.0071446 -0.0042459 0.0255000
v 0.0043528 -0.0040457 0.0255000
v 0.0039662 -0.0044285 0.0280000
v 0.0037050 -0.0063189 0.0280000
v 0.0047317 -0.0074725 0.0280000
v 0.0058696 -0.0076634 0.0280000
v 0.0070293 -0.0071802 0.0280000
v 0.0077045 -0.0057635 0.0280000
v 0.0076862 -0.0055515 0.0255000
v 0.0074191 -0.0066438 0.0255000
v 0.0065139 -0.0075159 0.0255000
v 0.0052874 -0.0076405 0.0255000
v 0.0040867 -0.0069979 0.0255000
v 0.0036254 -0.0054970 0.0255000
v 0.0043528 -0.0040457 0.0255000
v 0.0077045 -0.0057635 0.0280000
v 0.0070666 -0.0041318 0.0280000
v 0.0071446 -0.0042459 0.0255000
v 0.0076862 -0.0055515 0.0255000
v 0.0062266 -0.0045730 0.0190000
v 0.0068951 -0.0054272 0.0190000
v 0.0069118 -0.0058390 0.0255000
v 0.0064142 -0.0046703 0.0255000
v 0.0051930 -0.0044948 0.0190000
v 0.0062266 -0.0045730 0.0190000
v 0.0064142 -0.0046703 0.0255000
v 0.0050576 -0.0045177 0.0255000
v -0.0042822 -0.0004514 0.0280000
v -0.0028244 -0.0032232 0.0280000
v 0.0001693 -0.0043098 0.0280000
v 0.0028929 -0.0031296 0.0280000
v 0.0040030 -0.0013531 0.0280000
v 0.0042137 0.0004467 0.0280000
v 0.0034701 0.0024559 0.0280000
v 0.0019626 0.0037420 0.0280000
v 0.0001665 0.0042384 0.0280000
v -0.0020824 0.0037184 0.0280000
v -0.0036715 0.0021154 0.0280000
v -0.0037835 0.0020558 0.0190000
v -0.0013263 0.0040820 0.0190000
v 0.0014751 0.0039984 0.0190000
v 0.0036596 0.0022426 0.0190000
v 0.0042300 -0.0001662 0.0190000
v 0.0036521 -0.0021761 0.0190000
v 0.0019323 -0.0037924 0.0190000
v -0.0008387 -0.0042163 0.0190000
v -0.0033177 -0.0026839 0.0190000
v -0.0042015 -0.0005493 0.0190000
v 0.0144500 -0.0046260 0.0349512
v 0.0144500 -0.0047040 0.0363175
v 0.0182500 -0.0049609 0.0365390
v 0.0182500 -0.0044760 0.0353801
v 0.0144500 -0.0046260 0.0349512
v 0.0144500 -0.0053766 0.0341477
v 0.0182500 -0.0052724 0.0342008
v 0.0182500 -0.0044760 0.0353801
v 0.0144500 -0.0053766 0.0341477
v 0.0144500 -0.0064565 0.0340949
v 0.0182500 -0.0065191 0.0340928
v 0.0182500 -0.0052724 0.0342008
v 0.0144500 -0.0064565 0.0340949
v 0.0144500 -0.0072992 0.0347724
v 0.0182500 -0.0074238 0.0350374
v 0.0182500 -0.0065191 0.0340928
v 0.0144500 -0.0072992 0.0347724
v 0.0144500 -0.0074366 0.0358449
v 0.0144500 -0.0069133 0.0366585
v 0.0182500 -0.0071522 0.0365102
v 0.0182500 -0.0074238 0.0350374
v 0.0144500 -0.0069133 0.0366585
v 0.0144500 -0.0059417 0.0369830
v 0.0182500 -0.0058255 0.0369739
v 0.0182500 -0.0071522 0.0365102
v 0.0144500 -0.0059417 0.0369830
v 0.0144500 -0.0047040 0.0363175
v 0.0182500 -0.0049609 0.0365390
v 0.0182500 -0.0058255 0.0369739
v 0.0144500 0.0044760 0.0353801
v 0.0144500 0.0049609 0.0365390
v 0.0182500 0.0047040 0.0363175
v 0.0182500 0.0046260 0.0349512
v 0.0144500 0.0052724 0.0342008
v 0.0144500 0.0044760 0.0353801
v 0.0182500 0.0046260 0.0349512
v 0.0182500 0.0053766 0.0341477
v 0.0144500 0.0065191 0.0340928
v 0.0144500 0.0052724 0.0342008
v 0.0182500 0.0053766 0.0341477
v 0.0182500 0.0064565 0.0340949
v 0.0144500 0.0074238 0.0350374
v 0.0144500 0.0065191 0.0340928
v 0.0182500 0.0064565 0.0340949
v 0.0182500 0.0072992 0.0347724
v 0.0144500 0.0074238 0.0350374
v 0.0144500 0.0071522 0.0365102
v 0.0182500 0.0074366 0.0358449
v 0.0182500 0.0069133 0.0366585
v 0.0182500 0.0072992 0.0347724
v 0.0144500 0.0058255 0.0369739
v 0.0144500 0.0071522 0.0365102
v 0.0182500 0.0069133 0.0366585
v 0.0182500 0.0059417 0.0369830
v 0.0144500 0.0049609 0.0365390
v 0.0144500 0.0058255 0.0369739
v 0.0182500 0.0059417 0.0369830
v 0.0182500 0.0047040 0.0363175
v 0.0110830 -0.0005709 0.0240000
v 0.0099750 -0.0047340 0.0240000
v 0.0109218 -0.0017298 0.0236000
v 0.0099750 -0.0047340 0.0240000
v 0.0090885 -0.0064321 0.0236000
v 0.0109218 -0.0017298 0.0236000
v 0.0099750 -0.0047340 0.0240000
v 0.0075259 -0.0081414 0.0240000
v 0.0090885 -0.0064321 0.0236000
v 0.0075259 -0.0081414 0.0240000
v 0.0055020 -0.0095729 0.0236000
v 0.0090885 -0.0064321 0.0236000
v 0.0075259 -0.0081414 0.0240000
v 0.0034227 -0.0105340 0.0240000
v 0.0055020 -0.0095729 0.0236000
v 0.0034227 -0.0105340 0.0240000
v 0.0017327 -0.0109398 0.0236000
v 0.0055020 -0.0095729 0.0236000
v 0.0034227 -0.0105340 0.0240000
v -0.0005563 -0.0110274 0.0240000
v 0.0017327 -0.0109398 0.0236000
v -0.0005563 -0.0110274 0.0240000
v -0.0031424 -0.0106435 0.0236000
v 0.0017327 -0.0109398 0.0236000
v -0.0005563 -0.0110274 0.0240000
v -0.0043555 -0.0101736 0.0240000
v -0.0031424 -0.0106435 0.0236000
v -0.0043555 -0.0101736 0.0240000
v -0.0078642 -0.0078642 0.0236000
v -0.0031424 -0.0106435 0.0236000
v -0.0107297 0.0027103 0.0240000
v -0.0099828 0.0049312 0.0236000
v -0.0110660 -0.0001307 0.0236000
v -0.0107297 0.0027103 0.0240000
v -0.0083760 0.0073358 0.0240000
v -0.0099828 0.0049312 0.0236000
v -0.0083760 0.0073358 0.0240000
v -0.0062776 0.0091516 0.0236000
v -0.0099828 0.0049312 0.0236000
v -0.0083760 0.0073358 0.0240000
v -0.0041140 0.0102736 0.0240000
v -0.0062776 0.0091516 0.0236000
v -0.0041140 0.0102736 0.0240000
v -0.0018602 0.0109093 0.0236000
v -0.0062776 0.0091516 0.0236000
v -0.0041140 0.0102736 0.0240000
v 0.0001307 0.0110660 0.0240000
v -0.0018602 0.0109093 0.0236000
v 0.0001307 0.0110660 0.0240000
v 0.0030155 0.0106920 0.0236000
v -0.0018602 0.0109093 0.0236000
v 0.0001307 0.0110660 0.0240000
v 0.0042317 0.0102162 0.0240000
v 0.0030155 0.0106920 0.0236000
v 0.0099828 0.0049312 0.0240000
v 0.0106313 0.0033088 0.0236000
v 0.0076319 0.0080568 0.0236000
v 0.0099828 0.0049312 0.0240000
v 0.0110830 -0.0005709 0.0240000
v 0.0106313 0.0033088 0.0236000
v 0.0110830 -0.0005709 0.0240000
v 0.0109218 -0.0017298 0.0236000
v 0.0106313 0.0033088 0.0236000
vn 0.000000 0.000000 1.000000
vn 0.000000 0.000000 1.000000
vn 0.000000 0.000000 1.000000
vn 0.000000 0.000000 1.000000
vn -1.000000 0.000000 0.000000
vn -1.000000 0.000000 0.000000
vn -1.000000 0.000000 0.000000
vn -1.000000 0.000000 0.000000
vn -1.000000 0.000000 0.000000
vn -1.000000 0.000000 0.000000
vn -1.000000 0.000000 0.000000
vn -1.000000 0.000000 0.000000
vn -1.000000 0.000000 0.000000
vn -1.000000 0.000000 0.000000
vn -1.000000 0.000000 0.000000
vn -1.000000 0.000000 0.000000
vn -1.000000 0.000000 0.000000
vn -1.000000 0.000000 0.000000
vn -1.000000 0.000000 0.000000
vn -1.000000 0.000000 0.000000
vn -1.000000 0.000000 0.000000
vn -1.000000 0.000000 0.000000
vn -1.000000 0.000000 0.000000
vn -1.000000 0.000000 0.000000
vn -1.000000 0.000000 0.000000
vn 0.000000 -0.707107 0.707106
vn 0.000000 -0.707107 0.707106
vn 0.000000 -0.707107 0.707106
vn 0.000000 -0.707107 0.707106
vn 1.000000 0.000000 0.000000
vn 1.000000 0.000000 0.000000
vn 1.000000 0.000000 0.000000
vn 1.000000 0.000000 0.000000
vn 1.000000 0.000000 0.000000
vn 1.000000 0.000000 0.000000
vn 1.000000 0.000000 0.000000
vn 1.000000 0.000000 0.000000
vn 1.000000 0.000000 0.000000
vn 1.000000 0.000000 0.000000
vn 1.000000 0.000000 0.000000
vn 1.000000 0.000000 0.000000
vn 1.000000 0.000000 0.000000
vn 1.000000 0.000000 0.000000
vn 1.000000 0.000000 0.000000
vn 1.000000 0.000000 0.000000
vn 1.000000 0.000000 0.000000
vn 1.000000 0.000000 0.000000
vn 1.000000 0.000000 0.000000
vn 1.000000 0.000000 0.000000
vn 1.000000 0.000000 0.000000
vn 0.000000 0.707107 0.707106
vn 0.000000 0.707107 0.707106
vn 0.000000 0.707107 0.707106
vn 0.000000 0.707107 0.707106
vn 0.000000 1.000000 0.000000
vn 0.000000 1.000000 0.000000
vn 0.000000 1.000000 0.000000
vn 0.000000 1.000000 0.000000
vn 0.000000 1.000000 0.000000
vn 0.000000 1.000000 0.000000
vn 0.000000 1.000000 0.000000
vn 0.000000 1.000000 0.000000
vn 0.000000 1.000000 0.000000
vn 0.000000 1.000000 0.000000
vn 0.000000 0.000000 1.000000
vn 0.000000 0.000000 1.000000
vn 0.000000 0.000000 1.000000
vn 0.000000 0.000000 1.000000
vn 0.000000 0.000000 1.000000
vn 0.000000 0.000000 1.000000
vn 0.000000 0.000000 1.000000
vn 0.000000 0.000000 1.000000
vn 0.000000 0.000000 1.000000
vn 0.000000 0.000000 1.000000
vn 0.000000 0.000000 1.000000
vn 0.000000 0.000000 1.000000
vn 0.000000 0.000000 1.000000
vn 0.000000 0.000000 1.000000
vn 0.000000 0.000000 1.000000
vn 0.000000 0.000000 1.000000
vn 0.000000 0.000000 1.000000
vn 0.000000 0.000000 1.000000
vn 0.000000 0.000000 1.000000
vn 0.000000 0.000000 1.000000
vn 0.000000 0.000000 1.000000
vn 0.000000 0.000000 1.000000
vn 0.000000 0.000000 1.000000
vn 0.000000 0.000000 1.000000
vn 0.000000 0.000000 1.000000
vn 0.000000 0.000000 1.000000
vn 0.000000 0.000000 1.000000
vn 0.000000 0.000000 1.000000
vn 0.000000 0.000000 1.000000
vn 0.000000 0.000000 1.000000
vn 0.000000 0.000000 1.000000
vn 0.000000 0.000000 1.000000
vn 0.000000 0.000000 1.000000
vn 0.000000 0.000000 1.000000
vn 0.000000 0.000000 1.000000
vn 0.000000 0.000000 1.000000
vn 0.000000 0.000000 1.000000
vn 0.000000 0.000000 1.000000
vn 0.000000 0.000000 1.000000
vn 0.000000 0.000000 1.000000
vn 0.000000 0.000000 1.000000
vn 0.000000 0.000000 1.000000
vn 0.000000 0.000000 1.000000
vn 0.000000 0.000000 1.000000
vn 0.000000 0.000000 1.000000
vn 0.000000 0.000000 1.000000
vn 0.000000 0.000000 1.000000
vn 0.000000 0.000000 1.000000
vn 0.000000 0.000000 1.000000
vn 0.000000 0.000000 1.000000
vn 0.000000 0.000000 1.000000
vn 0.000000 0.000000 1.000000
vn 0.000000 0.000000 1.000000
vn 0.000000 0.000000 1.000000
vn 0.000000 0.000000 1.000000
vn 0.000000 0.000000 1.000000
vn 0.000000 0.000000 1.000000
vn 0.000000 0.000000 1.000000
vn 0.000000 0.000000 1.000000
vn 0.000000 0.000000 1.000000
vn 0.000000 0.000000 1.000000
vn 0.000000 0.000000 1.000000
vn 0.000000 0.000000 1.000000
vn 0.000000 0.000000 1.000000
vn 0.000000 0.000000 1.000000
vn 0.000000 0.000000 1.000000
vn 0.000000 0.000000 1.000000
vn 0.000000 0.000000 1.000000
vn 0.000000 0.000000 1.000000
vn 0.000000 0.000000 1.000000
vn 0.000000 0.000000 1.000000
vn 0.000000 0.000000 1.000000
vn 0.000000 0.000000 1.000000
vn 0.000000 0.000000 1.000000
vn 0.000000 0.000000 1.000000
vn 0.000000 0.000000 1.000000
vn 0.000000 0.000000 1.000000
vn 0.000000 0.000000 1.000000
vn 0.000000 0.000000 1.000000
vn 0.000000 0.000000 1.000000
vn 0.000000 0.000000 1.000000
vn 0.000000 0.000000 1.000000
vn 0.000000 -1.000000 0.000000
vn 0.000000 -1.000000 0.000000
vn 0.000000 -1.000000 0.000000
vn 0.000000 -1.000000 0.000000
vn 0.000000 -1.000000 0.000000
vn 0.000000 -1.000000 0.000000
vn 0.000000 -1.000000 0.000000
vn 0.000000 -1.000000 0.000000
vn 0.000000 -1.000000 0.000000
vn 0.000000 -1.000000 0.000000
vn 0.707106 0.000000 -0.707107
vn 0.707106 0.000000 -0.707107
vn 0.707106 0.000000 -0.707107
vn 0.707106 0.000000 -0.707107
vn 0.000000 0.000000 -1.000000
vn 0.000000 0.000000 -1.000000
vn 0.000000 0.000000 -1.000000
vn 0.000000 0.000000 -1.000000
vn 0.000000 0.000000 -1.000000
vn 0.000000 0.000000 -1.000000
vn 0.000000 0.000000 -1.000000
vn 0.000000 0.000000 -1.000000
vn 0.000000 0.000000 -1.000000
vn 0.000000 0.000000 -1.000000
vn 0.000000 0.000000 -1.000000
vn 0.000000 0.000000 -1.000000
vn 0.000000 0.000000 -1.000000
vn 0.000000 0.000000 -1.000000
vn 0.000000 0.000000 -1.000000
vn 0.000000 0.000000 -1.000000
vn 0.000000 0.000000 -1.000000
vn 0.000000 0.000000 -1.000000
vn 0.000000 0.000000 -1.000000
vn 0.000000 0.000000 -1.000000
vn -0.707106 0.000000 -0.707108
vn -0.707106 0.000000 -0.707108
vn -0.707106 0.000000 -0.707108
vn -0.707106 0.000000 -0.707108
vn -1.000000 0.000000 0.000000
vn -1.000000 0.000000 0.000000
vn -1.000000 0.000000 0.000000
vn -1.000000 0.000000 0.000000
vn -1.000000 0.000000 0.000000
vn -1.000000 0.000000 0.000000
vn -1.000000 0.000000 0.000000
vn -1.000000 0.000000 0.000000
vn -1.000000 0.000000 0.000000
vn -1.000000 0.000000 0.000000
vn -1.000000 0.000000 0.000000
vn -1.000000 0.000000 0.000000
vn -1.000000 0.000000 0.000000
vn -1.000000 0.000000 0.000000
vn -1.000000 0.000000 0.000000
vn -1.000000 0.000000 0.000000
vn -1.000000 0.000000 0.000000
vn -1.000000 0.000000 0.000000
vn -1.000000 0.000000 0.000000
vn -1.000000 0.000000 0.000000
vn -1.000000 0.000000 0.000000
vn -1.000000 0.000000 0.000000
vn 0.000000 0.707107 0.707106
vn 0.000000 0.707107 0.707106
vn 0.000000 0.707107 0.707106
vn 0.000000 0.707107 0.707106
vn 1.000000 0.000000 0.000000
vn 1.000000 0.000000 0.000000
vn 1.000000 0.000000 0.000000
vn 1.000000 0.000000 0.000000
vn 1.000000 0.000000 0.000000
vn 1.000000 0.000000 0.000000
vn 1.000000 0.000000 0.000000
vn 1.000000 0.000000 0.000000
vn 1.000000 0.000000 0.000000
vn 1.000000 0.000000 0.000000
vn 1.000000 0.000000 0.000000
vn 1.000000 0.000000 0.000000
vn 1.000000 0.000000 0.000000
vn 1.000000 0.000000 0.000000
vn 1.000000 0.000000 0.000000
vn 1.000000 0.000000 0.000000
vn 1.000000 0.000000 0.000000
vn 1.000000 0.000000 0.000000
vn 1.000000 0.000000 0.000000
vn 1.000000 0.000000 0.000000
vn 1.000000 0.000000 0.000000
vn 1.000000 0.000000 0.000000
vn 1.000000 0.000000 0.000000
vn 0.000000 0.000000 1.000000
vn 0.000000 0.000000 1.000000
vn 0.000000 0.000000 1.000000
vn 0.000000 0.000000 1.000000
vn 0.000000 -0.707107 0.707106
vn 0.000000 -0.707107 0.707106
vn 0.000000 -0.707107 0.707106
vn 0.000000 -0.707107 0.707106
vn 0.019201 0.773713 -0.633246
vn 0.022719 0.218108 -0.975660
vn 0.024238 -0.531960 -0.846423
vn 0.018482 -0.954715 -0.296947
vn 0.020606 -0.930926 0.364627
vn 0.017439 -0.708560 0.705435
vn 0.029250 0.871797 0.488993
vn 0.029034 0.998485 0.046733
vn -0.018892 0.916295 0.400058
vn -0.021922 0.731375 0.681623
vn -0.020281 -0.565135 0.824749
vn -0.017850 -0.793909 0.607775
vn -0.017119 -0.999853 -0.000157
vn -0.020508 -0.800794 -0.598588
vn -0.023382 -0.203538 -0.978788
vn -0.020929 0.506817 -0.861800
vn -0.021886 0.948818 -0.315063
vn 0.027080 0.072808 0.996978
vn 0.022079 0.088756 0.995809
vn -0.001473 0.163279 0.986579
vn 0.004976 0.142971 0.989714
vn 0.033079 0.260678 -0.964859
vn 0.020929 -0.506817 -0.861800
vn 0.021886 -0.948818 -0.315063
vn 0.018892 -0.916295 0.400058
vn 0.021922 -0.731375 0.681623
vn 0.020281 0.565135 0.824749
vn 0.023337 0.819414 0.572727
vn 0.035765 0.957228 -0.287116
vn -0.018884 0.930788 0.365071
vn -0.017439 0.708560 0.705435
vn -0.029250 -0.871797 0.488993
vn -0.029034 -0.998485 0.046733
vn -0.019201 -0.773713 -0.633246
vn -0.022719 -0.218108 -0.975660
vn -0.017986 0.533200 -0.845798
vn -0.020916 0.954171 -0.298529
vn 0.001473 -0.163279 0.986579
vn -0.004976 -0.142971 0.989714
vn -0.027080 -0.072808 0.996978
vn -0.022079 -0.088756 0.995809
vn -0.984566 -0.158275 -0.074693
vn -0.956358 0.073370 0.282837
vn -0.554704 -0.809321 0.193140
vn -0.737283 -0.664611 0.121266
vn -0.907509 -0.411220 -0.085589
vn -0.946062 -0.321151 -0.042763
vn -0.685774 -0.714571 0.138214
vn -0.977847 0.020176 0.208345
vn 0.451804 0.788665 -0.416989
vn 0.582755 0.812434 0.018664
vn 0.721130 0.589039 0.364698
vn 0.700346 0.661004 0.269422
vn 0.447883 0.784649 -0.428633
vn 0.000000 0.000000 -1.000000
vn 0.000000 0.000000 -1.000000
vn 0.000000 0.000000 -1.000000
vn 0.000000 0.000000 -1.000000
vn 0.000000 0.000000 -1.000000
vn 0.000000 0.000000 -1.000000
vn 0.000000 0.000000 -1.000000
vn 0.000000 0.000000 -1.000000
vn 0.000000 0.000000 -1.000000
vn 0.000000 0.000000 -1.000000
vn 0.000000 0.000000 -1.000000
vn 0.000000 0.000000 -1.000000
vn 0.000000 0.000000 -1.000000
vn 0.000000 0.000000 -1.000000
vn 0.000000 0.000000 -1.000000
vn 0.000000 0.000000 -1.000000
vn 0.000000 0.000000 -1.000000
vn 0.000000 0.000000 -1.000000
vn 0.000000 0.000000 -1.000000
vn 0.000000 0.000000 -1.000000
vn 0.000000 0.000000 -1.000000
vn 0.000000 0.000000 -1.000000
vn 0.000000 0.000000 -1.000000
vn 0.000000 0.000000 -1.000000
vn 0.000000 0.000000 -1.000000
vn 0.000000 0.000000 -1.000000
vn 0.000000 0.000000 -1.000000
vn 0.000000 0.000000 -1.000000
vn 0.000000 0.000000 -1.000000
vn 0.000000 0.000000 -1.000000
vn -0.999806 0.018886 0.005552
vn -0.936604 0.350381 0.002536
vn -0.719793 0.694053 0.013774
vn -0.362542 0.931648 0.024409
vn 0.067444 0.997657 0.011481
vn 0.466132 0.884649 0.010788
vn 0.738441 0.674303 0.004502
vn 0.934496 0.355967 0.002110
vn 0.998492 -0.053004 0.014262
vn 0.895264 -0.445134 0.018901
vn 0.660386 -0.750684 0.019089
vn 0.356693 -0.934012 0.019802
vn -0.002678 -0.999804 0.019602
vn -0.400287 -0.916248 0.016093
vn -0.727042 -0.686177 0.023896
vn -0.936134 -0.351494 0.010235
vn 0.925252 0.000519 -0.379352
vn -0.924283 0.004164 -0.381685
vn -0.868692 -0.292280 -0.399933
vn -0.735564 -0.551977 -0.392768
vn -0.590672 -0.700126 -0.401161
vn -0.322448 -0.854042 -0.408216
vn -0.077285 -0.917878 -0.389265
vn 0.184251 -0.910659 -0.369799
vn 0.423644 -0.814441 -0.396499
vn 0.682229 -0.594212 -0.426001
vn 0.868080 -0.292966 -0.400760
vn 0.449423 0.063096 -0.891088
vn -0.441376 -0.077632 -0.893958
vn -0.399765 -0.228251 -0.887744
vn -0.246985 -0.395317 -0.884716
vn -0.085038 -0.424763 -0.901302
vn 0.070398 -0.417193 -0.906087
vn 0.280105 -0.382375 -0.880528
vn 0.435236 -0.247538 -0.865618
vn 0.430942 -0.065931 -0.899968
vn 0.438883 0.269459 -0.857189
vn 0.321273 0.341605 -0.883227
vn 0.178050 0.421183 -0.889327
vn -0.007579 0.575010 -0.818111
vn -0.210060 0.466479 -0.859227
vn -0.367949 0.363791 -0.855728
vn -0.404181 0.223610 -0.886925
vn -0.432346 0.069201 -0.899049
vn 0.000000 0.000000 -1.000000
vn -0.000021 0.000016 -1.000000
vn -0.000174 0.000009 -1.000000
vn -0.000003 0.000847 -1.000000
vn 0.000038 0.000025 -1.000000
vn 0.000019 0.000013 -1.000000
vn 0.000000 0.000000 -1.000000
vn 0.000002 0.000069 -1.000000
vn 0.000154 0.000269 -1.000000
vn 0.003803 0.003585 -0.999986
vn 0.000128 -0.000026 -1.000000
vn 0.000051 -0.000006 -1.000000
vn 0.000000 0.000000 -1.000000
vn 0.000000 0.000000 -1.000000
vn 0.000014 0.000023 -1.000000
vn 0.000006 0.000031 -1.000000
vn 0.000178 -0.000007 -1.000000
vn 0.000054 -0.000220 -1.000000
vn 0.000024 -0.000029 -1.000000
vn 0.000000 0.000000 -1.000000
vn 0.000000 0.000000 -1.000000
vn 0.000045 0.000007 -1.000000
vn 0.001949 -0.004539 -0.999988
vn 0.030276 -0.035947 -0.998895
vn -0.000014 -0.000147 -1.000000
vn 0.000000 0.000000 -1.000000
vn 0.000063 -0.000044 -1.000000
vn 0.000226 -0.000066 -1.000000
vn 0.008150 -0.132706 -0.991122
vn 0.000679 -0.012309 -0.999924
vn -0.000025 -0.000014 -1.000000
vn 0.000000 0.000000 -1.000000
vn 0.000007 -0.000032 -1.000000
vn -0.004485 -0.003609 -0.999983
vn -0.000792 -0.002690 -0.999996
vn -0.000031 0.000006 -1.000000
vn 0.000000 0.000000 -1.000000
vn -0.000009 -0.000020 -1.000000
vn -0.000017 -0.000052 -1.000000
vn -0.000073 -0.000024 -1.000000
vn -0.000111 -0.000001 -1.000000
vn 0.000000 0.000048 -1.000000
vn -0.000011 0.000021 -1.000000
vn 0.000000 0.000000 -1.000000
vn 0.000000 0.000000 -1.000000
vn -0.000049 -0.000007 -1.000000
vn -0.000132 -0.000001 -1.000000
vn -0.006421 0.005786 -0.999963
vn -0.000061 0.000218 -1.000000
vn 0.000001 0.000066 -1.000000
vn 0.000000 0.000000 -1.000000
vn 0.000000 0.000000 -1.000000
vn 0.000000 0.000000 -1.000000
vn 0.000000 0.000000 -1.000000
vn 0.000000 0.000000 -1.000000
vn 0.000000 0.000000 -1.000000
vn 0.000000 0.000000 -1.000000
vn 0.000000 0.000000 -1.000000
vn 0.000000 0.000000 -1.000000
vn 0.000000 0.000000 -1.000000
vn 0.000000 0.000000 -1.000000
vn 0.861876 0.304698 -0.405374
vn 0.651665 0.635323 -0.414363
vn 0.448888 0.814455 -0.367646
vn 0.143033 0.887379 -0.438293
vn -0.207301 0.895217 -0.394478
vn -0.535279 0.716601 -0.447168
vn -0.733287 0.549555 -0.400350
vn -0.865553 0.313384 -0.390652
vn 0.535324 -0.844477 0.016936
vn 0.994964 0.098776 0.017003
vn 0.901148 -0.433042 0.020186
vn 0.664020 -0.747588 -0.013726
vn 0.995854 -0.090505 -0.009122
vn 0.970771 0.239999 -0.002134
vn 0.315521 -0.948860 -0.010543
vn 0.423758 0.905714 0.010542
vn 0.430940 0.902332 0.009330
vn 0.497112 0.867684 -0.002101
vn 0.488940 0.872317 -0.000663
vn 0.000000 0.000000 1.000000
vn 0.000000 0.000000 1.000000
vn 0.000000 0.000000 1.000000
vn 0.000000 0.000000 1.000000
vn 0.000000 0.000000 1.000000
vn 0.000000 0.000000 1.000000
vn 0.000000 0.000000 1.000000
vn 0.000000 0.000000 1.000000
vn 0.000000 0.000000 1.000000
vn 0.000000 0.000000 1.000000
vn 0.000000 0.000000 1.000000
vn 0.000000 0.000000 1.000000
vn 0.000000 0.000000 1.000000
vn 0.000000 0.000000 1.000000
vn 0.000000 0.000000 1.000000
vn 0.000000 0.000000 1.000000
vn -0.011420 -0.999559 -0.027419
vn 0.662017 -0.748954 -0.028309
vn 0.993192 -0.111766 -0.032822
vn 0.840339 0.541198 -0.030596
vn 0.595853 0.801518 -0.050277
vn -0.803418 0.595305 0.011459
vn -0.932989 0.359857 -0.005898
vn -0.960147 -0.278099 -0.027891
vn -0.609576 -0.792242 -0.027735
vn -0.244369 -0.969157 0.031922
vn -0.838580 -0.543589 0.035979
vn -0.986077 0.162040 0.037365
vn -0.830575 0.555549 0.038869
vn 0.697998 0.715957 0.014333
vn 0.947813 0.317023 0.033858
vn 0.928789 -0.369531 0.028232
vn 0.499276 -0.865920 0.030115
vn -0.140252 0.990113 -0.002259
vn -0.218923 0.974498 -0.049260
vn -0.093474 0.995299 0.025360
vn -0.020064 0.997468 0.068226
vn -0.567168 0.823405 0.018030
vn -0.513810 0.857698 0.018795
vn -0.250253 0.968114 -0.011363
vn -0.582777 0.812516 -0.013747
vn -0.839301 0.543339 -0.018880
vn -0.989127 -0.146092 0.016887
vn -0.991273 -0.130378 0.019501
vn -0.966239 -0.257638 -0.001983
vn -0.960936 -0.276719 -0.005267
vn -0.325773 -0.945395 0.009980
vn -0.332048 -0.943220 0.008978
vn -0.393186 -0.919459 -0.000933
vn -0.385705 -0.922622 0.000295
vn 0.061417 -0.998008 -0.014451
vn 0.071961 -0.997332 -0.012286
vn 0.146649 -0.989184 0.003141
vn 0.137577 -0.990490 0.001258
vn 0.575509 0.817730 0.010345
vn 0.851955 0.523426 0.014053
vn 0.965314 -0.260607 0.015892
vn 0.769708 -0.638146 0.017876
vn 0.929870 -0.367400 -0.018928
vn 0.995366 0.094635 -0.017028
vn 0.649599 0.760192 -0.011388
vn 0.360935 0.932509 -0.012353
vn 0.000000 0.000000 1.000000
vn 0.000000 0.000000 1.000000
vn 0.000000 0.000000 1.000000
vn 0.000000 0.000000 1.000000
vn 0.000000 0.000000 1.000000
vn 0.000000 0.000000 1.000000
vn 0.000000 0.000000 1.000000
vn 0.000000 0.000000 1.000000
vn 0.000000 0.000000 1.000000
vn 0.000000 0.000000 1.000000
vn 0.000000 0.000000 1.000000
vn 0.000000 0.000000 1.000000
vn 0.000000 0.000000 1.000000
vn 0.000000 0.000000 1.000000
vn 0.000000 0.000000 1.000000
vn 0.224625 -0.973897 -0.032676
vn 0.801819 -0.597037 -0.025149
vn 0.962308 -0.268787 -0.041433
vn 0.374240 0.927002 -0.024720
vn -0.063754 0.997161 -0.040062
vn -0.746634 0.663442 -0.048809
vn -0.980448 -0.190967 -0.047465
vn -0.457781 -0.888036 -0.042750
vn -0.114860 -0.992509 0.041634
vn -0.812523 -0.580712 0.050800
vn -0.939825 0.338618 0.045465
vn -0.446812 0.894089 0.031060
vn 0.174723 0.984414 0.020014
vn 0.491730 0.869797 0.040670
vn 0.904458 -0.425130 0.034943
vn 0.599222 -0.799525 0.041137
vn 0.928922 0.369694 0.020732
vn 0.935416 0.353448 0.008408
vn 0.945922 0.324112 -0.013553
vn 0.940329 0.340263 -0.001508
vn -0.327119 0.944869 0.014694
vn -0.317807 0.948015 0.016327
vn -0.401943 0.915664 0.001306
vn -0.413850 0.910345 -0.000870
vn -0.989756 0.142174 0.013053
vn -0.987140 0.159533 0.010229
vn -0.953368 0.301516 -0.013315
vn -0.958687 0.284271 -0.010412
vn -0.774719 -0.632298 -0.003053
vn -0.773175 -0.634183 -0.003493
vn -0.761483 -0.648150 -0.006777
vn -0.762846 -0.646548 -0.006398
vn -0.992728 0.120034 0.009128
vn -0.995785 0.091561 0.005440
vn -0.992309 -0.121808 -0.022032
vn -0.994513 -0.102764 -0.019592
vn -0.720624 -0.693094 0.017933
vn -0.740576 -0.671630 0.021449
vn -0.527593 -0.849408 -0.012272
vn -0.497046 -0.867566 -0.016563
vn 0.189524 -0.981639 -0.021587
vn 0.208119 -0.977948 -0.017439
vn 0.343508 -0.939053 0.013512
vn 0.327331 -0.944859 0.009742
vn 0.914080 0.405057 0.019663
vn 0.991986 -0.124259 0.022889
vn 0.825023 -0.564711 0.020927
vn 0.987017 -0.159266 -0.020789
vn 0.924318 0.380622 -0.027624
vn 0.618449 0.785209 -0.031092
vn 0.000000 0.000000 1.000000
vn 0.000000 0.000000 1.000000
vn 0.000000 0.000000 1.000000
vn 0.000000 0.000000 1.000000
vn 0.000000 0.000000 1.000000
vn 0.000000 0.000000 1.000000
vn 0.000000 0.000000 1.000000
vn 0.000000 0.000000 1.000000
vn 0.000000 0.000000 1.000000
vn 0.000000 0.000000 1.000000
vn 0.000000 0.000000 1.000000
vn 0.000000 0.000000 1.000000
vn 0.000000 0.000000 1.000000
vn 0.000000 0.000000 1.000000
vn 0.378344 -0.924150 -0.052941
vn 0.754991 -0.648878 -0.094578
vn -0.620353 0.784202 -0.013777
vn -0.867466 0.497173 -0.017945
vn -0.984111 -0.174892 -0.030627
vn -0.549055 -0.834586 -0.044774
vn -0.774181 -0.631829 0.037887
vn -0.999676 -0.016776 0.019133
vn -0.811842 0.583745 0.012447
vn -0.587934 0.808885 0.006293
vn 0.581957 -0.812903 0.022702
vn -0.014591 -0.998615 0.050556
vn 0.992826 0.119089 -0.010693
vn 0.798040 0.601533 -0.035911
vn 0.223522 0.974683 -0.005616
vn -0.027303 0.999446 0.019041
vn 0.006747 0.999977 -0.000971
vn 0.382334 0.923760 0.022105
vn 0.942006 0.332450 0.045851
vn 0.992649 -0.085965 0.085194
vn -0.735996 0.676925 0.009127
vn -0.383299 0.923452 0.017819
vn 0.053920 0.998082 0.030428
vn -0.437211 0.899053 -0.023478
vn -0.516499 0.855852 -0.027312
vn -0.753909 0.656917 0.008964
vn -0.752986 0.657973 0.009202
vn -0.742829 0.669378 0.011790
vn -0.744185 0.667876 0.011447
vn -0.929584 -0.367785 0.024642
vn -0.941574 -0.336237 0.019549
vn -0.996495 -0.081154 -0.020272
vn -0.993117 -0.116173 -0.014940
vn -0.247653 -0.968843 -0.003317
vn -0.258648 -0.965957 -0.005248
vn -0.329438 -0.944009 -0.017810
vn -0.321617 -0.946728 -0.016411
vn 0.527371 -0.849598 0.007914
vn 0.514087 -0.857677 0.010211
vn 0.628141 -0.778030 -0.010383
vn 0.640282 -0.768035 -0.012704
vn 0.000000 0.000000 1.000000
vn 0.000000 0.000000 1.000000
vn 0.000000 0.000000 1.000000
vn 0.000000 0.000000 1.000000
vn 0.000000 0.000000 1.000000
vn 0.000000 0.000000 1.000000
vn 0.000000 0.000000 1.000000
vn 0.000000 0.000000 1.000000
vn 0.000000 0.000000 1.000000
vn 0.000000 0.000000 1.000000
vn 0.000000 0.000000 1.000000
vn 0.000000 0.000000 1.000000
vn 0.000000 0.000000 1.000000
vn 0.000000 0.000000 1.000000
vn 0.000000 0.000000 1.000000
vn 0.000000 0.000000 1.000000
vn 0.512904 -0.858419 -0.006867
vn 0.789185 -0.613994 -0.014067
vn 0.962308 -0.268788 -0.041433
vn 0.920152 -0.391154 0.017836
vn 0.707215 -0.706963 0.007054
vn 0.493972 -0.869260 -0.019458
vn 0.928923 0.369693 0.020732
vn 0.935416 0.353448 0.008408
vn 0.945922 0.324112 -0.013553
vn 0.940329 0.340263 -0.001508
vn -0.117184 -0.993086 0.006958
vn 0.374240 0.927002 -0.024720
vn -0.063754 0.997161 -0.040062
vn -0.720534 0.692491 -0.035890
vn -0.997087 0.071987 -0.025215
vn -0.857735 -0.513965 -0.011409
vn -0.393018 -0.919515 -0.005319
vn -0.438320 -0.898765 0.009795
vn -0.911387 -0.410594 0.028049
vn -0.934022 0.355462 0.035356
vn -0.446811 0.894089 0.031060
vn 0.174724 0.984414 0.020014
vn 0.491731 0.869797 0.040670
vn -0.118379 -0.992948 0.006340
vn 0.999147 -0.040384 0.008568
vn 0.999359 -0.034510 0.009505
vn 0.995108 -0.098793 -0.000777
vn 0.995795 -0.091608 0.000376
vn 0.707457 0.706752 -0.002694
vn 0.709931 0.704264 -0.003213
vn 0.730561 0.682805 -0.007617
vn 0.728668 0.684829 -0.007207
vn 0.060437 0.998145 0.007390
vn 0.075862 0.997074 0.009400
vn -0.070309 0.997479 -0.009641
vn -0.084850 0.996327 -0.011534
vn -0.458552 0.888558 0.013939
vn -0.454184 0.890811 0.013175
vn -0.412076 0.911130 0.005900
vn -0.405537 0.914066 0.004783
vn -0.995615 0.090813 0.022434
vn -0.992332 0.122162 0.018821
vn -0.913107 0.407420 -0.015673
vn -0.927144 0.374527 -0.011535
vn -0.245253 -0.969376 0.012657
vn 0.183145 -0.983049 0.008566
vn -0.660121 -0.751028 0.014047
vn -0.858067 -0.513104 -0.021095
vn -0.541502 -0.840430 -0.021296
vn -0.089472 -0.995797 -0.019557
vn 0.000000 0.000000 1.000000
vn 0.000000 0.000000 1.000000
vn 0.000000 0.000000 1.000000
vn 0.000000 0.000000 1.000000
vn 0.000000 0.000000 1.000000
vn 0.000000 0.000000 1.000000
vn 0.000000 0.000000 1.000000
vn 0.000000 0.000000 1.000000
vn 0.000000 0.000000 1.000000
vn 0.000000 0.000000 1.000000
vn 0.000000 0.000000 1.000000
vn 0.000000 0.000000 1.000000
vn 0.000000 0.000000 1.000000
vn 0.000000 0.000000 1.000000
vn 0.000000 0.000000 1.000000
vn 0.000000 0.000000 1.000000
vn 0.192338 -0.981301 -0.007409
vn -0.214982 0.976521 -0.013746
vn -0.594449 0.803269 -0.037276
vn -0.984343 0.172865 -0.034437
vn -0.853330 -0.519948 -0.038501
vn -0.225057 -0.974038 -0.024488
vn -0.012732 -0.999913 0.003431
vn -0.632372 -0.774055 0.030750
vn -0.979298 -0.199294 0.035458
vn -0.876069 0.481258 0.029905
vn -0.406547 0.913341 0.022961
vn -0.108699 0.993283 0.039678
vn 0.223898 -0.974197 -0.028462
vn 0.813187 -0.582001 0.001005
vn 0.801774 -0.597516 -0.011525
vn 0.773077 -0.632976 -0.041154
vn 0.788145 -0.614944 -0.025907
vn 0.990853 0.132303 -0.026580
vn 0.823827 0.566036 -0.030214
vn 0.570255 0.820257 -0.044585
vn 0.669825 0.742138 0.023775
vn 0.940776 0.336831 0.038548
vn 0.995803 -0.071906 0.056618
vn 0.761335 -0.648320 -0.007088
vn 0.759037 -0.651016 -0.006472
vn 0.775176 -0.631653 -0.010854
vn 0.776882 -0.629544 -0.011325
vn 0.841409 0.540176 0.015500
vn 0.987238 0.158469 0.015777
vn 0.535917 0.844155 0.014008
vn 0.920788 0.389811 -0.014046
vn 0.670580 0.741689 -0.014848
vn 0.321268 0.946889 -0.013721
vn 0.452098 0.891810 0.016818
vn 0.476795 0.878783 0.020186
vn 0.224973 0.974283 -0.012674
vn 0.193318 0.980996 -0.016594
vn -0.538793 0.842324 0.013882
vn -0.535675 0.844320 0.013279
vn -0.501122 0.865351 0.006684
vn -0.505833 0.862598 0.007575
vn -0.993114 -0.115197 0.021305
vn -0.998921 -0.041002 0.021796
vn -0.962596 0.270552 -0.014517
vn -0.990464 -0.136747 -0.016792
vn -0.850569 -0.525394 -0.022209
vn 0.000000 0.000000 1.000000
vn 0.000000 0.000000 1.000000
vn 0.000000 0.000000 1.000000
vn 0.000000 0.000000 1.000000
vn 0.000000 0.000000 1.000000
vn 0.000000 0.000000 1.000000
vn 0.000000 0.000000 1.000000
vn 0.000000 0.000000 1.000000
vn 0.000000 0.000000 1.000000
vn 0.000000 0.000000 1.000000
vn 0.000000 0.000000 1.000000
vn 0.000000 0.000000 1.000000
vn 0.000000 0.000000 1.000000
vn 0.000000 0.000000 1.000000
vn 0.554625 -0.831771 -0.023419
vn 0.925552 -0.378221 -0.017398
vn 0.997385 -0.064225 -0.033130
vn -0.382870 -0.922268 -0.053222
vn -0.043871 -0.998766 -0.023266
vn -0.239316 -0.970595 0.025936
vn 0.988239 -0.152295 0.013747
vn 0.848079 -0.528934 0.031475
vn 0.252205 -0.966746 0.042359
vn 0.766068 0.642563 0.015876
vn 0.761833 0.647667 0.011775
vn 0.769249 0.638667 0.018986
vn 0.772848 0.634191 0.022535
vn 0.179166 0.983514 -0.024485
vn 0.124864 0.992145 0.007503
vn 0.040078 0.997581 0.056805
vn 0.089662 0.995577 0.028066
vn -0.652852 0.754802 -0.063701
vn -0.884357 0.466122 -0.025365
vn -0.982356 -0.186737 0.010298
vn -0.915992 -0.398165 0.049222
vn -0.922556 -0.383961 0.038278
vn -0.994417 0.092812 0.050202
vn -0.763829 0.644960 0.024313
vn -0.282535 -0.959117 0.016411
vn -0.273420 -0.961782 0.014761
vn -0.207994 -0.978125 0.003007
vn -0.195957 -0.980612 0.000861
vn 0.760827 -0.648953 -0.001599
vn 0.759741 -0.650223 -0.001944
vn 0.752506 -0.658572 -0.004222
vn 0.753540 -0.657390 -0.003898
vn 0.973673 0.227820 0.007729
vn 0.968391 0.249395 0.004518
vn 0.916170 0.400360 -0.018564
vn 0.923022 0.384410 -0.016072
vn 0.634523 -0.772595 0.021841
vn -0.261016 -0.965226 0.014449
vn -0.867335 -0.497491 0.015292
vn -0.995529 -0.093120 0.015856
vn 0.169189 0.985494 0.013277
vn 0.521938 0.852862 0.014419
vn 0.986990 0.159357 0.021359
vn 0.850077 0.526195 -0.022091
vn 0.448741 0.893467 -0.018670
vn -0.970305 0.241185 -0.018413
vn -0.984398 -0.175165 -0.016665
vn -0.513423 -0.858041 -0.012731
vn 0.261574 -0.965063 -0.015233
vn 0.901658 -0.431938 -0.021035
vn -0.622317 0.782667 0.012416
vn -0.609669 0.792590 0.010246
vn -0.493415 0.869751 -0.008659
vn -0.508422 0.861085 -0.006315
vn 0.000000 0.000000 1.000000
vn 0.000000 0.000000 1.000000
vn 0.000000 0.000000 1.000000
vn 0.000000 0.000000 1.000000
vn 0.000000 0.000000 1.000000
vn 0.000000 0.000000 1.000000
vn 0.000000 0.000000 1.000000
vn 0.000000 0.000000 1.000000
vn 0.000000 0.000000 1.000000
vn 0.000000 0.000000 1.000000
vn 0.000000 0.000000 1.000000
vn 0.000000 0.000000 1.000000
vn 0.000000 0.000000 1.000000
vn 0.000000 0.000000 1.000000
vn 0.000000 0.000000 1.000000
vn 0.597570 -0.800490 -0.046102
vn 0.831366 -0.555343 -0.020614
vn 0.997281 0.065805 -0.033168
vn 0.677250 0.735453 -0.020991
vn 0.315978 0.948764 -0.002238
vn 0.277252 0.960336 -0.029786
vn 0.496317 0.868140 -0.001443
vn 0.917918 0.395624 0.030145
vn 0.955559 -0.291814 0.041860
vn 0.707736 -0.705847 0.029827
vn -0.448088 0.893987 -0.002251
vn -0.464029 0.885770 0.009410
vn -0.487673 0.872609 0.026992
vn -0.473321 0.880739 0.016279
vn -0.979953 0.193853 -0.045980
vn -0.986647 0.161321 -0.022430
vn -0.993932 0.108947 0.015162
vn -0.989400 0.144830 -0.010551
vn -0.760901 -0.648577 -0.019438
vn -0.735619 -0.676188 -0.040433
vn -0.783423 -0.621489 0.000363
vn -0.808493 -0.588022 0.023862
vn -0.103212 -0.994508 0.017347
vn -0.113083 -0.993300 0.023827
vn -0.127490 -0.991281 0.033297
vn -0.119472 -0.992442 0.028024
vn 0.723203 -0.690520 0.012630
vn 0.999285 0.034669 0.015080
vn 0.927275 -0.374110 0.014213
vn 0.998747 -0.045602 -0.020616
vn 0.915676 0.401375 -0.020859
vn 0.863930 -0.503305 -0.017588
vn 0.449805 0.893091 -0.008010
vn 0.436353 0.899764 -0.004534
vn 0.331326 0.943265 0.021774
vn 0.347564 0.937487 0.017799
vn -0.961072 0.275580 0.019928
vn -0.787984 0.615541 0.013814
vn -0.504608 0.863267 0.011848
vn -0.711252 0.702560 -0.023025
vn -0.759420 0.650219 -0.022292
vn 0.000000 0.000000 1.000000
vn 0.000000 0.000000 1.000000
vn 0.000000 0.000000 1.000000
vn 0.000000 0.000000 1.000000
vn 0.000000 0.000000 1.000000
vn 0.000000 0.000000 1.000000
vn 0.000000 0.000000 1.000000
vn 0.000000 0.000000 1.000000
vn 0.000000 0.000000 1.000000
vn 0.000000 0.000000 1.000000
vn 0.000000 0.000000 1.000000
vn 0.000000 0.000000 1.000000
vn 0.000000 0.000000 1.000000
vn 0.000000 0.000000 1.000000
vn 0.000000 0.000000 1.000000
vn 0.080553 -0.996102 -0.035944
vn 0.463641 -0.883737 -0.063602
vn -0.348082 -0.937266 -0.019289
vn -0.097589 -0.994979 0.022208
vn -0.431526 -0.901675 0.027700
vn 0.337733 -0.941235 0.003693
vn 0.968313 -0.248400 -0.025832
vn 0.954812 0.293239 -0.048434
vn 0.473626 0.880097 -0.033282
vn -0.109366 0.993630 -0.027188
vn -0.688022 0.724899 -0.033869
vn -0.924127 0.381009 -0.028669
vn -0.971026 0.237415 0.027244
vn -0.869868 0.492823 0.021326
vn -0.416359 0.908781 0.027618
vn 0.189755 0.981362 0.030365
vn 0.767424 0.640199 0.034723
vn 0.995866 -0.083186 0.036490
vn 0.891829 -0.447006 0.069477
vn -0.931096 -0.363980 -0.024046
vn -0.928692 -0.370319 -0.019851
vn -0.923629 -0.383121 -0.011326
vn -0.926567 -0.375781 -0.016222
vn -0.787388 -0.616310 0.013495
vn -0.806139 -0.591654 0.009237
vn -0.919814 -0.391712 -0.022454
vn -0.909018 -0.416333 -0.018789
vn -0.075478 -0.997134 -0.005083
vn -0.080212 -0.996760 -0.005938
vn -0.111845 -0.993657 -0.011653
vn -0.108157 -0.994073 -0.010986
vn 0.992478 0.121795 -0.012392
vn 0.658950 0.751897 -0.020883
vn -0.031573 0.999236 -0.023028
vn -0.654539 0.755821 -0.017718
vn -0.944123 0.329409 -0.011014
vn -0.992952 -0.118196 -0.008673
vn -0.817046 -0.576562 -0.003536
vn -0.473751 -0.880652 -0.003360
vn -0.023526 -0.999636 -0.013238
vn 0.491492 -0.870833 -0.009250
vn 0.873044 -0.487581 -0.007633
vn 0.869503 -0.493751 0.013182
vn 0.323784 -0.945919 0.020014
vn -0.349177 -0.936926 0.015672
vn -0.845195 -0.534345 0.011006
vn -0.999633 0.024304 0.012001
vn -0.854578 0.519136 0.013933
vn -0.439781 0.897905 0.018955
vn 0.201369 0.979311 0.020001
vn 0.765487 0.643367 0.010476
vn 0.992926 0.118493 0.007607
vn 0.045794 -0.997328 -0.056925
vn 0.029215 -0.991997 -0.122832
vn -0.039843 -0.921769 -0.385687
vn -0.022000 -0.947307 -0.319572
vn 0.001551 -0.753751 0.657158
vn 0.010496 -0.730709 0.682609
vn -0.023230 -0.812597 0.582362
vn -0.030436 -0.828326 0.559419
vn -0.002521 -0.056354 0.998408
vn -0.000256 -0.048841 0.998807
vn -0.009545 -0.079636 0.996778
vn -0.011548 -0.086271 0.996205
vn 0.010749 0.626560 0.779299
vn 0.003501 0.647125 0.762375
vn -0.024548 0.721992 0.691466
vn -0.018376 0.706163 0.707811
vn 0.023650 0.991618 0.127018
vn 0.020182 0.975824 -0.217624
vn 0.031732 0.840673 -0.540613
vn -0.030811 0.970557 -0.238895
vn -0.030849 0.991104 -0.129464
vn -0.017122 0.316713 -0.948367
vn -0.016058 0.319673 -0.947392
vn -0.012359 0.329931 -0.943924
vn -0.013176 0.327668 -0.944701
vn 0.012360 -0.473533 -0.880689
vn 0.013886 -0.469583 -0.882779
vn 0.021700 -0.449191 -0.893172
vn 0.019615 -0.454663 -0.890448
vn 0.022000 0.947307 -0.319572
vn 0.039843 0.921769 -0.385687
vn -0.029215 0.991997 -0.122832
vn -0.045794 0.997328 -0.056925
vn 0.023230 0.812597 0.582362
vn 0.030436 0.828326 0.559419
vn -0.001551 0.753751 0.657158
vn -0.010496 0.730709 0.682609
vn 0.009545 0.079636 0.996778
vn 0.011548 0.086271 0.996205
vn 0.002521 0.056354 0.998408
vn 0.000256 0.048841 0.998807
vn 0.024548 -0.721992 0.691466
vn 0.018376 -0.706163 0.707811
vn -0.010749 -0.626560 0.779299
vn -0.003501 -0.647125 0.762375
vn 0.030849 -0.991104 -0.129464
vn 0.030811 -0.970557 -0.238895
vn -0.020182 -0.975824 -0.217624
vn -0.031732 -0.840673 -0.540613
vn -0.023650 -0.991618 0.127018
vn 0.012359 -0.329931 -0.943924
vn 0.013176 -0.327668 -0.944701
vn 0.017122 -0.316713 -0.948367
vn 0.016058 -0.319673 -0.947392
vn -0.021700 0.449191 -0.893172
vn -0.019615 0.454663 -0.890448
vn -0.012360 0.473533 -0.880689
vn -0.013886 0.469583 -0.882779
vn 0.910456 -0.242307 0.335197
vn 0.910456 -0.242307 0.335197
vn 0.910456 -0.242307 0.335197
vn 0.825630 -0.321903 -0.463371
vn 0.825630 -0.321903 -0.463371
vn 0.825630 -0.321903 -0.463371
vn 0.672100 -0.483085 0.561169
vn 0.672100 -0.483085 0.561169
vn 0.672100 -0.483085 0.561169
vn 0.554607 -0.633306 -0.539755
vn 0.554607 -0.633306 -0.539755
vn 0.554607 -0.633306 -0.539755
vn 0.442732 -0.759253 0.476995
vn 0.442732 -0.759253 0.476995
vn 0.442732 -0.759253 0.476995
vn 0.306524 -0.845258 -0.437701
vn 0.306524 -0.845258 -0.437701
vn 0.306524 -0.845258 -0.437701
vn 0.110623 -0.892290 0.437699
vn 0.110623 -0.892290 0.437699
vn 0.110623 -0.892290 0.437699
vn -0.052798 -0.868801 -0.492339
vn -0.052798 -0.868801 -0.492339
vn -0.052798 -0.868801 -0.492339
vn -0.197565 -0.879158 0.433646
vn -0.197565 -0.879158 0.433646
vn -0.197565 -0.879158 0.433646
vn -0.448944 -0.762720 -0.465518
vn -0.448944 -0.762720 -0.465518
vn -0.448944 -0.762720 -0.465518
vn -0.814558 0.174307 -0.553275
vn -0.814558 0.174307 -0.553275
vn -0.814558 0.174307 -0.553275
vn -0.677853 0.344925 0.649263
vn -0.677853 0.344925 0.649263
vn -0.677853 0.344925 0.649263
vn -0.545492 0.478901 -0.687817
vn -0.545492 0.478901 -0.687817
vn -0.545492 0.478901 -0.687817
vn -0.451830 0.655489 0.605131
vn -0.451830 0.655489 0.605131
vn -0.451830 0.655489 0.605131
vn -0.316093 0.794390 -0.518681
vn -0.316093 0.794390 -0.518681
vn -0.316093 0.794390 -0.518681
vn -0.162252 0.869212 0.467060
vn -0.162252 0.869212 0.467060
vn -0.162252 0.869212 0.467060
vn 0.037964 0.851746 -0.522577
vn 0.037964 0.851746 -0.522577
vn 0.037964 0.851746 -0.522577
vn 0.177949 0.858831 0.480357
vn 0.177949 0.858831 0.480357
vn 0.177949 0.858831 0.480357
vn 0.661645 0.417963 -0.622522
vn 0.661645 0.417963 -0.622522
vn 0.661645 0.417963 -0.622522
vn 0.767782 0.153533 0.622044
vn 0.767782 0.153533 0.622044
vn 0.767782 0.153533 0.622044
vn 0.867673 0.050034 -0.494610
vn 0.867673 0.050034 -0.494610
vn 0.867673 0.050034 -0.494610
f 1//1 2//2 4//4
f 3//3 1//1 4//4
f 5//5 16//16 24//24
f 5//5 24//24 6//6
f 10//10 11//11 5//5
f 10//10 9//9 11//11
f 5//5 11//11 17//17
f 5//5 17//17 16//16
f 9//9 13//13 12//12
f 9//9 12//12 11//11
f 16//16 25//25 24//24
f 16//16 15//15 25//25
f 15//15 14//14 25//25
f 9//9 8//8 13//13
f 13//13 8//8 19//19
f 14//14 13//13 18//18
f 13//13 19//19 18//18
f 24//24 23//23 6//6
f 23//23 22//22 6//6
f 22//22 7//7 6//6
f 19//19 8//8 20//20
f 22//22 21//21 7//7
f 21//21 8//8 7//7
f 20//20 8//8 21//21
f 14//14 18//18 25//25
f 29//29 26//26 28//28
f 29//29 27//27 26//26
f 33//33 34//34 48//48
f 33//33 39//39 32//32
f 33//33 41//41 40//40
f 33//33 40//40 39//39
f 33//33 48//48 41//41
f 32//32 39//39 31//31
f 31//31 37//37 30//30
f 31//31 39//39 38//38
f 31//31 38//38 37//37
f 41//41 48//48 47//47
f 41//41 47//47 42//42
f 43//43 30//30 44//44
f 37//37 45//45 30//30
f 45//45 44//44 30//30
f 42//42 47//47 46//46
f 50//50 35//35 43//43
f 50//50 34//34 35//35
f 43//43 35//35 30//30
f 48//48 34//34 49//49
f 42//42 46//46 36//36
f 37//37 46//46 45//45
f 37//37 36//36 46//46
f 49//49 34//34 50//50
f 53//53 51//51 52//52
f 53//53 52//52 54//54
f 59//59 60//60 64//64
f 57//57 55//55 58//58
f 57//57 59//59 55//55
f 59//59 64//64 55//55
f 60//60 61//61 64//64
f 64//64 62//62 63//63
f 64//64 61//61 62//62
f 55//55 56//56 58//58
f 66//66 118//118 117//117
f 105//105 145//145 106//106
f 88//88 79//79 89//89
f 88//88 80//80 79//79
f 93//93 92//92 136//136
f 93//93 136//136 146//146
f 109//109 111//111 119//119
f 106//106 145//145 144//144
f 109//109 108//108 111//111
f 89//89 79//79 90//90
f 108//108 112//112 111//111
f 90//90 79//79 78//78
f 106//106 144//144 107//107
f 107//107 144//144 143//143
f 108//108 107//107 112//112
f 90//90 78//78 91//91
f 107//107 113//113 112//112
f 91//91 78//78 85//85
f 91//91 85//85 136//136
f 107//107 143//143 113//113
f 66//66 126//126 65//65
f 66//66 119//119 118//118
f 92//92 91//91 136//136
f 110//110 119//119 66//66
f 88//88 68//68 80//80
f 99//99 146//146 145//145
f 67//67 87//87 96//96
f 67//67 68//68 87//87
f 67//67 110//110 66//66
f 67//67 96//96 95//95
f 67//67 95//95 94//94
f 67//67 103//103 110//110
f 67//67 94//94 103//103
f 96//96 87//87 86//86
f 94//94 102//102 104//104
f 94//94 104//104 103//103
f 96//96 86//86 97//97
f 102//102 101//101 104//104
f 97//97 86//86 93//93
f 101//101 105//105 104//104
f 97//97 93//93 98//98
f 101//101 100//100 105//105
f 87//87 68//68 88//88
f 98//98 93//93 146//146
f 100//100 145//145 105//105
f 100//100 99//99 145//145
f 98//98 146//146 99//99
f 110//110 109//109 119//119
f 66//66 117//117 126//126
f 84//84 70//70 137//137
f 80//80 68//68 81//81
f 138//138 130//130 129//129
f 138//138 77//77 130//130
f 138//138 129//129 139//139
f 140//140 128//128 123//123
f 140//140 139//139 128//128
f 139//139 129//129 128//128
f 77//77 76//76 130//130
f 123//123 128//128 135//135
f 123//123 135//135 124//124
f 76//76 131//131 130//130
f 76//76 75//75 131//131
f 126//126 125//125 65//65
f 73//73 65//65 74//74
f 124//124 134//134 125//125
f 124//124 135//135 134//134
f 75//75 74//74 131//131
f 74//74 132//132 131//131
f 125//125 134//134 65//65
f 136//136 85//85 137//137
f 132//132 65//65 133//133
f 134//134 133//133 65//65
f 138//138 69//69 77//77
f 140//140 123//123 122//122
f 74//74 65//65 132//132
f 141//141 122//122 121//121
f 141//141 140//140 122//122
f 143//143 142//142 113//113
f 85//85 84//84 137//137
f 81//81 68//68 82//82
f 114//114 142//142 115//115
f 82//82 68//68 72//72
f 115//115 142//142 121//121
f 117//117 127//127 126//126
f 117//117 116//116 127//127
f 137//137 70//70 138//138
f 113//113 142//142 114//114
f 115//115 121//121 120//120
f 84//84 83//83 70//70
f 68//68 73//73 72//72
f 68//68 65//65 73//73
f 138//138 70//70 69//69
f 82//82 72//72 83//83
f 83//83 71//71 70//70
f 83//83 72//72 71//71
f 116//116 120//120 127//127
f 115//115 120//120 116//116
f 142//142 141//141 121//121
f 154//154 151//151 153//153
f 154//154 155//155 151//151
f 155//155 156//156 148//148
f 155//155 148//148 151//151
f 156//156 150//150 148//148
f 148//148 149//149 147//147
f 148//148 150//150 149//149
f 151//151 152//152 153//153
f 157//157 160//160 159//159
f 157//157 159//159 158//158
f 174//174 164//164 175//175
f 161//161 164//164 173//173
f 161//161 169//169 162//162
f 161//161 173//173 172//172
f 161//161 172//172 171//171
f 161//161 171//171 170//170
f 161//161 170//170 169//169
f 169//169 168//168 162//162
f 173//173 164//164 174//174
f 168//168 167//167 162//162
f 178//178 163//163 179//179
f 162//162 167//167 166//166
f 162//162 166//166 165//165
f 164//164 177//177 176//176
f 164//164 176//176 175//175
f 164//164 163//163 177//177
f 177//177 163//163 178//178
f 165//165 180//180 163//163
f 180//180 179//179 163//163
f 162//162 165//165 163//163
f 182//182 181//181 184//184
f 182//182 184//184 183//183
f 190//190 201//201 200//200
f 190//190 202//202 201//201
f 190//190 200//200 189//189
f 186//186 203//203 202//202
f 186//186 202//202 190//190
f 185//185 188//188 195//195
f 185//185 195//195 205//205
f 185//185 205//205 204//204
f 185//185 203//203 186//186
f 205//205 195//195 194//194
f 185//185 204//204 203//203
f 205//205 194//194 206//206
f 206//206 193//193 199//199
f 200//200 192//192 191//191
f 200//200 191//191 189//189
f 206//206 194//194 193//193
f 200//200 199//199 192//192
f 199//199 193//193 192//192
f 195//195 188//188 196//196
f 196//196 188//188 197//197
f 197//197 188//188 187//187
f 197//197 187//187 198//198
f 198//198 187//187 189//189
f 191//191 198//198 189//189
f 207//207 210//210 208//208
f 207//207 209//209 210//210
f 213//213 228//228 227//227
f 216//216 231//231 224//224
f 216//216 224//224 223//223
f 216//216 223//223 215//215
f 216//216 214//214 233//233
f 216//216 233//233 232//232
f 216//216 232//232 231//231
f 214//214 213//213 226//226
f 214//214 226//226 233//233
f 213//213 227//227 226//226
f 213//213 212//212 228//228
f 231//231 230//230 224//224
f 230//230 229//229 225//225
f 219//219 212//212 220//220
f 230//230 225//225 224//224
f 221//221 212//212 211//211
f 221//221 211//211 215//215
f 218//218 212//212 219//219
f 222//222 221//221 215//215
f 221//221 220//220 212//212
f 228//228 218//218 217//217
f 229//229 228//228 217//217
f 228//228 212//212 218//218
f 229//229 217//217 225//225
f 223//223 222//222 215//215
f 236//236 234//234 237//237
f 236//236 235//235 234//234
f 238//238 241//241 240//240
f 238//238 240//240 239//239
f 256//256 243//243 244//244
f 256//256 244//244 255//255
f 257//257 243//243 256//256
f 255//255 244//244 245//245
f 258//258 242//242 257//257
f 258//258 249//249 242//242
f 257//257 242//242 243//243
f 255//255 245//245 254//254
f 254//254 246//246 253//253
f 253//253 246//246 247//247
f 253//253 247//247 252//252
f 251//251 248//248 250//250
f 250//250 248//248 249//249
f 250//250 249//249 258//258
f 254//254 245//245 246//246
f 262//262 259//259 260//260
f 262//262 260//260 261//261
f 265//265 274//274 275//275
f 265//265 275//275 264//264
f 264//264 275//275 276//276
f 264//264 276//276 263//263
f 263//263 277//277 270//270
f 270//270 277//277 278//278
f 270//270 278//278 271//271
f 263//263 276//276 277//277
f 269//269 271//271 272//272
f 269//269 272//272 268//268
f 267//267 273//273 266//266
f 266//266 273//273 274//274
f 266//266 274//274 265//265
f 270//270 271//271 269//269
f 280//280 281//281 282//282
f 280//280 282//282 279//279
f 290//290 283//283 284//284
f 290//290 287//287 283//283
f 290//290 288//288 287//287
f 289//289 286//286 287//287
f 289//289 285//285 286//286
f 288//288 289//289 287//287
f 294//294 291//291 292//292
f 294//294 295//295 291//291
f 294//294 292//292 293//293
f 303//303 318//318 317//317
f 301//301 300//300 320//320
f 303//303 317//317 304//304
f 298//298 297//297 323//323
f 322//322 298//298 323//323
f 299//299 298//298 322//322
f 317//317 316//316 304//304
f 299//299 322//322 321//321
f 302//302 319//319 318//318
f 301//301 319//319 302//302
f 300//300 299//299 321//321
f 300//300 321//321 320//320
f 301//301 320//320 319//319
f 302//302 318//318 303//303
f 297//297 324//324 323//323
f 315//315 305//305 304//304
f 324//324 297//297 325//325
f 316//316 315//315 304//304
f 312//312 308//308 307//307
f 313//313 312//312 307//307
f 313//313 307//307 306//306
f 310//310 308//308 311//311
f 310//310 309//309 308//308
f 311//311 308//308 312//312
f 314//314 306//306 305//305
f 325//325 309//309 310//310
f 325//325 296//296 309//309
f 315//315 314//314 305//305
f 297//297 296//296 325//325
f 314//314 313//313 306//306
f 419//419 427//427 420//420
f 409//409 408//408 353//353
f 373//373 357//357 374//374
f 358//358 357//357 373//373
f 353//353 410//410 409//409
f 414//414 427//427 426//426
f 420//420 427//427 414//414
f 358//358 373//373 372//372
f 358//358 372//372 371//371
f 419//419 371//371 427//427
f 414//414 426//426 412//412
f 415//415 414//414 412//412
f 361//361 411//411 410//410
f 412//412 426//426 413//413
f 360//360 412//412 411//411
f 360//360 411//411 361//361
f 361//361 410//410 353//353
f 413//413 426//426 425//425
f 413//413 425//425 407//407
f 371//371 370//370 428//428
f 424//424 406//406 405//405
f 404//404 363//363 362//362
f 428//428 376//376 429//429
f 356//356 378//378 377//377
f 428//428 377//377 376//376
f 362//362 405//405 404//404
f 375//375 377//377 428//428
f 407//407 424//424 405//405
f 370//370 375//375 428//428
f 407//407 425//425 424//424
f 375//375 356//356 377//377
f 407//407 405//405 362//362
f 375//375 357//357 356//356
f 359//359 358//358 371//371
f 408//408 407//407 362//362
f 353//353 408//408 362//362
f 374//374 357//357 375//375
f 371//371 428//428 427//427
f 359//359 371//371 419//419
f 431//431 342//342 353//353
f 360//360 416//416 415//415
f 438//438 327//327 328//328
f 437//437 438//438 328//328
f 436//436 437//437 328//328
f 436//436 328//328 329//329
f 435//435 436//436 329//329
f 435//435 329//329 330//330
f 434//434 435//435 330//330
f 438//438 343//343 327//327
f 434//434 330//330 331//331
f 432//432 331//331 332//332
f 432//432 433//433 331//331
f 432//432 332//332 333//333
f 431//431 432//432 333//333
f 431//431 333//333 334//334
f 342//342 431//431 334//334
f 429//429 376//376 382//382
f 433//433 434//434 331//331
f 343//343 326//326 327//327
f 343//343 438//438 369//369
f 438//438 368//368 369//369
f 359//359 419//419 418//418
f 360//360 417//417 416//416
f 359//359 417//417 360//360
f 359//359 418//418 417//417
f 432//432 431//431 362//362
f 432//432 362//362 363//363
f 432//432 363//363 364//364
f 433//433 432//432 364//364
f 434//434 433//433 364//364
f 434//434 364//364 365//365
f 435//435 365//365 366//366
f 435//435 434//434 365//365
f 436//436 435//435 366//366
f 436//436 366//366 367//367
f 437//437 436//436 367//367
f 437//437 367//367 368//368
f 438//438 437//437 368//368
f 360//360 415//415 412//412
f 378//378 356//356 379//379
f 431//431 353//353 362//362
f 406//406 424//424 423//423
f 346//346 345//345 355//355
f 346//346 355//355 356//356
f 347//347 346//346 356//356
f 347//347 356//356 357//357
f 348//348 347//347 357//357
f 348//348 357//357 358//358
f 349//349 348//348 358//358
f 345//345 344//344 355//355
f 350//350 358//358 359//359
f 351//351 350//350 359//359
f 356//356 355//355 379//379
f 351//351 359//359 360//360
f 352//352 351//351 360//360
f 352//352 360//360 361//361
f 342//342 352//352 361//361
f 342//342 361//361 353//353
f 350//350 349//349 358//358
f 344//344 354//354 355//355
f 343//343 369//369 354//354
f 343//343 344//344 341//341
f 352//352 342//342 334//334
f 352//352 334//334 335//335
f 351//351 352//352 335//335
f 351//351 335//335 336//336
f 350//350 351//351 336//336
f 350//350 336//336 337//337
f 349//349 350//350 337//337
f 349//349 337//337 338//338
f 348//348 349//349 338//338
f 348//348 338//338 339//339
f 347//347 348//348 339//339
f 346//346 347//347 339//339
f 346//346 339//339 340//340
f 345//345 346//346 340//340
f 345//345 340//340 341//341
f 344//344 345//345 341//341
f 343//343 341//341 326//326
f 393//393 367//367 366//366
f 392//392 368//368 367//367
f 344//344 343//343 354//354
f 391//391 368//368 392//392
f 422//422 396//396 401//401
f 430//430 389//389 421//421
f 430//430 383//383 389//389
f 423//423 422//422 401//401
f 423//423 401//401 400//400
f 430//430 384//384 383//383
f 429//429 384//384 430//430
f 380//380 355//355 381//381
f 402//402 364//364 403//403
f 381//381 355//355 384//384
f 402//402 400//400 364//364
f 382//382 381//381 384//384
f 382//382 384//384 429//429
f 402//402 423//423 400//400
f 363//363 403//403 364//364
f 379//379 355//355 380//380
f 406//406 423//423 402//402
f 421//421 389//389 388//388
f 422//422 395//395 396//396
f 394//394 393//393 366//366
f 421//421 388//388 390//390
f 397//397 366//366 398//398
f 386//386 369//369 387//387
f 388//388 387//387 369//369
f 365//365 398//398 366//366
f 388//388 369//369 368//368
f 396//396 366//366 397//397
f 388//388 368//368 391//391
f 396//396 394//394 366//366
f 396//396 395//395 394//394
f 354//354 369//369 386//386
f 388//388 391//391 390//390
f 364//364 399//399 365//365
f 355//355 354//354 385//385
f 355//355 385//385 384//384
f 364//364 400//400 399//399
f 421//421 390//390 395//395
f 422//422 421//421 395//395
f 354//354 386//386 385//385
f 443//443 440//440 441//441
f 444//444 440//440 443//443
f 442//442 441//441 439//439
f 442//442 439//439 445//445
f 443//443 441//441 442//442
f 449//449 447//447 448//448
f 449//449 446//446 447//447
f 460//460 451//451 450//450
f 461//461 450//450 465//465
f 461//461 465//465 454//454
f 460//460 459//459 451//451
f 459//459 452//452 451//451
f 454//454 465//465 464//464
f 459//459 458//458 452//452
f 461//461 460//460 450//450
f 452//452 458//458 453//453
f 464//464 463//463 455//455
f 463//463 456//456 455//455
f 453//453 458//458 457//457
f 453//453 457//457 462//462
f 463//463 457//457 456//456
f 463//463 462//462 457//457
f 454//454 464//464 455//455
f 466//466 475//475 474//474
f 474//474 475//475 476//476
f 474//474 476//476 473//473
f 473//473 476//476 477//477
f 473//473 477//477 472//472
f 472//472 477//477 478//478
f 472//472 478//478 471//471
f 469//469 480//480 468//468
f 469//469 479//479 480//480
f 468//468 480//480 481//481
f 468//468 481//481 467//467
f 467//467 481//481 482//482
f 467//467 482//482 466//466
f 466//466 482//482 475//475
f 470//470 479//479 469//469
f 483//483 485//485 486//486
f 484//484 485//485 483//483
f 490//490 487//487 488//488
f 490//490 488//488 489//489
f 491//491 487//487 490//490
f 495//495 492//492 494//494
f 494//494 492//492 493//493
f 499//499 497//497 498//498
f 499//499 496//496 497//497
f 503//503 501//501 502//502
f 503//503 500//500 501//501
f 511//511 504//504 510//510
f 510//510 504//504 505//505
f 510//510 505//505 509//509
f 509//509 506//506 508//508
f 508//508 506//506 507//507
f 509//509 505//505 506//506
f 522//522 521//521 514//514
f 523//523 522//522 513//513
f 522//522 514//514 513//513
f 523//523 513//513 516//516
f 516//516 513//513 512//512
f 516//516 512//512 517//517
f 517//517 512//512 526//526
f 515//515 521//521 520//520
f 515//515 520//520 524//524
f 526//526 518//518 517//517
f 524//524 520//520 519//519
f 526//526 525//525 518//518
f 524//524 519//519 525//525
f 525//525 519//519 518//518
f 521//521 515//515 514//514
f 532//532 537//537 538//538
f 527//527 535//535 534//534
f 534//534 535//535 536//536
f 534//534 536//536 533//533
f 533//533 536//536 537//537
f 533//533 537//537 532//532
f 532//532 538//538 531//531
f 531//531 539//539 530//530
f 530//530 539//539 540//540
f 529//529 541//541 528//528
f 528//528 541//541 542//542
f 528//528 542//542 527//527
f 527//527 542//542 535//535
f 531//531 538//538 539//539
f 544//544 545//545 546//546
f 544//544 546//546 543//543
f 549//549 547//547 548//548
f 550//550 547//547 549//549
f 554//554 552//552 553//553
f 554//554 551//551 552//552
f 558//558 556//556 555//555
f 557//557 556//556 558//558
f 562//562 560//560 559//559
f 561//561 560//560 562//562
f 566//566 563//563 565//565
f 565//565 563//563 564//564
f 570//570 567//567 568//568
f 570//570 568//568 569//569
f 574//574 572//572 573//573
f 575//575 572//572 574//574
f 576//576 571//571 575//575
f 575//575 571//571 572//572
f 587//587 586//586 580//580
f 587//587 580//580 579//579
f 588//588 577//577 581//581
f 587//587 579//579 588//588
f 588//588 579//579 578//578
f 588//588 578//578 577//577
f 580//580 585//585 589//589
f 586//586 585//585 580//580
f 577//577 582//582 581//581
f 577//577 590//590 582//582
f 589//589 585//585 584//584
f 590//590 584//584 583//583
f 589//589 584//584 590//590
f 590//590 583//583 582//582
f 591//591 602//602 596//596
f 596//596 602//602 597//597
f 596//596 597//597 595//595
f 595//595 597//597 598//598
f 595//595 598//598 594//594
f 594//594 599//599 593//593
f 594//594 598//598 599//599
f 592//592 601//601 591//591
f 591//591 601//601 602//602
f 593//593 599//599 600//600
f 606//606 607//607 608//608
f 606//606 608//608 605//605
f 605//605 608//608 604//604
f 604//604 608//608 609//609
f 604//604 609//609 603//603
f 603//603 609//609 610//610
f 614//614 612//612 613//613
f 615//615 612//612 614//614
f 615//615 611//611 612//612
f 619//619 617//617 616//616
f 618//618 617//617 619//619
f 623//623 620//620 621//621
f 623//623 621//621 622//622
f 627//627 624//624 625//625
f 627//627 625//625 626//626
f 630//630 628//628 629//629
f 631//631 628//628 630//630
f 643//643 635//635 634//634
f 643//643 642//642 635//635
f 643//643 634//634 644//644
f 642//642 645//645 635//635
f 644//644 634//634 636//636
f 636//636 634//634 633//633
f 642//642 641//641 645//645
f 641//641 646//646 645//645
f 646//646 641//641 640//640
f 633//633 638//638 637//637
f 633//633 632//632 638//638
f 646//646 640//640 647//647
f 647//647 640//640 639//639
f 647//647 639//639 638//638
f 632//632 647//647 638//638
f 633//633 637//637 636//636
f 649//649 653//653 648//648
f 649//649 652//652 653//653
f 649//649 651//651 652//652
f 650//650 651//651 649//649
f 655//655 657//657 654//654
f 655//655 656//656 657//657
f 663//663 665//665 666//666
f 664//664 665//665 663//663
f 663//663 666//666 662//662
f 658//658 671//671 665//665
f 658//658 665//665 664//664
f 662//662 666//666 667//667
f 660//660 669//669 659//659
f 661//661 667//667 668//668
f 659//659 669//669 670//670
f 662//662 667//667 661//661
f 661//661 668//668 660//660
f 660//660 668//668 669//669
f 675//675 672//672 674//674
f 675//675 673//673 672//672
f 679//679 676//676 677//677
f 679//679 677//677 678//678
f 682//682 680//680 681//681
f 683//683 680//680 682//682
f 686//686 685//685 687//687
f 686//686 684//684 685//685
f 691//691 688//688 689//689
f 691//691 689//689 690//690
f 696//696 694//694 695//695
f 696//696 692//692 694//694
f 697//697 692//692 696//696
f 697//697 693//693 692//692
f 710//710 711//711 701//701
f 710//710 709//709 711//711
f 710//710 701//701 702//702
f 702//702 700//700 703//703
f 708//708 712//712 711//711
f 708//708 707//707 712//712
f 709//709 708//708 711//711
f 699//699 704//704 703//703
f 700//700 699//699 703//703
f 698//698 706//706 705//705
f 699//699 698//698 705//705
f 713//713 706//706 698//698
f 702//702 701//701 700//700
f 699//699 705//705 704//704
f 713//713 707//707 706//706
f 712//712 707//707 713//713
f 717//717 723//723 716//716
f 719//719 720//720 721//721
f 719//719 721//721 718//718
f 718//718 721//721 722//722
f 718//718 722//722 717//717
f 717//717 722//722 723//723
f 716//716 723//723 724//724
f 716//716 724//724 715//715
f 715//715 724//724 725//725
f 714//714 726//726 719//719
f 719//719 726//726 720//720
f 728//728 729//729 730//730
f 728//728 730//730 727//727
f 732//732 734//734 735//735
f 732//732 735//735 731//731
f 731//731 735//735 736//736
f 733//733 734//734 732//732
f 739//739 737//737 738//738
f 740//740 737//737 739//739
f 744//744 741//741 742//742
f 745//745 741//741 744//744
f 745//745 743//743 741//741
f 746//746 743//743 745//745
f 750//750 747//747 749//749
f 749//749 747//747 748//748
f 754//754 752//752 753//753
f 754//754 751//751 752//752
f 758//758 756//756 757//757
f 758//758 755//755 756//756
f 759//759 755//755 758//758
f 770//770 773//773 772//772
f 770//770 772//772 771//771
f 770//770 769//769 773//773
f 765//765 772//772 764//764
f 769//769 760//760 773//773
f 769//769 768//768 760//760
f 771//771 772//772 765//765
f 763//763 766//766 765//765
f 760//760 768//768 767//767
f 760//760 767//767 761//761
f 763//763 762//762 766//766
f 761//761 767//767 762//762
f 762//762 767//767 766//766
f 764//764 763//763 765//765
f 778//778 782//782 779//779
f 776//776 780//780 775//775
f 775//775 780//780 781//781
f 775//775 781//781 774//774
f 774//774 782//782 778//778
f 778//778 779//779 777//777
f 774//774 781//781 782//782
f 783//783 785//785 786//786
f 784//784 785//785 783//783
f 788//788 790//790 787//787
f 788//788 789//789 790//790
f 794//794 796//796 793//793
f 792//792 797//797 791//791
f 793//793 796//796 792//792
f 792//792 796//796 797//797
f 794//794 795//795 796//796
f 800//800 799//799 798//798
f 801//801 799//799 800//800
f 805//805 803//803 804//804
f 805//805 802//802 803//803
f 809//809 807//807 806//806
f 808//808 807//807 809//809
f 820//820 812//812 813//813
f 821//821 812//812 820//820
f 821//821 811//811 812//812
f 822//822 810//810 811//811
f 822//822 811//811 821//821
f 823//823 810//810 822//822
f 818//818 814//814 815//815
f 818//818 815//815 817//817
f 817//817 815//815 816//816
f 817//817 816//816 823//823
f 823//823 816//816 810//810
f 820//820 813//813 819//819
f 827//827 825//825 826//826
f 827//827 824//824 825//825
f 839//839 838//838 842//842
f 839//839 842//842 841//841
f 838//838 837//837 828//828
f 838//838 828//828 842//842
f 839//839 840//840 832//832
f 831//831 834//834 833//833
f 831//831 830//830 834//834
f 829//829 835//835 834//834
f 829//829 834//834 830//830
f 839//839 841//841 840//840
f 829//829 836//836 835//835
f 828//828 836//836 829//829
f 840//840 831//831 833//833
f 840//840 833//833 832//832
f 837//837 836//836 828//828
f 846//846 850//850 845//845
f 846//846 849//849 850//850
f 845//845 851//851 844//844
f 847//847 848//848 846//846
f 844//844 851//851 852//852
f 844//844 852//852 843//843
f 845//845 850//850 851//851
f 846//846 848//848 849//849
f 854//854 856//856 853//853
f 854//854 855//855 856//856
f 858//858 860//860 857//857
f 858//858 859//859 860//860
f 862//862 863//863 861//861
f 861//861 863//863 864//864
f 866//866 868//868 867//867
f 865//865 868//868 866//866
f 873//873 870//870 872//872
f 872//872 870//870 871//871
f 872//872 871//871 874//874
f 874//874 871//871 869//869
f 878//878 875//875 876//876
f 878//878 876//876 877//877
f 882//882 880//880 881//881
f 883//883 879//879 880//880
f 883//883 880//880 882//882
f 895//895 894//894 884//884
f 895//895 884//884 898//898
f 895//895 898//898 887//887
f 887//887 898//898 897//897
f 894//894 893//893 884//884
f 893//893 885//885 884//884
f 887//887 897//897 888//888
f 885//885 892//892 886//886
f 885//885 893//893 892//892
f 896//896 889//889 888//888
f 886//886 892//892 891//891
f 896//896 890//890 889//889
f 896//896 886//886 890//890
f 886//886 891//891 890//890
f 897//897 896//896 888//888
f 899//899 904//904 902//902
f 900//900 904//904 899//899
f 899//899 902//902 901//901
f 901//901 902//902 903//903
f 909//909 912//912 913//913
f 910//910 912//912 909//909
f 909//909 913//913 908//908
f 910//910 911//911 912//912
f 908//908 914//914 907//907
f 907//907 914//914 915//915
f 907//907 915//915 906//906
f 906//906 915//915 916//916
f 906//906 916//916 905//905
f 905//905 916//916 917//917
f 908//908 913//913 914//914
f 919//919 920//920 921//921
f 919//919 921//921 918//918
f 925//925 923//923 924//924
f 925//925 922//922 923//923
f 929//929 927//927 928//928
f 929//929 926//926 927//927
f 944//944 935//935 936//936
f 945//945 935//935 944//944
f 944//944 937//937 943//943
f 943//943 937//937 938//938
f 943//943 938//938 942//942
f 942//942 938//938 939//939
f 942//942 939//939 941//941
f 941//941 939//939 940//940
f 941//941 940//940 930//930
f 941//941 930//930 950//950
f 944//944 936//936 937//937
f 949//949 930//930 931//931
f 946//946 934//934 945//945
f 946//946 933//933 934//934
f 947//947 933//933 946//946
f 945//945 934//934 935//935
f 948//948 932//932 947//947
f 948//948 931//931 932//932
f 949//949 931//931 948//948
f 947//947 932//932 933//933
f 950//950 930//930 949//949
f 952//952 954//954 953//953
f 951//951 954//954 952//952
f 955//955 957//957 958//958
f 956//956 957//957 955//955
f 959//959 961//961 962//962
f 960//960 961//961 959//959
f 964//964 965//965 966//966
f 964//964 966//966 963//963
f 969//969 970//970 968//968
f 968//968 971//971 967//967
f 968//968 970//970 971//971
f 973//973 975//975 972//972
f 973//973 974//974 975//975
f 977//977 978//978 979//979
f 977//977 979//979 976//976
f 982//982 980//980 981//981
f 983//983 980//980 982//982
f 986//986 984//984 985//985
f 987//987 984//984 986//986
f 990//990 988//988 989//989
f 991//991 988//988 990//990
f 995//995 993//993 994//994
f 995//995 992//992 993//993
f 998//998 996//996 1000//1000
f 998//998 997//997 996//996
f 999//999 997//997 998//998
f 1004//1004 1002//1002 1003//1003
f 1004//1004 1001//1001 1002//1002
f 1008//1008 1006//1006 1007//1007
f 1008//1008 1005//1005 1006//1006
f 1011//1011 1009//1009 1010//1010
f 1013//1013 1014//1014 1012//1012
f 1017//1017 1015//1015 1016//1016
f 1019//1019 1020//1020 1018//1018
f 1023//1023 1021//1021 1022//1022
f 1025//1025 1026//1026 1024//1024
f 1029//1029 1027//1027 1028//1028
f 1031//1031 1032//1032 1030//1030
f 1035//1035 1033//1033 1034//1034
f 1037//1037 1038//1038 1036//1036
f 1040//1040 1041//1041 1039//1039
f 1044//1044 1042//1042 1043//1043
f 1046//1046 1047//1047 1045//1045
f 1050//1050 1048//1048 1049//1049
f 1052//1052 1053//1053 1051//1051
f 1056//1056 1054//1054 1055//1055
f 1058//1058 1059//1059 1057//1057
f 1062//1062 1060//1060 1061//1061
f 1064//1064 1065//1065 1063//1063
f 1068//1068 1066//1066 1067//1067
f 1070//1070 1071//1071 1069//1069
