# OMX visual mesh; coordinates in metres
mtllib materials.mtl
usemtl bic30_rev02_gerber_top
v 0.0439047 0.0117411 -0.0106100
v 0.0760953 0.0117411 -0.0106100
v 0.0786942 0.0095308 -0.0106100
v 0.0780379 0.0107111 -0.0106100
v 0.0771438 0.0114382 -0.0106100
v 0.0760953 -0.0117411 -0.0106100
v 0.0771438 -0.0114382 -0.0106100
v 0.0780379 -0.0107111 -0.0106100
v 0.0786942 -0.0095308 -0.0106100
v 0.0439047 -0.0117411 -0.0106100
v 0.0412663 -0.0092004 -0.0106100
v 0.0415748 -0.0101370 -0.0106100
v 0.0421981 -0.0109659 -0.0106100
v 0.0430722 -0.0115237 -0.0106100
v 0.0430722 0.0115237 -0.0106100
v 0.0421981 0.0109659 -0.0106100
v 0.0415748 0.0101370 -0.0106100
v 0.0412663 0.0092004 -0.0106100
v 0.0751505 0.0077868 -0.0106100
v 0.0746537 0.0085063 -0.0106100
v 0.0747467 0.0092437 -0.0106100
v 0.0753526 0.0098127 -0.0106100
v 0.0760973 0.0098044 -0.0106100
v 0.0766399 0.0094352 -0.0106100
v 0.0768711 0.0086831 -0.0106100
v 0.0765520 0.0079638 -0.0106100
v 0.0759264 0.0076502 -0.0106100
v 0.0751505 -0.0097132 -0.0106100
v 0.0746537 -0.0089937 -0.0106100
v 0.0747467 -0.0082563 -0.0106100
v 0.0751282 -0.0078342 -0.0106100
v 0.0756611 -0.0076353 -0.0106100
v 0.0763408 -0.0078006 -0.0106100
v 0.0767230 -0.0082221 -0.0106100
v 0.0768711 -0.0088169 -0.0106100
v 0.0765520 -0.0095362 -0.0106100
v 0.0759264 -0.0098498 -0.0106100
v 0.0727250 -0.0016750 -0.0106100
v 0.0727250 -0.0033250 -0.0106100
v 0.0710750 -0.0016750 -0.0106100
v 0.0710750 -0.0033250 -0.0106100
v 0.0715765 0.0017298 -0.0106100
v 0.0712183 0.0020171 -0.0106100
v 0.0710615 0.0024833 -0.0106100
v 0.0711703 0.0028959 -0.0106100
v 0.0715113 0.0032519 -0.0106100
v 0.0720650 0.0033189 -0.0106100
v 0.0725244 0.0030653 -0.0106100
v 0.0727516 0.0024151 -0.0106100
v 0.0724482 0.0018696 -0.0106100
v 0.0720323 0.0016752 -0.0106100
v 0.0714549 -0.0007151 -0.0106100
v 0.0710578 -0.0001523 -0.0106100
v 0.0711703 0.0003959 -0.0106100
v 0.0715113 0.0007519 -0.0106100
v 0.0720650 0.0008189 -0.0106100
v 0.0725244 0.0005653 -0.0106100
v 0.0727516 -0.0000849 -0.0106100
v 0.0723755 -0.0007002 -0.0106100
v 0.0719000 -0.0008302 -0.0106100
v 0.0692500 0.0032000 -0.0106100
v 0.0692500 -0.0002000 -0.0106100
v 0.0668500 0.0032000 -0.0106100
v 0.0668500 -0.0002000 -0.0106100
v 0.0666750 -0.0037873 -0.0106100
v 0.0679669 -0.0036306 -0.0106100
v 0.0678347 -0.0037845 -0.0106100
v 0.0678640 -0.0026505 -0.0106100
v 0.0679717 -0.0028233 -0.0106100
v 0.0665377 -0.0027750 -0.0106100
v 0.0666847 -0.0026353 -0.0106100
v 0.0665353 -0.0036403 -0.0106100
v 0.0666847 -0.0058647 -0.0106100
v 0.0679717 -0.0056767 -0.0106100
v 0.0678640 -0.0058495 -0.0106100
v 0.0678347 -0.0047154 -0.0106100
v 0.0679669 -0.0048694 -0.0106100
v 0.0665353 -0.0048597 -0.0106100
v 0.0666750 -0.0047127 -0.0106100
v 0.0665377 -0.0057250 -0.0106100
v 0.0646750 -0.0037873 -0.0106100
v 0.0659669 -0.0036305 -0.0106100
v 0.0658348 -0.0037845 -0.0106100
v 0.0658348 -0.0026404 -0.0106100
v 0.0659669 -0.0027945 -0.0106100
v 0.0645353 -0.0027847 -0.0106100
v 0.0646750 -0.0026377 -0.0106100
v 0.0645353 -0.0036402 -0.0106100
v 0.0646750 -0.0058623 -0.0106100
v 0.0659669 -0.0057055 -0.0106100
v 0.0658348 -0.0058595 -0.0106100
v 0.0658348 -0.0047154 -0.0106100
v 0.0659669 -0.0048694 -0.0106100
v 0.0645353 -0.0048598 -0.0106100
v 0.0646750 -0.0047127 -0.0106100
v 0.0645353 -0.0057152 -0.0106100
v 0.0634500 0.0032000 -0.0106100
v 0.0634500 -0.0002000 -0.0106100
v 0.0610500 0.0032000 -0.0106100
v 0.0610500 -0.0002000 -0.0106100
v 0.0589646 0.0042746 -0.0106100
v 0.0595354 0.0042746 -0.0106100
v 0.0595354 0.0049204 -0.0106100
v 0.0589646 0.0049204 -0.0106100
v 0.0589646 0.0030796 -0.0106100
v 0.0595354 0.0030796 -0.0106100
v 0.0595354 0.0037254 -0.0106100
v 0.0589646 0.0037254 -0.0106100
v 0.0585500 0.0018750 -0.0106100
v 0.0585500 0.0016250 -0.0106100
v 0.0579500 0.0018750 -0.0106100
v 0.0579500 0.0016250 -0.0106100
v 0.0585500 0.0013750 -0.0106100
v 0.0585500 0.0011250 -0.0106100
v 0.0579500 0.0013750 -0.0106100
v 0.0579500 0.0011250 -0.0106100
v 0.0585500 0.0008750 -0.0106100
v 0.0585500 0.0006250 -0.0106100
v 0.0579500 0.0008750 -0.0106100
v 0.0579500 0.0006250 -0.0106100
v 0.0585500 0.0003750 -0.0106100
v 0.0585500 0.0001250 -0.0106100
v 0.0579500 0.0003750 -0.0106100
v 0.0579500 0.0001250 -0.0106100
v 0.0577746 0.0032146 -0.0106100
v 0.0584204 0.0032146 -0.0106100
v 0.0584204 0.0037854 -0.0106100
v 0.0577746 0.0037854 -0.0106100
v 0.0577335 -0.0015265 -0.0106100
v 0.0584015 -0.0015265 -0.0106100
v 0.0584015 -0.0009735 -0.0106100
v 0.0577335 -0.0009735 -0.0106100
v 0.0577335 -0.0025265 -0.0106127
v 0.0584015 -0.0025265 -0.0106100
v 0.0584015 -0.0019735 -0.0106100
v 0.0577335 -0.0019735 -0.0106100
v 0.0577146 0.0055246 -0.0106100
v 0.0582854 0.0055246 -0.0106100
v 0.0582854 0.0061704 -0.0106100
v 0.0577146 0.0061704 -0.0106099
v 0.0577146 0.0043296 -0.0106100
v 0.0582854 0.0043296 -0.0106100
v 0.0582854 0.0049754 -0.0106100
v 0.0577146 0.0049754 -0.0106100
v 0.0567235 0.0054835 -0.0106100
v 0.0572765 0.0054835 -0.0106100
v 0.0572765 0.0061515 -0.0106114
v 0.0567235 0.0061515 -0.0106099
v 0.0567235 0.0043485 -0.0106100
v 0.0572765 0.0043485 -0.0106100
v 0.0572765 0.0050165 -0.0106100
v 0.0567235 0.0050165 -0.0106100
v 0.0565985 -0.0015265 -0.0106100
v 0.0572665 -0.0015265 -0.0106100
v 0.0572665 -0.0009735 -0.0106100
v 0.0565985 -0.0009735 -0.0106100
v 0.0565985 -0.0025265 -0.0106100
v 0.0572665 -0.0025265 -0.0106097
v 0.0572665 -0.0019735 -0.0106100
v 0.0565985 -0.0019735 -0.0106100
v 0.0565796 0.0032146 -0.0106100
v 0.0572254 0.0032146 -0.0106100
v 0.0572254 0.0037854 -0.0106100
v 0.0565796 0.0037854 -0.0106100
v 0.0571500 0.0018750 -0.0106100
v 0.0571500 0.0016250 -0.0106100
v 0.0565500 0.0018750 -0.0106100
v 0.0565500 0.0016250 -0.0106100
v 0.0571500 0.0013750 -0.0106100
v 0.0571500 0.0011250 -0.0106100
v 0.0565500 0.0013750 -0.0106100
v 0.0565500 0.0011250 -0.0106100
v 0.0571500 0.0008750 -0.0106100
v 0.0571500 0.0006250 -0.0106100
v 0.0565500 0.0008750 -0.0106100
v 0.0565500 0.0006250 -0.0106100
v 0.0571500 0.0003750 -0.0106100
v 0.0571500 0.0001250 -0.0106100
v 0.0565500 0.0003750 -0.0106100
v 0.0565500 0.0001250 -0.0106100
v 0.0555246 0.0032146 -0.0106100
v 0.0561704 0.0032146 -0.0106100
v 0.0561704 0.0037854 -0.0106100
v 0.0555246 0.0037854 -0.0106101
v 0.0543296 0.0032146 -0.0106100
v 0.0549754 0.0032146 -0.0106100
v 0.0549754 0.0037854 -0.0106101
v 0.0543296 0.0037854 -0.0106100
v 0.0542146 0.0020246 -0.0106100
v 0.0547854 0.0020246 -0.0106100
v 0.0547854 0.0026704 -0.0106100
v 0.0542146 0.0026704 -0.0106100
v 0.0542146 0.0008296 -0.0106100
v 0.0547854 0.0008296 -0.0106100
v 0.0547854 0.0014754 -0.0106100
v 0.0542146 0.0014754 -0.0106100
v 0.0542146 -0.0002254 -0.0106100
v 0.0547854 -0.0002254 -0.0106100
v 0.0547854 0.0004204 -0.0106100
v 0.0542146 0.0004204 -0.0106100
v 0.0542146 -0.0014204 -0.0106100
v 0.0547854 -0.0014204 -0.0106100
v 0.0547854 -0.0007746 -0.0106100
v 0.0542146 -0.0007746 -0.0106100
v 0.0523263 0.0011264 -0.0106100
v 0.0531737 0.0011264 -0.0106100
v 0.0530457 0.0021456 -0.0106100
v 0.0532043 0.0020353 -0.0106100
v 0.0522957 0.0020353 -0.0106100
v 0.0524543 0.0021456 -0.0106100
v 0.0524543 -0.0006456 -0.0106100
v 0.0531737 -0.0005987 -0.0106100
v 0.0531737 0.0003737 -0.0106100
v 0.0523263 0.0003737 -0.0106100
v 0.0522957 -0.0005353 -0.0106100
v 0.0503958 0.0012218 -0.0106100
v 0.0517065 0.0013305 -0.0106100
v 0.0515459 0.0012062 -0.0106100
v 0.0515945 0.0023565 -0.0106100
v 0.0517188 0.0021959 -0.0106100
v 0.0502831 0.0022056 -0.0106100
v 0.0504152 0.0023596 -0.0106100
v 0.0502796 0.0013887 -0.0106100
v 0.0504152 -0.0008595 -0.0106100
v 0.0517188 -0.0006959 -0.0106100
v 0.0515945 -0.0008565 -0.0106100
v 0.0515459 0.0002938 -0.0106100
v 0.0517065 0.0001695 -0.0106100
v 0.0502796 0.0001113 -0.0106100
v 0.0503958 0.0002782 -0.0106100
v 0.0502831 -0.0007056 -0.0106100
v 0.0489250 0.0033250 -0.0106100
v 0.0489250 0.0016750 -0.0106100
v 0.0472750 0.0033250 -0.0106100
v 0.0472750 0.0016750 -0.0106100
v 0.0477163 -0.0007420 -0.0106100
v 0.0473629 -0.0003999 -0.0106100
v 0.0472689 0.0000496 -0.0106100
v 0.0474504 0.0005426 -0.0106100
v 0.0479350 0.0008189 -0.0106100
v 0.0484887 0.0007519 -0.0106100
v 0.0488298 0.0003959 -0.0106100
v 0.0489422 -0.0000840 -0.0106100
v 0.0486966 -0.0005848 -0.0106100
v 0.0482334 -0.0008317 -0.0106100
v 0.0478648 -0.0033229 -0.0106100
v 0.0473629 -0.0028999 -0.0106100
v 0.0472689 -0.0024504 -0.0106100
v 0.0474504 -0.0019574 -0.0106100
v 0.0479350 -0.0016811 -0.0106100
v 0.0484887 -0.0017481 -0.0106100
v 0.0489354 -0.0023143 -0.0106100
v 0.0488318 -0.0028970 -0.0106100
v 0.0485145 -0.0032290 -0.0106100
v 0.0440292 0.0076538 -0.0106100
v 0.0434888 0.0079420 -0.0106100
v 0.0431853 0.0084227 -0.0106100
v 0.0432010 0.0091663 -0.0106100
v 0.0437742 0.0097673 -0.0106100
v 0.0444258 0.0098461 -0.0106100
v 0.0449838 0.0095937 -0.0106100
v 0.0453269 0.0090347 -0.0106100
v 0.0453147 0.0084227 -0.0106100
v 0.0448495 0.0077868 -0.0106100
v 0.0439868 -0.0098323 -0.0106100
v 0.0434888 -0.0095580 -0.0106100
v 0.0431853 -0.0090773 -0.0106100
v 0.0432010 -0.0083337 -0.0106100
v 0.0437742 -0.0077327 -0.0106100
v 0.0444258 -0.0076539 -0.0106100
v 0.0449838 -0.0079063 -0.0106100
v 0.0453269 -0.0084653 -0.0106100
v 0.0453147 -0.0090773 -0.0106100
v 0.0449809 -0.0095905 -0.0106100
v 0.0445116 -0.0098256 -0.0106100
v 0.0439047 0.0117411 -0.0106000
v 0.0760953 0.0117411 -0.0106000
v 0.0786942 0.0095308 -0.0106000
v 0.0780379 0.0107111 -0.0106000
v 0.0771438 0.0114382 -0.0106000
v 0.0760953 -0.0117411 -0.0106000
v 0.0771438 -0.0114382 -0.0106000
v 0.0780379 -0.0107111 -0.0106000
v 0.0786942 -0.0095308 -0.0106000
v 0.0439047 -0.0117411 -0.0106000
v 0.0412663 -0.0092004 -0.0106000
v 0.0415748 -0.0101370 -0.0106000
v 0.0421981 -0.0109659 -0.0106000
v 0.0430722 -0.0115237 -0.0106000
v 0.0430722 0.0115237 -0.0106000
v 0.0421981 0.0109659 -0.0106000
v 0.0415748 0.0101370 -0.0106000
v 0.0412663 0.0092004 -0.0106000
v 0.0751505 0.0077868 -0.0106000
v 0.0746537 0.0085063 -0.0106000
v 0.0747467 0.0092437 -0.0106000
v 0.0753526 0.0098127 -0.0106000
v 0.0760973 0.0098044 -0.0106000
v 0.0766399 0.0094352 -0.0106000
v 0.0768711 0.0086831 -0.0106000
v 0.0765520 0.0079638 -0.0106000
v 0.0759264 0.0076502 -0.0106000
v 0.0751505 -0.0097132 -0.0106000
v 0.0746537 -0.0089937 -0.0106000
v 0.0747467 -0.0082563 -0.0106000
v 0.0751282 -0.0078342 -0.0106000
v 0.0756611 -0.0076354 -0.0106000
v 0.0763408 -0.0078007 -0.0106000
v 0.0767230 -0.0082221 -0.0106000
v 0.0768711 -0.0088169 -0.0106000
v 0.0765520 -0.0095362 -0.0106000
v 0.0759264 -0.0098498 -0.0106000
v 0.0727250 -0.0016750 -0.0106000
v 0.0727250 -0.0033250 -0.0106000
v 0.0710750 -0.0016750 -0.0106000
v 0.0710750 -0.0033250 -0.0106000
v 0.0715765 0.0017298 -0.0106000
v 0.0712183 0.0020171 -0.0106000
v 0.0710615 0.0024833 -0.0106000
v 0.0711703 0.0028959 -0.0106000
v 0.0715113 0.0032519 -0.0106000
v 0.0720650 0.0033189 -0.0106000
v 0.0725244 0.0030653 -0.0106000
v 0.0727516 0.0024151 -0.0106000
v 0.0724482 0.0018696 -0.0106000
v 0.0720323 0.0016752 -0.0106000
v 0.0714549 -0.0007151 -0.0106000
v 0.0710578 -0.0001523 -0.0106000
v 0.0711703 0.0003959 -0.0106000
v 0.0715113 0.0007519 -0.0106000
v 0.0720650 0.0008189 -0.0106000
v 0.0725244 0.0005653 -0.0106000
v 0.0727516 -0.0000849 -0.0106000
v 0.0723755 -0.0007002 -0.0106000
v 0.0719000 -0.0008302 -0.0106000
v 0.0692500 0.0032000 -0.0106000
v 0.0692500 -0.0002000 -0.0106000
v 0.0668500 0.0032000 -0.0106000
v 0.0668500 -0.0002000 -0.0106000
v 0.0666750 -0.0037873 -0.0106000
v 0.0679669 -0.0036306 -0.0106000
v 0.0678347 -0.0037846 -0.0106000
v 0.0678640 -0.0026505 -0.0106000
v 0.0679717 -0.0028233 -0.0106000
v 0.0665377 -0.0027750 -0.0106000
v 0.0666847 -0.0026353 -0.0106000
v 0.0665353 -0.0036403 -0.0106000
v 0.0666847 -0.0058647 -0.0106000
v 0.0679717 -0.0056767 -0.0106000
v 0.0678640 -0.0058495 -0.0106000
v 0.0678347 -0.0047154 -0.0106000
v 0.0679669 -0.0048694 -0.0106000
v 0.0665353 -0.0048597 -0.0106000
v 0.0666750 -0.0047127 -0.0106000
v 0.0665377 -0.0057250 -0.0106000
v 0.0646750 -0.0037873 -0.0106000
v 0.0659669 -0.0036305 -0.0106000
v 0.0658348 -0.0037845 -0.0106000
v 0.0658348 -0.0026405 -0.0106000
v 0.0659669 -0.0027945 -0.0106000
v 0.0645353 -0.0027847 -0.0106000
v 0.0646750 -0.0026377 -0.0106000
v 0.0645353 -0.0036402 -0.0106000
v 0.0646750 -0.0058623 -0.0106000
v 0.0659669 -0.0057055 -0.0106000
v 0.0658348 -0.0058595 -0.0106000
v 0.0658348 -0.0047154 -0.0106000
v 0.0659669 -0.0048695 -0.0106000
v 0.0645353 -0.0048598 -0.0106000
v 0.0646750 -0.0047127 -0.0106000
v 0.0645353 -0.0057152 -0.0106000
v 0.0634500 0.0032000 -0.0106000
v 0.0634500 -0.0002000 -0.0106000
v 0.0610500 0.0032000 -0.0106000
v 0.0610500 -0.0002000 -0.0106000
v 0.0589646 0.0042746 -0.0106000
v 0.0595354 0.0042746 -0.0106000
v 0.0595354 0.0049204 -0.0106000
v 0.0589646 0.0049204 -0.0106000
v 0.0589646 0.0030796 -0.0106000
v 0.0595354 0.0030796 -0.0106000
v 0.0595354 0.0037254 -0.0106000
v 0.0589646 0.0037254 -0.0106000
v 0.0585500 0.0018750 -0.0106000
v 0.0585500 0.0016250 -0.0106000
v 0.0579500 0.0018750 -0.0106000
v 0.0579500 0.0016250 -0.0106000
v 0.0585500 0.0013750 -0.0106000
v 0.0585500 0.0011250 -0.0106000
v 0.0579500 0.0013750 -0.0106000
v 0.0579500 0.0011250 -0.0106000
v 0.0585500 0.0008750 -0.0106000
v 0.0585500 0.0006250 -0.0106000
v 0.0579500 0.0008750 -0.0106000
v 0.0579500 0.0006250 -0.0106000
v 0.0585500 0.0003750 -0.0106000
v 0.0585500 0.0001250 -0.0106000
v 0.0579500 0.0003750 -0.0106000
v 0.0579500 0.0001250 -0.0106000
v 0.0577746 0.0032146 -0.0106000
v 0.0584204 0.0032146 -0.0106000
v 0.0584204 0.0037854 -0.0106000
v 0.0577746 0.0037854 -0.0106000
v 0.0577335 -0.0015265 -0.0106000
v 0.0584015 -0.0015265 -0.0106000
v 0.0584015 -0.0009735 -0.0106000
v 0.0577335 -0.0009735 -0.0106000
v 0.0577335 -0.0025265 -0.0106027
v 0.0584015 -0.0025265 -0.0106000
v 0.0584015 -0.0019735 -0.0106000
v 0.0577335 -0.0019735 -0.0106000
v 0.0577146 0.0055246 -0.0106000
v 0.0582854 0.0055246 -0.0106000
v 0.0582854 0.0061704 -0.0106000
v 0.0577146 0.0061704 -0.0105999
v 0.0577146 0.0043296 -0.0106000
v 0.0582854 0.0043296 -0.0106000
v 0.0582854 0.0049754 -0.0106000
v 0.0577146 0.0049754 -0.0106000
v 0.0567235 0.0054835 -0.0106000
v 0.0572765 0.0054835 -0.0106000
v 0.0572765 0.0061515 -0.0106014
v 0.0567235 0.0061515 -0.0105999
v 0.0567235 0.0043485 -0.0106000
v 0.0572765 0.0043485 -0.0106000
v 0.0572765 0.0050165 -0.0106000
v 0.0567235 0.0050165 -0.0106000
v 0.0565985 -0.0015265 -0.0106000
v 0.0572665 -0.0015265 -0.0106000
v 0.0572665 -0.0009735 -0.0106000
v 0.0565985 -0.0009735 -0.0106000
v 0.0565985 -0.0025265 -0.0106000
v 0.0572665 -0.0025265 -0.0105997
v 0.0572665 -0.0019735 -0.0106000
v 0.0565985 -0.0019735 -0.0106000
v 0.0565796 0.0032146 -0.0106000
v 0.0572254 0.0032146 -0.0106000
v 0.0572254 0.0037854 -0.0106000
v 0.0565796 0.0037854 -0.0106000
v 0.0571500 0.0018750 -0.0106000
v 0.0571500 0.0016250 -0.0106000
v 0.0565500 0.0018750 -0.0106000
v 0.0565500 0.0016250 -0.0106000
v 0.0571500 0.0013750 -0.0106000
v 0.0571500 0.0011250 -0.0106000
v 0.0565500 0.0013750 -0.0106000
v 0.0565500 0.0011250 -0.0106000
v 0.0571500 0.0008750 -0.0106000
v 0.0571500 0.0006250 -0.0106000
v 0.0565500 0.0008750 -0.0106000
v 0.0565500 0.0006250 -0.0106000
v 0.0571500 0.0003750 -0.0106000
v 0.0571500 0.0001250 -0.0106000
v 0.0565500 0.0003750 -0.0106000
v 0.0565500 0.0001250 -0.0106000
v 0.0555246 0.0032146 -0.0106000
v 0.0561704 0.0032146 -0.0106000
v 0.0561704 0.0037854 -0.0106000
v 0.0555246 0.0037854 -0.0106001
v 0.0543296 0.0032146 -0.0106000
v 0.0549754 0.0032146 -0.0106000
v 0.0549754 0.0037854 -0.0106001
v 0.0543296 0.0037854 -0.0106000
v 0.0542146 0.0020246 -0.0106000
v 0.0547854 0.0020246 -0.0106000
v 0.0547854 0.0026704 -0.0106000
v 0.0542146 0.0026704 -0.0106000
v 0.0542146 0.0008296 -0.0106000
v 0.0547854 0.0008296 -0.0106000
v 0.0547854 0.0014754 -0.0106000
v 0.0542146 0.0014754 -0.0106000
v 0.0542146 -0.0002254 -0.0106000
v 0.0547854 -0.0002254 -0.0106000
v 0.0547854 0.0004204 -0.0106000
v 0.0542146 0.0004204 -0.0106000
v 0.0542146 -0.0014204 -0.0106000
v 0.0547854 -0.0014204 -0.0106000
v 0.0547854 -0.0007746 -0.0106000
v 0.0542146 -0.0007746 -0.0106000
v 0.0523263 0.0011263 -0.0106000
v 0.0531737 0.0011263 -0.0106000
v 0.0530457 0.0021456 -0.0106000
v 0.0532043 0.0020353 -0.0106000
v 0.0522957 0.0020353 -0.0106000
v 0.0524543 0.0021456 -0.0106000
v 0.0524543 -0.0006456 -0.0106000
v 0.0531737 -0.0005987 -0.0106000
v 0.0531737 0.0003737 -0.0106000
v 0.0523263 0.0003737 -0.0106000
v 0.0522957 -0.0005353 -0.0106000
v 0.0503958 0.0012218 -0.0106000
v 0.0517065 0.0013305 -0.0106000
v 0.0515459 0.0012062 -0.0106000
v 0.0515945 0.0023565 -0.0106000
v 0.0517188 0.0021959 -0.0106000
v 0.0502831 0.0022056 -0.0106000
v 0.0504152 0.0023596 -0.0106000
v 0.0502796 0.0013887 -0.0106000
v 0.0504152 -0.0008595 -0.0106000
v 0.0517188 -0.0006959 -0.0106000
v 0.0515945 -0.0008565 -0.0106000
v 0.0515459 0.0002938 -0.0106000
v 0.0517065 0.0001695 -0.0106000
v 0.0502796 0.0001113 -0.0106000
v 0.0503958 0.0002782 -0.0106000
v 0.0502831 -0.0007056 -0.0106000
v 0.0489250 0.0033250 -0.0106000
v 0.0489250 0.0016750 -0.0106000
v 0.0472750 0.0033250 -0.0106000
v 0.0472750 0.0016750 -0.0106000
v 0.0477163 -0.0007420 -0.0106000
v 0.0473629 -0.0003999 -0.0106000
v 0.0472689 0.0000496 -0.0106000
v 0.0474504 0.0005426 -0.0106000
v 0.0479350 0.0008189 -0.0106000
v 0.0484887 0.0007519 -0.0106000
v 0.0488298 0.0003959 -0.0106000
v 0.0489422 -0.0000840 -0.0106000
v 0.0486966 -0.0005848 -0.0106000
v 0.0482334 -0.0008317 -0.0106000
v 0.0478648 -0.0033229 -0.0106000
v 0.0473629 -0.0028999 -0.0106000
v 0.0472689 -0.0024504 -0.0106000
v 0.0474504 -0.0019574 -0.0106000
v 0.0479350 -0.0016811 -0.0106000
v 0.0484887 -0.0017481 -0.0106000
v 0.0489354 -0.0023143 -0.0106000
v 0.0488318 -0.0028970 -0.0106000
v 0.0485145 -0.0032290 -0.0106000
v 0.0440292 0.0076538 -0.0106000
v 0.0434888 0.0079420 -0.0106000
v 0.0431853 0.0084227 -0.0106000
v 0.0432010 0.0091663 -0.0106000
v 0.0437742 0.0097673 -0.0106000
v 0.0444258 0.0098461 -0.0106000
v 0.0449838 0.0095937 -0.0106000
v 0.0453269 0.0090347 -0.0106000
v 0.0453147 0.0084227 -0.0106000
v 0.0448495 0.0077868 -0.0106000
v 0.0439868 -0.0098323 -0.0106000
v 0.0434888 -0.0095580 -0.0106000
v 0.0431853 -0.0090773 -0.0106000
v 0.0432010 -0.0083337 -0.0106000
v 0.0437742 -0.0077327 -0.0106000
v 0.0444258 -0.0076539 -0.0106000
v 0.0449838 -0.0079063 -0.0106000
v 0.0453269 -0.0084653 -0.0106000
v 0.0453147 -0.0090773 -0.0106000
v 0.0449809 -0.0095905 -0.0106000
v 0.0445116 -0.0098256 -0.0106000
vn -0.093468 0.727798 -0.679392
vn 0.103174 0.728945 -0.676752
vn 0.731673 0.189778 -0.654705
vn 0.571033 0.478810 -0.666830
vn 0.346288 0.661971 -0.664740
vn 0.103146 -0.728708 -0.677012
vn 0.346218 -0.661772 -0.664975
vn 0.570949 -0.478674 -0.667000
vn 0.731638 -0.189682 -0.654772
vn -0.093449 -0.727555 -0.679655
vn -0.730179 -0.117120 -0.673143
vn -0.656107 -0.342771 -0.672333
vn -0.504883 -0.545182 -0.669231
vn -0.295718 -0.677142 -0.673817
vn -0.295781 0.677353 -0.673578
vn -0.504970 0.545338 -0.669038
vn -0.656182 0.342867 -0.672211
vn -0.730208 0.117178 -0.673102
vn 0.320374 0.499333 -0.805001
vn 0.586913 0.143195 -0.796886
vn 0.544053 -0.277204 -0.791937
vn 0.216973 -0.557073 -0.801618
vn -0.188092 -0.598913 -0.778411
vn -0.493485 -0.364218 -0.789821
vn -0.605446 0.036114 -0.795067
vn -0.442285 0.421884 -0.791453
vn -0.089635 0.613004 -0.784979
vn 0.320374 0.499333 -0.805001
vn 0.586912 0.143196 -0.796887
vn 0.567242 -0.260343 -0.781318
vn 0.362003 -0.533152 -0.764658
vn 0.037112 -0.625165 -0.779610
vn -0.320060 -0.538324 -0.779595
vn -0.566738 -0.302517 -0.766349
vn -0.613355 0.053304 -0.788007
vn -0.442285 0.421884 -0.791453
vn -0.089635 0.613004 -0.784979
vn -0.301416 -0.301486 -0.904574
vn -0.301603 0.301539 -0.904494
vn 0.301419 -0.301478 -0.904576
vn 0.301600 0.301528 -0.904499
vn 0.245041 0.583319 -0.774399
vn 0.516969 0.360961 -0.776177
vn 0.628223 0.020935 -0.777752
vn 0.558569 -0.313063 -0.768109
vn 0.273443 -0.546831 -0.791331
vn -0.118566 -0.610121 -0.783387
vn -0.461425 -0.389664 -0.797025
vn -0.581741 0.049965 -0.811838
vn -0.423902 0.454713 -0.783290
vn -0.100231 0.624724 -0.774386
vn 0.346106 0.500796 -0.793356
vn 0.576343 0.120446 -0.808283
vn 0.559431 -0.293485 -0.775180
vn 0.273440 -0.546830 -0.791333
vn -0.118566 -0.610120 -0.783387
vn -0.461425 -0.389664 -0.797025
vn -0.573047 0.061094 -0.817242
vn -0.360376 0.479481 -0.800142
vn -0.004406 0.638422 -0.769674
vn -0.301418 -0.301493 -0.904571
vn -0.301602 0.301539 -0.904495
vn 0.301418 -0.301481 -0.904575
vn 0.301602 0.301526 -0.904499
vn 0.231885 0.542019 -0.807740
vn -0.570200 0.213040 -0.793401
vn -0.243309 0.527773 -0.813792
vn -0.271894 -0.482623 -0.832555
vn -0.607628 -0.171966 -0.775381
vn 0.542097 -0.233606 -0.807192
vn 0.217651 -0.555331 -0.802643
vn 0.556044 0.221133 -0.801196
vn 0.217779 0.555549 -0.802457
vn -0.607718 0.171910 -0.775323
vn -0.272059 0.482793 -0.832403
vn -0.243164 -0.527570 -0.813966
vn -0.570079 -0.213092 -0.793474
vn 0.555916 -0.221183 -0.801271
vn 0.231749 -0.541807 -0.807922
vn 0.542234 0.233559 -0.807113
vn 0.231895 0.542004 -0.807748
vn -0.569904 0.210951 -0.794172
vn -0.243330 0.527743 -0.813804
vn -0.243194 -0.527529 -0.813984
vn -0.569797 -0.210993 -0.794238
vn 0.556078 -0.222145 -0.800892
vn 0.231758 -0.541796 -0.807927
vn 0.556206 0.222086 -0.800820
vn 0.231891 0.542006 -0.807748
vn -0.569916 0.210940 -0.794166
vn -0.243340 0.527729 -0.813810
vn -0.243185 -0.527541 -0.813979
vn -0.569784 -0.211004 -0.794244
vn 0.556077 -0.222137 -0.800896
vn 0.231758 -0.541792 -0.807929
vn 0.556189 0.222061 -0.800839
vn -0.301421 -0.301490 -0.904571
vn -0.301605 0.301536 -0.904495
vn 0.301414 -0.301480 -0.904577
vn 0.301601 0.301527 -0.904499
vn 0.301603 0.301530 -0.904497
vn -0.301609 0.301539 -0.904492
vn -0.301424 -0.301495 -0.904569
vn 0.301419 -0.301483 -0.904574
vn 0.301603 0.301537 -0.904495
vn -0.301607 0.301542 -0.904492
vn -0.301425 -0.301493 -0.904569
vn 0.301419 -0.301483 -0.904574
vn -0.301414 -0.301489 -0.904574
vn -0.301596 0.301540 -0.904496
vn 0.301419 -0.301477 -0.904576
vn 0.301602 0.301529 -0.904498
vn -0.301418 -0.301492 -0.904572
vn -0.301605 0.301540 -0.904494
vn 0.301418 -0.301483 -0.904575
vn 0.301602 0.301529 -0.904498
vn -0.301421 -0.301493 -0.904570
vn -0.301605 0.301540 -0.904494
vn 0.301418 -0.301483 -0.904575
vn 0.301602 0.301529 -0.904498
vn -0.301421 -0.301493 -0.904570
vn -0.301606 0.301533 -0.904496
vn 0.301418 -0.301483 -0.904575
vn 0.301603 0.301522 -0.904500
vn 0.301600 0.301540 -0.904495
vn -0.301605 0.301546 -0.904491
vn -0.301423 -0.301493 -0.904570
vn 0.301416 -0.301479 -0.904577
vn 0.301596 0.301529 -0.904500
vn -0.301614 0.301540 -0.904490
vn -0.301428 -0.301500 -0.904565
vn 0.301411 -0.301490 -0.904574
vn 0.296946 0.296575 -0.907671
vn -0.299314 0.306013 -0.903752
vn -0.301430 -0.301493 -0.904567
vn 0.301546 -0.300951 -0.904709
vn 0.302009 0.301118 -0.904499
vn -0.301606 0.301540 -0.904493
vn -0.301428 -0.301491 -0.904568
vn 0.302297 -0.300922 -0.904468
vn 0.301600 0.301529 -0.904498
vn -0.301606 0.301540 -0.904493
vn -0.301423 -0.301493 -0.904570
vn 0.301416 -0.301483 -0.904575
vn 0.301584 0.301555 -0.904495
vn -0.301970 0.300974 -0.904560
vn -0.309976 -0.227328 -0.923167
vn 0.301416 -0.301476 -0.904578
vn 0.301632 0.301523 -0.904490
vn -0.301604 0.301540 -0.904494
vn -0.301420 -0.301493 -0.904570
vn 0.301443 -0.301475 -0.904569
vn 0.301605 0.301530 -0.904497
vn -0.301601 0.301539 -0.904495
vn -0.301417 -0.301500 -0.904569
vn 0.301420 -0.301490 -0.904572
vn 0.301630 0.301524 -0.904490
vn -0.302894 0.301542 -0.904062
vn -0.301330 -0.301619 -0.904559
vn 0.301422 -0.301483 -0.904573
vn 0.301600 0.301535 -0.904497
vn -0.301606 0.301546 -0.904491
vn -0.301423 -0.301493 -0.904570
vn 0.301416 -0.301483 -0.904575
vn -0.301421 -0.301487 -0.904572
vn -0.301605 0.301540 -0.904494
vn 0.301415 -0.301478 -0.904577
vn 0.301597 0.301530 -0.904499
vn -0.301421 -0.301493 -0.904570
vn -0.301605 0.301540 -0.904494
vn 0.301413 -0.301484 -0.904576
vn 0.301597 0.301530 -0.904499
vn -0.301421 -0.301493 -0.904570
vn -0.301605 0.301540 -0.904494
vn 0.301413 -0.301484 -0.904576
vn 0.301597 0.301530 -0.904499
vn -0.301421 -0.301493 -0.904570
vn -0.301605 0.301532 -0.904496
vn 0.301413 -0.301484 -0.904576
vn 0.301599 0.301523 -0.904501
vn 0.301628 0.301499 -0.904500
vn -0.301603 0.301546 -0.904492
vn -0.301366 -0.301564 -0.904565
vn 0.301409 -0.301479 -0.904579
vn 0.301601 0.301529 -0.904498
vn -0.301632 0.301502 -0.904497
vn -0.301447 -0.301446 -0.904577
vn 0.301404 -0.301482 -0.904579
vn 0.301602 0.301529 -0.904498
vn -0.301608 0.301544 -0.904491
vn -0.301421 -0.301489 -0.904572
vn 0.301418 -0.301483 -0.904575
vn 0.301602 0.301529 -0.904498
vn -0.301609 0.301535 -0.904493
vn -0.301426 -0.301497 -0.904568
vn 0.301418 -0.301483 -0.904575
vn 0.301602 0.301529 -0.904498
vn -0.301608 0.301542 -0.904492
vn -0.301425 -0.301489 -0.904570
vn 0.301418 -0.301483 -0.904575
vn 0.301602 0.301529 -0.904498
vn -0.301604 0.301536 -0.904495
vn -0.301421 -0.301497 -0.904569
vn 0.301418 -0.301483 -0.904575
vn 0.302269 0.312546 -0.900527
vn -0.302271 0.312556 -0.900523
vn -0.186856 -0.595682 -0.781184
vn -0.495951 -0.248616 -0.831999
vn 0.495941 -0.248607 -0.832008
vn 0.186859 -0.595676 -0.781187
vn 0.164583 0.591378 -0.789420
vn -0.322958 0.302510 -0.896764
vn -0.301421 -0.301491 -0.904571
vn 0.302083 -0.312491 -0.900608
vn 0.496097 0.248564 -0.831928
vn 0.264631 0.498233 -0.825672
vn -0.513404 0.256356 -0.818961
vn -0.194621 0.582368 -0.789285
vn -0.252354 -0.512747 -0.820615
vn -0.582166 -0.194392 -0.789490
vn 0.569998 -0.212477 -0.793698
vn 0.241503 -0.527318 -0.814624
vn 0.595588 0.185392 -0.781604
vn 0.241647 0.527515 -0.814454
vn -0.582275 0.194336 -0.789424
vn -0.252508 0.512938 -0.820448
vn -0.194511 -0.582134 -0.789484
vn -0.513251 -0.256394 -0.819046
vn 0.595483 -0.185449 -0.781670
vn 0.264471 -0.498050 -0.825834
vn 0.570113 0.212425 -0.793629
vn -0.301418 -0.301493 -0.904571
vn -0.301601 0.301533 -0.904497
vn 0.301416 -0.301482 -0.904575
vn 0.301598 0.301522 -0.904502
vn 0.283842 0.558196 -0.779648
vn 0.548652 0.302430 -0.779434
vn 0.630524 -0.046383 -0.774783
vn 0.464841 -0.393698 -0.793047
vn 0.122329 -0.607082 -0.785167
vn -0.273443 -0.546843 -0.791323
vn -0.559117 -0.303356 -0.771598
vn -0.607654 0.068869 -0.791210
vn -0.447005 0.432173 -0.783207
vn -0.097540 0.608057 -0.787878
vn 0.160493 0.561517 -0.811751
vn 0.528231 0.315392 -0.788353
vn 0.630524 -0.046382 -0.774783
vn 0.464831 -0.393694 -0.793056
vn 0.122328 -0.607075 -0.785172
vn -0.291217 -0.518664 -0.803853
vn -0.566198 -0.142239 -0.811904
vn -0.560003 0.283979 -0.778301
vn -0.281816 0.546945 -0.788309
vn 0.101199 0.609268 -0.786480
vn 0.434808 0.467857 -0.769449
vn 0.605340 0.168126 -0.778008
vn 0.556631 -0.229781 -0.798350
vn 0.273805 -0.546180 -0.791655
vn -0.096169 -0.626931 -0.773117
vn -0.414143 -0.469819 -0.779586
vn -0.608350 -0.165314 -0.776262
vn -0.591092 0.199597 -0.781519
vn -0.311370 0.507857 -0.803200
vn 0.155188 0.619848 -0.769224
vn 0.439404 0.466403 -0.767719
vn 0.605338 0.168129 -0.778009
vn 0.556631 -0.229781 -0.798350
vn 0.273803 -0.546183 -0.791654
vn -0.096170 -0.626934 -0.773114
vn -0.414172 -0.469832 -0.779564
vn -0.608351 -0.165319 -0.776259
vn -0.604703 0.185864 -0.774461
vn -0.424383 0.474882 -0.770964
vn -0.153331 0.630348 -0.761020
vn -0.093451 0.727549 0.679661
vn 0.103150 0.728710 0.677010
vn 0.731650 0.189685 0.654758
vn 0.570958 0.478679 0.666989
vn 0.346225 0.661775 0.664968
vn 0.103176 -0.728947 0.676750
vn 0.346293 -0.661975 0.664733
vn 0.571043 -0.478815 0.666819
vn 0.731685 -0.189780 0.654691
vn -0.093472 -0.727792 0.679398
vn -0.730195 -0.117176 0.673116
vn -0.656171 -0.342861 0.672224
vn -0.504964 -0.545332 0.669047
vn -0.295783 -0.677348 0.673581
vn -0.295720 0.677138 0.673820
vn -0.504874 0.545177 0.669241
vn -0.656096 0.342768 0.672346
vn -0.730166 0.117118 0.673158
vn 0.320204 0.499181 0.805163
vn 0.586840 0.143278 0.796925
vn 0.544210 -0.277193 0.791833
vn 0.217096 -0.557302 0.801426
vn -0.188195 -0.599146 0.778207
vn -0.493651 -0.364244 0.789706
vn -0.605409 0.036208 0.795091
vn -0.442098 0.421794 0.791605
vn -0.089588 0.612738 0.785192
vn 0.320204 0.499181 0.805163
vn 0.586841 0.143278 0.796925
vn 0.567388 -0.260325 0.781218
vn 0.362160 -0.533320 0.764467
vn 0.037129 -0.625431 0.779395
vn -0.320213 -0.538490 0.779418
vn -0.566869 -0.302513 0.766254
vn -0.613309 0.053391 0.788037
vn -0.442097 0.421794 0.791606
vn -0.089588 0.612738 0.785192
vn -0.301607 -0.301537 0.904494
vn -0.301420 0.301484 0.904574
vn 0.301603 -0.301545 0.904492
vn 0.301423 0.301495 0.904569
vn 0.244915 0.583109 0.774597
vn 0.516806 0.360937 0.776296
vn 0.628218 0.021016 0.777753
vn 0.558719 -0.313075 0.767995
vn 0.273581 -0.547035 0.791143
vn -0.118637 -0.610374 0.783178
vn -0.461600 -0.389710 0.796901
vn -0.581693 0.050070 0.811866
vn -0.423720 0.454599 0.783455
vn -0.100180 0.624460 0.774605
vn 0.345926 0.500642 0.793532
vn 0.576272 0.120535 0.808320
vn 0.559579 -0.293489 0.775071
vn 0.273584 -0.547036 0.791141
vn -0.118637 -0.610374 0.783179
vn -0.461601 -0.389710 0.796901
vn -0.572992 0.061196 0.817273
vn -0.360184 0.479323 0.800323
vn -0.004408 0.638139 0.769909
vn -0.301605 -0.301530 0.904497
vn -0.301420 0.301484 0.904574
vn 0.301605 -0.301541 0.904493
vn 0.301420 0.301497 0.904569
vn 0.231747 0.541815 0.807917
vn -0.570063 0.213085 0.793488
vn -0.243167 0.527561 0.813971
vn -0.272060 -0.482782 0.832409
vn -0.607702 -0.171906 0.775337
vn 0.542245 -0.233567 0.807104
vn 0.217776 -0.555554 0.802455
vn 0.555928 0.221190 0.801261
vn 0.217649 0.555335 0.802641
vn -0.607611 0.171961 0.775395
vn -0.271895 0.482611 0.832562
vn -0.243311 -0.527765 0.813796
vn -0.570183 -0.213035 0.793415
vn 0.556056 -0.221140 0.801186
vn 0.231883 -0.542027 0.807736
vn 0.542109 0.233613 0.807182
vn 0.231756 0.541799 0.807925
vn -0.569772 0.210997 0.794255
vn -0.243188 0.527532 0.813984
vn -0.243342 -0.527719 0.813816
vn -0.569903 -0.210934 0.794177
vn 0.556215 -0.222100 0.800810
vn 0.231889 -0.542010 0.807745
vn 0.556089 0.222145 0.800885
vn 0.231757 0.541799 0.807925
vn -0.569784 0.210986 0.794249
vn -0.243197 0.527518 0.813990
vn -0.243332 -0.527736 0.813809
vn -0.569891 -0.210945 0.794183
vn 0.556217 -0.222094 0.800810
vn 0.231892 -0.542012 0.807744
vn 0.556105 0.222183 0.800863
vn -0.301602 -0.301532 0.904497
vn -0.301418 0.301486 0.904574
vn 0.301608 -0.301543 0.904491
vn 0.301422 0.301496 0.904569
vn 0.301422 0.301493 0.904570
vn -0.301411 0.301483 0.904577
vn -0.301597 -0.301527 0.904500
vn 0.301606 -0.301540 0.904493
vn 0.301422 0.301486 0.904572
vn -0.301414 0.301480 0.904577
vn -0.301596 -0.301530 0.904500
vn 0.301606 -0.301540 0.904493
vn -0.301608 -0.301533 0.904494
vn -0.301426 0.301482 0.904572
vn 0.301604 -0.301546 0.904492
vn 0.301421 0.301493 0.904570
vn -0.301604 -0.301531 0.904496
vn -0.301418 0.301483 0.904575
vn 0.301605 -0.301540 0.904494
vn 0.301421 0.301493 0.904570
vn -0.301602 -0.301529 0.904498
vn -0.301418 0.301483 0.904575
vn 0.301605 -0.301540 0.904494
vn 0.301421 0.301493 0.904570
vn -0.301602 -0.301529 0.904498
vn -0.301417 0.301490 0.904573
vn 0.301605 -0.301540 0.904494
vn 0.301420 0.301501 0.904568
vn 0.301420 0.301491 0.904571
vn -0.301421 0.301477 0.904575
vn -0.301604 -0.301530 0.904497
vn 0.301602 -0.301535 0.904496
vn 0.301415 0.301493 0.904572
vn -0.301421 0.301484 0.904573
vn -0.301607 -0.301523 0.904498
vn 0.301599 -0.301532 0.904498
vn 0.306076 0.306435 0.901341
vn -0.303714 0.297008 0.905287
vn -0.301605 -0.301530 0.904496
vn 0.301465 -0.302080 0.904360
vn 0.301011 0.301905 0.904570
vn -0.301420 0.301483 0.904574
vn -0.301598 -0.301532 0.904498
vn 0.300722 -0.302101 0.904600
vn 0.301419 0.301493 0.904571
vn -0.301420 0.301483 0.904574
vn -0.301604 -0.301530 0.904497
vn 0.301603 -0.301539 0.904494
vn 0.301438 0.301461 0.904575
vn -0.301053 0.302049 0.904507
vn -0.294634 -0.373398 0.879639
vn 0.301602 -0.301554 0.904490
vn 0.301392 0.301507 0.904575
vn -0.301418 0.301483 0.904575
vn -0.301602 -0.301529 0.904498
vn 0.301580 -0.301540 0.904502
vn 0.301424 0.301493 0.904569
vn -0.301415 0.301483 0.904576
vn -0.301599 -0.301522 0.904501
vn 0.301610 -0.301533 0.904494
vn 0.301399 0.301499 0.904576
vn -0.300122 0.301482 0.905006
vn -0.301686 -0.301403 0.904512
vn 0.301608 -0.301540 0.904492
vn 0.301419 0.301487 0.904573
vn -0.301421 0.301477 0.904576
vn -0.301604 -0.301530 0.904497
vn 0.301603 -0.301539 0.904494
vn -0.301601 -0.301536 0.904496
vn -0.301418 0.301483 0.904575
vn 0.301608 -0.301544 0.904491
vn 0.301425 0.301493 0.904569
vn -0.301602 -0.301529 0.904498
vn -0.301418 0.301483 0.904575
vn 0.301609 -0.301539 0.904492
vn 0.301425 0.301493 0.904569
vn -0.301602 -0.301529 0.904498
vn -0.301418 0.301483 0.904575
vn 0.301609 -0.301539 0.904492
vn 0.301425 0.301493 0.904569
vn -0.301602 -0.301529 0.904498
vn -0.301417 0.301490 0.904572
vn 0.301609 -0.301539 0.904492
vn 0.301424 0.301500 0.904567
vn 0.301397 0.301533 0.904565
vn -0.301418 0.301477 0.904577
vn -0.301655 -0.301458 0.904504
vn 0.301615 -0.301535 0.904492
vn 0.301420 0.301493 0.904571
vn -0.301393 0.301521 0.904570
vn -0.301577 -0.301577 0.904490
vn 0.301616 -0.301540 0.904489
vn 0.301421 0.301493 0.904570
vn -0.301415 0.301486 0.904575
vn -0.301602 -0.301526 0.904499
vn 0.301604 -0.301540 0.904494
vn 0.301421 0.301493 0.904570
vn -0.301413 0.301480 0.904577
vn -0.301598 -0.301534 0.904498
vn 0.301605 -0.301540 0.904494
vn 0.301421 0.301493 0.904570
vn -0.301416 0.301488 0.904574
vn -0.301597 -0.301526 0.904501
vn 0.301605 -0.301540 0.904494
vn 0.301421 0.301493 0.904570
vn -0.301418 0.301479 0.904576
vn -0.301602 -0.301533 0.904496
vn 0.301605 -0.301540 0.904494
vn 0.302085 0.312502 0.900604
vn -0.302083 0.312491 0.900608
vn -0.186961 -0.595915 0.780981
vn -0.496096 -0.248564 0.831928
vn 0.496107 -0.248573 0.831919
vn 0.186958 -0.595920 0.780978
vn 0.164485 0.591139 0.789620
vn -0.322768 0.302462 0.896849
vn -0.301602 -0.301527 0.904499
vn 0.302271 -0.312556 0.900523
vn 0.495952 0.248616 0.831999
vn 0.264469 0.498059 0.825829
vn -0.513240 0.256385 0.819055
vn -0.194515 0.582128 0.789488
vn -0.252512 -0.512926 0.820454
vn -0.582262 -0.194330 0.789435
vn 0.570121 -0.212430 0.793621
vn 0.241644 -0.527516 0.814454
vn 0.595494 0.185457 0.781661
vn 0.241500 0.527319 0.814624
vn -0.582153 0.194386 0.789501
vn -0.252358 0.512735 0.820621
vn -0.194624 -0.582362 0.789288
vn -0.513393 -0.256348 0.818971
vn 0.595598 -0.185400 0.781595
vn 0.264629 -0.498242 0.825667
vn 0.570006 0.212482 0.793690
vn -0.301605 -0.301530 0.904497
vn -0.301422 0.301490 0.904571
vn 0.301607 -0.301541 0.904493
vn 0.301425 0.301501 0.904566
vn 0.283698 0.558006 0.779836
vn 0.548513 0.302440 0.779528
vn 0.630564 -0.046304 0.774755
vn 0.465007 -0.393758 0.792920
vn 0.122392 -0.607328 0.784967
vn -0.273584 -0.547020 0.791152
vn -0.559252 -0.303342 0.771506
vn -0.607599 0.068956 0.791245
vn -0.446821 0.432078 0.783364
vn -0.097488 0.607793 0.788089
vn 0.160388 0.561281 0.811935
vn 0.528081 0.315397 0.788451
vn 0.630564 -0.046305 0.774755
vn 0.465018 -0.393762 0.792912
vn 0.122393 -0.607335 0.784961
vn -0.291378 -0.518836 0.803684
vn -0.566274 -0.142147 0.811867
vn -0.559850 0.283982 0.778410
vn -0.281670 0.546742 0.788502
vn 0.101135 0.609008 0.786690
vn 0.434640 0.467754 0.769607
vn 0.605263 0.168189 0.778055
vn 0.556773 -0.229742 0.798262
vn 0.273946 -0.546390 0.791461
vn -0.096227 -0.627197 0.772893
vn -0.414372 -0.469949 0.779387
vn -0.608428 -0.165263 0.776211
vn -0.590967 0.199640 0.781602
vn -0.311202 0.507677 0.803379
vn 0.155105 0.619604 0.769437
vn 0.439239 0.466305 0.767873
vn 0.605261 0.168191 0.778056
vn 0.556773 -0.229742 0.798262
vn 0.273948 -0.546388 0.791462
vn -0.096226 -0.627193 0.772897
vn -0.414344 -0.469937 0.779409
vn -0.608426 -0.165257 0.776213
vn -0.604592 0.185907 0.774537
vn -0.424208 0.474757 0.771138
vn -0.153256 0.630094 0.761245
vt 0.0003783 0.9292074
vt 0.0003781 0.0707908
vt 0.0944359 0.0014867
vt 0.0442088 0.0189878
vt 0.0132668 0.0428311
vt 0.9996221 0.0707907
vt 0.9867335 0.0428310
vt 0.9557915 0.0189877
vt 0.9055643 0.0014866
vt 0.9996221 0.9292084
vt 0.8915060 0.9995644
vt 0.9313624 0.9913384
vt 0.9666323 0.9747176
vt 0.9903705 0.9514064
vt 0.0096297 0.9514065
vt 0.0333677 0.9747175
vt 0.0686378 0.9913385
vt 0.1084943 0.9995645
vt 0.1686468 0.0959869
vt 0.1380289 0.1092346
vt 0.1066497 0.1067535
vt 0.0824401 0.0905975
vt 0.0827919 0.0707382
vt 0.0985044 0.0562695
vt 0.1305086 0.0501040
vt 0.1611156 0.0586134
vt 0.1744602 0.0752963
vt 0.9133277 0.0959868
vt 0.8827097 0.1092345
vt 0.8513306 0.1067534
vt 0.8333717 0.0965815
vt 0.8249088 0.0823691
vt 0.8319429 0.0642438
vt 0.8498779 0.0540535
vt 0.8751894 0.0501039
vt 0.9057965 0.0586133
vt 0.9191410 0.0752962
vt 0.5712767 0.1606672
vt 0.6414892 0.1606672
vt 0.5712767 0.2046671
vt 0.6414892 0.2046671
vt 0.4263916 0.1912937
vt 0.4141674 0.2008438
vt 0.3943274 0.2050252
vt 0.3767716 0.2021259
vt 0.3616236 0.1930324
vt 0.3587690 0.1782651
vt 0.3695625 0.1660142
vt 0.3972319 0.1599566
vt 0.4204409 0.1680471
vt 0.4287168 0.1791368
vt 0.5304301 0.1945348
vt 0.5064827 0.2051238
vt 0.4831546 0.2021259
vt 0.4680066 0.1930324
vt 0.4651520 0.1782651
vt 0.4759455 0.1660142
vt 0.5036149 0.1599566
vt 0.5297967 0.1699868
vt 0.5353278 0.1826657
vt 0.3638298 0.2533338
vt 0.5085104 0.2533338
vt 0.3638298 0.3173339
vt 0.5085104 0.3173339
vt 0.6611613 0.3219994
vt 0.6544929 0.2875491
vt 0.6610450 0.2910731
vt 0.6127867 0.2902927
vt 0.6201398 0.2874199
vt 0.6180857 0.3256607
vt 0.6121396 0.3217403
vt 0.6549049 0.3257258
vt 0.7495628 0.3217403
vt 0.7415626 0.2874199
vt 0.7489157 0.2902926
vt 0.7006574 0.2910731
vt 0.7072094 0.2875490
vt 0.7067975 0.3257258
vt 0.7005411 0.3219993
vt 0.7436166 0.3256607
vt 0.6611614 0.3753326
vt 0.6544914 0.3408819
vt 0.6610449 0.3444059
vt 0.6123599 0.3444055
vt 0.6189132 0.3408819
vt 0.6185000 0.3790591
vt 0.6122433 0.3753328
vt 0.6549040 0.3790593
vt 0.7494590 0.3753328
vt 0.7427891 0.3408819
vt 0.7493424 0.3444055
vt 0.7006575 0.3444059
vt 0.7072109 0.3408819
vt 0.7067984 0.3790593
vt 0.7005410 0.3753326
vt 0.7432023 0.3790591
vt 0.3638298 0.4080005
vt 0.5085104 0.4080005
vt 0.3638298 0.4720002
vt 0.5085104 0.4720002
vt 0.3181030 0.5276104
vt 0.3181031 0.5123882
vt 0.2906206 0.5123882
vt 0.2906207 0.5276104
vt 0.3689540 0.5276104
vt 0.3689541 0.5123882
vt 0.3414716 0.5123882
vt 0.3414717 0.5276104
vt 0.4202127 0.5386670
vt 0.4308510 0.5386670
vt 0.4202127 0.5546671
vt 0.4308510 0.5546671
vt 0.4414893 0.5386670
vt 0.4521276 0.5386670
vt 0.4414893 0.5546671
vt 0.4521276 0.5546671
vt 0.4627659 0.5386670
vt 0.4734042 0.5386670
vt 0.4627659 0.5546671
vt 0.4734042 0.5546671
vt 0.4840425 0.5386670
vt 0.4946808 0.5386670
vt 0.4840425 0.5546671
vt 0.4946808 0.5546671
vt 0.3632089 0.5593437
vt 0.3632087 0.5421212
vt 0.3389192 0.5421212
vt 0.3389191 0.5593439
vt 0.5649581 0.5604389
vt 0.5649576 0.5426258
vt 0.5414257 0.5426258
vt 0.5414251 0.5604389
vt 0.6074761 0.5606425
vt 0.6075107 0.5426258
vt 0.5839789 0.5426258
vt 0.5839783 0.5604389
vt 0.2649118 0.5609435
vt 0.2649116 0.5457215
vt 0.2374291 0.5457215
vt 0.2374295 0.5609402
vt 0.3157628 0.5609435
vt 0.3157627 0.5457215
vt 0.2882801 0.5457215
vt 0.2882799 0.5609435
vt 0.2666597 0.5873726
vt 0.2666597 0.5726261
vt 0.2382163 0.5727312
vt 0.2382345 0.5873691
vt 0.3149578 0.5873724
vt 0.3149578 0.5726261
vt 0.2865320 0.5726261
vt 0.2865320 0.5873726
vt 0.5649575 0.5907059
vt 0.5649578 0.5728929
vt 0.5414254 0.5728929
vt 0.5414257 0.5907059
vt 0.6075107 0.5907059
vt 0.6075140 0.5728748
vt 0.5839786 0.5728928
vt 0.5839789 0.5907059
vt 0.3632089 0.5912106
vt 0.3632087 0.5739878
vt 0.3389192 0.5739878
vt 0.3389190 0.5912106
vt 0.4202127 0.5760004
vt 0.4308510 0.5760004
vt 0.4202127 0.5920003
vt 0.4308510 0.5920003
vt 0.4414893 0.5760004
vt 0.4521276 0.5760004
vt 0.4414893 0.5920003
vt 0.4521276 0.5920003
vt 0.4627659 0.5760004
vt 0.4734042 0.5760004
vt 0.4627659 0.5920003
vt 0.4734042 0.5920003
vt 0.4840425 0.5760004
vt 0.4946808 0.5760004
vt 0.4840425 0.5920003
vt 0.4946808 0.5920003
vt 0.3632089 0.6193438
vt 0.3632089 0.6021214
vt 0.3389190 0.6021214
vt 0.3389181 0.6193496
vt 0.3632088 0.6512106
vt 0.3632087 0.6339878
vt 0.3389182 0.6339935
vt 0.3389191 0.6512106
vt 0.4138479 0.6542769
vt 0.4138479 0.6390550
vt 0.3863651 0.6390548
vt 0.3863651 0.6542769
vt 0.4646990 0.6542769
vt 0.4646990 0.6390548
vt 0.4372161 0.6390550
vt 0.4372161 0.6542769
vt 0.5095926 0.6542769
vt 0.5095926 0.6390550
vt 0.4821098 0.6390548
vt 0.4821098 0.6542769
vt 0.5604437 0.6542769
vt 0.5604436 0.6390548
vt 0.5329608 0.6390550
vt 0.5329608 0.6542769
vt 0.4520705 0.7046307
vt 0.4520705 0.6820346
vt 0.4086975 0.6854465
vt 0.4133929 0.6812184
vt 0.4133929 0.7054469
vt 0.4086975 0.7012187
vt 0.5274729 0.7012187
vt 0.5254755 0.6820347
vt 0.4840999 0.6820346
vt 0.4840999 0.7046307
vt 0.5227776 0.7054469
vt 0.4480078 0.7561124
vt 0.4433826 0.7211587
vt 0.4486711 0.7254416
vt 0.3997227 0.7241460
vt 0.4065568 0.7208322
vt 0.4061457 0.7591163
vt 0.3995938 0.7555929
vt 0.4409060 0.7592095
vt 0.5365766 0.7555929
vt 0.5296137 0.7208322
vt 0.5364478 0.7241460
vt 0.4874994 0.7254416
vt 0.4927878 0.7211587
vt 0.4952645 0.7592095
vt 0.4881626 0.7561124
vt 0.5300247 0.7591163
vt 0.3585107 0.7953336
vt 0.4287232 0.7953336
vt 0.3585107 0.8393338
vt 0.4287232 0.8393338
vt 0.5315765 0.8275657
vt 0.5170181 0.8369898
vt 0.4978894 0.8394956
vt 0.4769097 0.8346547
vt 0.4651520 0.8217336
vt 0.4680066 0.8069663
vt 0.4831555 0.7978724
vt 0.5035756 0.7948735
vt 0.5248856 0.8014245
vt 0.5353903 0.8137751
vt 0.6413996 0.8236043
vt 0.6234011 0.8369898
vt 0.6042724 0.8394955
vt 0.5832927 0.8346546
vt 0.5715350 0.8217336
vt 0.5743895 0.8069663
vt 0.5984801 0.7950541
vt 0.6232777 0.7978172
vt 0.6374056 0.8062789
vt 0.1743049 0.9258878
vt 0.1620440 0.9402984
vt 0.1415875 0.9483913
vt 0.1099458 0.9479715
vt 0.0843693 0.9326865
vt 0.0810170 0.9153111
vt 0.0917563 0.9004318
vt 0.1155442 0.8912833
vt 0.1415872 0.8916077
vt 0.1686472 0.9040123
vt 0.9183960 0.9270192
vt 0.9067249 0.9402981
vt 0.8862683 0.9483912
vt 0.8546266 0.9479714
vt 0.8290501 0.9326864
vt 0.8256978 0.9153110
vt 0.8364372 0.9004317
vt 0.8602250 0.8912832
vt 0.8862680 0.8916077
vt 0.9081068 0.9005084
vt 0.9181092 0.9130222
vt 0.0003783 0.9292074
vt 0.0003781 0.0707908
vt 0.0944359 0.0014867
vt 0.0442088 0.0189878
vt 0.0132668 0.0428311
vt 0.9996221 0.0707907
vt 0.9867335 0.0428310
vt 0.9557915 0.0189877
vt 0.9055643 0.0014866
vt 0.9996221 0.9292084
vt 0.8915060 0.9995644
vt 0.9313624 0.9913384
vt 0.9666323 0.9747176
vt 0.9903705 0.9514064
vt 0.0096297 0.9514065
vt 0.0333677 0.9747175
vt 0.0686378 0.9913385
vt 0.1084943 0.9995645
vt 0.1686468 0.0959869
vt 0.1380289 0.1092346
vt 0.1066497 0.1067535
vt 0.0824401 0.0905975
vt 0.0827919 0.0707382
vt 0.0985044 0.0562695
vt 0.1305086 0.0501040
vt 0.1611156 0.0586134
vt 0.1744602 0.0752963
vt 0.9133277 0.0959868
vt 0.8827097 0.1092345
vt 0.8513306 0.1067534
vt 0.8333717 0.0965815
vt 0.8249088 0.0823691
vt 0.8319429 0.0642438
vt 0.8498779 0.0540535
vt 0.8751894 0.0501039
vt 0.9057965 0.0586133
vt 0.9191410 0.0752962
vt 0.5712767 0.1606672
vt 0.6414892 0.1606672
vt 0.5712767 0.2046671
vt 0.6414892 0.2046671
vt 0.4263916 0.1912937
vt 0.4141674 0.2008438
vt 0.3943274 0.2050252
vt 0.3767716 0.2021259
vt 0.3616236 0.1930324
vt 0.3587690 0.1782651
vt 0.3695625 0.1660142
vt 0.3972319 0.1599566
vt 0.4204409 0.1680471
vt 0.4287168 0.1791368
vt 0.5304301 0.1945348
vt 0.5064827 0.2051238
vt 0.4831546 0.2021259
vt 0.4680066 0.1930324
vt 0.4651520 0.1782651
vt 0.4759455 0.1660142
vt 0.5036149 0.1599566
vt 0.5297967 0.1699868
vt 0.5353278 0.1826657
vt 0.3638298 0.2533338
vt 0.5085104 0.2533338
vt 0.3638298 0.3173339
vt 0.5085104 0.3173339
vt 0.6611613 0.3219994
vt 0.6544929 0.2875491
vt 0.6610450 0.2910731
vt 0.6127867 0.2902927
vt 0.6201398 0.2874199
vt 0.6180857 0.3256607
vt 0.6121396 0.3217403
vt 0.6549049 0.3257258
vt 0.7495628 0.3217403
vt 0.7415626 0.2874199
vt 0.7489157 0.2902926
vt 0.7006574 0.2910731
vt 0.7072094 0.2875490
vt 0.7067975 0.3257258
vt 0.7005411 0.3219993
vt 0.7436166 0.3256607
vt 0.6611614 0.3753326
vt 0.6544914 0.3408819
vt 0.6610449 0.3444059
vt 0.6123599 0.3444055
vt 0.6189132 0.3408819
vt 0.6185000 0.3790591
vt 0.6122433 0.3753328
vt 0.6549040 0.3790593
vt 0.7494590 0.3753328
vt 0.7427891 0.3408819
vt 0.7493424 0.3444055
vt 0.7006575 0.3444059
vt 0.7072109 0.3408819
vt 0.7067984 0.3790593
vt 0.7005410 0.3753326
vt 0.7432023 0.3790591
vt 0.3638298 0.4080005
vt 0.5085104 0.4080005
vt 0.3638298 0.4720002
vt 0.5085104 0.4720002
vt 0.3181030 0.5276104
vt 0.3181031 0.5123882
vt 0.2906206 0.5123882
vt 0.2906207 0.5276104
vt 0.3689540 0.5276104
vt 0.3689541 0.5123882
vt 0.3414716 0.5123882
vt 0.3414717 0.5276104
vt 0.4202127 0.5386670
vt 0.4308510 0.5386670
vt 0.4202127 0.5546671
vt 0.4308510 0.5546671
vt 0.4414893 0.5386670
vt 0.4521276 0.5386670
vt 0.4414893 0.5546671
vt 0.4521276 0.5546671
vt 0.4627659 0.5386670
vt 0.4734042 0.5386670
vt 0.4627659 0.5546671
vt 0.4734042 0.5546671
vt 0.4840425 0.5386670
vt 0.4946808 0.5386670
vt 0.4840425 0.5546671
vt 0.4946808 0.5546671
vt 0.3632089 0.5593437
vt 0.3632087 0.5421212
vt 0.3389192 0.5421212
vt 0.3389191 0.5593439
vt 0.5649581 0.5604389
vt 0.5649576 0.5426258
vt 0.5414257 0.5426258
vt 0.5414251 0.5604389
vt 0.6074761 0.5606425
vt 0.6075107 0.5426258
vt 0.5839789 0.5426258
vt 0.5839783 0.5604389
vt 0.2649118 0.5609435
vt 0.2649116 0.5457215
vt 0.2374291 0.5457215
vt 0.2374295 0.5609402
vt 0.3157628 0.5609435
vt 0.3157627 0.5457215
vt 0.2882801 0.5457215
vt 0.2882799 0.5609435
vt 0.2666597 0.5873726
vt 0.2666597 0.5726261
vt 0.2382163 0.5727312
vt 0.2382345 0.5873691
vt 0.3149578 0.5873724
vt 0.3149578 0.5726261
vt 0.2865320 0.5726261
vt 0.2865320 0.5873726
vt 0.5649575 0.5907059
vt 0.5649578 0.5728929
vt 0.5414254 0.5728929
vt 0.5414257 0.5907059
vt 0.6075107 0.5907059
vt 0.6075140 0.5728748
vt 0.5839786 0.5728928
vt 0.5839789 0.5907059
vt 0.3632089 0.5912106
vt 0.3632087 0.5739878
vt 0.3389192 0.5739878
vt 0.3389190 0.5912106
vt 0.4202127 0.5760004
vt 0.4308510 0.5760004
vt 0.4202127 0.5920003
vt 0.4308510 0.5920003
vt 0.4414893 0.5760004
vt 0.4521276 0.5760004
vt 0.4414893 0.5920003
vt 0.4521276 0.5920003
vt 0.4627659 0.5760004
vt 0.4734042 0.5760004
vt 0.4627659 0.5920003
vt 0.4734042 0.5920003
vt 0.4840425 0.5760004
vt 0.4946808 0.5760004
vt 0.4840425 0.5920003
vt 0.4946808 0.5920003
vt 0.3632089 0.6193438
vt 0.3632089 0.6021214
vt 0.3389190 0.6021214
vt 0.3389181 0.6193496
vt 0.3632088 0.6512106
vt 0.3632087 0.6339878
vt 0.3389182 0.6339935
vt 0.3389191 0.6512106
vt 0.4138479 0.6542769
vt 0.4138479 0.6390550
vt 0.3863651 0.6390548
vt 0.3863651 0.6542769
vt 0.4646990 0.6542769
vt 0.4646990 0.6390548
vt 0.4372161 0.6390550
vt 0.4372161 0.6542769
vt 0.5095926 0.6542769
vt 0.5095926 0.6390550
vt 0.4821098 0.6390548
vt 0.4821098 0.6542769
vt 0.5604437 0.6542769
vt 0.5604436 0.6390548
vt 0.5329608 0.6390550
vt 0.5329608 0.6542769
vt 0.4520705 0.7046307
vt 0.4520705 0.6820346
vt 0.4086975 0.6854465
vt 0.4133929 0.6812184
vt 0.4133929 0.7054469
vt 0.4086975 0.7012187
vt 0.5274729 0.7012187
vt 0.5254755 0.6820347
vt 0.4840999 0.6820346
vt 0.4840999 0.7046307
vt 0.5227776 0.7054469
vt 0.4480078 0.7561124
vt 0.4433826 0.7211587
vt 0.4486711 0.7254416
vt 0.3997227 0.7241460
vt 0.4065568 0.7208322
vt 0.4061457 0.7591163
vt 0.3995938 0.7555929
vt 0.4409060 0.7592095
vt 0.5365766 0.7555929
vt 0.5296137 0.7208322
vt 0.5364478 0.7241460
vt 0.4874994 0.7254416
vt 0.4927878 0.7211587
vt 0.4952645 0.7592095
vt 0.4881626 0.7561124
vt 0.5300247 0.7591163
vt 0.3585107 0.7953336
vt 0.4287232 0.7953336
vt 0.3585107 0.8393338
vt 0.4287232 0.8393338
vt 0.5315765 0.8275657
vt 0.5170181 0.8369898
vt 0.4978894 0.8394956
vt 0.4769097 0.8346547
vt 0.4651520 0.8217336
vt 0.4680066 0.8069663
vt 0.4831555 0.7978724
vt 0.5035756 0.7948735
vt 0.5248856 0.8014245
vt 0.5353903 0.8137751
vt 0.6413996 0.8236043
vt 0.6234011 0.8369898
vt 0.6042724 0.8394955
vt 0.5832927 0.8346546
vt 0.5715350 0.8217336
vt 0.5743895 0.8069663
vt 0.5984801 0.7950541
vt 0.6232777 0.7978172
vt 0.6374056 0.8062789
vt 0.1743049 0.9258878
vt 0.1620440 0.9402984
vt 0.1415875 0.9483913
vt 0.1099458 0.9479715
vt 0.0843693 0.9326865
vt 0.0810170 0.9153111
vt 0.0917563 0.9004318
vt 0.1155442 0.8912833
vt 0.1415872 0.8916077
vt 0.1686472 0.9040123
vt 0.9183960 0.9270192
vt 0.9067249 0.9402981
vt 0.8862683 0.9483912
vt 0.8546266 0.9479714
vt 0.8290501 0.9326864
vt 0.8256978 0.9153110
vt 0.8364372 0.9004317
vt 0.8602250 0.8912832
vt 0.8862680 0.8916077
vt 0.9081068 0.9005084
vt 0.9181092 0.9130222
f 24/24/24 5/5/5 4/4/4
f 24/24/24 4/4/4 3/3/3
f 23/23/23 5/5/5 24/24/24
f 23/23/23 2/2/2 5/5/5
f 25/25/25 24/24/24 3/3/3
f 22/22/22 2/2/2 23/23/23
f 26/26/26 25/25/25 3/3/3
f 21/21/21 2/2/2 22/22/22
f 48/48/48 19/19/19 27/27/27
f 47/47/47 19/19/19 48/48/48
f 49/49/49 48/48/48 27/27/27
f 47/47/47 20/20/20 19/19/19
f 49/49/49 27/27/27 26/26/26
f 46/46/46 20/20/20 47/47/47
f 49/49/49 26/26/26 3/3/3
f 57/57/57 50/50/50 49/49/49
f 56/56/56 51/51/51 50/50/50
f 56/56/56 50/50/50 57/57/57
f 58/58/58 57/57/57 49/49/49
f 58/58/58 49/49/49 3/3/3
f 55/55/55 51/51/51 56/56/56
f 55/55/55 42/42/42 51/51/51
f 61/61/61 44/44/44 43/43/43
f 61/61/61 45/45/45 44/44/44
f 61/61/61 46/46/46 45/45/45
f 61/61/61 20/20/20 46/46/46
f 55/55/55 43/43/43 42/42/42
f 54/54/54 43/43/43 55/55/55
f 38/38/38 60/60/60 59/59/59
f 38/38/38 59/59/59 58/58/58
f 63/63/63 21/21/21 20/20/20
f 63/63/63 20/20/20 61/61/61
f 9/9/9 58/58/58 3/3/3
f 9/9/9 38/38/38 58/58/58
f 40/40/40 52/52/52 60/60/60
f 40/40/40 53/53/53 52/52/52
f 40/40/40 60/60/60 38/38/38
f 62/62/62 53/53/53 40/40/40
f 62/62/62 61/61/61 43/43/43
f 62/62/62 54/54/54 53/53/53
f 62/62/62 43/43/43 54/54/54
f 34/34/34 33/33/33 9/9/9
f 33/33/33 38/38/38 9/9/9
f 33/33/33 39/39/39 38/38/38
f 35/35/35 34/34/34 9/9/9
f 32/32/32 39/39/39 33/33/33
f 31/31/31 39/39/39 32/32/32
f 36/36/36 35/35/35 9/9/9
f 36/36/36 9/9/9 8/8/8
f 30/30/30 39/39/39 31/31/31
f 30/30/30 41/41/41 39/39/39
f 7/7/7 36/36/36 8/8/8
f 7/7/7 37/37/37 36/36/36
f 68/68/68 62/62/62 40/40/40
f 69/69/69 68/68/68 40/40/40
f 68/68/68 64/64/64 62/62/62
f 69/69/69 40/40/40 41/41/41
f 6/6/6 37/37/37 7/7/7
f 139/139/139 21/21/21 63/63/63
f 139/139/139 2/2/2 21/21/21
f 139/139/139 97/97/97 103/103/103
f 139/139/139 63/63/63 97/97/97
f 66/66/66 69/69/69 41/41/41
f 99/99/99 103/103/103 97/97/97
f 71/71/71 64/64/64 68/68/68
f 104/104/104 139/139/139 103/103/103
f 6/6/6 28/28/28 37/37/37
f 6/6/6 29/29/29 28/28/28
f 138/138/138 139/139/139 104/104/104
f 102/102/102 103/103/103 99/99/99
f 137/137/137 147/147/147 140/140/140
f 98/98/98 63/63/63 64/64/64
f 98/98/98 97/97/97 63/63/63
f 143/143/143 138/138/138 104/104/104
f 107/107/107 102/102/102 99/99/99
f 84/84/84 71/71/71 70/70/70
f 85/85/85 84/84/84 70/70/70
f 84/84/84 64/64/64 71/71/71
f 77/77/77 76/76/76 67/67/67
f 77/77/77 67/67/67 66/66/66
f 77/77/77 66/66/66 41/41/41
f 148/148/148 140/140/140 147/147/147
f 146/146/146 147/147/147 137/137/137
f 144/144/144 138/138/138 143/143/143
f 144/144/144 137/137/137 138/138/138
f 108/108/108 101/101/101 102/102/102
f 108/108/108 102/102/102 107/107/107
f 142/142/142 104/104/104 101/101/101
f 142/142/142 143/143/143 104/104/104
f 106/106/106 107/107/107 99/99/99
f 82/82/82 85/85/85 70/70/70
f 82/82/82 70/70/70 72/72/72
f 74/74/74 77/77/77 41/41/41
f 151/151/151 137/137/137 144/144/144
f 151/151/151 146/146/146 137/137/137
f 74/74/74 41/41/41 30/30/30
f 75/75/75 74/74/74 30/30/30
f 83/83/83 82/82/82 72/72/72
f 127/127/127 101/101/101 108/108/108
f 127/127/127 142/142/142 101/101/101
f 83/83/83 72/72/72 65/65/65
f 75/75/75 30/30/30 29/29/29
f 87/87/87 98/98/98 64/64/64
f 87/87/87 64/64/64 84/84/84
f 79/79/79 65/65/65 67/67/67
f 79/79/79 67/67/67 76/76/76
f 152/152/152 145/145/145 146/146/146
f 152/152/152 146/146/146 151/151/151
f 79/79/79 83/83/83 65/65/65
f 86/86/86 98/98/98 87/87/87
f 75/75/75 29/29/29 6/6/6
f 126/126/126 127/127/127 108/108/108
f 126/126/126 108/108/108 105/105/105
f 150/150/150 144/144/144 141/141/141
f 150/150/150 151/151/151 144/144/144
f 128/128/128 141/141/141 142/142/142
f 128/128/128 142/142/142 127/127/127
f 92/92/92 79/79/79 78/78/78
f 92/92/92 83/83/83 79/79/79
f 93/93/93 92/92/92 78/78/78
f 163/163/163 150/150/150 141/141/141
f 163/163/163 141/141/141 128/128/128
f 163/163/163 149/149/149 150/150/150
f 73/73/73 75/75/75 6/6/6
f 100/100/100 106/106/106 99/99/99
f 100/100/100 86/86/86 88/88/88
f 100/100/100 98/98/98 86/86/86
f 162/162/162 163/163/163 128/128/128
f 162/162/162 128/128/128 125/125/125
f 164/164/164 149/149/149 163/163/163
f 109/109/109 126/126/126 105/105/105
f 109/109/109 105/105/105 106/106/106
f 90/90/90 78/78/78 80/80/80
f 90/90/90 93/93/93 78/78/78
f 110/110/110 109/109/109 106/106/106
f 91/91/91 90/90/90 80/80/80
f 95/95/95 83/83/83 92/92/92
f 95/95/95 81/81/81 83/83/83
f 91/91/91 80/80/80 73/73/73
f 183/183/183 149/149/149 164/164/164
f 113/113/113 110/110/110 106/106/106
f 113/113/113 106/106/106 100/100/100
f 91/91/91 73/73/73 6/6/6
f 95/95/95 88/88/88 81/81/81
f 111/111/111 125/125/125 126/126/126
f 111/111/111 126/126/126 109/109/109
f 94/94/94 88/88/88 95/95/95
f 114/114/114 113/113/113 100/100/100
f 112/112/112 110/110/110 113/113/113
f 182/182/182 164/164/164 161/161/161
f 182/182/182 183/183/183 164/164/164
f 184/184/184 149/149/149 183/183/183
f 184/184/184 152/152/152 149/149/149
f 117/117/117 114/114/114 100/100/100
f 115/115/115 112/112/112 113/113/113
f 118/118/118 117/117/117 100/100/100
f 116/116/116 114/114/114 117/117/117
f 165/165/165 111/111/111 112/112/112
f 165/165/165 125/125/125 111/111/111
f 165/165/165 162/162/162 125/125/125
f 165/165/165 161/161/161 162/162/162
f 121/121/121 118/118/118 100/100/100
f 89/89/89 91/91/91 6/6/6
f 119/119/119 116/116/116 117/117/117
f 166/166/166 165/165/165 112/112/112
f 187/187/187 145/145/145 152/152/152
f 187/187/187 152/152/152 184/184/184
f 122/122/122 121/121/121 100/100/100
f 187/187/187 148/148/148 145/145/145
f 169/169/169 166/166/166 112/112/112
f 169/169/169 112/112/112 115/115/115
f 167/167/167 182/182/182 161/161/161
f 167/167/167 161/161/161 165/165/165
f 167/167/167 181/181/181 182/182/182
f 186/186/186 184/184/184 181/181/181
f 186/186/186 187/187/187 184/184/184
f 123/123/123 120/120/120 118/118/118
f 123/123/123 118/118/118 121/121/121
f 188/188/188 148/148/148 187/187/187
f 170/170/170 115/115/115 116/116/116
f 170/170/170 169/169/169 115/115/115
f 170/170/170 116/116/116 119/119/119
f 173/173/173 170/170/170 119/119/119
f 171/171/171 168/168/168 166/166/166
f 171/171/171 166/166/166 169/169/169
f 174/174/174 119/119/119 120/120/120
f 174/174/174 120/120/120 123/123/123
f 174/174/174 173/173/173 119/119/119
f 177/177/177 174/174/174 123/123/123
f 175/175/175 170/170/170 173/173/173
f 175/175/175 172/172/172 170/170/170
f 191/191/191 186/186/186 181/181/181
f 131/131/131 122/122/122 100/100/100
f 191/191/191 185/185/185 186/186/186
f 131/131/131 124/124/124 122/122/122
f 178/178/178 177/177/177 123/123/123
f 178/178/178 123/123/123 124/124/124
f 192/192/192 185/185/185 191/191/191
f 130/130/130 131/131/131 100/100/100
f 190/190/190 181/181/181 167/167/167
f 190/190/190 191/191/191 181/181/181
f 179/179/179 174/174/174 177/177/177
f 179/179/179 176/176/176 174/174/174
f 132/132/132 124/124/124 131/131/131
f 132/132/132 178/178/178 124/124/124
f 135/135/135 130/130/130 100/100/100
f 155/155/155 178/178/178 132/132/132
f 195/195/195 167/167/167 168/168/168
f 195/195/195 190/190/190 167/167/167
f 195/195/195 168/168/168 171/171/171
f 195/195/195 171/171/171 172/172/172
f 134/134/134 135/135/135 100/100/100
f 1/1/1 139/139/139 140/140/140
f 1/1/1 140/140/140 148/148/148
f 1/1/1 2/2/2 139/139/139
f 134/134/134 100/100/100 88/88/88
f 134/134/134 88/88/88 94/94/94
f 136/136/136 129/129/129 130/130/130
f 136/136/136 130/130/130 135/135/135
f 154/154/154 155/155/155 132/132/132
f 154/154/154 132/132/132 129/129/129
f 134/134/134 94/94/94 96/96/96
f 196/196/196 189/189/189 190/190/190
f 196/196/196 190/190/190 195/195/195
f 156/156/156 180/180/180 178/178/178
f 156/156/156 178/178/178 155/155/155
f 194/194/194 195/195/195 172/172/172
f 194/194/194 172/172/172 175/175/175
f 154/154/154 129/129/129 136/136/136
f 194/194/194 175/175/175 176/176/176
f 133/133/133 134/134/134 96/96/96
f 159/159/159 154/154/154 136/136/136
f 208/208/208 192/192/192 189/189/189
f 207/207/207 192/192/192 208/208/208
f 207/207/207 185/185/185 192/192/192
f 199/199/199 194/194/194 176/176/176
f 199/199/199 176/176/176 179/179/179
f 207/207/207 188/188/188 185/185/185
f 208/208/208 189/189/189 196/196/196
f 199/199/199 179/179/179 180/180/180
f 158/158/158 159/159/159 136/136/136
f 158/158/158 136/136/136 133/133/133
f 200/200/200 193/193/193 194/194/194
f 200/200/200 194/194/194 199/199/199
f 160/160/160 153/153/153 154/154/154
f 160/160/160 154/154/154 159/159/159
f 198/198/198 199/199/199 180/180/180
f 198/198/198 180/180/180 156/156/156
f 210/210/210 188/188/188 207/207/207
f 158/158/158 133/133/133 96/96/96
f 158/158/158 96/96/96 89/89/89
f 206/206/206 208/208/208 196/196/196
f 262/262/262 1/1/1 148/148/148
f 262/262/262 261/261/261 1/1/1
f 206/206/206 196/196/196 193/193/193
f 260/260/260 1/1/1 261/261/261
f 157/157/157 158/158/158 89/89/89
f 262/262/262 148/148/148 188/188/188
f 203/203/203 198/198/198 156/156/156
f 259/259/259 1/1/1 260/260/260
f 219/219/219 210/210/210 209/209/209
f 220/220/220 219/219/219 209/209/209
f 219/219/219 188/188/188 210/210/210
f 259/259/259 15/15/15 1/1/1
f 204/204/204 198/198/198 203/203/203
f 204/204/204 197/197/197 198/198/198
f 202/202/202 203/203/203 156/156/156
f 202/202/202 156/156/156 153/153/153
f 213/213/213 206/206/206 193/193/193
f 213/213/213 193/193/193 200/200/200
f 202/202/202 153/153/153 160/160/160
f 259/259/259 16/16/16 15/15/15
f 213/213/213 200/200/200 197/197/197
f 202/202/202 160/160/160 157/157/157
f 217/217/217 209/209/209 205/205/205
f 217/217/217 220/220/220 209/209/209
f 214/214/214 206/206/206 213/213/213
f 214/214/214 205/205/205 206/206/206
f 201/201/201 202/202/202 157/157/157
f 218/218/218 217/217/217 205/205/205
f 16/16/16 259/259/259 258/258/258
f 212/212/212 213/213/213 197/197/197
f 212/212/212 197/197/197 204/204/204
f 214/214/214 218/218/218 205/205/205
f 212/212/212 204/204/204 201/201/201
f 232/232/232 263/263/263 262/262/262
f 232/232/232 188/188/188 219/219/219
f 232/232/232 262/262/262 188/188/188
f 232/232/232 219/219/219 222/222/222
f 232/232/232 222/222/222 221/221/221
f 17/17/17 16/16/16 258/258/258
f 227/227/227 218/218/218 214/214/214
f 227/227/227 214/214/214 228/228/228
f 211/211/211 212/212/212 201/201/201
f 228/228/228 214/214/214 215/215/215
f 225/225/225 228/228/228 215/215/215
f 18/18/18 17/17/17 258/258/258
f 226/226/226 215/215/215 211/211/211
f 226/226/226 225/225/225 215/215/215
f 230/230/230 216/216/216 218/218/218
f 230/230/230 218/218/218 227/227/227
f 226/226/226 211/211/211 201/201/201
f 234/234/234 264/264/264 263/263/263
f 234/234/234 255/255/255 264/264/264
f 234/234/234 263/263/263 232/232/232
f 233/233/233 221/221/221 223/223/223
f 233/233/233 232/232/232 221/221/221
f 18/18/18 257/257/257 256/256/256
f 18/18/18 258/258/258 257/257/257
f 242/242/242 233/233/233 223/223/223
f 242/242/242 241/241/241 233/233/233
f 242/242/242 223/223/223 216/216/216
f 242/242/242 216/216/216 230/230/230
f 242/242/242 230/230/230 229/229/229
f 243/243/243 242/242/242 229/229/229
f 240/240/240 233/233/233 241/241/241
f 235/235/235 256/256/256 255/255/255
f 235/235/235 18/18/18 256/256/256
f 235/235/235 255/255/255 234/234/234
f 240/240/240 235/235/235 233/233/233
f 243/243/243 229/229/229 231/231/231
f 239/239/239 235/235/235 240/240/240
f 244/244/244 243/243/243 231/231/231
f 238/238/238 235/235/235 239/239/239
f 238/238/238 18/18/18 235/235/235
f 251/251/251 244/244/244 231/231/231
f 252/252/252 251/251/251 231/231/231
f 252/252/252 231/231/231 224/224/224
f 251/251/251 245/245/245 244/244/244
f 250/250/250 245/245/245 251/251/251
f 252/252/252 224/224/224 226/226/226
f 250/250/250 236/236/236 245/245/245
f 253/253/253 252/252/252 226/226/226
f 253/253/253 226/226/226 201/201/201
f 249/249/249 236/236/236 250/250/250
f 249/249/249 237/237/237 236/236/236
f 254/254/254 201/201/201 157/157/157
f 254/254/254 253/253/253 201/201/201
f 248/248/248 237/237/237 249/249/249
f 248/248/248 238/238/238 237/237/237
f 272/272/272 271/271/271 246/246/246
f 270/270/270 246/246/246 271/271/271
f 270/270/270 247/247/247 246/246/246
f 272/272/272 246/246/246 254/254/254
f 273/273/273 272/272/272 254/254/254
f 273/273/273 254/254/254 157/157/157
f 269/269/269 247/247/247 270/270/270
f 269/269/269 248/248/248 247/247/247
f 273/273/273 157/157/157 89/89/89
f 11/11/11 248/248/248 269/269/269
f 11/11/11 238/238/238 248/248/248
f 11/11/11 268/268/268 267/267/267
f 11/11/11 18/18/18 238/238/238
f 11/11/11 269/269/269 268/268/268
f 10/10/10 274/274/274 273/273/273
f 10/10/10 275/275/275 274/274/274
f 10/10/10 265/265/265 275/275/275
f 10/10/10 273/273/273 89/89/89
f 10/10/10 89/89/89 6/6/6
f 14/14/14 265/265/265 10/10/10
f 12/12/12 11/11/11 267/267/267
f 14/14/14 266/266/266 265/265/265
f 13/13/13 266/266/266 14/14/14
f 12/12/12 267/267/267 266/266/266
f 13/13/13 12/12/12 266/266/266
f 279/279/279 280/280/280 299/299/299
f 278/278/278 279/279/279 299/299/299
f 299/299/299 280/280/280 298/298/298
f 280/280/280 277/277/277 298/298/298
f 278/278/278 299/299/299 300/300/300
f 298/298/298 277/277/277 297/297/297
f 278/278/278 300/300/300 301/301/301
f 297/297/297 277/277/277 296/296/296
f 302/302/302 294/294/294 323/323/323
f 323/323/323 294/294/294 322/322/322
f 302/302/302 323/323/323 324/324/324
f 294/294/294 295/295/295 322/322/322
f 301/301/301 302/302/302 324/324/324
f 322/322/322 295/295/295 321/321/321
f 278/278/278 301/301/301 324/324/324
f 324/324/324 325/325/325 332/332/332
f 325/325/325 326/326/326 331/331/331
f 332/332/332 325/325/325 331/331/331
f 324/324/324 332/332/332 333/333/333
f 278/278/278 324/324/324 333/333/333
f 331/331/331 326/326/326 330/330/330
f 326/326/326 317/317/317 330/330/330
f 318/318/318 319/319/319 336/336/336
f 319/319/319 320/320/320 336/336/336
f 320/320/320 321/321/321 336/336/336
f 321/321/321 295/295/295 336/336/336
f 317/317/317 318/318/318 330/330/330
f 330/330/330 318/318/318 329/329/329
f 334/334/334 335/335/335 313/313/313
f 333/333/333 334/334/334 313/313/313
f 295/295/295 296/296/296 338/338/338
f 336/336/336 295/295/295 338/338/338
f 278/278/278 333/333/333 284/284/284
f 333/333/333 313/313/313 284/284/284
f 335/335/335 327/327/327 315/315/315
f 327/327/327 328/328/328 315/315/315
f 313/313/313 335/335/335 315/315/315
f 315/315/315 328/328/328 337/337/337
f 318/318/318 336/336/336 337/337/337
f 328/328/328 329/329/329 337/337/337
f 329/329/329 318/318/318 337/337/337
f 284/284/284 308/308/308 309/309/309
f 284/284/284 313/313/313 308/308/308
f 313/313/313 314/314/314 308/308/308
f 284/284/284 309/309/309 310/310/310
f 308/308/308 314/314/314 307/307/307
f 307/307/307 314/314/314 306/306/306
f 284/284/284 310/310/310 311/311/311
f 283/283/283 284/284/284 311/311/311
f 306/306/306 314/314/314 305/305/305
f 314/314/314 316/316/316 305/305/305
f 283/283/283 311/311/311 282/282/282
f 311/311/311 312/312/312 282/282/282
f 315/315/315 337/337/337 343/343/343
f 315/315/315 343/343/343 344/344/344
f 337/337/337 339/339/339 343/343/343
f 316/316/316 315/315/315 344/344/344
f 282/282/282 312/312/312 281/281/281
f 338/338/338 296/296/296 414/414/414
f 296/296/296 277/277/277 414/414/414
f 378/378/378 372/372/372 414/414/414
f 372/372/372 338/338/338 414/414/414
f 316/316/316 344/344/344 341/341/341
f 372/372/372 378/378/378 374/374/374
f 343/343/343 339/339/339 346/346/346
f 378/378/378 414/414/414 379/379/379
f 312/312/312 303/303/303 281/281/281
f 303/303/303 304/304/304 281/281/281
f 379/379/379 414/414/414 413/413/413
f 374/374/374 378/378/378 377/377/377
f 415/415/415 422/422/422 412/412/412
f 339/339/339 338/338/338 373/373/373
f 338/338/338 372/372/372 373/373/373
f 379/379/379 413/413/413 418/418/418
f 374/374/374 377/377/377 382/382/382
f 345/345/345 346/346/346 359/359/359
f 345/345/345 359/359/359 360/360/360
f 346/346/346 339/339/339 359/359/359
f 342/342/342 351/351/351 352/352/352
f 341/341/341 342/342/342 352/352/352
f 316/316/316 341/341/341 352/352/352
f 422/422/422 415/415/415 423/423/423
f 412/412/412 422/422/422 421/421/421
f 418/418/418 413/413/413 419/419/419
f 413/413/413 412/412/412 419/419/419
f 377/377/377 376/376/376 383/383/383
f 382/382/382 377/377/377 383/383/383
f 376/376/376 379/379/379 417/417/417
f 379/379/379 418/418/418 417/417/417
f 374/374/374 382/382/382 381/381/381
f 345/345/345 360/360/360 357/357/357
f 347/347/347 345/345/345 357/357/357
f 316/316/316 352/352/352 349/349/349
f 419/419/419 412/412/412 426/426/426
f 412/412/412 421/421/421 426/426/426
f 305/305/305 316/316/316 349/349/349
f 305/305/305 349/349/349 350/350/350
f 347/347/347 357/357/357 358/358/358
f 383/383/383 376/376/376 402/402/402
f 376/376/376 417/417/417 402/402/402
f 340/340/340 347/347/347 358/358/358
f 304/304/304 305/305/305 350/350/350
f 339/339/339 373/373/373 362/362/362
f 359/359/359 339/339/339 362/362/362
f 342/342/342 340/340/340 354/354/354
f 351/351/351 342/342/342 354/354/354
f 421/421/421 420/420/420 427/427/427
f 426/426/426 421/421/421 427/427/427
f 340/340/340 358/358/358 354/354/354
f 362/362/362 373/373/373 361/361/361
f 281/281/281 304/304/304 350/350/350
f 383/383/383 402/402/402 401/401/401
f 380/380/380 383/383/383 401/401/401
f 416/416/416 419/419/419 425/425/425
f 419/419/419 426/426/426 425/425/425
f 417/417/417 416/416/416 403/403/403
f 402/402/402 417/417/417 403/403/403
f 353/353/353 354/354/354 367/367/367
f 354/354/354 358/358/358 367/367/367
f 353/353/353 367/367/367 368/368/368
f 416/416/416 425/425/425 438/438/438
f 403/403/403 416/416/416 438/438/438
f 425/425/425 424/424/424 438/438/438
f 281/281/281 350/350/350 348/348/348
f 374/374/374 381/381/381 375/375/375
f 363/363/363 361/361/361 375/375/375
f 361/361/361 373/373/373 375/375/375
f 403/403/403 438/438/438 437/437/437
f 400/400/400 403/403/403 437/437/437
f 438/438/438 424/424/424 439/439/439
f 380/380/380 401/401/401 384/384/384
f 381/381/381 380/380/380 384/384/384
f 355/355/355 353/353/353 365/365/365
f 353/353/353 368/368/368 365/365/365
f 381/381/381 384/384/384 385/385/385
f 355/355/355 365/365/365 366/366/366
f 367/367/367 358/358/358 370/370/370
f 358/358/358 356/356/356 370/370/370
f 348/348/348 355/355/355 366/366/366
f 439/439/439 424/424/424 458/458/458
f 381/381/381 385/385/385 388/388/388
f 375/375/375 381/381/381 388/388/388
f 281/281/281 348/348/348 366/366/366
f 356/356/356 363/363/363 370/370/370
f 401/401/401 400/400/400 386/386/386
f 384/384/384 401/401/401 386/386/386
f 370/370/370 363/363/363 369/369/369
f 375/375/375 388/388/388 389/389/389
f 388/388/388 385/385/385 387/387/387
f 436/436/436 439/439/439 457/457/457
f 439/439/439 458/458/458 457/457/457
f 458/458/458 424/424/424 459/459/459
f 424/424/424 427/427/427 459/459/459
f 375/375/375 389/389/389 392/392/392
f 388/388/388 387/387/387 390/390/390
f 375/375/375 392/392/392 393/393/393
f 392/392/392 389/389/389 391/391/391
f 387/387/387 386/386/386 440/440/440
f 386/386/386 400/400/400 440/440/440
f 400/400/400 437/437/437 440/440/440
f 437/437/437 436/436/436 440/440/440
f 375/375/375 393/393/393 396/396/396
f 281/281/281 366/366/366 364/364/364
f 392/392/392 391/391/391 394/394/394
f 387/387/387 440/440/440 441/441/441
f 427/427/427 420/420/420 462/462/462
f 459/459/459 427/427/427 462/462/462
f 375/375/375 396/396/396 397/397/397
f 420/420/420 423/423/423 462/462/462
f 387/387/387 441/441/441 444/444/444
f 390/390/390 387/387/387 444/444/444
f 436/436/436 457/457/457 442/442/442
f 440/440/440 436/436/436 442/442/442
f 457/457/457 456/456/456 442/442/442
f 456/456/456 459/459/459 461/461/461
f 459/459/459 462/462/462 461/461/461
f 393/393/393 395/395/395 398/398/398
f 396/396/396 393/393/393 398/398/398
f 462/462/462 423/423/423 463/463/463
f 391/391/391 390/390/390 445/445/445
f 390/390/390 444/444/444 445/445/445
f 394/394/394 391/391/391 445/445/445
f 394/394/394 445/445/445 448/448/448
f 441/441/441 443/443/443 446/446/446
f 444/444/444 441/441/441 446/446/446
f 395/395/395 394/394/394 449/449/449
f 398/398/398 395/395/395 449/449/449
f 394/394/394 448/448/448 449/449/449
f 398/398/398 449/449/449 452/452/452
f 448/448/448 445/445/445 450/450/450
f 445/445/445 447/447/447 450/450/450
f 456/456/456 461/461/461 466/466/466
f 375/375/375 397/397/397 406/406/406
f 461/461/461 460/460/460 466/466/466
f 397/397/397 399/399/399 406/406/406
f 398/398/398 452/452/452 453/453/453
f 399/399/399 398/398/398 453/453/453
f 466/466/466 460/460/460 467/467/467
f 375/375/375 406/406/406 405/405/405
f 442/442/442 456/456/456 465/465/465
f 456/456/456 466/466/466 465/465/465
f 452/452/452 449/449/449 454/454/454
f 449/449/449 451/451/451 454/454/454
f 406/406/406 399/399/399 407/407/407
f 399/399/399 453/453/453 407/407/407
f 375/375/375 405/405/405 410/410/410
f 407/407/407 453/453/453 430/430/430
f 443/443/443 442/442/442 470/470/470
f 442/442/442 465/465/465 470/470/470
f 446/446/446 443/443/443 470/470/470
f 447/447/447 446/446/446 470/470/470
f 375/375/375 410/410/410 409/409/409
f 415/415/415 414/414/414 276/276/276
f 423/423/423 415/415/415 276/276/276
f 414/414/414 277/277/277 276/276/276
f 363/363/363 375/375/375 409/409/409
f 369/369/369 363/363/363 409/409/409
f 405/405/405 404/404/404 411/411/411
f 410/410/410 405/405/405 411/411/411
f 407/407/407 430/430/430 429/429/429
f 404/404/404 407/407/407 429/429/429
f 371/371/371 369/369/369 409/409/409
f 465/465/465 464/464/464 471/471/471
f 470/470/470 465/465/465 471/471/471
f 453/453/453 455/455/455 431/431/431
f 430/430/430 453/453/453 431/431/431
f 447/447/447 470/470/470 469/469/469
f 450/450/450 447/447/447 469/469/469
f 411/411/411 404/404/404 429/429/429
f 451/451/451 450/450/450 469/469/469
f 371/371/371 409/409/409 408/408/408
f 411/411/411 429/429/429 434/434/434
f 464/464/464 467/467/467 483/483/483
f 483/483/483 467/467/467 482/482/482
f 467/467/467 460/460/460 482/482/482
f 451/451/451 469/469/469 474/474/474
f 454/454/454 451/451/451 474/474/474
f 460/460/460 463/463/463 482/482/482
f 471/471/471 464/464/464 483/483/483
f 455/455/455 454/454/454 474/474/474
f 411/411/411 434/434/434 433/433/433
f 408/408/408 411/411/411 433/433/433
f 469/469/469 468/468/468 475/475/475
f 474/474/474 469/469/469 475/475/475
f 429/429/429 428/428/428 435/435/435
f 434/434/434 429/429/429 435/435/435
f 455/455/455 474/474/474 473/473/473
f 431/431/431 455/455/455 473/473/473
f 482/482/482 463/463/463 485/485/485
f 371/371/371 408/408/408 433/433/433
f 364/364/364 371/371/371 433/433/433
f 471/471/471 483/483/483 481/481/481
f 423/423/423 276/276/276 537/537/537
f 276/276/276 536/536/536 537/537/537
f 468/468/468 471/471/471 481/481/481
f 536/536/536 276/276/276 535/535/535
f 364/364/364 433/433/433 432/432/432
f 463/463/463 423/423/423 537/537/537
f 431/431/431 473/473/473 478/478/478
f 535/535/535 276/276/276 534/534/534
f 484/484/484 485/485/485 494/494/494
f 484/484/484 494/494/494 495/495/495
f 485/485/485 463/463/463 494/494/494
f 276/276/276 290/290/290 534/534/534
f 478/478/478 473/473/473 479/479/479
f 473/473/473 472/472/472 479/479/479
f 431/431/431 478/478/478 477/477/477
f 428/428/428 431/431/431 477/477/477
f 468/468/468 481/481/481 488/488/488
f 475/475/475 468/468/468 488/488/488
f 435/435/435 428/428/428 477/477/477
f 290/290/290 291/291/291 534/534/534
f 472/472/472 475/475/475 488/488/488
f 432/432/432 435/435/435 477/477/477
f 480/480/480 484/484/484 492/492/492
f 484/484/484 495/495/495 492/492/492
f 488/488/488 481/481/481 489/489/489
f 481/481/481 480/480/480 489/489/489
f 432/432/432 477/477/477 476/476/476
f 480/480/480 492/492/492 493/493/493
f 533/533/533 534/534/534 291/291/291
f 472/472/472 488/488/488 487/487/487
f 479/479/479 472/472/472 487/487/487
f 480/480/480 493/493/493 489/489/489
f 476/476/476 479/479/479 487/487/487
f 537/537/537 538/538/538 507/507/507
f 494/494/494 463/463/463 507/507/507
f 463/463/463 537/537/537 507/507/507
f 497/497/497 494/494/494 507/507/507
f 496/496/496 497/497/497 507/507/507
f 533/533/533 291/291/291 292/292/292
f 489/489/489 493/493/493 502/502/502
f 503/503/503 489/489/489 502/502/502
f 476/476/476 487/487/487 486/486/486
f 490/490/490 489/489/489 503/503/503
f 490/490/490 503/503/503 500/500/500
f 533/533/533 292/292/292 293/293/293
f 486/486/486 490/490/490 501/501/501
f 490/490/490 500/500/500 501/501/501
f 493/493/493 491/491/491 505/505/505
f 502/502/502 493/493/493 505/505/505
f 476/476/476 486/486/486 501/501/501
f 538/538/538 539/539/539 509/509/509
f 539/539/539 530/530/530 509/509/509
f 507/507/507 538/538/538 509/509/509
f 498/498/498 496/496/496 508/508/508
f 496/496/496 507/507/507 508/508/508
f 531/531/531 532/532/532 293/293/293
f 532/532/532 533/533/533 293/293/293
f 498/498/498 508/508/508 517/517/517
f 508/508/508 516/516/516 517/517/517
f 491/491/491 498/498/498 517/517/517
f 505/505/505 491/491/491 517/517/517
f 504/504/504 505/505/505 517/517/517
f 504/504/504 517/517/517 518/518/518
f 516/516/516 508/508/508 515/515/515
f 530/530/530 531/531/531 510/510/510
f 531/531/531 293/293/293 510/510/510
f 509/509/509 530/530/530 510/510/510
f 508/508/508 510/510/510 515/515/515
f 506/506/506 504/504/504 518/518/518
f 515/515/515 510/510/510 514/514/514
f 506/506/506 518/518/518 519/519/519
f 514/514/514 510/510/510 513/513/513
f 510/510/510 293/293/293 513/513/513
f 506/506/506 519/519/519 526/526/526
f 506/506/506 526/526/526 527/527/527
f 499/499/499 506/506/506 527/527/527
f 519/519/519 520/520/520 526/526/526
f 526/526/526 520/520/520 525/525/525
f 501/501/501 499/499/499 527/527/527
f 520/520/520 511/511/511 525/525/525
f 501/501/501 527/527/527 528/528/528
f 476/476/476 501/501/501 528/528/528
f 525/525/525 511/511/511 524/524/524
f 511/511/511 512/512/512 524/524/524
f 432/432/432 476/476/476 529/529/529
f 476/476/476 528/528/528 529/529/529
f 524/524/524 512/512/512 523/523/523
f 512/512/512 513/513/513 523/523/523
f 521/521/521 546/546/546 547/547/547
f 546/546/546 521/521/521 545/545/545
f 521/521/521 522/522/522 545/545/545
f 529/529/529 521/521/521 547/547/547
f 529/529/529 547/547/547 548/548/548
f 432/432/432 529/529/529 548/548/548
f 545/545/545 522/522/522 544/544/544
f 522/522/522 523/523/523 544/544/544
f 364/364/364 432/432/432 548/548/548
f 544/544/544 523/523/523 286/286/286
f 523/523/523 513/513/513 286/286/286
f 542/542/542 543/543/543 286/286/286
f 513/513/513 293/293/293 286/286/286
f 543/543/543 544/544/544 286/286/286
f 548/548/548 549/549/549 285/285/285
f 549/549/549 550/550/550 285/285/285
f 550/550/550 540/540/540 285/285/285
f 364/364/364 548/548/548 285/285/285
f 281/281/281 364/364/364 285/285/285
f 285/285/285 540/540/540 289/289/289
f 542/542/542 286/286/286 287/287/287
f 540/540/540 541/541/541 289/289/289
f 289/289/289 541/541/541 288/288/288
f 541/541/541 542/542/542 287/287/287
f 541/541/541 287/287/287 288/288/288
f 1/1/1 276/276/276 277/277/277
f 1/1/1 277/277/277 2/2/2
f 4/4/4 279/279/279 278/278/278
f 4/4/4 278/278/278 3/3/3
f 2/2/2 277/277/277 280/280/280
f 2/2/2 280/280/280 5/5/5
f 5/5/5 280/280/280 279/279/279
f 5/5/5 279/279/279 4/4/4
f 7/7/7 282/282/282 281/281/281
f 7/7/7 281/281/281 6/6/6
f 8/8/8 283/283/283 282/282/282
f 8/8/8 282/282/282 7/7/7
f 3/3/3 278/278/278 284/284/284
f 3/3/3 284/284/284 9/9/9
f 9/9/9 284/284/284 283/283/283
f 9/9/9 283/283/283 8/8/8
f 6/6/6 281/281/281 285/285/285
f 6/6/6 285/285/285 10/10/10
f 12/12/12 287/287/287 286/286/286
f 12/12/12 286/286/286 11/11/11
f 13/13/13 288/288/288 287/287/287
f 13/13/13 287/287/287 12/12/12
f 10/10/10 285/285/285 289/289/289
f 10/10/10 289/289/289 14/14/14
f 14/14/14 289/289/289 288/288/288
f 14/14/14 288/288/288 13/13/13
f 15/15/15 290/290/290 276/276/276
f 15/15/15 276/276/276 1/1/1
f 16/16/16 291/291/291 290/290/290
f 16/16/16 290/290/290 15/15/15
f 17/17/17 292/292/292 291/291/291
f 17/17/17 291/291/291 16/16/16
f 11/11/11 286/286/286 293/293/293
f 11/11/11 293/293/293 18/18/18
f 18/18/18 293/293/293 292/292/292
f 18/18/18 292/292/292 17/17/17
f 20/20/20 295/295/295 294/294/294
f 20/20/20 294/294/294 19/19/19
f 21/21/21 296/296/296 295/295/295
f 21/21/21 295/295/295 20/20/20
f 22/22/22 297/297/297 296/296/296
f 22/22/22 296/296/296 21/21/21
f 23/23/23 298/298/298 297/297/297
f 23/23/23 297/297/297 22/22/22
f 24/24/24 299/299/299 298/298/298
f 24/24/24 298/298/298 23/23/23
f 25/25/25 300/300/300 299/299/299
f 25/25/25 299/299/299 24/24/24
f 26/26/26 301/301/301 300/300/300
f 26/26/26 300/300/300 25/25/25
f 19/19/19 294/294/294 302/302/302
f 19/19/19 302/302/302 27/27/27
f 27/27/27 302/302/302 301/301/301
f 27/27/27 301/301/301 26/26/26
f 29/29/29 304/304/304 303/303/303
f 29/29/29 303/303/303 28/28/28
f 30/30/30 305/305/305 304/304/304
f 30/30/30 304/304/304 29/29/29
f 31/31/31 306/306/306 305/305/305
f 31/31/31 305/305/305 30/30/30
f 32/32/32 307/307/307 306/306/306
f 32/32/32 306/306/306 31/31/31
f 33/33/33 308/308/308 307/307/307
f 33/33/33 307/307/307 32/32/32
f 34/34/34 309/309/309 308/308/308
f 34/34/34 308/308/308 33/33/33
f 35/35/35 310/310/310 309/309/309
f 35/35/35 309/309/309 34/34/34
f 36/36/36 311/311/311 310/310/310
f 36/36/36 310/310/310 35/35/35
f 28/28/28 303/303/303 312/312/312
f 28/28/28 312/312/312 37/37/37
f 37/37/37 312/312/312 311/311/311
f 37/37/37 311/311/311 36/36/36
f 39/39/39 314/314/314 313/313/313
f 39/39/39 313/313/313 38/38/38
f 38/38/38 313/313/313 315/315/315
f 38/38/38 315/315/315 40/40/40
f 41/41/41 316/316/316 314/314/314
f 41/41/41 314/314/314 39/39/39
f 40/40/40 315/315/315 316/316/316
f 40/40/40 316/316/316 41/41/41
f 43/43/43 318/318/318 317/317/317
f 43/43/43 317/317/317 42/42/42
f 44/44/44 319/319/319 318/318/318
f 44/44/44 318/318/318 43/43/43
f 45/45/45 320/320/320 319/319/319
f 45/45/45 319/319/319 44/44/44
f 46/46/46 321/321/321 320/320/320
f 46/46/46 320/320/320 45/45/45
f 47/47/47 322/322/322 321/321/321
f 47/47/47 321/321/321 46/46/46
f 48/48/48 323/323/323 322/322/322
f 48/48/48 322/322/322 47/47/47
f 49/49/49 324/324/324 323/323/323
f 49/49/49 323/323/323 48/48/48
f 50/50/50 325/325/325 324/324/324
f 50/50/50 324/324/324 49/49/49
f 42/42/42 317/317/317 326/326/326
f 42/42/42 326/326/326 51/51/51
f 51/51/51 326/326/326 325/325/325
f 51/51/51 325/325/325 50/50/50
f 53/53/53 328/328/328 327/327/327
f 53/53/53 327/327/327 52/52/52
f 54/54/54 329/329/329 328/328/328
f 54/54/54 328/328/328 53/53/53
f 55/55/55 330/330/330 329/329/329
f 55/55/55 329/329/329 54/54/54
f 56/56/56 331/331/331 330/330/330
f 56/56/56 330/330/330 55/55/55
f 57/57/57 332/332/332 331/331/331
f 57/57/57 331/331/331 56/56/56
f 58/58/58 333/333/333 332/332/332
f 58/58/58 332/332/332 57/57/57
f 59/59/59 334/334/334 333/333/333
f 59/59/59 333/333/333 58/58/58
f 52/52/52 327/327/327 335/335/335
f 52/52/52 335/335/335 60/60/60
f 60/60/60 335/335/335 334/334/334
f 60/60/60 334/334/334 59/59/59
f 62/62/62 337/337/337 336/336/336
f 62/62/62 336/336/336 61/61/61
f 61/61/61 336/336/336 338/338/338
f 61/61/61 338/338/338 63/63/63
f 64/64/64 339/339/339 337/337/337
f 64/64/64 337/337/337 62/62/62
f 63/63/63 338/338/338 339/339/339
f 63/63/63 339/339/339 64/64/64
f 65/65/65 340/340/340 342/342/342
f 65/65/65 342/342/342 67/67/67
f 67/67/67 342/342/342 341/341/341
f 67/67/67 341/341/341 66/66/66
f 66/66/66 341/341/341 344/344/344
f 66/66/66 344/344/344 69/69/69
f 69/69/69 344/344/344 343/343/343
f 69/69/69 343/343/343 68/68/68
f 68/68/68 343/343/343 346/346/346
f 68/68/68 346/346/346 71/71/71
f 71/71/71 346/346/346 345/345/345
f 71/71/71 345/345/345 70/70/70
f 72/72/72 347/347/347 340/340/340
f 72/72/72 340/340/340 65/65/65
f 70/70/70 345/345/345 347/347/347
f 70/70/70 347/347/347 72/72/72
f 73/73/73 348/348/348 350/350/350
f 73/73/73 350/350/350 75/75/75
f 75/75/75 350/350/350 349/349/349
f 75/75/75 349/349/349 74/74/74
f 74/74/74 349/349/349 352/352/352
f 74/74/74 352/352/352 77/77/77
f 77/77/77 352/352/352 351/351/351
f 77/77/77 351/351/351 76/76/76
f 76/76/76 351/351/351 354/354/354
f 76/76/76 354/354/354 79/79/79
f 79/79/79 354/354/354 353/353/353
f 79/79/79 353/353/353 78/78/78
f 80/80/80 355/355/355 348/348/348
f 80/80/80 348/348/348 73/73/73
f 78/78/78 353/353/353 355/355/355
f 78/78/78 355/355/355 80/80/80
f 81/81/81 356/356/356 358/358/358
f 81/81/81 358/358/358 83/83/83
f 83/83/83 358/358/358 357/357/357
f 83/83/83 357/357/357 82/82/82
f 82/82/82 357/357/357 360/360/360
f 82/82/82 360/360/360 85/85/85
f 85/85/85 360/360/360 359/359/359
f 85/85/85 359/359/359 84/84/84
f 84/84/84 359/359/359 362/362/362
f 84/84/84 362/362/362 87/87/87
f 87/87/87 362/362/362 361/361/361
f 87/87/87 361/361/361 86/86/86
f 88/88/88 363/363/363 356/356/356
f 88/88/88 356/356/356 81/81/81
f 86/86/86 361/361/361 363/363/363
f 86/86/86 363/363/363 88/88/88
f 89/89/89 364/364/364 366/366/366
f 89/89/89 366/366/366 91/91/91
f 91/91/91 366/366/366 365/365/365
f 91/91/91 365/365/365 90/90/90
f 90/90/90 365/365/365 368/368/368
f 90/90/90 368/368/368 93/93/93
f 93/93/93 368/368/368 367/367/367
f 93/93/93 367/367/367 92/92/92
f 92/92/92 367/367/367 370/370/370
f 92/92/92 370/370/370 95/95/95
f 95/95/95 370/370/370 369/369/369
f 95/95/95 369/369/369 94/94/94
f 96/96/96 371/371/371 364/364/364
f 96/96/96 364/364/364 89/89/89
f 94/94/94 369/369/369 371/371/371
f 94/94/94 371/371/371 96/96/96
f 98/98/98 373/373/373 372/372/372
f 98/98/98 372/372/372 97/97/97
f 97/97/97 372/372/372 374/374/374
f 97/97/97 374/374/374 99/99/99
f 100/100/100 375/375/375 373/373/373
f 100/100/100 373/373/373 98/98/98
f 99/99/99 374/374/374 375/375/375
f 99/99/99 375/375/375 100/100/100
f 101/101/101 376/376/376 377/377/377
f 101/101/101 377/377/377 102/102/102
f 102/102/102 377/377/377 378/378/378
f 102/102/102 378/378/378 103/103/103
f 104/104/104 379/379/379 376/376/376
f 104/104/104 376/376/376 101/101/101
f 103/103/103 378/378/378 379/379/379
f 103/103/103 379/379/379 104/104/104
f 105/105/105 380/380/380 381/381/381
f 105/105/105 381/381/381 106/106/106
f 106/106/106 381/381/381 382/382/382
f 106/106/106 382/382/382 107/107/107
f 108/108/108 383/383/383 380/380/380
f 108/108/108 380/380/380 105/105/105
f 107/107/107 382/382/382 383/383/383
f 107/107/107 383/383/383 108/108/108
f 110/110/110 385/385/385 384/384/384
f 110/110/110 384/384/384 109/109/109
f 109/109/109 384/384/384 386/386/386
f 109/109/109 386/386/386 111/111/111
f 112/112/112 387/387/387 385/385/385
f 112/112/112 385/385/385 110/110/110
f 111/111/111 386/386/386 387/387/387
f 111/111/111 387/387/387 112/112/112
f 114/114/114 389/389/389 388/388/388
f 114/114/114 388/388/388 113/113/113
f 113/113/113 388/388/388 390/390/390
f 113/113/113 390/390/390 115/115/115
f 116/116/116 391/391/391 389/389/389
f 116/116/116 389/389/389 114/114/114
f 115/115/115 390/390/390 391/391/391
f 115/115/115 391/391/391 116/116/116
f 118/118/118 393/393/393 392/392/392
f 118/118/118 392/392/392 117/117/117
f 117/117/117 392/392/392 394/394/394
f 117/117/117 394/394/394 119/119/119
f 120/120/120 395/395/395 393/393/393
f 120/120/120 393/393/393 118/118/118
f 119/119/119 394/394/394 395/395/395
f 119/119/119 395/395/395 120/120/120
f 122/122/122 397/397/397 396/396/396
f 122/122/122 396/396/396 121/121/121
f 121/121/121 396/396/396 398/398/398
f 121/121/121 398/398/398 123/123/123
f 124/124/124 399/399/399 397/397/397
f 124/124/124 397/397/397 122/122/122
f 123/123/123 398/398/398 399/399/399
f 123/123/123 399/399/399 124/124/124
f 125/125/125 400/400/400 401/401/401
f 125/125/125 401/401/401 126/126/126
f 126/126/126 401/401/401 402/402/402
f 126/126/126 402/402/402 127/127/127
f 128/128/128 403/403/403 400/400/400
f 128/128/128 400/400/400 125/125/125
f 127/127/127 402/402/402 403/403/403
f 127/127/127 403/403/403 128/128/128
f 129/129/129 404/404/404 405/405/405
f 129/129/129 405/405/405 130/130/130
f 130/130/130 405/405/405 406/406/406
f 130/130/130 406/406/406 131/131/131
f 132/132/132 407/407/407 404/404/404
f 132/132/132 404/404/404 129/129/129
f 131/131/131 406/406/406 407/407/407
f 131/131/131 407/407/407 132/132/132
f 133/133/133 408/408/408 409/409/409
f 133/133/133 409/409/409 134/134/134
f 134/134/134 409/409/409 410/410/410
f 134/134/134 410/410/410 135/135/135
f 136/136/136 411/411/411 408/408/408
f 136/136/136 408/408/408 133/133/133
f 135/135/135 410/410/410 411/411/411
f 135/135/135 411/411/411 136/136/136
f 137/137/137 412/412/412 413/413/413
f 137/137/137 413/413/413 138/138/138
f 138/138/138 413/413/413 414/414/414
f 138/138/138 414/414/414 139/139/139
f 140/140/140 415/415/415 412/412/412
f 140/140/140 412/412/412 137/137/137
f 139/139/139 414/414/414 415/415/415
f 139/139/139 415/415/415 140/140/140
f 141/141/141 416/416/416 417/417/417
f 141/141/141 417/417/417 142/142/142
f 142/142/142 417/417/417 418/418/418
f 142/142/142 418/418/418 143/143/143
f 144/144/144 419/419/419 416/416/416
f 144/144/144 416/416/416 141/141/141
f 143/143/143 418/418/418 419/419/419
f 143/143/143 419/419/419 144/144/144
f 145/145/145 420/420/420 421/421/421
f 145/145/145 421/421/421 146/146/146
f 146/146/146 421/421/421 422/422/422
f 146/146/146 422/422/422 147/147/147
f 148/148/148 423/423/423 420/420/420
f 148/148/148 420/420/420 145/145/145
f 147/147/147 422/422/422 423/423/423
f 147/147/147 423/423/423 148/148/148
f 149/149/149 424/424/424 425/425/425
f 149/149/149 425/425/425 150/150/150
f 150/150/150 425/425/425 426/426/426
f 150/150/150 426/426/426 151/151/151
f 152/152/152 427/427/427 424/424/424
f 152/152/152 424/424/424 149/149/149
f 151/151/151 426/426/426 427/427/427
f 151/151/151 427/427/427 152/152/152
f 153/153/153 428/428/428 429/429/429
f 153/153/153 429/429/429 154/154/154
f 154/154/154 429/429/429 430/430/430
f 154/154/154 430/430/430 155/155/155
f 156/156/156 431/431/431 428/428/428
f 156/156/156 428/428/428 153/153/153
f 155/155/155 430/430/430 431/431/431
f 155/155/155 431/431/431 156/156/156
f 157/157/157 432/432/432 433/433/433
f 157/157/157 433/433/433 158/158/158
f 158/158/158 433/433/433 434/434/434
f 158/158/158 434/434/434 159/159/159
f 160/160/160 435/435/435 432/432/432
f 160/160/160 432/432/432 157/157/157
f 159/159/159 434/434/434 435/435/435
f 159/159/159 435/435/435 160/160/160
f 161/161/161 436/436/436 437/437/437
f 161/161/161 437/437/437 162/162/162
f 162/162/162 437/437/437 438/438/438
f 162/162/162 438/438/438 163/163/163
f 164/164/164 439/439/439 436/436/436
f 164/164/164 436/436/436 161/161/161
f 163/163/163 438/438/438 439/439/439
f 163/163/163 439/439/439 164/164/164
f 166/166/166 441/441/441 440/440/440
f 166/166/166 440/440/440 165/165/165
f 165/165/165 440/440/440 442/442/442
f 165/165/165 442/442/442 167/167/167
f 168/168/168 443/443/443 441/441/441
f 168/168/168 441/441/441 166/166/166
f 167/167/167 442/442/442 443/443/443
f 167/167/167 443/443/443 168/168/168
f 170/170/170 445/445/445 444/444/444
f 170/170/170 444/444/444 169/169/169
f 169/169/169 444/444/444 446/446/446
f 169/169/169 446/446/446 171/171/171
f 172/172/172 447/447/447 445/445/445
f 172/172/172 445/445/445 170/170/170
f 171/171/171 446/446/446 447/447/447
f 171/171/171 447/447/447 172/172/172
f 174/174/174 449/449/449 448/448/448
f 174/174/174 448/448/448 173/173/173
f 173/173/173 448/448/448 450/450/450
f 173/173/173 450/450/450 175/175/175
f 176/176/176 451/451/451 449/449/449
f 176/176/176 449/449/449 174/174/174
f 175/175/175 450/450/450 451/451/451
f 175/175/175 451/451/451 176/176/176
f 178/178/178 453/453/453 452/452/452
f 178/178/178 452/452/452 177/177/177
f 177/177/177 452/452/452 454/454/454
f 177/177/177 454/454/454 179/179/179
f 180/180/180 455/455/455 453/453/453
f 180/180/180 453/453/453 178/178/178
f 179/179/179 454/454/454 455/455/455
f 179/179/179 455/455/455 180/180/180
f 181/181/181 456/456/456 457/457/457
f 181/181/181 457/457/457 182/182/182
f 182/182/182 457/457/457 458/458/458
f 182/182/182 458/458/458 183/183/183
f 184/184/184 459/459/459 456/456/456
f 184/184/184 456/456/456 181/181/181
f 183/183/183 458/458/458 459/459/459
f 183/183/183 459/459/459 184/184/184
f 185/185/185 460/460/460 461/461/461
f 185/185/185 461/461/461 186/186/186
f 186/186/186 461/461/461 462/462/462
f 186/186/186 462/462/462 187/187/187
f 188/188/188 463/463/463 460/460/460
f 188/188/188 460/460/460 185/185/185
f 187/187/187 462/462/462 463/463/463
f 187/187/187 463/463/463 188/188/188
f 189/189/189 464/464/464 465/465/465
f 189/189/189 465/465/465 190/190/190
f 190/190/190 465/465/465 466/466/466
f 190/190/190 466/466/466 191/191/191
f 192/192/192 467/467/467 464/464/464
f 192/192/192 464/464/464 189/189/189
f 191/191/191 466/466/466 467/467/467
f 191/191/191 467/467/467 192/192/192
f 193/193/193 468/468/468 469/469/469
f 193/193/193 469/469/469 194/194/194
f 194/194/194 469/469/469 470/470/470
f 194/194/194 470/470/470 195/195/195
f 196/196/196 471/471/471 468/468/468
f 196/196/196 468/468/468 193/193/193
f 195/195/195 470/470/470 471/471/471
f 195/195/195 471/471/471 196/196/196
f 197/197/197 472/472/472 473/473/473
f 197/197/197 473/473/473 198/198/198
f 198/198/198 473/473/473 474/474/474
f 198/198/198 474/474/474 199/199/199
f 200/200/200 475/475/475 472/472/472
f 200/200/200 472/472/472 197/197/197
f 199/199/199 474/474/474 475/475/475
f 199/199/199 475/475/475 200/200/200
f 201/201/201 476/476/476 477/477/477
f 201/201/201 477/477/477 202/202/202
f 202/202/202 477/477/477 478/478/478
f 202/202/202 478/478/478 203/203/203
f 204/204/204 479/479/479 476/476/476
f 204/204/204 476/476/476 201/201/201
f 203/203/203 478/478/478 479/479/479
f 203/203/203 479/479/479 204/204/204
f 205/205/205 480/480/480 481/481/481
f 205/205/205 481/481/481 206/206/206
f 206/206/206 481/481/481 483/483/483
f 206/206/206 483/483/483 208/208/208
f 208/208/208 483/483/483 482/482/482
f 208/208/208 482/482/482 207/207/207
f 209/209/209 484/484/484 480/480/480
f 209/209/209 480/480/480 205/205/205
f 207/207/207 482/482/482 485/485/485
f 207/207/207 485/485/485 210/210/210
f 210/210/210 485/485/485 484/484/484
f 210/210/210 484/484/484 209/209/209
f 211/211/211 486/486/486 487/487/487
f 211/211/211 487/487/487 212/212/212
f 212/212/212 487/487/487 488/488/488
f 212/212/212 488/488/488 213/213/213
f 213/213/213 488/488/488 489/489/489
f 213/213/213 489/489/489 214/214/214
f 215/215/215 490/490/490 486/486/486
f 215/215/215 486/486/486 211/211/211
f 214/214/214 489/489/489 490/490/490
f 214/214/214 490/490/490 215/215/215
f 216/216/216 491/491/491 493/493/493
f 216/216/216 493/493/493 218/218/218
f 218/218/218 493/493/493 492/492/492
f 218/218/218 492/492/492 217/217/217
f 217/217/217 492/492/492 495/495/495
f 217/217/217 495/495/495 220/220/220
f 220/220/220 495/495/495 494/494/494
f 220/220/220 494/494/494 219/219/219
f 219/219/219 494/494/494 497/497/497
f 219/219/219 497/497/497 222/222/222
f 222/222/222 497/497/497 496/496/496
f 222/222/222 496/496/496 221/221/221
f 223/223/223 498/498/498 491/491/491
f 223/223/223 491/491/491 216/216/216
f 221/221/221 496/496/496 498/498/498
f 221/221/221 498/498/498 223/223/223
f 224/224/224 499/499/499 501/501/501
f 224/224/224 501/501/501 226/226/226
f 226/226/226 501/501/501 500/500/500
f 226/226/226 500/500/500 225/225/225
f 225/225/225 500/500/500 503/503/503
f 225/225/225 503/503/503 228/228/228
f 228/228/228 503/503/503 502/502/502
f 228/228/228 502/502/502 227/227/227
f 227/227/227 502/502/502 505/505/505
f 227/227/227 505/505/505 230/230/230
f 230/230/230 505/505/505 504/504/504
f 230/230/230 504/504/504 229/229/229
f 231/231/231 506/506/506 499/499/499
f 231/231/231 499/499/499 224/224/224
f 229/229/229 504/504/504 506/506/506
f 229/229/229 506/506/506 231/231/231
f 233/233/233 508/508/508 507/507/507
f 233/233/233 507/507/507 232/232/232
f 232/232/232 507/507/507 509/509/509
f 232/232/232 509/509/509 234/234/234
f 235/235/235 510/510/510 508/508/508
f 235/235/235 508/508/508 233/233/233
f 234/234/234 509/509/509 510/510/510
f 234/234/234 510/510/510 235/235/235
f 237/237/237 512/512/512 511/511/511
f 237/237/237 511/511/511 236/236/236
f 238/238/238 513/513/513 512/512/512
f 238/238/238 512/512/512 237/237/237
f 239/239/239 514/514/514 513/513/513
f 239/239/239 513/513/513 238/238/238
f 240/240/240 515/515/515 514/514/514
f 240/240/240 514/514/514 239/239/239
f 241/241/241 516/516/516 515/515/515
f 241/241/241 515/515/515 240/240/240
f 242/242/242 517/517/517 516/516/516
f 242/242/242 516/516/516 241/241/241
f 243/243/243 518/518/518 517/517/517
f 243/243/243 517/517/517 242/242/242
f 244/244/244 519/519/519 518/518/518
f 244/244/244 518/518/518 243/243/243
f 236/236/236 511/511/511 520/520/520
f 236/236/236 520/520/520 245/245/245
f 245/245/245 520/520/520 519/519/519
f 245/245/245 519/519/519 244/244/244
f 247/247/247 522/522/522 521/521/521
f 247/247/247 521/521/521 246/246/246
f 248/248/248 523/523/523 522/522/522
f 248/248/248 522/522/522 247/247/247
f 249/249/249 524/524/524 523/523/523
f 249/249/249 523/523/523 248/248/248
f 250/250/250 525/525/525 524/524/524
f 250/250/250 524/524/524 249/249/249
f 251/251/251 526/526/526 525/525/525
f 251/251/251 525/525/525 250/250/250
f 252/252/252 527/527/527 526/526/526
f 252/252/252 526/526/526 251/251/251
f 253/253/253 528/528/528 527/527/527
f 253/253/253 527/527/527 252/252/252
f 246/246/246 521/521/521 529/529/529
f 246/246/246 529/529/529 254/254/254
f 254/254/254 529/529/529 528/528/528
f 254/254/254 528/528/528 253/253/253
f 256/256/256 531/531/531 530/530/530
f 256/256/256 530/530/530 255/255/255
f 257/257/257 532/532/532 531/531/531
f 257/257/257 531/531/531 256/256/256
f 258/258/258 533/533/533 532/532/532
f 258/258/258 532/532/532 257/257/257
f 259/259/259 534/534/534 533/533/533
f 259/259/259 533/533/533 258/258/258
f 260/260/260 535/535/535 534/534/534
f 260/260/260 534/534/534 259/259/259
f 261/261/261 536/536/536 535/535/535
f 261/261/261 535/535/535 260/260/260
f 262/262/262 537/537/537 536/536/536
f 262/262/262 536/536/536 261/261/261
f 263/263/263 538/538/538 537/537/537
f 263/263/263 537/537/537 262/262/262
f 255/255/255 530/530/530 539/539/539
f 255/255/255 539/539/539 264/264/264
f 264/264/264 539/539/539 538/538/538
f 264/264/264 538/538/538 263/263/263
f 266/266/266 541/541/541 540/540/540
f 266/266/266 540/540/540 265/265/265
f 267/267/267 542/542/542 541/541/541
f 267/267/267 541/541/541 266/266/266
f 268/268/268 543/543/543 542/542/542
f 268/268/268 542/542/542 267/267/267
f 269/269/269 544/544/544 543/543/543
f 269/269/269 543/543/543 268/268/268
f 270/270/270 545/545/545 544/544/544
f 270/270/270 544/544/544 269/269/269
f 271/271/271 546/546/546 545/545/545
f 271/271/271 545/545/545 270/270/270
f 272/272/272 547/547/547 546/546/546
f 272/272/272 546/546/546 271/271/271
f 273/273/273 548/548/548 547/547/547
f 273/273/273 547/547/547 272/272/272
f 274/274/274 549/549/549 548/548/548
f 274/274/274 548/548/548 273/273/273
f 265/265/265 540/540/540 550/550/550
f 265/265/265 550/550/550 275/275/275
f 275/275/275 550/550/550 549/549/549
f 275/275/275 549/549/549 274/274/274
