# OMX visual mesh; coordinates in metres
mtllib materials.mtl
usemtl white_led_diffuser
v -0.0026000 0.0039000 0.0205000
v -0.0026000 0.0039000 0.0185000
v -0.0016089 0.0039000 0.0185000
v -0.0016089 0.0039000 0.0170000
v -0.0003000 0.0039000 0.0170000
v 0.0000000 0.0039000 0.0173000
v 0.0000000 0.0039000 0.0205000
v -0.0026000 0.0039000 0.0205000
v -0.0026000 0.0039000 0.0185000
v -0.0026000 -0.0039000 0.0185000
v -0.0026000 -0.0039000 0.0205000
v -0.0026000 0.0039000 0.0205000
v 0.0000000 0.0039000 0.0205000
v -0.0026000 -0.0039000 0.0205000
v -0.0000000 -0.0039000 0.0205000
v 0.0000000 0.0039000 0.0173000
v 0.0000000 0.0039000 0.0205000
v -0.0000000 -0.0039000 0.0205000
v -0.0000000 -0.0039000 0.0173000
v -0.0003000 0.0039000 0.0170000
v 0.0000000 0.0039000 0.0173000
v -0.0000000 -0.0039000 0.0173000
v -0.0003000 -0.0039000 0.0170000
v -0.0016089 0.0039000 0.0170000
v -0.0003000 0.0039000 0.0170000
v -0.0003000 -0.0039000 0.0170000
v -0.0016089 -0.0039000 0.0170000
v -0.0013379 0.0031480 0.0170000
v -0.0011254 0.0023774 0.0170000
v -0.0009042 0.0011272 0.0170000
v -0.0008536 -0.0004706 0.0170000
v -0.0010484 -0.0020573 0.0170000
v -0.0013379 -0.0031480 0.0170000
v -0.0016089 0.0039000 0.0185000
v -0.0016089 0.0039000 0.0170000
v -0.0016089 -0.0039000 0.0170000
v -0.0013379 0.0031480 0.0170000
v -0.0011254 0.0023774 0.0170000
v -0.0009042 0.0011272 0.0170000
v -0.0008536 -0.0004706 0.0170000
v -0.0010484 -0.0020573 0.0170000
v -0.0013379 -0.0031480 0.0170000
v -0.0016089 -0.0039000 0.0185000
v -0.0013379 -0.0031480 0.0185000
v -0.0011254 -0.0023774 0.0185000
v -0.0009042 -0.0011272 0.0185000
v -0.0008536 0.0004706 0.0185000
v -0.0010484 0.0020573 0.0185000
v -0.0013379 0.0031480 0.0185000
v -0.0026000 0.0039000 0.0185000
v -0.0016089 0.0039000 0.0185000
v -0.0026000 -0.0039000 0.0185000
v -0.0016089 -0.0039000 0.0185000
v -0.0013379 -0.0031480 0.0185000
v -0.0011254 -0.0023774 0.0185000
v -0.0009042 -0.0011272 0.0185000
v -0.0008536 0.0004706 0.0185000
v -0.0010484 0.0020573 0.0185000
v -0.0013379 0.0031480 0.0185000
v -0.0026000 -0.0039000 0.0185000
v -0.0026000 -0.0039000 0.0205000
v -0.0000000 -0.0039000 0.0205000
v -0.0000000 -0.0039000 0.0173000
v -0.0003000 -0.0039000 0.0170000
v -0.0016089 -0.0039000 0.0170000
v -0.0016089 -0.0039000 0.0185000
vn 0.000000 1.000000 -0.000000
vn 0.000000 1.000000 0.000000
vn 0.000000 1.000000 0.000000
vn 0.000000 1.000000 0.000000
vn 0.000000 1.000000 0.000000
vn 0.000000 1.000000 0.000000
vn 0.000000 1.000000 -0.000000
vn -1.000000 0.000000 0.000000
vn -1.000000 0.000000 0.000000
vn -1.000000 0.000000 0.000000
vn -1.000000 0.000000 0.000000
vn 0.000000 0.000000 1.000000
vn 0.000000 0.000000 1.000000
vn 0.000000 0.000000 1.000000
vn 0.000000 0.000000 1.000000
vn 1.000000 -0.000000 0.000000
vn 1.000000 -0.000000 0.000000
vn 1.000000 -0.000000 0.000000
vn 1.000000 -0.000000 0.000000
vn 0.707106 -0.000000 -0.707108
vn 0.707106 -0.000000 -0.707108
vn 0.707106 -0.000000 -0.707108
vn 0.707106 -0.000000 -0.707108
vn 0.000000 0.000000 -1.000000
vn 0.000000 0.000000 -1.000000
vn 0.000000 0.000000 -1.000000
vn 0.000000 0.000000 -1.000000
vn 0.000000 0.000000 -1.000000
vn 0.000000 0.000000 -1.000000
vn 0.000000 0.000000 -1.000000
vn 0.000000 0.000000 -1.000000
vn 0.000000 0.000000 -1.000000
vn 0.000000 0.000000 -1.000000
vn -0.940751 -0.339097 0.000000
vn -0.940751 -0.339097 0.000000
vn -0.940751 0.339098 0.000000
vn -0.953682 -0.300808 -0.002136
vn -0.973996 -0.226558 0.001654
vn -0.994391 -0.105627 0.005479
vn -0.998976 0.044598 0.007567
vn -0.980895 0.194497 0.004079
vn -0.954534 0.298102 0.000000
vn -0.940751 0.339098 0.000000
vn -0.953682 0.300809 0.002136
vn -0.973996 0.226559 -0.001654
vn -0.994391 0.105627 -0.005479
vn -0.998976 -0.044598 -0.007567
vn -0.980895 -0.194497 -0.004079
vn -0.954534 -0.298102 0.000000
vn 0.000000 0.000000 -1.000000
vn 0.000000 0.000000 -1.000000
vn 0.000000 0.000000 -1.000000
vn 0.000000 0.000000 -1.000000
vn 0.000000 0.000000 -1.000000
vn 0.000000 0.000000 -1.000000
vn 0.000000 0.000000 -1.000000
vn 0.000000 0.000000 -1.000000
vn 0.000000 0.000000 -1.000000
vn 0.000000 0.000000 -1.000000
vn -0.000000 -1.000000 0.000000
vn -0.000000 -1.000000 -0.000000
vn -0.000000 -1.000000 -0.000000
vn -0.000000 -1.000000 0.000000
vn -0.000000 -1.000000 0.000000
vn -0.000000 -1.000000 0.000000
vn -0.000000 -1.000000 0.000000
f 3//3 2//2 1//1
f 3//3 1//1 7//7
f 5//5 4//4 3//3
f 6//6 3//3 7//7
f 6//6 5//5 3//3
f 10//10 11//11 8//8
f 10//10 8//8 9//9
f 14//14 13//13 12//12
f 14//14 15//15 13//13
f 18//18 19//19 16//16
f 18//18 16//16 17//17
f 22//22 23//23 20//20
f 22//22 20//20 21//21
f 26//26 27//27 33//33
f 25//25 31//31 30//30
f 25//25 26//26 31//31
f 26//26 33//33 32//32
f 25//25 28//28 24//24
f 30//30 29//29 25//25
f 29//29 28//28 25//25
f 26//26 32//32 31//31
f 41//41 45//45 46//46
f 36//36 43//43 42//42
f 42//42 44//44 41//41
f 42//42 43//43 44//44
f 41//41 44//44 45//45
f 41//41 46//46 40//40
f 40//40 47//47 39//39
f 37//37 49//49 35//35
f 39//39 48//48 38//38
f 39//39 47//47 48//48
f 38//38 48//48 37//37
f 37//37 48//48 49//49
f 35//35 49//49 34//34
f 40//40 46//46 47//47
f 51//51 59//59 50//50
f 59//59 58//58 50//50
f 50//50 57//57 52//52
f 50//50 58//58 57//57
f 57//57 56//56 52//52
f 55//55 54//54 52//52
f 54//54 53//53 52//52
f 56//56 55//55 52//52
f 63//63 62//62 66//66
f 66//66 62//62 61//61
f 66//66 61//61 60//60
f 64//64 66//66 65//65
f 63//63 66//66 64//64
