# OMX visual mesh; coordinates in metres
mtllib materials.mtl
usemtl bic30_rev02_ceramic
v 0.0567702 0.0049500 -0.0106817
v 0.0567720 0.0049500 -0.0106763
v 0.0567744 0.0049500 -0.0106725
v 0.0567775 0.0049500 -0.0106693
v 0.0567813 0.0049500 -0.0106670
v 0.0567870 0.0049500 -0.0106651
v 0.0567864 0.0055500 -0.0106652
v 0.0567703 0.0055500 -0.0106816
v 0.0567720 0.0055500 -0.0106763
v 0.0567744 0.0055500 -0.0106725
v 0.0567775 0.0055500 -0.0106693
v 0.0567813 0.0055500 -0.0106670
v 0.0572136 0.0049500 -0.0106652
v 0.0572298 0.0049500 -0.0106820
v 0.0572297 0.0055500 -0.0106814
v 0.0572280 0.0055500 -0.0106763
v 0.0572256 0.0055500 -0.0106725
v 0.0572225 0.0055500 -0.0106693
v 0.0572187 0.0055500 -0.0106670
v 0.0572130 0.0055500 -0.0106651
v 0.0572280 0.0049500 -0.0106763
v 0.0572256 0.0049500 -0.0106725
v 0.0572225 0.0049500 -0.0106693
v 0.0572187 0.0049500 -0.0106670
v 0.0572298 0.0055500 -0.0111080
v 0.0572297 0.0049500 -0.0111086
v 0.0572280 0.0049500 -0.0111136
v 0.0572256 0.0049500 -0.0111174
v 0.0572225 0.0049500 -0.0111206
v 0.0572187 0.0049500 -0.0111230
v 0.0572135 0.0049500 -0.0111247
v 0.0572133 0.0055500 -0.0111248
v 0.0572280 0.0055500 -0.0111136
v 0.0572256 0.0055500 -0.0111174
v 0.0572225 0.0055500 -0.0111206
v 0.0572187 0.0055500 -0.0111230
v 0.0567867 0.0049500 -0.0111248
v 0.0567703 0.0049500 -0.0111084
v 0.0567702 0.0055500 -0.0111083
v 0.0567720 0.0055500 -0.0111136
v 0.0567744 0.0055500 -0.0111174
v 0.0567775 0.0055500 -0.0111206
v 0.0567813 0.0055500 -0.0111230
v 0.0567866 0.0055500 -0.0111247
v 0.0567720 0.0049500 -0.0111136
v 0.0567744 0.0049500 -0.0111174
v 0.0567775 0.0049500 -0.0111206
v 0.0567813 0.0049500 -0.0111230
vn -0.987129 -0.000012 0.159926
vn -0.904390 0.000000 0.426707
vn -0.781663 0.000000 0.623701
vn -0.623125 0.000000 0.782122
vn -0.421961 -0.000061 0.906614
vn -0.154209 -0.000081 0.988038
vn -0.161220 0.000088 0.986918
vn -0.987608 0.000087 0.156940
vn -0.905731 0.000030 0.423854
vn -0.781663 0.000000 0.623701
vn -0.623125 0.000000 0.782122
vn -0.428084 0.000000 0.903739
vn 0.161004 -0.000088 0.986954
vn 0.988071 -0.000077 0.154002
vn 0.986953 0.000088 0.161007
vn 0.904021 0.000000 0.427489
vn 0.781663 0.000000 0.623701
vn 0.623125 0.000000 0.782122
vn 0.421960 0.000059 0.906614
vn 0.154210 0.000079 0.988038
vn 0.906891 -0.000061 0.421366
vn 0.781663 0.000000 0.623701
vn 0.623125 0.000000 0.782122
vn 0.427885 0.000000 0.903833
vn 0.988013 0.000089 -0.154371
vn 0.986778 -0.000081 -0.162079
vn 0.903550 0.000000 -0.428483
vn 0.781663 0.000000 -0.623701
vn 0.623125 0.000000 -0.782122
vn 0.425369 -0.000028 -0.905020
vn 0.158171 -0.000091 -0.987412
vn 0.160952 0.000013 -0.986962
vn 0.906728 0.000067 -0.421716
vn 0.781663 0.000000 -0.623701
vn 0.623125 0.000000 -0.782122
vn 0.428051 0.000000 -0.903755
vn -0.161159 -0.000013 -0.986928
vn -0.987543 -0.000087 -0.157350
vn -0.987063 0.000012 -0.160336
vn -0.904213 0.000000 -0.427082
vn -0.781663 0.000000 -0.623701
vn -0.623125 0.000000 -0.782122
vn -0.425179 0.000032 -0.905109
vn -0.157960 0.000095 -0.987446
vn -0.905555 -0.000030 -0.424229
vn -0.781663 0.000000 -0.623701
vn -0.623125 0.000000 -0.782122
vn -0.428241 0.000000 -0.903665
f 9//9 1//1 2//2
f 34//34 27//27 28//28
f 34//34 33//33 27//27
f 35//35 28//28 29//29
f 35//35 34//34 28//28
f 36//36 29//29 30//30
f 36//36 35//35 29//29
f 32//32 30//30 31//31
f 32//32 36//36 30//30
f 32//32 31//31 37//37
f 33//33 25//25 26//26
f 32//32 37//37 44//44
f 43//43 44//44 37//37
f 42//42 48//48 47//47
f 42//42 43//43 48//48
f 41//41 47//47 46//46
f 41//41 42//42 47//47
f 40//40 46//46 45//45
f 40//40 41//41 46//46
f 39//39 45//45 38//38
f 39//39 40//40 45//45
f 43//43 37//37 48//48
f 33//33 26//26 27//27
f 25//25 14//14 26//26
f 25//25 15//15 14//14
f 9//9 8//8 1//1
f 10//10 2//2 3//3
f 10//10 9//9 2//2
f 11//11 3//3 4//4
f 11//11 10//10 3//3
f 12//12 4//4 5//5
f 12//12 11//11 4//4
f 7//7 5//5 6//6
f 7//7 12//12 5//5
f 20//20 6//6 13//13
f 20//20 7//7 6//6
f 19//19 13//13 24//24
f 19//19 20//20 13//13
f 18//18 24//24 23//23
f 18//18 19//19 24//24
f 17//17 23//23 22//22
f 17//17 18//18 23//23
f 16//16 22//22 21//21
f 16//16 17//17 22//22
f 15//15 21//21 14//14
f 15//15 16//16 21//21
f 39//39 1//1 8//8
f 39//39 38//38 1//1
v 0.0572000 -0.0020202 -0.0106817
v 0.0572000 -0.0020220 -0.0106763
v 0.0572000 -0.0020244 -0.0106725
v 0.0572000 -0.0020275 -0.0106693
v 0.0572000 -0.0020313 -0.0106670
v 0.0572000 -0.0020370 -0.0106651
v 0.0578000 -0.0020364 -0.0106652
v 0.0578000 -0.0020203 -0.0106816
v 0.0578000 -0.0020220 -0.0106763
v 0.0578000 -0.0020244 -0.0106725
v 0.0578000 -0.0020275 -0.0106693
v 0.0578000 -0.0020313 -0.0106670
v 0.0572000 -0.0024636 -0.0106652
v 0.0572000 -0.0024798 -0.0106820
v 0.0578000 -0.0024797 -0.0106814
v 0.0578000 -0.0024780 -0.0106763
v 0.0578000 -0.0024756 -0.0106725
v 0.0578000 -0.0024725 -0.0106693
v 0.0578000 -0.0024687 -0.0106670
v 0.0578000 -0.0024630 -0.0106651
v 0.0572000 -0.0024780 -0.0106763
v 0.0572000 -0.0024756 -0.0106725
v 0.0572000 -0.0024725 -0.0106693
v 0.0572000 -0.0024687 -0.0106670
v 0.0578000 -0.0024798 -0.0111080
v 0.0572000 -0.0024797 -0.0111086
v 0.0572000 -0.0024780 -0.0111137
v 0.0572000 -0.0024756 -0.0111174
v 0.0572000 -0.0024725 -0.0111206
v 0.0572000 -0.0024687 -0.0111230
v 0.0572000 -0.0024635 -0.0111247
v 0.0578000 -0.0024633 -0.0111248
v 0.0578000 -0.0024780 -0.0111137
v 0.0578000 -0.0024756 -0.0111174
v 0.0578000 -0.0024725 -0.0111206
v 0.0578000 -0.0024687 -0.0111230
v 0.0572000 -0.0020367 -0.0111248
v 0.0572000 -0.0020203 -0.0111083
v 0.0578000 -0.0020202 -0.0111082
v 0.0578000 -0.0020220 -0.0111137
v 0.0578000 -0.0020244 -0.0111174
v 0.0578000 -0.0020275 -0.0111206
v 0.0578000 -0.0020313 -0.0111230
v 0.0578000 -0.0020365 -0.0111247
v 0.0572000 -0.0020220 -0.0111137
v 0.0572000 -0.0020244 -0.0111174
v 0.0572000 -0.0020275 -0.0111206
v 0.0572000 -0.0020313 -0.0111230
vn -0.000012 0.987189 0.159558
vn 0.000000 0.904228 0.427049
vn -0.000000 0.781905 0.623398
vn -0.000000 0.624027 0.781403
vn -0.000061 0.421990 0.906601
vn -0.000080 0.154226 0.988036
vn 0.000087 0.161200 0.986922
vn 0.000091 0.987731 0.156166
vn 0.000034 0.905743 0.423828
vn 0.000000 0.781916 0.623384
vn -0.000000 0.624041 0.781391
vn -0.000000 0.428078 0.903742
vn -0.000087 -0.161207 0.986921
vn -0.000088 -0.988160 0.153427
vn 0.000086 -0.986888 0.161409
vn 0.000000 -0.903523 0.428540
vn 0.000000 -0.781916 0.623384
vn 0.000000 -0.624041 0.781391
vn 0.000061 -0.421995 0.906598
vn 0.000080 -0.154232 0.988035
vn -0.000070 -0.906813 0.421533
vn 0.000000 -0.781916 0.623384
vn 0.000000 -0.624041 0.781391
vn 0.000000 -0.428084 0.903739
vn 0.000090 -0.988213 -0.153088
vn -0.000084 -0.986933 -0.161133
vn 0.000000 -0.903641 -0.428291
vn 0.000000 -0.781916 -0.623384
vn 0.000000 -0.622928 -0.782279
vn -0.000030 -0.424080 -0.905625
vn -0.000093 -0.158157 -0.987414
vn 0.000013 -0.161101 -0.986938
vn 0.000071 -0.906956 -0.421225
vn 0.000000 -0.781916 -0.623384
vn 0.000000 -0.622938 -0.782271
vn 0.000000 -0.426925 -0.904287
vn -0.000013 0.161094 -0.986939
vn -0.000088 0.987722 -0.156224
vn 0.000012 0.987236 -0.159264
vn -0.000000 0.904364 -0.426763
vn -0.000000 0.781918 -0.623381
vn -0.000000 0.622924 -0.782282
vn 0.000029 0.424075 -0.905627
vn 0.000093 0.158138 -0.987417
vn -0.000031 0.905718 -0.423880
vn -0.000000 0.781905 -0.623398
vn -0.000000 0.622924 -0.782282
vn -0.000000 0.426919 -0.904290
f 57//57 49//49 50//50
f 82//82 75//75 76//76
f 82//82 81//81 75//75
f 83//83 76//76 77//77
f 83//83 82//82 76//76
f 84//84 77//77 78//78
f 84//84 83//83 77//77
f 80//80 78//78 79//79
f 80//80 84//84 78//78
f 80//80 79//79 85//85
f 81//81 73//73 74//74
f 80//80 85//85 92//92
f 91//91 92//92 85//85
f 90//90 96//96 95//95
f 90//90 91//91 96//96
f 89//89 95//95 94//94
f 89//89 90//90 95//95
f 88//88 94//94 93//93
f 88//88 89//89 94//94
f 87//87 93//93 86//86
f 87//87 88//88 93//93
f 91//91 85//85 96//96
f 81//81 74//74 75//75
f 73//73 62//62 74//74
f 73//73 63//63 62//62
f 57//57 56//56 49//49
f 58//58 50//50 51//51
f 58//58 57//57 50//50
f 59//59 51//51 52//52
f 59//59 58//58 51//51
f 60//60 52//52 53//53
f 60//60 59//59 52//52
f 55//55 53//53 54//54
f 55//55 60//60 53//53
f 68//68 54//54 61//61
f 68//68 55//55 54//54
f 67//67 61//61 72//72
f 67//67 68//68 61//61
f 66//66 72//72 71//71
f 66//66 67//67 72//72
f 65//65 71//71 70//70
f 65//65 66//66 71//71
f 64//64 70//70 69//69
f 64//64 65//65 70//70
f 63//63 69//69 62//62
f 63//63 64//64 69//69
f 87//87 49//49 56//56
f 87//87 86//86 49//49
v 0.0504151 0.0001500 -0.0107217
v 0.0504173 0.0001500 -0.0107112
v 0.0504240 0.0001500 -0.0106995
v 0.0504342 0.0001500 -0.0106906
v 0.0504442 0.0001500 -0.0106864
v 0.0504521 0.0001500 -0.0106850
v 0.0504515 0.0013500 -0.0106851
v 0.0504155 0.0013500 -0.0107176
v 0.0504210 0.0013500 -0.0107036
v 0.0504299 0.0013500 -0.0106937
v 0.0504412 0.0013500 -0.0106873
v 0.0515486 0.0001500 -0.0106851
v 0.0515848 0.0001500 -0.0107195
v 0.0515848 0.0013500 -0.0107197
v 0.0515820 0.0013500 -0.0107096
v 0.0515764 0.0013500 -0.0106999
v 0.0515663 0.0013500 -0.0106909
v 0.0515558 0.0013500 -0.0106864
v 0.0515479 0.0013500 -0.0106850
v 0.0515820 0.0001500 -0.0107096
v 0.0515780 0.0001500 -0.0107022
v 0.0515706 0.0001500 -0.0106940
v 0.0515589 0.0001500 -0.0106873
v 0.0515849 0.0013500 -0.0118179
v 0.0515849 0.0001500 -0.0118185
v 0.0515827 0.0001500 -0.0118288
v 0.0515761 0.0001500 -0.0118405
v 0.0515659 0.0001500 -0.0118493
v 0.0515523 0.0001500 -0.0118545
v 0.0515483 0.0013500 -0.0118549
v 0.0515836 0.0013500 -0.0118257
v 0.0515803 0.0013500 -0.0118340
v 0.0515752 0.0013500 -0.0118413
v 0.0515669 0.0013500 -0.0118486
v 0.0515565 0.0013500 -0.0118533
v 0.0504517 0.0001500 -0.0118549
v 0.0504155 0.0001500 -0.0118224
v 0.0504151 0.0013500 -0.0118182
v 0.0504166 0.0013500 -0.0118265
v 0.0504201 0.0013500 -0.0118346
v 0.0504270 0.0013500 -0.0118438
v 0.0504360 0.0013500 -0.0118502
v 0.0504443 0.0013500 -0.0118536
v 0.0504516 0.0013500 -0.0118548
v 0.0504197 0.0001500 -0.0118340
v 0.0504251 0.0001500 -0.0118416
v 0.0504318 0.0001500 -0.0118476
v 0.0504412 0.0001500 -0.0118527
vn -0.994770 -0.000212 0.102144
vn -0.935165 -0.000440 0.354213
vn -0.772362 -0.000450 0.635182
vn -0.528082 -0.000373 0.849193
vn -0.281720 -0.000183 0.959497
vn -0.085879 -0.000023 0.996306
vn -0.103911 0.000115 0.994587
vn -0.982526 0.000428 0.186126
vn -0.850508 0.000491 0.525962
vn -0.626614 0.000440 0.779329
vn -0.354643 0.000310 0.935002
vn 0.103984 -0.000115 0.994579
vn 0.990467 -0.000019 0.137751
vn 0.991222 0.000047 0.132211
vn 0.922167 0.000128 0.386793
vn 0.775542 0.000323 0.631296
vn 0.538318 0.000394 0.842742
vn 0.283769 0.000189 0.958893
vn 0.085958 0.000023 0.996299
vn 0.926359 -0.000037 0.376642
vn 0.817062 -0.000158 0.576550
vn 0.628035 -0.000378 0.778185
vn 0.356214 -0.000329 0.934404
vn 0.996470 0.000022 -0.083953
vn 0.994595 -0.000117 -0.103834
vn 0.934575 -0.000288 -0.355765
vn 0.772781 -0.000263 -0.634672
vn 0.516322 -0.000244 -0.856394
vn 0.184035 -0.000326 -0.982920
vn 0.092927 0.000098 -0.995673
vn 0.962463 0.000161 -0.271411
vn 0.880535 0.000230 -0.473981
vn 0.747290 0.000061 -0.664498
vn 0.543100 0.000035 -0.839668
vn 0.300939 0.000229 -0.953643
vn -0.103091 -0.000171 -0.994672
vn -0.984422 -0.000297 -0.175819
vn -0.995774 0.000170 -0.091839
vn -0.957110 0.000196 -0.289724
vn -0.865163 0.000141 -0.501490
vn -0.698353 0.000239 -0.715753
vn -0.481678 0.000271 -0.876348
vn -0.273909 0.000150 -0.961756
vn -0.086270 0.000029 -0.996272
vn -0.886590 -0.000169 -0.462557
vn -0.747291 -0.000164 -0.664497
vn -0.573724 -0.000262 -0.819049
vn -0.344478 -0.000229 -0.938794
f 104//104 97//97 98//98
f 128//128 122//122 123//123
f 129//129 128//128 123//123
f 130//130 123//123 124//124
f 130//130 129//129 123//123
f 131//131 124//124 125//125
f 131//131 130//130 124//124
f 126//126 131//131 125//125
f 126//126 125//125 132//132
f 126//126 132//132 140//140
f 128//128 127//127 122//122
f 139//139 132//132 144//144
f 138//138 139//139 144//144
f 138//138 144//144 143//143
f 137//137 143//143 142//142
f 137//137 138//138 143//143
f 136//136 142//142 141//141
f 136//136 137//137 142//142
f 135//135 141//141 133//133
f 135//135 136//136 141//141
f 134//134 135//135 133//133
f 139//139 140//140 132//132
f 127//127 120//120 121//121
f 127//127 121//121 122//122
f 120//120 109//109 121//121
f 105//105 104//104 98//98
f 105//105 98//98 99//99
f 106//106 105//105 99//99
f 106//106 99//99 100//100
f 107//107 106//106 100//100
f 107//107 100//100 101//101
f 103//103 101//101 102//102
f 103//103 107//107 101//101
f 115//115 102//102 108//108
f 115//115 103//103 102//102
f 114//114 108//108 119//119
f 114//114 115//115 108//108
f 113//113 114//114 119//119
f 113//113 119//119 118//118
f 112//112 113//113 118//118
f 112//112 118//118 117//117
f 111//111 117//117 116//116
f 111//111 112//112 117//117
f 111//111 116//116 109//109
f 110//110 111//111 109//109
f 120//120 110//110 109//109
f 134//134 97//97 104//104
f 134//134 133//133 97//97
v 0.0658349 -0.0036500 -0.0107217
v 0.0658327 -0.0036500 -0.0107112
v 0.0658260 -0.0036500 -0.0106995
v 0.0658159 -0.0036500 -0.0106906
v 0.0658058 -0.0036500 -0.0106864
v 0.0657979 -0.0036500 -0.0106850
v 0.0657986 -0.0048500 -0.0106851
v 0.0658345 -0.0048500 -0.0107176
v 0.0658302 -0.0048500 -0.0107059
v 0.0658252 -0.0048500 -0.0106986
v 0.0658169 -0.0048500 -0.0106913
v 0.0658065 -0.0048500 -0.0106866
v 0.0647014 -0.0036500 -0.0106851
v 0.0646651 -0.0036500 -0.0107220
v 0.0646651 -0.0048500 -0.0107214
v 0.0646666 -0.0048500 -0.0107135
v 0.0646701 -0.0048500 -0.0107053
v 0.0646770 -0.0048500 -0.0106962
v 0.0646860 -0.0048500 -0.0106897
v 0.0646942 -0.0048500 -0.0106864
v 0.0647021 -0.0048500 -0.0106850
v 0.0646664 -0.0036500 -0.0107143
v 0.0646697 -0.0036500 -0.0107060
v 0.0646751 -0.0036500 -0.0106983
v 0.0646818 -0.0036500 -0.0106924
v 0.0646911 -0.0036500 -0.0106873
v 0.0646652 -0.0048500 -0.0118199
v 0.0646653 -0.0036500 -0.0118208
v 0.0646681 -0.0036500 -0.0118306
v 0.0646740 -0.0036500 -0.0118405
v 0.0646841 -0.0036500 -0.0118493
v 0.0646976 -0.0036500 -0.0118545
v 0.0647018 -0.0048500 -0.0118549
v 0.0646678 -0.0048500 -0.0118299
v 0.0646723 -0.0048500 -0.0118382
v 0.0646799 -0.0048500 -0.0118463
v 0.0646912 -0.0048500 -0.0118527
v 0.0658347 -0.0036500 -0.0118208
v 0.0658348 -0.0048500 -0.0118199
v 0.0658320 -0.0048500 -0.0118304
v 0.0658264 -0.0048500 -0.0118400
v 0.0658164 -0.0048500 -0.0118490
v 0.0658024 -0.0048500 -0.0118545
v 0.0658320 -0.0036500 -0.0118304
v 0.0658280 -0.0036500 -0.0118377
v 0.0658206 -0.0036500 -0.0118459
v 0.0658107 -0.0036500 -0.0118518
v 0.0658005 -0.0036500 -0.0118548
vn 0.994719 0.000150 0.102636
vn 0.934948 0.000391 0.354785
vn 0.772794 0.000271 0.634657
vn 0.529294 0.000113 0.848438
vn 0.281715 0.000053 0.959498
vn 0.085202 0.000022 0.996364
vn 0.094164 -0.000059 0.995557
vn 0.984411 -0.000368 0.175884
vn 0.886696 -0.000303 0.462354
vn 0.747044 -0.000061 0.664774
vn 0.543203 -0.000035 0.839602
vn 0.301536 -0.000102 0.953455
vn -0.103910 0.000115 0.994587
vn -0.996444 0.000037 0.084258
vn -0.995659 -0.000050 0.093075
vn -0.957063 -0.000065 0.289879
vn -0.865694 -0.000138 0.500574
vn -0.698972 -0.000240 0.715149
vn -0.482364 -0.000274 0.875971
vn -0.273681 -0.000160 0.961821
vn -0.085800 -0.000023 0.996312
vn -0.962256 0.000055 0.272146
vn -0.879700 0.000065 0.475530
vn -0.747662 0.000161 0.664079
vn -0.574751 0.000260 0.818328
vn -0.345644 0.000223 0.938366
vn -0.991604 -0.000040 -0.129309
vn -0.990153 0.000077 -0.139991
vn -0.917667 0.000143 -0.397349
vn -0.766893 0.000317 -0.641775
vn -0.516061 0.000464 -0.856552
vn -0.184350 0.000414 -0.982861
vn -0.101566 -0.000184 -0.994829
vn -0.929454 -0.000086 -0.368938
vn -0.811434 -0.000189 -0.584445
vn -0.619035 -0.000377 -0.785363
vn -0.352419 -0.000429 -0.935842
vn 0.990241 0.000066 -0.139368
vn 0.991441 -0.000112 -0.130559
vn 0.922638 -0.000145 -0.385668
vn 0.775490 -0.000315 -0.631360
vn 0.526716 -0.000441 -0.850041
vn 0.186760 -0.000321 -0.982405
vn 0.925708 0.000045 -0.378239
vn 0.817317 0.000164 -0.576188
vn 0.635100 0.000351 -0.772430
vn 0.397870 0.000333 -0.917442
vn 0.140012 0.000161 -0.990150
f 152//152 145//145 146//146
f 178//178 172//172 173//173
f 178//178 171//171 172//172
f 179//179 173//173 174//174
f 179//179 178//178 173//173
f 180//180 179//179 174//174
f 180//180 174//174 175//175
f 181//181 180//180 175//175
f 181//181 175//175 176//176
f 177//177 181//181 176//176
f 171//171 158//158 172//172
f 177//177 176//176 192//192
f 187//187 192//192 191//191
f 186//186 187//187 191//191
f 186//186 191//191 190//190
f 185//185 186//186 190//190
f 185//185 190//190 189//189
f 184//184 189//189 188//188
f 184//184 185//185 189//189
f 184//184 188//188 182//182
f 183//183 184//184 182//182
f 177//177 192//192 187//187
f 171//171 159//159 158//158
f 159//159 160//160 166//166
f 159//159 166//166 158//158
f 153//153 152//152 146//146
f 153//153 146//146 147//147
f 154//154 153//153 147//147
f 155//155 147//147 148//148
f 155//155 154//154 147//147
f 156//156 148//148 149//149
f 156//156 155//155 148//148
f 151//151 149//149 150//150
f 151//151 156//156 149//149
f 165//165 150//150 157//157
f 165//165 151//151 150//150
f 164//164 157//157 170//170
f 164//164 165//165 157//157
f 163//163 164//164 170//170
f 163//163 170//170 169//169
f 162//162 169//169 168//168
f 162//162 163//163 169//169
f 161//161 168//168 167//167
f 161//161 162//162 168//168
f 160//160 167//167 166//166
f 160//160 161//161 167//167
f 183//183 145//145 152//152
f 183//183 182//182 145//145
v 0.0572000 -0.0010202 -0.0106817
v 0.0572000 -0.0010220 -0.0106763
v 0.0572000 -0.0010244 -0.0106725
v 0.0572000 -0.0010275 -0.0106693
v 0.0572000 -0.0010313 -0.0106670
v 0.0572000 -0.0010370 -0.0106651
v 0.0578000 -0.0010364 -0.0106652
v 0.0578000 -0.0010203 -0.0106816
v 0.0578000 -0.0010220 -0.0106763
v 0.0578000 -0.0010244 -0.0106725
v 0.0578000 -0.0010275 -0.0106693
v 0.0578000 -0.0010313 -0.0106670
v 0.0572000 -0.0014636 -0.0106652
v 0.0572000 -0.0014798 -0.0106820
v 0.0578000 -0.0014797 -0.0106814
v 0.0578000 -0.0014780 -0.0106763
v 0.0578000 -0.0014756 -0.0106725
v 0.0578000 -0.0014725 -0.0106693
v 0.0578000 -0.0014687 -0.0106670
v 0.0578000 -0.0014630 -0.0106651
v 0.0572000 -0.0014780 -0.0106763
v 0.0572000 -0.0014756 -0.0106725
v 0.0572000 -0.0014725 -0.0106693
v 0.0572000 -0.0014687 -0.0106670
v 0.0578000 -0.0014798 -0.0111080
v 0.0572000 -0.0014797 -0.0111086
v 0.0572000 -0.0014780 -0.0111137
v 0.0572000 -0.0014756 -0.0111174
v 0.0572000 -0.0014725 -0.0111206
v 0.0572000 -0.0014687 -0.0111230
v 0.0572000 -0.0014635 -0.0111247
v 0.0578000 -0.0014633 -0.0111248
v 0.0578000 -0.0014780 -0.0111137
v 0.0578000 -0.0014756 -0.0111174
v 0.0578000 -0.0014725 -0.0111206
v 0.0578000 -0.0014687 -0.0111230
v 0.0572000 -0.0010367 -0.0111248
v 0.0572000 -0.0010203 -0.0111083
v 0.0578000 -0.0010202 -0.0111082
v 0.0578000 -0.0010220 -0.0111137
v 0.0578000 -0.0010244 -0.0111174
v 0.0578000 -0.0010275 -0.0111206
v 0.0578000 -0.0010313 -0.0111230
v 0.0578000 -0.0010365 -0.0111247
v 0.0572000 -0.0010220 -0.0111137
v 0.0572000 -0.0010244 -0.0111174
v 0.0572000 -0.0010275 -0.0111206
v 0.0572000 -0.0010313 -0.0111230
vn -0.000012 0.987189 0.159558
vn -0.000000 0.904228 0.427049
vn -0.000000 0.781910 0.623391
vn -0.000000 0.624034 0.781397
vn -0.000061 0.421993 0.906599
vn -0.000080 0.154229 0.988035
vn 0.000087 0.161207 0.986921
vn 0.000087 0.987671 0.156545
vn 0.000030 0.905582 0.424171
vn -0.000000 0.781910 0.623391
vn -0.000000 0.624034 0.781397
vn -0.000000 0.428084 0.903739
vn -0.000087 -0.161210 0.986920
vn -0.000088 -0.988163 0.153409
vn 0.000086 -0.986891 0.161388
vn 0.000000 -0.903531 0.428522
vn 0.000000 -0.781916 0.623384
vn 0.000000 -0.624036 0.781396
vn 0.000061 -0.421994 0.906598
vn 0.000080 -0.154238 0.988034
vn -0.000070 -0.906825 0.421506
vn 0.000000 -0.781917 0.623382
vn 0.000000 -0.624034 0.781397
vn 0.000000 -0.428087 0.903738
vn 0.000091 -0.988217 -0.153061
vn -0.000084 -0.986933 -0.161132
vn 0.000000 -0.903646 -0.428281
vn 0.000000 -0.781917 -0.623382
vn 0.000000 -0.622926 -0.782281
vn -0.000030 -0.424078 -0.905626
vn -0.000093 -0.158147 -0.987416
vn 0.000013 -0.161101 -0.986938
vn 0.000071 -0.906968 -0.421200
vn 0.000000 -0.781910 -0.623391
vn 0.000000 -0.622931 -0.782277
vn 0.000000 -0.426925 -0.904287
vn -0.000013 0.161098 -0.986938
vn -0.000088 0.987723 -0.156214
vn 0.000012 0.987238 -0.159254
vn -0.000000 0.904363 -0.426764
vn -0.000000 0.781917 -0.623382
vn -0.000000 0.622931 -0.782277
vn 0.000029 0.424078 -0.905626
vn 0.000093 0.158141 -0.987417
vn -0.000031 0.905722 -0.423871
vn -0.000000 0.781910 -0.623391
vn -0.000000 0.622931 -0.782277
vn -0.000000 0.426922 -0.904289
f 201//201 193//193 194//194
f 226//226 219//219 220//220
f 226//226 225//225 219//219
f 227//227 220//220 221//221
f 227//227 226//226 220//220
f 228//228 221//221 222//222
f 228//228 227//227 221//221
f 224//224 222//222 223//223
f 224//224 228//228 222//222
f 224//224 223//223 229//229
f 225//225 217//217 218//218
f 224//224 229//229 236//236
f 235//235 236//236 229//229
f 234//234 240//240 239//239
f 234//234 235//235 240//240
f 233//233 239//239 238//238
f 233//233 234//234 239//239
f 232//232 238//238 237//237
f 232//232 233//233 238//238
f 231//231 237//237 230//230
f 231//231 232//232 237//237
f 235//235 229//229 240//240
f 225//225 218//218 219//219
f 217//217 206//206 218//218
f 217//217 207//207 206//206
f 201//201 200//200 193//193
f 202//202 194//194 195//195
f 202//202 201//201 194//194
f 203//203 195//195 196//196
f 203//203 202//202 195//195
f 204//204 196//196 197//197
f 204//204 203//203 196//196
f 199//199 197//197 198//198
f 199//199 204//204 197//197
f 212//212 198//198 205//205
f 212//212 199//199 198//198
f 211//211 205//205 216//216
f 211//211 212//212 205//205
f 210//210 216//216 215//215
f 210//210 211//211 216//216
f 209//209 215//215 214//214
f 209//209 210//210 215//215
f 208//208 214//214 213//213
f 208//208 209//209 214//214
f 207//207 213//213 206//206
f 207//207 208//208 213//213
f 231//231 193//193 200//200
f 231//231 230//230 193//193
v 0.0523803 0.0002500 -0.0106997
v 0.0523838 0.0002500 -0.0106902
v 0.0523890 0.0002500 -0.0106835
v 0.0523938 0.0002500 -0.0106797
v 0.0523999 0.0002500 -0.0106767
v 0.0524073 0.0002500 -0.0106751
v 0.0524066 0.0012500 -0.0106751
v 0.0523803 0.0012500 -0.0106998
v 0.0523834 0.0012500 -0.0106909
v 0.0523885 0.0012500 -0.0106840
v 0.0523938 0.0012500 -0.0106797
v 0.0523991 0.0012500 -0.0106770
v 0.0530934 0.0002500 -0.0106751
v 0.0531199 0.0002500 -0.0107019
v 0.0531196 0.0012500 -0.0106994
v 0.0531164 0.0012500 -0.0106906
v 0.0531113 0.0012500 -0.0106837
v 0.0531062 0.0012500 -0.0106797
v 0.0531002 0.0012500 -0.0106767
v 0.0530928 0.0012500 -0.0106751
v 0.0531182 0.0002500 -0.0106945
v 0.0531143 0.0002500 -0.0106873
v 0.0531084 0.0002500 -0.0106812
v 0.0531009 0.0002500 -0.0106769
v 0.0531198 0.0012500 -0.0113897
v 0.0531199 0.0002500 -0.0113884
v 0.0531182 0.0002500 -0.0113954
v 0.0531141 0.0002500 -0.0114030
v 0.0531097 0.0002500 -0.0114076
v 0.0531040 0.0002500 -0.0114116
v 0.0530951 0.0002500 -0.0114147
v 0.0530930 0.0012500 -0.0114149
v 0.0531166 0.0012500 -0.0113991
v 0.0531115 0.0012500 -0.0114060
v 0.0531062 0.0012500 -0.0114102
v 0.0531009 0.0012500 -0.0114130
v 0.0524070 0.0002500 -0.0114149
v 0.0523803 0.0002500 -0.0113901
v 0.0523801 0.0012500 -0.0113878
v 0.0523818 0.0012500 -0.0113955
v 0.0523862 0.0012500 -0.0114033
v 0.0523904 0.0012500 -0.0114076
v 0.0523959 0.0012500 -0.0114115
v 0.0524050 0.0012500 -0.0114147
v 0.0523836 0.0002500 -0.0113994
v 0.0523888 0.0002500 -0.0114062
v 0.0523938 0.0002500 -0.0114102
v 0.0523991 0.0002500 -0.0114130
vn -0.984324 -0.000113 0.176372
vn -0.875517 -0.000103 0.483188
vn -0.709816 -0.000041 0.704387
vn -0.534300 -0.000037 0.845295
vn -0.333383 -0.000074 0.942792
vn -0.106832 -0.000041 0.994277
vn -0.118515 0.000087 0.992952
vn -0.986083 0.000069 0.166253
vn -0.886362 0.000093 0.462993
vn -0.722498 0.000091 0.691373
vn -0.545896 0.000047 0.837853
vn -0.352034 0.000056 0.935987
vn 0.117103 -0.000078 0.993120
vn 0.993462 -0.000086 0.114165
vn 0.984321 0.000290 0.176384
vn 0.879960 0.000314 0.475048
vn 0.716644 0.000245 0.697439
vn 0.534914 0.000138 0.844906
vn 0.333612 0.000076 0.942711
vn 0.106833 0.000039 0.994277
vn 0.935820 -0.000291 0.352479
vn 0.807154 -0.000302 0.590340
vn 0.610413 -0.000270 0.792083
vn 0.365709 -0.000141 0.930729
vn 0.986470 0.000266 -0.163941
vn 0.993285 -0.000081 -0.115695
vn 0.934849 -0.000272 -0.355047
vn 0.808576 -0.000252 -0.588392
vn 0.650460 -0.000167 -0.759540
vn 0.453358 -0.000237 -0.891329
vn 0.164964 -0.000280 -0.986299
vn 0.115891 0.000152 -0.993262
vn 0.886855 0.000339 -0.462047
vn 0.722131 0.000234 -0.691756
vn 0.546080 0.000164 -0.837733
vn 0.349458 0.000226 -0.936952
vn -0.116667 -0.000164 -0.993171
vn -0.985856 -0.000309 -0.167594
vn -0.994156 0.000111 -0.107957
vn -0.934856 0.000308 -0.355028
vn -0.803190 0.000249 -0.595723
vn -0.649646 0.000145 -0.760237
vn -0.454328 0.000232 -0.890835
vn -0.165630 0.000270 -0.986188
vn -0.881095 -0.000355 -0.472939
vn -0.715314 -0.000219 -0.698803
vn -0.544477 -0.000160 -0.838775
vn -0.349444 -0.000231 -0.936957
f 249//249 241//241 242//242
f 273//273 265//265 267//267
f 274//274 273//273 268//268
f 274//274 268//268 269//269
f 275//275 269//269 270//270
f 275//275 274//274 269//269
f 276//276 275//275 270//270
f 276//276 270//270 271//271
f 272//272 276//276 271//271
f 272//272 271//271 277//277
f 273//273 267//267 268//268
f 272//272 277//277 284//284
f 283//283 284//284 288//288
f 283//283 288//288 287//287
f 282//282 287//287 286//286
f 282//282 283//283 287//287
f 281//281 286//286 285//285
f 281//281 282//282 286//286
f 280//280 281//281 285//285
f 280//280 285//285 278//278
f 279//279 280//280 278//278
f 284//284 277//277 288//288
f 265//265 266//266 267//267
f 265//265 254//254 266//266
f 265//265 255//255 254//254
f 249//249 248//248 241//241
f 250//250 242//242 243//243
f 250//250 249//249 242//242
f 251//251 243//243 244//244
f 251//251 250//250 243//243
f 252//252 244//244 245//245
f 252//252 251//251 244//244
f 247//247 245//245 246//246
f 247//247 252//252 245//245
f 260//260 246//246 253//253
f 260//260 247//247 246//246
f 259//259 253//253 264//264
f 259//259 260//260 253//253
f 258//258 264//264 263//263
f 258//258 259//259 264//264
f 257//257 258//258 263//263
f 257//257 263//263 262//262
f 256//256 257//257 262//262
f 256//256 262//262 261//261
f 255//255 261//261 254//254
f 255//255 256//256 261//261
f 279//279 241//241 248//248
f 279//279 278//278 241//241
v 0.0678349 -0.0036500 -0.0107217
v 0.0678334 -0.0036500 -0.0107136
v 0.0678299 -0.0036500 -0.0107053
v 0.0678246 -0.0036500 -0.0106980
v 0.0678159 -0.0036500 -0.0106906
v 0.0678058 -0.0036500 -0.0106864
v 0.0677979 -0.0036500 -0.0106850
v 0.0677986 -0.0048500 -0.0106851
v 0.0678346 -0.0048500 -0.0107176
v 0.0678303 -0.0048500 -0.0107060
v 0.0678251 -0.0048500 -0.0106986
v 0.0678169 -0.0048500 -0.0106913
v 0.0678065 -0.0048500 -0.0106866
v 0.0667015 -0.0036500 -0.0106851
v 0.0666652 -0.0036500 -0.0107195
v 0.0666652 -0.0048500 -0.0107214
v 0.0666666 -0.0048500 -0.0107135
v 0.0666701 -0.0048500 -0.0107053
v 0.0666770 -0.0048500 -0.0106962
v 0.0666861 -0.0048500 -0.0106897
v 0.0666942 -0.0048500 -0.0106864
v 0.0667021 -0.0048500 -0.0106850
v 0.0666689 -0.0036500 -0.0107076
v 0.0666751 -0.0036500 -0.0106983
v 0.0666818 -0.0036500 -0.0106924
v 0.0666911 -0.0036500 -0.0106873
v 0.0666652 -0.0048500 -0.0118200
v 0.0666653 -0.0036500 -0.0118208
v 0.0666681 -0.0036500 -0.0118306
v 0.0666740 -0.0036500 -0.0118405
v 0.0666841 -0.0036500 -0.0118493
v 0.0666976 -0.0036500 -0.0118545
v 0.0667018 -0.0048500 -0.0118549
v 0.0666678 -0.0048500 -0.0118299
v 0.0666723 -0.0048500 -0.0118381
v 0.0666799 -0.0048500 -0.0118462
v 0.0666912 -0.0048500 -0.0118527
v 0.0678347 -0.0036500 -0.0118208
v 0.0678348 -0.0048500 -0.0118199
v 0.0678320 -0.0048500 -0.0118303
v 0.0678263 -0.0048500 -0.0118400
v 0.0678164 -0.0048500 -0.0118490
v 0.0678024 -0.0048500 -0.0118545
v 0.0678320 -0.0036500 -0.0118303
v 0.0678280 -0.0036500 -0.0118378
v 0.0678206 -0.0036500 -0.0118459
v 0.0678107 -0.0036500 -0.0118518
v 0.0678005 -0.0036500 -0.0118548
vn 0.995864 0.000109 0.090859
vn 0.957697 0.000193 0.287778
vn 0.870954 0.000063 0.491364
vn 0.732027 0.000099 0.681276
vn 0.521500 0.000108 0.853251
vn 0.282042 0.000059 0.959402
vn 0.086038 0.000022 0.996292
vn 0.094082 -0.000053 0.995564
vn 0.984517 -0.000292 0.175287
vn 0.886961 -0.000168 0.461845
vn 0.746855 -0.000075 0.664987
vn 0.542878 -0.000107 0.839811
vn 0.301394 -0.000094 0.953500
vn -0.104378 0.000118 0.994538
vn -0.989115 0.000207 0.147143
vn -0.995693 -0.000079 0.092707
vn -0.957034 -0.000227 0.289975
vn -0.865409 -0.000217 0.501067
vn -0.698458 -0.000236 0.715651
vn -0.481437 -0.000268 0.876481
vn -0.273305 -0.000156 0.961927
vn -0.085879 -0.000022 0.996306
vn -0.903094 0.000263 0.429443
vn -0.752975 0.000226 0.658049
vn -0.574294 0.000265 0.818649
vn -0.345824 0.000228 0.938300
vn -0.991650 -0.000012 -0.128956
vn -0.990154 0.000080 -0.139986
vn -0.917734 0.000144 -0.397195
vn -0.767077 0.000318 -0.641555
vn -0.516026 0.000464 -0.856573
vn -0.184259 0.000411 -0.982878
vn -0.102097 -0.000185 -0.994774
vn -0.929435 -0.000083 -0.368987
vn -0.811663 -0.000187 -0.584127
vn -0.619587 -0.000380 -0.784928
vn -0.352856 -0.000432 -0.935677
vn 0.990269 0.000063 -0.139169
vn 0.991455 -0.000113 -0.130452
vn 0.922572 -0.000152 -0.385824
vn 0.775288 -0.000320 -0.631607
vn 0.526523 -0.000441 -0.850161
vn 0.186573 -0.000321 -0.982441
vn 0.925723 0.000039 -0.378202
vn 0.816847 0.000157 -0.576855
vn 0.634681 0.000346 -0.772774
vn 0.397879 0.000332 -0.917438
vn 0.139916 0.000161 -0.990163
f 297//297 289//289 290//290
f 322//322 316//316 317//317
f 322//322 315//315 316//316
f 323//323 317//317 318//318
f 323//323 322//322 317//317
f 324//324 323//323 318//318
f 324//324 318//318 319//319
f 325//325 324//324 319//319
f 325//325 319//319 320//320
f 321//321 325//325 320//320
f 315//315 303//303 316//316
f 321//321 320//320 336//336
f 331//331 336//336 335//335
f 330//330 331//331 335//335
f 330//330 335//335 334//334
f 329//329 330//330 334//334
f 329//329 334//334 333//333
f 328//328 333//333 332//332
f 328//328 329//329 333//333
f 328//328 332//332 326//326
f 327//327 328//328 326//326
f 321//321 336//336 331//331
f 315//315 304//304 303//303
f 304//304 305//305 303//303
f 305//305 306//306 311//311
f 298//298 290//290 291//291
f 298//298 297//297 290//290
f 299//299 291//291 292//292
f 299//299 298//298 291//291
f 300//300 292//292 293//293
f 300//300 299//299 292//292
f 301//301 293//293 294//294
f 301//301 300//300 293//293
f 296//296 294//294 295//295
f 296//296 301//301 294//294
f 310//310 295//295 302//302
f 310//310 296//296 295//295
f 309//309 302//302 314//314
f 309//309 310//310 302//302
f 308//308 309//309 314//314
f 308//308 314//314 313//313
f 307//307 313//313 312//312
f 307//307 308//308 313//313
f 306//306 312//312 311//311
f 306//306 307//307 312//312
f 305//305 311//311 303//303
f 327//327 289//289 297//297
f 327//327 326//326 289//289
