# OMX visual mesh; coordinates in metres
mtllib materials.mtl
usemtl black_electronics
v 0.1489229 -0.0029000 0.0094300
v 0.1480000 -0.0039000 0.0081334
v 0.1492500 -0.0024000 0.0068680
v 0.1505000 0.0008000 0.0077000
v 0.1568989 -0.0039000 0.0073972
v 0.1575200 -0.0080000 0.0074007
v 0.1484800 -0.0080000 0.0074366
v 0.1486000 -0.0039000 0.0070524
v 0.1575800 -0.0032333 0.0099000
v 0.1568989 -0.0039000 0.0073972
v 0.1489229 -0.0029000 0.0094300
v 0.1495020 -0.0039000 0.0080760
v 0.1505000 -0.0039000 0.0080201
v 0.1542500 -0.0039000 0.0080201
v 0.1568989 -0.0039000 0.0073972
v 0.1495020 -0.0039000 0.0080760
v 0.1486000 -0.0039000 0.0070524
v 0.1517500 -0.0039000 0.0073800
v 0.1542500 -0.0039000 0.0073800
v 0.1495020 -0.0039000 0.0080760
v 0.1505000 -0.0039000 0.0080201
v 0.1517500 -0.0039000 0.0073800
v 0.1505000 -0.0079000 0.0077000
v 0.1569100 -0.0024000 0.0070600
v 0.1575200 -0.0080000 0.0074007
v 0.1492500 -0.0024000 0.0068680
v 0.1484800 -0.0080000 0.0074366
v 0.1575800 -0.0032333 0.0099000
v 0.1569100 -0.0024000 0.0070600
v 0.1489229 -0.0029000 0.0094300
v 0.1517500 -0.0024000 0.0080201
v 0.1542500 -0.0024000 0.0080201
v 0.1569100 -0.0024000 0.0070600
v 0.1492500 -0.0024000 0.0068680
v 0.1517500 -0.0024000 0.0080201
v 0.1542500 -0.0024000 0.0073800
v 0.1574750 -0.0070500 0.0087762
v 0.1575800 -0.0032333 0.0099000
v 0.1568989 -0.0039000 0.0073972
v 0.1574750 -0.0070500 0.0087762
v 0.1568989 -0.0039000 0.0073972
v 0.1580000 -0.0039000 0.0082500
v 0.1575800 -0.0032333 0.0099000
v 0.1580000 -0.0039000 0.0082500
v 0.1569100 -0.0024000 0.0070600
v 0.1574750 -0.0070500 0.0087762
v 0.1575800 -0.0032333 0.0099000
v 0.1580000 -0.0039000 0.0082500
v 0.1580000 -0.0039000 0.0082500
v 0.1569100 -0.0024000 0.0070600
v 0.1575200 -0.0080000 0.0074007
v 0.1485250 -0.0070500 0.0087762
v 0.1489229 -0.0029000 0.0094300
v 0.1495020 -0.0039000 0.0080760
v 0.1485250 -0.0070500 0.0087762
v 0.1495020 -0.0039000 0.0080760
v 0.1480000 -0.0039000 0.0081334
v 0.1485250 -0.0070500 0.0087762
v 0.1489229 -0.0029000 0.0094300
v 0.1480000 -0.0039000 0.0081334
v 0.1480000 -0.0039000 0.0081334
v 0.1492500 -0.0024000 0.0068680
v 0.1484800 -0.0080000 0.0074366
v 0.1495020 -0.0039000 0.0080760
v 0.1480000 -0.0039000 0.0081334
v 0.1484800 -0.0080000 0.0074366
v 0.1495020 -0.0039000 0.0080760
v 0.1484800 -0.0080000 0.0074366
v 0.1486000 -0.0039000 0.0070524
v 0.1505000 -0.0039000 0.0080201
v 0.1517500 -0.0039000 0.0073800
v 0.1542500 -0.0039000 0.0080201
v 0.1568989 -0.0039000 0.0073972
v 0.1580000 -0.0039000 0.0082500
v 0.1575200 -0.0080000 0.0074007
v 0.1495020 -0.0039000 0.0080760
v 0.1517500 -0.0039000 0.0073800
v 0.1505000 -0.0079000 0.0077000
v 0.1517500 -0.0039000 0.0073800
v 0.1542500 -0.0039000 0.0080201
v 0.1530000 -0.0079000 0.0077000
v 0.1542500 -0.0039000 0.0080201
v 0.1542500 -0.0039000 0.0073800
v 0.1530000 -0.0079000 0.0077000
v 0.1517500 -0.0039000 0.0073800
v 0.1542500 -0.0039000 0.0073800
v 0.1530000 -0.0079000 0.0077000
v 0.1542500 -0.0039000 0.0080201
v 0.1542500 -0.0039000 0.0073800
v 0.1555000 -0.0079000 0.0077000
v 0.1568989 -0.0039000 0.0073972
v 0.1542500 -0.0039000 0.0080201
v 0.1555000 -0.0079000 0.0077000
v 0.1568989 -0.0039000 0.0073972
v 0.1542500 -0.0039000 0.0073800
v 0.1555000 -0.0079000 0.0077000
v 0.1492500 -0.0024000 0.0068680
v 0.1517500 -0.0024000 0.0080201
v 0.1505000 0.0008000 0.0077000
v 0.1489229 -0.0029000 0.0094300
v 0.1517500 -0.0024000 0.0080201
v 0.1505000 0.0008000 0.0077000
v 0.1517500 -0.0024000 0.0080201
v 0.1542500 -0.0024000 0.0073800
v 0.1530000 0.0008000 0.0077000
v 0.1542500 -0.0024000 0.0073800
v 0.1542500 -0.0024000 0.0080201
v 0.1530000 0.0008000 0.0077000
v 0.1517500 -0.0024000 0.0080201
v 0.1542500 -0.0024000 0.0080201
v 0.1530000 0.0008000 0.0077000
v 0.1542500 -0.0024000 0.0073800
v 0.1542500 -0.0024000 0.0080201
v 0.1555000 0.0008000 0.0077000
v 0.1569100 -0.0024000 0.0070600
v 0.1542500 -0.0024000 0.0073800
v 0.1555000 0.0008000 0.0077000
v 0.1569100 -0.0024000 0.0070600
v 0.1542500 -0.0024000 0.0080201
v 0.1555000 0.0008000 0.0077000
vn -0.848556 0.529082 -0.005096
vn -0.754583 0.655445 0.031564
vn -0.880927 0.472820 -0.020209
vn -0.926444 0.373688 -0.045368
vn -0.008009 0.026043 0.999629
vn 0.003969 0.001452 0.999991
vn -0.028058 0.067191 0.997346
vn -0.041328 0.094413 0.994675
vn 0.011885 -0.948873 0.315433
vn 0.057010 -0.968485 0.242458
vn -0.004682 -0.837165 0.546930
vn 0.033820 -0.796972 0.603068
vn 0.008586 -0.811092 0.584856
vn -0.026665 -0.916428 0.399310
vn -0.000000 -1.000000 0.000001
vn -0.000000 -1.000000 0.000000
vn -0.000000 -1.000000 0.000000
vn -0.000000 -1.000000 -0.000002
vn -0.000000 -1.000000 0.000001
vn 0.055815 -0.079625 0.995261
vn 0.258160 -0.077047 0.963025
vn 0.454607 -0.071034 0.887855
vn 0.294340 -0.076218 0.952657
vn 0.025019 -0.057985 -0.998004
vn 0.013191 -0.075363 -0.997069
vn 0.006170 -0.085660 -0.996305
vn -0.003949 -0.100473 -0.994932
vn 0.064037 0.949417 0.307419
vn 0.093793 0.961075 0.259881
vn 0.009057 0.931186 0.364431
vn 0.000000 0.942494 0.334223
vn 0.033711 0.936578 0.348835
vn 0.000000 1.000000 -0.000000
vn 0.000000 1.000000 0.000000
vn 0.000000 1.000000 0.000000
vn 0.000000 1.000000 -0.000000
vn -0.959665 -0.054797 0.275754
vn -0.959665 -0.054797 0.275754
vn -0.959665 -0.054797 0.275754
vn 0.596204 -0.227953 -0.769791
vn 0.596204 -0.227953 -0.769791
vn 0.596204 -0.227953 -0.769791
vn 0.817761 0.575049 -0.024184
vn 0.817761 0.575049 -0.024184
vn 0.817761 0.575049 -0.024184
vn 0.951540 -0.110662 0.286923
vn 0.951540 -0.110662 0.286923
vn 0.951540 -0.110662 0.286923
vn 0.763707 0.044010 -0.644062
vn 0.763707 0.044010 -0.644062
vn 0.763707 0.044010 -0.644062
vn 0.859888 -0.158870 0.485132
vn 0.859888 -0.158870 0.485132
vn 0.859888 -0.158870 0.485132
vn -0.037331 -0.205784 -0.977885
vn -0.037331 -0.205784 -0.977885
vn -0.037331 -0.205784 -0.977885
vn -0.809139 -0.014977 0.587426
vn -0.809139 -0.014977 0.587426
vn -0.809139 -0.014977 0.587426
vn -0.729105 0.030835 -0.683707
vn -0.729105 0.030835 -0.683707
vn -0.729105 0.030835 -0.683707
vn 0.037636 -0.163141 0.985885
vn 0.037636 -0.163141 0.985885
vn 0.037636 -0.163141 0.985885
vn 0.747640 -0.083615 -0.658819
vn 0.747640 -0.083615 -0.658819
vn 0.747640 -0.083615 -0.658819
vn -0.000000 -1.000000 0.000000
vn -0.000000 -1.000000 0.000000
vn -0.000000 -1.000000 0.000000
vn -0.609745 -0.091701 0.787275
vn -0.609745 -0.091701 0.787275
vn -0.609745 -0.091701 0.787275
vn -0.295721 0.015998 -0.955141
vn -0.295721 0.015998 -0.955141
vn -0.295721 0.015998 -0.955141
vn -0.248015 0.000000 0.968756
vn -0.248015 0.000000 0.968756
vn -0.248015 0.000000 0.968756
vn 0.954480 -0.298275 -0.000000
vn 0.954480 -0.298275 -0.000000
vn 0.954480 -0.298275 -0.000000
vn -0.000000 -0.079749 -0.996815
vn -0.000000 -0.079749 -0.996815
vn -0.000000 -0.079749 -0.996815
vn -0.954481 -0.298271 -0.000000
vn -0.954481 -0.298271 -0.000000
vn -0.954481 -0.298271 -0.000000
vn 0.228886 -0.006353 0.973432
vn 0.228886 -0.006353 0.973432
vn 0.228886 -0.006353 0.973432
vn 0.006472 -0.077738 -0.996953
vn 0.006472 -0.077738 -0.996953
vn 0.006472 -0.077738 -0.996953
vn 0.417415 0.072467 -0.905822
vn 0.417415 0.072467 -0.905822
vn 0.417415 0.072467 -0.905822
vn 0.397940 0.243892 0.884399
vn 0.397940 0.243892 0.884399
vn 0.397940 0.243892 0.884399
vn -0.248015 0.000000 -0.968756
vn -0.248015 0.000000 -0.968756
vn -0.248015 0.000000 -0.968756
vn 0.931457 0.363850 0.000000
vn 0.931457 0.363850 0.000000
vn 0.931457 0.363850 0.000000
vn 0.000000 0.099509 0.995037
vn 0.000000 0.099509 0.995037
vn 0.000000 0.099509 0.995037
vn -0.931459 0.363846 0.000000
vn -0.931459 0.363846 0.000000
vn -0.931459 0.363846 0.000000
vn -0.118178 0.144412 -0.982435
vn -0.118178 0.144412 -0.982435
vn -0.118178 0.144412 -0.982435
vn 0.339222 -0.038510 0.939918
vn 0.339222 -0.038510 0.939918
vn 0.339222 -0.038510 0.939918
f 3//3 2//2 1//1
f 3//3 1//1 4//4
f 7//7 5//5 8//8
f 7//7 6//6 5//5
f 13//13 11//11 12//12
f 14//14 11//11 13//13
f 9//9 11//11 14//14
f 10//10 9//9 14//14
f 17//17 19//19 18//18
f 18//18 16//16 17//17
f 17//17 15//15 19//19
f 21//21 23//23 22//22
f 23//23 21//21 20//20
f 26//26 25//25 27//27
f 26//26 24//24 25//25
f 32//32 28//28 29//29
f 30//30 32//32 31//31
f 30//30 28//28 32//32
f 34//34 36//36 33//33
f 35//35 36//36 34//34
f 37//37 38//38 39//39
f 42//42 40//40 41//41
f 45//45 43//43 44//44
f 46//46 48//48 47//47
f 51//51 50//50 49//49
f 53//53 52//52 54//54
f 55//55 57//57 56//56
f 58//58 59//59 60//60
f 63//63 61//61 62//62
f 64//64 65//65 66//66
f 68//68 69//69 67//67
f 71//71 72//72 70//70
f 74//74 73//73 75//75
f 77//77 78//78 76//76
f 81//81 80//80 79//79
f 82//82 84//84 83//83
f 86//86 87//87 85//85
f 90//90 88//88 89//89
f 92//92 93//93 91//91
f 94//94 96//96 95//95
f 99//99 98//98 97//97
f 100//100 101//101 102//102
f 104//104 103//103 105//105
f 108//108 107//107 106//106
f 109//109 110//110 111//111
f 112//112 113//113 114//114
f 117//117 115//115 116//116
f 119//119 118//118 120//120
v 0.1491011 -0.0039000 -0.0073972
v 0.1484800 -0.0080000 -0.0074007
v 0.1575200 -0.0080000 -0.0074365
v 0.1574000 -0.0039000 -0.0070524
v 0.1484200 -0.0032333 -0.0099000
v 0.1491011 -0.0039000 -0.0073972
v 0.1575800 -0.0030667 -0.0099000
v 0.1563850 -0.0039000 -0.0080667
v 0.1537267 -0.0039000 -0.0080200
v 0.1517500 -0.0039000 -0.0073800
v 0.1505000 -0.0039000 -0.0080200
v 0.1491011 -0.0039000 -0.0073972
v 0.1563850 -0.0039000 -0.0080667
v 0.1574000 -0.0039000 -0.0070524
v 0.1542500 -0.0039000 -0.0073800
v 0.1517500 -0.0039000 -0.0073800
v 0.1490900 -0.0024000 -0.0070600
v 0.1484800 -0.0080000 -0.0074007
v 0.1577820 -0.0028091 -0.0073371
v 0.1575200 -0.0080000 -0.0074365
v 0.1484200 -0.0032333 -0.0099000
v 0.1490900 -0.0024000 -0.0070600
v 0.1575800 -0.0030667 -0.0099000
v 0.1577820 -0.0028091 -0.0073371
v 0.1558200 -0.0024000 -0.0080200
v 0.1544360 -0.0024000 -0.0078600
v 0.1517500 -0.0024000 -0.0080200
v 0.1490900 -0.0024000 -0.0070600
v 0.1577820 -0.0028091 -0.0073371
v 0.1544360 -0.0024000 -0.0078600
v 0.1517500 -0.0024000 -0.0073800
v 0.1577820 -0.0028091 -0.0073371
v 0.1558200 -0.0024000 -0.0080200
v 0.1544360 -0.0024000 -0.0078600
v 0.1555000 0.0008000 -0.0077000
v 0.1485250 -0.0070500 -0.0087762
v 0.1484200 -0.0032333 -0.0099000
v 0.1491011 -0.0039000 -0.0073972
v 0.1485250 -0.0070500 -0.0087762
v 0.1491011 -0.0039000 -0.0073972
v 0.1480000 -0.0039000 -0.0082500
v 0.1484200 -0.0032333 -0.0099000
v 0.1480000 -0.0039000 -0.0082500
v 0.1490900 -0.0024000 -0.0070600
v 0.1485250 -0.0070500 -0.0087762
v 0.1484200 -0.0032333 -0.0099000
v 0.1480000 -0.0039000 -0.0082500
v 0.1480000 -0.0039000 -0.0082500
v 0.1490900 -0.0024000 -0.0070600
v 0.1484800 -0.0080000 -0.0074007
v 0.1574750 -0.0070500 -0.0087762
v 0.1575800 -0.0030667 -0.0099000
v 0.1563850 -0.0039000 -0.0080667
v 0.1574750 -0.0070500 -0.0087762
v 0.1563850 -0.0039000 -0.0080667
v 0.1577820 -0.0028091 -0.0073371
v 0.1574750 -0.0070500 -0.0087762
v 0.1575800 -0.0030667 -0.0099000
v 0.1577820 -0.0028091 -0.0073371
v 0.1563850 -0.0039000 -0.0080667
v 0.1577820 -0.0028091 -0.0073371
v 0.1575200 -0.0080000 -0.0074365
v 0.1563850 -0.0039000 -0.0080667
v 0.1575200 -0.0080000 -0.0074365
v 0.1574000 -0.0039000 -0.0070524
v 0.1491011 -0.0039000 -0.0073972
v 0.1480000 -0.0039000 -0.0082500
v 0.1484800 -0.0080000 -0.0074007
v 0.1563850 -0.0039000 -0.0080667
v 0.1537267 -0.0039000 -0.0080200
v 0.1555000 -0.0079000 -0.0077000
v 0.1537267 -0.0039000 -0.0080200
v 0.1542500 -0.0039000 -0.0073800
v 0.1555000 -0.0079000 -0.0077000
v 0.1563850 -0.0039000 -0.0080667
v 0.1542500 -0.0039000 -0.0073800
v 0.1555000 -0.0079000 -0.0077000
v 0.1537267 -0.0039000 -0.0080200
v 0.1542500 -0.0039000 -0.0073800
v 0.1530000 -0.0079000 -0.0077000
v 0.1537267 -0.0039000 -0.0080200
v 0.1517500 -0.0039000 -0.0073800
v 0.1530000 -0.0079000 -0.0077000
v 0.1542500 -0.0039000 -0.0073800
v 0.1517500 -0.0039000 -0.0073800
v 0.1530000 -0.0079000 -0.0077000
v 0.1517500 -0.0039000 -0.0073800
v 0.1505000 -0.0039000 -0.0080200
v 0.1505000 -0.0079000 -0.0077000
v 0.1491011 -0.0039000 -0.0073972
v 0.1505000 -0.0039000 -0.0080200
v 0.1505000 -0.0079000 -0.0077000
v 0.1491011 -0.0039000 -0.0073972
v 0.1517500 -0.0039000 -0.0073800
v 0.1505000 -0.0079000 -0.0077000
v 0.1577820 -0.0028091 -0.0073371
v 0.1544360 -0.0024000 -0.0078600
v 0.1555000 0.0008000 -0.0077000
v 0.1544360 -0.0024000 -0.0078600
v 0.1517500 -0.0024000 -0.0073800
v 0.1530000 0.0008000 -0.0077000
v 0.1517500 -0.0024000 -0.0073800
v 0.1517500 -0.0024000 -0.0080200
v 0.1530000 0.0008000 -0.0077000
v 0.1544360 -0.0024000 -0.0078600
v 0.1517500 -0.0024000 -0.0080200
v 0.1530000 0.0008000 -0.0077000
v 0.1517500 -0.0024000 -0.0073800
v 0.1517500 -0.0024000 -0.0080200
v 0.1505000 0.0008000 -0.0077000
v 0.1490900 -0.0024000 -0.0070600
v 0.1517500 -0.0024000 -0.0073800
v 0.1505000 0.0008000 -0.0077000
v 0.1490900 -0.0024000 -0.0070600
v 0.1517500 -0.0024000 -0.0080200
v 0.1505000 0.0008000 -0.0077000
vn 0.008009 0.026043 -0.999629
vn -0.003969 0.001452 -0.999991
vn 0.028058 0.067191 -0.997346
vn 0.041328 0.094413 -0.994675
vn -0.038253 -0.952117 -0.303330
vn -0.102368 -0.967808 -0.229933
vn 0.004035 -0.917240 -0.398314
vn -0.007334 -0.908530 -0.417755
vn 0.010292 -0.938381 -0.345450
vn 0.000000 -1.000000 0.000001
vn -0.029925 -0.963388 -0.266437
vn 0.000000 -1.000000 -0.000003
vn 0.000000 -1.000000 -0.000000
vn 0.000000 -1.000000 -0.000000
vn 0.000000 -1.000000 0.000002
vn 0.000000 -1.000000 -0.000003
vn 0.028803 -0.063822 0.997546
vn 0.020169 -0.048363 0.998626
vn 0.012795 -0.035157 0.999300
vn 0.003968 -0.019347 0.999805
vn -0.062758 0.948851 -0.309425
vn -0.093790 0.961076 -0.259878
vn 0.113720 0.964819 -0.237050
vn 0.241224 0.963529 -0.115853
vn 0.048520 0.954828 -0.293172
vn 0.007232 0.953742 -0.300539
vn -0.032394 0.939629 -0.340659
vn 0.056438 0.881318 0.469141
vn 0.060220 0.926773 0.370765
vn 0.061158 0.937622 0.342234
vn 0.056759 0.885263 0.461614
vn 0.349663 0.127775 -0.928121
vn 0.147399 0.112996 -0.982601
vn -0.114398 0.087514 -0.989573
vn 0.140683 0.112430 -0.983650
vn 0.959665 -0.054797 -0.275753
vn 0.959665 -0.054797 -0.275753
vn 0.959665 -0.054797 -0.275753
vn -0.596204 -0.227956 0.769790
vn -0.596204 -0.227956 0.769790
vn -0.596204 -0.227956 0.769790
vn -0.817759 0.575053 0.024186
vn -0.817759 0.575053 0.024186
vn -0.817759 0.575053 0.024186
vn -0.951541 -0.110661 -0.286921
vn -0.951541 -0.110661 -0.286921
vn -0.951541 -0.110661 -0.286921
vn -0.763706 0.044010 0.644062
vn -0.763706 0.044010 0.644062
vn -0.763706 0.044010 0.644062
vn -0.797742 -0.144161 -0.585513
vn -0.797742 -0.144161 -0.585513
vn -0.797742 -0.144161 -0.585513
vn -0.251367 -0.294641 0.921955
vn -0.251367 -0.294641 0.921955
vn -0.251367 -0.294641 0.921955
vn 0.996162 -0.047074 -0.073786
vn 0.996162 -0.047074 -0.073786
vn 0.996162 -0.047074 -0.073786
vn 0.466948 -0.006634 -0.884260
vn 0.466948 -0.006634 -0.884260
vn 0.466948 -0.006634 -0.884260
vn -0.704199 -0.086640 0.704696
vn -0.704199 -0.086640 0.704696
vn -0.704199 -0.086640 0.704696
vn 0.609745 -0.091701 -0.787275
vn 0.609745 -0.091701 -0.787275
vn 0.609745 -0.091701 -0.787275
vn -0.017486 -0.087430 -0.996017
vn -0.017486 -0.087430 -0.996017
vn -0.017486 -0.087430 -0.996017
vn -0.742991 -0.280787 0.607555
vn -0.742991 -0.280787 0.607555
vn -0.742991 -0.280787 0.607555
vn 0.306118 0.019516 0.951794
vn 0.306118 0.019516 0.951794
vn 0.306118 0.019516 0.951794
vn 0.760351 -0.187869 -0.621749
vn 0.760351 -0.187869 -0.621749
vn 0.760351 -0.187869 -0.621749
vn -0.307967 -0.020144 -0.951184
vn -0.307967 -0.020144 -0.951184
vn -0.307967 -0.020144 -0.951184
vn 0.000000 -0.079746 0.996815
vn 0.000000 -0.079746 0.996815
vn 0.000000 -0.079746 0.996815
vn 0.454582 -0.071030 -0.887868
vn 0.454582 -0.071030 -0.887868
vn 0.454582 -0.071030 -0.887868
vn -0.405642 -0.072890 -0.911121
vn -0.405642 -0.072890 -0.911121
vn -0.405642 -0.072890 -0.911121
vn -0.006466 -0.077732 0.996953
vn -0.006466 -0.077732 0.996953
vn -0.006466 -0.077732 0.996953
vn -0.154167 0.001860 0.988043
vn -0.154167 0.001860 0.988043
vn -0.154167 0.001860 0.988043
vn 0.175839 0.029711 0.983971
vn 0.175839 0.029711 0.983971
vn 0.175839 0.029711 0.983971
vn -0.931457 0.363850 -0.000000
vn -0.931457 0.363850 -0.000000
vn -0.931457 0.363850 -0.000000
vn 0.059287 0.076369 -0.995315
vn 0.059287 0.076369 -0.995315
vn 0.059287 0.076369 -0.995315
vn 0.931456 0.363854 -0.000000
vn 0.931456 0.363854 -0.000000
vn 0.931456 0.363854 -0.000000
vn 0.118188 0.144412 0.982434
vn 0.118188 0.144412 0.982434
vn 0.118188 0.144412 0.982434
vn -0.339216 -0.038519 -0.939920
vn -0.339216 -0.038519 -0.939920
vn -0.339216 -0.038519 -0.939920
f 123//123 122//122 121//121
f 123//123 121//121 124//124
f 129//129 127//127 128//128
f 125//125 127//127 129//129
f 131//131 125//125 129//129
f 130//130 131//131 129//129
f 126//126 125//125 131//131
f 135//135 133//133 134//134
f 134//134 132//132 136//136
f 134//134 136//136 135//135
f 139//139 137//137 138//138
f 139//139 138//138 140//140
f 147//147 141//141 142//142
f 143//143 146//146 145//145
f 143//143 147//147 146//146
f 143//143 141//141 147//147
f 143//143 145//145 144//144
f 149//149 150//150 151//151
f 149//149 151//151 148//148
f 152//152 153//153 155//155
f 153//153 154//154 155//155
f 156//156 157//157 158//158
f 161//161 159//159 160//160
f 164//164 162//162 163//163
f 165//165 167//167 166//166
f 170//170 169//169 168//168
f 172//172 171//171 173//173
f 174//174 176//176 175//175
f 177//177 178//178 179//179
f 180//180 181//181 182//182
f 184//184 185//185 183//183
f 187//187 186//186 188//188
f 191//191 190//190 189//189
f 192//192 194//194 193//193
f 196//196 197//197 195//195
f 200//200 198//198 199//199
f 201//201 203//203 202//202
f 205//205 206//206 204//204
f 209//209 208//208 207//207
f 211//211 212//212 210//210
f 213//213 215//215 214//214
f 218//218 217//217 216//216
f 220//220 219//219 221//221
f 224//224 223//223 222//222
f 225//225 226//226 227//227
f 228//228 229//229 230//230
f 233//233 231//231 232//232
f 235//235 234//234 236//236
