# OMX visual mesh; coordinates in metres
mtllib materials.mtl
usemtl white_led_diffuser
v 0.0320000 0.0168000 -0.0096000
v 0.0270000 0.0168000 -0.0096000
v 0.0320000 0.0160000 -0.0096000
v 0.0270000 0.0160000 -0.0096000
v 0.0320000 0.0168000 -0.0096000
v 0.0270000 0.0168000 -0.0096000
v 0.0320000 0.0170000 -0.0098000
v 0.0270000 0.0170000 -0.0098000
v 0.0270000 0.0168000 -0.0096000
v 0.0270000 0.0160000 -0.0096000
v 0.0270000 0.0170000 -0.0098000
v 0.0270000 0.0160000 -0.0070000
v 0.0270000 0.0170000 -0.0113000
v 0.0270000 0.0168000 -0.0115000
v 0.0270000 0.0150000 -0.0115000
v 0.0270000 0.0150000 -0.0076014
v 0.0270000 0.0151060 -0.0070000
v 0.0270000 0.0160000 -0.0070000
v 0.0270000 0.0151060 -0.0070000
v 0.0320000 0.0151060 -0.0070000
v 0.0320000 0.0160000 -0.0070000
v 0.0320000 0.0160000 -0.0096000
v 0.0270000 0.0160000 -0.0096000
v 0.0270000 0.0160000 -0.0070000
v 0.0320000 0.0160000 -0.0070000
v 0.0320000 0.0168000 -0.0096000
v 0.0320000 0.0160000 -0.0096000
v 0.0320000 0.0170000 -0.0098000
v 0.0320000 0.0151060 -0.0070000
v 0.0320000 0.0160000 -0.0070000
v 0.0320000 0.0150000 -0.0076014
v 0.0320000 0.0150000 -0.0115000
v 0.0320000 0.0168000 -0.0115000
v 0.0320000 0.0170000 -0.0113000
v 0.0320000 0.0170000 -0.0098000
v 0.0270000 0.0170000 -0.0098000
v 0.0270000 0.0170000 -0.0113000
v 0.0320000 0.0170000 -0.0113000
v 0.0270000 0.0170000 -0.0113000
v 0.0270000 0.0168000 -0.0115000
v 0.0320000 0.0168000 -0.0115000
v 0.0320000 0.0170000 -0.0113000
v 0.0270000 0.0168000 -0.0115000
v 0.0270000 0.0150000 -0.0115000
v 0.0320000 0.0150000 -0.0115000
v 0.0320000 0.0168000 -0.0115000
v 0.0270000 0.0150000 -0.0115000
v 0.0270000 0.0150000 -0.0076014
v 0.0270000 0.0151060 -0.0070000
v 0.0320000 0.0151060 -0.0070000
v 0.0320000 0.0150000 -0.0076014
v 0.0320000 0.0150000 -0.0115000
vn 0.000000 0.000000 1.000000
vn 0.000000 0.000000 1.000000
vn 0.000000 0.000000 1.000000
vn 0.000000 0.000000 1.000000
vn 0.000000 0.707110 0.707103
vn 0.000000 0.707113 0.707100
vn 0.000000 0.707110 0.707103
vn 0.000000 0.707113 0.707100
vn -1.000000 0.000000 0.000000
vn -1.000000 0.000000 0.000000
vn -1.000000 0.000000 0.000000
vn -1.000000 0.000000 0.000000
vn -1.000000 0.000000 0.000000
vn -1.000000 0.000000 0.000000
vn -1.000000 0.000000 0.000000
vn -1.000000 0.000000 0.000000
vn -1.000000 0.000000 0.000000
vn 0.000000 0.000000 1.000000
vn 0.000000 0.000000 1.000000
vn 0.000000 0.000000 1.000000
vn 0.000000 0.000000 1.000000
vn 0.000000 1.000000 0.000000
vn 0.000000 1.000000 0.000000
vn 0.000000 1.000000 0.000000
vn 0.000000 1.000000 0.000000
vn 1.000000 0.000000 0.000000
vn 1.000000 0.000000 0.000000
vn 1.000000 0.000000 0.000000
vn 1.000000 0.000000 0.000000
vn 1.000000 0.000000 0.000000
vn 1.000000 0.000000 0.000000
vn 1.000000 0.000000 0.000000
vn 1.000000 0.000000 0.000000
vn 1.000000 0.000000 0.000000
vn 0.000000 1.000000 0.000000
vn 0.000000 1.000000 0.000000
vn 0.000000 1.000000 0.000000
vn 0.000000 1.000000 0.000000
vn 0.000000 0.707140 -0.707074
vn 0.000000 0.707140 -0.707074
vn 0.000000 0.707136 -0.707077
vn 0.000000 0.707137 -0.707077
vn 0.000000 0.000000 -1.000000
vn 0.000000 0.000000 -1.000000
vn 0.000000 0.000000 -1.000000
vn 0.000000 0.000000 -1.000000
vn -0.000000 -1.000000 -0.000000
vn -0.000000 -0.996195 0.087155
vn -0.000001 -0.984808 0.173647
vn -0.000000 -0.984808 0.173645
vn -0.000000 -0.996195 0.087154
vn -0.000001 -1.000000 0.000000
f 2//2 3//3 1//1
f 2//2 4//4 3//3
f 8//8 6//6 5//5
f 8//8 5//5 7//7
f 13//13 14//14 10//10
f 13//13 10//10 11//11
f 11//11 10//10 9//9
f 14//14 15//15 10//10
f 10//10 16//16 12//12
f 12//12 16//16 17//17
f 15//15 16//16 10//10
f 21//21 19//19 20//20
f 21//21 18//18 19//19
f 24//24 25//25 22//22
f 24//24 22//22 23//23
f 32//32 27//27 31//31
f 32//32 33//33 27//27
f 33//33 34//34 27//27
f 31//31 30//30 29//29
f 27//27 30//30 31//31
f 27//27 28//28 26//26
f 34//34 28//28 27//27
f 38//38 37//37 36//36
f 38//38 36//36 35//35
f 42//42 41//41 40//40
f 42//42 40//40 39//39
f 43//43 46//46 45//45
f 43//43 45//45 44//44
f 50//50 48//48 51//51
f 47//47 52//52 51//51
f 47//47 51//51 48//48
f 50//50 49//49 48//48
