# OMX visual mesh; coordinates in metres
mtllib materials.mtl
usemtl printed_charcoal
v 0.0142000 -0.0100357 -0.0083571
v 0.0142000 -0.0147000 -0.0082500
v -0.0004860 -0.0147000 -0.0082373
v -0.0004714 -0.0180000 -0.0082407
v 0.0152000 -0.0180000 -0.0082500
v 0.0172000 -0.0160000 -0.0082500
v 0.0172001 -0.0100294 -0.0082941
v 0.0142000 -0.0147000 0.0082500
v 0.0172000 -0.0147000 0.0082500
v 0.0172000 -0.0160000 0.0082500
v 0.0152000 -0.0180000 0.0082500
v -0.0032913 -0.0180000 -0.0076747
v -0.0067482 -0.0180000 -0.0049028
v -0.0081034 -0.0180000 -0.0017060
v -0.0081717 -0.0180000 0.0016255
v -0.0067096 -0.0180000 0.0048747
v -0.0046038 -0.0180000 0.0068901
v -0.0016236 -0.0180000 0.0081570
v -0.0021032 -0.0147000 0.0080778
v -0.0054645 -0.0147000 0.0062474
v -0.0074394 -0.0147000 0.0036806
v -0.0082186 -0.0147000 0.0009727
v -0.0080776 -0.0147000 -0.0019392
v -0.0068337 -0.0147000 -0.0046771
v -0.0047990 -0.0147000 -0.0067720
v -0.0021589 -0.0147000 -0.0079947
v 0.0142000 -0.0100357 -0.0083571
v 0.0142000 -0.0147000 -0.0082500
v 0.0142000 0.0147000 -0.0082500
v 0.0142000 0.0147000 0.0082500
v 0.0142000 0.0100250 -0.0083250
v 0.0142000 0.0090000 -0.0095000
v 0.0142000 -0.0090000 -0.0095000
v 0.0142000 -0.0147000 0.0082500
v 0.0142000 -0.0100000 0.0037500
v 0.0142000 -0.0060000 0.0037500
v 0.0142000 -0.0060000 0.0142500
v 0.0142000 -0.0100000 0.0142500
v 0.0142000 -0.0100000 0.0235000
v 0.0142000 -0.0090000 0.0245000
v 0.0142000 0.0090000 0.0245000
v 0.0142000 0.0100000 0.0235000
v 0.0142000 0.0100000 0.0142500
v 0.0142000 0.0060000 0.0142500
v 0.0142000 0.0060000 0.0037500
v 0.0142000 0.0100000 0.0037500
v 0.0142000 -0.0070242 0.0217508
v 0.0142000 -0.0079838 0.0212489
v 0.0142000 -0.0091530 0.0219502
v 0.0142000 -0.0090097 0.0232140
v 0.0142000 -0.0082839 0.0236825
v 0.0142000 -0.0075171 0.0236252
v 0.0142000 -0.0067906 0.0228411
v 0.0142000 0.0091663 -0.0078790
v 0.0142000 0.0084639 -0.0086621
v 0.0142000 0.0073404 -0.0085461
v 0.0142000 0.0067807 -0.0076931
v 0.0142000 0.0069631 -0.0068646
v 0.0142000 0.0077236 -0.0062797
v 0.0142000 0.0090007 -0.0067111
v 0.0142000 0.0091993 0.0221617
v 0.0142000 0.0085551 0.0214106
v 0.0142000 0.0077772 0.0213013
v 0.0142000 0.0069749 0.0217958
v 0.0142000 0.0068496 0.0230124
v 0.0142000 0.0079836 0.0237680
v 0.0142000 0.0090141 0.0231965
v 0.0142000 -0.0072462 -0.0084563
v 0.0142000 -0.0080812 -0.0087340
v 0.0142000 -0.0088848 -0.0083388
v 0.0142000 -0.0092485 -0.0074179
v 0.0142000 -0.0086473 -0.0064436
v 0.0142000 -0.0076666 -0.0063179
v 0.0142000 -0.0070161 -0.0067852
v 0.0142000 -0.0067669 -0.0076621
v 0.0142000 0.0147000 0.0082500
v 0.0142000 0.0100000 0.0037500
v 0.0172000 0.0147000 0.0082500
v 0.0172000 0.0100000 0.0037500
v 0.0172000 -0.0160000 -0.0082500
v 0.0172001 -0.0100294 -0.0082941
v 0.0172000 0.0147000 0.0082500
v 0.0172000 0.0100000 0.0037500
v 0.0172000 0.0060000 0.0037500
v 0.0172000 0.0060000 0.0142500
v 0.0172000 0.0100000 0.0142500
v 0.0172000 0.0100000 0.0235000
v 0.0172000 0.0090000 0.0245000
v 0.0172000 -0.0090000 0.0245000
v 0.0172000 -0.0100000 0.0235000
v 0.0172000 -0.0100000 0.0142500
v 0.0172000 -0.0060000 0.0142500
v 0.0172000 -0.0060000 0.0037500
v 0.0172000 -0.0100000 0.0037500
v 0.0172000 -0.0147000 0.0082500
v 0.0172000 -0.0160000 0.0082500
v 0.0172000 -0.0090000 -0.0095000
v 0.0172000 0.0090000 -0.0095000
v 0.0172001 0.0100455 -0.0083182
v 0.0172000 0.0160000 -0.0082500
v 0.0172000 0.0160000 0.0082500
v 0.0172000 -0.0091861 0.0221655
v 0.0172000 -0.0086002 0.0214283
v 0.0172000 -0.0077772 0.0213013
v 0.0172000 -0.0069749 0.0217958
v 0.0172000 -0.0068775 0.0231096
v 0.0172000 -0.0080821 0.0237486
v 0.0172000 -0.0090461 0.0231596
v 0.0172000 0.0067914 -0.0077404
v 0.0172000 0.0072462 -0.0084563
v 0.0172000 0.0080326 -0.0087298
v 0.0172000 0.0088548 -0.0083767
v 0.0172000 0.0092286 -0.0075640
v 0.0172000 0.0087814 -0.0065087
v 0.0172000 0.0076028 -0.0063289
v 0.0172000 0.0069376 -0.0069050
v 0.0172000 0.0070242 0.0217508
v 0.0172000 0.0079838 0.0212489
v 0.0172000 0.0091530 0.0219502
v 0.0172000 0.0090097 0.0232140
v 0.0172000 0.0082839 0.0236825
v 0.0172000 0.0075171 0.0236252
v 0.0172000 0.0067906 0.0228411
v 0.0172000 -0.0091235 -0.0079654
v 0.0172000 -0.0084639 -0.0086621
v 0.0172000 -0.0073404 -0.0085461
v 0.0172000 -0.0067807 -0.0076931
v 0.0172000 -0.0069778 -0.0068354
v 0.0172000 -0.0077569 -0.0062778
v 0.0172000 -0.0086901 -0.0064948
v 0.0172000 -0.0091822 -0.0071666
v 0.0142000 0.0147000 -0.0082500
v 0.0142000 0.0147000 0.0082500
v 0.0142000 0.0100250 -0.0083250
v 0.0172000 0.0147000 0.0082500
v 0.0172001 0.0100455 -0.0083182
v 0.0172000 0.0160000 -0.0082500
v 0.0172000 0.0160000 0.0082500
v 0.0152000 0.0180000 0.0082500
v -0.0010114 0.0180000 0.0082137
v -0.0016875 0.0147000 0.0081386
v -0.0005182 0.0147000 -0.0082364
v -0.0020087 0.0147000 -0.0080185
v -0.0043334 0.0147000 -0.0070713
v -0.0067206 0.0147000 -0.0048828
v -0.0080930 0.0147000 -0.0018423
v -0.0081429 0.0147000 0.0017233
v -0.0066568 0.0147000 0.0049575
v -0.0045237 0.0147000 0.0069363
v 0.0152000 0.0180000 -0.0082500
v -0.0037713 0.0180000 0.0074017
v -0.0067482 0.0180000 0.0049028
v -0.0081034 0.0180000 0.0017060
v -0.0081717 0.0180000 -0.0016255
v -0.0067096 0.0180000 -0.0048748
v -0.0043405 0.0180000 -0.0070829
v -0.0013147 0.0180000 -0.0081893
v 0.0142000 0.0147000 -0.0082500
v 0.0142000 0.0147000 0.0082500
v -0.0016875 0.0147000 0.0081386
v -0.0005182 0.0147000 -0.0082364
v -0.0020087 0.0147000 -0.0080185
v -0.0043334 0.0147000 -0.0070713
v -0.0067206 0.0147000 -0.0048828
v -0.0080930 0.0147000 -0.0018423
v -0.0081429 0.0147000 0.0017233
v -0.0066568 0.0147000 0.0049575
v -0.0045237 0.0147000 0.0069363
v -0.0069136 0.0147000 0.0008668
v -0.0072012 0.0147000 -0.0003221
v -0.0065293 0.0147000 -0.0011105
v -0.0057161 0.0147000 -0.0011825
v -0.0050013 0.0147000 -0.0007256
v -0.0047904 0.0147000 0.0002245
v -0.0055423 0.0147000 0.0011926
v -0.0011955 0.0147000 -0.0064410
v -0.0002554 0.0147000 -0.0072034
v 0.0005380 0.0147000 -0.0070890
v 0.0011106 0.0147000 -0.0065293
v 0.0011825 0.0147000 -0.0057161
v 0.0005197 0.0147000 -0.0048331
v -0.0008668 0.0147000 -0.0050864
v 0.0068761 0.0147000 -0.0008760
v 0.0072331 0.0147000 0.0001621
v 0.0067071 0.0147000 0.0009996
v 0.0059368 0.0147000 0.0012176
v 0.0050505 0.0147000 0.0008109
v 0.0048051 0.0147000 -0.0003713
v 0.0057383 0.0147000 -0.0012319
v 0.0008761 0.0147000 0.0068761
v 0.0000952 0.0147000 0.0072096
v -0.0007282 0.0147000 0.0070023
v -0.0012665 0.0147000 0.0058334
v -0.0003712 0.0147000 0.0048051
v 0.0008668 0.0147000 0.0050863
v 0.0012167 0.0147000 0.0060478
v 0.0028513 0.0147000 0.0011810
v 0.0015784 0.0147000 0.0025756
v -0.0000388 0.0147000 0.0030609
v -0.0017121 0.0147000 0.0024959
v -0.0027645 0.0147000 0.0012745
v -0.0030049 0.0147000 -0.0004377
v -0.0023334 0.0147000 -0.0019432
v -0.0011559 0.0147000 -0.0027908
v 0.0003578 0.0147000 -0.0030231
v 0.0017755 0.0147000 -0.0024439
v 0.0028428 0.0147000 -0.0011355
v 0.0142000 0.0100250 -0.0083250
v 0.0142000 0.0090000 -0.0095000
v 0.0172000 0.0090000 -0.0095000
v 0.0172001 0.0100455 -0.0083182
v 0.0142000 0.0090000 -0.0095000
v 0.0142000 -0.0090000 -0.0095000
v 0.0172000 -0.0090000 -0.0095000
v 0.0172000 0.0090000 -0.0095000
v 0.0142000 -0.0100357 -0.0083571
v 0.0172001 -0.0100294 -0.0082941
v 0.0142000 -0.0090000 -0.0095000
v 0.0172000 -0.0090000 -0.0095000
v 0.0172000 0.0160000 -0.0082500
v 0.0172000 0.0160000 0.0082500
v 0.0152000 0.0180000 0.0082500
v 0.0152000 0.0180000 -0.0082500
v 0.0151665 0.0180065 -0.0005070
v 0.0150858 0.0180243 0.0006795
v 0.0149485 0.0180534 0.0044759
v 0.0149064 0.0180644 -0.0044195
v 0.0144727 0.0183354 -0.0012961
v 0.0140144 0.0191555 -0.0017791
v 0.0140329 0.0190166 -0.0035413
v 0.0143706 0.0184639 0.0014039
v 0.0140143 0.0191517 0.0017788
v 0.0140414 0.0189707 0.0035502
v 0.0140000 0.0214161 0.0034662
v 0.0140000 0.0222372 0.0029065
v 0.0140000 0.0225088 0.0021131
v 0.0140000 0.0216244 0.0016319
v 0.0140000 0.0224917 -0.0024183
v 0.0140000 0.0216046 -0.0034211
v 0.0140000 0.0218093 -0.0015055
v 0.0140000 0.0210488 -0.0017829
v 0.0152000 0.0180000 0.0082500
v -0.0010114 0.0180000 0.0082137
v 0.0152000 0.0180000 -0.0082500
v 0.0151665 0.0180065 -0.0005070
v 0.0150858 0.0180243 0.0006795
v 0.0149485 0.0180534 0.0044759
v 0.0149064 0.0180644 -0.0044195
v 0.0144727 0.0183354 -0.0012961
v 0.0140144 0.0191555 -0.0017791
v 0.0089573 0.0180312 -0.0007597
v 0.0099347 0.0189065 -0.0017349
v 0.0089524 0.0180222 -0.0045595
v -0.0037713 0.0180000 0.0074017
v -0.0067482 0.0180000 0.0049028
v -0.0081034 0.0180000 0.0017060
v -0.0081717 0.0180000 -0.0016255
v -0.0067096 0.0180000 -0.0048748
v -0.0043405 0.0180000 -0.0070829
v -0.0013147 0.0180000 -0.0081893
v 0.0087268 0.0180048 0.0047782
v 0.0089701 0.0180314 0.0007601
v -0.0048627 0.0180000 0.0005610
v -0.0049161 0.0180000 -0.0005697
v -0.0054902 0.0180000 -0.0011058
v -0.0064639 0.0180000 -0.0011621
v -0.0071163 0.0180000 -0.0004788
v -0.0071882 0.0180000 0.0003187
v -0.0067261 0.0180000 0.0009737
v -0.0059028 0.0180000 0.0012351
v -0.0012061 0.0180000 -0.0057268
v -0.0003928 0.0180000 -0.0047911
v 0.0009358 0.0180000 -0.0051572
v 0.0012069 0.0180000 -0.0062069
v 0.0007834 0.0180000 -0.0069411
v -0.0001953 0.0180000 -0.0072333
v -0.0010358 0.0180000 -0.0066530
v 0.0049544 0.0180000 -0.0006407
v 0.0047908 0.0180000 0.0001432
v 0.0053615 0.0180000 0.0011063
v 0.0065420 0.0180000 0.0010980
v 0.0071330 0.0180000 0.0004693
v 0.0070964 0.0180000 -0.0006140
v 0.0059169 0.0180000 -0.0012654
v 0.0007140 0.0180000 0.0049903
v -0.0001431 0.0180000 0.0047908
v -0.0010027 0.0180000 0.0052515
v -0.0011974 0.0180000 0.0062382
v -0.0006399 0.0180000 0.0070752
v 0.0006141 0.0180000 0.0070964
v 0.0012539 0.0180000 0.0060000
v 0.0029325 0.0180000 -0.0007041
v 0.0023334 0.0180000 -0.0019433
v 0.0006010 0.0180000 -0.0030216
v -0.0014875 0.0180000 -0.0026560
v -0.0025546 0.0180000 -0.0016074
v -0.0030746 0.0180000 0.0000815
v -0.0022413 0.0180000 0.0020719
v -0.0004782 0.0180000 0.0030190
v 0.0013449 0.0180000 0.0027226
v 0.0023665 0.0180000 0.0018654
v 0.0029613 0.0180000 0.0006721
v 0.0143706 0.0184639 0.0014039
v 0.0140143 0.0191517 0.0017788
v 0.0099350 0.0189129 0.0017356
v 0.0140414 0.0189707 0.0035502
v 0.0094120 0.0182879 0.0040848
v 0.0099647 0.0190591 0.0035361
v 0.0100000 0.0211740 0.0017531
v 0.0100000 0.0220000 0.0016000
v 0.0100000 0.0224618 0.0025408
v 0.0100000 0.0215061 0.0034454
v 0.0140000 0.0214161 0.0034662
v 0.0140000 0.0222372 0.0029065
v 0.0140000 0.0225088 0.0021131
v 0.0140000 0.0216244 0.0016319
v 0.0140000 0.0218093 -0.0015055
v 0.0140000 0.0210488 -0.0017829
v 0.0100000 0.0216244 -0.0016318
v 0.0149064 0.0180644 -0.0044195
v 0.0140329 0.0190166 -0.0035413
v 0.0089524 0.0180222 -0.0045595
v 0.0099371 0.0189154 -0.0035637
v 0.0140329 0.0190166 -0.0035413
v 0.0099371 0.0189154 -0.0035637
v 0.0140000 0.0224917 -0.0024183
v 0.0140000 0.0216046 -0.0034211
v 0.0100000 0.0212612 -0.0034872
v 0.0100000 0.0220687 -0.0031099
v 0.0100000 0.0225202 -0.0021448
v 0.0099347 0.0189065 -0.0017349
v 0.0099371 0.0189154 -0.0035637
v 0.0100000 0.0212612 -0.0034872
v 0.0100000 0.0216244 -0.0016318
v 0.0100000 0.0220687 -0.0031099
v 0.0100000 0.0225202 -0.0021448
v 0.0140000 0.0224917 -0.0024183
v 0.0140000 0.0218093 -0.0015055
v 0.0100000 0.0216244 -0.0016318
v 0.0100000 0.0225202 -0.0021448
v 0.0089573 0.0180312 -0.0007597
v 0.0099347 0.0189065 -0.0017349
v 0.0089524 0.0180222 -0.0045595
v 0.0099371 0.0189154 -0.0035637
v -0.0065293 0.0147000 -0.0011105
v -0.0057161 0.0147000 -0.0011825
v -0.0050013 0.0147000 -0.0007256
v -0.0047904 0.0147000 0.0002245
v -0.0048627 0.0180000 0.0005610
v -0.0049161 0.0180000 -0.0005697
v -0.0054902 0.0180000 -0.0011058
v -0.0064639 0.0180000 -0.0011621
v -0.0072012 0.0147000 -0.0003221
v -0.0065293 0.0147000 -0.0011105
v -0.0064639 0.0180000 -0.0011621
v -0.0071163 0.0180000 -0.0004788
v -0.0069136 0.0147000 0.0008668
v -0.0072012 0.0147000 -0.0003221
v -0.0071163 0.0180000 -0.0004788
v -0.0071882 0.0180000 0.0003187
v -0.0067261 0.0180000 0.0009737
v -0.0069136 0.0147000 0.0008668
v -0.0055423 0.0147000 0.0011926
v -0.0067261 0.0180000 0.0009737
v -0.0059028 0.0180000 0.0012351
v -0.0047904 0.0147000 0.0002245
v -0.0055423 0.0147000 0.0011926
v -0.0048627 0.0180000 0.0005610
v -0.0059028 0.0180000 0.0012351
v -0.0002554 0.0147000 -0.0072034
v 0.0005380 0.0147000 -0.0070890
v 0.0011106 0.0147000 -0.0065293
v 0.0011825 0.0147000 -0.0057161
v 0.0005197 0.0147000 -0.0048331
v 0.0009358 0.0180000 -0.0051572
v 0.0012069 0.0180000 -0.0062069
v 0.0007834 0.0180000 -0.0069411
v -0.0001953 0.0180000 -0.0072333
v -0.0011955 0.0147000 -0.0064410
v -0.0002554 0.0147000 -0.0072034
v -0.0001953 0.0180000 -0.0072333
v -0.0010358 0.0180000 -0.0066530
v -0.0011955 0.0147000 -0.0064410
v -0.0008668 0.0147000 -0.0050864
v -0.0012061 0.0180000 -0.0057268
v -0.0003928 0.0180000 -0.0047911
v -0.0010358 0.0180000 -0.0066530
v 0.0005197 0.0147000 -0.0048331
v -0.0008668 0.0147000 -0.0050864
v -0.0003928 0.0180000 -0.0047911
v 0.0009358 0.0180000 -0.0051572
v 0.0068761 0.0147000 -0.0008760
v 0.0072331 0.0147000 0.0001621
v 0.0067071 0.0147000 0.0009996
v 0.0059368 0.0147000 0.0012176
v 0.0050505 0.0147000 0.0008109
v 0.0048051 0.0147000 -0.0003713
v 0.0049544 0.0180000 -0.0006407
v 0.0047908 0.0180000 0.0001432
v 0.0053615 0.0180000 0.0011063
v 0.0065420 0.0180000 0.0010980
v 0.0071330 0.0180000 0.0004693
v 0.0070964 0.0180000 -0.0006140
v 0.0068761 0.0147000 -0.0008760
v 0.0057383 0.0147000 -0.0012319
v 0.0070964 0.0180000 -0.0006140
v 0.0059169 0.0180000 -0.0012654
v 0.0048051 0.0147000 -0.0003713
v 0.0057383 0.0147000 -0.0012319
v 0.0049544 0.0180000 -0.0006407
v 0.0059169 0.0180000 -0.0012654
v -0.0007282 0.0147000 0.0070023
v -0.0012665 0.0147000 0.0058334
v -0.0011974 0.0180000 0.0062382
v -0.0006399 0.0180000 0.0070752
v 0.0008761 0.0147000 0.0068761
v 0.0000952 0.0147000 0.0072096
v -0.0007282 0.0147000 0.0070023
v -0.0006399 0.0180000 0.0070752
v 0.0006141 0.0180000 0.0070964
v 0.0008761 0.0147000 0.0068761
v 0.0012167 0.0147000 0.0060478
v 0.0006141 0.0180000 0.0070964
v 0.0012539 0.0180000 0.0060000
v 0.0008668 0.0147000 0.0050863
v 0.0012167 0.0147000 0.0060478
v 0.0007140 0.0180000 0.0049903
v 0.0012539 0.0180000 0.0060000
v -0.0003712 0.0147000 0.0048051
v 0.0008668 0.0147000 0.0050863
v 0.0007140 0.0180000 0.0049903
v -0.0001431 0.0180000 0.0047908
v -0.0012665 0.0147000 0.0058334
v -0.0003712 0.0147000 0.0048051
v -0.0001431 0.0180000 0.0047908
v -0.0010027 0.0180000 0.0052515
v -0.0011974 0.0180000 0.0062382
v 0.0028513 0.0147000 0.0011810
v 0.0015784 0.0147000 0.0025756
v -0.0000388 0.0147000 0.0030609
v -0.0017121 0.0147000 0.0024959
v -0.0027645 0.0147000 0.0012745
v -0.0030049 0.0147000 -0.0004377
v -0.0023334 0.0147000 -0.0019432
v -0.0011559 0.0147000 -0.0027908
v 0.0003578 0.0147000 -0.0030231
v 0.0017755 0.0147000 -0.0024439
v 0.0028428 0.0147000 -0.0011355
v 0.0029325 0.0180000 -0.0007041
v 0.0023334 0.0180000 -0.0019433
v 0.0006010 0.0180000 -0.0030216
v -0.0014875 0.0180000 -0.0026560
v -0.0025546 0.0180000 -0.0016074
v -0.0030746 0.0180000 0.0000815
v -0.0022413 0.0180000 0.0020719
v -0.0004782 0.0180000 0.0030190
v 0.0013449 0.0180000 0.0027226
v 0.0023665 0.0180000 0.0018654
v 0.0029613 0.0180000 0.0006721
v 0.0152000 -0.0180000 -0.0082500
v 0.0172000 -0.0160000 -0.0082500
v 0.0172000 -0.0160000 0.0082500
v 0.0149484 -0.0180534 -0.0044758
v 0.0152000 -0.0180000 0.0082500
v 0.0149064 -0.0180644 0.0044196
v 0.0149517 -0.0180518 0.0008208
v 0.0149235 -0.0180615 -0.0008751
v 0.0140409 -0.0189727 -0.0035487
v 0.0140343 -0.0190133 -0.0017571
v 0.0140425 -0.0189692 0.0017494
v 0.0140333 -0.0190147 0.0035426
v 0.0149484 -0.0180534 -0.0044758
v 0.0140409 -0.0189727 -0.0035487
v 0.0089892 -0.0180278 -0.0045070
v 0.0099467 -0.0189583 -0.0035555
v -0.0004714 -0.0180000 -0.0082407
v 0.0152000 -0.0180000 -0.0082500
v 0.0149484 -0.0180534 -0.0044758
v 0.0152000 -0.0180000 0.0082500
v 0.0149064 -0.0180644 0.0044196
v 0.0149517 -0.0180518 0.0008208
v 0.0149235 -0.0180615 -0.0008751
v 0.0140343 -0.0190133 -0.0017571
v 0.0089892 -0.0180278 -0.0045070
v 0.0099467 -0.0189583 -0.0035555
v 0.0087934 -0.0180119 0.0005893
v 0.0089003 -0.0180166 0.0046145
v -0.0032913 -0.0180000 -0.0076747
v -0.0067482 -0.0180000 -0.0049028
v -0.0081034 -0.0180000 -0.0017060
v -0.0081717 -0.0180000 0.0016255
v -0.0067096 -0.0180000 0.0048747
v -0.0046038 -0.0180000 0.0068901
v -0.0016236 -0.0180000 0.0081570
v 0.0086964 -0.0180046 -0.0004833
v -0.0052427 -0.0180000 -0.0009865
v -0.0047911 -0.0180000 -0.0001586
v -0.0049479 -0.0180000 0.0006265
v -0.0056509 -0.0180000 0.0011797
v -0.0068255 -0.0180000 0.0009666
v -0.0072197 -0.0180000 -0.0001444
v -0.0065498 -0.0180000 -0.0011530
v 0.0006168 -0.0180000 -0.0048987
v -0.0005142 -0.0180000 -0.0048846
v -0.0012555 -0.0180000 -0.0058012
v -0.0008941 -0.0180000 -0.0068266
v -0.0001918 -0.0180000 -0.0072112
v 0.0008668 -0.0180000 -0.0069137
v 0.0012198 -0.0180000 -0.0058557
v 0.0055890 -0.0180000 0.0011596
v 0.0048151 -0.0180000 0.0004020
v 0.0050731 -0.0180000 -0.0008568
v 0.0062583 -0.0180000 -0.0012165
v 0.0070222 -0.0180000 -0.0006646
v 0.0072095 -0.0180000 0.0003411
v 0.0064829 -0.0180000 0.0011252
v -0.0010435 -0.0180000 0.0053783
v -0.0003529 -0.0180000 0.0048075
v 0.0008569 -0.0180000 0.0050731
v 0.0012194 -0.0180000 0.0061116
v 0.0008338 -0.0180000 0.0069019
v -0.0001464 -0.0180000 0.0072375
v -0.0011954 -0.0180000 0.0064410
v -0.0030545 -0.0180000 -0.0002014
v -0.0022641 -0.0180000 -0.0020408
v -0.0004005 -0.0180000 -0.0030495
v 0.0019776 -0.0180000 -0.0023765
v 0.0029931 -0.0180000 -0.0005123
v 0.0027449 -0.0180000 0.0013550
v 0.0015111 -0.0180000 0.0026225
v 0.0000000 -0.0180000 0.0030402
v -0.0015849 -0.0180000 0.0025862
v -0.0026225 -0.0180000 0.0015110
v 0.0096555 -0.0184879 0.0014592
v 0.0099899 -0.0192683 0.0017905
v 0.0140425 -0.0189692 0.0017494
v 0.0096899 -0.0185591 0.0038080
v 0.0099864 -0.0192298 0.0035128
v 0.0140333 -0.0190147 0.0035426
v 0.0140000 -0.0210860 0.0017782
v 0.0140000 -0.0218388 0.0015208
v 0.0140000 -0.0225117 0.0021307
v 0.0140000 -0.0221531 0.0030221
v 0.0140000 -0.0213186 0.0034807
v 0.0100000 -0.0217814 0.0033651
v 0.0100000 -0.0216244 0.0016319
v 0.0100000 -0.0225277 0.0021883
v 0.0093721 -0.0182537 -0.0011777
v 0.0099634 -0.0190568 -0.0017634
v 0.0100000 -0.0224618 -0.0025408
v 0.0100000 -0.0214933 -0.0034517
v 0.0100000 -0.0218830 -0.0015425
v 0.0100000 -0.0211150 -0.0017718
v 0.0140425 -0.0189692 0.0017494
v 0.0140333 -0.0190147 0.0035426
v 0.0140000 -0.0210860 0.0017782
v 0.0140000 -0.0218388 0.0015208
v 0.0140000 -0.0225117 0.0021307
v 0.0140000 -0.0221531 0.0030221
v 0.0140000 -0.0213186 0.0034807
v 0.0140000 -0.0218388 0.0015208
v 0.0140000 -0.0225117 0.0021307
v 0.0100000 -0.0216244 0.0016319
v 0.0100000 -0.0225277 0.0021883
v 0.0140409 -0.0189727 -0.0035487
v 0.0140343 -0.0190133 -0.0017571
v 0.0140000 -0.0216036 -0.0016424
v 0.0140000 -0.0215458 -0.0034362
v 0.0140000 -0.0225145 -0.0024132
v 0.0140409 -0.0189727 -0.0035487
v 0.0099467 -0.0189583 -0.0035555
v 0.0140000 -0.0215458 -0.0034362
v 0.0100000 -0.0214933 -0.0034517
v 0.0140343 -0.0190133 -0.0017571
v 0.0099634 -0.0190568 -0.0017634
v 0.0140000 -0.0216036 -0.0016424
v 0.0100000 -0.0218830 -0.0015425
v 0.0100000 -0.0211150 -0.0017718
v 0.0140000 -0.0216036 -0.0016424
v 0.0140000 -0.0225145 -0.0024132
v 0.0100000 -0.0224618 -0.0025408
v 0.0100000 -0.0218830 -0.0015425
v 0.0140000 -0.0215458 -0.0034362
v 0.0140000 -0.0225145 -0.0024132
v 0.0100000 -0.0224618 -0.0025408
v 0.0100000 -0.0214933 -0.0034517
v 0.0142000 -0.0147000 -0.0082500
v -0.0004860 -0.0147000 -0.0082373
v 0.0142000 -0.0147000 0.0082500
v -0.0021032 -0.0147000 0.0080778
v -0.0054645 -0.0147000 0.0062474
v -0.0074394 -0.0147000 0.0036806
v -0.0082186 -0.0147000 0.0009727
v -0.0080776 -0.0147000 -0.0019392
v -0.0068337 -0.0147000 -0.0046771
v -0.0047990 -0.0147000 -0.0067720
v -0.0021589 -0.0147000 -0.0079947
v -0.0065472 -0.0147000 -0.0011090
v -0.0071987 -0.0147000 -0.0003041
v -0.0068988 -0.0147000 0.0008988
v -0.0058569 -0.0147000 0.0012092
v -0.0050700 -0.0147000 0.0008152
v -0.0047765 -0.0147000 -0.0001290
v -0.0053704 -0.0147000 -0.0010908
v 0.0002146 -0.0147000 -0.0072498
v -0.0009300 -0.0147000 -0.0068152
v -0.0012161 -0.0147000 -0.0060000
v -0.0009023 -0.0147000 -0.0051441
v 0.0000000 -0.0147000 -0.0047773
v 0.0008632 -0.0147000 -0.0051144
v 0.0012368 -0.0147000 -0.0062801
v 0.0070647 -0.0147000 0.0006525
v 0.0071776 -0.0147000 -0.0003161
v 0.0065824 -0.0147000 -0.0011074
v 0.0055924 -0.0147000 -0.0011491
v 0.0048503 -0.0147000 -0.0004937
v 0.0049374 -0.0147000 0.0006326
v 0.0059505 -0.0147000 0.0012613
v -0.0010810 -0.0147000 0.0065874
v -0.0003040 -0.0147000 0.0071987
v 0.0007140 -0.0147000 0.0070097
v 0.0011775 -0.0147000 0.0062982
v 0.0010752 -0.0147000 0.0053600
v 0.0001602 -0.0147000 0.0047802
v -0.0007492 -0.0147000 0.0050242
v -0.0011927 -0.0147000 0.0057471
v -0.0030028 -0.0147000 0.0004756
v -0.0019775 -0.0147000 0.0023765
v 0.0001196 -0.0147000 0.0030418
v 0.0019911 -0.0147000 0.0023312
v 0.0029494 -0.0147000 0.0007081
v 0.0029429 -0.0147000 -0.0006699
v 0.0021919 -0.0147000 -0.0021369
v 0.0007393 -0.0147000 -0.0029263
v -0.0006721 -0.0147000 -0.0029613
v -0.0019328 -0.0147000 -0.0023181
v -0.0027908 -0.0147000 -0.0011968
v 0.0142000 -0.0147000 0.0082500
v 0.0142000 -0.0100000 0.0037500
v 0.0172000 -0.0100000 0.0037500
v 0.0172000 -0.0147000 0.0082500
v 0.0142000 -0.0100000 0.0037500
v 0.0142000 -0.0060000 0.0037500
v 0.0172000 -0.0060000 0.0037500
v 0.0172000 -0.0100000 0.0037500
v 0.0142000 -0.0060000 0.0037500
v 0.0142000 -0.0060000 0.0142500
v 0.0172000 -0.0060000 0.0142500
v 0.0172000 -0.0060000 0.0037500
v 0.0142000 -0.0060000 0.0142500
v 0.0142000 -0.0100000 0.0142500
v 0.0172000 -0.0100000 0.0142500
v 0.0172000 -0.0060000 0.0142500
v 0.0142000 -0.0100000 0.0142500
v 0.0142000 -0.0100000 0.0235000
v 0.0172000 -0.0100000 0.0235000
v 0.0172000 -0.0100000 0.0142500
v 0.0142000 -0.0100000 0.0235000
v 0.0142000 -0.0090000 0.0245000
v 0.0172000 -0.0090000 0.0245000
v 0.0172000 -0.0100000 0.0235000
v 0.0142000 -0.0090000 0.0245000
v 0.0142000 0.0090000 0.0245000
v 0.0172000 0.0090000 0.0245000
v 0.0172000 -0.0090000 0.0245000
v 0.0142000 0.0090000 0.0245000
v 0.0142000 0.0100000 0.0235000
v 0.0172000 0.0100000 0.0235000
v 0.0172000 0.0090000 0.0245000
v 0.0142000 0.0100000 0.0235000
v 0.0142000 0.0100000 0.0142500
v 0.0172000 0.0100000 0.0142500
v 0.0172000 0.0100000 0.0235000
v 0.0142000 0.0100000 0.0142500
v 0.0142000 0.0060000 0.0142500
v 0.0172000 0.0060000 0.0142500
v 0.0172000 0.0100000 0.0142500
v 0.0142000 0.0060000 0.0142500
v 0.0142000 0.0060000 0.0037500
v 0.0172000 0.0060000 0.0037500
v 0.0172000 0.0060000 0.0142500
v 0.0142000 0.0060000 0.0037500
v 0.0142000 0.0100000 0.0037500
v 0.0172000 0.0100000 0.0037500
v 0.0172000 0.0060000 0.0037500
v -0.0052427 -0.0180000 -0.0009865
v -0.0065498 -0.0180000 -0.0011530
v -0.0065472 -0.0147000 -0.0011090
v -0.0053704 -0.0147000 -0.0010908
v -0.0072197 -0.0180000 -0.0001444
v -0.0065498 -0.0180000 -0.0011530
v -0.0065472 -0.0147000 -0.0011090
v -0.0071987 -0.0147000 -0.0003041
v -0.0068255 -0.0180000 0.0009666
v -0.0072197 -0.0180000 -0.0001444
v -0.0071987 -0.0147000 -0.0003041
v -0.0068988 -0.0147000 0.0008988
v -0.0056509 -0.0180000 0.0011797
v -0.0068255 -0.0180000 0.0009666
v -0.0068988 -0.0147000 0.0008988
v -0.0058569 -0.0147000 0.0012092
v -0.0047911 -0.0180000 -0.0001586
v -0.0049479 -0.0180000 0.0006265
v -0.0056509 -0.0180000 0.0011797
v -0.0058569 -0.0147000 0.0012092
v -0.0050700 -0.0147000 0.0008152
v -0.0047765 -0.0147000 -0.0001290
v -0.0052427 -0.0180000 -0.0009865
v -0.0047911 -0.0180000 -0.0001586
v -0.0047765 -0.0147000 -0.0001290
v -0.0053704 -0.0147000 -0.0010908
v -0.0001918 -0.0180000 -0.0072112
v 0.0008668 -0.0180000 -0.0069137
v 0.0012198 -0.0180000 -0.0058557
v 0.0002146 -0.0147000 -0.0072498
v 0.0012368 -0.0147000 -0.0062801
v -0.0008941 -0.0180000 -0.0068266
v -0.0001918 -0.0180000 -0.0072112
v 0.0002146 -0.0147000 -0.0072498
v -0.0009300 -0.0147000 -0.0068152
v -0.0012555 -0.0180000 -0.0058012
v -0.0008941 -0.0180000 -0.0068266
v -0.0009300 -0.0147000 -0.0068152
v -0.0012161 -0.0147000 -0.0060000
v 0.0006168 -0.0180000 -0.0048987
v -0.0005142 -0.0180000 -0.0048846
v -0.0012555 -0.0180000 -0.0058012
v -0.0012161 -0.0147000 -0.0060000
v -0.0009023 -0.0147000 -0.0051441
v 0.0000000 -0.0147000 -0.0047773
v 0.0008632 -0.0147000 -0.0051144
v 0.0006168 -0.0180000 -0.0048987
v 0.0012198 -0.0180000 -0.0058557
v 0.0008632 -0.0147000 -0.0051144
v 0.0012368 -0.0147000 -0.0062801
v 0.0055890 -0.0180000 0.0011596
v 0.0048151 -0.0180000 0.0004020
v 0.0072095 -0.0180000 0.0003411
v 0.0064829 -0.0180000 0.0011252
v 0.0070647 -0.0147000 0.0006525
v 0.0049374 -0.0147000 0.0006326
v 0.0059505 -0.0147000 0.0012613
v 0.0050731 -0.0180000 -0.0008568
v 0.0062583 -0.0180000 -0.0012165
v 0.0070222 -0.0180000 -0.0006646
v 0.0072095 -0.0180000 0.0003411
v 0.0070647 -0.0147000 0.0006525
v 0.0071776 -0.0147000 -0.0003161
v 0.0065824 -0.0147000 -0.0011074
v 0.0055924 -0.0147000 -0.0011491
v 0.0048503 -0.0147000 -0.0004937
v 0.0048151 -0.0180000 0.0004020
v 0.0050731 -0.0180000 -0.0008568
v 0.0048503 -0.0147000 -0.0004937
v 0.0049374 -0.0147000 0.0006326
v -0.0010435 -0.0180000 0.0053783
v -0.0003529 -0.0180000 0.0048075
v 0.0008569 -0.0180000 0.0050731
v -0.0011954 -0.0180000 0.0064410
v -0.0010810 -0.0147000 0.0065874
v 0.0010752 -0.0147000 0.0053600
v 0.0001602 -0.0147000 0.0047802
v -0.0007492 -0.0147000 0.0050242
v -0.0011927 -0.0147000 0.0057471
v -0.0001464 -0.0180000 0.0072375
v -0.0011954 -0.0180000 0.0064410
v -0.0010810 -0.0147000 0.0065874
v -0.0003040 -0.0147000 0.0071987
v 0.0008338 -0.0180000 0.0069019
v -0.0001464 -0.0180000 0.0072375
v -0.0003040 -0.0147000 0.0071987
v 0.0007140 -0.0147000 0.0070097
v 0.0008569 -0.0180000 0.0050731
v 0.0012194 -0.0180000 0.0061116
v 0.0008338 -0.0180000 0.0069019
v 0.0007140 -0.0147000 0.0070097
v 0.0011775 -0.0147000 0.0062982
v 0.0010752 -0.0147000 0.0053600
v -0.0030545 -0.0180000 -0.0002014
v -0.0022641 -0.0180000 -0.0020408
v -0.0004005 -0.0180000 -0.0030495
v 0.0019776 -0.0180000 -0.0023765
v 0.0029931 -0.0180000 -0.0005123
v 0.0027449 -0.0180000 0.0013550
v 0.0015111 -0.0180000 0.0026225
v 0.0000000 -0.0180000 0.0030402
v -0.0015849 -0.0180000 0.0025862
v -0.0026225 -0.0180000 0.0015110
v -0.0030028 -0.0147000 0.0004756
v -0.0019775 -0.0147000 0.0023765
v 0.0001196 -0.0147000 0.0030418
v 0.0019911 -0.0147000 0.0023312
v 0.0029494 -0.0147000 0.0007081
v 0.0029429 -0.0147000 -0.0006699
v 0.0021919 -0.0147000 -0.0021369
v 0.0007393 -0.0147000 -0.0029263
v -0.0006721 -0.0147000 -0.0029613
v -0.0019328 -0.0147000 -0.0023181
v -0.0027908 -0.0147000 -0.0011968
v 0.0142000 -0.0082839 0.0236825
v 0.0142000 -0.0075171 0.0236252
v 0.0142000 -0.0067906 0.0228411
v 0.0172000 -0.0068775 0.0231096
v 0.0172000 -0.0080821 0.0237486
v 0.0142000 -0.0090097 0.0232140
v 0.0142000 -0.0082839 0.0236825
v 0.0172000 -0.0080821 0.0237486
v 0.0172000 -0.0090461 0.0231596
v 0.0142000 -0.0091530 0.0219502
v 0.0142000 -0.0090097 0.0232140
v 0.0172000 -0.0091861 0.0221655
v 0.0172000 -0.0090461 0.0231596
v 0.0142000 -0.0079838 0.0212489
v 0.0142000 -0.0091530 0.0219502
v 0.0172000 -0.0091861 0.0221655
v 0.0172000 -0.0086002 0.0214283
v 0.0172000 -0.0077772 0.0213013
v 0.0142000 -0.0070242 0.0217508
v 0.0142000 -0.0079838 0.0212489
v 0.0172000 -0.0077772 0.0213013
v 0.0172000 -0.0069749 0.0217958
v 0.0142000 -0.0070242 0.0217508
v 0.0142000 -0.0067906 0.0228411
v 0.0172000 -0.0069749 0.0217958
v 0.0172000 -0.0068775 0.0231096
v 0.0142000 0.0067807 -0.0076931
v 0.0142000 0.0069631 -0.0068646
v 0.0172000 0.0067914 -0.0077404
v 0.0172000 0.0069376 -0.0069050
v 0.0142000 0.0069631 -0.0068646
v 0.0142000 0.0077236 -0.0062797
v 0.0172000 0.0076028 -0.0063289
v 0.0172000 0.0069376 -0.0069050
v 0.0142000 0.0077236 -0.0062797
v 0.0142000 0.0090007 -0.0067111
v 0.0172000 0.0087814 -0.0065087
v 0.0172000 0.0076028 -0.0063289
v 0.0142000 0.0091663 -0.0078790
v 0.0142000 0.0084639 -0.0086621
v 0.0142000 0.0073404 -0.0085461
v 0.0142000 0.0090007 -0.0067111
v 0.0172000 0.0072462 -0.0084563
v 0.0172000 0.0080326 -0.0087298
v 0.0172000 0.0088548 -0.0083767
v 0.0172000 0.0092286 -0.0075640
v 0.0172000 0.0087814 -0.0065087
v 0.0142000 0.0073404 -0.0085461
v 0.0142000 0.0067807 -0.0076931
v 0.0172000 0.0067914 -0.0077404
v 0.0172000 0.0072462 -0.0084563
v 0.0142000 0.0068496 0.0230124
v 0.0142000 0.0079836 0.0237680
v 0.0172000 0.0082839 0.0236825
v 0.0172000 0.0075171 0.0236252
v 0.0172000 0.0067906 0.0228411
v 0.0142000 0.0079836 0.0237680
v 0.0142000 0.0090141 0.0231965
v 0.0172000 0.0090097 0.0232140
v 0.0172000 0.0082839 0.0236825
v 0.0142000 0.0091993 0.0221617
v 0.0142000 0.0090141 0.0231965
v 0.0172000 0.0091530 0.0219502
v 0.0172000 0.0090097 0.0232140
v 0.0142000 0.0091993 0.0221617
v 0.0142000 0.0085551 0.0214106
v 0.0142000 0.0077772 0.0213013
v 0.0172000 0.0079838 0.0212489
v 0.0172000 0.0091530 0.0219502
v 0.0142000 0.0077772 0.0213013
v 0.0142000 0.0069749 0.0217958
v 0.0172000 0.0070242 0.0217508
v 0.0172000 0.0079838 0.0212489
v 0.0142000 0.0069749 0.0217958
v 0.0142000 0.0068496 0.0230124
v 0.0172000 0.0070242 0.0217508
v 0.0172000 0.0067906 0.0228411
v 0.0142000 -0.0070161 -0.0067852
v 0.0142000 -0.0067669 -0.0076621
v 0.0172000 -0.0067807 -0.0076931
v 0.0172000 -0.0069778 -0.0068354
v 0.0142000 -0.0076666 -0.0063179
v 0.0142000 -0.0070161 -0.0067852
v 0.0172000 -0.0069778 -0.0068354
v 0.0172000 -0.0077569 -0.0062778
v 0.0142000 -0.0086473 -0.0064436
v 0.0142000 -0.0076666 -0.0063179
v 0.0172000 -0.0077569 -0.0062778
v 0.0172000 -0.0086901 -0.0064948
v 0.0142000 -0.0092485 -0.0074179
v 0.0142000 -0.0086473 -0.0064436
v 0.0172000 -0.0086901 -0.0064948
v 0.0172000 -0.0091822 -0.0071666
v 0.0142000 -0.0072462 -0.0084563
v 0.0142000 -0.0080812 -0.0087340
v 0.0142000 -0.0088848 -0.0083388
v 0.0142000 -0.0092485 -0.0074179
v 0.0172000 -0.0091235 -0.0079654
v 0.0172000 -0.0084639 -0.0086621
v 0.0172000 -0.0073404 -0.0085461
v 0.0172000 -0.0091822 -0.0071666
v 0.0142000 -0.0072462 -0.0084563
v 0.0142000 -0.0067669 -0.0076621
v 0.0172000 -0.0073404 -0.0085461
v 0.0172000 -0.0067807 -0.0076931
v 0.0100000 0.0220000 0.0016000
v 0.0140000 0.0225088 0.0021131
v 0.0140000 0.0216244 0.0016319
v 0.0100000 0.0220000 0.0016000
v 0.0100000 0.0224618 0.0025408
v 0.0140000 0.0225088 0.0021131
vn 0.021044 -0.022959 -0.999515
vn 0.001346 -0.005005 -0.999987
vn -0.072586 0.000723 -0.997362
vn -0.090912 -0.009125 -0.995817
vn -0.000320 -0.000097 -1.000000
vn -0.001579 -0.003644 -0.999992
vn 0.012222 -0.017295 -0.999776
vn -0.003612 0.000590 0.999993
vn -0.000005 0.000000 1.000000
vn -0.000004 0.000002 1.000000
vn -0.002996 -0.000903 0.999995
vn -0.412132 -0.021487 -0.910871
vn -0.805015 -0.018003 -0.592981
vn -0.979605 -0.006533 -0.200829
vn -0.982388 -0.010069 0.186583
vn -0.813638 -0.020371 0.581015
vn -0.546097 -0.010822 0.837652
vn -0.186730 -0.005198 0.982398
vn -0.248555 0.014161 0.968514
vn -0.650607 0.023886 0.759039
vn -0.893824 0.013440 0.448216
vn -0.995430 0.004721 0.095374
vn -0.973108 -0.008580 -0.230191
vn -0.830343 0.016578 -0.557006
vn -0.587027 0.000757 -0.809567
vn -0.268065 0.015136 -0.963282
vn -1.000000 -0.000004 -0.000011
vn -1.000000 0.000001 -0.000002
vn -1.000000 -0.000001 -0.000002
vn -1.000000 -0.000002 -0.000001
vn -1.000000 0.000004 -0.000007
vn -1.000000 0.000005 0.000003
vn -1.000000 -0.000005 0.000000
vn -1.000000 0.000002 -0.000001
vn -1.000000 0.000001 -0.000000
vn -1.000000 0.000000 0.000000
vn -1.000000 0.000000 0.000000
vn -1.000000 0.000000 0.000000
vn -1.000000 0.000000 0.000000
vn -1.000000 0.000000 0.000000
vn -1.000000 0.000000 0.000000
vn -1.000000 0.000000 0.000000
vn -1.000000 0.000000 0.000000
vn -1.000000 0.000000 0.000000
vn -1.000000 0.000000 0.000000
vn -1.000000 -0.000001 -0.000000
vn -1.000000 0.000000 0.000000
vn -1.000000 0.000000 0.000000
vn -1.000000 0.000000 0.000000
vn -1.000000 0.000000 0.000000
vn -1.000000 0.000000 0.000000
vn -1.000000 0.000000 0.000000
vn -1.000000 0.000000 0.000000
vn -1.000000 0.000016 -0.000003
vn -1.000000 0.000004 -0.000000
vn -1.000000 0.000000 0.000000
vn -1.000000 0.000000 0.000000
vn -1.000000 0.000000 0.000000
vn -1.000000 0.000000 0.000000
vn -1.000000 0.000001 -0.000002
vn -1.000000 0.000000 0.000000
vn -1.000000 0.000000 0.000000
vn -1.000000 0.000000 0.000000
vn -1.000000 0.000000 0.000000
vn -1.000000 0.000000 0.000000
vn -1.000000 0.000000 0.000000
vn -1.000000 0.000000 0.000000
vn -1.000000 0.000000 0.000000
vn -1.000000 0.000000 0.000000
vn -1.000000 -0.000009 -0.000001
vn -1.000000 -0.000003 -0.000005
vn -1.000000 0.000000 0.000000
vn -1.000000 0.000000 0.000000
vn -1.000000 0.000000 0.000000
vn -1.000000 0.000000 0.000000
vn -0.000004 -0.691572 0.722308
vn -0.000001 -0.691573 0.722307
vn -0.000003 -0.691572 0.722308
vn 0.000000 -0.691573 0.722307
vn 1.000000 -0.000003 0.000003
vn 1.000000 0.000000 0.000021
vn 1.000000 0.000000 0.000000
vn 1.000000 0.000000 0.000000
vn 1.000000 0.000000 0.000000
vn 1.000000 0.000000 0.000000
vn 1.000000 0.000000 0.000000
vn 1.000000 0.000000 0.000000
vn 1.000000 0.000000 0.000000
vn 1.000000 0.000000 0.000000
vn 1.000000 0.000000 0.000000
vn 1.000000 0.000000 0.000000
vn 1.000000 0.000000 0.000000
vn 1.000000 0.000000 0.000000
vn 1.000000 -0.000003 -0.000000
vn 1.000000 0.000000 0.000007
vn 1.000000 -0.000003 0.000003
vn 1.000000 0.000005 -0.000003
vn 1.000000 -0.000005 -0.000001
vn 1.000000 -0.000005 0.000006
vn 1.000000 0.000000 0.000002
vn 1.000000 0.000000 0.000000
vn 1.000000 0.000000 0.000000
vn 1.000000 0.000000 0.000000
vn 1.000000 0.000000 0.000000
vn 1.000000 0.000000 0.000000
vn 1.000000 0.000000 0.000000
vn 1.000000 0.000000 0.000000
vn 1.000000 0.000000 0.000000
vn 1.000000 0.000000 0.000000
vn 1.000000 0.000000 0.000000
vn 1.000000 0.000000 0.000000
vn 1.000000 -0.000008 0.000001
vn 1.000000 -0.000025 -0.000007
vn 1.000000 -0.000001 0.000001
vn 1.000000 0.000000 0.000000
vn 1.000000 0.000000 0.000000
vn 1.000000 0.000000 0.000000
vn 1.000000 0.000000 0.000000
vn 1.000000 0.000000 0.000000
vn 1.000000 0.000000 0.000000
vn 1.000000 0.000000 0.000000
vn 1.000000 0.000000 0.000000
vn 1.000000 0.000000 0.000000
vn 1.000000 0.000011 0.000015
vn 1.000000 0.000004 0.000000
vn 1.000000 0.000000 0.000000
vn 1.000000 0.000000 0.000000
vn 1.000000 0.000000 0.000000
vn 1.000000 -0.000006 -0.000001
vn 1.000000 -0.000007 -0.000002
vn 1.000000 -0.000001 0.000011
vn -0.002549 0.006383 -0.999976
vn -0.001655 -0.001097 0.999998
vn 0.002165 0.016040 -0.999869
vn -0.000005 0.000000 1.000000
vn -0.000421 0.014374 -0.999897
vn -0.002446 0.005645 -0.999981
vn -0.000004 -0.000002 1.000000
vn -0.001214 0.000363 0.999999
vn -0.127896 0.005210 0.991774
vn -0.199060 -0.013226 0.979898
vn -0.062131 -0.000755 -0.998068
vn -0.269079 -0.003735 -0.963111
vn -0.534957 -0.004129 -0.844869
vn -0.811515 0.002343 -0.584327
vn -0.974092 -0.008376 -0.225998
vn -0.978088 -0.003773 0.208157
vn -0.807663 -0.012594 0.589510
vn -0.554236 -0.006666 0.832333
vn -0.001990 0.000603 -0.999998
vn -0.469754 0.016593 0.882641
vn -0.808572 0.007170 0.588354
vn -0.977866 0.012805 0.208842
vn -0.979823 -0.001059 -0.199865
vn -0.812892 0.004132 -0.582399
vn -0.527693 0.006209 -0.849412
vn -0.172006 0.012501 -0.985017
vn -0.000000 -1.000000 -0.000000
vn -0.000000 -1.000000 -0.000000
vn -0.000000 -1.000000 -0.000000
vn 0.000000 -1.000000 0.000000
vn 0.000000 -1.000000 0.000000
vn 0.000000 -1.000000 0.000000
vn 0.000000 -1.000000 0.000000
vn 0.000000 -1.000000 0.000000
vn 0.000000 -1.000000 0.000000
vn 0.000000 -1.000000 0.000000
vn 0.000000 -1.000000 0.000000
vn 0.000000 -1.000000 0.000000
vn 0.000000 -1.000000 0.000000
vn 0.000000 -1.000000 0.000000
vn 0.000000 -1.000000 0.000000
vn 0.000000 -1.000000 0.000000
vn 0.000000 -1.000000 0.000000
vn 0.000000 -1.000000 0.000000
vn 0.000000 -1.000000 0.000000
vn 0.000000 -1.000000 0.000000
vn 0.000000 -1.000000 0.000000
vn 0.000000 -1.000000 0.000000
vn 0.000000 -1.000000 0.000000
vn 0.000000 -1.000000 0.000000
vn 0.000000 -1.000000 0.000000
vn -0.000000 -1.000000 -0.000000
vn -0.000000 -1.000000 -0.000000
vn -0.000000 -1.000000 0.000000
vn -0.000000 -1.000000 -0.000000
vn 0.000000 -1.000000 0.000000
vn 0.000000 -1.000000 0.000000
vn 0.000000 -1.000000 0.000000
vn -0.000000 -1.000000 -0.000000
vn -0.000005 -1.000000 -0.000010
vn 0.000000 -1.000000 0.000000
vn 0.000000 -1.000000 0.000000
vn 0.000000 -1.000000 0.000000
vn 0.000000 -1.000000 0.000000
vn -0.000000 -1.000000 -0.000001
vn 0.000000 -1.000000 0.000000
vn 0.000000 -1.000000 0.000000
vn 0.000000 -1.000000 0.000000
vn 0.000000 -1.000000 0.000000
vn 0.000000 -1.000000 0.000000
vn 0.000000 -1.000000 0.000000
vn 0.000000 -1.000000 0.000000
vn 0.000000 -1.000000 0.000000
vn 0.000000 -1.000000 0.000000
vn 0.000000 -1.000000 0.000000
vn 0.000000 -1.000000 0.000000
vn -0.003643 0.753569 -0.657359
vn -0.002520 0.752166 -0.658969
vn 0.000000 0.749003 -0.662567
vn -0.001113 0.750403 -0.660980
vn 0.000000 0.000000 -1.000000
vn 0.000000 0.000000 -1.000000
vn 0.000000 0.000000 -1.000000
vn 0.000000 0.000000 -1.000000
vn 0.004703 -0.747095 -0.664700
vn 0.015234 -0.760479 -0.649184
vn 0.000000 -0.740992 -0.671514
vn 0.010631 -0.754677 -0.656010
vn 0.692265 0.721403 0.018632
vn 0.693727 0.720025 -0.017521
vn 0.706616 0.706623 -0.037107
vn 0.706472 0.706478 0.042272
vn 0.716782 0.696824 0.025671
vn 0.663663 0.747995 0.007428
vn 0.672082 0.740472 -0.002582
vn 0.665804 0.746120 -0.003158
vn 0.604164 0.796800 -0.009781
vn 0.962741 0.270192 -0.011189
vn 0.915711 0.401051 0.025140
vn 0.670461 0.741890 0.009075
vn 0.969870 0.243417 0.010027
vn 0.905852 0.422803 -0.025891
vn 0.999935 0.011335 0.001288
vn 1.000000 0.000000 0.000000
vn 1.000000 0.000000 0.000000
vn 0.999975 0.006550 -0.002625
vn 1.000000 0.000000 0.000000
vn 0.999974 0.006892 0.002339
vn 1.000000 0.000000 0.000000
vn 0.999977 0.005801 0.003467
vn -0.004782 0.999936 0.010296
vn -0.000093 1.000000 0.000030
vn -0.004310 0.999902 -0.013322
vn -0.003538 0.990909 0.134489
vn -0.001424 0.980832 -0.194851
vn -0.011569 0.957066 0.289638
vn -0.006675 0.999828 -0.017325
vn -0.012375 0.817603 0.575649
vn -0.006904 0.283179 0.959042
vn -0.005052 0.993580 0.113022
vn 0.025402 0.454670 0.890298
vn -0.003307 0.999986 -0.004008
vn 0.000000 1.000000 0.000000
vn 0.000000 1.000000 0.000000
vn 0.000000 1.000000 0.000000
vn 0.000000 1.000000 0.000000
vn 0.000000 1.000000 0.000000
vn 0.000000 1.000000 0.000000
vn -0.000379 1.000000 -0.000113
vn -0.048769 0.997633 0.048478
vn -0.104897 0.989741 -0.097004
vn 0.000000 1.000000 0.000000
vn 0.000000 1.000000 0.000000
vn 0.000000 1.000000 0.000000
vn 0.000000 1.000000 0.000000
vn 0.000000 1.000000 0.000000
vn 0.000000 1.000000 0.000000
vn 0.000000 1.000000 0.000000
vn 0.000000 1.000000 0.000000
vn 0.000000 1.000000 0.000000
vn 0.000000 1.000000 0.000000
vn -0.001335 0.999999 0.000318
vn -0.003046 0.999995 0.000821
vn -0.004596 0.999965 0.007017
vn 0.000000 1.000000 0.000000
vn 0.000000 1.000000 0.000000
vn 0.000000 1.000000 0.000000
vn 0.000000 1.000000 0.000000
vn -0.000257 1.000000 -0.000474
vn -0.006151 0.999980 -0.001340
vn -0.015900 0.999846 -0.007450
vn -0.011740 0.999930 0.001154
vn -0.001979 0.999994 0.002947
vn 0.000001 1.000000 0.000000
vn 0.000000 1.000000 0.000000
vn 0.000000 1.000000 0.000000
vn 0.000000 1.000000 0.000000
vn 0.000000 1.000000 0.000000
vn -0.000807 0.999999 -0.001061
vn -0.000512 1.000000 -0.000332
vn 0.000000 1.000000 0.000000
vn 0.000000 1.000000 0.000000
vn 0.000000 1.000000 0.000000
vn 0.000000 1.000000 0.000000
vn 0.000000 1.000000 0.000000
vn 0.000000 1.000000 0.000000
vn 0.000000 1.000000 0.000000
vn 0.000000 1.000000 0.000000
vn 0.000000 1.000000 0.000000
vn 0.000000 1.000000 0.000000
vn 0.000000 1.000000 0.000000
vn -0.007578 0.750094 -0.661288
vn -0.016266 0.247936 -0.968640
vn -0.570620 0.604043 -0.556349
vn -0.012479 0.448325 0.893783
vn -0.292515 0.912780 0.285077
vn -0.628275 0.468797 0.620886
vn -0.728789 -0.055661 -0.682473
vn -0.782665 -0.113449 -0.612017
vn -0.755515 0.477457 0.448589
vn -0.638562 0.296389 0.710205
vn 0.002543 0.306175 0.951972
vn 0.012288 0.792281 0.610032
vn 0.023508 0.945811 0.323866
vn -0.021781 -0.074849 -0.996957
vn -0.013834 -0.342608 0.939377
vn 0.003934 -0.164410 0.986384
vn 0.026692 -0.076073 0.996745
vn -0.006535 0.689891 -0.723883
vn -0.012552 0.671690 -0.740726
vn 0.010593 0.739173 -0.673432
vn 0.007896 0.731661 -0.681623
vn 0.009871 0.041786 -0.999078
vn 0.004667 0.032444 -0.999463
vn 0.026150 0.778282 -0.627370
vn 0.022135 0.423716 -0.905524
vn -0.006197 0.222768 -0.974852
vn -0.016806 0.706694 -0.707320
vn -0.022533 0.905550 -0.423642
vn -0.999709 0.024074 -0.001204
vn -0.999679 0.025180 -0.002755
vn -0.999837 0.017713 -0.003468
vn -0.999909 0.013337 -0.001821
vn -1.000000 0.000000 0.000000
vn -1.000000 0.000000 0.000000
vn 0.046592 0.800033 0.598144
vn 0.031548 0.760612 0.648440
vn -0.050303 0.496315 0.866684
vn -0.033975 0.555774 0.830639
vn -0.667638 0.744486 -0.000893
vn -0.668770 0.743469 -0.000181
vn -0.670640 0.741782 0.000998
vn -0.673295 0.739370 0.002676
vn 0.088113 0.013804 0.996015
vn -0.236675 0.013053 0.971501
vn -0.819774 0.014638 0.572501
vn -0.983124 0.006534 0.182823
vn -0.998530 -0.026701 0.047174
vn -0.906162 -0.019468 0.422483
vn -0.394280 -0.016158 0.918848
vn -0.035438 -0.014212 0.999271
vn 0.754464 -0.001517 0.656339
vn 0.761117 -0.004974 0.648596
vn 0.730787 0.010439 0.682526
vn 0.723178 0.014173 0.690516
vn 0.957143 0.031837 -0.287862
vn 0.981594 0.032683 -0.188160
vn 0.995729 -0.021355 0.089826
vn 0.966190 -0.017776 -0.257219
vn 0.816791 -0.027740 -0.576266
vn 0.242991 0.033765 -0.969441
vn 0.230984 0.037754 -0.972225
vn 0.302552 0.013690 -0.953035
vn 0.284912 0.019686 -0.958351
vn -0.788936 0.045192 -0.612811
vn -0.742430 0.024772 -0.669466
vn -0.603164 -0.028337 -0.797114
vn -0.543236 -0.048537 -0.838176
vn -0.142747 0.011545 0.989692
vn -0.440154 0.012869 0.897830
vn -0.903441 0.017648 0.428350
vn -0.963146 0.026274 -0.267692
vn -0.799061 0.041859 -0.599791
vn -0.946897 -0.016396 -0.321120
vn -0.990290 -0.024737 0.136797
vn -0.619568 -0.020685 0.784670
vn -0.264829 -0.016699 0.964151
vn 0.618123 0.001381 0.786080
vn 0.629890 -0.004444 0.776671
vn 0.582258 0.018663 0.812789
vn 0.567985 0.025356 0.822648
vn 0.985290 0.039174 -0.166338
vn 0.942765 0.032528 -0.331868
vn 0.965223 -0.032790 -0.259363
vn 0.753808 -0.049651 -0.655216
vn 0.982879 -0.035948 0.180712
vn 0.074801 0.033378 -0.996640
vn 0.179332 0.062093 -0.981827
vn -0.160507 -0.031815 -0.986522
vn -0.265153 -0.061059 -0.962271
vn -0.944989 0.037288 0.324971
vn -0.992626 0.025970 -0.118406
vn -0.597320 0.017395 -0.801814
vn 0.068561 0.022700 -0.997389
vn 0.783076 0.034475 -0.620970
vn 0.988983 0.026980 -0.145548
vn 0.978528 -0.027593 0.204258
vn 0.986558 -0.025189 -0.161458
vn 0.491550 -0.031816 -0.870268
vn -0.405424 -0.023805 -0.913819
vn -0.933507 -0.022043 -0.357881
vn -0.995593 -0.019670 0.091693
vn -0.343947 0.010809 0.938927
vn -0.298419 0.025830 0.954085
vn -0.483089 -0.037202 0.874781
vn -0.444715 -0.023620 0.895361
vn 0.677655 0.029345 0.734794
vn 0.651436 0.018875 0.758469
vn 0.576090 -0.009567 0.817331
vn 0.544268 -0.020946 0.838650
vn 0.895579 0.024474 -0.444228
vn 0.907858 0.032285 -0.418034
vn 0.851347 -0.000426 -0.524602
vn 0.832255 -0.010018 -0.554303
vn -0.392549 0.030200 -0.919235
vn -0.073441 0.016366 -0.997165
vn 0.244061 0.014891 -0.969646
vn 0.052960 -0.028840 -0.998180
vn -0.046282 -0.026968 -0.998564
vn -0.912514 -0.004097 -0.409024
vn -0.924808 0.004909 -0.380402
vn -0.863144 -0.034897 -0.503750
vn -0.874871 -0.028188 -0.483536
vn -0.929127 0.006635 0.369700
vn -0.939583 0.015539 0.341968
vn -0.881536 -0.027090 0.471340
vn -0.894115 -0.018996 0.447435
vn -0.222358 0.018427 0.974791
vn -0.221479 0.018126 0.974997
vn -0.225468 0.019491 0.974056
vn -0.226658 0.019898 0.973771
vn 0.810135 0.038395 0.584985
vn 0.710282 0.040846 0.702731
vn 0.472243 -0.028818 0.880997
vn 0.800690 -0.026975 0.598471
vn 0.980112 -0.044228 0.193456
vn -0.932330 0.025095 -0.360738
vn -0.530038 0.022440 -0.847677
vn 0.013543 0.017259 -0.999759
vn 0.555887 0.021694 -0.830975
vn 0.910207 0.022160 -0.413560
vn 0.988816 0.023391 0.147296
vn 0.776298 0.016167 0.630159
vn 0.367205 0.003658 0.930133
vn -0.105173 0.007310 0.994427
vn -0.592372 0.018537 0.805451
vn -0.941173 0.025946 0.336929
vn -0.976410 -0.001682 0.215917
vn -0.745103 -0.025536 0.666460
vn -0.186005 -0.021827 0.982306
vn 0.456945 -0.018136 0.889310
vn 0.854454 -0.019375 0.519165
vn 0.998785 -0.026743 -0.041395
vn 0.736871 -0.033970 -0.675179
vn 0.164952 -0.025816 -0.985964
vn -0.422138 -0.014961 -0.906408
vn -0.779765 -0.015714 -0.625875
vn -0.979971 -0.002279 -0.199129
vn 0.706622 -0.706617 0.037108
vn 0.692596 -0.721002 0.021627
vn 0.690936 -0.722541 -0.023290
vn 0.690048 -0.723715 0.008356
vn 0.706477 -0.706473 -0.042272
vn 0.686787 -0.726848 -0.003934
vn 0.690981 -0.722867 -0.002856
vn 0.686407 -0.727216 -0.001531
vn 0.718259 -0.695776 0.000024
vn 0.736469 -0.676354 -0.012606
vn 0.719683 -0.694299 0.002433
vn 0.742380 -0.669849 -0.013196
vn 0.000631 -0.710410 -0.703788
vn 0.000398 -0.711024 -0.703168
vn -0.000807 -0.714198 -0.699944
vn -0.001338 -0.715591 -0.698518
vn -0.000673 -1.000000 -0.000272
vn -0.002703 -0.999926 -0.011900
vn -0.004223 -0.999887 -0.014422
vn -0.004827 -0.999905 0.012936
vn -0.012295 -0.951447 0.307566
vn -0.014674 -0.958231 -0.285620
vn -0.011537 -0.951694 0.306832
vn -0.015037 -0.663093 0.748386
vn -0.123137 -0.992388 0.001621
vn -0.895599 -0.444492 0.018141
vn -0.068059 -0.995473 -0.066340
vn -0.079159 -0.993668 0.079734
vn -0.000001 -1.000000 -0.000001
vn -0.000001 -1.000000 -0.000001
vn -0.000001 -1.000000 -0.000001
vn -0.000000 -1.000000 -0.000000
vn 0.000000 -1.000000 0.000000
vn 0.000000 -1.000000 0.000000
vn -0.000252 -1.000000 0.000068
vn -0.045072 -0.998201 0.039531
vn -0.000000 -1.000000 -0.000000
vn 0.000000 -1.000000 0.000000
vn 0.000000 -1.000000 0.000000
vn 0.000000 -1.000000 0.000000
vn 0.000000 -1.000000 0.000000
vn -0.000001 -1.000000 -0.000001
vn -0.000001 -1.000000 -0.000001
vn 0.000000 -1.000000 0.000000
vn -0.000002 -1.000000 0.000000
vn -0.000001 -1.000000 -0.000001
vn -0.000002 -1.000000 0.000001
vn -0.000001 -1.000000 0.000000
vn -0.004020 -0.999986 0.003457
vn -0.002570 -0.999996 0.001328
vn -0.001021 -0.999998 -0.001859
vn 0.000000 -1.000000 0.000000
vn 0.000000 -1.000000 0.000000
vn -0.003057 -0.999988 0.003741
vn -0.003354 -0.999987 0.003787
vn -0.005422 -0.999977 -0.004076
vn -0.002733 -0.999989 -0.003762
vn 0.000000 -1.000000 0.000000
vn 0.000000 -1.000000 0.000000
vn 0.000000 -1.000000 0.000000
vn -0.001785 -0.999998 -0.001042
vn -0.003986 -0.999967 -0.007052
vn 0.000000 -1.000000 0.000000
vn 0.000000 -1.000000 0.000000
vn 0.000000 -1.000000 0.000000
vn -0.000000 -1.000000 -0.000001
vn -0.000000 -1.000000 -0.000000
vn 0.000000 -1.000000 0.000000
vn 0.000000 -1.000000 0.000000
vn 0.000000 -1.000000 0.000000
vn 0.000000 -1.000000 0.000000
vn 0.000000 -1.000000 0.000000
vn 0.000000 -1.000000 0.000000
vn 0.000000 -1.000000 0.000000
vn -0.377486 -0.845554 -0.377547
vn -0.678768 -0.283982 -0.677221
vn -0.019921 -0.438246 -0.898634
vn -0.415163 -0.813511 0.407233
vn -0.661255 -0.327726 0.674787
vn -0.015988 -0.419142 0.907780
vn -0.002600 0.155692 -0.987802
vn -0.008940 0.323430 -0.946210
vn 0.009078 -0.927702 0.373210
vn 0.015154 -0.752735 0.658149
vn 0.007961 -0.249004 0.968470
vn -0.625393 -0.394622 0.673170
vn -0.835885 0.051498 -0.546484
vn -0.711260 -0.603622 0.360208
vn -0.277976 -0.922811 0.266738
vn -0.742119 -0.554837 0.376052
vn -1.000000 0.000000 0.000000
vn -0.999925 -0.011932 0.002687
vn -1.000000 0.000000 0.000000
vn -0.999942 -0.010290 0.003184
vn 0.999789 -0.020018 0.004610
vn 0.999844 -0.017595 0.001765
vn 0.999966 -0.008272 0.000386
vn 1.000000 0.000000 0.000000
vn 1.000000 0.000000 0.000000
vn 1.000000 0.000000 0.000000
vn 0.999968 -0.007904 -0.001080
vn -0.015164 -0.649009 -0.760629
vn -0.007990 -0.671557 -0.740910
vn -0.051685 -0.523805 -0.850269
vn -0.045564 -0.546030 -0.836526
vn 0.999898 -0.014180 0.001901
vn 0.999909 -0.013072 0.003429
vn 0.999957 -0.009244 0.000639
vn 0.999939 -0.011055 -0.000356
vn 1.000000 0.000000 0.000000
vn 0.002662 -0.042706 -0.999084
vn 0.001530 -0.040893 -0.999162
vn 0.003300 -0.043727 -0.999038
vn 0.002160 -0.041902 -0.999119
vn -0.002016 0.044244 0.999019
vn -0.021564 0.013292 0.999679
vn -0.009530 0.060541 0.998120
vn 0.003965 0.286057 0.958204
vn -0.016180 0.129924 0.991392
vn 0.064051 -0.644633 0.761804
vn 0.048340 -0.689799 0.722385
vn -0.027392 -0.864785 0.501395
vn -0.010820 -0.832415 0.554047
vn 0.008603 -0.717949 -0.696043
vn 0.012374 -0.726072 -0.687507
vn -0.002218 -0.694042 -0.719931
vn -0.006174 -0.685083 -0.728438
vn 0.000000 1.000000 0.000000
vn 0.000000 1.000000 0.000000
vn 0.000000 1.000000 0.000000
vn 0.000000 1.000000 0.000000
vn 0.000000 1.000000 0.000000
vn 0.000000 1.000000 0.000000
vn 0.000000 1.000000 0.000000
vn -0.000000 1.000000 0.000000
vn 0.000000 1.000000 0.000000
vn 0.000000 1.000000 0.000000
vn 0.000000 1.000000 -0.000001
vn 0.000000 1.000000 0.000000
vn 0.000000 1.000000 0.000000
vn 0.000000 1.000000 0.000000
vn 0.000000 1.000000 0.000000
vn 0.000000 1.000000 0.000000
vn 0.000000 1.000000 0.000000
vn 0.000000 1.000000 0.000000
vn 0.000000 1.000000 0.000000
vn 0.000001 1.000000 -0.000001
vn 0.000000 1.000000 0.000001
vn 0.000000 1.000000 0.000001
vn 0.000000 1.000000 0.000000
vn 0.000000 1.000000 0.000000
vn 0.000000 1.000000 0.000000
vn 0.000000 1.000000 0.000000
vn 0.000000 1.000000 0.000000
vn 0.000000 1.000000 0.000000
vn 0.000000 1.000000 0.000000
vn 0.000000 1.000000 0.000000
vn 0.000000 1.000000 0.000000
vn 0.000000 1.000000 0.000000
vn 0.000000 1.000000 0.000000
vn 0.000000 1.000000 0.000000
vn 0.000000 1.000000 0.000000
vn 0.000000 1.000000 0.000000
vn 0.000000 1.000000 0.000000
vn 0.000000 1.000000 0.000000
vn 0.000000 1.000000 0.000000
vn 0.000000 1.000000 0.000000
vn 0.000000 1.000000 0.000000
vn 0.000000 1.000000 0.000000
vn 0.000000 1.000000 0.000000
vn 0.000000 1.000000 0.000000
vn 0.000000 1.000000 0.000000
vn 0.000000 1.000000 0.000000
vn 0.000000 1.000000 0.000000
vn 0.000000 1.000000 0.000000
vn 0.000000 1.000000 0.000000
vn 0.000000 1.000000 0.000000
vn 0.000000 1.000000 0.000000
vn -0.000003 0.691572 0.722307
vn 0.000000 0.691572 0.722308
vn -0.000001 0.691572 0.722308
vn -0.000004 0.691573 0.722307
vn 0.000000 0.000000 1.000000
vn 0.000000 0.000000 1.000000
vn 0.000000 0.000000 1.000000
vn 0.000000 0.000000 1.000000
vn -0.000000 -1.000000 -0.000000
vn -0.000000 -1.000000 -0.000000
vn -0.000000 -1.000000 -0.000000
vn -0.000000 -1.000000 -0.000000
vn 0.000000 0.000000 -1.000000
vn 0.000000 0.000000 -1.000000
vn 0.000000 0.000000 -1.000000
vn 0.000000 0.000000 -1.000000
vn 0.000000 -1.000000 0.000000
vn 0.000000 -1.000000 0.000000
vn 0.000000 -1.000000 0.000000
vn 0.000000 -1.000000 0.000000
vn 0.000000 -0.707113 0.707101
vn 0.000000 -0.707113 0.707101
vn 0.000000 -0.707113 0.707101
vn 0.000000 -0.707113 0.707101
vn 0.000000 0.000000 1.000000
vn 0.000000 0.000000 1.000000
vn 0.000000 0.000000 1.000000
vn 0.000000 0.000000 1.000000
vn 0.000000 0.707113 0.707101
vn 0.000000 0.707113 0.707101
vn 0.000000 0.707113 0.707101
vn 0.000000 0.707113 0.707101
vn 0.000000 1.000000 0.000000
vn 0.000000 1.000000 0.000000
vn 0.000000 1.000000 0.000000
vn 0.000000 1.000000 0.000000
vn 0.000000 0.000000 -1.000000
vn 0.000000 0.000000 -1.000000
vn 0.000000 0.000000 -1.000000
vn 0.000000 0.000000 -1.000000
vn 0.000000 1.000000 0.000000
vn 0.000000 1.000000 0.000000
vn 0.000000 1.000000 0.000000
vn 0.000000 1.000000 0.000000
vn 0.000000 0.000000 1.000000
vn 0.000000 0.000000 1.000000
vn 0.000000 0.000000 1.000000
vn 0.000000 0.000000 1.000000
vn -0.126309 0.026437 0.991639
vn -0.102265 0.017789 0.994598
vn -0.015483 -0.013324 0.999791
vn -0.042001 -0.003834 0.999110
vn 0.832800 0.021459 0.553158
vn 0.822651 0.015560 0.568333
vn 0.777280 -0.008991 0.629091
vn 0.790199 -0.002273 0.612847
vn 0.942328 0.014066 -0.334396
vn 0.949460 0.006866 -0.313812
vn 0.970153 -0.017901 -0.241832
vn 0.964978 -0.010990 -0.262101
vn 0.178502 0.019940 -0.983738
vn 0.200177 0.013279 -0.979670
vn 0.285475 -0.013330 -0.958294
vn 0.262611 -0.006135 -0.964882
vn -0.980600 0.006085 -0.195926
vn -0.854851 0.012157 -0.518731
vn -0.592407 0.015301 -0.805493
vn -0.447707 -0.019944 -0.893958
vn -0.762404 -0.016858 -0.646882
vn -0.959366 -0.014674 -0.281784
vn -0.872507 -0.003702 0.488588
vn -0.877896 -0.000411 0.478851
vn -0.855755 -0.013505 0.517205
vn -0.850727 -0.016333 0.525354
vn -0.270325 0.044548 0.961738
vn -0.689302 0.034167 0.723668
vn -0.947618 0.045553 0.316140
vn -0.617617 -0.042056 0.785354
vn -0.753063 -0.041636 0.656630
vn 0.480365 0.002185 0.877066
vn 0.453979 -0.005389 0.890996
vn 0.354826 -0.032772 0.934358
vn 0.374399 -0.027494 0.926860
vn 0.943184 0.009022 0.332147
vn 0.943114 0.009090 0.332344
vn 0.943449 0.008767 0.331400
vn 0.943534 0.008685 0.331161
vn -0.071862 0.023243 -0.997144
vn 0.422665 0.035199 -0.905602
vn 0.810329 0.029791 -0.585217
vn 0.938414 -0.031938 -0.344033
vn 0.718481 -0.023925 -0.695135
vn 0.008459 -0.025663 -0.999635
vn -0.363550 -0.033708 -0.930965
vn -0.845708 0.028314 -0.532894
vn -0.873543 0.014890 -0.486520
vn -0.935327 -0.021751 -0.353116
vn -0.951715 -0.034316 -0.305060
vn 0.363356 0.024662 -0.931324
vn 0.699345 0.024002 -0.714381
vn -0.733165 0.031927 -0.679301
vn -0.418653 0.026232 -0.907767
vn -0.532219 -0.027399 -0.846163
vn 0.563061 -0.020757 -0.826155
vn 0.030605 -0.034466 -0.998937
vn 0.360296 0.025896 0.932479
vn -0.167090 0.031721 0.985431
vn -0.845109 0.025255 0.533997
vn -0.991179 0.016607 0.131487
vn -0.992743 -0.032642 -0.115739
vn -0.964416 -0.025307 0.263175
vn -0.466192 -0.024324 0.884349
vn 0.331297 -0.026512 0.943154
vn 0.661479 -0.037747 0.749013
vn 0.989026 0.028784 0.144909
vn 0.978685 0.044010 0.200598
vn 0.999791 -0.014552 -0.014327
vn 0.996529 -0.031539 -0.077036
vn 0.871470 0.025136 0.489804
vn 0.239759 0.030459 0.970354
vn -0.279122 0.026278 0.959896
vn 0.994866 0.020038 0.099202
vn 0.990871 -0.028525 -0.131760
vn -0.534855 -0.037991 0.844089
vn -0.149122 -0.028159 0.988418
vn 0.601277 -0.023146 0.798705
vn 0.977505 -0.019664 0.209993
vn 0.604585 0.019513 -0.796302
vn 0.607188 0.018360 -0.794346
vn 0.618316 0.013396 -0.785815
vn 0.615061 0.014855 -0.788340
vn -0.323817 0.019144 -0.945926
vn -0.297442 0.011664 -0.954669
vn -0.182480 -0.020269 -0.983001
vn -0.209762 -0.012787 -0.977669
vn -0.943582 0.033799 0.329408
vn -0.997657 0.020726 -0.065203
vn -0.890053 0.009320 -0.455761
vn -0.837857 -0.012579 -0.545744
vn -0.972076 -0.014161 -0.234237
vn -0.988273 -0.008450 0.152462
vn 0.996675 0.028461 0.076350
vn 0.734154 0.028154 0.678399
vn 0.119391 0.031988 0.992332
vn -0.631587 0.029392 0.774748
vn -0.982283 0.021596 0.186156
vn -0.899883 0.024975 -0.435417
vn -0.499703 0.017675 -0.866017
vn 0.016242 -0.006381 -0.999848
vn 0.495993 0.003842 -0.868318
vn 0.874812 0.021571 -0.483982
vn 0.982804 -0.032441 -0.181779
vn 0.629634 -0.021899 -0.776583
vn -0.022072 -0.015870 -0.999630
vn -0.641112 -0.025945 -0.767008
vn -0.967721 -0.020412 -0.251194
vn -0.969809 -0.003103 0.243847
vn -0.725029 -0.008776 0.688663
vn -0.257499 -0.010713 0.966219
vn 0.234726 -0.006650 0.972039
vn 0.629592 -0.003496 0.776918
vn 0.923380 -0.020432 0.383344
vn 0.026960 -0.074469 -0.996859
vn 0.022343 -0.430685 -0.902226
vn 0.039554 -0.732941 -0.679141
vn -0.032911 -0.529111 -0.847914
vn -0.040121 -0.411811 -0.910385
vn -0.015970 0.537495 -0.843116
vn -0.017982 0.542228 -0.840039
vn -0.010759 0.525152 -0.850940
vn -0.009147 0.521309 -0.853319
vn 0.012278 0.992907 -0.118257
vn 0.009987 0.993586 -0.112636
vn 0.020910 0.990013 -0.139414
vn 0.018139 0.991000 -0.132627
vn 0.041025 0.458254 0.887874
vn 0.037668 0.570219 0.820628
vn -0.036006 0.782339 0.621811
vn -0.020805 0.500037 0.865754
vn -0.027769 0.152527 0.987909
vn -0.005692 -0.463453 0.886103
vn -0.000362 -0.475762 0.879574
vn 0.021266 -0.524619 0.851072
vn 0.015293 -0.511301 0.859266
vn 0.012916 -0.977724 0.209497
vn 0.000492 -0.984560 0.175045
vn -0.024640 -0.994207 0.104619
vn -0.035488 -0.996633 0.073912
vn 0.003382 0.978213 -0.207575
vn 0.005408 0.976606 -0.214967
vn -0.006210 0.985006 -0.172411
vn -0.004184 0.983683 -0.179861
vn 0.008643 0.617929 -0.786187
vn 0.011562 0.609618 -0.792611
vn -0.001476 0.646144 -0.763214
vn -0.004615 0.654711 -0.755865
vn 0.025637 -0.280498 -0.959512
vn 0.040489 -0.319825 -0.946611
vn -0.005873 -0.195710 -0.980644
vn -0.022286 -0.150821 -0.988310
vn 0.031530 -0.956068 0.291444
vn 0.031777 -0.361072 0.931996
vn 0.027976 0.141471 0.989547
vn 0.018249 -0.980088 -0.197724
vn -0.017949 0.328505 0.944332
vn -0.020912 -0.029485 0.999346
vn -0.024966 -0.700380 0.713333
vn -0.026145 -0.999465 0.019664
vn -0.040930 -0.919977 -0.389829
vn 0.006536 0.837501 0.546397
vn 0.005688 0.836076 0.548584
vn 0.009465 0.842373 0.538811
vn 0.010454 0.844003 0.536237
vn 0.031577 0.595197 -0.802959
vn 0.034595 0.489273 -0.871444
vn -0.035861 0.074446 -0.996580
vn -0.020781 0.437694 -0.898884
vn -0.024380 0.733305 -0.679462
vn 0.009161 -0.495654 -0.868472
vn 0.004388 -0.484968 -0.874521
vn 0.024168 -0.528719 -0.848453
vn 0.030325 -0.542047 -0.839801
vn -0.006132 -0.987038 -0.160369
vn -0.000408 -0.984354 -0.176204
vn -0.023279 -0.993365 -0.112622
vn -0.018373 -0.991818 -0.126333
vn 0.034166 -0.758603 0.650656
vn 0.019866 -0.478194 0.878030
vn 0.026880 -0.139111 0.989912
vn -0.039685 -0.459623 0.887227
vn -0.034994 -0.567077 0.822921
vn -0.021266 0.524619 0.851072
vn -0.015293 0.511301 0.859266
vn 0.005692 0.463453 0.886103
vn 0.000362 0.475762 0.879574
vn 0.016797 0.991798 0.126704
vn 0.025408 0.994413 0.102453
vn -0.012916 0.977723 0.209500
vn -0.003631 0.982962 0.183774
vn 0.007725 -0.961880 -0.273364
vn 0.005097 -0.964381 -0.264467
vn -0.006794 -0.974585 -0.223914
vn -0.004088 -0.972424 -0.233184
vn -0.006730 -0.583514 -0.812075
vn -0.006620 -0.583217 -0.812290
vn -0.006169 -0.581992 -0.813171
vn -0.006263 -0.582248 -0.812987
vn 0.011114 0.146732 -0.989114
vn 0.017060 0.127189 -0.991732
vn -0.007288 0.206732 -0.978370
vn -0.013394 0.226475 -0.973925
vn 0.025155 0.850742 -0.524981
vn 0.021043 0.843514 -0.536695
vn 0.001412 0.806718 -0.590935
vn 0.006774 0.817142 -0.576397
vn 0.018487 -0.315562 0.948725
vn 0.020857 0.062437 0.997831
vn 0.027142 0.736203 0.676216
vn 0.019344 0.946489 0.322157
vn -0.023361 0.914571 0.403751
vn -0.028815 0.350184 0.936238
vn -0.027128 -0.141212 0.989608
vn -0.028193 0.996921 0.073175
vn -0.011423 -0.856150 0.516602
vn -0.008648 -0.852063 0.523368
vn -0.000730 -0.840078 0.542465
vn 0.001835 -0.836093 0.548585
vn 0.051812 0.477302 -0.877211
vn 0.051812 0.477302 -0.877211
vn 0.051812 0.477302 -0.877211
vn -0.057577 0.896206 -0.439886
vn -0.057577 0.896206 -0.439886
vn -0.057577 0.896206 -0.439886
f 2//2 4//4 3//3
f 10//10 9//9 8//8
f 11//11 8//8 18//18
f 8//8 19//19 18//18
f 19//19 17//17 18//18
f 19//19 20//20 17//17
f 20//20 16//16 17//17
f 20//20 21//21 16//16
f 10//10 8//8 11//11
f 21//21 15//15 16//16
f 22//22 23//23 15//15
f 23//23 14//14 15//15
f 23//23 24//24 13//13
f 23//23 13//13 14//14
f 24//24 25//25 13//13
f 25//25 12//12 13//13
f 25//25 26//26 12//12
f 21//21 22//22 15//15
f 26//26 3//3 4//4
f 26//26 4//4 12//12
f 2//2 1//1 7//7
f 6//6 2//2 7//7
f 5//5 4//4 2//2
f 5//5 2//2 6//6
f 75//75 58//58 57//57
f 52//52 66//66 65//65
f 39//39 49//49 38//38
f 39//39 50//50 49//49
f 40//40 41//41 66//66
f 40//40 66//66 52//52
f 40//40 50//50 39//39
f 40//40 51//51 50//50
f 33//33 68//68 32//32
f 52//52 65//65 53//53
f 55//55 31//31 32//32
f 60//60 31//31 54//54
f 56//56 55//55 32//32
f 60//60 29//29 31//31
f 46//46 30//30 29//29
f 33//33 69//69 68//68
f 46//46 29//29 60//60
f 46//46 60//60 59//59
f 45//45 46//46 59//59
f 45//45 59//59 58//58
f 75//75 57//57 56//56
f 75//75 56//56 68//68
f 68//68 56//56 32//32
f 54//54 31//31 55//55
f 49//49 48//48 38//38
f 40//40 52//52 51//51
f 53//53 65//65 64//64
f 74//74 58//58 75//75
f 70//70 69//69 33//33
f 27//27 70//70 33//33
f 27//27 71//71 70//70
f 28//28 72//72 71//71
f 28//28 71//71 27//27
f 48//48 37//37 38//38
f 36//36 74//74 73//73
f 36//36 58//58 74//74
f 61//61 43//43 62//62
f 63//63 62//62 43//43
f 63//63 43//43 44//44
f 42//42 43//43 61//61
f 67//67 42//42 61//61
f 35//35 73//73 72//72
f 36//36 45//45 58//58
f 35//35 72//72 28//28
f 35//35 36//36 73//73
f 53//53 64//64 47//47
f 47//47 64//64 37//37
f 48//48 47//47 37//37
f 37//37 64//64 44//44
f 37//37 45//45 36//36
f 34//34 35//35 28//28
f 41//41 42//42 67//67
f 41//41 67//67 66//66
f 64//64 63//63 44//44
f 37//37 44//44 45//45
f 77//77 78//78 76//76
f 79//79 78//78 77//77
f 85//85 105//105 92//92
f 123//123 106//106 105//105
f 101//101 82//82 83//83
f 101//101 83//83 100//100
f 118//118 117//117 85//85
f 117//117 105//105 85//85
f 123//123 105//105 117//117
f 118//118 85//85 86//86
f 87//87 88//88 120//120
f 122//122 106//106 123//123
f 88//88 121//121 120//120
f 88//88 89//89 106//106
f 88//88 122//122 121//121
f 88//88 106//106 122//122
f 87//87 120//120 119//119
f 87//87 119//119 86//86
f 85//85 93//93 84//84
f 119//119 118//118 86//86
f 85//85 92//92 93//93
f 83//83 115//115 114//114
f 89//89 108//108 107//107
f 124//124 81//81 125//125
f 131//131 81//81 124//124
f 126//126 125//125 97//97
f 131//131 80//80 81//81
f 130//130 80//80 131//131
f 94//94 95//95 96//96
f 94//94 96//96 80//80
f 94//94 80//80 130//130
f 94//94 130//130 129//129
f 93//93 94//94 129//129
f 93//93 129//129 128//128
f 106//106 89//89 107//107
f 109//109 126//126 110//110
f 109//109 127//127 126//126
f 116//116 128//128 127//127
f 116//116 127//127 109//109
f 98//98 110//110 97//97
f 125//125 81//81 97//97
f 98//98 111//111 110//110
f 110//110 126//126 97//97
f 102//102 91//91 103//103
f 108//108 90//90 102//102
f 90//90 91//91 102//102
f 104//104 91//91 92//92
f 104//104 103//103 91//91
f 105//105 104//104 92//92
f 84//84 93//93 128//128
f 83//83 84//84 115//115
f 84//84 128//128 116//116
f 100//100 114//114 99//99
f 114//114 113//113 99//99
f 99//99 113//113 112//112
f 99//99 112//112 98//98
f 112//112 111//111 98//98
f 89//89 90//90 108//108
f 84//84 116//116 115//115
f 83//83 114//114 100//100
f 132//132 142//142 157//157
f 137//137 132//132 150//150
f 136//136 132//132 137//137
f 132//132 157//157 150//150
f 136//136 134//134 132//132
f 143//143 144//144 156//156
f 143//143 156//156 157//157
f 133//133 139//139 140//140
f 133//133 140//140 141//141
f 138//138 139//139 133//133
f 142//142 143//143 157//157
f 141//141 140//140 151//151
f 149//149 141//141 151//151
f 149//149 151//151 152//152
f 148//148 149//149 152//152
f 135//135 138//138 133//133
f 147//147 148//148 152//152
f 147//147 153//153 154//154
f 146//146 147//147 154//154
f 145//145 154//154 155//155
f 145//145 146//146 154//154
f 145//145 155//155 156//156
f 144//144 145//145 156//156
f 147//147 152//152 153//153
f 165//165 172//172 171//171
f 163//163 162//162 176//176
f 164//164 172//172 165//165
f 164//164 163//163 203//203
f 164//164 203//203 172//172
f 163//163 182//182 203//203
f 165//165 171//171 170//170
f 163//163 176//176 182//182
f 162//162 161//161 177//177
f 207//207 189//189 188//188
f 165//165 170//170 166//166
f 174//174 201//201 175//175
f 181//181 206//206 205//205
f 167//167 201//201 200//200
f 167//167 200//200 168//168
f 200//200 193//193 168//168
f 200//200 194//194 193//193
f 200//200 199//199 194//194
f 207//207 188//188 197//197
f 199//199 195//195 194//194
f 197//197 188//188 187//187
f 168//168 193//193 160//160
f 199//199 198//198 195//195
f 162//162 177//177 176//176
f 180//180 206//206 181//181
f 197//197 187//187 186//186
f 197//197 196//196 195//195
f 197//197 186//186 196//196
f 189//189 158//158 183//183
f 193//193 192//192 160//160
f 158//158 159//159 184//184
f 158//158 184//184 183//183
f 192//192 191//191 160//160
f 196//196 186//186 159//159
f 186//186 185//185 159//159
f 196//196 159//159 190//190
f 191//191 190//190 160//160
f 184//184 159//159 185//185
f 190//190 159//159 160//160
f 198//198 197//197 195//195
f 175//175 201//201 167//167
f 206//206 189//189 207//207
f 174//174 202//202 201//201
f 180//180 189//189 206//206
f 179//179 158//158 189//189
f 173//173 202//202 174//174
f 166//166 169//169 175//175
f 182//182 205//205 204//204
f 173//173 203//203 202//202
f 179//179 189//189 180//180
f 182//182 204//204 203//203
f 172//172 203//203 173//173
f 182//182 181//181 205//205
f 161//161 158//158 179//179
f 161//161 178//178 177//177
f 161//161 179//179 178//178
f 175//175 167//167 166//166
f 166//166 170//170 169//169
f 211//211 209//209 208//208
f 211//211 210//210 209//209
f 213//213 212//212 215//215
f 213//213 215//215 214//214
f 219//219 217//217 216//216
f 219//219 216//216 218//218
f 235//235 234//234 237//237
f 235//235 237//237 236//236
f 234//234 233//233 237//237
f 233//233 232//232 237//237
f 232//232 233//233 231//231
f 241//241 230//230 239//239
f 241//241 239//239 238//238
f 230//230 229//229 228//228
f 230//230 228//228 227//227
f 227//227 228//228 224//224
f 220//220 225//225 221//221
f 220//220 227//227 224//224
f 241//241 229//229 230//230
f 220//220 223//223 227//227
f 220//220 224//224 225//225
f 225//225 226//226 221//221
f 226//226 222//222 221//221
f 231//231 226//226 225//225
f 231//231 233//233 226//226
f 240//240 241//241 238//238
f 307//307 305//305 262//262
f 308//308 305//305 307//307
f 307//307 262//262 261//261
f 305//305 304//304 303//303
f 306//306 307//307 247//247
f 247//247 307//307 261//261
f 308//308 309//309 305//305
f 306//306 308//308 307//307
f 312//312 309//309 308//308
f 252//252 250//250 318//318
f 311//311 309//309 312//312
f 308//308 313//313 312//312
f 308//308 306//306 313//313
f 312//312 313//313 314//314
f 311//311 312//312 314//314
f 311//311 314//314 315//315
f 310//310 316//316 309//309
f 309//309 304//304 305//305
f 309//309 316//316 304//304
f 317//317 319//319 318//318
f 252//252 318//318 319//319
f 305//305 303//303 262//262
f 311//311 310//310 309//309
f 262//262 303//303 246//246
f 276//276 275//275 260//260
f 255//255 287//287 298//298
f 302//302 280//280 279//279
f 295//295 294//294 272//272
f 302//302 279//279 292//292
f 292//292 279//279 278//278
f 294//294 273//273 272//272
f 261//261 281//281 280//280
f 261//261 242//242 247//247
f 261//261 262//262 281//281
f 292//292 278//278 293//293
f 294//294 293//293 273//273
f 293//293 278//278 284//284
f 293//293 284//284 273//273
f 259//259 277//277 260//260
f 255//255 298//298 270//270
f 259//259 271//271 277//277
f 281//281 262//262 282//282
f 277//277 276//276 260//260
f 249//249 251//251 245//245
f 250//250 252//252 249//249
f 253//253 248//248 244//244
f 260//260 253//253 244//244
f 262//262 246//246 245//245
f 262//262 245//245 251//251
f 301//301 280//280 302//302
f 283//283 251//251 253//253
f 284//284 283//283 253//253
f 274//274 253//253 275//275
f 283//283 262//262 251//251
f 282//282 262//262 283//283
f 273//273 253//253 274//274
f 284//284 253//253 273//273
f 275//275 253//253 260//260
f 295//295 272//272 271//271
f 249//249 252//252 251//251
f 258//258 295//295 259//259
f 266//266 258//258 257//257
f 263//263 298//298 297//297
f 287//287 286//286 299//299
f 255//255 254//254 287//287
f 254//254 288//288 287//287
f 255//255 270//270 256//256
f 254//254 243//243 288//288
f 256//256 270//270 269//269
f 243//243 289//289 288//288
f 256//256 269//269 268//268
f 256//256 268//268 257//257
f 257//257 268//268 267//267
f 243//243 290//290 289//289
f 243//243 242//242 261//261
f 295//295 271//271 259//259
f 243//243 261//261 290//290
f 257//257 267//267 266//266
f 270//270 298//298 263//263
f 287//287 299//299 298//298
f 266//266 265//265 258//258
f 263//263 297//297 264//264
f 290//290 261//261 291//291
f 291//291 301//301 300//300
f 286//286 285//285 299//299
f 291//291 261//261 280//280
f 265//265 296//296 258//258
f 291//291 280//280 301//301
f 264//264 297//297 296//296
f 291//291 300//300 285//285
f 296//296 295//295 258//258
f 265//265 264//264 296//296
f 285//285 300//300 299//299
f 323//323 321//321 320//320
f 323//323 320//320 322//322
f 329//329 330//330 326//326
f 329//329 326//326 327//327
f 328//328 327//327 324//324
f 328//328 324//324 325//325
f 328//328 329//329 327//327
f 334//334 332//332 331//331
f 334//334 333//333 332//332
f 334//334 335//335 333//333
f 336//336 335//335 334//334
f 340//340 339//339 338//338
f 340//340 338//338 337//337
f 342//342 344//344 343//343
f 342//342 343//343 341//341
f 351//351 346//346 347//347
f 351//351 347//347 350//350
f 350//350 347//347 348//348
f 352//352 345//345 346//346
f 352//352 346//346 351//351
f 350//350 348//348 349//349
f 356//356 353//353 355//355
f 355//355 353//353 354//354
f 360//360 358//358 359//359
f 360//360 357//357 358//358
f 361//361 357//357 360//360
f 365//365 362//362 364//364
f 365//365 363//363 362//362
f 368//368 367//367 369//369
f 368//368 366//366 367//367
f 376//376 373//373 375//375
f 376//376 372//372 373//373
f 377//377 372//372 376//376
f 377//377 371//371 372//372
f 378//378 371//371 377//377
f 378//378 370//370 371//371
f 375//375 373//373 374//374
f 382//382 379//379 381//381
f 381//381 379//379 380//380
f 385//385 383//383 387//387
f 385//385 384//384 383//383
f 386//386 384//384 385//385
f 390//390 388//388 389//389
f 391//391 388//388 390//390
f 403//403 393//393 402//402
f 400//400 396//396 399//399
f 403//403 392//392 393//393
f 402//402 394//394 401//401
f 401//401 394//394 395//395
f 401//401 395//395 400//400
f 400//400 395//395 396//396
f 399//399 396//396 397//397
f 399//399 397//397 398//398
f 402//402 393//393 394//394
f 407//407 404//404 406//406
f 407//407 405//405 404//404
f 410//410 409//409 411//411
f 410//410 408//408 409//409
f 414//414 412//412 413//413
f 415//415 412//412 414//414
f 420//420 416//416 417//417
f 420//420 417//417 419//419
f 419//419 417//417 418//418
f 424//424 421//421 423//423
f 424//424 422//422 421//421
f 428//428 425//425 426//426
f 427//427 425//425 428//428
f 432//432 429//429 431//431
f 431//431 429//429 430//430
f 436//436 433//433 434//434
f 437//437 433//433 436//436
f 436//436 434//434 435//435
f 438//438 458//458 459//459
f 439//439 458//458 438//438
f 439//439 457//457 458//458
f 440//440 457//457 439//439
f 441//441 456//456 440//440
f 446//446 451//451 445//445
f 442//442 454//454 455//455
f 443//443 454//454 442//442
f 443//443 453//453 454//454
f 444//444 453//453 443//443
f 444//444 452//452 453//453
f 445//445 452//452 444//444
f 442//442 455//455 441//441
f 441//441 455//455 456//456
f 440//440 456//456 457//457
f 448//448 459//459 449//449
f 448//448 450//450 447//447
f 448//448 449//449 450//450
f 445//445 451//451 452//452
f 438//438 459//459 448//448
f 447//447 450//450 451//451
f 447//447 451//451 446//446
f 471//471 470//470 465//465
f 461//461 462//462 467//467
f 466//466 462//462 465//465
f 465//465 462//462 464//464
f 460//460 461//461 463//463
f 467//467 468//468 463//463
f 469//469 468//468 467//467
f 465//465 470//470 466//466
f 461//461 467//467 463//463
f 467//467 462//462 466//466
f 473//473 474//474 472//472
f 473//473 475//475 474//474
f 538//538 545//545 544//544
f 538//538 539//539 537//537
f 537//537 480//480 487//487
f 535//535 538//538 534//534
f 534//534 538//538 537//537
f 534//534 537//537 487//487
f 481//481 495//495 482//482
f 536//536 535//535 534//534
f 536//536 534//534 481//481
f 481//481 534//534 486//486
f 479//479 494//494 487//487
f 479//479 487//487 480//480
f 481//481 486//486 495//495
f 538//538 544//544 539//539
f 534//534 487//487 486//486
f 538//538 535//535 546//546
f 485//485 549//549 548//548
f 545//545 546//546 547//547
f 487//487 510//510 516//516
f 485//485 548//548 484//484
f 484//484 548//548 495//495
f 552//552 553//553 550//550
f 553//553 551//551 550//550
f 553//553 485//485 551//551
f 553//553 549//549 485//485
f 545//545 538//538 546//546
f 549//549 483//483 548//548
f 548//548 482//482 495//495
f 546//546 535//535 540//540
f 535//535 536//536 540//540
f 546//546 540//540 541//541
f 542//542 543//543 547//547
f 543//543 545//545 547//547
f 543//543 544//544 545//545
f 548//548 483//483 482//482
f 487//487 521//521 520//520
f 537//537 539//539 480//480
f 487//487 494//494 521//521
f 512//512 528//528 527//527
f 484//484 508//508 476//476
f 484//484 509//509 508//508
f 493//493 492//492 532//532
f 532//532 492//492 533//533
f 533//533 492//492 499//499
f 527//527 503//503 509//509
f 533//533 499//499 498//498
f 527//527 526//526 503//503
f 533//533 498//498 524//524
f 524//524 498//498 497//497
f 487//487 516//516 486//486
f 507//507 488//488 476//476
f 500//500 491//491 501//501
f 507//507 506//506 488//488
f 502//502 490//490 489//489
f 501//501 491//491 490//490
f 496//496 502//502 489//489
f 526//526 504//504 503//503
f 492//492 491//491 499//499
f 524//524 497//497 496//496
f 524//524 496//496 525//525
f 526//526 505//505 504//504
f 526//526 525//525 505//505
f 525//525 496//496 489//489
f 525//525 489//489 505//505
f 491//491 500//500 499//499
f 505//505 489//489 488//488
f 505//505 488//488 506//506
f 518//518 532//532 531//531
f 518//518 517//517 532//532
f 508//508 507//507 476//476
f 510//510 529//529 511//511
f 501//501 490//490 502//502
f 514//514 513//513 484//484
f 519//519 531//531 530//530
f 511//511 529//529 528//528
f 520//520 529//529 510//510
f 520//520 519//519 529//529
f 477//477 484//484 476//476
f 495//495 514//514 484//484
f 495//495 515//515 514//514
f 519//519 518//518 531//531
f 523//523 494//494 493//493
f 494//494 522//522 521//521
f 486//486 515//515 495//495
f 486//486 516//516 515//515
f 478//478 484//484 477//477
f 487//487 520//520 510//510
f 511//511 528//528 512//512
f 513//513 509//509 484//484
f 513//513 512//512 527//527
f 513//513 527//527 509//509
f 523//523 493//493 517//517
f 517//517 493//493 532//532
f 519//519 530//530 529//529
f 494//494 523//523 522//522
f 555//555 556//556 554//554
f 560//560 556//556 555//555
f 558//558 557//557 556//556
f 559//559 558//558 556//556
f 559//559 556//556 560//560
f 561//561 564//564 563//563
f 561//561 562//562 564//564
f 567//567 569//569 568//568
f 567//567 565//565 566//566
f 567//567 568//568 565//565
f 573//573 570//570 572//572
f 573//573 571//571 570//570
f 575//575 578//578 576//576
f 577//577 576//576 578//578
f 575//575 576//576 574//574
f 580//580 582//582 581//581
f 580//580 579//579 582//582
f 583//583 585//585 586//586
f 583//583 584//584 585//585
f 602//602 628//628 627//627
f 621//621 589//589 622//622
f 625//625 629//629 628//628
f 602//602 627//627 603//603
f 625//625 624//624 629//629
f 622//622 618//618 623//623
f 604//604 636//636 595//595
f 604//604 595//595 594//594
f 603//603 627//627 637//637
f 623//623 618//618 630//630
f 622//622 589//589 618//618
f 626//626 625//625 628//628
f 590//590 621//621 620//620
f 594//594 599//599 598//598
f 590//590 589//589 621//621
f 593//593 599//599 594//594
f 593//593 600//600 599//599
f 590//590 620//620 619//619
f 592//592 600//600 593//593
f 590//590 619//619 626//626
f 592//592 601//601 600//600
f 591//591 590//590 626//626
f 591//591 628//628 601//601
f 591//591 601//601 592//592
f 591//591 626//626 628//628
f 601//601 628//628 602//602
f 604//604 637//637 636//636
f 598//598 604//604 594//594
f 624//624 623//623 629//629
f 605//605 611//611 588//588
f 603//603 637//637 604//604
f 611//611 587//587 588//588
f 613//613 587//587 614//614
f 611//611 614//614 587//587
f 611//611 615//615 614//614
f 606//606 588//588 597//597
f 606//606 605//605 588//588
f 589//589 587//587 613//613
f 589//589 613//613 612//612
f 607//607 606//606 597//597
f 633//633 615//615 611//611
f 633//633 611//611 610//610
f 633//633 616//616 615//615
f 618//618 589//589 612//612
f 632//632 616//616 633//633
f 623//623 630//630 629//629
f 595//595 636//636 596//596
f 634//634 633//633 610//610
f 630//630 618//618 617//617
f 630//630 617//617 631//631
f 636//636 635//635 608//608
f 635//635 609//609 608//608
f 636//636 608//608 596//596
f 631//631 617//617 616//616
f 635//635 634//634 609//609
f 631//631 616//616 632//632
f 634//634 610//610 609//609
f 596//596 607//607 597//597
f 596//596 608//608 607//607
f 640//640 638//638 641//641
f 639//639 638//638 640//640
f 642//642 644//644 643//643
f 645//645 644//644 642//642
f 649//649 647//647 646//646
f 649//649 648//648 647//647
f 653//653 652//652 651//651
f 653//653 651//651 650//650
f 655//655 657//657 656//656
f 655//655 654//654 657//657
f 661//661 659//659 658//658
f 661//661 660//660 659//659
f 663//663 662//662 665//665
f 663//663 665//665 664//664
f 669//669 668//668 667//667
f 669//669 667//667 666//666
f 671//671 670//670 673//673
f 671//671 673//673 672//672
f 676//676 674//674 677//677
f 676//676 675//675 674//674
f 680//680 679//679 678//678
f 680//680 678//678 681//681
f 684//684 683//683 682//682
f 684//684 682//682 685//685
f 688//688 687//687 689//689
f 689//689 687//687 686//686
f 693//693 691//691 692//692
f 693//693 690//690 691//691
f 697//697 694//694 695//695
f 697//697 695//695 696//696
f 701//701 699//699 700//700
f 701//701 698//698 699//699
f 706//706 703//703 704//704
f 707//707 702//702 703//703
f 706//706 704//704 705//705
f 707//707 703//703 706//706
f 710//710 708//708 709//709
f 711//711 708//708 710//710
f 716//716 713//713 714//714
f 715//715 713//713 716//716
f 715//715 712//712 713//713
f 720//720 718//718 719//719
f 720//720 717//717 718//718
f 724//724 721//721 723//723
f 723//723 721//721 722//722
f 729//729 727//727 728//728
f 729//729 726//726 727//727
f 730//730 726//726 729//729
f 730//730 725//725 726//726
f 731//731 725//725 730//730
f 734//734 733//733 732//732
f 735//735 733//733 734//734
f 742//742 736//736 741//741
f 740//740 738//738 739//739
f 741//741 736//736 737//737
f 740//740 739//739 742//742
f 742//742 739//739 736//736
f 751//751 743//743 750//750
f 750//750 743//743 744//744
f 748//748 746//746 747//747
f 749//749 744//744 745//745
f 749//749 745//745 748//748
f 748//748 745//745 746//746
f 750//750 744//744 749//749
f 754//754 752//752 753//753
f 755//755 752//752 754//754
f 764//764 759//759 756//756
f 764//764 756//756 763//763
f 763//763 756//756 757//757
f 763//763 757//757 762//762
f 762//762 757//757 758//758
f 762//762 758//758 761//761
f 760//760 759//759 764//764
f 768//768 765//765 766//766
f 768//768 766//766 767//767
f 772//772 769//769 770//770
f 772//772 770//770 771//771
f 777//777 774//774 775//775
f 778//778 774//774 777//777
f 778//778 773//773 774//774
f 777//777 775//775 776//776
f 781//781 797//797 798//798
f 781//781 798//798 780//780
f 781//781 796//796 797//797
f 782//782 796//796 781//781
f 783//783 795//795 782//782
f 783//783 793//793 794//794
f 783//783 794//794 795//795
f 780//780 798//798 799//799
f 782//782 795//795 796//796
f 780//780 799//799 779//779
f 785//785 792//792 784//784
f 779//779 789//789 788//788
f 788//788 789//789 790//790
f 788//788 790//790 787//787
f 787//787 790//790 786//786
f 786//786 790//790 791//791
f 786//786 791//791 785//785
f 785//785 791//791 792//792
f 784//784 792//792 793//793
f 779//779 799//799 789//789
f 784//784 793//793 783//783
f 803//803 801//801 802//802
f 804//804 801//801 803//803
f 804//804 800//800 801//801
f 808//808 805//805 807//807
f 807//807 805//805 806//806
f 811//811 809//809 812//812
f 812//812 809//809 810//810
f 816//816 814//814 815//815
f 816//816 813//813 814//814
f 817//817 813//813 816//816
f 821//821 818//818 819//819
f 821//821 819//819 820//820
f 824//824 823//823 822//822
f 825//825 823//823 824//824
f 826//826 829//829 828//828
f 827//827 829//829 826//826
f 830//830 832//832 833//833
f 831//831 832//832 830//830
f 835//835 836//836 834//834
f 834//834 836//836 837//837
f 841//841 845//845 846//846
f 838//838 845//845 841//841
f 838//838 844//844 845//845
f 839//839 844//844 838//838
f 839//839 843//843 844//844
f 840//840 843//843 839//839
f 840//840 842//842 843//843
f 847//847 849//849 850//850
f 848//848 849//849 847//847
f 852//852 853//853 854//854
f 851//851 854//854 855//855
f 852//852 854//854 851//851
f 857//857 858//858 856//856
f 856//856 858//858 859//859
f 860//860 862//862 863//863
f 860//860 863//863 861//861
f 865//865 868//868 864//864
f 865//865 867//867 868//868
f 866//866 867//867 865//865
f 870//870 871//871 872//872
f 870//870 872//872 869//869
f 873//873 876//876 875//875
f 874//874 876//876 873//873
f 880//880 878//878 879//879
f 880//880 877//877 878//878
f 884//884 881//881 882//882
f 884//884 882//882 883//883
f 887//887 885//885 886//886
f 888//888 885//885 887//887
f 892//892 890//890 891//891
f 892//892 889//889 890//890
f 897//897 896//896 900//900
f 897//897 895//895 896//896
f 898//898 895//895 897//897
f 898//898 894//894 895//895
f 899//899 894//894 898//898
f 899//899 893//893 894//894
f 903//903 902//902 901//901
f 904//904 902//902 903//903
f 905//905 906//906 907//907
f 908//908 909//909 910//910
