# OMX visual mesh; coordinates in metres
mtllib materials.mtl
usemtl white_led_diffuser
v 0.0039000 -0.0135000 0.0721500
v 0.0039000 -0.0155000 0.0721500
v 0.0039000 -0.0155000 0.0731411
v 0.0039000 -0.0170000 0.0731411
v 0.0039000 -0.0170000 0.0744500
v 0.0039000 -0.0167000 0.0747500
v 0.0039000 -0.0135000 0.0747500
v 0.0039000 -0.0135000 0.0721500
v 0.0039000 -0.0155000 0.0721500
v -0.0039000 -0.0155000 0.0721500
v -0.0039000 -0.0135000 0.0721500
v 0.0039000 -0.0135000 0.0721500
v 0.0039000 -0.0135000 0.0747500
v -0.0039000 -0.0135000 0.0721500
v -0.0039000 -0.0135000 0.0747500
v 0.0039000 -0.0167000 0.0747500
v 0.0039000 -0.0135000 0.0747500
v -0.0039000 -0.0135000 0.0747500
v -0.0039000 -0.0167000 0.0747500
v 0.0039000 -0.0170000 0.0744500
v 0.0039000 -0.0167000 0.0747500
v -0.0039000 -0.0167000 0.0747500
v -0.0039000 -0.0170000 0.0744500
v 0.0039000 -0.0170000 0.0731411
v 0.0039000 -0.0170000 0.0744500
v -0.0039000 -0.0170000 0.0744500
v -0.0039000 -0.0170000 0.0731411
v 0.0026984 -0.0170000 0.0735511
v 0.0015928 -0.0170000 0.0737773
v 0.0007988 -0.0170000 0.0738693
v -0.0000000 -0.0170000 0.0739000
v -0.0012678 -0.0170000 0.0738295
v -0.0023774 -0.0170000 0.0736246
v -0.0031480 -0.0170000 0.0734121
v 0.0039000 -0.0155000 0.0731411
v 0.0039000 -0.0170000 0.0731411
v -0.0039000 -0.0170000 0.0731411
v 0.0026984 -0.0170000 0.0735511
v 0.0015928 -0.0170000 0.0737773
v 0.0007988 -0.0170000 0.0738693
v -0.0000000 -0.0170000 0.0739000
v -0.0012678 -0.0170000 0.0738295
v -0.0023774 -0.0170000 0.0736246
v -0.0031480 -0.0170000 0.0734121
v -0.0039000 -0.0155000 0.0731411
v -0.0026984 -0.0155000 0.0735511
v -0.0011273 -0.0155000 0.0738458
v -0.0000000 -0.0155000 0.0739000
v 0.0012678 -0.0155000 0.0738295
v 0.0028348 -0.0155000 0.0735135
v 0.0039000 -0.0155000 0.0721500
v 0.0039000 -0.0155000 0.0731411
v -0.0039000 -0.0155000 0.0721500
v -0.0039000 -0.0155000 0.0731411
v -0.0026984 -0.0155000 0.0735511
v -0.0011273 -0.0155000 0.0738458
v -0.0000000 -0.0155000 0.0739000
v 0.0012678 -0.0155000 0.0738295
v 0.0028348 -0.0155000 0.0735135
v -0.0039000 -0.0155000 0.0721500
v -0.0039000 -0.0135000 0.0721500
v -0.0039000 -0.0135000 0.0747500
v -0.0039000 -0.0167000 0.0747500
v -0.0039000 -0.0170000 0.0744500
v -0.0039000 -0.0170000 0.0731411
v -0.0039000 -0.0155000 0.0731411
vn 1.000000 0.000000 0.000000
vn 1.000000 0.000000 0.000000
vn 1.000000 0.000000 0.000000
vn 1.000000 0.000000 0.000000
vn 1.000000 0.000000 0.000000
vn 1.000000 0.000000 0.000000
vn 1.000000 0.000000 0.000000
vn 0.000000 0.000000 -1.000000
vn 0.000000 0.000000 -1.000000
vn 0.000000 0.000000 -1.000000
vn 0.000000 0.000000 -1.000000
vn 0.000000 1.000000 0.000000
vn 0.000000 1.000000 0.000000
vn 0.000000 1.000000 0.000000
vn 0.000000 1.000000 0.000000
vn 0.000000 0.000000 1.000000
vn 0.000000 0.000000 1.000000
vn 0.000000 0.000000 1.000000
vn 0.000000 0.000000 1.000000
vn 0.000000 -0.707107 0.707107
vn 0.000000 -0.707107 0.707107
vn 0.000000 -0.707107 0.707107
vn 0.000000 -0.707107 0.707107
vn 0.000000 -1.000000 0.000000
vn 0.000000 -1.000000 0.000000
vn 0.000000 -1.000000 0.000000
vn 0.000000 -1.000000 0.000000
vn 0.000000 -1.000000 0.000000
vn 0.000000 -1.000000 0.000000
vn 0.000000 -1.000000 0.000000
vn 0.000000 -1.000000 0.000000
vn 0.000000 -1.000000 0.000000
vn 0.000000 -1.000000 0.000000
vn 0.000000 -1.000000 0.000000
vn -0.330036 0.000000 -0.943968
vn -0.325863 0.003322 -0.945411
vn 0.339100 0.000000 -0.940750
vn -0.257816 -0.001551 -0.966193
vn -0.163776 -0.001165 -0.986497
vn -0.073692 0.001582 -0.997280
vn 0.007019 0.001661 -0.999974
vn 0.123327 -0.001555 -0.992365
vn 0.218111 -0.001167 -0.975923
vn 0.305662 0.001582 -0.952139
vn 0.327990 -0.006276 -0.944660
vn 0.253789 -0.005430 -0.967244
vn 0.114142 -0.001784 -0.993463
vn -0.001075 -0.003142 -0.999994
vn -0.127455 -0.005428 -0.991830
vn -0.266746 -0.001782 -0.963765
vn 0.000000 -1.000000 0.000000
vn 0.000000 -1.000000 0.000000
vn 0.000000 -1.000000 0.000000
vn 0.000000 -1.000000 0.000000
vn 0.000000 -1.000000 0.000000
vn 0.000000 -1.000000 0.000000
vn 0.000000 -1.000000 0.000000
vn 0.000000 -1.000000 0.000000
vn 0.000000 -1.000000 0.000000
vn -1.000000 0.000000 0.000000
vn -1.000000 0.000000 0.000000
vn -1.000000 0.000000 0.000000
vn -1.000000 0.000000 0.000000
vn -1.000000 0.000000 0.000000
vn -1.000000 0.000000 0.000000
vn -1.000000 0.000000 0.000000
f 3//3 2//2 1//1
f 3//3 1//1 7//7
f 5//5 4//4 3//3
f 6//6 3//3 7//7
f 6//6 5//5 3//3
f 10//10 11//11 8//8
f 10//10 8//8 9//9
f 14//14 13//13 12//12
f 14//14 15//15 13//13
f 18//18 19//19 16//16
f 18//18 16//16 17//17
f 22//22 23//23 20//20
f 22//22 20//20 21//21
f 25//25 26//26 31//31
f 25//25 31//31 30//30
f 31//31 26//26 32//32
f 26//26 27//27 34//34
f 29//29 28//28 25//25
f 26//26 33//33 32//32
f 30//30 29//29 25//25
f 25//25 28//28 24//24
f 26//26 34//34 33//33
f 42//42 47//47 41//41
f 37//37 45//45 44//44
f 44//44 46//46 43//43
f 44//44 45//45 46//46
f 43//43 46//46 42//42
f 42//42 46//46 47//47
f 41//41 48//48 40//40
f 38//38 50//50 36//36
f 40//40 49//49 39//39
f 40//40 48//48 49//49
f 39//39 49//49 38//38
f 38//38 49//49 50//50
f 36//36 50//50 35//35
f 41//41 47//47 48//48
f 52//52 59//59 51//51
f 51//51 57//57 53//53
f 51//51 59//59 58//58
f 57//57 56//56 53//53
f 56//56 55//55 53//53
f 55//55 54//54 53//53
f 51//51 58//58 57//57
f 63//63 62//62 66//66
f 66//66 62//62 61//61
f 66//66 61//61 60//60
f 64//64 66//66 65//65
f 63//63 66//66 64//64
