# OMX visual mesh; coordinates in metres
mtllib materials.mtl
usemtl unpowered_led
v -0.0238850 -0.0362550 0.0166633
v -0.0236350 -0.0362550 0.0166567
v -0.0238742 -0.0365899 0.0166500
v -0.0236436 -0.0365834 0.0166500
v -0.0237532 -0.0366560 0.0166500
v -0.0238850 -0.0362550 0.0166633
v -0.0236350 -0.0362550 0.0166567
v -0.0236350 -0.0362571 0.0168500
v -0.0238850 -0.0362575 0.0168500
v -0.0231350 -0.0362550 0.0166567
v -0.0227700 -0.0362600 0.0166700
v -0.0227700 -0.0362600 0.0174200
v -0.0247500 -0.0362600 0.0174200
v -0.0247500 -0.0362600 0.0166700
v -0.0243850 -0.0362533 0.0166600
v -0.0243850 -0.0362575 0.0168500
v -0.0241350 -0.0362567 0.0168500
v -0.0241350 -0.0362550 0.0166567
v -0.0233850 -0.0362550 0.0166633
v -0.0233850 -0.0362575 0.0168500
v -0.0231350 -0.0362560 0.0168500
v -0.0238850 -0.0362550 0.0166633
v -0.0236350 -0.0362550 0.0166567
v -0.0236385 -0.0365617 0.0166700
v -0.0236982 -0.0366388 0.0166700
v -0.0237960 -0.0366468 0.0166700
v -0.0238756 -0.0365845 0.0166700
v -0.0231350 -0.0362550 0.0166567
v -0.0227700 -0.0362600 0.0166700
v -0.0247500 -0.0362600 0.0166700
v -0.0243850 -0.0362533 0.0166600
v -0.0241350 -0.0362550 0.0166567
v -0.0233850 -0.0362550 0.0166633
v -0.0231350 -0.0382450 0.0166600
v -0.0227700 -0.0382400 0.0166700
v -0.0231385 -0.0365617 0.0166700
v -0.0231982 -0.0366388 0.0166700
v -0.0232960 -0.0366468 0.0166700
v -0.0233756 -0.0365845 0.0166700
v -0.0241395 -0.0365666 0.0166700
v -0.0242162 -0.0366487 0.0166700
v -0.0243290 -0.0366326 0.0166611
v -0.0243818 -0.0365602 0.0166700
v -0.0247500 -0.0382400 0.0166700
v -0.0243850 -0.0382467 0.0166567
v -0.0243734 -0.0379091 0.0166700
v -0.0242634 -0.0378455 0.0166700
v -0.0241479 -0.0379058 0.0166700
v -0.0241350 -0.0382450 0.0166633
v -0.0238850 -0.0382450 0.0166567
v -0.0238734 -0.0379091 0.0166700
v -0.0237583 -0.0378447 0.0166700
v -0.0236461 -0.0379107 0.0166700
v -0.0236350 -0.0382450 0.0166633
v -0.0233850 -0.0382450 0.0166567
v -0.0233805 -0.0379334 0.0166700
v -0.0233038 -0.0378513 0.0166700
v -0.0231785 -0.0378743 0.0166700
v -0.0231367 -0.0379494 0.0166700
v -0.0244450 -0.0369500 0.0166694
v -0.0232750 -0.0369500 0.0166682
v -0.0230750 -0.0371500 0.0166682
v -0.0230750 -0.0375500 0.0166688
v -0.0244450 -0.0375500 0.0166688
v -0.0231350 -0.0382450 0.0166600
v -0.0227700 -0.0382400 0.0166700
v -0.0247500 -0.0382400 0.0166700
v -0.0243850 -0.0382467 0.0166567
v -0.0241350 -0.0382450 0.0166633
v -0.0238850 -0.0382450 0.0166567
v -0.0236350 -0.0382450 0.0166633
v -0.0233850 -0.0382450 0.0166567
v -0.0227700 -0.0382400 0.0174200
v -0.0247500 -0.0382400 0.0174200
v -0.0243850 -0.0382425 0.0168500
v -0.0241350 -0.0382433 0.0168500
v -0.0238850 -0.0382425 0.0168500
v -0.0236350 -0.0382429 0.0168500
v -0.0233850 -0.0382425 0.0168500
v -0.0231350 -0.0382440 0.0168500
v -0.0231350 -0.0382450 0.0166600
v -0.0233850 -0.0382450 0.0166567
v -0.0231476 -0.0379052 0.0166500
v -0.0232668 -0.0378456 0.0166500
v -0.0233748 -0.0379117 0.0166500
v -0.0238850 -0.0382450 0.0166567
v -0.0236350 -0.0382450 0.0166633
v -0.0236390 -0.0379345 0.0166500
v -0.0237208 -0.0378489 0.0166500
v -0.0238690 -0.0378971 0.0166500
v -0.0243850 -0.0382467 0.0166567
v -0.0241350 -0.0382450 0.0166633
v -0.0241441 -0.0379150 0.0166500
v -0.0242617 -0.0378429 0.0166500
v -0.0243764 -0.0379166 0.0166500
v -0.0243734 -0.0379091 0.0166700
v -0.0242634 -0.0378455 0.0166700
v -0.0242617 -0.0378429 0.0166500
v -0.0243764 -0.0379166 0.0166500
v -0.0242634 -0.0378455 0.0166700
v -0.0241479 -0.0379058 0.0166700
v -0.0241441 -0.0379150 0.0166500
v -0.0242617 -0.0378429 0.0166500
v -0.0247500 -0.0362600 0.0174200
v -0.0247500 -0.0362600 0.0166700
v -0.0247500 -0.0382400 0.0166700
v -0.0247500 -0.0382400 0.0174200
v -0.0227700 -0.0362600 0.0174200
v -0.0247500 -0.0362600 0.0174200
v -0.0227700 -0.0382400 0.0174200
v -0.0247500 -0.0382400 0.0174200
v -0.0230587 -0.0368197 0.0174144
v -0.0231363 -0.0369074 0.0174155
v -0.0232760 -0.0369296 0.0174155
v -0.0233957 -0.0368634 0.0174122
v -0.0234426 -0.0367464 0.0174129
v -0.0234128 -0.0366227 0.0174141
v -0.0233116 -0.0365388 0.0174145
v -0.0231907 -0.0365310 0.0174156
v -0.0230864 -0.0365988 0.0174150
v -0.0230384 -0.0367006 0.0174149
v -0.0227700 -0.0362600 0.0166700
v -0.0227700 -0.0362600 0.0174200
v -0.0227700 -0.0382400 0.0166700
v -0.0227700 -0.0382400 0.0174200
v -0.0231350 -0.0362550 0.0166567
v -0.0233850 -0.0362550 0.0166633
v -0.0231436 -0.0365834 0.0166500
v -0.0233810 -0.0365655 0.0166500
v -0.0233253 -0.0366346 0.0166500
v -0.0232334 -0.0366504 0.0166500
v -0.0243850 -0.0362533 0.0166600
v -0.0241350 -0.0362550 0.0166567
v -0.0243290 -0.0366326 0.0166611
v -0.0241397 -0.0365688 0.0166500
v -0.0243800 -0.0365704 0.0166500
v -0.0242181 -0.0366484 0.0166500
v -0.0241395 -0.0365666 0.0166700
v -0.0242162 -0.0366487 0.0166700
v -0.0241397 -0.0365688 0.0166500
v -0.0242181 -0.0366484 0.0166500
v -0.0236350 -0.0362550 0.0166567
v -0.0236436 -0.0365834 0.0166500
v -0.0236385 -0.0365617 0.0166700
v -0.0236436 -0.0365834 0.0166500
v -0.0236385 -0.0365617 0.0166700
v -0.0236982 -0.0366388 0.0166700
v -0.0236436 -0.0365834 0.0166500
v -0.0237532 -0.0366560 0.0166500
v -0.0236982 -0.0366388 0.0166700
v -0.0237532 -0.0366560 0.0166500
v -0.0236982 -0.0366388 0.0166700
v -0.0237960 -0.0366468 0.0166700
v -0.0238742 -0.0365899 0.0166500
v -0.0237532 -0.0366560 0.0166500
v -0.0237960 -0.0366468 0.0166700
v -0.0238742 -0.0365899 0.0166500
v -0.0237960 -0.0366468 0.0166700
v -0.0238756 -0.0365845 0.0166700
v -0.0238850 -0.0362550 0.0166633
v -0.0238742 -0.0365899 0.0166500
v -0.0238756 -0.0365845 0.0166700
v -0.0231350 -0.0382450 0.0166600
v -0.0231367 -0.0379494 0.0166700
v -0.0231476 -0.0379052 0.0166500
v -0.0233805 -0.0379334 0.0166700
v -0.0233038 -0.0378513 0.0166700
v -0.0233748 -0.0379117 0.0166500
v -0.0233038 -0.0378513 0.0166700
v -0.0232668 -0.0378456 0.0166500
v -0.0233748 -0.0379117 0.0166500
v -0.0233038 -0.0378513 0.0166700
v -0.0231785 -0.0378743 0.0166700
v -0.0232668 -0.0378456 0.0166500
v -0.0231785 -0.0378743 0.0166700
v -0.0231476 -0.0379052 0.0166500
v -0.0232668 -0.0378456 0.0166500
v -0.0231785 -0.0378743 0.0166700
v -0.0231367 -0.0379494 0.0166700
v -0.0231476 -0.0379052 0.0166500
v -0.0233850 -0.0382450 0.0166567
v -0.0233805 -0.0379334 0.0166700
v -0.0233748 -0.0379117 0.0166500
v -0.0236461 -0.0379107 0.0166700
v -0.0236350 -0.0382450 0.0166633
v -0.0236390 -0.0379345 0.0166500
v -0.0238734 -0.0379091 0.0166700
v -0.0237583 -0.0378447 0.0166700
v -0.0238690 -0.0378971 0.0166500
v -0.0237583 -0.0378447 0.0166700
v -0.0237208 -0.0378489 0.0166500
v -0.0238690 -0.0378971 0.0166500
v -0.0237583 -0.0378447 0.0166700
v -0.0236461 -0.0379107 0.0166700
v -0.0237208 -0.0378489 0.0166500
v -0.0236461 -0.0379107 0.0166700
v -0.0236390 -0.0379345 0.0166500
v -0.0237208 -0.0378489 0.0166500
v -0.0238850 -0.0382450 0.0166567
v -0.0238734 -0.0379091 0.0166700
v -0.0238690 -0.0378971 0.0166500
v -0.0241479 -0.0379058 0.0166700
v -0.0241350 -0.0382450 0.0166633
v -0.0241441 -0.0379150 0.0166500
v -0.0243850 -0.0382467 0.0166567
v -0.0243734 -0.0379091 0.0166700
v -0.0243764 -0.0379166 0.0166500
v -0.0231350 -0.0362550 0.0166567
v -0.0231385 -0.0365617 0.0166700
v -0.0231436 -0.0365834 0.0166500
v -0.0233850 -0.0362550 0.0166633
v -0.0233756 -0.0365845 0.0166700
v -0.0233810 -0.0365655 0.0166500
v -0.0231385 -0.0365617 0.0166700
v -0.0231982 -0.0366388 0.0166700
v -0.0231436 -0.0365834 0.0166500
v -0.0231982 -0.0366388 0.0166700
v -0.0231436 -0.0365834 0.0166500
v -0.0232334 -0.0366504 0.0166500
v -0.0231982 -0.0366388 0.0166700
v -0.0232960 -0.0366468 0.0166700
v -0.0232334 -0.0366504 0.0166500
v -0.0232960 -0.0366468 0.0166700
v -0.0233253 -0.0366346 0.0166500
v -0.0232334 -0.0366504 0.0166500
v -0.0232960 -0.0366468 0.0166700
v -0.0233756 -0.0365845 0.0166700
v -0.0233253 -0.0366346 0.0166500
v -0.0233756 -0.0365845 0.0166700
v -0.0233810 -0.0365655 0.0166500
v -0.0233253 -0.0366346 0.0166500
v -0.0241350 -0.0362550 0.0166567
v -0.0241395 -0.0365666 0.0166700
v -0.0241397 -0.0365688 0.0166500
v -0.0243850 -0.0362533 0.0166600
v -0.0243818 -0.0365602 0.0166700
v -0.0243800 -0.0365704 0.0166500
v -0.0242162 -0.0366487 0.0166700
v -0.0243290 -0.0366326 0.0166611
v -0.0242181 -0.0366484 0.0166500
v -0.0243290 -0.0366326 0.0166611
v -0.0243818 -0.0365602 0.0166700
v -0.0243800 -0.0365704 0.0166500
vn -0.026629 0.038909 -0.998888
vn -0.016614 0.031763 -0.999357
vn -0.008515 0.020987 -0.999743
vn -0.000426 0.015126 -0.999886
vn 0.000000 0.000000 -1.000000
vn 0.000569 0.999929 0.011908
vn 0.000000 0.999939 0.011079
vn 0.000025 0.999967 0.008106
vn 0.000204 0.999964 0.008473
vn 0.006801 0.999964 0.005164
vn 0.011744 0.999930 0.001589
vn 0.003154 0.999987 0.003913
vn -0.002773 0.999992 0.003018
vn -0.010132 0.999927 0.006658
vn -0.008256 0.999784 0.019094
vn -0.006689 0.999926 0.010126
vn 0.001829 0.999948 0.010039
vn 0.003288 0.999958 0.008613
vn -0.001364 0.999936 0.011187
vn -0.001313 0.999958 0.009070
vn 0.002300 0.999975 0.006746
vn 0.014146 -0.032937 -0.999357
vn 0.026623 -0.043709 -0.998690
vn 0.004327 -0.013014 -0.999906
vn -0.000410 0.004048 -0.999992
vn -0.000621 0.003329 -0.999994
vn -0.000504 -0.007436 -0.999972
vn 0.035865 -0.043802 -0.998396
vn 0.016284 -0.018372 -0.999699
vn -0.012025 -0.014113 -0.999828
vn -0.026769 -0.032836 -0.999102
vn 0.026624 -0.043115 -0.998715
vn 0.013874 -0.033187 -0.999353
vn 0.026903 0.033951 -0.999061
vn 0.012029 0.013713 -0.999834
vn 0.006248 -0.007948 -0.999949
vn -0.001608 0.003904 -0.999991
vn 0.002664 0.006002 -0.999978
vn -0.000195 -0.004452 -0.999990
vn 0.004266 -0.012441 -0.999914
vn 0.018448 -0.012398 -0.999753
vn -0.041921 -0.010750 -0.999063
vn -0.034107 -0.001950 -0.999416
vn -0.016951 0.018280 -0.999689
vn -0.035727 0.040663 -0.998534
vn -0.005276 0.005704 -0.999970
vn -0.001289 -0.004776 -0.999988
vn 0.000028 0.005108 -0.999987
vn -0.014954 0.031480 -0.999393
vn -0.026627 0.040560 -0.998822
vn -0.003957 0.010451 -0.999938
vn 0.000056 -0.003006 -0.999995
vn 0.000600 0.007000 -0.999975
vn -0.013950 0.032777 -0.999365
vn -0.026623 0.043115 -0.998715
vn -0.004175 0.012465 -0.999914
vn -0.000197 -0.002970 -0.999996
vn -0.002661 -0.002781 -0.999993
vn 0.004668 0.006421 -0.999968
vn -0.001932 -0.000930 -0.999998
vn 0.001201 0.002685 -0.999996
vn 0.001861 -0.000015 -0.999998
vn -0.000324 -0.002027 -0.999998
vn -0.002483 -0.000543 -0.999997
vn 0.006652 -0.999964 0.005254
vn 0.011748 -0.999930 0.001596
vn -0.010117 -0.999927 0.006629
vn -0.008376 -0.999785 0.018948
vn 0.003330 -0.999955 0.008920
vn 0.000550 -0.999930 0.011811
vn -0.000000 -0.999934 0.011474
vn -0.001298 -0.999938 0.011037
vn 0.003154 -0.999987 0.003913
vn -0.002773 -0.999992 0.003018
vn -0.006656 -0.999928 0.009965
vn 0.001842 -0.999948 0.010071
vn 0.000204 -0.999966 0.008242
vn 0.000025 -0.999967 0.008137
vn -0.001313 -0.999960 0.008839
vn 0.002261 -0.999975 0.006749
vn 0.013322 -0.028921 -0.999493
vn 0.008528 -0.025574 -0.999637
vn 0.004418 -0.018041 -0.999827
vn 0.000000 0.000000 -1.000000
vn 0.000433 -0.015173 -0.999885
vn 0.014473 -0.032924 -0.999353
vn 0.026625 -0.042540 -0.998740
vn 0.006232 -0.020595 -0.999768
vn 0.000000 0.000000 -1.000000
vn -0.002329 -0.014332 -0.999895
vn 0.016427 -0.032019 -0.999352
vn 0.026892 -0.039610 -0.998853
vn 0.008272 -0.020894 -0.999747
vn 0.000000 0.000000 -1.000000
vn 0.000104 -0.014942 -0.999888
vn -0.525890 0.825550 -0.204713
vn -0.499419 0.863609 0.068994
vn -0.504596 0.862576 0.036671
vn -0.526284 0.819102 -0.228246
vn 0.457413 0.876109 0.152337
vn 0.501599 0.828840 -0.247837
vn 0.501559 0.818342 -0.280633
vn 0.465882 0.877980 0.110022
vn -1.000000 0.000000 0.000000
vn -1.000000 0.000000 0.000000
vn -1.000000 0.000000 0.000000
vn -1.000000 0.000000 0.000000
vn -0.008839 -0.008888 0.999921
vn 0.004410 -0.003355 0.999985
vn -0.002176 0.003082 0.999993
vn 0.002130 0.002402 0.999995
vn -0.010162 0.002277 0.999946
vn -0.000874 0.011713 0.999931
vn -0.005637 0.020472 0.999775
vn -0.004055 0.006536 0.999970
vn 0.001585 -0.005724 0.999982
vn 0.003230 -0.009841 0.999946
vn -0.002815 -0.010621 0.999940
vn -0.005184 -0.007266 0.999960
vn -0.005110 -0.007746 0.999957
vn -0.011326 -0.002795 0.999932
vn 1.000000 0.000000 0.000000
vn 1.000000 0.000000 0.000000
vn 1.000000 0.000000 0.000000
vn 1.000000 0.000000 0.000000
vn -0.014901 0.033262 -0.999336
vn -0.026625 0.042539 -0.998740
vn 0.001037 0.013776 -0.999905
vn -0.006746 0.019728 -0.999783
vn 0.000000 0.000000 -1.000000
vn 0.000000 0.000000 -1.000000
vn -0.013113 0.031313 -0.999424
vn -0.007756 0.027155 -0.999601
vn -0.016244 -0.124516 -0.992085
vn -0.017201 0.007473 -0.999824
vn -0.003226 -0.047311 -0.998875
vn -0.087179 0.085878 -0.992484
vn 0.728901 -0.681189 0.068443
vn 0.713108 -0.698413 -0.060797
vn 0.727653 -0.683910 0.052797
vn 0.710303 -0.699706 -0.076692
vn 0.973816 -0.020857 -0.226378
vn 0.973816 -0.020857 -0.226378
vn 0.973816 -0.020857 -0.226378
vn 0.718123 -0.555761 0.418843
vn 0.718123 -0.555761 0.418843
vn 0.718123 -0.555761 0.418843
vn 0.430690 -0.649780 -0.626332
vn 0.430690 -0.649780 -0.626332
vn 0.430690 -0.649780 -0.626332
vn 0.068453 -0.842160 0.534865
vn 0.068453 -0.842160 0.534865
vn 0.068453 -0.842160 0.534865
vn -0.406823 -0.744963 -0.528701
vn -0.406823 -0.744963 -0.528701
vn -0.406823 -0.744963 -0.528701
vn -0.607688 -0.776088 0.168530
vn -0.607688 -0.776088 0.168530
vn -0.607688 -0.776088 0.168530
vn -0.997720 -0.029623 -0.060648
vn -0.997720 -0.029623 -0.060648
vn -0.997720 -0.029623 -0.060648
vn 0.896157 0.020112 -0.443280
vn 0.896157 0.020112 -0.443280
vn 0.896157 0.020112 -0.443280
vn -0.644944 0.602713 0.469877
vn -0.644944 0.602713 0.469877
vn -0.644944 0.602713 0.469877
vn -0.422868 0.691260 -0.585954
vn -0.422868 0.691260 -0.585954
vn -0.422868 0.691260 -0.585954
vn 0.153508 0.837754 0.524026
vn 0.153508 0.837754 0.524026
vn 0.153508 0.837754 0.524026
vn 0.367916 0.735567 -0.568839
vn 0.367916 0.735567 -0.568839
vn 0.367916 0.735567 -0.568839
vn 0.749605 0.417141 0.513892
vn 0.749605 0.417141 0.513892
vn 0.749605 0.417141 0.513892
vn -0.967891 0.024592 -0.250163
vn -0.967891 0.024592 -0.250163
vn -0.967891 0.024592 -0.250163
vn 0.951213 0.025322 0.307494
vn 0.951213 0.025322 0.307494
vn 0.951213 0.025322 0.307494
vn -0.450935 0.805550 0.384379
vn -0.450935 0.805550 0.384379
vn -0.450935 0.805550 0.384379
vn -0.244213 0.750079 -0.614607
vn -0.244213 0.750079 -0.614607
vn -0.244213 0.750079 -0.614607
vn 0.401494 0.682882 0.610307
vn 0.401494 0.682882 0.610307
vn 0.401494 0.682882 0.610307
vn 0.629030 0.601204 -0.492824
vn 0.629030 0.601204 -0.492824
vn 0.629030 0.601204 -0.492824
vn -0.981300 0.041466 -0.187966
vn -0.981300 0.041466 -0.187966
vn -0.981300 0.041466 -0.187966
vn 0.984605 0.034058 0.171444
vn 0.984605 0.034058 0.171444
vn 0.984605 0.034058 0.171444
vn -0.989668 0.028574 0.140502
vn -0.989668 0.028574 0.140502
vn -0.989668 0.028574 0.140502
vn 0.973819 -0.020863 -0.226364
vn 0.973819 -0.020863 -0.226364
vn 0.973819 -0.020863 -0.226364
vn -0.970216 -0.022727 0.241173
vn -0.970216 -0.022727 0.241173
vn -0.970216 -0.022727 0.241173
vn 0.718080 -0.555701 0.418996
vn 0.718080 -0.555701 0.418996
vn 0.718080 -0.555701 0.418996
vn 0.514625 -0.690080 -0.508872
vn 0.514625 -0.690080 -0.508872
vn 0.514625 -0.690080 -0.508872
vn 0.074419 -0.915139 0.396210
vn 0.074419 -0.915139 0.396210
vn 0.074419 -0.915139 0.396210
vn -0.159469 -0.929066 -0.333776
vn -0.159469 -0.929066 -0.333776
vn -0.159469 -0.929066 -0.333776
vn -0.568177 -0.725646 0.388089
vn -0.568177 -0.725646 0.388089
vn -0.568177 -0.725646 0.388089
vn -0.726164 -0.586379 -0.358950
vn -0.726164 -0.586379 -0.358950
vn -0.726164 -0.586379 -0.358950
vn 0.999860 -0.014691 -0.008057
vn 0.999860 -0.014691 -0.008057
vn 0.999860 -0.014691 -0.008057
vn -0.996318 -0.013115 -0.084725
vn -0.996318 -0.013115 -0.084725
vn -0.996318 -0.013115 -0.084725
vn -0.141202 -0.989978 0.002415
vn -0.141202 -0.989978 0.002415
vn -0.141202 -0.989978 0.002415
vn -0.772455 -0.591683 0.230703
vn -0.772455 -0.591683 0.230703
vn -0.772455 -0.591683 0.230703
f 4//4 5//5 3//3
f 2//2 3//3 1//1
f 2//2 4//4 3//3
f 19//19 21//21 10//10
f 19//19 20//20 21//21
f 15//15 16//16 17//17
f 13//13 16//16 14//14
f 13//13 12//12 8//8
f 13//13 9//9 17//17
f 13//13 8//8 9//9
f 13//13 17//17 16//16
f 14//14 16//16 15//15
f 15//15 17//17 18//18
f 17//17 6//6 18//18
f 17//17 9//9 6//6
f 6//6 8//8 7//7
f 21//21 11//11 10//10
f 12//12 11//11 21//21
f 6//6 9//9 8//8
f 8//8 19//19 7//7
f 8//8 20//20 19//19
f 8//8 12//12 20//20
f 20//20 12//12 21//21
f 52//52 57//57 53//53
f 52//52 63//63 57//57
f 46//46 64//64 47//47
f 54//54 53//53 56//56
f 54//54 56//56 55//55
f 48//48 64//64 52//52
f 48//48 52//52 51//51
f 47//47 64//64 48//48
f 49//49 48//48 51//51
f 44//44 64//64 46//46
f 44//44 30//30 60//60
f 44//44 46//46 45//45
f 44//44 60//60 64//64
f 60//60 26//26 61//61
f 63//63 52//52 64//64
f 61//61 63//63 64//64
f 53//53 57//57 56//56
f 61//61 64//64 60//60
f 49//49 51//51 50//50
f 60//60 41//41 26//26
f 61//61 62//62 63//63
f 60//60 30//30 43//43
f 60//60 43//43 42//42
f 61//61 37//37 62//62
f 62//62 36//36 29//29
f 62//62 37//37 36//36
f 24//24 23//23 33//33
f 24//24 33//33 39//39
f 36//36 28//28 29//29
f 61//61 38//38 37//37
f 61//61 39//39 38//38
f 25//25 39//39 61//61
f 26//26 25//25 61//61
f 25//25 24//24 39//39
f 40//40 32//32 22//22
f 60//60 42//42 41//41
f 34//34 59//59 35//35
f 57//57 63//63 58//58
f 40//40 22//22 27//27
f 59//59 58//58 63//63
f 59//59 63//63 35//35
f 35//35 62//62 29//29
f 35//35 63//63 62//62
f 41//41 27//27 26//26
f 41//41 40//40 27//27
f 30//30 31//31 43//43
f 76//76 75//75 68//68
f 80//80 79//79 72//72
f 76//76 68//68 69//69
f 78//78 77//77 70//70
f 78//78 70//70 71//71
f 80//80 72//72 65//65
f 76//76 69//69 70//70
f 74//74 67//67 75//75
f 78//78 71//71 72//72
f 78//78 79//79 73//73
f 74//74 78//78 73//73
f 74//74 76//76 77//77
f 76//76 70//70 77//77
f 79//79 80//80 73//73
f 73//73 80//80 66//66
f 74//74 77//77 78//78
f 74//74 75//75 76//76
f 78//78 72//72 79//79
f 67//67 68//68 75//75
f 80//80 65//65 66//66
f 85//85 84//84 83//83
f 82//82 85//85 83//83
f 82//82 83//83 81//81
f 86//86 90//90 88//88
f 86//86 88//88 87//87
f 90//90 89//89 88//88
f 91//91 93//93 92//92
f 91//91 95//95 93//93
f 95//95 94//94 93//93
f 98//98 96//96 97//97
f 98//98 99//99 96//96
f 103//103 100//100 101//101
f 102//102 103//103 101//101
f 107//107 104//104 105//105
f 107//107 105//105 106//106
f 118//118 119//119 108//108
f 115//115 112//112 121//121
f 115//115 113//113 112//112
f 121//121 108//108 120//120
f 115//115 121//121 116//116
f 116//116 118//118 117//117
f 116//116 119//119 118//118
f 116//116 120//120 119//119
f 116//116 121//121 120//120
f 115//115 114//114 113//113
f 110//110 112//112 113//113
f 112//112 108//108 121//121
f 109//109 118//118 108//108
f 109//109 116//116 117//117
f 109//109 117//117 118//118
f 110//110 113//113 114//114
f 110//110 108//108 112//112
f 111//111 110//110 114//114
f 111//111 115//115 116//116
f 111//111 114//114 115//115
f 111//111 116//116 109//109
f 119//119 120//120 108//108
f 125//125 124//124 122//122
f 125//125 122//122 123//123
f 128//128 130//130 129//129
f 126//126 128//128 129//129
f 126//126 129//129 127//127
f 128//128 131//131 130//130
f 135//135 134//134 136//136
f 133//133 135//135 136//136
f 135//135 137//137 134//134
f 133//133 136//136 132//132
f 140//140 138//138 139//139
f 141//141 140//140 139//139
f 142//142 144//144 143//143
f 145//145 146//146 147//147
f 149//149 148//148 150//150
f 151//151 152//152 153//153
f 154//154 155//155 156//156
f 157//157 158//158 159//159
f 161//161 162//162 160//160
f 164//164 163//163 165//165
f 168//168 166//166 167//167
f 170//170 171//171 169//169
f 174//174 172//172 173//173
f 176//176 177//177 175//175
f 180//180 178//178 179//179
f 181//181 182//182 183//183
f 184//184 185//185 186//186
f 189//189 187//187 188//188
f 191//191 192//192 190//190
f 195//195 193//193 194//194
f 197//197 198//198 196//196
f 199//199 200//200 201//201
f 202//202 203//203 204//204
f 205//205 206//206 207//207
f 208//208 209//209 210//210
f 213//213 212//212 211//211
f 216//216 214//214 215//215
f 219//219 218//218 217//217
f 222//222 220//220 221//221
f 224//224 225//225 223//223
f 228//228 226//226 227//227
f 230//230 231//231 229//229
f 232//232 233//233 234//234
f 237//237 236//236 235//235
f 239//239 240//240 238//238
f 243//243 241//241 242//242
v -0.0275600 -0.0362533 0.0166600
v -0.0272600 -0.0362550 0.0166567
v -0.0275425 -0.0364396 0.0166500
v -0.0272722 -0.0364259 0.0166500
v -0.0273959 -0.0365039 0.0166500
v -0.0275600 -0.0362533 0.0166600
v -0.0272600 -0.0362550 0.0166567
v -0.0272600 -0.0362567 0.0168500
v -0.0275600 -0.0362575 0.0168500
v -0.0259600 -0.0362550 0.0166567
v -0.0257700 -0.0362600 0.0166700
v -0.0257700 -0.0362600 0.0172900
v -0.0277500 -0.0362600 0.0172900
v -0.0277500 -0.0362600 0.0166700
v -0.0269100 -0.0362550 0.0166633
v -0.0269100 -0.0362575 0.0168500
v -0.0266100 -0.0362571 0.0168500
v -0.0266100 -0.0362550 0.0166567
v -0.0262600 -0.0362550 0.0166633
v -0.0262600 -0.0362575 0.0168500
v -0.0259600 -0.0362560 0.0168500
v -0.0275600 -0.0362533 0.0166600
v -0.0272600 -0.0362550 0.0166567
v -0.0272700 -0.0364174 0.0166700
v -0.0273537 -0.0364910 0.0166700
v -0.0274657 -0.0364951 0.0166700
v -0.0275537 -0.0364038 0.0166700
v -0.0259600 -0.0362550 0.0166567
v -0.0257700 -0.0362600 0.0166700
v -0.0277500 -0.0362600 0.0166700
v -0.0269100 -0.0362550 0.0166633
v -0.0266100 -0.0362550 0.0166567
v -0.0262600 -0.0362550 0.0166633
v -0.0259600 -0.0382450 0.0166600
v -0.0257700 -0.0382400 0.0166700
v -0.0259762 -0.0364350 0.0166700
v -0.0261368 -0.0365062 0.0166700
v -0.0262522 -0.0364097 0.0166700
v -0.0266123 -0.0363825 0.0166700
v -0.0266697 -0.0364777 0.0166700
v -0.0268018 -0.0364980 0.0166607
v -0.0269006 -0.0364155 0.0166700
v -0.0277500 -0.0382400 0.0166700
v -0.0275600 -0.0382467 0.0166567
v -0.0275460 -0.0380709 0.0166700
v -0.0273955 -0.0379921 0.0166700
v -0.0272694 -0.0380845 0.0166700
v -0.0272600 -0.0382450 0.0166633
v -0.0269100 -0.0382450 0.0166567
v -0.0268938 -0.0380650 0.0166700
v -0.0267417 -0.0379942 0.0166617
v -0.0266622 -0.0380292 0.0166700
v -0.0266120 -0.0381193 0.0166700
v -0.0266100 -0.0382450 0.0166633
v -0.0262600 -0.0382450 0.0166567
v -0.0262533 -0.0380943 0.0166700
v -0.0261832 -0.0380151 0.0166605
v -0.0260862 -0.0380000 0.0166600
v -0.0259755 -0.0380670 0.0166700
v -0.0275800 -0.0368000 0.0166694
v -0.0261400 -0.0368000 0.0166682
v -0.0259400 -0.0370000 0.0166680
v -0.0259400 -0.0377000 0.0166688
v -0.0275800 -0.0377000 0.0166688
v -0.0259751 -0.0380663 0.0166500
v -0.0262556 -0.0381033 0.0166500
v -0.0259600 -0.0382450 0.0166600
v -0.0257700 -0.0382400 0.0166700
v -0.0277500 -0.0382400 0.0166700
v -0.0275600 -0.0382467 0.0166567
v -0.0272600 -0.0382450 0.0166633
v -0.0269100 -0.0382450 0.0166567
v -0.0266100 -0.0382450 0.0166633
v -0.0262600 -0.0382450 0.0166567
v -0.0257700 -0.0382400 0.0172900
v -0.0277500 -0.0382400 0.0172900
v -0.0275600 -0.0382425 0.0168500
v -0.0272600 -0.0382433 0.0168500
v -0.0269100 -0.0382425 0.0168500
v -0.0266100 -0.0382429 0.0168500
v -0.0262600 -0.0382425 0.0168500
v -0.0259600 -0.0382440 0.0168500
v -0.0269100 -0.0382450 0.0166567
v -0.0267417 -0.0379942 0.0166617
v -0.0266622 -0.0380292 0.0166700
v -0.0266100 -0.0382450 0.0166633
v -0.0266191 -0.0380839 0.0166500
v -0.0268103 -0.0380019 0.0166500
v -0.0269044 -0.0380975 0.0166500
v -0.0275600 -0.0382467 0.0166567
v -0.0272600 -0.0382450 0.0166633
v -0.0272691 -0.0380839 0.0166500
v -0.0273701 -0.0380015 0.0166500
v -0.0274869 -0.0380168 0.0166500
v -0.0275556 -0.0381033 0.0166500
v -0.0273955 -0.0379921 0.0166700
v -0.0272694 -0.0380845 0.0166700
v -0.0272691 -0.0380839 0.0166500
v -0.0273701 -0.0380015 0.0166500
v -0.0277500 -0.0362600 0.0172900
v -0.0277500 -0.0362600 0.0166700
v -0.0277500 -0.0382400 0.0166700
v -0.0277500 -0.0382400 0.0172900
v -0.0257700 -0.0362600 0.0172900
v -0.0277500 -0.0362600 0.0172900
v -0.0257700 -0.0382400 0.0172900
v -0.0277500 -0.0382400 0.0172900
v -0.0260382 -0.0367459 0.0172838
v -0.0260848 -0.0368626 0.0172850
v -0.0261979 -0.0369286 0.0172838
v -0.0262867 -0.0369279 0.0172866
v -0.0263887 -0.0368675 0.0172823
v -0.0264417 -0.0367582 0.0172828
v -0.0264193 -0.0366356 0.0172852
v -0.0263457 -0.0365567 0.0172858
v -0.0262534 -0.0365257 0.0172841
v -0.0261385 -0.0365559 0.0172843
v -0.0260627 -0.0366307 0.0172850
v -0.0257700 -0.0362600 0.0166700
v -0.0257700 -0.0362600 0.0172900
v -0.0257700 -0.0382400 0.0166700
v -0.0257700 -0.0382400 0.0172900
v -0.0259600 -0.0362550 0.0166567
v -0.0262600 -0.0362550 0.0166633
v -0.0262449 -0.0364337 0.0166500
v -0.0260957 -0.0365058 0.0166500
v -0.0259703 -0.0364201 0.0166500
v -0.0266100 -0.0362550 0.0166567
v -0.0266123 -0.0363825 0.0166700
v -0.0266697 -0.0364777 0.0166700
v -0.0266776 -0.0364808 0.0166500
v -0.0266133 -0.0363910 0.0166500
v -0.0269100 -0.0362550 0.0166633
v -0.0266100 -0.0362550 0.0166567
v -0.0268018 -0.0364980 0.0166607
v -0.0269009 -0.0364161 0.0166500
v -0.0266776 -0.0364808 0.0166500
v -0.0266133 -0.0363910 0.0166500
v -0.0272600 -0.0362550 0.0166567
v -0.0272722 -0.0364259 0.0166500
v -0.0272700 -0.0364174 0.0166700
v -0.0272722 -0.0364259 0.0166500
v -0.0272700 -0.0364174 0.0166700
v -0.0273537 -0.0364910 0.0166700
v -0.0272722 -0.0364259 0.0166500
v -0.0273959 -0.0365039 0.0166500
v -0.0273537 -0.0364910 0.0166700
v -0.0273959 -0.0365039 0.0166500
v -0.0273537 -0.0364910 0.0166700
v -0.0274657 -0.0364951 0.0166700
v -0.0275425 -0.0364396 0.0166500
v -0.0273959 -0.0365039 0.0166500
v -0.0274657 -0.0364951 0.0166700
v -0.0275425 -0.0364396 0.0166500
v -0.0274657 -0.0364951 0.0166700
v -0.0275537 -0.0364038 0.0166700
v -0.0275600 -0.0362533 0.0166600
v -0.0275425 -0.0364396 0.0166500
v -0.0275537 -0.0364038 0.0166700
v -0.0259600 -0.0382450 0.0166600
v -0.0259755 -0.0380670 0.0166700
v -0.0259751 -0.0380663 0.0166500
v -0.0262533 -0.0380943 0.0166700
v -0.0261832 -0.0380151 0.0166605
v -0.0262556 -0.0381033 0.0166500
v -0.0260862 -0.0380000 0.0166600
v -0.0259755 -0.0380670 0.0166700
v -0.0259751 -0.0380663 0.0166500
v -0.0262600 -0.0382450 0.0166567
v -0.0262533 -0.0380943 0.0166700
v -0.0262556 -0.0381033 0.0166500
v -0.0266120 -0.0381193 0.0166700
v -0.0266100 -0.0382450 0.0166633
v -0.0266191 -0.0380839 0.0166500
v -0.0268938 -0.0380650 0.0166700
v -0.0268103 -0.0380019 0.0166500
v -0.0269044 -0.0380975 0.0166500
v -0.0268938 -0.0380650 0.0166700
v -0.0267417 -0.0379942 0.0166617
v -0.0268103 -0.0380019 0.0166500
v -0.0266622 -0.0380292 0.0166700
v -0.0266120 -0.0381193 0.0166700
v -0.0266191 -0.0380839 0.0166500
v -0.0269100 -0.0382450 0.0166567
v -0.0268938 -0.0380650 0.0166700
v -0.0269044 -0.0380975 0.0166500
v -0.0272694 -0.0380845 0.0166700
v -0.0272600 -0.0382450 0.0166633
v -0.0272691 -0.0380839 0.0166500
v -0.0275460 -0.0380709 0.0166700
v -0.0274869 -0.0380168 0.0166500
v -0.0275556 -0.0381033 0.0166500
v -0.0275460 -0.0380709 0.0166700
v -0.0273955 -0.0379921 0.0166700
v -0.0274869 -0.0380168 0.0166500
v -0.0273955 -0.0379921 0.0166700
v -0.0273701 -0.0380015 0.0166500
v -0.0274869 -0.0380168 0.0166500
v -0.0275600 -0.0382467 0.0166567
v -0.0275460 -0.0380709 0.0166700
v -0.0275556 -0.0381033 0.0166500
v -0.0259600 -0.0362550 0.0166567
v -0.0259762 -0.0364350 0.0166700
v -0.0259703 -0.0364201 0.0166500
v -0.0262600 -0.0362550 0.0166633
v -0.0262522 -0.0364097 0.0166700
v -0.0262449 -0.0364337 0.0166500
v -0.0259762 -0.0364350 0.0166700
v -0.0260957 -0.0365058 0.0166500
v -0.0259703 -0.0364201 0.0166500
v -0.0259762 -0.0364350 0.0166700
v -0.0261368 -0.0365062 0.0166700
v -0.0260957 -0.0365058 0.0166500
v -0.0261368 -0.0365062 0.0166700
v -0.0262449 -0.0364337 0.0166500
v -0.0260957 -0.0365058 0.0166500
v -0.0261368 -0.0365062 0.0166700
v -0.0262522 -0.0364097 0.0166700
v -0.0262449 -0.0364337 0.0166500
v -0.0269100 -0.0362550 0.0166633
v -0.0269006 -0.0364155 0.0166700
v -0.0269009 -0.0364161 0.0166500
v -0.0266697 -0.0364777 0.0166700
v -0.0268018 -0.0364980 0.0166607
v -0.0266776 -0.0364808 0.0166500
v -0.0268018 -0.0364980 0.0166607
v -0.0269006 -0.0364155 0.0166700
v -0.0269009 -0.0364161 0.0166500
vn -0.010800 0.052598 -0.998557
vn -0.005404 0.044355 -0.999001
vn -0.006144 0.037430 -0.999280
vn -0.001516 0.030029 -0.999548
vn 0.000000 0.000000 -1.000000
vn -0.016453 0.999676 0.019441
vn 0.002748 0.999959 0.008613
vn 0.001402 0.999946 0.010321
vn -0.009980 0.999903 0.009723
vn 0.012826 0.999904 0.005164
vn 0.023520 0.999720 0.002606
vn 0.004252 0.999974 0.005807
vn -0.003887 0.999982 0.004624
vn -0.023519 0.999663 0.010944
vn 0.000448 0.999925 0.012206
vn -0.000023 0.999960 0.008922
vn -0.000014 0.999961 0.008840
vn 0.000017 0.999939 0.011079
vn -0.001260 0.999933 0.011524
vn -0.001186 0.999952 0.009748
vn 0.007793 0.999950 0.006231
vn -0.050041 -0.068289 -0.996410
vn 0.018973 -0.082944 -0.996374
vn 0.005268 -0.027356 -0.999612
vn -0.010287 0.012908 -0.999864
vn 0.000694 0.001671 -0.999998
vn -0.010744 -0.014787 -0.999833
vn 0.067678 -0.079780 -0.994512
vn 0.031552 -0.035233 -0.998881
vn -0.021097 -0.027893 -0.999388
vn 0.005109 -0.052310 -0.998618
vn 0.018934 -0.104329 -0.994363
vn 0.001513 -0.056397 -0.998407
vn 0.031945 0.005383 -0.999475
vn 0.023631 0.026346 -0.999374
vn 0.010886 -0.011561 -0.999874
vn 0.001382 0.005989 -0.999981
vn -0.000744 -0.013029 -0.999915
vn 0.005857 -0.039342 -0.999209
vn 0.033474 0.059295 -0.997679
vn 0.003320 0.015770 -0.999870
vn -0.008913 0.038050 -0.999236
vn -0.030855 0.035718 -0.998885
vn -0.066944 0.080741 -0.994484
vn -0.011206 0.013198 -0.999850
vn 0.000210 -0.003435 -0.999994
vn -0.000834 0.016093 -0.999870
vn -0.006875 0.050988 -0.998676
vn -0.018984 0.075567 -0.996960
vn -0.019836 -0.007588 -0.999774
vn 0.004519 -0.018655 -0.999816
vn 0.028348 -0.071794 -0.997017
vn -0.001651 0.023659 -0.999719
vn -0.007552 0.062017 -0.998047
vn -0.005812 0.021131 -0.999760
vn -0.015322 -0.028009 -0.999490
vn -0.021224 0.059608 -0.997996
vn 0.011587 0.057844 -0.998258
vn 0.031388 0.006955 -0.999483
vn -0.003302 0.000111 -0.999995
vn 0.001454 0.002148 -0.999997
vn 0.004548 0.000113 -0.999990
vn 0.004609 0.002810 -0.999985
vn -0.004655 -0.000496 -0.999989
vn 0.001799 0.000954 -0.999998
vn -0.001953 0.006677 -0.999976
vn 0.012720 -0.999905 0.005254
vn 0.023557 -0.999719 0.002624
vn -0.023450 -0.999666 0.010870
vn -0.016450 -0.999679 0.019257
vn 0.002764 -0.999956 0.008920
vn 0.000417 -0.999927 0.012043
vn -0.000018 -0.999934 0.011474
vn -0.001238 -0.999935 0.011317
vn 0.004254 -0.999974 0.005810
vn -0.003887 -0.999982 0.004624
vn -0.009934 -0.999905 0.009580
vn 0.001408 -0.999945 0.010378
vn -0.000023 -0.999962 0.008691
vn -0.000021 -0.999960 0.008903
vn -0.001191 -0.999954 0.009519
vn 0.007765 -0.999950 0.006241
vn 0.008767 -0.057129 -0.998328
vn 0.062296 0.114854 -0.991427
vn 0.317377 0.536021 -0.782274
vn 0.022136 -0.081185 -0.996453
vn 0.050822 0.059884 -0.996911
vn 0.185662 -0.182886 -0.965444
vn 0.018418 -0.022674 -0.999573
vn 0.009559 -0.057959 -0.998273
vn 0.022587 -0.081162 -0.996445
vn 0.011525 -0.048167 -0.998773
vn 0.000000 0.000000 -1.000000
vn 0.000000 0.000000 -1.000000
vn 0.002103 -0.031068 -0.999515
vn 0.587019 0.735070 0.339235
vn 0.590509 0.806286 0.034665
vn 0.592899 0.802457 0.067335
vn 0.578383 0.709262 0.403013
vn -1.000000 0.000000 0.000000
vn -1.000000 0.000000 0.000000
vn -1.000000 0.000000 0.000000
vn -1.000000 0.000000 0.000000
vn -0.008977 -0.009758 0.999912
vn 0.004165 -0.003320 0.999986
vn -0.001760 0.002801 0.999995
vn 0.001885 0.002273 0.999996
vn -0.011314 -0.000506 0.999936
vn -0.001799 0.006697 0.999976
vn 0.004348 0.009962 0.999941
vn 0.013841 0.060513 0.998071
vn -0.005240 0.011410 0.999921
vn 0.002954 -0.008057 0.999963
vn 0.006102 -0.016704 0.999842
vn 0.012573 -0.021687 0.999686
vn 0.031197 -0.070475 0.997026
vn -0.006795 -0.007338 0.999950
vn -0.013632 -0.010850 0.999848
vn 1.000000 0.000000 0.000000
vn 1.000000 0.000000 0.000000
vn 1.000000 0.000000 0.000000
vn 1.000000 0.000000 0.000000
vn -0.009508 0.052405 -0.998581
vn -0.022152 0.072506 -0.997122
vn -0.012013 0.047552 -0.998797
vn 0.000000 0.000000 -1.000000
vn -0.001517 0.030516 -0.999533
vn 0.998789 -0.022290 -0.043852
vn 0.974337 -0.221176 0.041816
vn 0.803876 -0.565175 -0.185367
vn 0.792679 -0.566873 -0.224310
vn 0.934691 -0.348545 0.069780
vn -0.022136 0.081183 -0.996453
vn -0.010151 0.059618 -0.998170
vn -0.007052 -0.087116 -0.996173
vn -0.008044 0.008634 -0.999930
vn -0.094976 0.067920 -0.993160
vn -0.017375 0.024184 -0.999557
vn 0.994292 -0.067936 -0.082268
vn 0.994292 -0.067936 -0.082268
vn 0.994292 -0.067936 -0.082268
vn 0.641327 -0.729345 0.238234
vn 0.641327 -0.729345 0.238234
vn 0.641327 -0.729345 0.238234
vn 0.461679 -0.731826 -0.501282
vn 0.461679 -0.731826 -0.501282
vn 0.461679 -0.731826 -0.501282
vn 0.032231 -0.868574 0.494510
vn 0.032231 -0.868574 0.494510
vn 0.032231 -0.868574 0.494510
vn -0.284214 -0.647463 -0.707117
vn -0.284214 -0.647463 -0.707117
vn -0.284214 -0.647463 -0.707117
vn -0.551846 -0.532023 0.642197
vn -0.551846 -0.532023 0.642197
vn -0.551846 -0.532023 0.642197
vn -0.915655 -0.064574 -0.396746
vn -0.915655 -0.064574 -0.396746
vn -0.915655 -0.064574 -0.396746
vn 0.996104 0.085333 0.022255
vn 0.996104 0.085333 0.022255
vn 0.996104 0.085333 0.022255
vn -0.746025 0.635879 -0.197747
vn -0.746025 0.635879 -0.197747
vn -0.746025 0.635879 -0.197747
vn 0.514229 0.856736 0.039648
vn 0.514229 0.856736 0.039648
vn 0.514229 0.856736 0.039648
vn -0.994224 0.035507 0.101286
vn -0.994224 0.035507 0.101286
vn -0.994224 0.035507 0.101286
vn 0.958049 0.030589 -0.284969
vn 0.958049 0.030589 -0.284969
vn 0.958049 0.030589 -0.284969
vn -0.567618 0.559133 -0.604301
vn -0.567618 0.559133 -0.604301
vn -0.567618 0.559133 -0.604301
vn -0.200534 0.526717 0.826048
vn -0.200534 0.526717 0.826048
vn -0.200534 0.526717 0.826048
vn 0.764799 0.425622 0.483662
vn 0.764799 0.425622 0.483662
vn 0.764799 0.425622 0.483662
vn -0.914531 0.052862 0.401046
vn -0.914531 0.052862 0.401046
vn -0.914531 0.052862 0.401046
vn 0.998177 0.057840 0.017266
vn 0.998177 0.057840 0.017266
vn 0.998177 0.057840 0.017266
vn -0.661420 0.526059 -0.534589
vn -0.661420 0.526059 -0.534589
vn -0.661420 0.526059 -0.534589
vn -0.323707 0.618835 0.715721
vn -0.323707 0.618835 0.715721
vn -0.323707 0.618835 0.715721
vn -0.110248 0.839780 -0.531615
vn -0.110248 0.839780 -0.531615
vn -0.110248 0.839780 -0.531615
vn -0.927504 0.045583 0.371022
vn -0.927504 0.045583 0.371022
vn -0.927504 0.045583 0.371022
vn 0.969260 -0.070009 0.235869
vn 0.969260 -0.070009 0.235869
vn 0.969260 -0.070009 0.235869
vn -0.958421 -0.060101 -0.278957
vn -0.958421 -0.060101 -0.278957
vn -0.958421 -0.060101 -0.278957
vn 0.514993 -0.753750 -0.408220
vn 0.514993 -0.753750 -0.408220
vn 0.514993 -0.753750 -0.408220
vn 0.314909 -0.709491 0.630440
vn 0.314909 -0.709491 0.630440
vn 0.314909 -0.709491 0.630440
vn -0.320725 -0.664306 -0.675154
vn -0.320725 -0.664306 -0.675154
vn -0.320725 -0.664306 -0.675154
vn -0.528743 -0.631916 0.566668
vn -0.528743 -0.631916 0.566668
vn -0.528743 -0.631916 0.566668
vn -0.998175 -0.057872 0.017267
vn -0.998175 -0.057872 0.017267
vn -0.998175 -0.057872 0.017267
vn 0.144916 -0.985035 0.093304
vn 0.144916 -0.985035 0.093304
vn 0.144916 -0.985035 0.093304
vn -0.638625 -0.768757 0.034220
vn -0.638625 -0.768757 0.034220
vn -0.638625 -0.768757 0.034220
f 247//247 248//248 246//246
f 245//245 246//246 244//244
f 245//245 247//247 246//246
f 262//262 264//264 253//253
f 258//258 260//260 261//261
f 258//258 259//259 260//260
f 256//256 252//252 257//257
f 256//256 255//255 260//260
f 256//256 259//259 251//251
f 256//256 260//260 259//259
f 256//256 251//251 252//252
f 257//257 252//252 249//249
f 262//262 263//263 264//264
f 251//251 258//258 250//250
f 260//260 255//255 263//263
f 260//260 263//263 262//262
f 260//260 262//262 261//261
f 263//263 255//255 264//264
f 255//255 254//254 264//264
f 264//264 254//254 253//253
f 249//249 252//252 251//251
f 249//249 251//251 250//250
f 251//251 259//259 258//258
f 297//297 296//296 299//299
f 297//297 299//299 298//298
f 296//296 295//295 299//299
f 303//303 270//270 269//269
f 295//295 300//300 299//299
f 303//303 268//268 284//284
f 307//307 294//294 293//293
f 303//303 273//273 270//270
f 295//295 306//306 300//300
f 289//289 293//293 290//290
f 304//304 306//306 307//307
f 291//291 290//290 293//293
f 291//291 293//293 292//292
f 288//288 307//307 289//289
f 309//309 301//301 308//308
f 309//309 300//300 301//301
f 298//298 308//308 277//277
f 298//298 309//309 308//308
f 303//303 269//269 268//268
f 304//304 307//307 303//303
f 289//289 307//307 293//293
f 277//277 302//302 278//278
f 304//304 305//305 306//306
f 301//301 306//306 302//302
f 305//305 279//279 272//272
f 303//303 284//284 304//304
f 304//304 279//279 305//305
f 300//300 306//306 301//301
f 286//286 307//307 288//288
f 286//286 303//303 307//307
f 286//286 288//288 287//287
f 286//286 273//273 303//303
f 306//306 295//295 294//294
f 304//304 280//280 279//279
f 304//304 281//281 280//280
f 282//282 276//276 281//281
f 279//279 271//271 272//272
f 283//283 282//282 281//281
f 302//302 306//306 278//278
f 273//273 265//265 270//270
f 278//278 306//306 305//305
f 282//282 275//275 276//276
f 268//268 285//285 284//284
f 278//278 305//305 272//272
f 267//267 266//266 274//274
f 267//267 274//274 285//285
f 284//284 283//283 304//304
f 283//283 281//281 304//304
f 268//268 267//267 285//285
f 306//306 294//294 307//307
f 321//321 320//320 313//313
f 321//321 313//313 314//314
f 323//323 322//322 315//315
f 323//323 315//315 316//316
f 325//325 324//324 317//317
f 325//325 317//317 310//310
f 312//312 313//313 320//320
f 319//319 323//323 318//318
f 323//323 316//316 317//317
f 324//324 325//325 318//318
f 318//318 325//325 311//311
f 323//323 324//324 318//318
f 321//321 314//314 315//315
f 325//325 310//310 311//311
f 321//321 315//315 322//322
f 323//323 317//317 324//324
f 319//319 312//312 320//320
f 319//319 320//320 321//321
f 319//319 322//322 323//323
f 319//319 321//321 322//322
f 330//330 327//327 328//328
f 326//326 332//332 330//330
f 326//326 330//330 329//329
f 332//332 331//331 327//327
f 332//332 327//327 330//330
f 333//333 335//335 334//334
f 333//333 338//338 335//335
f 338//338 336//336 335//335
f 338//338 337//337 336//336
f 341//341 342//342 339//339
f 341//341 339//339 340//340
f 346//346 343//343 344//344
f 346//346 344//344 345//345
f 348//348 358//358 347//347
f 360//360 361//361 347//347
f 359//359 360//360 347//347
f 355//355 351//351 356//356
f 355//355 352//352 351//351
f 358//358 359//359 347//347
f 355//355 354//354 353//353
f 356//356 358//358 357//357
f 356//356 359//359 358//358
f 356//356 351//351 360//360
f 356//356 360//360 359//359
f 355//355 353//353 352//352
f 349//349 352//352 353//353
f 348//348 356//356 357//357
f 348//348 357//357 358//358
f 349//349 351//351 352//352
f 351//351 361//361 360//360
f 349//349 353//353 354//354
f 350//350 356//356 348//348
f 350//350 349//349 354//354
f 351//351 347//347 361//361
f 350//350 354//354 355//355
f 350//350 355//355 356//356
f 349//349 347//347 351//351
f 365//365 362//362 363//363
f 365//365 364//364 362//362
f 370//370 369//369 368//368
f 366//366 370//370 368//368
f 366//366 368//368 367//367
f 371//371 372//372 375//375
f 375//375 372//372 373//373
f 374//374 375//375 373//373
f 381//381 378//378 379//379
f 377//377 381//381 379//379
f 381//381 380//380 378//378
f 377//377 379//379 376//376
f 382//382 384//384 383//383
f 385//385 386//386 387//387
f 389//389 388//388 390//390
f 391//391 392//392 393//393
f 394//394 395//395 396//396
f 397//397 398//398 399//399
f 401//401 402//402 400//400
f 404//404 403//403 405//405
f 407//407 408//408 406//406
f 411//411 409//409 410//410
f 412//412 413//413 414//414
f 415//415 416//416 417//417
f 419//419 420//420 418//418
f 423//423 421//421 422//422
f 426//426 424//424 425//425
f 427//427 428//428 429//429
f 430//430 431//431 432//432
f 434//434 435//435 433//433
f 438//438 436//436 437//437
f 440//440 441//441 439//439
f 442//442 443//443 444//444
f 445//445 446//446 447//447
f 450//450 449//449 448//448
f 452//452 453//453 451//451
f 456//456 454//454 455//455
f 458//458 459//459 457//457
f 462//462 460//460 461//461
f 465//465 464//464 463//463
f 467//467 468//468 466//466
f 471//471 469//469 470//470
