# OMX visual mesh; coordinates in metres
mtllib materials.mtl
usemtl bic30_rev02_substrate
v 0.0547500 -0.0000350 -0.0106800
v 0.0547500 -0.0002000 -0.0106800
v 0.0547500 -0.0000350 -0.0109600
v 0.0547500 -0.0002000 -0.0109600
v 0.0547500 -0.0008000 -0.0109600
v 0.0547500 -0.0009650 -0.0109600
v 0.0547500 -0.0009650 -0.0106800
v 0.0547500 -0.0008000 -0.0106800
v 0.0542500 -0.0000350 -0.0106800
v 0.0542500 -0.0002000 -0.0106800
v 0.0542500 -0.0000350 -0.0109600
v 0.0542500 -0.0002000 -0.0109600
v 0.0542500 -0.0008000 -0.0109600
v 0.0542500 -0.0009650 -0.0109600
v 0.0542500 -0.0009650 -0.0106800
v 0.0542500 -0.0008000 -0.0106800
v 0.0547500 -0.0002000 -0.0106800
v 0.0547500 -0.0008000 -0.0106800
v 0.0542500 -0.0002000 -0.0106800
v 0.0542500 -0.0008000 -0.0106800
vn 1.000000 0.000000 0.000000
vn 1.000000 0.000000 0.000000
vn 1.000000 0.000000 0.000000
vn 1.000000 0.000000 0.000000
vn 1.000000 0.000000 0.000000
vn 1.000000 0.000000 0.000000
vn 1.000000 0.000000 0.000000
vn 1.000000 0.000000 0.000000
vn -1.000000 0.000000 0.000000
vn -1.000000 0.000000 0.000000
vn -1.000000 0.000000 0.000000
vn -1.000000 0.000000 0.000000
vn -1.000000 0.000000 0.000000
vn -1.000000 0.000000 0.000000
vn -1.000000 0.000000 0.000000
vn -1.000000 0.000000 0.000000
vn 0.000000 0.000000 1.000000
vn 0.000000 0.000000 1.000000
vn 0.000000 0.000000 1.000000
vn 0.000000 0.000000 1.000000
f 4//4 1//1 2//2
f 4//4 3//3 1//1
f 5//5 2//2 8//8
f 5//5 4//4 2//2
f 6//6 8//8 7//7
f 6//6 5//5 8//8
f 12//12 10//10 9//9
f 12//12 9//9 11//11
f 13//13 16//16 10//10
f 13//13 10//10 12//12
f 14//14 15//15 16//16
f 14//14 16//16 13//13
f 20//20 17//17 19//19
f 20//20 18//18 17//17
v 0.0579650 0.0032500 -0.0106800
v 0.0578000 0.0032500 -0.0106800
v 0.0579650 0.0032500 -0.0109600
v 0.0578000 0.0032500 -0.0109600
v 0.0572000 0.0032500 -0.0109600
v 0.0570350 0.0032500 -0.0109600
v 0.0570350 0.0032500 -0.0106800
v 0.0572000 0.0032500 -0.0106800
v 0.0579650 0.0037500 -0.0106800
v 0.0578000 0.0037500 -0.0106800
v 0.0579650 0.0037500 -0.0109600
v 0.0578000 0.0037500 -0.0109600
v 0.0572000 0.0037500 -0.0109600
v 0.0570350 0.0037500 -0.0109600
v 0.0570350 0.0037500 -0.0106800
v 0.0572000 0.0037500 -0.0106800
v 0.0578000 0.0032500 -0.0106800
v 0.0572000 0.0032500 -0.0106800
v 0.0578000 0.0037500 -0.0106800
v 0.0572000 0.0037500 -0.0106800
vn 0.000000 -1.000000 0.000000
vn -0.000000 -1.000000 0.000000
vn 0.000000 -1.000000 0.000000
vn -0.000000 -1.000000 0.000000
vn -0.000000 -1.000000 0.000000
vn 0.000000 -1.000000 0.000000
vn 0.000000 -1.000000 0.000000
vn -0.000000 -1.000000 0.000000
vn 0.000000 1.000000 0.000000
vn 0.000000 1.000000 0.000000
vn 0.000000 1.000000 0.000000
vn 0.000000 1.000000 0.000000
vn 0.000000 1.000000 0.000000
vn 0.000000 1.000000 0.000000
vn 0.000000 1.000000 0.000000
vn 0.000000 1.000000 0.000000
vn 0.000000 0.000000 1.000000
vn 0.000000 0.000000 1.000000
vn 0.000000 0.000000 1.000000
vn 0.000000 0.000000 1.000000
f 24//24 21//21 22//22
f 24//24 23//23 21//21
f 25//25 22//22 28//28
f 25//25 24//24 22//22
f 26//26 28//28 27//27
f 26//26 25//25 28//28
f 32//32 30//30 29//29
f 32//32 29//29 31//31
f 33//33 36//36 30//30
f 33//33 30//30 32//32
f 34//34 35//35 36//36
f 34//34 36//36 33//33
f 40//40 37//37 39//39
f 40//40 38//38 37//37
v 0.0557150 0.0032500 -0.0106800
v 0.0555500 0.0032500 -0.0106800
v 0.0557150 0.0032500 -0.0109600
v 0.0555500 0.0032500 -0.0109600
v 0.0549500 0.0032500 -0.0109600
v 0.0547850 0.0032500 -0.0109600
v 0.0547850 0.0032500 -0.0106800
v 0.0549500 0.0032500 -0.0106800
v 0.0557150 0.0037500 -0.0106800
v 0.0555500 0.0037500 -0.0106800
v 0.0557150 0.0037500 -0.0109600
v 0.0555500 0.0037500 -0.0109600
v 0.0549500 0.0037500 -0.0109600
v 0.0547850 0.0037500 -0.0109600
v 0.0547850 0.0037500 -0.0106800
v 0.0549500 0.0037500 -0.0106800
v 0.0555500 0.0032500 -0.0106800
v 0.0549500 0.0032500 -0.0106800
v 0.0555500 0.0037500 -0.0106800
v 0.0549500 0.0037500 -0.0106800
vn -0.000000 -1.000000 0.000000
vn 0.000000 -1.000000 0.000000
vn -0.000001 -1.000000 0.000001
vn -0.000000 -1.000000 0.000000
vn -0.000001 -1.000000 0.000000
vn -0.000001 -1.000000 0.000000
vn -0.000001 -1.000000 0.000000
vn -0.000001 -1.000000 0.000000
vn 0.000000 1.000000 0.000000
vn 0.000000 1.000000 0.000000
vn 0.000000 1.000000 0.000000
vn 0.000000 1.000000 0.000000
vn 0.000000 1.000000 0.000000
vn 0.000000 1.000000 0.000000
vn 0.000000 1.000000 0.000000
vn 0.000000 1.000000 0.000000
vn 0.000000 0.000000 1.000000
vn 0.000000 0.000000 1.000000
vn 0.000000 0.000000 1.000000
vn 0.000000 0.000000 1.000000
f 44//44 41//41 42//42
f 44//44 43//43 41//41
f 45//45 42//42 48//48
f 45//45 44//44 42//42
f 46//46 48//48 47//47
f 46//46 45//45 48//48
f 52//52 50//50 49//49
f 52//52 49//49 51//51
f 53//53 56//56 50//50
f 53//53 50//50 52//52
f 54//54 55//55 56//56
f 54//54 56//56 53//53
f 60//60 57//57 59//59
f 60//60 58//58 57//57
v 0.0577500 0.0047850 -0.0106800
v 0.0577500 0.0049500 -0.0106800
v 0.0577500 0.0047850 -0.0109600
v 0.0577500 0.0049500 -0.0109600
v 0.0577500 0.0055500 -0.0109600
v 0.0577500 0.0057150 -0.0109600
v 0.0577500 0.0057150 -0.0106800
v 0.0577500 0.0055500 -0.0106800
v 0.0582500 0.0047850 -0.0106800
v 0.0582500 0.0049500 -0.0106800
v 0.0582500 0.0047850 -0.0109600
v 0.0582500 0.0049500 -0.0109600
v 0.0582500 0.0055500 -0.0109600
v 0.0582500 0.0057150 -0.0109600
v 0.0582500 0.0057150 -0.0106800
v 0.0582500 0.0055500 -0.0106800
v 0.0577500 0.0049500 -0.0106800
v 0.0577500 0.0055500 -0.0106800
v 0.0582500 0.0049500 -0.0106800
v 0.0582500 0.0055500 -0.0106800
vn -1.000000 0.000000 0.000000
vn -1.000000 0.000000 0.000000
vn -1.000000 0.000000 0.000000
vn -1.000000 0.000000 0.000000
vn -1.000000 0.000000 0.000000
vn -1.000000 0.000000 0.000000
vn -1.000000 0.000000 0.000000
vn -1.000000 0.000000 0.000000
vn 1.000000 0.000000 0.000000
vn 1.000000 0.000000 0.000000
vn 1.000000 0.000000 0.000000
vn 1.000000 0.000000 0.000000
vn 1.000000 0.000000 0.000000
vn 1.000000 0.000000 0.000000
vn 1.000000 0.000000 0.000000
vn 1.000000 0.000000 0.000000
vn 0.000000 0.000000 1.000000
vn 0.000000 0.000000 1.000000
vn 0.000000 0.000000 1.000000
vn 0.000000 0.000000 1.000000
f 64//64 61//61 62//62
f 64//64 63//63 61//61
f 65//65 62//62 68//68
f 65//65 64//64 62//62
f 66//66 68//68 67//67
f 66//66 65//65 68//68
f 72//72 70//70 69//69
f 72//72 69//69 71//71
f 73//73 76//76 70//70
f 73//73 70//70 72//72
f 74//74 75//75 76//76
f 74//74 76//76 73//73
f 80//80 77//77 79//79
f 80//80 78//78 77//77
v 0.0547500 0.0022150 -0.0106800
v 0.0547500 0.0020500 -0.0106800
v 0.0547500 0.0022150 -0.0109600
v 0.0547500 0.0020500 -0.0109600
v 0.0547500 0.0014500 -0.0109600
v 0.0547500 0.0012850 -0.0109600
v 0.0547500 0.0012850 -0.0106800
v 0.0547500 0.0014500 -0.0106800
v 0.0542500 0.0022150 -0.0106800
v 0.0542500 0.0020500 -0.0106800
v 0.0542500 0.0022150 -0.0109600
v 0.0542500 0.0020500 -0.0109600
v 0.0542500 0.0014500 -0.0109600
v 0.0542500 0.0012850 -0.0109600
v 0.0542500 0.0012850 -0.0106800
v 0.0542500 0.0014500 -0.0106800
v 0.0547500 0.0020500 -0.0106800
v 0.0547500 0.0014500 -0.0106800
v 0.0542500 0.0020500 -0.0106800
v 0.0542500 0.0014500 -0.0106800
vn 1.000000 0.000000 0.000000
vn 1.000000 0.000000 0.000000
vn 1.000000 0.000000 0.000000
vn 1.000000 0.000000 0.000000
vn 1.000000 0.000000 0.000000
vn 1.000000 0.000000 0.000000
vn 1.000000 0.000000 0.000000
vn 1.000000 0.000000 0.000000
vn -1.000000 0.000000 0.000000
vn -1.000000 0.000000 0.000000
vn -1.000000 0.000000 0.000000
vn -1.000000 0.000000 0.000000
vn -1.000000 0.000000 0.000000
vn -1.000000 0.000000 0.000000
vn -1.000000 0.000000 0.000000
vn -1.000000 0.000000 0.000000
vn 0.000000 0.000000 1.000000
vn 0.000000 0.000000 1.000000
vn 0.000000 0.000000 1.000000
vn 0.000000 0.000000 1.000000
f 84//84 81//81 82//82
f 84//84 83//83 81//81
f 85//85 82//82 88//88
f 85//85 84//84 82//82
f 86//86 88//88 87//87
f 86//86 85//85 88//88
f 92//92 90//90 89//89
f 92//92 89//89 91//91
f 93//93 96//96 90//90
f 93//93 90//90 92//92
f 94//94 95//95 96//96
f 94//94 96//96 93//93
f 100//100 97//97 99//99
f 100//100 98//98 97//97
v 0.0595000 0.0044650 -0.0106800
v 0.0595000 0.0043000 -0.0106800
v 0.0595000 0.0044650 -0.0109600
v 0.0595000 0.0043000 -0.0109600
v 0.0595000 0.0037000 -0.0109600
v 0.0595000 0.0035350 -0.0109600
v 0.0595000 0.0035350 -0.0106800
v 0.0595000 0.0037000 -0.0106800
v 0.0590000 0.0044650 -0.0106800
v 0.0590000 0.0043000 -0.0106800
v 0.0590000 0.0044650 -0.0109600
v 0.0590000 0.0043000 -0.0109600
v 0.0590000 0.0037000 -0.0109600
v 0.0590000 0.0035350 -0.0109600
v 0.0590000 0.0035350 -0.0106800
v 0.0590000 0.0037000 -0.0106800
v 0.0595000 0.0043000 -0.0106800
v 0.0595000 0.0037000 -0.0106800
v 0.0590000 0.0043000 -0.0106800
v 0.0590000 0.0037000 -0.0106800
vn 1.000000 0.000000 0.000000
vn 1.000000 0.000000 0.000000
vn 1.000000 0.000000 0.000000
vn 1.000000 0.000000 0.000000
vn 1.000000 0.000000 0.000000
vn 1.000000 0.000000 0.000000
vn 1.000000 0.000000 0.000000
vn 1.000000 0.000000 0.000000
vn -1.000000 0.000000 0.000000
vn -1.000000 0.000000 0.000000
vn -1.000000 0.000000 0.000000
vn -1.000000 0.000000 0.000000
vn -1.000000 0.000000 0.000000
vn -1.000000 0.000000 0.000000
vn -1.000000 0.000000 0.000000
vn -1.000000 0.000000 0.000000
vn 0.000000 0.000000 1.000000
vn 0.000000 0.000000 1.000000
vn 0.000000 0.000000 1.000000
vn 0.000000 0.000000 1.000000
f 104//104 101//101 102//102
f 104//104 103//103 101//101
f 105//105 102//102 108//108
f 105//105 104//104 102//102
f 106//106 108//108 107//107
f 106//106 105//105 108//108
f 112//112 110//110 109//109
f 112//112 109//109 111//111
f 113//113 116//116 110//110
f 113//113 110//110 112//112
f 114//114 115//115 116//116
f 114//114 116//116 113//113
f 120//120 117//117 119//119
f 120//120 118//118 117//117
