# OMX visual mesh; coordinates in metres
mtllib materials.mtl
usemtl white_led_diffuser
v 0.0501500 -0.0135000 0.1092500
v 0.0501500 -0.0155000 0.1092500
v 0.0511411 -0.0155000 0.1092500
v 0.0511411 -0.0170000 0.1092500
v 0.0524500 -0.0170000 0.1092500
v 0.0527500 -0.0167000 0.1092500
v 0.0527500 -0.0135000 0.1092500
v 0.0501500 -0.0135000 0.1092500
v 0.0501500 -0.0155000 0.1092500
v 0.0501500 -0.0155000 0.1170500
v 0.0501500 -0.0135000 0.1170500
v 0.0501500 -0.0135000 0.1092500
v 0.0527500 -0.0135000 0.1092500
v 0.0501500 -0.0135000 0.1170500
v 0.0527500 -0.0135000 0.1170500
v 0.0527500 -0.0167000 0.1092500
v 0.0527500 -0.0135000 0.1092500
v 0.0527500 -0.0135000 0.1170500
v 0.0527500 -0.0167000 0.1170500
v 0.0524500 -0.0170000 0.1092500
v 0.0527500 -0.0167000 0.1092500
v 0.0527500 -0.0167000 0.1170500
v 0.0524500 -0.0170000 0.1170500
v 0.0511411 -0.0170000 0.1092500
v 0.0524500 -0.0170000 0.1092500
v 0.0524500 -0.0170000 0.1170500
v 0.0511411 -0.0170000 0.1170500
v 0.0514121 -0.0170000 0.1100020
v 0.0517287 -0.0170000 0.1112316
v 0.0519018 -0.0170000 0.1128207
v 0.0518693 -0.0170000 0.1139488
v 0.0517773 -0.0170000 0.1147428
v 0.0515135 -0.0170000 0.1159848
v 0.0511411 -0.0155000 0.1092500
v 0.0511411 -0.0170000 0.1092500
v 0.0511411 -0.0170000 0.1170500
v 0.0514121 -0.0170000 0.1100020
v 0.0517287 -0.0170000 0.1112316
v 0.0519018 -0.0170000 0.1128207
v 0.0518693 -0.0170000 0.1139488
v 0.0517773 -0.0170000 0.1147428
v 0.0515135 -0.0170000 0.1159848
v 0.0511411 -0.0155000 0.1170500
v 0.0515511 -0.0155000 0.1158484
v 0.0517773 -0.0155000 0.1147428
v 0.0519018 -0.0155000 0.1134793
v 0.0518693 -0.0155000 0.1123512
v 0.0517016 -0.0155000 0.1110927
v 0.0514121 -0.0155000 0.1100020
v 0.0501500 -0.0155000 0.1092500
v 0.0511411 -0.0155000 0.1092500
v 0.0501500 -0.0155000 0.1170500
v 0.0511411 -0.0155000 0.1170500
v 0.0515511 -0.0155000 0.1158484
v 0.0517773 -0.0155000 0.1147428
v 0.0519018 -0.0155000 0.1134793
v 0.0518693 -0.0155000 0.1123512
v 0.0517016 -0.0155000 0.1110927
v 0.0514121 -0.0155000 0.1100020
v 0.0501500 -0.0155000 0.1170500
v 0.0501500 -0.0135000 0.1170500
v 0.0527500 -0.0135000 0.1170500
v 0.0527500 -0.0167000 0.1170500
v 0.0524500 -0.0170000 0.1170500
v 0.0511411 -0.0170000 0.1170500
v 0.0511411 -0.0155000 0.1170500
vn 0.000000 0.000000 -1.000000
vn 0.000000 0.000000 -1.000000
vn 0.000000 0.000000 -1.000000
vn 0.000000 0.000000 -1.000000
vn 0.000000 0.000000 -1.000000
vn 0.000000 0.000000 -1.000000
vn 0.000000 0.000000 -1.000000
vn -1.000000 0.000000 0.000000
vn -1.000000 0.000000 0.000000
vn -1.000000 0.000000 0.000000
vn -1.000000 0.000000 0.000000
vn 0.000000 1.000000 0.000000
vn 0.000000 1.000000 0.000000
vn 0.000000 1.000000 0.000000
vn 0.000000 1.000000 0.000000
vn 1.000000 0.000000 0.000000
vn 1.000000 0.000000 0.000000
vn 1.000000 0.000000 0.000000
vn 1.000000 0.000000 0.000000
vn 0.707107 -0.707107 0.000000
vn 0.707107 -0.707107 0.000000
vn 0.707107 -0.707107 0.000000
vn 0.707107 -0.707107 0.000000
vn 0.000000 -1.000000 0.000000
vn 0.000000 -1.000000 0.000000
vn 0.000000 -1.000000 0.000000
vn 0.000000 -1.000000 0.000000
vn 0.000000 -1.000000 0.000000
vn 0.000000 -1.000000 0.000000
vn 0.000000 -1.000000 0.000000
vn 0.000000 -1.000000 0.000000
vn 0.000000 -1.000000 0.000000
vn 0.000000 -1.000000 0.000000
vn -0.940748 0.000000 0.339107
vn -0.940748 0.000000 0.339107
vn -0.943971 0.000000 -0.330027
vn -0.955187 0.001662 0.295997
vn -0.983548 0.004976 0.180576
vn -0.999188 0.006767 0.039719
vn -0.997101 0.002800 -0.076041
vn -0.987102 0.001662 -0.160087
vn -0.962462 0.001326 -0.271412
vn -0.945414 -0.003321 -0.325856
vn -0.965537 -0.001326 -0.260263
vn -0.988362 -0.003142 -0.152090
vn -0.999353 -0.005458 -0.035563
vn -0.996517 -0.003033 0.083329
vn -0.980466 -0.001326 0.196686
vn -0.954533 0.000000 0.298104
vn 0.000000 -1.000000 0.000000
vn 0.000000 -1.000000 0.000000
vn 0.000000 -1.000000 0.000000
vn 0.000000 -1.000000 0.000000
vn 0.000000 -1.000000 0.000000
vn 0.000000 -1.000000 0.000000
vn 0.000000 -1.000000 0.000000
vn 0.000000 -1.000000 0.000000
vn 0.000000 -1.000000 0.000000
vn 0.000000 -1.000000 0.000000
vn 0.000000 0.000000 1.000000
vn 0.000000 0.000000 1.000000
vn 0.000000 0.000000 1.000000
vn 0.000000 0.000000 1.000000
vn 0.000000 0.000000 1.000000
vn 0.000000 0.000000 1.000000
vn 0.000000 0.000000 1.000000
f 3//3 2//2 1//1
f 3//3 1//1 7//7
f 5//5 4//4 3//3
f 6//6 3//3 7//7
f 6//6 5//5 3//3
f 10//10 11//11 8//8
f 10//10 8//8 9//9
f 14//14 13//13 12//12
f 14//14 15//15 13//13
f 18//18 19//19 16//16
f 18//18 16//16 17//17
f 22//22 23//23 20//20
f 22//22 20//20 21//21
f 26//26 27//27 33//33
f 30//30 26//26 31//31
f 25//25 26//26 30//30
f 26//26 33//33 32//32
f 25//25 28//28 24//24
f 30//30 29//29 25//25
f 29//29 28//28 25//25
f 26//26 32//32 31//31
f 40//40 46//46 39//39
f 36//36 43//43 42//42
f 42//42 43//43 44//44
f 42//42 44//44 41//41
f 41//41 45//45 40//40
f 41//41 44//44 45//45
f 40//40 45//45 46//46
f 37//37 49//49 35//35
f 39//39 46//46 47//47
f 38//38 47//47 48//48
f 38//38 48//48 37//37
f 37//37 48//48 49//49
f 35//35 49//49 34//34
f 39//39 47//47 38//38
f 51//51 59//59 50//50
f 59//59 58//58 50//50
f 50//50 56//56 52//52
f 50//50 58//58 57//57
f 50//50 57//57 56//56
f 55//55 54//54 52//52
f 54//54 53//53 52//52
f 56//56 55//55 52//52
f 63//63 62//62 66//66
f 66//66 62//62 61//61
f 66//66 61//61 60//60
f 64//64 66//66 65//65
f 63//63 66//66 64//64
