# OMX visual mesh; coordinates in metres
mtllib materials.mtl
usemtl bic30_rev02_fr4
v 0.0412670 -0.0091387 -0.0090500
v 0.0412652 -0.0091487 -0.0105600
v 0.0417371 -0.0104752 -0.0105600
v 0.0429116 -0.0114552 -0.0105600
v 0.0438822 -0.0117368 -0.0105600
v 0.0416413 -0.0103043 -0.0090500
v 0.0425492 -0.0112350 -0.0090500
v 0.0436010 -0.0117049 -0.0090500
v 0.0759385 -0.0117451 -0.0105600
v 0.0759071 -0.0117469 -0.0090500
v 0.0438822 0.0117368 -0.0090500
v 0.0425886 0.0113055 -0.0090500
v 0.0415771 0.0101519 -0.0090500
v 0.0412652 0.0091487 -0.0090500
v 0.0787330 0.0091387 -0.0090500
v 0.0784986 0.0099800 -0.0090500
v 0.0777507 0.0110344 -0.0090500
v 0.0763990 0.0117049 -0.0090500
v 0.0769912 -0.0115340 -0.0090500
v 0.0780164 -0.0107246 -0.0090500
v 0.0786772 -0.0096061 -0.0090500
v 0.0438306 0.0117307 -0.0105600
v 0.0425248 0.0112629 -0.0105600
v 0.0413494 0.0097100 -0.0105600
v 0.0759071 0.0117469 -0.0105600
v 0.0787348 0.0091486 -0.0105600
v 0.0783192 0.0103687 -0.0105600
v 0.0769912 0.0115340 -0.0105600
v 0.0770609 -0.0115018 -0.0105600
v 0.0782641 -0.0104299 -0.0105600
v 0.0787193 -0.0092838 -0.0105600
v 0.0412670 -0.0091387 -0.0090500
v 0.0416413 -0.0103043 -0.0090500
v 0.0425492 -0.0112350 -0.0090500
v 0.0436010 -0.0117049 -0.0090500
v 0.0759071 -0.0117469 -0.0090500
v 0.0438822 0.0117368 -0.0090500
v 0.0425886 0.0113055 -0.0090500
v 0.0415771 0.0101519 -0.0090500
v 0.0412652 0.0091487 -0.0090500
v 0.0787330 0.0091387 -0.0090500
v 0.0784986 0.0099800 -0.0090500
v 0.0777507 0.0110344 -0.0090500
v 0.0763990 0.0117049 -0.0090500
v 0.0769912 -0.0115340 -0.0090500
v 0.0780164 -0.0107246 -0.0090500
v 0.0786772 -0.0096061 -0.0090500
v 0.0767909 0.0091716 -0.0090500
v 0.0762587 0.0097512 -0.0090500
v 0.0753283 0.0098127 -0.0090500
v 0.0746553 0.0090475 -0.0090500
v 0.0747752 0.0081958 -0.0090500
v 0.0754178 0.0076695 -0.0090500
v 0.0761310 0.0077074 -0.0090500
v 0.0766211 0.0080514 -0.0090500
v 0.0768407 0.0085616 -0.0090500
v 0.0720302 0.0030521 -0.0090500
v 0.0714627 0.0028906 -0.0090500
v 0.0713527 0.0023969 -0.0090500
v 0.0715327 0.0020717 -0.0090500
v 0.0719487 0.0019379 -0.0090500
v 0.0723355 0.0021413 -0.0090500
v 0.0724551 0.0026748 -0.0090500
v 0.0723726 0.0003397 -0.0090500
v 0.0719401 0.0005554 -0.0090500
v 0.0715798 0.0004646 -0.0090500
v 0.0713358 0.0000677 -0.0090500
v 0.0715014 -0.0004066 -0.0090500
v 0.0719487 -0.0005621 -0.0090500
v 0.0723986 -0.0002922 -0.0090500
v 0.0720758 -0.0019535 -0.0090500
v 0.0715798 -0.0020354 -0.0090500
v 0.0713358 -0.0024323 -0.0090500
v 0.0715014 -0.0029066 -0.0090500
v 0.0719487 -0.0030621 -0.0090500
v 0.0723355 -0.0028587 -0.0090500
v 0.0724595 -0.0023716 -0.0090500
v 0.0768021 -0.0083717 -0.0090500
v 0.0764380 -0.0078789 -0.0090500
v 0.0758313 -0.0076300 -0.0090500
v 0.0752621 -0.0077586 -0.0090500
v 0.0747656 -0.0081903 -0.0090500
v 0.0746555 -0.0089562 -0.0090500
v 0.0750154 -0.0096066 -0.0090500
v 0.0759077 -0.0098756 -0.0090500
v 0.0766211 -0.0094486 -0.0090500
v 0.0768407 -0.0089384 -0.0090500
v 0.0451244 0.0094338 -0.0090500
v 0.0446738 0.0097800 -0.0090500
v 0.0439625 0.0098374 -0.0090500
v 0.0434133 0.0094777 -0.0090500
v 0.0431445 0.0089274 -0.0090500
v 0.0433132 0.0081139 -0.0090500
v 0.0440071 0.0076570 -0.0090500
v 0.0446310 0.0077074 -0.0090500
v 0.0451519 0.0080837 -0.0090500
v 0.0453705 0.0088248 -0.0090500
v 0.0486466 0.0026174 -0.0090500
v 0.0484105 0.0029773 -0.0090500
v 0.0479189 0.0030375 -0.0090500
v 0.0475223 0.0026005 -0.0090500
v 0.0477327 0.0020717 -0.0090500
v 0.0481487 0.0019379 -0.0090500
v 0.0485729 0.0021788 -0.0090500
v 0.0484105 0.0004773 -0.0090500
v 0.0478292 0.0005152 -0.0090500
v 0.0475295 0.0000075 -0.0090500
v 0.0478218 -0.0005128 -0.0090500
v 0.0483896 -0.0004865 -0.0090500
v 0.0486788 -0.0000230 -0.0090500
v 0.0486378 -0.0023229 -0.0090500
v 0.0482337 -0.0019336 -0.0090500
v 0.0477286 -0.0020789 -0.0090500
v 0.0475295 -0.0024926 -0.0090500
v 0.0478218 -0.0030128 -0.0090500
v 0.0483896 -0.0029865 -0.0090500
v 0.0486204 -0.0026946 -0.0090500
v 0.0451244 -0.0080662 -0.0090500
v 0.0444677 -0.0076299 -0.0090500
v 0.0436420 -0.0078152 -0.0090500
v 0.0431998 -0.0083572 -0.0090500
v 0.0431836 -0.0090861 -0.0090500
v 0.0434975 -0.0095617 -0.0090500
v 0.0440070 -0.0098430 -0.0090500
v 0.0446310 -0.0097926 -0.0090500
v 0.0451519 -0.0094163 -0.0090500
v 0.0453705 -0.0086752 -0.0090500
v 0.0412652 -0.0091487 -0.0105600
v 0.0417371 -0.0104752 -0.0105600
v 0.0429116 -0.0114552 -0.0105600
v 0.0438822 -0.0117368 -0.0105600
v 0.0759385 -0.0117451 -0.0105600
v 0.0438306 0.0117307 -0.0105600
v 0.0425248 0.0112629 -0.0105600
v 0.0413494 0.0097100 -0.0105600
v 0.0759071 0.0117469 -0.0105600
v 0.0787348 0.0091486 -0.0105600
v 0.0783192 0.0103687 -0.0105600
v 0.0769912 0.0115340 -0.0105600
v 0.0770609 -0.0115018 -0.0105600
v 0.0782641 -0.0104299 -0.0105600
v 0.0787193 -0.0092838 -0.0105600
v 0.0768677 0.0087198 -0.0105600
v 0.0767270 0.0092702 -0.0105600
v 0.0762752 0.0097488 -0.0105600
v 0.0755380 0.0098434 -0.0105600
v 0.0749572 0.0095384 -0.0105600
v 0.0746091 0.0087351 -0.0105600
v 0.0749215 0.0080113 -0.0105600
v 0.0753939 0.0076947 -0.0105600
v 0.0760938 0.0076810 -0.0105600
v 0.0766541 0.0080996 -0.0105600
v 0.0724368 0.0026534 -0.0105600
v 0.0721602 0.0030117 -0.0105600
v 0.0717004 0.0030222 -0.0105600
v 0.0713852 0.0027408 -0.0105600
v 0.0714105 0.0021953 -0.0105600
v 0.0718591 0.0019373 -0.0105600
v 0.0723693 0.0021533 -0.0105600
v 0.0724368 0.0001534 -0.0105600
v 0.0721602 0.0005117 -0.0105600
v 0.0717004 0.0005222 -0.0105600
v 0.0713650 0.0002081 -0.0105600
v 0.0713926 -0.0002295 -0.0105600
v 0.0716504 -0.0005071 -0.0105600
v 0.0720427 -0.0005397 -0.0105600
v 0.0723970 -0.0002826 -0.0105600
v 0.0724434 -0.0023447 -0.0105600
v 0.0722162 -0.0020416 -0.0105600
v 0.0717980 -0.0019363 -0.0105600
v 0.0714155 -0.0022162 -0.0105600
v 0.0713757 -0.0027624 -0.0105600
v 0.0718591 -0.0030627 -0.0105600
v 0.0723460 -0.0028675 -0.0105600
v 0.0768705 -0.0088248 -0.0105600
v 0.0766446 -0.0080712 -0.0105600
v 0.0761052 -0.0076983 -0.0105600
v 0.0755380 -0.0076566 -0.0105600
v 0.0749572 -0.0079616 -0.0105600
v 0.0746822 -0.0084585 -0.0105600
v 0.0746610 -0.0089837 -0.0105600
v 0.0749215 -0.0094887 -0.0105600
v 0.0753940 -0.0098053 -0.0105600
v 0.0760938 -0.0098191 -0.0105600
v 0.0766244 -0.0094337 -0.0105600
v 0.0453236 0.0090569 -0.0105600
v 0.0448313 0.0097267 -0.0105600
v 0.0439190 0.0098269 -0.0105600
v 0.0433084 0.0093529 -0.0105600
v 0.0431446 0.0088073 -0.0105600
v 0.0432504 0.0082492 -0.0105600
v 0.0437939 0.0077219 -0.0105600
v 0.0445355 0.0076705 -0.0105600
v 0.0452439 0.0081849 -0.0105600
v 0.0485101 0.0028966 -0.0105600
v 0.0481040 0.0030590 -0.0105600
v 0.0476830 0.0028928 -0.0105600
v 0.0475473 0.0025286 -0.0105600
v 0.0476368 0.0021670 -0.0105600
v 0.0481267 0.0019266 -0.0105600
v 0.0486506 0.0022941 -0.0105600
v 0.0486603 -0.0000374 -0.0105600
v 0.0485101 0.0003966 -0.0105600
v 0.0481040 0.0005590 -0.0105600
v 0.0476830 0.0003928 -0.0105600
v 0.0475439 -0.0001276 -0.0105600
v 0.0478505 -0.0005071 -0.0105600
v 0.0484042 -0.0004962 -0.0105600
v 0.0485101 -0.0021034 -0.0105600
v 0.0481040 -0.0019410 -0.0105600
v 0.0476830 -0.0021072 -0.0105600
v 0.0475473 -0.0024714 -0.0105600
v 0.0476368 -0.0028330 -0.0105600
v 0.0481267 -0.0030734 -0.0105600
v 0.0486506 -0.0027059 -0.0105600
v 0.0451669 -0.0081102 -0.0105600
v 0.0446478 -0.0077097 -0.0105600
v 0.0439190 -0.0076732 -0.0105600
v 0.0433084 -0.0081471 -0.0105600
v 0.0431446 -0.0086927 -0.0105600
v 0.0432504 -0.0092508 -0.0105600
v 0.0436817 -0.0097048 -0.0105600
v 0.0442722 -0.0098664 -0.0105600
v 0.0448946 -0.0096599 -0.0105600
v 0.0453714 -0.0089608 -0.0105600
v 0.0767909 0.0091716 -0.0090500
v 0.0762587 0.0097512 -0.0090500
v 0.0753283 0.0098127 -0.0090500
v 0.0746553 0.0090475 -0.0090500
v 0.0747752 0.0081958 -0.0090500
v 0.0754178 0.0076695 -0.0090500
v 0.0761310 0.0077074 -0.0090500
v 0.0766211 0.0080514 -0.0090500
v 0.0768407 0.0085616 -0.0090500
v 0.0768677 0.0087198 -0.0105600
v 0.0767270 0.0092702 -0.0105600
v 0.0762752 0.0097488 -0.0105600
v 0.0755380 0.0098434 -0.0105600
v 0.0749572 0.0095384 -0.0105600
v 0.0746091 0.0087351 -0.0105600
v 0.0749215 0.0080113 -0.0105600
v 0.0753939 0.0076947 -0.0105600
v 0.0760938 0.0076810 -0.0105600
v 0.0766541 0.0080996 -0.0105600
v 0.0762587 0.0097512 -0.0090500
v 0.0753283 0.0098127 -0.0090500
v 0.0762752 0.0097488 -0.0105600
v 0.0755380 0.0098434 -0.0105600
v 0.0720302 0.0030521 -0.0090500
v 0.0724551 0.0026748 -0.0090500
v 0.0724368 0.0026534 -0.0105600
v 0.0721602 0.0030117 -0.0105600
v 0.0720302 0.0030521 -0.0090500
v 0.0714627 0.0028906 -0.0090500
v 0.0721602 0.0030117 -0.0105600
v 0.0717004 0.0030222 -0.0105600
v 0.0713852 0.0027408 -0.0105600
v 0.0714627 0.0028906 -0.0090500
v 0.0713527 0.0023969 -0.0090500
v 0.0715327 0.0020717 -0.0090500
v 0.0719487 0.0019379 -0.0090500
v 0.0713852 0.0027408 -0.0105600
v 0.0714105 0.0021953 -0.0105600
v 0.0718591 0.0019373 -0.0105600
v 0.0719487 0.0019379 -0.0090500
v 0.0723355 0.0021413 -0.0090500
v 0.0718591 0.0019373 -0.0105600
v 0.0723693 0.0021533 -0.0105600
v 0.0723355 0.0021413 -0.0090500
v 0.0724551 0.0026748 -0.0090500
v 0.0724368 0.0026534 -0.0105600
v 0.0723693 0.0021533 -0.0105600
v 0.0723726 0.0003397 -0.0090500
v 0.0723986 -0.0002922 -0.0090500
v 0.0724368 0.0001534 -0.0105600
v 0.0723970 -0.0002826 -0.0105600
v 0.0723726 0.0003397 -0.0090500
v 0.0719401 0.0005554 -0.0090500
v 0.0715798 0.0004646 -0.0090500
v 0.0713358 0.0000677 -0.0090500
v 0.0724368 0.0001534 -0.0105600
v 0.0721602 0.0005117 -0.0105600
v 0.0717004 0.0005222 -0.0105600
v 0.0713650 0.0002081 -0.0105600
v 0.0713358 0.0000677 -0.0090500
v 0.0715014 -0.0004066 -0.0090500
v 0.0719487 -0.0005621 -0.0090500
v 0.0713650 0.0002081 -0.0105600
v 0.0713926 -0.0002295 -0.0105600
v 0.0716504 -0.0005071 -0.0105600
v 0.0720427 -0.0005397 -0.0105600
v 0.0719487 -0.0005621 -0.0090500
v 0.0723986 -0.0002922 -0.0090500
v 0.0720427 -0.0005397 -0.0105600
v 0.0723970 -0.0002826 -0.0105600
v 0.0720758 -0.0019535 -0.0090500
v 0.0715798 -0.0020354 -0.0090500
v 0.0713358 -0.0024323 -0.0090500
v 0.0715014 -0.0029066 -0.0090500
v 0.0724595 -0.0023716 -0.0090500
v 0.0724434 -0.0023447 -0.0105600
v 0.0722162 -0.0020416 -0.0105600
v 0.0717980 -0.0019363 -0.0105600
v 0.0714155 -0.0022162 -0.0105600
v 0.0713757 -0.0027624 -0.0105600
v 0.0715014 -0.0029066 -0.0090500
v 0.0719487 -0.0030621 -0.0090500
v 0.0713757 -0.0027624 -0.0105600
v 0.0718591 -0.0030627 -0.0105600
v 0.0719487 -0.0030621 -0.0090500
v 0.0723355 -0.0028587 -0.0090500
v 0.0718591 -0.0030627 -0.0105600
v 0.0723460 -0.0028675 -0.0105600
v 0.0723355 -0.0028587 -0.0090500
v 0.0724595 -0.0023716 -0.0090500
v 0.0724434 -0.0023447 -0.0105600
v 0.0723460 -0.0028675 -0.0105600
v 0.0768021 -0.0083717 -0.0090500
v 0.0764380 -0.0078789 -0.0090500
v 0.0758313 -0.0076300 -0.0090500
v 0.0752621 -0.0077586 -0.0090500
v 0.0747656 -0.0081903 -0.0090500
v 0.0746555 -0.0089562 -0.0090500
v 0.0750154 -0.0096066 -0.0090500
v 0.0759077 -0.0098756 -0.0090500
v 0.0766211 -0.0094486 -0.0090500
v 0.0768407 -0.0089384 -0.0090500
v 0.0768705 -0.0088248 -0.0105600
v 0.0766446 -0.0080712 -0.0105600
v 0.0761052 -0.0076983 -0.0105600
v 0.0755380 -0.0076566 -0.0105600
v 0.0749572 -0.0079616 -0.0105600
v 0.0746822 -0.0084585 -0.0105600
v 0.0746610 -0.0089837 -0.0105600
v 0.0749215 -0.0094887 -0.0105600
v 0.0753940 -0.0098053 -0.0105600
v 0.0760938 -0.0098191 -0.0105600
v 0.0766244 -0.0094337 -0.0105600
v 0.0451244 0.0094338 -0.0090500
v 0.0446738 0.0097800 -0.0090500
v 0.0439625 0.0098374 -0.0090500
v 0.0451519 0.0080837 -0.0090500
v 0.0453705 0.0088248 -0.0090500
v 0.0453236 0.0090569 -0.0105600
v 0.0448313 0.0097267 -0.0105600
v 0.0439190 0.0098269 -0.0105600
v 0.0452439 0.0081849 -0.0105600
v 0.0439625 0.0098374 -0.0090500
v 0.0434133 0.0094777 -0.0090500
v 0.0431445 0.0089274 -0.0090500
v 0.0433132 0.0081139 -0.0090500
v 0.0440071 0.0076570 -0.0090500
v 0.0446310 0.0077074 -0.0090500
v 0.0451519 0.0080837 -0.0090500
v 0.0439190 0.0098269 -0.0105600
v 0.0433084 0.0093529 -0.0105600
v 0.0431446 0.0088073 -0.0105600
v 0.0432504 0.0082492 -0.0105600
v 0.0437939 0.0077219 -0.0105600
v 0.0445355 0.0076705 -0.0105600
v 0.0452439 0.0081849 -0.0105600
v 0.0486466 0.0026174 -0.0090500
v 0.0484105 0.0029773 -0.0090500
v 0.0485729 0.0021788 -0.0090500
v 0.0485101 0.0028966 -0.0105600
v 0.0486506 0.0022941 -0.0105600
v 0.0484105 0.0029773 -0.0090500
v 0.0479189 0.0030375 -0.0090500
v 0.0475223 0.0026005 -0.0090500
v 0.0477327 0.0020717 -0.0090500
v 0.0485101 0.0028966 -0.0105600
v 0.0481040 0.0030590 -0.0105600
v 0.0476830 0.0028928 -0.0105600
v 0.0475473 0.0025286 -0.0105600
v 0.0476368 0.0021670 -0.0105600
v 0.0477327 0.0020717 -0.0090500
v 0.0481487 0.0019379 -0.0090500
v 0.0476368 0.0021670 -0.0105600
v 0.0481267 0.0019266 -0.0105600
v 0.0481487 0.0019379 -0.0090500
v 0.0485729 0.0021788 -0.0090500
v 0.0481267 0.0019266 -0.0105600
v 0.0486506 0.0022941 -0.0105600
v 0.0484105 0.0004773 -0.0090500
v 0.0486788 -0.0000230 -0.0090500
v 0.0486603 -0.0000374 -0.0105600
v 0.0485101 0.0003966 -0.0105600
v 0.0484105 0.0004773 -0.0090500
v 0.0478292 0.0005152 -0.0090500
v 0.0485101 0.0003966 -0.0105600
v 0.0481040 0.0005590 -0.0105600
v 0.0476830 0.0003928 -0.0105600
v 0.0478292 0.0005152 -0.0090500
v 0.0475295 0.0000075 -0.0090500
v 0.0476830 0.0003928 -0.0105600
v 0.0475439 -0.0001276 -0.0105600
v 0.0475295 0.0000075 -0.0090500
v 0.0478218 -0.0005128 -0.0090500
v 0.0475439 -0.0001276 -0.0105600
v 0.0478505 -0.0005071 -0.0105600
v 0.0478218 -0.0005128 -0.0090500
v 0.0483896 -0.0004865 -0.0090500
v 0.0478505 -0.0005071 -0.0105600
v 0.0484042 -0.0004962 -0.0105600
v 0.0483896 -0.0004865 -0.0090500
v 0.0486788 -0.0000230 -0.0090500
v 0.0486603 -0.0000374 -0.0105600
v 0.0484042 -0.0004962 -0.0105600
v 0.0486378 -0.0023229 -0.0090500
v 0.0482337 -0.0019336 -0.0090500
v 0.0486204 -0.0026946 -0.0090500
v 0.0485101 -0.0021034 -0.0105600
v 0.0481040 -0.0019410 -0.0105600
v 0.0486506 -0.0027059 -0.0105600
v 0.0482337 -0.0019336 -0.0090500
v 0.0477286 -0.0020789 -0.0090500
v 0.0481040 -0.0019410 -0.0105600
v 0.0476830 -0.0021072 -0.0105600
v 0.0477286 -0.0020789 -0.0090500
v 0.0475295 -0.0024926 -0.0090500
v 0.0478218 -0.0030128 -0.0090500
v 0.0476830 -0.0021072 -0.0105600
v 0.0475473 -0.0024714 -0.0105600
v 0.0476368 -0.0028330 -0.0105600
v 0.0478218 -0.0030128 -0.0090500
v 0.0483896 -0.0029865 -0.0090500
v 0.0486204 -0.0026946 -0.0090500
v 0.0476368 -0.0028330 -0.0105600
v 0.0481267 -0.0030734 -0.0105600
v 0.0486506 -0.0027059 -0.0105600
v 0.0451244 -0.0080662 -0.0090500
v 0.0444677 -0.0076299 -0.0090500
v 0.0436420 -0.0078152 -0.0090500
v 0.0431998 -0.0083572 -0.0090500
v 0.0431836 -0.0090861 -0.0090500
v 0.0434975 -0.0095617 -0.0090500
v 0.0440070 -0.0098430 -0.0090500
v 0.0446310 -0.0097926 -0.0090500
v 0.0451519 -0.0094163 -0.0090500
v 0.0453705 -0.0086752 -0.0090500
v 0.0451669 -0.0081102 -0.0105600
v 0.0446478 -0.0077097 -0.0105600
v 0.0439190 -0.0076732 -0.0105600
v 0.0433084 -0.0081471 -0.0105600
v 0.0431446 -0.0086927 -0.0105600
v 0.0432504 -0.0092508 -0.0105600
v 0.0436817 -0.0097048 -0.0105600
v 0.0442722 -0.0098664 -0.0105600
v 0.0448946 -0.0096599 -0.0105600
v 0.0453714 -0.0089608 -0.0105600
vn -0.988038 -0.154194 0.002139
vn -0.986440 -0.163991 -0.006502
vn -0.822159 -0.569065 -0.014822
vn -0.465898 -0.884594 -0.020784
vn -0.124970 -0.992157 -0.002650
vn -0.862257 -0.506351 0.011034
vn -0.574624 -0.818318 0.012773
vn -0.205919 -0.978443 0.015702
vn 0.103839 -0.994588 -0.003396
vn 0.095406 -0.995438 0.001097
vn -0.156980 0.987600 0.001840
vn -0.550810 0.834613 0.005448
vn -0.863823 0.503747 0.006985
vn -0.992884 0.118693 -0.009702
vn 0.991056 0.133434 0.002002
vn 0.909527 0.415368 0.015188
vn 0.653956 0.756408 0.013753
vn 0.215476 0.976010 0.031234
vn 0.414738 -0.909930 0.004389
vn 0.745383 -0.666556 0.010370
vn 0.964904 -0.262293 0.012763
vn -0.169869 0.985460 -0.003723
vn -0.584147 0.811457 -0.017589
vn -0.947104 0.319263 -0.032631
vn 0.077986 0.996953 0.001848
vn 0.988149 0.153274 -0.008250
vn 0.838527 0.544169 -0.027438
vn 0.430451 0.902394 -0.019928
vn 0.448294 -0.893787 -0.013278
vn 0.817609 -0.575333 -0.022529
vn 0.986531 -0.163411 -0.007365
vn 0.000000 0.000000 1.000000
vn 0.000000 0.000000 1.000000
vn 0.000000 0.000000 1.000000
vn 0.000000 0.000000 1.000000
vn 0.000000 0.000000 1.000000
vn 0.000000 0.000000 1.000000
vn 0.000000 0.000000 1.000000
vn 0.000000 0.000000 1.000000
vn 0.000000 0.000000 1.000000
vn 0.000000 0.000000 1.000000
vn 0.000000 0.000000 1.000000
vn 0.000000 0.000000 1.000000
vn 0.000000 0.000000 1.000000
vn 0.000000 0.000000 1.000000
vn 0.000000 0.000000 1.000000
vn 0.000000 0.000000 1.000000
vn 0.000000 0.000000 1.000000
vn 0.000000 0.000000 1.000000
vn 0.000000 0.000000 1.000000
vn 0.000000 0.000000 1.000000
vn 0.000000 0.000000 1.000000
vn 0.000000 0.000000 1.000000
vn 0.000000 0.000000 1.000000
vn 0.000000 0.000000 1.000000
vn 0.000000 0.000000 1.000000
vn 0.000000 0.000000 1.000000
vn 0.000000 0.000000 1.000000
vn 0.000000 0.000000 1.000000
vn 0.000000 0.000000 1.000000
vn 0.000000 0.000000 1.000000
vn 0.000000 0.000000 1.000000
vn 0.000000 0.000000 1.000000
vn 0.000000 0.000000 1.000000
vn 0.000000 0.000000 1.000000
vn 0.000000 0.000000 1.000000
vn 0.000000 0.000000 1.000000
vn 0.000000 0.000000 1.000000
vn 0.000000 0.000000 1.000000
vn 0.000000 0.000000 1.000000
vn 0.000000 0.000000 1.000000
vn 0.000000 0.000000 1.000000
vn 0.000000 0.000000 1.000000
vn 0.000000 0.000000 1.000000
vn 0.000000 0.000000 1.000000
vn 0.000000 0.000000 1.000000
vn 0.000000 0.000000 1.000000
vn 0.000000 0.000000 1.000000
vn 0.000000 0.000000 1.000000
vn 0.000000 0.000000 1.000000
vn 0.000000 0.000000 1.000000
vn 0.000000 0.000000 1.000000
vn 0.000000 0.000000 1.000000
vn 0.000000 0.000000 1.000000
vn 0.000000 0.000000 1.000000
vn 0.000000 0.000000 1.000000
vn 0.000000 0.000000 1.000000
vn 0.000000 0.000000 1.000000
vn 0.000000 0.000000 1.000000
vn 0.000000 0.000000 1.000000
vn 0.000000 0.000000 1.000000
vn 0.000000 0.000000 1.000000
vn 0.000000 0.000000 1.000000
vn 0.000000 0.000000 1.000000
vn 0.000000 0.000000 1.000000
vn 0.000000 0.000000 1.000000
vn 0.000000 0.000000 1.000000
vn 0.000000 0.000000 1.000000
vn 0.000000 0.000000 1.000000
vn 0.000000 0.000000 1.000000
vn 0.000000 0.000000 1.000000
vn 0.000000 0.000000 1.000000
vn 0.000000 0.000000 1.000000
vn 0.000000 0.000000 1.000000
vn 0.000000 0.000000 1.000000
vn 0.000000 0.000000 1.000000
vn 0.000000 0.000000 1.000000
vn 0.000000 0.000000 1.000000
vn 0.000000 0.000000 1.000000
vn 0.000000 0.000000 1.000000
vn 0.000000 0.000000 1.000000
vn 0.000000 0.000000 1.000000
vn 0.000000 0.000000 1.000000
vn 0.000000 0.000000 1.000000
vn 0.000000 0.000000 1.000000
vn 0.000000 0.000000 1.000000
vn 0.000000 0.000000 1.000000
vn 0.000000 0.000000 1.000000
vn 0.000000 0.000000 1.000000
vn 0.000000 0.000000 1.000000
vn 0.000000 0.000000 1.000000
vn 0.000000 0.000000 1.000000
vn 0.000000 0.000000 1.000000
vn 0.000000 0.000000 1.000000
vn 0.000000 0.000000 1.000000
vn 0.000000 0.000000 1.000000
vn 0.000000 0.000000 1.000000
vn -0.000006 0.000004 -1.000000
vn -0.000003 0.000004 -1.000000
vn 0.000005 -0.000004 -1.000000
vn 0.000007 -0.000008 -1.000000
vn -0.000000 -0.000000 -1.000000
vn -0.000005 -0.000007 -1.000000
vn -0.000000 -0.000002 -1.000000
vn 0.000007 0.000002 -1.000000
vn 0.000000 -0.000000 -1.000000
vn 0.000000 0.000000 -1.000000
vn 0.000000 0.000000 -1.000000
vn 0.000000 0.000000 -1.000000
vn -0.000004 -0.000001 -1.000000
vn -0.000005 0.000004 -1.000000
vn 0.000002 0.000006 -1.000000
vn 0.000000 0.000000 -1.000000
vn 0.000000 0.000000 -1.000000
vn 0.000000 0.000000 -1.000000
vn 0.000000 0.000000 -1.000000
vn 0.000000 0.000000 -1.000000
vn 0.000000 -0.000000 -1.000000
vn 0.000000 0.000000 -1.000000
vn 0.000000 0.000000 -1.000000
vn 0.000000 0.000000 -1.000000
vn 0.000000 0.000000 -1.000000
vn 0.000000 0.000000 -1.000000
vn 0.000000 0.000000 -1.000000
vn 0.000000 0.000000 -1.000000
vn -0.000000 0.000011 -1.000000
vn 0.000007 0.000006 -1.000000
vn 0.000015 -0.000002 -1.000000
vn 0.000000 0.000000 -1.000000
vn 0.000000 0.000000 -1.000000
vn 0.000000 0.000000 -1.000000
vn 0.000006 -0.000004 -1.000000
vn 0.000001 -0.000005 -1.000000
vn 0.000000 0.000000 -1.000000
vn 0.000000 0.000000 -1.000000
vn 0.000000 0.000000 -1.000000
vn 0.000000 0.000000 -1.000000
vn 0.000000 0.000000 -1.000000
vn 0.000000 0.000000 -1.000000
vn 0.000000 0.000000 -1.000000
vn 0.000000 0.000000 -1.000000
vn 0.000000 0.000000 -1.000000
vn 0.000000 0.000000 -1.000000
vn 0.000000 0.000000 -1.000000
vn -0.000002 0.000003 -1.000000
vn 0.000000 0.000000 -1.000000
vn 0.000000 0.000000 -1.000000
vn 0.000000 0.000000 -1.000000
vn 0.000000 0.000000 -1.000000
vn 0.000000 0.000000 -1.000000
vn -0.000000 -0.000000 -1.000000
vn 0.000000 0.000000 -1.000000
vn 0.000000 0.000000 -1.000000
vn 0.000000 0.000000 -1.000000
vn -0.000006 0.000001 -1.000000
vn -0.000001 -0.000004 -1.000000
vn -0.000024 -0.000019 -1.000000
vn -0.000002 -0.000005 -1.000000
vn 0.000005 0.000000 -1.000000
vn 0.000008 0.000000 -1.000000
vn 0.000032 0.000032 -1.000000
vn 0.000008 0.000004 -1.000000
vn 0.000000 0.000000 -1.000000
vn 0.000000 0.000000 -1.000000
vn 0.000000 0.000000 -1.000000
vn 0.000000 0.000000 -1.000000
vn 0.000000 0.000000 -1.000000
vn 0.000000 0.000000 -1.000000
vn 0.000000 0.000000 -1.000000
vn 0.000000 0.000000 -1.000000
vn -0.000000 0.000000 -1.000000
vn -0.000008 0.000000 -1.000000
vn 0.000000 0.000000 -1.000000
vn 0.000000 0.000000 -1.000000
vn 0.000000 0.000000 -1.000000
vn 0.000000 -0.000002 -1.000000
vn 0.000001 -0.000004 -1.000000
vn -0.000032 0.000005 -1.000000
vn -0.000001 0.000003 -1.000000
vn -0.000011 0.000002 -1.000000
vn 0.000065 -0.000002 -1.000000
vn 0.000010 0.000000 -1.000000
vn 0.000000 0.000000 -1.000000
vn 0.000000 0.000000 -1.000000
vn 0.000000 0.000000 -1.000000
vn 0.000000 0.000000 -1.000000
vn 0.000000 0.000000 -1.000000
vn -0.000006 0.000003 -1.000000
vn -0.000017 0.000020 -1.000000
vn -0.000008 0.000001 -1.000000
vn -0.000004 0.000001 -1.000000
vn 0.000000 0.000000 -1.000000
vn 0.000003 -0.000006 -1.000000
vn 0.000030 -0.000022 -1.000000
vn 0.000001 -0.000003 -1.000000
vn -0.913950 -0.405628 -0.012669
vn -0.736593 -0.676300 -0.006971
vn 0.687750 -0.724988 -0.037306
vn 0.957241 -0.285866 -0.044389
vn 0.867625 0.496102 -0.033321
vn 0.306066 0.951863 -0.016712
vn -0.331256 0.943504 -0.008381
vn -0.774304 0.632811 -0.002063
vn -0.985713 0.167905 -0.013344
vn -0.998971 0.042672 0.015376
vn -0.869902 -0.493204 0.004582
vn -0.730020 -0.683322 -0.011900
vn 0.464448 -0.884377 0.046532
vn 0.731495 -0.681280 0.027799
vn 0.999504 0.004536 0.031166
vn 0.761091 0.648467 0.015192
vn 0.303729 0.952694 0.011061
vn -0.306819 0.951728 0.008737
vn -0.807005 0.590409 0.012614
vn -0.066036 -0.997817 0.000850
vn -0.084234 -0.996389 -0.010622
vn -0.105727 -0.994101 -0.024198
vn -0.127232 -0.991152 -0.037809
vn -0.663508 -0.747247 -0.037135
vn -0.689142 -0.724125 -0.026969
vn -0.791436 -0.610979 0.018258
vn -0.765457 -0.643459 0.005936
vn 0.221299 -0.974773 -0.029051
vn 0.343369 -0.938790 -0.027778
vn -0.022771 -0.999434 0.024752
vn 0.341080 -0.939703 0.024960
vn 0.665545 -0.745295 0.039816
vn 0.975705 -0.217228 -0.028483
vn 0.989626 0.141606 -0.024249
vn 0.631805 0.774857 -0.020452
vn 0.306163 0.951798 -0.018571
vn 0.999780 -0.005675 0.020211
vn 0.853211 0.520713 0.029805
vn 0.466288 0.884358 0.022044
vn -0.449116 0.893470 0.002387
vn -0.465439 0.885073 -0.003357
vn -0.389850 0.920597 0.022763
vn -0.403740 0.914696 0.018053
vn -0.975583 0.218716 -0.020048
vn -0.979422 0.201349 -0.013832
vn -0.990949 0.133857 0.010133
vn -0.988272 0.152662 0.003486
vn -0.998457 -0.041066 -0.037383
vn -0.999387 -0.017347 -0.030407
vn -0.998220 0.059124 -0.007809
vn -0.995850 0.090997 0.001657
vn -0.514317 -0.857226 -0.025329
vn -0.100742 -0.994609 -0.024568
vn 0.588053 -0.808549 -0.021024
vn 0.851400 -0.523526 -0.032218
vn -0.790882 -0.610548 0.041682
vn -0.446475 -0.894334 0.028751
vn 0.356331 -0.934039 0.024477
vn 0.718158 -0.695697 0.015980
vn 0.958288 0.285101 -0.020025
vn 0.706573 0.707088 -0.027940
vn 0.290727 0.956539 -0.022582
vn 0.997696 0.063003 0.025167
vn 0.918866 0.393988 0.021420
vn 0.435134 0.900156 0.019424
vn 0.082934 0.996356 0.019917
vn -0.514382 0.857343 -0.019322
vn -0.527819 0.849228 -0.014825
vn -0.572648 0.819801 0.000565
vn -0.587487 0.809213 0.005799
vn -0.329584 -0.943573 -0.032323
vn 0.560383 -0.827637 -0.031427
vn 0.993130 -0.112587 -0.031892
vn 0.943018 0.329393 -0.047088
vn -0.747016 -0.664342 -0.024821
vn -0.800103 -0.599859 -0.002170
vn -0.563532 -0.826005 0.012146
vn 0.191686 -0.981067 0.027636
vn 0.872696 -0.487108 0.033561
vn 0.999667 0.005745 0.025163
vn 0.373637 0.927545 -0.007402
vn 0.328301 0.944364 -0.019879
vn 0.527311 0.848860 0.037134
vn 0.491636 0.870399 0.026457
vn -0.446350 0.894856 -0.002109
vn -0.465420 0.885050 -0.008391
vn -0.372074 0.927950 0.021701
vn -0.389158 0.921027 0.016313
vn -0.969055 0.246711 -0.008170
vn -0.972430 0.233170 -0.003470
vn -0.982988 0.183153 0.013749
vn -0.980511 0.196244 0.009264
vn -0.939595 -0.341784 -0.018590
vn -0.612475 -0.790136 -0.023658
vn -0.083066 -0.996339 -0.020223
vn 0.450437 -0.892548 -0.021560
vn 0.878106 -0.477891 -0.023452
vn 0.982169 0.187420 -0.014731
vn 0.639081 0.768752 -0.024412
vn -0.129085 0.991108 -0.032282
vn -0.760830 0.648918 -0.006552
vn -0.983669 0.179889 -0.005875
vn -0.998125 0.058723 0.017273
vn -0.805651 -0.591761 0.027310
vn -0.334189 -0.942239 0.022462
vn 0.205636 -0.978365 0.022700
vn 0.696244 -0.717408 0.023868
vn 0.965752 -0.259084 0.014107
vn 0.974728 0.223319 -0.005851
vn 0.756729 0.653717 0.003957
vn 0.302786 0.952875 0.018678
vn -0.310130 0.950553 0.016398
vn -0.788901 0.614505 0.004287
vn -0.797303 -0.603242 -0.020162
vn -0.341050 -0.940042 -0.002393
vn -0.090339 -0.995690 0.021000
vn -0.958390 0.282719 -0.039483
vn -0.998500 -0.050667 -0.020738
vn -0.962404 -0.269288 0.035525
vn -0.491625 -0.870537 0.021690
vn -0.109110 -0.993979 0.010075
vn -0.988760 0.148159 0.020085
vn 0.547775 -0.836566 -0.009961
vn 0.746242 -0.665551 -0.012826
vn 0.992143 -0.123700 -0.018704
vn 0.829862 0.557518 -0.022426
vn 0.240702 0.970335 -0.022624
vn -0.357068 0.934078 0.000259
vn -0.585516 0.810447 0.018618
vn 0.596540 -0.802456 0.014259
vn 0.824752 -0.565227 0.017389
vn 0.999187 -0.040179 0.003289
vn 0.887961 0.459851 0.007884
vn 0.407712 0.912832 0.022545
vn -0.279969 0.959801 0.019982
vn -0.586954 0.809427 0.017711
vn -0.977569 -0.209321 -0.023324
vn -0.835855 -0.548340 -0.025854
vn -0.985473 0.165512 -0.038067
vn -0.958163 -0.284191 0.034047
vn -0.986653 -0.159746 0.031578
vn -0.165663 -0.985985 -0.019741
vn 0.341752 -0.939066 -0.036879
vn 0.984122 -0.173113 -0.039175
vn 0.928577 0.369419 -0.035688
vn -0.371224 -0.928204 0.025108
vn -0.004495 -0.999698 0.024147
vn 0.713729 -0.700028 0.023508
vn 0.998655 -0.048310 0.018832
vn 0.963015 0.269413 -0.004366
vn 0.335570 0.942010 -0.002999
vn 0.306181 0.951902 -0.011618
vn 0.440391 0.897349 0.028646
vn 0.417135 0.908590 0.021497
vn -0.493891 0.869523 0.000674
vn -0.514279 0.857579 0.008695
vn -0.558416 0.829138 0.026490
vn -0.573963 0.818220 0.032909
vn -0.880795 -0.472354 -0.032882
vn -0.894702 -0.446018 -0.024010
vn -0.944957 -0.326863 0.014719
vn -0.932881 -0.360160 0.004116
vn -0.118853 -0.992471 -0.029595
vn 0.011128 -0.999573 -0.027016
vn -0.371223 -0.928204 0.025105
vn -0.006933 -0.999658 0.025203
vn 0.366960 -0.929386 0.039780
vn 0.860416 -0.507846 -0.042147
vn 0.888506 -0.458093 -0.026594
vn 0.948305 -0.316982 0.015497
vn 0.965586 -0.258073 0.032288
vn 0.871312 0.489446 -0.035459
vn 0.854888 0.518205 -0.025100
vn 0.801854 0.597500 0.004889
vn 0.777852 0.628214 0.017141
vn -0.040283 0.999178 -0.004517
vn -0.046239 0.998907 -0.006818
vn -0.019761 0.999799 0.003406
vn -0.025848 0.999665 0.001056
vn -0.848368 0.529280 -0.011588
vn -0.853876 0.520418 -0.007810
vn -0.873197 0.487330 0.006071
vn -0.867910 0.496717 0.002168
vn -0.931986 -0.361638 -0.024902
vn -0.644440 -0.763983 -0.032039
vn -0.998699 0.046764 -0.020338
vn -0.755259 -0.654424 0.036230
vn -0.371094 -0.927881 0.036425
vn -0.981841 -0.185700 0.038772
vn 0.293955 -0.955816 0.002683
vn 0.276503 -0.960965 0.009640
vn 0.367105 -0.929788 -0.026988
vn 0.347910 -0.937333 -0.019120
vn 0.900957 -0.433490 -0.019050
vn 0.999297 0.022352 -0.030112
vn 0.870834 0.489183 -0.048461
vn 0.930970 -0.365094 0.001458
vn 0.998148 -0.059851 0.010916
vn 0.954520 0.298145 0.000556
vn 0.055255 0.998053 -0.028925
vn -0.464754 0.885069 -0.025611
vn -0.784307 0.620039 -0.020350
vn 0.439945 0.896469 0.052836
vn -0.077504 0.995910 0.046445
vn -0.609413 0.791751 0.041787
vn -0.770080 -0.637940 -0.003115
vn -0.198516 -0.979980 -0.015167
vn 0.530990 -0.846812 -0.030954
vn 0.938061 -0.345499 -0.025944
vn 0.959989 0.279162 -0.022156
vn 0.678895 0.734013 -0.018034
vn 0.212136 0.977031 -0.020218
vn -0.345182 0.938252 -0.023061
vn -0.812008 0.583003 -0.027402
vn -0.997836 -0.061562 -0.023094
vn -0.827248 -0.561808 0.005726
vn -0.369286 -0.929302 0.005047
vn 0.301952 -0.952929 0.027426
vn 0.825811 -0.563398 0.024866
vn 0.998580 -0.050215 0.017791
vn 0.889712 0.456154 0.018319
vn 0.515265 0.856758 0.021642
vn -0.027717 0.999350 0.023061
vn -0.596614 0.801927 0.031068
vn -0.983289 0.179036 0.033006
f 6//6 2//2 3//3
f 18//18 28//28 25//25
f 18//18 17//17 28//28
f 17//17 27//27 28//28
f 17//17 16//16 27//27
f 16//16 26//26 27//27
f 15//15 21//21 26//26
f 26//26 21//21 31//31
f 11//11 25//25 22//22
f 11//11 18//18 25//25
f 21//21 30//30 31//31
f 21//21 20//20 30//30
f 20//20 19//19 29//29
f 20//20 29//29 30//30
f 19//19 10//10 9//9
f 16//16 15//15 26//26
f 14//14 13//13 24//24
f 19//19 9//9 29//29
f 6//6 1//1 2//2
f 7//7 6//6 3//3
f 8//8 7//7 4//4
f 8//8 4//4 5//5
f 2//2 14//14 24//24
f 7//7 3//3 4//4
f 10//10 8//8 5//5
f 10//10 5//5 9//9
f 12//12 22//22 23//23
f 12//12 11//11 22//22
f 13//13 23//23 24//24
f 1//1 14//14 2//2
f 13//13 12//12 23//23
f 111//111 109//109 112//112
f 111//111 110//110 109//109
f 111//111 73//73 67//67
f 111//111 67//67 110//110
f 117//117 74//74 73//73
f 113//113 112//112 108//108
f 107//107 101//101 94//94
f 116//116 74//74 117//117
f 117//117 73//73 111//111
f 107//107 94//94 40//40
f 110//110 59//59 98//98
f 107//107 106//106 102//102
f 106//106 103//103 102//102
f 106//106 105//105 103//103
f 110//110 67//67 59//59
f 110//110 98//98 104//104
f 105//105 104//104 103//103
f 110//110 104//104 105//105
f 40//40 94//94 93//93
f 114//114 113//113 108//108
f 107//107 102//102 101//101
f 114//114 108//108 107//107
f 35//35 125//125 124//124
f 118//118 116//116 115//115
f 33//33 34//34 123//123
f 33//33 123//123 122//122
f 34//34 124//124 123//123
f 34//34 35//35 124//124
f 33//33 122//122 32//32
f 35//35 83//83 126//126
f 35//35 126//126 125//125
f 40//40 93//93 92//92
f 35//35 36//36 83//83
f 119//119 118//118 115//115
f 32//32 120//120 107//107
f 32//32 121//121 120//120
f 32//32 107//107 40//40
f 120//120 114//114 107//107
f 120//120 119//119 114//114
f 126//126 83//83 127//127
f 127//127 83//83 74//74
f 127//127 74//74 116//116
f 119//119 115//115 114//114
f 127//127 116//116 118//118
f 32//32 122//122 121//121
f 101//101 95//95 94//94
f 112//112 109//109 108//108
f 40//40 92//92 39//39
f 73//73 68//68 67//67
f 73//73 72//72 68//68
f 72//72 69//69 68//68
f 72//72 71//71 69//69
f 47//47 41//41 70//70
f 71//71 70//70 69//69
f 77//77 70//70 71//71
f 67//67 60//60 59//59
f 67//67 66//66 60//60
f 66//66 61//61 60//60
f 66//66 65//65 61//61
f 70//70 41//41 64//64
f 64//64 41//41 54//54
f 64//64 54//54 63//63
f 64//64 63//63 62//62
f 65//65 64//64 61//61
f 64//64 62//62 61//61
f 48//48 43//43 49//49
f 48//48 42//42 43//43
f 49//49 43//43 44//44
f 48//48 41//41 42//42
f 50//50 49//49 44//44
f 56//56 41//41 48//48
f 78//78 47//47 79//79
f 55//55 41//41 56//56
f 54//54 41//41 55//55
f 57//57 63//63 53//53
f 101//101 100//100 95//95
f 63//63 54//54 53//53
f 58//58 57//57 52//52
f 58//58 52//52 51//51
f 51//51 50//50 44//44
f 79//79 47//47 70//70
f 57//57 53//53 52//52
f 80//80 79//79 77//77
f 79//79 70//70 77//77
f 100//100 96//96 95//95
f 100//100 99//99 96//96
f 98//98 59//59 58//58
f 99//99 97//97 96//96
f 98//98 58//58 99//99
f 39//39 92//92 91//91
f 39//39 91//91 38//38
f 91//91 90//90 38//38
f 90//90 37//37 38//38
f 90//90 89//89 37//37
f 97//97 58//58 51//51
f 97//97 51//51 88//88
f 88//88 51//51 37//37
f 89//89 88//88 37//37
f 99//99 58//58 97//97
f 86//86 47//47 87//87
f 87//87 47//47 78//78
f 81//81 80//80 76//76
f 86//86 46//46 47//47
f 81//81 76//76 75//75
f 80//80 77//77 76//76
f 45//45 46//46 86//86
f 82//82 81//81 75//75
f 45//45 86//86 85//85
f 83//83 82//82 74//74
f 36//36 45//45 85//85
f 36//36 84//84 83//83
f 36//36 85//85 84//84
f 82//82 75//75 74//74
f 37//37 51//51 44//44
f 210//210 208//208 209//209
f 206//206 198//198 199//199
f 209//209 208//208 202//202
f 198//198 192//192 197//197
f 215//215 202//202 163//163
f 210//210 207//207 208//208
f 206//206 192//192 198//198
f 211//211 207//207 210//210
f 215//215 209//209 202//202
f 206//206 135//135 192//192
f 204//204 200//200 203//203
f 205//205 199//199 200//200
f 205//205 200//200 204//204
f 202//202 157//157 163//163
f 202//202 201//201 157//157
f 202//202 203//203 201//201
f 203//203 200//200 201//201
f 135//135 191//191 192//192
f 135//135 190//190 191//191
f 211//211 206//206 207//207
f 206//206 199//199 205//205
f 212//212 206//206 211//211
f 131//131 224//224 225//225
f 217//217 213//213 214//214
f 197//197 192//192 193//193
f 129//129 221//221 222//222
f 129//129 222//222 130//130
f 129//129 128//128 221//221
f 130//130 222//222 223//223
f 130//130 223//223 131//131
f 128//128 220//220 221//221
f 131//131 225//225 181//181
f 131//131 223//223 224//224
f 131//131 181//181 132//132
f 128//128 206//206 218//218
f 128//128 219//219 220//220
f 128//128 218//218 219//219
f 128//128 135//135 206//206
f 218//218 206//206 212//212
f 225//225 172//172 181//181
f 225//225 215//215 172//172
f 218//218 212//212 213//213
f 225//225 214//214 215//215
f 218//218 213//213 217//217
f 225//225 216//216 214//214
f 217//217 214//214 216//216
f 135//135 189//189 190//190
f 215//215 163//163 172//172
f 197//197 194//194 196//196
f 171//171 164//164 165//165
f 171//171 165//165 170//170
f 170//170 165//165 166//166
f 142//142 167//167 160//160
f 142//142 160//160 137//137
f 170//170 166//166 169//169
f 169//169 166//166 167//167
f 168//168 169//169 167//167
f 163//163 157//157 162//162
f 162//162 157//157 158//158
f 162//162 158//158 161//161
f 160//160 151//151 137//137
f 160//160 159//159 151//151
f 161//161 158//158 159//159
f 156//156 148//148 155//155
f 155//155 148//148 149//149
f 155//155 149//149 154//154
f 145//145 139//139 138//138
f 144//144 145//145 138//138
f 143//143 144//144 138//138
f 143//143 138//138 137//137
f 145//145 136//136 139//139
f 146//146 136//136 145//145
f 171//171 163//163 164//164
f 152//152 143//143 137//137
f 151//151 152//152 137//137
f 148//148 136//136 147//147
f 153//153 154//154 150//150
f 153//153 150//150 151//151
f 154//154 149//149 150//150
f 159//159 153//153 151//151
f 147//147 136//136 146//146
f 172//172 163//163 171//171
f 160//160 161//161 159//159
f 177//177 142//142 176//176
f 132//132 183//183 184//184
f 133//133 136//136 148//148
f 186//186 187//187 133//133
f 186//186 133//133 148//148
f 186//186 148//148 156//156
f 188//188 133//133 187//187
f 132//132 182//182 183//183
f 188//188 134//134 133//133
f 135//135 134//134 189//189
f 195//195 186//186 156//156
f 195//195 194//194 186//186
f 196//196 194//194 195//195
f 201//201 195//195 156//156
f 177//177 167//167 142//142
f 189//189 134//134 188//188
f 132//132 181//181 182//182
f 201//201 156//156 157//157
f 177//177 174//174 168//168
f 177//177 168//168 167//167
f 175//175 176//176 142//142
f 132//132 184//184 140//140
f 178//178 174//174 177//177
f 175//175 142//142 141//141
f 179//179 174//174 178//178
f 185//185 175//175 141//141
f 140//140 185//185 141//141
f 180//180 173//173 179//179
f 140//140 184//184 185//185
f 180//180 172//172 173//173
f 181//181 172//172 180//180
f 197//197 193//193 194//194
f 179//179 173//173 174//174
f 231//231 243//243 242//242
f 231//231 241//241 230//230
f 231//231 242//242 241//241
f 232//232 243//243 231//231
f 229//229 240//240 239//239
f 233//233 244//244 243//243
f 234//234 244//244 233//233
f 234//234 235//235 244//244
f 233//233 243//243 232//232
f 230//230 241//241 240//240
f 229//229 239//239 228//228
f 228//228 239//239 238//238
f 227//227 237//237 226//226
f 226//226 237//237 236//236
f 226//226 236//236 235//235
f 226//226 235//235 234//234
f 230//230 240//240 229//229
f 246//246 247//247 245//245
f 246//246 248//248 247//247
f 249//249 252//252 250//250
f 250//250 252//252 251//251
f 253//253 256//256 255//255
f 254//254 256//256 253//253
f 254//254 257//257 256//256
f 259//259 262//262 258//258
f 259//259 263//263 262//262
f 260//260 263//263 259//259
f 260//260 264//264 263//263
f 261//261 264//264 260//260
f 265//265 268//268 267//267
f 266//266 268//268 265//265
f 270//270 272//272 269//269
f 270//270 271//271 272//272
f 274//274 275//275 276//276
f 273//273 275//275 274//274
f 277//277 282//282 281//281
f 278//278 282//282 277//277
f 278//278 283//283 282//282
f 279//279 283//283 278//278
f 279//279 284//284 283//283
f 280//280 284//284 279//279
f 287//287 291//291 290//290
f 287//287 290//290 286//286
f 286//286 290//290 289//289
f 286//286 289//289 285//285
f 285//285 289//289 288//288
f 293//293 294//294 292//292
f 293//293 295//295 294//294
f 299//299 305//305 298//298
f 298//298 305//305 304//304
f 298//298 304//304 297//297
f 297//297 304//304 303//303
f 296//296 303//303 302//302
f 296//296 302//302 300//300
f 300//300 302//302 301//301
f 297//297 303//303 296//296
f 306//306 309//309 308//308
f 307//307 309//309 306//306
f 310//310 313//313 312//312
f 311//311 313//313 310//310
f 315//315 316//316 317//317
f 315//315 317//317 314//314
f 324//324 334//334 323//323
f 324//324 336//336 335//335
f 325//325 336//336 324//324
f 325//325 337//337 336//336
f 324//324 335//335 334//334
f 326//326 338//338 337//337
f 326//326 328//328 338//338
f 327//327 328//328 326//326
f 326//326 337//337 325//325
f 323//323 334//334 333//333
f 318//318 329//329 328//328
f 322//322 333//333 332//332
f 322//322 332//332 321//321
f 321//321 332//332 331//331
f 321//321 331//331 320//320
f 320//320 331//331 330//330
f 320//320 330//330 319//319
f 319//319 330//330 329//329
f 319//319 329//329 318//318
f 318//318 328//328 327//327
f 323//323 333//333 322//322
f 343//343 344//344 347//347
f 343//343 347//347 342//342
f 341//341 345//345 340//340
f 339//339 344//344 343//343
f 340//340 345//345 339//339
f 339//339 345//345 344//344
f 341//341 346//346 345//345
f 354//354 361//361 353//353
f 352//352 360//360 359//359
f 353//353 360//360 352//352
f 352//352 359//359 351//351
f 353//353 361//361 360//360
f 351//351 358//358 350//350
f 350//350 358//358 357//357
f 350//350 357//357 356//356
f 350//350 356//356 349//349
f 349//349 355//355 348//348
f 349//349 356//356 355//355
f 351//351 359//359 358//358
f 362//362 365//365 366//366
f 363//363 365//365 362//362
f 362//362 366//366 364//364
f 369//369 375//375 374//374
f 369//369 374//374 373//373
f 370//370 375//375 369//369
f 368//368 373//373 372//372
f 368//368 372//372 367//367
f 369//369 373//373 368//368
f 367//367 372//372 371//371
f 376//376 379//379 378//378
f 377//377 379//379 376//376
f 381//381 382//382 380//380
f 381//381 383//383 382//382
f 384//384 387//387 385//385
f 385//385 387//387 386//386
f 388//388 391//391 390//390
f 389//389 391//391 388//388
f 389//389 392//392 391//391
f 394//394 395//395 393//393
f 394//394 396//396 395//395
f 398//398 399//399 397//397
f 398//398 400//400 399//399
f 401//401 404//404 403//403
f 402//402 404//404 401//401
f 406//406 407//407 408//408
f 406//406 408//408 405//405
f 409//409 412//412 414//414
f 410//410 412//412 409//409
f 410//410 413//413 412//412
f 409//409 414//414 411//411
f 415//415 418//418 417//417
f 416//416 418//418 415//415
f 421//421 424//424 420//420
f 420//420 424//424 423//423
f 420//420 423//423 422//422
f 420//420 422//422 419//419
f 425//425 429//429 428//428
f 426//426 430//430 429//429
f 427//427 430//430 426//426
f 426//426 429//429 425//425
f 436//436 447//447 446//446
f 437//437 447//447 436//436
f 437//437 448//448 447//447
f 439//439 450//450 449//449
f 438//438 449//449 448//448
f 439//439 449//449 438//438
f 436//436 446//446 435//435
f 438//438 448//448 437//437
f 435//435 446//446 445//445
f 432//432 441//441 431//431
f 434//434 445//445 444//444
f 434//434 444//444 433//433
f 433//433 444//444 443//443
f 433//433 443//443 432//432
f 432//432 443//443 442//442
f 432//432 442//442 441//441
f 431//431 441//441 440//440
f 440//440 441//441 450//450
f 435//435 445//445 434//434
f 440//440 450//450 439//439
