# OMX visual mesh; coordinates in metres
mtllib materials.mtl
usemtl black_fasteners
v 0.0010867 0.0000000 0.0048998
v 0.0009233 0.0005689 0.0048999
v 0.0005770 0.0009125 0.0049000
v 0.0001365 0.0010836 0.0048999
v -0.0004472 0.0009881 0.0049000
v -0.0009359 0.0005736 0.0048997
v -0.0010800 -0.0000397 0.0048999
v -0.0009360 -0.0005736 0.0048998
v -0.0003704 -0.0010275 0.0048999
v 0.0001823 -0.0010715 0.0048999
v 0.0006644 -0.0008542 0.0049000
v 0.0009426 -0.0005365 0.0049000
v 0.0010867 0.0000000 0.0048998
v 0.0009233 0.0005689 0.0048999
v 0.0005770 0.0009125 0.0049000
v 0.0001365 0.0010836 0.0048999
v -0.0004472 0.0009881 0.0049000
v -0.0009359 0.0005736 0.0048997
v -0.0010800 -0.0000397 0.0048999
v -0.0009360 -0.0005736 0.0048998
v -0.0003704 -0.0010275 0.0048999
v 0.0001823 -0.0010715 0.0048999
v 0.0006644 -0.0008542 0.0049000
v 0.0009426 -0.0005365 0.0049000
v 0.0012974 0.0001480 0.0051247
v -0.0012968 0.0001439 0.0051262
v -0.0012743 -0.0002807 0.0051244
v -0.0011292 -0.0006524 0.0051243
v -0.0009261 -0.0009159 0.0051259
v -0.0006808 -0.0011111 0.0051245
v -0.0002971 -0.0012736 0.0051266
v 0.0001286 -0.0012962 0.0051251
v 0.0004677 -0.0012174 0.0051243
v 0.0008052 -0.0010280 0.0051275
v 0.0010972 -0.0007061 0.0051250
v 0.0012692 -0.0003110 0.0051255
v 0.0012116 0.0004771 0.0051246
v 0.0010166 0.0008195 0.0051259
v 0.0007212 0.0010875 0.0051265
v 0.0003325 0.0012617 0.0051250
v -0.0000072 0.0013025 0.0051260
v -0.0003371 0.0012598 0.0051243
v -0.0006808 0.0011111 0.0051245
v -0.0009694 0.0008724 0.0051243
v -0.0011917 0.0005337 0.0051259
v 0.0012974 0.0001480 0.0051247
v -0.0012968 0.0001439 0.0051262
v -0.0012743 -0.0002807 0.0051244
v -0.0011292 -0.0006524 0.0051243
v -0.0009261 -0.0009159 0.0051259
v -0.0006808 -0.0011111 0.0051245
v -0.0002971 -0.0012736 0.0051266
v 0.0001286 -0.0012962 0.0051251
v 0.0004677 -0.0012174 0.0051243
v 0.0008052 -0.0010280 0.0051275
v 0.0010972 -0.0007061 0.0051250
v 0.0012692 -0.0003110 0.0051255
v 0.0012116 0.0004771 0.0051246
v 0.0010166 0.0008195 0.0051259
v 0.0007212 0.0010875 0.0051265
v 0.0003325 0.0012617 0.0051250
v -0.0000072 0.0013025 0.0051260
v -0.0003371 0.0012598 0.0051243
v -0.0006808 0.0011111 0.0051245
v -0.0009694 0.0008724 0.0051243
v -0.0011917 0.0005337 0.0051259
v -0.0012665 0.0003406 0.0129000
v -0.0009739 0.0008785 0.0129000
v -0.0005917 0.0011611 0.0129000
v -0.0001893 0.0012941 0.0129000
v 0.0003557 0.0012611 0.0129000
v 0.0008084 0.0010254 0.0129000
v 0.0011520 0.0006269 0.0129000
v 0.0013050 0.0000873 0.0129000
v 0.0012430 -0.0004036 0.0129000
v 0.0010255 -0.0008084 0.0129000
v 0.0006702 -0.0011231 0.0129000
v 0.0002917 -0.0012695 0.0129000
v -0.0001025 -0.0013028 0.0129000
v -0.0004866 -0.0012083 0.0129000
v -0.0008376 -0.0010045 0.0129000
v -0.0011393 -0.0006380 0.0129000
v -0.0012907 -0.0002044 0.0129000
v -0.0012665 0.0003406 0.0129000
v -0.0009739 0.0008785 0.0129000
v -0.0005917 0.0011611 0.0129000
v -0.0001893 0.0012941 0.0129000
v 0.0003557 0.0012611 0.0129000
v 0.0008084 0.0010254 0.0129000
v 0.0011520 0.0006269 0.0129000
v 0.0013050 0.0000873 0.0129000
v 0.0012430 -0.0004036 0.0129000
v 0.0010255 -0.0008084 0.0129000
v 0.0006702 -0.0011231 0.0129000
v 0.0002917 -0.0012695 0.0129000
v -0.0001025 -0.0013028 0.0129000
v -0.0004866 -0.0012083 0.0129000
v -0.0008376 -0.0010045 0.0129000
v -0.0011393 -0.0006380 0.0129000
v -0.0012907 -0.0002044 0.0129000
v -0.0023614 0.0004170 0.0129014
v -0.0023463 -0.0004895 0.0129025
v -0.0022128 -0.0009173 0.0129025
v -0.0019511 -0.0013848 0.0129007
v -0.0011856 -0.0020843 0.0129006
v -0.0004597 -0.0023587 0.0129029
v 0.0001545 -0.0023964 0.0129030
v 0.0008901 -0.0022103 0.0129000
v 0.0015450 -0.0018332 0.0129018
v 0.0018946 -0.0014604 0.0129014
v 0.0023346 -0.0005715 0.0129002
v 0.0023318 0.0005486 0.0129010
v 0.0021356 0.0010777 0.0129010
v 0.0019159 0.0014742 0.0129092
v 0.0012905 0.0020157 0.0129002
v 0.0005453 0.0023293 0.0129007
v -0.0002104 0.0023734 0.0129000
v -0.0008004 0.0022577 0.0129011
v -0.0014634 0.0018857 0.0129001
v -0.0020039 0.0013207 0.0129015
v -0.0023816 0.0004872 0.0140004
v -0.0022642 0.0009589 0.0139842
v -0.0019424 0.0014744 0.0139971
v -0.0014787 0.0020236 0.0139568
v -0.0011543 0.0020461 0.0140366
v -0.0006772 0.0023284 0.0140037
v 0.0002649 0.0024573 0.0139777
v 0.0008500 0.0022984 0.0139918
v 0.0015956 0.0018304 0.0140050
v 0.0021525 0.0011476 0.0139967
v 0.0023890 0.0007454 0.0139599
v 0.0024577 0.0002107 0.0139809
v 0.0027534 0.0001083 0.0134839
v 0.0026980 0.0001089 0.0137151
v 0.0025787 -0.0001011 0.0138847
v 0.0024850 0.0001058 0.0129558
v 0.0026446 0.0000609 0.0131084
v 0.0027212 -0.0001118 0.0132672
v -0.0025111 -0.0000223 0.0129697
v -0.0026509 -0.0000942 0.0131205
v -0.0027226 -0.0001026 0.0132711
v -0.0027522 0.0001082 0.0135023
v -0.0026847 0.0000926 0.0137450
v -0.0025305 0.0002796 0.0139252
v -0.0026279 0.0005192 0.0137580
v -0.0027179 0.0004307 0.0135078
v -0.0024925 0.0008651 0.0138234
v -0.0027114 0.0003031 0.0132811
v -0.0026417 0.0007303 0.0135861
v -0.0025720 0.0003599 0.0130463
v -0.0026468 0.0007564 0.0134072
v -0.0023294 0.0011792 0.0138530
v -0.0026065 0.0006506 0.0131719
v -0.0023966 0.0012260 0.0137375
v -0.0025021 0.0011377 0.0135403
v -0.0021076 0.0015256 0.0138662
v -0.0024841 0.0011629 0.0133305
v -0.0024318 0.0010254 0.0130984
v -0.0022665 0.0015275 0.0136273
v -0.0018468 0.0017283 0.0139325
v -0.0023361 0.0008483 0.0129544
v -0.0023418 0.0014345 0.0133648
v -0.0019867 0.0018319 0.0137051
v -0.0021592 0.0017091 0.0135067
v -0.0017267 0.0020239 0.0137899
v -0.0021693 0.0015742 0.0131625
v -0.0021614 0.0013586 0.0130044
v -0.0021403 0.0017111 0.0133320
v -0.0019476 0.0019476 0.0134840
v -0.0016902 0.0021580 0.0135915
v -0.0018534 0.0019830 0.0132435
v -0.0013138 0.0023302 0.0137656
v -0.0008803 0.0023852 0.0139285
v -0.0017024 0.0021595 0.0133885
v -0.0018929 0.0017794 0.0130496
v -0.0013225 0.0024125 0.0135358
v -0.0015408 0.0021276 0.0130826
v -0.0015291 0.0019572 0.0129487
v -0.0015149 0.0022351 0.0132089
v -0.0008043 0.0025362 0.0137892
v -0.0013412 0.0023920 0.0133413
v -0.0008646 0.0026003 0.0136102
v -0.0001747 0.0024927 0.0139613
v -0.0009691 0.0025701 0.0133595
v -0.0010348 0.0024466 0.0131204
v -0.0007415 0.0026530 0.0134679
v -0.0003436 0.0026632 0.0137509
v -0.0010707 0.0022809 0.0129796
v -0.0006191 0.0026285 0.0132023
v -0.0003171 0.0027290 0.0135554
v 0.0001258 0.0026464 0.0138016
v -0.0004289 0.0027082 0.0133482
v 0.0000999 0.0027183 0.0136599
v -0.0005531 0.0025135 0.0130235
v 0.0000357 0.0027579 0.0134520
v -0.0001015 0.0027236 0.0132693
v 0.0005782 0.0025547 0.0138486
v -0.0000944 0.0026263 0.0130895
v 0.0004283 0.0027037 0.0136021
v -0.0001738 0.0024851 0.0129561
v 0.0007292 0.0025910 0.0137309
v 0.0004334 0.0027046 0.0133049
v 0.0007489 0.0026478 0.0135324
v 0.0010840 0.0024021 0.0138287
v 0.0003099 0.0026175 0.0130980
v 0.0002514 0.0025016 0.0129728
v 0.0014178 0.0021136 0.0139219
v 0.0011377 0.0024970 0.0135815
v 0.0009489 0.0025721 0.0133353
v 0.0008195 0.0025530 0.0131669
v 0.0015530 0.0021746 0.0137703
v 0.0008173 0.0024564 0.0130364
v 0.0013567 0.0023964 0.0134437
v 0.0015213 0.0022709 0.0136176
v 0.0018624 0.0018300 0.0138582
v 0.0013266 0.0023796 0.0132691
v 0.0009421 0.0023064 0.0129580
v 0.0012801 0.0023193 0.0131179
v 0.0018268 0.0019708 0.0137395
v 0.0017055 0.0021643 0.0134840
v 0.0020019 0.0014628 0.0139715
v 0.0012822 0.0021636 0.0129735
v 0.0017066 0.0021453 0.0133368
v 0.0020198 0.0018743 0.0135081
v 0.0015837 0.0021141 0.0131012
v 0.0021411 0.0016862 0.0136461
v 0.0021938 0.0014513 0.0138320
v 0.0019158 0.0019285 0.0132415
v 0.0023826 0.0011078 0.0138319
v 0.0018273 0.0017927 0.0130082
v 0.0022727 0.0015544 0.0133957
v 0.0024334 0.0012430 0.0136395
v 0.0021171 0.0016070 0.0131279
v 0.0025037 0.0011522 0.0134792
v 0.0023740 0.0013177 0.0132339
v 0.0025520 0.0007288 0.0137942
v 0.0026046 0.0008461 0.0135949
v 0.0022365 0.0012695 0.0130240
v 0.0026853 0.0005462 0.0136088
v 0.0025998 0.0003244 0.0138409
v 0.0025695 0.0008608 0.0132228
v 0.0026768 0.0006466 0.0133879
v 0.0024145 0.0009038 0.0130292
v 0.0025255 0.0005465 0.0130344
v 0.0026843 0.0003116 0.0132086
v 0.0024292 -0.0002924 0.0139896
v 0.0022993 -0.0008556 0.0139905
v 0.0019836 -0.0014171 0.0139972
v 0.0015658 -0.0018812 0.0139915
v 0.0010344 -0.0022180 0.0139923
v 0.0003254 -0.0024278 0.0139905
v -0.0001088 -0.0024459 0.0139885
v -0.0006956 -0.0023441 0.0139940
v -0.0013029 -0.0020340 0.0140101
v -0.0018034 -0.0016893 0.0139782
v -0.0021341 -0.0011532 0.0140030
v -0.0024814 -0.0002699 0.0139643
v 0.0026678 -0.0003286 0.0137379
v 0.0025228 -0.0005883 0.0138790
v 0.0027194 -0.0003205 0.0136023
v 0.0027341 -0.0003228 0.0134122
v 0.0025679 -0.0007420 0.0137637
v 0.0026338 -0.0007307 0.0136177
v 0.0023333 -0.0011675 0.0138598
v 0.0026065 -0.0003066 0.0130837
v 0.0026555 -0.0007301 0.0134220
v 0.0026611 -0.0005138 0.0132362
v 0.0023967 -0.0012275 0.0137345
v 0.0024648 -0.0004812 0.0129684
v 0.0025398 -0.0010591 0.0135110
v 0.0025132 -0.0008234 0.0131039
v 0.0025572 -0.0009421 0.0132727
v 0.0023889 -0.0013522 0.0135641
v 0.0020557 -0.0015969 0.0138632
v 0.0024057 -0.0013323 0.0133887
v 0.0021352 -0.0017043 0.0136385
v 0.0022989 -0.0014004 0.0131810
v 0.0016695 -0.0019504 0.0139026
v 0.0022367 -0.0011814 0.0129822
v 0.0021738 -0.0016832 0.0133757
v 0.0018020 -0.0019743 0.0137637
v 0.0018618 -0.0020224 0.0135622
v 0.0020152 -0.0018606 0.0133215
v 0.0014275 -0.0022728 0.0137516
v 0.0012583 -0.0022377 0.0138988
v 0.0019582 -0.0016434 0.0130080
v 0.0018721 -0.0018932 0.0131351
v 0.0015237 -0.0022987 0.0134970
v 0.0016840 -0.0021350 0.0132494
v 0.0008980 -0.0024740 0.0138276
v 0.0011465 -0.0024707 0.0136518
v 0.0006845 -0.0024113 0.0139495
v 0.0015961 -0.0020404 0.0130454
v 0.0013319 -0.0023695 0.0132525
v 0.0011362 -0.0025103 0.0134549
v 0.0004104 -0.0025912 0.0138430
v 0.0012476 -0.0021450 0.0129482
v 0.0012777 -0.0022942 0.0130860
v 0.0007468 -0.0026380 0.0136030
v 0.0009517 -0.0025339 0.0132236
v 0.0003083 -0.0026814 0.0137166
v 0.0007412 -0.0026451 0.0133631
v 0.0008178 -0.0025007 0.0130878
v 0.0003257 -0.0027358 0.0135124
v -0.0000980 -0.0026104 0.0138537
v 0.0006673 -0.0024165 0.0129658
v 0.0004490 -0.0026952 0.0132845
v -0.0001249 -0.0027360 0.0136126
v -0.0006042 -0.0024895 0.0139072
v 0.0001881 -0.0026264 0.0130866
v -0.0005125 -0.0026083 0.0137876
v -0.0001059 -0.0027461 0.0133709
v -0.0005084 -0.0027023 0.0135649
v -0.0000700 -0.0026884 0.0131848
v -0.0009261 -0.0025220 0.0137401
v -0.0011230 -0.0023571 0.0138576
v -0.0004330 -0.0026904 0.0132758
v -0.0003824 -0.0025708 0.0130484
v -0.0009421 -0.0025766 0.0135740
v -0.0007685 -0.0026371 0.0133583
v -0.0008471 -0.0025581 0.0131900
v -0.0014771 -0.0021815 0.0138302
v -0.0013208 -0.0023882 0.0136324
v -0.0011475 -0.0024925 0.0133412
v -0.0007117 -0.0024518 0.0130082
v -0.0013577 -0.0023959 0.0134761
v -0.0017746 -0.0019134 0.0138546
v -0.0010779 -0.0023381 0.0130258
v -0.0017472 -0.0021222 0.0135609
v -0.0019009 -0.0019115 0.0137255
v -0.0013410 -0.0023347 0.0131938
v -0.0016335 -0.0022051 0.0133370
v -0.0020504 -0.0016163 0.0138556
v -0.0015288 -0.0021154 0.0130637
v -0.0016669 -0.0021139 0.0131905
v -0.0015305 -0.0019821 0.0129609
v -0.0020017 -0.0018894 0.0134122
v -0.0021640 -0.0017078 0.0134983
v -0.0022320 -0.0013190 0.0138761
v -0.0022588 -0.0015092 0.0136704
v -0.0020010 -0.0018353 0.0132454
v -0.0019349 -0.0017626 0.0130740
v -0.0024004 -0.0011193 0.0138022
v -0.0023842 -0.0007506 0.0139619
v -0.0024008 -0.0013497 0.0134808
v -0.0022739 -0.0014854 0.0132406
v -0.0025090 -0.0011027 0.0136035
v -0.0020875 -0.0014936 0.0130146
v -0.0025946 -0.0006397 0.0137711
v -0.0024807 -0.0011496 0.0132984
v -0.0026287 -0.0007379 0.0136280
v -0.0023306 -0.0011348 0.0130389
v -0.0026501 -0.0007561 0.0134383
v -0.0025330 -0.0008987 0.0131814
v -0.0027168 -0.0003468 0.0135984
v -0.0026540 -0.0002174 0.0137809
v -0.0026639 -0.0005727 0.0132712
v -0.0027340 -0.0003143 0.0133998
v -0.0024929 -0.0005979 0.0130141
v -0.0026005 -0.0005136 0.0131211
v 0.0015521 0.0000295 0.0143005
v 0.0015304 -0.0002690 0.0143038
v 0.0007427 -0.0002845 0.0144493
v 0.0004454 -0.0004650 0.0144678
v 0.0002821 -0.0007552 0.0144478
v 0.0002694 -0.0015260 0.0143062
v -0.0002694 -0.0015243 0.0143073
v -0.0000144 -0.0015545 0.0143010
v -0.0002836 -0.0007477 0.0144487
v -0.0004199 -0.0004992 0.0144655
v -0.0006900 -0.0002957 0.0144557
v -0.0015281 -0.0002691 0.0143034
v -0.0018549 -0.0000000 0.0142148
v -0.0017151 -0.0006968 0.0142167
v -0.0014511 -0.0013548 0.0141719
v -0.0009577 -0.0009595 0.0143550
v -0.0002976 -0.0018647 0.0142100
v 0.0007261 -0.0010601 0.0143690
v 0.0008650 -0.0018720 0.0141454
v 0.0011516 -0.0005368 0.0143687
v 0.0014320 -0.0013264 0.0141842
v 0.0016483 -0.0006718 0.0142387
v 0.0021351 -0.0001240 0.0141187
v 0.0015247 0.0002691 0.0143070
v -0.0015426 0.0002665 0.0143014
v -0.0002733 0.0008275 0.0144381
v -0.0003464 0.0006019 0.0144611
v -0.0005016 0.0004179 0.0144654
v -0.0007477 0.0002838 0.0144487
v -0.0002694 0.0015254 0.0143071
v 0.0000140 0.0015545 0.0143009
v 0.0002768 0.0007949 0.0144426
v 0.0004150 0.0004920 0.0144689
v 0.0007540 0.0002813 0.0144483
v 0.0021506 0.0002822 0.0141052
v 0.0016483 0.0006719 0.0142387
v 0.0013591 0.0013174 0.0142051
v 0.0008649 0.0018719 0.0141454
v -0.0002976 0.0018648 0.0142100
v -0.0014511 0.0013548 0.0141720
v 0.0002694 0.0015256 0.0143063
v -0.0017150 0.0006970 0.0142166
v -0.0009578 0.0009595 0.0143550
v 0.0007349 0.0010601 0.0143649
v 0.0011441 0.0005405 0.0143699
v 0.0015521 0.0000295 0.0143005
v 0.0015304 -0.0002690 0.0143038
v 0.0015247 0.0002691 0.0143070
v 0.0015456 -0.0002602 0.0137000
v 0.0015278 0.0002691 0.0137000
v 0.0015247 0.0002691 0.0143070
v 0.0015278 0.0002691 0.0137000
v 0.0002768 0.0007949 0.0144426
v 0.0004150 0.0004920 0.0144689
v 0.0007540 0.0002813 0.0144483
v 0.0002694 0.0015256 0.0143063
v 0.0002692 0.0015264 0.0137000
v 0.0002737 0.0008138 0.0137000
v 0.0003859 0.0005345 0.0137000
v 0.0007145 0.0002868 0.0137000
v 0.0015456 -0.0002602 0.0137000
v 0.0015278 0.0002691 0.0137000
v -0.0002692 -0.0015264 0.0137000
v -0.0002824 -0.0007435 0.0137000
v -0.0004377 -0.0004790 0.0137000
v -0.0007135 -0.0002877 0.0137000
v -0.0015429 -0.0002623 0.0137000
v -0.0015285 0.0002691 0.0137000
v -0.0007437 0.0002823 0.0137000
v -0.0004569 0.0004562 0.0137000
v -0.0002824 0.0007438 0.0137000
v -0.0002692 0.0015264 0.0137000
v -0.0000154 0.0015545 0.0137000
v 0.0002692 0.0015264 0.0137000
v 0.0002737 0.0008138 0.0137000
v 0.0003859 0.0005345 0.0137000
v 0.0007145 0.0002868 0.0137000
v 0.0008367 -0.0002719 0.0137000
v 0.0005968 -0.0003486 0.0137000
v 0.0004048 -0.0005175 0.0137000
v 0.0002784 -0.0007704 0.0137000
v 0.0002692 -0.0015264 0.0137000
v 0.0000154 -0.0015545 0.0137000
v 0.0015304 -0.0002690 0.0143038
v 0.0007427 -0.0002845 0.0144493
v 0.0004454 -0.0004650 0.0144678
v 0.0002821 -0.0007552 0.0144478
v 0.0002694 -0.0015260 0.0143062
v 0.0015456 -0.0002602 0.0137000
v 0.0008367 -0.0002719 0.0137000
v 0.0005968 -0.0003486 0.0137000
v 0.0004048 -0.0005175 0.0137000
v 0.0002784 -0.0007704 0.0137000
v 0.0002692 -0.0015264 0.0137000
v 0.0002694 -0.0015260 0.0143062
v -0.0002694 -0.0015243 0.0143073
v -0.0000144 -0.0015545 0.0143010
v -0.0002692 -0.0015264 0.0137000
v 0.0002692 -0.0015264 0.0137000
v 0.0000154 -0.0015545 0.0137000
v -0.0002694 -0.0015243 0.0143073
v -0.0002836 -0.0007477 0.0144487
v -0.0004199 -0.0004992 0.0144655
v -0.0006900 -0.0002957 0.0144557
v -0.0015281 -0.0002691 0.0143034
v -0.0002692 -0.0015264 0.0137000
v -0.0002824 -0.0007435 0.0137000
v -0.0004377 -0.0004790 0.0137000
v -0.0007135 -0.0002877 0.0137000
v -0.0015429 -0.0002623 0.0137000
v -0.0015281 -0.0002691 0.0143034
v -0.0015426 0.0002665 0.0143014
v -0.0015429 -0.0002623 0.0137000
v -0.0015285 0.0002691 0.0137000
v -0.0015426 0.0002665 0.0143014
v -0.0002733 0.0008275 0.0144381
v -0.0003464 0.0006019 0.0144611
v -0.0005016 0.0004179 0.0144654
v -0.0007477 0.0002838 0.0144487
v -0.0002694 0.0015254 0.0143071
v -0.0015285 0.0002691 0.0137000
v -0.0007437 0.0002823 0.0137000
v -0.0004569 0.0004562 0.0137000
v -0.0002824 0.0007438 0.0137000
v -0.0002692 0.0015264 0.0137000
v -0.0002694 0.0015254 0.0143071
v 0.0000140 0.0015545 0.0143009
v 0.0002694 0.0015256 0.0143063
v -0.0002692 0.0015264 0.0137000
v -0.0000154 0.0015545 0.0137000
v 0.0002692 0.0015264 0.0137000
vn -0.000827 -0.000028 -1.000000
vn 0.000007 0.000024 -1.000000
vn 0.000611 0.000790 -1.000000
vn -0.000021 -0.000012 -1.000000
vn 0.000098 -0.000031 -1.000000
vn 0.000257 -0.000030 -1.000000
vn -0.000210 -0.000151 -1.000000
vn 0.000560 0.000402 -1.000000
vn 0.000107 0.000052 -1.000000
vn 0.000019 0.000233 -1.000000
vn 0.000005 0.000009 -1.000000
vn -0.000167 -0.000016 -1.000000
vn 0.688757 0.004603 -0.724977
vn 0.589536 0.354595 -0.725747
vn 0.374952 0.585779 -0.718522
vn 0.078697 0.690889 -0.718665
vn -0.288909 0.619918 -0.729543
vn -0.591424 0.363242 -0.719912
vn -0.684850 -0.013484 -0.728559
vn -0.583565 -0.370524 -0.722609
vn -0.243810 -0.645628 -0.723686
vn 0.110380 -0.683455 -0.721600
vn 0.425472 -0.552243 -0.716939
vn 0.607346 -0.338974 -0.718489
vn 0.695938 0.091366 -0.712266
vn -0.686375 0.093221 -0.721249
vn -0.685662 -0.151587 -0.711962
vn -0.641657 -0.358421 -0.678093
vn -0.462194 -0.498028 -0.733720
vn -0.376785 -0.568022 -0.731699
vn -0.139628 -0.696978 -0.703367
vn 0.046982 -0.712675 -0.699920
vn 0.262788 -0.648030 -0.714842
vn 0.445455 -0.557076 -0.700882
vn 0.594892 -0.395572 -0.699733
vn 0.679026 -0.168979 -0.714402
vn 0.647737 0.240904 -0.722774
vn 0.539713 0.453540 -0.709233
vn 0.392477 0.589841 -0.705727
vn 0.203894 0.684836 -0.699591
vn -0.023818 0.710592 -0.703201
vn -0.164848 0.673940 -0.720160
vn -0.384272 0.577161 -0.720569
vn -0.493698 0.486430 -0.720866
vn -0.661517 0.265252 -0.701454
vn 0.995180 0.098061 0.000537
vn -0.994532 0.104414 -0.002128
vn -0.977360 -0.211581 -0.001040
vn -0.870626 -0.491946 -0.000219
vn -0.713070 -0.701093 -0.000829
vn -0.511029 -0.859562 -0.001749
vn -0.225109 -0.974331 -0.002053
vn 0.088194 -0.996102 -0.001873
vn 0.361059 -0.932541 -0.001744
vn 0.622985 -0.782231 -0.002030
vn 0.840047 -0.542510 -0.001783
vn 0.972328 -0.233614 -0.001511
vn 0.927008 0.375041 -0.000121
vn 0.780073 0.625685 -0.002167
vn 0.547065 0.837089 -0.001334
vn 0.266872 0.963732 -0.000714
vn -0.004249 0.999990 -0.001039
vn -0.265699 0.964055 -0.001601
vn -0.522589 0.852584 -0.001121
vn -0.744932 0.667140 -0.000955
vn -0.911842 0.410537 -0.001767
vn -0.963456 0.267850 0.003074
vn -0.753966 0.656909 0.002477
vn -0.460059 0.887887 0.001683
vn -0.129220 0.991614 0.002117
vn 0.267118 0.963661 0.002154
vn 0.620387 0.784292 0.002416
vn 0.880761 0.473556 0.002069
vn 0.997150 0.075434 0.001491
vn 0.952524 -0.304457 0.001851
vn 0.784239 -0.620456 0.002086
vn 0.519976 -0.854178 0.002097
vn 0.224628 -0.974443 0.001756
vn -0.078248 -0.996932 0.001944
vn -0.374523 -0.927215 0.001993
vn -0.647317 -0.762219 0.001626
vn -0.871606 -0.490206 0.001367
vn -0.989310 -0.145815 0.001968
vn -0.001242 0.000346 -0.999999
vn -0.000828 0.000108 -1.000000
vn 0.000044 0.000625 -1.000000
vn -0.000395 0.000341 -1.000000
vn 0.000114 0.000283 -1.000000
vn 0.004318 0.000924 -0.999990
vn 0.002135 0.004169 -0.999989
vn 0.000606 0.000308 -1.000000
vn 0.000408 -0.000514 -1.000000
vn 0.001009 -0.000930 -0.999999
vn 0.000888 -0.000377 -1.000000
vn -0.000613 -0.001518 -0.999999
vn -0.000184 -0.002639 -0.999997
vn 0.000129 -0.001657 -0.999999
vn -0.000395 -0.000397 -1.000000
vn -0.001495 -0.000178 -0.999999
vn -0.001845 -0.000575 -0.999998
vn -0.316247 0.058383 -0.946879
vn -0.301087 -0.059470 -0.951740
vn -0.293223 -0.121176 -0.948334
vn -0.247078 -0.177417 -0.952615
vn -0.150450 -0.279510 -0.948282
vn -0.058349 -0.320187 -0.945556
vn 0.016285 -0.342490 -0.939380
vn 0.103155 -0.256002 -0.961157
vn 0.213208 -0.246338 -0.945442
vn 0.238263 -0.179775 -0.954417
vn 0.302827 -0.087478 -0.949022
vn 0.305905 0.073281 -0.949238
vn 0.274470 0.137266 -0.951748
vn 0.288052 0.221270 -0.931700
vn 0.170546 0.238360 -0.956085
vn 0.071185 0.302053 -0.950630
vn -0.025773 0.254771 -0.966658
vn -0.101460 0.298271 -0.949073
vn -0.152560 0.199796 -0.967888
vn -0.258074 0.179522 -0.949300
vn -0.481202 0.107867 0.869948
vn -0.480577 0.204042 0.852885
vn -0.395900 0.289188 0.871570
vn -0.349014 0.477172 0.806533
vn -0.199816 0.356986 0.912488
vn -0.121384 0.458796 0.880211
vn 0.057195 0.530659 0.845653
vn 0.174977 0.486498 0.855981
vn 0.324650 0.369570 0.870644
vn 0.447213 0.237403 0.862346
vn 0.548147 0.171293 0.818654
vn 0.537175 0.049088 0.842041
vn 0.998619 0.045870 0.025623
vn 0.911229 0.034349 0.410466
vn 0.724089 -0.028116 0.689133
vn 0.541721 0.014824 -0.840427
vn 0.807861 0.011568 -0.589259
vn 0.950366 -0.035396 -0.309113
vn -0.585858 -0.011235 -0.810336
vn -0.827205 -0.033934 -0.560875
vn -0.955109 -0.030310 -0.294701
vn -0.996646 0.037798 0.072583
vn -0.888507 0.031015 0.457815
vn -0.654076 0.064876 0.753642
vn -0.862590 0.164684 0.478348
vn -0.984727 0.149708 0.088889
vn -0.766980 0.258464 0.587314
vn -0.949159 0.103250 -0.297382
vn -0.935568 0.270532 0.226991
vn -0.737825 0.102123 -0.667222
vn -0.953979 0.280124 -0.107024
vn -0.649608 0.340783 0.679614
vn -0.855552 0.222010 -0.467699
vn -0.804504 0.411543 0.428259
vn -0.904654 0.403102 0.138238
vn -0.619667 0.441290 0.649058
vn -0.881148 0.413742 -0.228902
vn -0.750613 0.318928 -0.578675
vn -0.800274 0.531993 0.276668
vn -0.465308 0.448966 0.762836
vn -0.523499 0.185563 -0.831574
vn -0.846067 0.511394 -0.150490
vn -0.672157 0.617244 0.408920
vn -0.780005 0.620259 0.082889
vn -0.546216 0.641237 0.538946
vn -0.712561 0.508143 -0.483784
vn -0.580483 0.359566 -0.730583
vn -0.756257 0.616409 -0.219352
vn -0.705995 0.707255 0.036897
vn -0.593443 0.774021 0.220718
vn -0.642548 0.677806 -0.357367
vn -0.421568 0.750664 0.508709
vn -0.236890 0.611068 0.755301
vn -0.609029 0.784251 -0.118466
vn -0.535623 0.501616 -0.679331
vn -0.473936 0.870204 0.134648
vn -0.459845 0.636953 -0.618735
vn -0.352983 0.447152 -0.821863
vn -0.508420 0.764850 -0.395617
vn -0.239688 0.802575 0.546281
vn -0.474418 0.855676 -0.206750
vn -0.318670 0.916119 0.243259
vn -0.045667 0.582273 0.811710
vn -0.356804 0.919282 -0.166167
vn -0.330037 0.774622 -0.539478
vn -0.253269 0.967347 -0.009689
vn -0.121798 0.860030 0.495494
vn -0.272539 0.549909 -0.789508
vn -0.210079 0.887100 -0.411000
vn -0.117557 0.982366 0.145389
vn 0.045728 0.815342 0.577172
vn -0.152749 0.972892 -0.173636
vn 0.036835 0.946672 0.320087
vn -0.148397 0.681630 -0.716490
vn 0.018424 0.999779 -0.010102
vn -0.038542 0.946255 -0.321118
vn 0.157382 0.755382 0.636105
vn -0.030223 0.800512 -0.598555
vn 0.148122 0.961693 0.230666
vn -0.035944 0.577535 -0.815574
vn 0.251290 0.868858 0.426543
vn 0.154685 0.958467 -0.239611
vn 0.270496 0.957451 0.100601
vn 0.338087 0.731706 0.591864
vn 0.096388 0.813325 -0.573770
vn 0.054300 0.586782 -0.807923
vn 0.350756 0.541220 0.764232
vn 0.405145 0.890902 0.205309
vn 0.346888 0.918223 -0.191142
vn 0.266685 0.847225 -0.459444
vn 0.498761 0.703618 0.506121
vn 0.221406 0.684056 -0.695016
vn 0.493146 0.869618 -0.023888
vn 0.524591 0.809662 0.263158
vn 0.549029 0.521193 0.653395
vn 0.461782 0.831132 -0.309800
vn 0.216445 0.509055 -0.833075
vn 0.388964 0.728090 -0.564439
vn 0.615469 0.668262 0.417880
vn 0.625252 0.777675 0.065442
vn 0.423814 0.314852 0.849264
vn 0.319140 0.538086 -0.780137
vn 0.602218 0.764879 -0.228676
vn 0.727667 0.682552 0.067999
vn 0.490498 0.652987 -0.577078
vn 0.752561 0.579955 0.311937
vn 0.669463 0.439465 0.598907
vn 0.664433 0.659443 -0.351658
vn 0.718968 0.329416 0.612022
vn 0.480734 0.478160 -0.735022
vn 0.817661 0.567556 -0.096493
vn 0.843814 0.445032 0.299875
vn 0.669587 0.507587 -0.542226
vn 0.911224 0.411812 -0.009006
vn 0.817291 0.440870 -0.371037
vn 0.806664 0.232264 0.543458
vn 0.923308 0.310727 0.225725
vn 0.616664 0.347797 -0.706231
vn 0.950809 0.181050 0.251361
vn 0.779711 0.108367 0.616690
vn 0.873691 0.302977 -0.380618
vn 0.965720 0.228210 -0.123710
vn 0.662740 0.256177 -0.703668
vn 0.712603 0.153729 -0.684518
vn 0.915811 0.112670 -0.385481
vn 0.506066 -0.066628 0.859917
vn 0.484547 -0.182528 0.855510
vn 0.410874 -0.287550 0.865158
vn 0.310837 -0.376849 0.872563
vn 0.211074 -0.468818 0.857705
vn 0.062187 -0.500894 0.863271
vn -0.022180 -0.507710 0.861242
vn -0.153920 -0.470178 0.869046
vn -0.259667 -0.406452 0.875997
vn -0.386503 -0.364866 0.847047
vn -0.425171 -0.230554 0.875257
vn -0.564130 -0.063888 0.823211
vn 0.873640 -0.107685 0.474508
vn 0.704269 -0.160213 0.691619
vn 0.969850 -0.114308 0.215229
vn 0.989532 -0.121663 -0.077618
vn 0.829291 -0.256786 0.496324
vn 0.932970 -0.258405 0.250586
vn 0.658566 -0.331681 0.675484
vn 0.779142 -0.077182 -0.622078
vn 0.963988 -0.257803 -0.065303
vn 0.913127 -0.178224 -0.366654
vn 0.805181 -0.410722 0.427774
vn 0.613753 -0.110694 -0.781700
vn 0.920693 -0.379932 0.089313
vn 0.764498 -0.254883 -0.592096
vn 0.891244 -0.343733 -0.295858
vn 0.850467 -0.497786 0.170045
vn 0.598536 -0.466909 0.650962
vn 0.867958 -0.479511 -0.129296
vn 0.749490 -0.597337 0.285399
vn 0.755824 -0.464122 -0.461866
vn 0.458912 -0.531912 0.711666
vn 0.553924 -0.287065 -0.781512
vn 0.787925 -0.603582 -0.121912
vn 0.589279 -0.644477 0.487236
vn 0.664171 -0.733450 0.144669
vn 0.721426 -0.659971 -0.209721
vn 0.476794 -0.745655 0.465474
vn 0.342330 -0.609093 0.715413
vn 0.530410 -0.439779 -0.724748
vn 0.598068 -0.595631 -0.536227
vn 0.557814 -0.827964 0.057618
vn 0.582581 -0.745242 -0.324366
vn 0.275083 -0.755451 0.594663
vn 0.398350 -0.857679 0.325122
vn 0.164372 -0.568026 0.806430
vn 0.451438 -0.580247 -0.677877
vn 0.465520 -0.822700 -0.326276
vn 0.411094 -0.911291 -0.023444
vn 0.131235 -0.769532 0.624978
vn 0.272060 -0.476974 -0.835751
vn 0.380445 -0.694014 -0.611233
vn 0.262489 -0.933495 0.244307
vn 0.336697 -0.865689 -0.370429
vn 0.097654 -0.907595 0.408333
vn 0.269377 -0.951120 -0.151019
vn 0.245645 -0.757732 -0.604567
vn 0.111975 -0.991010 0.073221
vn -0.027951 -0.773625 0.633027
vn 0.147149 -0.569009 -0.809058
vn 0.155966 -0.941428 -0.298978
vn -0.043633 -0.965828 0.255486
vn -0.162438 -0.672225 0.722307
vn 0.060033 -0.782956 -0.619173
vn -0.161172 -0.841027 0.516427
vn -0.033740 -0.990373 -0.134248
vn -0.182116 -0.969986 0.161122
vn -0.023375 -0.896688 -0.442045
vn -0.298057 -0.834030 0.464281
vn -0.328418 -0.679950 0.655599
vn -0.154090 -0.943275 -0.294088
vn -0.102681 -0.738079 -0.666855
vn -0.338831 -0.925805 0.167567
vn -0.272016 -0.951486 -0.143813
vn -0.281603 -0.844550 -0.455450
vn -0.456530 -0.658559 0.598231
vn -0.462195 -0.832929 0.304309
vn -0.407854 -0.893501 -0.187913
vn -0.199204 -0.634361 -0.746929
vn -0.497766 -0.867223 0.012379
vn -0.491060 -0.558811 0.668274
vn -0.288113 -0.642806 -0.709783
vn -0.621443 -0.763267 0.176724
vn -0.649916 -0.643360 0.404595
vn -0.444228 -0.783408 -0.434665
vn -0.583366 -0.791612 -0.181752
vn -0.608051 -0.470677 0.639326
vn -0.444741 -0.630327 -0.636313
vn -0.569772 -0.692327 -0.442766
vn -0.356138 -0.431972 -0.828593
vn -0.720438 -0.689838 -0.071370
vn -0.782984 -0.619400 0.057262
vn -0.632144 -0.380403 0.675046
vn -0.778431 -0.518241 0.354219
vn -0.693993 -0.627833 -0.352419
vn -0.567471 -0.521793 -0.636953
vn -0.754231 -0.342905 0.559957
vn -0.551204 -0.168311 0.817218
vn -0.869190 -0.493819 0.025532
vn -0.780767 -0.513878 -0.355433
vn -0.895023 -0.387390 0.221049
vn -0.569460 -0.407351 -0.713989
vn -0.825190 -0.200574 0.528045
vn -0.877247 -0.404566 -0.258388
vn -0.925618 -0.265854 0.269357
vn -0.658794 -0.326109 -0.677970
vn -0.958063 -0.282704 -0.046848
vn -0.842964 -0.295486 -0.449555
vn -0.966089 -0.122914 0.227076
vn -0.842147 -0.068165 0.534923
vn -0.931068 -0.199097 -0.305732
vn -0.989297 -0.113445 -0.091771
vn -0.661864 -0.167023 -0.730780
vn -0.822683 -0.145788 -0.549489
vn 0.313269 0.003399 0.949658
vn 0.344183 -0.039861 0.938056
vn 0.139182 -0.089199 0.986241
vn 0.115037 -0.110799 0.987163
vn 0.077189 -0.142797 0.986737
vn 0.066139 -0.275970 0.958888
vn -0.088439 -0.250460 0.964079
vn 0.005891 -0.286543 0.958049
vn -0.089967 -0.149301 0.984690
vn -0.106678 -0.112486 0.987910
vn -0.145973 -0.090512 0.985139
vn -0.253273 -0.062536 0.965372
vn -0.322553 -0.004766 0.946539
vn -0.285405 -0.113839 0.951622
vn -0.224934 -0.224402 0.948181
vn -0.155879 -0.164973 0.973902
vn -0.059070 -0.308573 0.949365
vn 0.124918 -0.176226 0.976391
vn 0.135708 -0.299448 0.944412
vn 0.182904 -0.091268 0.978885
vn 0.227975 -0.213128 0.950055
vn 0.275149 -0.116720 0.954290
vn 0.341126 -0.027748 0.939608
vn 0.338735 0.044129 0.939846
vn -0.258040 0.062137 0.964134
vn -0.089254 0.156858 0.983580
vn -0.100305 0.121523 0.987508
vn -0.113348 0.105969 0.987888
vn -0.151057 0.089594 0.984457
vn -0.088461 0.251369 0.963841
vn 0.007557 0.288271 0.957519
vn 0.080789 0.149469 0.985460
vn 0.114436 0.115845 0.986653
vn 0.139188 0.089027 0.986256
vn 0.344358 0.059762 0.936934
vn 0.276871 0.117528 0.953693
vn 0.221139 0.211401 0.952054
vn 0.132349 0.303764 0.943510
vn -0.054461 0.310171 0.949120
vn -0.228319 0.226177 0.946950
vn 0.069235 0.278056 0.958066
vn -0.281286 0.119304 0.952179
vn -0.156282 0.164362 0.973941
vn 0.124606 0.176168 0.976442
vn 0.180549 0.094095 0.979055
vn -0.999641 -0.026561 -0.003506
vn -0.997107 0.072122 -0.024007
vn -0.993523 -0.113511 -0.005169
vn -0.999924 -0.002559 0.012054
vn -0.998410 -0.052998 0.019182
vn -0.019508 -0.999805 -0.003119
vn -0.021773 -0.999763 -0.000095
vn -0.972631 -0.232277 0.006095
vn -0.750605 -0.660675 0.010009
vn -0.293630 -0.955882 0.008385
vn -0.999967 -0.007864 0.002106
vn -0.999981 -0.006231 0.000188
vn -0.981622 -0.190830 -0.001604
vn -0.797101 -0.603742 -0.011183
vn -0.322694 -0.946481 -0.006466
vn 0.000000 0.000000 1.000000
vn 0.000000 0.000000 1.000000
vn 0.000000 0.000000 1.000000
vn 0.000000 0.000000 1.000000
vn 0.000000 0.000000 1.000000
vn 0.000000 0.000000 1.000000
vn 0.000000 0.000000 1.000000
vn 0.000000 0.000000 1.000000
vn 0.000000 0.000000 1.000000
vn 0.000000 0.000000 1.000000
vn 0.000000 0.000000 1.000000
vn 0.000000 0.000000 1.000000
vn 0.000000 0.000000 1.000000
vn 0.000000 0.000000 1.000000
vn 0.000000 0.000000 1.000000
vn 0.000000 0.000000 1.000000
vn 0.000000 0.000000 1.000000
vn 0.000000 0.000000 1.000000
vn 0.000000 0.000000 1.000000
vn 0.000000 0.000000 1.000000
vn 0.000000 0.000000 1.000000
vn 0.000000 0.000000 1.000000
vn 0.000000 0.000000 1.000000
vn -0.016728 0.999757 0.014376
vn -0.293098 0.955927 0.017243
vn -0.721274 0.692459 0.016249
vn -0.960615 0.277791 0.007125
vn -0.999902 0.013818 0.002378
vn -0.016430 0.999767 0.014033
vn -0.150885 0.988548 -0.002439
vn -0.494599 0.869026 -0.012840
vn -0.794567 0.607123 -0.008007
vn -0.972300 0.233735 -0.000901
vn -0.999927 0.012061 0.000188
vn -0.102514 0.994724 -0.003856
vn 0.117529 0.993064 -0.003398
vn 0.009708 0.999948 -0.002993
vn 0.103199 0.994657 0.002751
vn -0.110033 0.993928 -0.000669
vn -0.007766 0.999969 0.001413
vn 0.999848 0.017398 0.000928
vn 0.961473 0.274881 0.003094
vn 0.755536 0.655092 0.004321
vn 0.353253 0.935507 0.006257
vn 0.030295 0.999490 0.010115
vn 0.999858 0.016823 0.000187
vn 0.963329 0.268317 -0.001636
vn 0.733645 0.679508 -0.005827
vn 0.307299 0.951613 0.000680
vn 0.030592 0.999477 0.010515
vn 0.999342 0.026959 -0.024255
vn 0.999995 0.002141 -0.002428
vn 0.999997 -0.002037 0.001246
vn 0.999364 -0.027044 0.023240
vn 0.019022 -0.999819 -0.000992
vn 0.986819 -0.161709 0.006218
vn 0.869417 -0.493939 0.011733
vn 0.632086 -0.774876 0.005941
vn 0.275235 -0.961371 0.003307
vn 0.999908 -0.012453 -0.005369
vn 0.016930 -0.999850 -0.003771
vn 0.274221 -0.961655 -0.004743
vn 0.704186 -0.709843 -0.015671
vn 0.962515 -0.270974 -0.011743
vn 0.999859 -0.016790 0.000216
vn 0.104285 -0.994539 -0.004146
vn -0.006318 -0.999978 -0.002226
vn -0.112398 -0.993662 -0.001280
vn 0.110016 -0.993928 -0.001719
vn 0.008044 -0.999967 0.000981
vn -0.101891 -0.994790 0.003236
f 9//9 6//6 5//5
f 11//11 4//4 2//2
f 11//11 9//9 5//5
f 11//11 2//2 12//12
f 11//11 10//10 9//9
f 11//11 5//5 4//4
f 2//2 4//4 3//3
f 9//9 8//8 7//7
f 9//9 7//7 6//6
f 12//12 2//2 1//1
f 41//41 40//40 16//16
f 37//37 13//13 14//14
f 14//14 38//38 37//37
f 39//39 38//38 15//15
f 15//15 40//40 39//39
f 40//40 15//15 16//16
f 42//42 41//41 16//16
f 45//45 44//44 18//18
f 43//43 42//42 17//17
f 43//43 17//17 18//18
f 44//44 43//43 18//18
f 37//37 25//25 13//13
f 26//26 45//45 18//18
f 26//26 18//18 19//19
f 42//42 16//16 17//17
f 13//13 25//25 36//36
f 38//38 14//14 15//15
f 36//36 24//24 13//13
f 36//36 35//35 24//24
f 19//19 27//27 26//26
f 27//27 19//19 20//20
f 28//28 27//27 20//20
f 29//29 28//28 20//20
f 30//30 29//29 20//20
f 31//31 30//30 21//21
f 30//30 20//20 21//21
f 22//22 31//31 21//21
f 33//33 32//32 22//22
f 33//33 22//22 23//23
f 34//34 33//33 23//23
f 23//23 35//35 34//34
f 35//35 23//23 24//24
f 22//22 32//32 31//31
f 53//53 78//78 79//79
f 56//56 75//75 76//76
f 55//55 56//56 76//76
f 55//55 76//76 77//77
f 54//54 55//55 77//77
f 54//54 77//77 78//78
f 53//53 54//54 78//78
f 52//52 53//53 79//79
f 47//47 48//48 83//83
f 51//51 80//80 81//81
f 51//51 52//52 80//80
f 50//50 51//51 81//81
f 49//49 50//50 82//82
f 48//48 49//49 82//82
f 48//48 82//82 83//83
f 56//56 57//57 75//75
f 52//52 79//79 80//80
f 57//57 74//74 75//75
f 50//50 81//81 82//82
f 46//46 73//73 74//74
f 57//57 46//46 74//74
f 47//47 83//83 67//67
f 66//66 67//67 68//68
f 65//65 66//66 68//68
f 64//64 68//68 69//69
f 64//64 65//65 68//68
f 63//63 64//64 69//69
f 63//63 69//69 70//70
f 66//66 47//47 67//67
f 62//62 70//70 71//71
f 61//61 62//62 71//71
f 60//60 71//71 72//72
f 60//60 61//61 71//71
f 59//59 60//60 72//72
f 59//59 72//72 73//73
f 58//58 59//59 73//73
f 62//62 63//63 70//70
f 46//46 58//58 73//73
f 317//317 312//312 313//313
f 315//315 313//313 311//311
f 318//318 310//310 314//314
f 317//317 314//314 312//312
f 319//319 313//313 315//315
f 316//316 315//315 309//309
f 316//316 253//253 254//254
f 318//318 107//107 310//310
f 318//318 314//314 317//317
f 320//320 313//313 319//319
f 106//106 107//107 318//318
f 321//321 317//317 320//320
f 316//316 309//309 253//253
f 322//322 316//316 254//254
f 320//320 317//317 313//313
f 315//315 311//311 309//309
f 306//306 107//107 108//108
f 107//107 306//306 310//310
f 303//303 300//300 307//307
f 309//309 252//252 253//253
f 308//308 304//304 301//301
f 309//309 305//305 252//252
f 306//306 108//108 297//297
f 310//310 303//303 307//307
f 311//311 305//305 309//309
f 312//312 304//304 308//308
f 321//321 318//318 317//317
f 310//310 306//306 303//303
f 312//312 307//307 304//304
f 311//311 308//308 305//305
f 313//313 308//308 311//311
f 314//314 307//307 312//312
f 314//314 310//310 307//307
f 313//313 312//312 308//308
f 323//323 315//315 316//316
f 327//327 322//322 255//255
f 323//323 319//319 315//315
f 333//333 327//327 255//255
f 334//334 328//328 331//331
f 335//335 331//331 332//332
f 333//333 330//330 327//327
f 336//336 328//328 334//334
f 334//334 331//331 335//335
f 339//339 333//333 255//255
f 339//339 255//255 256//256
f 336//336 105//105 328//328
f 337//337 332//332 329//329
f 338//338 329//329 330//330
f 338//338 337//337 329//329
f 340//340 330//330 333//333
f 341//341 332//332 337//337
f 308//308 301//301 305//305
f 332//332 326//326 329//329
f 324//324 320//320 319//319
f 105//105 106//106 328//328
f 328//328 321//321 331//331
f 322//322 323//323 316//316
f 326//326 319//319 323//323
f 325//325 106//106 318//318
f 321//321 320//320 324//324
f 326//326 324//324 319//319
f 255//255 322//322 254//254
f 325//325 318//318 321//321
f 329//329 323//323 322//322
f 328//328 325//325 321//321
f 330//330 322//322 327//327
f 331//331 321//321 324//324
f 332//332 324//324 326//326
f 329//329 326//326 323//323
f 330//330 329//329 322//322
f 328//328 106//106 325//325
f 331//331 324//324 332//332
f 305//305 301//301 296//296
f 288//288 282//282 284//284
f 307//307 300//300 302//302
f 282//282 276//276 281//281
f 279//279 110//110 111//111
f 283//283 276//276 282//282
f 283//283 280//280 276//276
f 284//284 281//281 278//278
f 285//285 249//249 250//250
f 283//283 277//277 280//280
f 285//285 278//278 249//249
f 286//286 279//279 277//277
f 287//287 277//277 283//283
f 287//287 286//286 277//277
f 284//284 282//282 281//281
f 284//284 278//278 285//285
f 110//110 279//279 286//286
f 341//341 335//335 332//332
f 280//280 277//277 275//275
f 289//289 283//283 282//282
f 281//281 276//276 274//274
f 281//281 274//274 278//278
f 272//272 266//266 270//270
f 269//269 265//265 271//271
f 275//275 270//270 273//273
f 274//274 268//268 264//264
f 275//275 272//272 270//270
f 276//276 268//268 274//274
f 277//277 272//272 275//275
f 276//276 273//273 268//268
f 278//278 248//248 249//249
f 277//277 271//271 272//272
f 278//278 274//274 248//248
f 279//279 269//269 271//271
f 279//279 271//271 277//277
f 280//280 273//273 276//276
f 280//280 275//275 273//273
f 111//111 269//269 279//279
f 307//307 302//302 304//304
f 289//289 287//287 283//283
f 290//290 285//285 250//250
f 299//299 290//290 296//296
f 297//297 293//293 298//298
f 300//300 294//294 295//295
f 302//302 295//295 299//299
f 301//301 299//299 296//296
f 300//300 298//298 294//294
f 303//303 298//298 300//300
f 302//302 300//300 295//295
f 304//304 299//299 301//301
f 305//305 251//251 252//252
f 305//305 296//296 251//251
f 297//297 108//108 109//109
f 303//303 297//297 298//298
f 306//306 297//297 303//303
f 304//304 302//302 299//299
f 296//296 292//292 251//251
f 288//288 289//289 282//282
f 299//299 295//295 291//291
f 297//297 109//109 293//293
f 291//291 288//288 284//284
f 290//290 284//284 285//285
f 109//109 110//110 286//286
f 292//292 290//290 250//250
f 293//293 286//286 287//287
f 291//291 284//284 290//290
f 251//251 292//292 250//250
f 294//294 289//289 288//288
f 295//295 288//288 291//291
f 109//109 286//286 293//293
f 293//293 287//287 289//289
f 296//296 290//290 292//292
f 298//298 289//289 294//294
f 294//294 288//288 295//295
f 299//299 291//291 290//290
f 298//298 293//293 289//289
f 340//340 338//338 330//330
f 355//355 356//356 143//143
f 342//342 335//335 341//341
f 382//382 248//248 247//247
f 383//383 382//382 247//247
f 383//383 361//361 382//382
f 383//383 247//247 246//246
f 383//383 246//246 132//132
f 373//373 121//121 257//257
f 395//395 383//383 132//132
f 395//395 361//361 383//383
f 395//395 132//132 131//131
f 396//396 131//131 130//130
f 396//396 395//395 131//131
f 396//396 361//361 395//395
f 130//130 221//221 129//129
f 397//397 130//130 129//129
f 398//398 129//129 128//128
f 382//382 361//361 362//362
f 399//399 127//127 183//183
f 382//382 381//381 248//248
f 382//382 380//380 381//381
f 378//378 364//364 365//365
f 366//366 377//377 251//251
f 366//366 368//368 377//377
f 378//378 365//365 366//366
f 379//379 251//251 250//250
f 379//379 366//366 251//251
f 380//380 362//362 363//363
f 380//380 363//363 364//364
f 380//380 364//364 378//378
f 378//378 366//366 379//379
f 249//249 379//379 250//250
f 381//381 378//378 379//379
f 381//381 379//379 249//249
f 380//380 378//378 381//381
f 381//381 249//249 248//248
f 382//382 362//362 380//380
f 377//377 252//252 251//251
f 399//399 183//183 126//126
f 400//400 124//124 123//123
f 404//404 398//398 401//401
f 403//403 387//387 386//386
f 403//403 388//388 387//387
f 403//403 389//389 388//388
f 403//403 402//402 385//385
f 403//403 400//400 402//402
f 403//403 385//385 389//389
f 405//405 396//396 397//397
f 405//405 384//384 396//396
f 405//405 397//397 404//404
f 404//404 401//401 392//392
f 393//393 404//404 392//392
f 405//405 404//404 393//393
f 394//394 405//405 393//393
f 394//394 384//384 405//405
f 404//404 397//397 398//398
f 400//400 125//125 124//124
f 373//373 385//385 402//402
f 402//402 122//122 121//121
f 399//399 390//390 391//391
f 396//396 130//130 397//397
f 397//397 129//129 398//398
f 401//401 127//127 399//399
f 401//401 399//399 391//391
f 401//401 398//398 128//128
f 401//401 128//128 127//127
f 399//399 126//126 125//125
f 402//402 400//400 123//123
f 402//402 123//123 122//122
f 396//396 384//384 361//361
f 403//403 125//125 400//400
f 403//403 399//399 125//125
f 403//403 390//390 399//399
f 402//402 121//121 373//373
f 403//403 386//386 390//390
f 340//340 333//333 339//339
f 377//377 253//253 252//252
f 377//377 254//254 253//253
f 351//351 347//347 349//349
f 350//350 345//345 347//347
f 352//352 346//346 350//350
f 353//353 347//347 351//351
f 257//257 349//349 344//344
f 352//352 348//348 346//346
f 104//104 348//348 352//352
f 353//353 350//350 347//347
f 354//354 352//352 350//350
f 355//355 351//351 349//349
f 356//356 144//144 143//143
f 356//356 257//257 144//144
f 354//354 350//350 353//353
f 356//356 349//349 257//257
f 103//103 104//104 352//352
f 349//349 347//347 343//343
f 355//355 353//353 351//351
f 350//350 346//346 345//345
f 349//349 343//343 344//344
f 342//342 334//334 335//335
f 344//344 339//339 256//256
f 338//338 341//341 337//337
f 345//345 338//338 340//340
f 343//343 340//340 339//339
f 336//336 334//334 342//342
f 346//346 341//341 338//338
f 347//347 340//340 343//343
f 343//343 339//339 344//344
f 347//347 345//345 340//340
f 336//336 104//104 105//105
f 346//346 342//342 341//341
f 346//346 338//338 345//345
f 348//348 336//336 342//342
f 348//348 342//342 346//346
f 104//104 336//336 348//348
f 377//377 368//368 367//367
f 356//356 355//355 349//349
f 358//358 353//353 355//355
f 374//374 373//373 344//344
f 374//374 372//372 373//373
f 374//374 344//344 256//256
f 375//375 256//256 255//255
f 375//375 374//374 256//256
f 375//375 255//255 254//254
f 376//376 371//371 372//372
f 376//376 372//372 374//374
f 376//376 374//374 375//375
f 376//376 369//369 370//370
f 376//376 370//370 371//371
f 376//376 367//367 369//369
f 376//376 375//375 254//254
f 377//377 376//376 254//254
f 377//377 367//367 376//376
f 373//373 372//372 385//385
f 357//357 354//354 353//353
f 344//344 373//373 257//257
f 139//139 102//102 359//359
f 272//272 271//271 267//267
f 359//359 352//352 354//354
f 355//355 143//143 142//142
f 358//358 357//357 353//353
f 360//360 354//354 357//357
f 358//358 355//355 142//142
f 103//103 352//352 359//359
f 360//360 359//359 354//354
f 358//358 142//142 141//141
f 141//141 357//357 358//358
f 102//102 103//103 359//359
f 141//141 360//360 357//357
f 140//140 360//360 141//141
f 140//140 359//359 360//360
f 139//139 359//359 140//140
f 139//139 101//101 102//102
f 274//274 264//264 248//248
f 268//268 263//263 262//262
f 272//272 267//267 266//266
f 171//171 168//168 169//169
f 173//173 124//124 125//125
f 174//174 169//169 170//170
f 172//172 165//165 124//124
f 175//175 167//167 166//166
f 171//171 166//166 168//168
f 174//174 171//171 169//169
f 175//175 166//166 171//171
f 172//172 170//170 165//165
f 172//172 124//124 173//173
f 126//126 173//173 125//125
f 120//120 167//167 175//175
f 176//176 170//170 172//172
f 177//177 175//175 171//171
f 178//178 120//120 175//175
f 170//170 169//169 163//163
f 179//179 171//171 174//174
f 169//169 168//168 164//164
f 169//169 164//164 163//163
f 163//163 159//159 156//156
f 165//165 156//156 160//160
f 124//124 160//160 123//123
f 164//164 162//162 159//159
f 166//166 157//157 162//162
f 164//164 159//159 163//163
f 165//165 163//163 156//156
f 161//161 120//120 101//101
f 166//166 158//158 157//157
f 168//168 162//162 164//164
f 167//167 161//161 158//158
f 165//165 160//160 124//124
f 120//120 161//161 167//167
f 167//167 158//158 166//166
f 166//166 162//162 168//168
f 170//170 163//163 165//165
f 162//162 157//157 155//155
f 176//176 174//174 170//170
f 181//181 174//174 176//176
f 118//118 119//119 178//178
f 118//118 178//178 188//188
f 190//190 186//186 182//182
f 190//190 182//182 187//187
f 189//189 184//184 186//186
f 191//191 187//187 183//183
f 192//192 186//186 190//190
f 192//192 189//189 186//186
f 193//193 187//187 191//191
f 194//194 188//188 185//185
f 191//191 183//183 127//127
f 195//195 192//192 190//190
f 193//193 190//190 187//187
f 118//118 188//188 194//194
f 194//194 185//185 189//189
f 189//189 185//185 184//184
f 180//180 172//172 173//173
f 187//187 182//182 180//180
f 188//188 177//177 185//185
f 178//178 119//119 120//120
f 178//178 175//175 177//177
f 273//273 270//270 268//268
f 181//181 179//179 174//174
f 182//182 172//172 180//180
f 182//182 176//176 172//172
f 183//183 173//173 126//126
f 184//184 176//176 182//182
f 185//185 179//179 181//181
f 184//184 181//181 176//176
f 185//185 177//177 179//179
f 187//187 173//173 183//183
f 187//187 180//180 173//173
f 186//186 184//184 182//182
f 185//185 181//181 184//184
f 188//188 178//178 177//177
f 196//196 192//192 195//195
f 162//162 155//155 159//159
f 161//161 150//150 158//158
f 114//114 90//90 89//89
f 113//113 90//90 114//114
f 105//105 98//98 97//97
f 112//112 90//90 113//113
f 106//106 105//105 97//97
f 112//112 91//91 90//90
f 106//106 97//97 96//96
f 107//107 106//106 96//96
f 111//111 91//91 112//112
f 107//107 96//96 95//95
f 111//111 92//92 91//91
f 108//108 107//107 95//95
f 108//108 95//95 94//94
f 109//109 108//108 94//94
f 110//110 93//93 92//92
f 105//105 104//104 98//98
f 110//110 92//92 111//111
f 114//114 89//89 115//115
f 89//89 88//88 115//115
f 85//85 120//120 119//119
f 86//86 85//85 119//119
f 84//84 120//120 85//85
f 86//86 119//119 118//118
f 87//87 86//86 118//118
f 84//84 101//101 120//120
f 87//87 118//118 117//117
f 100//100 101//101 84//84
f 88//88 117//117 116//116
f 88//88 87//87 117//117
f 100//100 102//102 101//101
f 100//100 103//103 102//102
f 88//88 116//116 115//115
f 99//99 103//103 100//100
f 99//99 104//104 103//103
f 98//98 104//104 99//99
f 161//161 101//101 150//150
f 109//109 94//94 93//93
f 111//111 112//112 136//136
f 154//154 149//149 147//147
f 155//155 149//149 154//154
f 152//152 154//154 147//147
f 156//156 152//152 122//122
f 156//156 122//122 123//123
f 155//155 151//151 149//149
f 154//154 152//152 156//156
f 101//101 139//139 150//150
f 157//157 151//151 155//155
f 157//157 153//153 151//151
f 159//159 155//155 154//154
f 160//160 156//156 123//123
f 158//158 150//150 153//153
f 158//158 153//153 157//157
f 159//159 154//154 156//156
f 153//153 148//148 151//151
f 109//109 93//93 110//110
f 153//153 150//150 148//148
f 152//152 147//147 122//122
f 144//144 257//257 121//121
f 145//145 143//143 144//144
f 146//146 143//143 145//145
f 146//146 142//142 143//143
f 147//147 121//121 122//122
f 147//147 144//144 121//121
f 148//148 141//141 142//142
f 147//147 145//145 144//144
f 148//148 140//140 141//141
f 149//149 146//146 145//145
f 148//148 142//142 146//146
f 150//150 140//140 148//148
f 151//151 146//146 149//149
f 149//149 145//145 147//147
f 150//150 139//139 140//140
f 151//151 148//148 146//146
f 195//195 190//190 193//193
f 179//179 177//177 171//171
f 196//196 189//189 192//192
f 242//242 234//234 237//237
f 239//239 236//236 240//240
f 240//240 132//132 135//135
f 242//242 241//241 234//234
f 243//243 238//238 235//235
f 243//243 235//235 241//241
f 240//240 236//236 131//131
f 239//239 242//242 237//237
f 113//113 114//114 238//238
f 197//197 191//191 127//127
f 243//243 113//113 238//238
f 133//133 239//239 134//134
f 244//244 243//243 241//241
f 245//245 241//241 242//242
f 240//240 135//135 134//134
f 239//239 237//237 236//236
f 241//241 235//235 234//234
f 240//240 131//131 132//132
f 232//232 231//231 226//226
f 232//232 227//227 229//229
f 230//230 228//228 233//233
f 233//233 228//228 231//231
f 114//114 115//115 230//230
f 234//234 231//231 232//232
f 235//235 233//233 231//231
f 236//236 229//229 131//131
f 234//234 235//235 231//231
f 236//236 232//232 229//229
f 114//114 230//230 233//233
f 237//237 232//232 236//236
f 238//238 233//233 235//235
f 238//238 114//114 233//233
f 237//237 234//234 232//232
f 133//133 242//242 239//239
f 112//112 113//113 243//243
f 245//245 244//244 241//241
f 245//245 242//242 133//133
f 265//265 137//137 138//138
f 266//266 260//260 263//263
f 267//267 138//138 261//261
f 266//266 261//261 260//260
f 264//264 262//262 259//259
f 268//268 262//262 264//264
f 269//269 137//137 265//265
f 269//269 136//136 137//137
f 265//265 138//138 267//267
f 267//267 261//261 266//266
f 270//270 263//263 268//268
f 264//264 247//247 248//248
f 111//111 136//136 269//269
f 271//271 265//265 267//267
f 270//270 266//266 263//263
f 264//264 259//259 247//247
f 231//231 228//228 224//224
f 263//263 260//260 258//258
f 261//261 138//138 133//133
f 245//245 133//133 138//138
f 244//244 112//112 243//243
f 245//245 138//138 137//137
f 137//137 244//244 245//245
f 136//136 244//244 137//137
f 136//136 112//112 244//244
f 135//135 132//132 246//246
f 258//258 134//134 135//135
f 259//259 135//135 246//246
f 260//260 134//134 258//258
f 259//259 258//258 135//135
f 260//260 133//133 134//134
f 259//259 246//246 247//247
f 261//261 133//133 260//260
f 262//262 258//258 259//259
f 263//263 258//258 262//262
f 131//131 229//229 130//130
f 134//134 239//239 240//240
f 230//230 225//225 228//228
f 206//206 200//200 198//198
f 207//207 128//128 129//129
f 208//208 201//201 204//204
f 208//208 203//203 201//201
f 209//209 202//202 203//203
f 207//207 204//204 128//128
f 206//206 116//116 200//200
f 210//210 205//205 202//202
f 211//211 204//204 207//207
f 212//212 205//205 210//210
f 210//210 202//202 209//209
f 209//209 203//203 208//208
f 212//212 206//206 205//205
f 211//211 208//208 204//204
f 214//214 208//208 211//211
f 200//200 116//116 117//117
f 206//206 198//198 205//205
f 204//204 201//201 197//197
f 203//203 202//202 199//199
f 197//197 127//127 128//128
f 198//198 194//194 189//189
f 198//198 189//189 196//196
f 199//199 193//193 191//191
f 199//199 191//191 197//197
f 230//230 115//115 222//222
f 200//200 117//117 118//118
f 116//116 206//206 212//212
f 200//200 194//194 198//198
f 201//201 199//199 197//197
f 202//202 196//196 195//195
f 202//202 195//195 199//199
f 203//203 199//199 201//201
f 204//204 197//197 128//128
f 205//205 196//196 202//202
f 205//205 198//198 196//196
f 199//199 195//195 193//193
f 213//213 209//209 208//208
f 200//200 118//118 194//194
f 216//216 209//209 213//213
f 226//226 219//219 215//215
f 227//227 215//215 221//221
f 225//225 218//218 216//216
f 226//226 224//224 219//219
f 228//228 225//225 223//223
f 224//224 223//223 220//220
f 222//222 115//115 217//217
f 225//225 222//222 218//218
f 228//228 223//223 224//224
f 227//227 226//226 215//215
f 130//130 227//227 221//221
f 229//229 227//227 130//130
f 230//230 222//222 225//225
f 231//231 224//224 226//226
f 232//232 226//226 227//227
f 224//224 220//220 219//219
f 223//223 213//213 220//220
f 225//225 216//216 223//223
f 222//222 217//217 212//212
f 214//214 213//213 208//208
f 211//211 207//207 215//215
f 116//116 212//212 217//217
f 216//216 210//210 209//209
f 218//218 210//210 216//216
f 218//218 212//212 210//210
f 223//223 216//216 213//213
f 219//219 214//214 211//211
f 220//220 213//213 214//214
f 219//219 211//211 215//215
f 220//220 214//214 219//219
f 221//221 215//215 129//129
f 217//217 115//115 116//116
f 222//222 212//212 218//218
f 215//215 207//207 129//129
f 409//409 406//406 410//410
f 410//410 406//406 408//408
f 409//409 407//407 406//406
f 419//419 420//420 414//414
f 418//418 413//413 416//416
f 420//420 415//415 414//414
f 418//418 416//416 417//417
f 418//418 419//419 413//413
f 419//419 414//414 413//413
f 420//420 411//411 415//415
f 412//412 411//411 420//420
f 437//437 438//438 421//421
f 441//441 443//443 442//442
f 424//424 443//443 441//441
f 432//432 431//431 433//433
f 428//428 427//427 429//429
f 427//427 426//426 429//429
f 433//433 431//431 435//435
f 433//433 435//435 434//434
f 431//431 436//436 435//435
f 430//430 425//425 440//440
f 431//431 430//430 436//436
f 424//424 441//441 440//440
f 436//436 439//439 437//437
f 437//437 439//439 438//438
f 437//437 421//421 422//422
f 425//425 424//424 440//440
f 429//429 426//426 430//430
f 436//436 440//440 439//439
f 430//430 440//440 436//436
f 424//424 423//423 443//443
f 430//430 426//426 425//425
f 452//452 447//447 446//446
f 452//452 453//453 447//447
f 450//450 445//445 444//444
f 451//451 446//446 445//445
f 450//450 451//451 445//445
f 453//453 448//448 447//447
f 454//454 448//448 453//453
f 450//450 444//444 449//449
f 451//451 452//452 446//446
f 458//458 456//456 457//457
f 460//460 455//455 459//459
f 460//460 457//457 455//455
f 458//458 457//457 460//460
f 468//468 469//469 464//464
f 467//467 462//462 461//461
f 468//468 464//464 463//463
f 467//467 463//463 462//462
f 467//467 468//468 463//463
f 467//467 461//461 466//466
f 469//469 465//465 464//464
f 470//470 465//465 469//469
f 473//473 472//472 471//471
f 474//474 472//472 473//473
f 482//482 479//479 475//475
f 485//485 480//480 484//484
f 482//482 483//483 478//478
f 482//482 478//478 479//479
f 483//483 477//477 478//478
f 483//483 484//484 477//477
f 484//484 476//476 477//477
f 482//482 475//475 481//481
f 484//484 480//480 476//476
f 490//490 487//487 486//486
f 491//491 488//488 487//487
f 491//491 487//487 490//490
f 490//490 486//486 489//489
