# OMX visual mesh; coordinates in metres
mtllib materials.mtl
usemtl green_terminal
v 0.0035900 -0.0432100 0.0166500
v 0.0105900 -0.0429850 0.0168450
v 0.0105900 -0.0420100 0.0170400
v 0.0063281 -0.0419674 0.0166500
v 0.0060517 -0.0413968 0.0166500
v 0.0063731 -0.0409382 0.0166500
v 0.0105900 -0.0409100 0.0169425
v 0.0105900 -0.0385100 0.0166500
v 0.0063538 -0.0384760 0.0166500
v 0.0060488 -0.0379690 0.0166500
v 0.0063474 -0.0374460 0.0166500
v 0.0105900 -0.0374100 0.0169425
v 0.0105900 -0.0362100 0.0166500
v 0.0035900 -0.0362100 0.0166500
v 0.0035900 -0.0432100 0.0166500
v 0.0105900 -0.0429850 0.0168450
v 0.0035900 -0.0432100 0.0249300
v 0.0044108 -0.0428300 0.0249300
v 0.0046332 -0.0431635 0.0219600
v 0.0049375 -0.0432100 0.0249300
v 0.0083425 -0.0432100 0.0249300
v 0.0084341 -0.0431685 0.0219600
v 0.0088363 -0.0429250 0.0249300
v 0.0094700 -0.0432100 0.0249300
v 0.0100900 -0.0432100 0.0217800
v 0.0110523 -0.0432095 0.0216885
v 0.0111217 -0.0432099 0.0194743
v 0.0108188 -0.0432100 0.0192135
v 0.0054724 -0.0423791 0.0249300
v 0.0051350 -0.0426400 0.0219600
v 0.0035900 -0.0432100 0.0166500
v 0.0035900 -0.0362100 0.0166500
v 0.0035900 -0.0432100 0.0249300
v 0.0035900 -0.0362100 0.0249300
v 0.0105900 -0.0362100 0.0166500
v 0.0035900 -0.0362100 0.0166500
v 0.0035900 -0.0362100 0.0249300
v 0.0044108 -0.0358300 0.0249300
v 0.0046321 -0.0361572 0.0219600
v 0.0050033 -0.0360200 0.0249300
v 0.0082108 -0.0358300 0.0249300
v 0.0084348 -0.0361725 0.0219600
v 0.0088363 -0.0359250 0.0249300
v 0.0094700 -0.0362100 0.0249300
v 0.0100900 -0.0362100 0.0217800
v 0.0110597 -0.0362105 0.0216747
v 0.0111109 -0.0362101 0.0194393
v 0.0106959 -0.0362099 0.0191911
v 0.0051350 -0.0356400 0.0219600
v 0.0111109 -0.0362101 0.0194393
v 0.0106959 -0.0362099 0.0191911
v 0.0111217 -0.0366599 0.0194743
v 0.0108511 -0.0366599 0.0192263
v 0.0111217 -0.0366599 0.0194743
v 0.0108511 -0.0366599 0.0192263
v 0.0111243 -0.0366599 0.0214820
v 0.0105900 -0.0366600 0.0172350
v 0.0086400 -0.0366600 0.0172350
v 0.0086400 -0.0366600 0.0211950
v 0.0110597 -0.0362105 0.0216747
v 0.0108247 -0.0366599 0.0217821
v 0.0111243 -0.0366599 0.0214820
v 0.0105900 -0.0392600 0.0211950
v 0.0111243 -0.0366599 0.0214820
v 0.0086400 -0.0366600 0.0211950
v 0.0105900 -0.0392600 0.0211950
v 0.0086400 -0.0392600 0.0211950
v 0.0105900 -0.0392600 0.0211950
v 0.0107721 -0.0392600 0.0217886
v 0.0086400 -0.0392600 0.0211950
v 0.0086400 -0.0392600 0.0172350
v 0.0105900 -0.0388850 0.0172350
v 0.0111093 -0.0392601 0.0215586
v 0.0111065 -0.0392600 0.0194308
v 0.0107139 -0.0392601 0.0191945
v 0.0105900 -0.0409100 0.0169425
v 0.0105900 -0.0385100 0.0166500
v 0.0105900 -0.0388850 0.0172350
v 0.0107139 -0.0392601 0.0191945
v 0.0105900 -0.0401600 0.0172350
v 0.0108547 -0.0401602 0.0192250
v 0.0063731 -0.0409382 0.0166500
v 0.0105900 -0.0409100 0.0169425
v 0.0063432 -0.0409492 0.0172350
v 0.0086400 -0.0409100 0.0172350
v 0.0060517 -0.0413968 0.0166500
v 0.0063731 -0.0409382 0.0166500
v 0.0063432 -0.0409492 0.0172350
v 0.0060535 -0.0414415 0.0172350
v 0.0063281 -0.0419674 0.0166500
v 0.0060517 -0.0413968 0.0166500
v 0.0060535 -0.0414415 0.0172350
v 0.0063303 -0.0419662 0.0172350
v 0.0063432 -0.0409492 0.0172350
v 0.0086400 -0.0409100 0.0172350
v 0.0060535 -0.0414415 0.0172350
v 0.0063303 -0.0419662 0.0172350
v 0.0086400 -0.0420100 0.0172350
v 0.0066045 -0.0410086 0.0172350
v 0.0068654 -0.0410574 0.0172350
v 0.0070910 -0.0413517 0.0172350
v 0.0070523 -0.0416501 0.0172350
v 0.0068654 -0.0418626 0.0172350
v 0.0066045 -0.0419114 0.0172350
v 0.0063860 -0.0418402 0.0172350
v 0.0061890 -0.0415683 0.0172350
v 0.0062277 -0.0412699 0.0172350
v 0.0063860 -0.0410798 0.0172350
v 0.0105900 -0.0420100 0.0170400
v 0.0063281 -0.0419674 0.0166500
v 0.0063303 -0.0419662 0.0172350
v 0.0086400 -0.0420100 0.0172350
v 0.0105900 -0.0429850 0.0168450
v 0.0105900 -0.0420100 0.0170400
v 0.0086400 -0.0420100 0.0172350
v 0.0086400 -0.0427600 0.0172350
v 0.0105900 -0.0429850 0.0168450
v 0.0086400 -0.0427600 0.0172350
v 0.0110406 -0.0427605 0.0192975
v 0.0086400 -0.0427600 0.0211950
v 0.0105900 -0.0427600 0.0211950
v 0.0108494 -0.0427601 0.0217701
v 0.0111216 -0.0427602 0.0215207
v 0.0110523 -0.0432095 0.0216885
v 0.0111217 -0.0432099 0.0194743
v 0.0110406 -0.0427605 0.0192975
v 0.0111216 -0.0427602 0.0215207
v 0.0100900 -0.0432100 0.0217800
v 0.0110523 -0.0432095 0.0216885
v 0.0100900 -0.0362100 0.0217800
v 0.0110597 -0.0362105 0.0216747
v 0.0108247 -0.0366599 0.0217821
v 0.0107721 -0.0392600 0.0217886
v 0.0108494 -0.0427601 0.0217701
v 0.0107997 -0.0401602 0.0217876
v 0.0094700 -0.0432100 0.0249300
v 0.0100900 -0.0432100 0.0217800
v 0.0094700 -0.0362100 0.0249300
v 0.0100900 -0.0362100 0.0217800
v 0.0049375 -0.0432100 0.0249300
v 0.0083425 -0.0432100 0.0249300
v 0.0054724 -0.0423791 0.0249300
v 0.0077663 -0.0424409 0.0249300
v 0.0066400 -0.0429947 0.0249300
v 0.0035900 -0.0432100 0.0249300
v 0.0044108 -0.0428300 0.0249300
v 0.0088363 -0.0429250 0.0249300
v 0.0094700 -0.0432100 0.0249300
v 0.0035900 -0.0362100 0.0249300
v 0.0044108 -0.0358300 0.0249300
v 0.0050033 -0.0360200 0.0249300
v 0.0082108 -0.0358300 0.0249300
v 0.0088363 -0.0359250 0.0249300
v 0.0094700 -0.0362100 0.0249300
v 0.0054724 -0.0423791 0.0249300
v 0.0077663 -0.0424409 0.0249300
v 0.0051624 -0.0414600 0.0249300
v 0.0057251 -0.0402307 0.0249300
v 0.0074983 -0.0401725 0.0249300
v 0.0081176 -0.0414600 0.0249300
v 0.0066400 -0.0394947 0.0249300
v 0.0054734 -0.0388601 0.0249300
v 0.0051624 -0.0379600 0.0249300
v 0.0057251 -0.0367307 0.0249300
v 0.0074983 -0.0366725 0.0249300
v 0.0081176 -0.0379600 0.0249300
v 0.0078066 -0.0388601 0.0249300
v 0.0046332 -0.0431635 0.0219600
v 0.0049375 -0.0432100 0.0249300
v 0.0054724 -0.0423791 0.0249300
v 0.0051350 -0.0426400 0.0219600
v 0.0054724 -0.0423791 0.0249300
v 0.0077663 -0.0424409 0.0249300
v 0.0066400 -0.0429947 0.0249300
v 0.0051624 -0.0414600 0.0249300
v 0.0057251 -0.0402307 0.0249300
v 0.0074983 -0.0401725 0.0249300
v 0.0081176 -0.0414600 0.0249300
v 0.0073515 -0.0401748 0.0211950
v 0.0066400 -0.0399860 0.0172350
v 0.0072824 -0.0427602 0.0172350
v 0.0072922 -0.0427810 0.0211950
v 0.0080363 -0.0419791 0.0211950
v 0.0079984 -0.0408724 0.0211950
v 0.0059230 -0.0401788 0.0211950
v 0.0052437 -0.0409409 0.0211950
v 0.0052816 -0.0420476 0.0211950
v 0.0059878 -0.0427810 0.0211950
v 0.0059976 -0.0427602 0.0172350
v 0.0066400 -0.0429364 0.0172350
v 0.0066400 -0.0394947 0.0249300
v 0.0054734 -0.0388601 0.0249300
v 0.0051624 -0.0379600 0.0249300
v 0.0057251 -0.0367307 0.0249300
v 0.0074983 -0.0366725 0.0249300
v 0.0081176 -0.0379600 0.0249300
v 0.0078066 -0.0388601 0.0249300
v 0.0073515 -0.0366748 0.0211950
v 0.0066400 -0.0364860 0.0172350
v 0.0072824 -0.0392602 0.0172350
v 0.0072922 -0.0392810 0.0211950
v 0.0080363 -0.0384791 0.0211950
v 0.0079984 -0.0373724 0.0211950
v 0.0059230 -0.0366788 0.0211950
v 0.0052816 -0.0373724 0.0211950
v 0.0052437 -0.0384791 0.0211950
v 0.0059878 -0.0392810 0.0211950
v 0.0059976 -0.0392602 0.0172350
v 0.0066400 -0.0394364 0.0172350
v 0.0110597 -0.0362105 0.0216747
v 0.0111109 -0.0362101 0.0194393
v 0.0111217 -0.0366599 0.0194743
v 0.0111243 -0.0366599 0.0214820
v 0.0107721 -0.0392600 0.0217886
v 0.0111093 -0.0392601 0.0215586
v 0.0105900 -0.0427600 0.0211950
v 0.0107997 -0.0401602 0.0217876
v 0.0111221 -0.0401597 0.0214917
v 0.0111093 -0.0392601 0.0215586
v 0.0111065 -0.0392600 0.0194308
v 0.0111221 -0.0401597 0.0214917
v 0.0111214 -0.0401599 0.0194768
v 0.0111065 -0.0392600 0.0194308
v 0.0107139 -0.0392601 0.0191945
v 0.0108547 -0.0401602 0.0192250
v 0.0111214 -0.0401599 0.0194768
v 0.0105900 -0.0401600 0.0172350
v 0.0108547 -0.0401602 0.0192250
v 0.0111221 -0.0401597 0.0214917
v 0.0111214 -0.0401599 0.0194768
v 0.0086400 -0.0401600 0.0172350
v 0.0086400 -0.0401600 0.0211950
v 0.0086400 -0.0427600 0.0211950
v 0.0105900 -0.0427600 0.0211950
v 0.0111221 -0.0401597 0.0214917
v 0.0086400 -0.0401600 0.0211950
v 0.0086400 -0.0409100 0.0172350
v 0.0086400 -0.0420100 0.0172350
v 0.0086400 -0.0427600 0.0172350
v 0.0086400 -0.0427600 0.0211950
v 0.0086400 -0.0401600 0.0172350
v 0.0086400 -0.0401600 0.0211950
v 0.0086400 -0.0423100 0.0200250
v 0.0086400 -0.0423100 0.0177750
v 0.0086400 -0.0406100 0.0177750
v 0.0086400 -0.0406100 0.0200250
v 0.0105900 -0.0409100 0.0169425
v 0.0105900 -0.0401600 0.0172350
v 0.0086400 -0.0409100 0.0172350
v 0.0086400 -0.0401600 0.0172350
v 0.0105900 -0.0385100 0.0166500
v 0.0063538 -0.0384760 0.0166500
v 0.0060488 -0.0379690 0.0166500
v 0.0105900 -0.0388850 0.0172350
v 0.0086400 -0.0385100 0.0172350
v 0.0061411 -0.0382890 0.0172350
v 0.0064779 -0.0385026 0.0172350
v 0.0086400 -0.0385100 0.0172350
v 0.0086400 -0.0374100 0.0172350
v 0.0065333 -0.0375123 0.0172350
v 0.0061398 -0.0376287 0.0172350
v 0.0061411 -0.0382890 0.0172350
v 0.0064779 -0.0385026 0.0172350
v 0.0067971 -0.0375340 0.0172350
v 0.0070236 -0.0377037 0.0172350
v 0.0070910 -0.0380683 0.0172350
v 0.0069078 -0.0383285 0.0172350
v 0.0066934 -0.0384109 0.0172350
v 0.0064829 -0.0383860 0.0172350
v 0.0062809 -0.0382431 0.0172350
v 0.0061859 -0.0379957 0.0172350
v 0.0062564 -0.0377037 0.0172350
v 0.0086400 -0.0366600 0.0172350
v 0.0086400 -0.0366600 0.0211950
v 0.0086400 -0.0392600 0.0211950
v 0.0086400 -0.0392600 0.0172350
v 0.0086400 -0.0385100 0.0172350
v 0.0086400 -0.0374100 0.0172350
v 0.0086400 -0.0388100 0.0200250
v 0.0086400 -0.0388100 0.0177750
v 0.0086400 -0.0371100 0.0177750
v 0.0086400 -0.0371100 0.0200250
v 0.0105900 -0.0374100 0.0169425
v 0.0105900 -0.0366600 0.0172350
v 0.0086400 -0.0366600 0.0172350
v 0.0086400 -0.0374100 0.0172350
v 0.0105900 -0.0374100 0.0169425
v 0.0105900 -0.0362100 0.0166500
v 0.0106959 -0.0362099 0.0191911
v 0.0108511 -0.0366599 0.0192263
v 0.0105900 -0.0366600 0.0172350
v 0.0063474 -0.0374460 0.0166500
v 0.0105900 -0.0374100 0.0169425
v 0.0086400 -0.0374100 0.0172350
v 0.0065333 -0.0375123 0.0172350
v 0.0061398 -0.0376287 0.0172350
v 0.0060488 -0.0379690 0.0166500
v 0.0063474 -0.0374460 0.0166500
v 0.0061398 -0.0376287 0.0172350
v 0.0061411 -0.0382890 0.0172350
v 0.0108247 -0.0366599 0.0217821
v 0.0105900 -0.0392600 0.0211950
v 0.0107721 -0.0392600 0.0217886
v 0.0105900 -0.0429850 0.0168450
v 0.0108188 -0.0432100 0.0192135
v 0.0110406 -0.0427605 0.0192975
v 0.0111217 -0.0432099 0.0194743
v 0.0108188 -0.0432100 0.0192135
v 0.0110406 -0.0427605 0.0192975
v 0.0110523 -0.0432095 0.0216885
v 0.0108494 -0.0427601 0.0217701
v 0.0111216 -0.0427602 0.0215207
v 0.0046321 -0.0361572 0.0219600
v 0.0050033 -0.0360200 0.0249300
v 0.0051350 -0.0356400 0.0219600
v 0.0044108 -0.0358300 0.0249300
v 0.0050033 -0.0360200 0.0249300
v 0.0051350 -0.0356400 0.0219600
v 0.0084348 -0.0361725 0.0219600
v 0.0088363 -0.0359250 0.0249300
v 0.0089350 -0.0356400 0.0219600
v 0.0082108 -0.0358300 0.0249300
v 0.0088363 -0.0359250 0.0249300
v 0.0089350 -0.0356400 0.0219600
v 0.0082108 -0.0358300 0.0249300
v 0.0084348 -0.0361725 0.0219600
v 0.0089350 -0.0356400 0.0219600
v 0.0084341 -0.0431685 0.0219600
v 0.0088363 -0.0429250 0.0249300
v 0.0089350 -0.0426400 0.0219600
v 0.0084341 -0.0431685 0.0219600
v 0.0077663 -0.0424409 0.0249300
v 0.0089350 -0.0426400 0.0219600
v 0.0088363 -0.0429250 0.0249300
v 0.0077663 -0.0424409 0.0249300
v 0.0089350 -0.0426400 0.0219600
v 0.0083425 -0.0432100 0.0249300
v 0.0084341 -0.0431685 0.0219600
v 0.0077663 -0.0424409 0.0249300
v 0.0073515 -0.0401748 0.0211950
v 0.0066400 -0.0399860 0.0172350
v 0.0059230 -0.0401788 0.0211950
v 0.0072824 -0.0427602 0.0172350
v 0.0059976 -0.0427602 0.0172350
v 0.0066400 -0.0429364 0.0172350
v 0.0073515 -0.0366748 0.0211950
v 0.0066400 -0.0364860 0.0172350
v 0.0059230 -0.0366788 0.0211950
v 0.0072824 -0.0392602 0.0172350
v 0.0059976 -0.0392602 0.0172350
v 0.0066400 -0.0394364 0.0172350
v 0.0105900 -0.0427600 0.0211950
v 0.0108494 -0.0427601 0.0217701
v 0.0107997 -0.0401602 0.0217876
v 0.0086400 -0.0392600 0.0172350
v 0.0105900 -0.0388850 0.0172350
v 0.0086400 -0.0385100 0.0172350
vn 0.007672 -0.016906 -0.999828
vn 0.081583 0.152962 -0.984859
vn 0.091307 0.195298 -0.976484
vn 0.022385 -0.027970 -0.999358
vn -0.000001 0.000001 -1.000000
vn 0.008826 -0.015328 -0.999844
vn 0.069496 -0.120687 -0.990255
vn 0.046308 -0.080419 -0.995685
vn 0.000000 0.000000 -1.000000
vn -0.000001 -0.000001 -1.000000
vn 0.004658 -0.015990 -0.999861
vn 0.068830 -0.236254 -0.969250
vn 0.056730 -0.194723 -0.979216
vn -0.000000 0.000000 -1.000000
vn 0.010909 -0.999855 -0.013086
vn 0.034694 -0.994599 -0.097819
vn 0.342449 -0.933574 0.105677
vn 0.431025 -0.897594 0.092422
vn 0.183573 -0.982482 0.032103
vn 0.000000 -0.999878 -0.015644
vn -0.000758 -0.999892 -0.014697
vn -0.025003 -0.999683 0.003123
vn -0.406702 -0.904375 0.129225
vn -0.299274 -0.949806 0.091120
vn -0.018637 -0.999816 -0.004651
vn 0.000513 -1.000000 0.000184
vn 0.000244 -1.000000 0.000064
vn 0.005995 -0.999651 -0.025746
vn 0.390723 -0.919787 0.036427
vn 0.654013 -0.748206 0.111601
vn -1.000000 0.000000 0.000000
vn -1.000000 0.000000 0.000000
vn -1.000000 0.000000 0.000000
vn -1.000000 0.000000 0.000000
vn 0.000000 1.000000 -0.000045
vn -0.003695 0.999969 -0.006986
vn -0.343718 0.933296 -0.104005
vn -0.458159 0.879166 -0.130984
vn -0.183894 0.981939 -0.044485
vn -0.022534 0.996759 -0.077228
vn -0.058713 0.991188 -0.118741
vn 0.017276 0.999464 -0.027796
vn 0.406642 0.904243 -0.130335
vn 0.298634 0.949912 -0.092111
vn 0.016862 0.999851 0.003736
vn 0.000583 1.000000 0.000205
vn 0.000487 1.000000 0.000163
vn 0.003807 0.999990 -0.002472
vn -0.710935 0.691303 -0.129120
vn 0.585966 0.044826 -0.809095
vn 0.510359 0.109293 -0.852988
vn 0.675169 -0.041082 -0.736518
vn 0.596384 0.035409 -0.801918
vn 0.000076 -1.000000 0.000007
vn 0.000040 -1.000000 0.000012
vn 0.000049 -1.000000 0.000011
vn 0.000000 -1.000000 0.000041
vn 0.000020 -1.000000 0.000019
vn 0.000042 -1.000000 0.000005
vn 0.693842 -0.197257 0.692584
vn 0.692079 -0.209252 0.690825
vn 0.692138 -0.208865 0.690884
vn 0.690719 -0.218041 0.689468
vn 0.114329 0.085747 -0.989736
vn 0.067809 0.050857 -0.996401
vn 0.054862 0.041147 -0.997646
vn 0.000000 0.000000 -1.000000
vn 0.000049 1.000000 0.000002
vn 0.000161 1.000000 -0.000056
vn 0.000014 1.000000 -0.000014
vn -0.091221 0.991137 0.096576
vn -0.185183 0.962955 0.196023
vn 0.000127 1.000000 -0.000008
vn -0.000196 1.000000 -0.000030
vn -0.034781 0.998719 0.036744
vn 1.000000 0.000000 0.000000
vn 1.000000 0.000000 0.000000
vn 0.999693 0.000000 -0.024765
vn 0.989314 0.098292 -0.107691
vn 0.999448 0.014941 -0.029677
vn 0.980211 0.148953 -0.130383
vn 0.015608 -0.999804 -0.012201
vn 0.004579 -0.999524 0.030524
vn 0.017082 -0.999694 -0.017920
vn 0.005634 -0.999635 0.026438
vn 0.840672 -0.541526 -0.004531
vn 0.818533 -0.573620 0.031055
vn 0.841666 -0.539962 -0.006224
vn 0.861119 -0.506720 -0.041350
vn 0.892233 0.451389 0.012988
vn 0.899581 0.435685 0.030554
vn 0.892681 0.450471 0.014024
vn 0.884480 0.466559 -0.004288
vn 0.000000 0.000000 -1.000000
vn 0.000000 0.000000 -1.000000
vn 0.000000 0.000000 -1.000000
vn 0.000000 0.000000 -1.000000
vn 0.000000 0.000000 -1.000000
vn 0.000000 0.000000 -1.000000
vn 0.000000 0.000000 -1.000000
vn 0.000000 0.000000 -1.000000
vn 0.000000 0.000000 -1.000000
vn 0.000000 0.000000 -1.000000
vn 0.000000 0.000000 -1.000000
vn 0.000000 0.000000 -1.000000
vn 0.000000 0.000000 -1.000000
vn 0.000000 0.000000 -1.000000
vn 0.000000 0.000000 -1.000000
vn 0.005211 0.998628 0.052107
vn 0.017499 0.999840 0.003633
vn 0.018956 0.999818 -0.002128
vn 0.006331 0.998842 0.047694
vn 0.170933 -0.193231 0.966149
vn 0.155185 -0.149594 0.976493
vn 0.099503 0.000000 0.995037
vn 0.120617 -0.055913 0.991123
vn 0.092684 0.989859 -0.107654
vn 0.047893 0.997308 -0.055519
vn 0.021299 0.999469 -0.024656
vn 0.000111 1.000000 -0.000104
vn 0.000252 1.000000 -0.000170
vn 0.000388 1.000000 -0.000039
vn 0.000415 1.000000 -0.000082
vn 0.989498 -0.141180 0.031030
vn 0.991103 0.129999 -0.028561
vn 0.985876 0.163575 -0.035939
vn 0.993971 -0.107086 0.023538
vn 0.039325 -0.050300 0.997960
vn 0.093888 -0.136832 0.986135
vn 0.035337 0.064610 0.997285
vn 0.106334 0.178317 0.978211
vn 0.043804 0.076280 0.996124
vn -0.018842 -0.001401 0.999821
vn 0.048705 -0.060334 0.996989
vn -0.008972 -0.000587 0.999960
vn 0.981175 0.000000 0.193121
vn 0.981175 0.000000 0.193121
vn 0.981175 0.000000 0.193121
vn 0.981175 0.000000 0.193121
vn -0.000001 -0.000000 1.000000
vn 0.000001 -0.000000 1.000000
vn -0.000001 0.000001 1.000000
vn 0.000001 0.000001 1.000000
vn -0.000000 -0.000006 1.000000
vn 0.000000 0.000000 1.000000
vn 0.000000 0.000000 1.000000
vn 0.000000 0.000000 1.000000
vn 0.000000 0.000000 1.000000
vn 0.000000 0.000000 1.000000
vn 0.000000 -0.000000 1.000000
vn -0.000001 -0.000004 1.000000
vn -0.000000 -0.000002 1.000000
vn -0.000001 -0.000000 1.000000
vn 0.000000 0.000000 1.000000
vn 0.000000 0.000000 1.000000
vn 0.000000 0.000000 1.000000
vn 0.000000 0.000000 1.000000
vn 0.000000 -0.000000 1.000000
vn -0.000002 -0.000001 1.000000
vn -0.000000 -0.000000 1.000000
vn 0.000001 -0.000001 1.000000
vn 0.000000 0.000000 1.000000
vn 0.000000 0.000000 1.000000
vn 0.000001 -0.000001 1.000000
vn -0.000001 -0.000001 1.000000
vn -0.000000 0.000000 1.000000
vn -0.000000 -0.000000 1.000000
vn -0.719348 0.689492 0.084491
vn -0.823903 0.564201 0.053493
vn -0.839889 0.540640 0.047908
vn -0.744631 0.662937 0.077714
vn 0.763298 0.645657 -0.022455
vn -0.745596 0.666028 -0.022225
vn 0.012476 0.999557 -0.027016
vn 0.998608 -0.046163 -0.025534
vn 0.551281 -0.833748 -0.030876
vn -0.515125 -0.856516 -0.032034
vn -0.998415 -0.048029 -0.029352
vn -0.476814 -0.878793 0.019280
vn 0.003044 -0.999880 -0.015213
vn -0.265554 0.964069 0.007215
vn -0.441563 0.897157 0.011498
vn -0.937189 0.347874 0.025703
vn -0.924591 -0.380387 0.020918
vn 0.441146 -0.897369 0.010906
vn 0.940545 -0.338942 0.022212
vn 0.920482 0.390090 0.023288
vn 0.437405 0.899221 0.008925
vn 0.265553 0.964069 0.007215
vn -0.000001 0.999971 0.007573
vn -0.000001 0.999480 -0.032252
vn 0.764567 0.644037 -0.025561
vn 0.998641 -0.044584 -0.026993
vn 0.551653 -0.833510 -0.030654
vn -0.515125 -0.856516 -0.032035
vn -0.998178 -0.053162 -0.028528
vn -0.764567 0.644037 -0.025560
vn -0.476812 -0.878794 0.019280
vn 0.003044 -0.999880 -0.015213
vn -0.265549 0.964070 0.007216
vn -0.442857 0.896551 0.008593
vn -0.936508 0.349895 0.022936
vn -0.924590 -0.380390 0.020918
vn 0.435787 -0.899988 0.010585
vn 0.924905 -0.379569 0.021838
vn 0.936508 0.349895 0.022935
vn 0.442854 0.896552 0.008593
vn 0.265548 0.964071 0.007216
vn -0.000000 0.999971 0.007574
vn 0.992431 0.122773 0.002870
vn 0.999408 0.025680 0.022894
vn 0.998994 0.040167 0.019924
vn 0.989739 0.142884 -0.001313
vn 0.563466 0.016347 0.825977
vn 0.596766 -0.001098 0.802415
vn 0.660252 -0.217139 0.718970
vn 0.656442 -0.119957 0.744778
vn 0.670465 -0.131238 0.730242
vn 0.999889 0.014909 -0.000617
vn 0.999864 0.016450 -0.001283
vn 0.999897 0.014332 -0.000367
vn 0.999873 0.015917 -0.001052
vn 0.559161 0.032972 -0.828403
vn 0.514915 0.051587 -0.855688
vn 0.640570 -0.003634 -0.767891
vn 0.686386 -0.025849 -0.726778
vn 0.000000 -1.000000 -0.000082
vn 0.000160 -1.000000 0.000053
vn 0.000165 -1.000000 0.000189
vn 0.000894 -1.000000 0.000103
vn -0.000040 -1.000000 -0.000038
vn 0.000014 -1.000000 0.000099
vn 0.000000 0.000000 -1.000000
vn 0.056711 0.042533 -0.997484
vn 0.118194 0.088645 -0.989026
vn 0.070126 0.052595 -0.996151
vn 1.000000 0.000000 0.000000
vn 1.000000 0.000000 0.000000
vn 1.000000 0.000000 0.000000
vn 1.000000 0.000000 0.000000
vn 1.000000 0.000000 0.000000
vn 1.000000 0.000000 0.000000
vn 1.000000 0.000000 0.000000
vn 1.000000 0.000000 0.000000
vn 1.000000 0.000000 0.000000
vn 1.000000 0.000000 0.000000
vn 0.138403 -0.359848 0.922689
vn 0.108071 -0.280984 0.953608
vn 0.034696 -0.090211 0.995318
vn 0.000000 0.000000 1.000000
vn 0.135582 0.881687 0.451936
vn 0.467761 0.881703 0.061635
vn 0.847849 0.509954 0.145255
vn 0.159820 0.831057 0.532730
vn 0.024480 0.996145 0.084235
vn 0.698294 0.715367 0.025214
vn 0.244044 0.969733 -0.007757
vn 0.000000 0.000000 -1.000000
vn 0.000000 0.000000 -1.000000
vn 0.000000 0.000000 -1.000000
vn 0.000000 0.000000 -1.000000
vn 0.000000 0.000000 -1.000000
vn 0.000000 0.000000 -1.000000
vn 0.000000 0.000000 -1.000000
vn 0.000000 0.000000 -1.000000
vn 0.000000 0.000000 -1.000000
vn 0.000000 0.000000 -1.000000
vn 0.000000 0.000000 -1.000000
vn 0.000000 0.000000 -1.000000
vn 0.000000 0.000000 -1.000000
vn 0.000000 0.000000 -1.000000
vn 0.000000 0.000000 -1.000000
vn 1.000000 0.000000 0.000000
vn 1.000000 0.000000 0.000000
vn 1.000000 0.000000 0.000000
vn 1.000000 0.000000 0.000000
vn 1.000000 0.000000 0.000000
vn 1.000000 0.000000 0.000000
vn 1.000000 0.000000 0.000000
vn 1.000000 0.000000 0.000000
vn 1.000000 0.000000 0.000000
vn 1.000000 0.000000 0.000000
vn 0.138403 -0.359848 0.922689
vn 0.108071 -0.280984 0.953608
vn 0.000000 0.000000 1.000000
vn 0.034696 -0.090211 0.995318
vn 1.000000 0.000000 0.000000
vn 0.999435 -0.026650 -0.020500
vn 0.956917 0.267336 -0.113322
vn 0.941077 0.314874 -0.123404
vn 0.999536 -0.010863 -0.028446
vn 0.126725 -0.982498 -0.136519
vn 0.005812 -0.999232 0.038748
vn 0.009382 -0.999649 0.024783
vn 0.143908 -0.977139 -0.156494
vn 0.278194 -0.940520 -0.195013
vn 0.965737 -0.259523 0.000813
vn 0.858412 -0.490048 0.151595
vn 0.970424 -0.241174 -0.010589
vn 0.987957 0.001913 -0.154718
vn 0.955812 -0.020051 -0.293296
vn 0.955812 -0.020051 -0.293296
vn 0.955812 -0.020051 -0.293296
vn 0.898729 -0.419799 -0.126706
vn 0.898729 -0.419799 -0.126706
vn 0.898729 -0.419799 -0.126706
vn 0.642192 -0.177511 -0.745708
vn 0.642192 -0.177511 -0.745708
vn 0.642192 -0.177511 -0.745708
vn 0.665804 0.168500 0.726851
vn 0.665804 0.168500 0.726851
vn 0.665804 0.168500 0.726851
vn 0.715757 -0.695993 -0.057318
vn 0.715757 -0.695993 -0.057318
vn 0.715757 -0.695993 -0.057318
vn 0.302594 0.943632 0.134148
vn 0.302594 0.943632 0.134148
vn 0.302594 0.943632 0.134148
vn 0.728234 -0.684075 -0.041430
vn 0.728234 -0.684075 -0.041430
vn 0.728234 -0.684075 -0.041430
vn 0.149430 0.983766 0.099370
vn 0.149430 0.983766 0.099370
vn 0.149430 0.983766 0.099370
vn -0.722411 0.678605 -0.132731
vn -0.722411 0.678605 -0.132731
vn -0.722411 0.678605 -0.132731
vn -0.725153 0.687315 0.041844
vn -0.725153 0.687315 0.041844
vn -0.725153 0.687315 0.041844
vn 0.688876 -0.652931 0.314852
vn 0.688876 -0.652931 0.314852
vn 0.688876 -0.652931 0.314852
vn -0.410124 -0.906462 -0.100620
vn -0.410124 -0.906462 -0.100620
vn -0.410124 -0.906462 -0.100620
vn 0.799864 0.599272 0.033030
vn 0.799864 0.599272 0.033030
vn 0.799864 0.599272 0.033030
vn -0.002777 0.998838 0.048115
vn -0.002777 0.998838 0.048115
vn -0.002777 0.998838 0.048115
vn 0.000000 0.000000 1.000000
vn 0.000000 0.000000 1.000000
vn 0.000000 0.000000 1.000000
vn -0.002777 0.998838 0.048115
vn -0.002777 0.998838 0.048115
vn -0.002777 0.998838 0.048115
vn 0.000000 0.000000 1.000000
vn 0.000000 0.000000 1.000000
vn 0.000000 0.000000 1.000000
vn 0.911410 0.020166 -0.411006
vn 0.911410 0.020166 -0.411006
vn 0.911410 0.020166 -0.411006
vn 0.000000 0.000000 1.000000
vn 0.000000 0.000000 1.000000
vn 0.000000 0.000000 1.000000
f 11//11 13//13 12//12
f 1//1 4//4 2//2
f 1//1 14//14 5//5
f 4//4 3//3 2//2
f 5//5 14//14 10//10
f 5//5 10//10 9//9
f 1//1 5//5 4//4
f 6//6 9//9 8//8
f 6//6 8//8 7//7
f 14//14 11//11 10//10
f 14//14 13//13 11//11
f 5//5 9//9 6//6
f 15//15 16//16 28//28
f 30//30 29//29 18//18
f 30//30 18//18 19//19
f 15//15 19//19 17//17
f 15//15 22//22 19//19
f 15//15 28//28 22//22
f 19//19 18//18 17//17
f 28//28 25//25 22//22
f 19//19 21//21 20//20
f 28//28 27//27 25//25
f 22//22 25//25 24//24
f 22//22 24//24 23//23
f 27//27 26//26 25//25
f 19//19 22//22 21//21
f 34//34 31//31 33//33
f 34//34 32//32 31//31
f 41//41 42//42 40//40
f 49//49 39//39 38//38
f 44//44 45//45 42//42
f 44//44 42//42 43//43
f 46//46 47//47 45//45
f 48//48 35//35 36//36
f 45//45 47//47 48//48
f 42//42 36//36 39//39
f 42//42 48//48 36//36
f 42//42 39//39 40//40
f 37//37 39//39 36//36
f 45//45 48//48 42//42
f 38//38 39//39 37//37
f 53//53 50//50 52//52
f 53//53 51//51 50//50
f 55//55 54//54 56//56
f 55//55 56//56 59//59
f 58//58 57//57 55//55
f 58//58 55//55 59//59
f 62//62 60//60 61//61
f 63//63 62//62 61//61
f 66//66 67//67 65//65
f 66//66 65//65 64//64
f 70//70 75//75 71//71
f 68//68 75//75 70//70
f 68//68 74//74 75//75
f 73//73 74//74 68//68
f 73//73 68//68 69//69
f 75//75 72//72 71//71
f 76//76 78//78 80//80
f 80//80 78//78 79//79
f 80//80 79//79 81//81
f 76//76 77//77 78//78
f 83//83 85//85 82//82
f 85//85 84//84 82//82
f 88//88 86//86 87//87
f 89//89 86//86 88//88
f 91//91 92//92 90//90
f 90//90 92//92 93//93
f 102//102 98//98 103//103
f 94//94 107//107 96//96
f 94//94 108//108 107//107
f 94//94 99//99 108//108
f 94//94 100//100 99//99
f 96//96 107//107 106//106
f 97//97 106//106 105//105
f 100//100 95//95 101//101
f 105//105 104//104 97//97
f 101//101 95//95 98//98
f 104//104 103//103 97//97
f 97//97 103//103 98//98
f 101//101 98//98 102//102
f 94//94 95//95 100//100
f 96//96 106//106 97//97
f 110//110 111//111 112//112
f 109//109 110//110 112//112
f 116//116 113//113 114//114
f 116//116 114//114 115//115
f 123//123 119//119 121//121
f 119//119 117//117 118//118
f 120//120 119//119 118//118
f 123//123 121//121 122//122
f 121//121 119//119 120//120
f 125//125 127//127 124//124
f 125//125 126//126 127//127
f 130//130 132//132 131//131
f 133//133 132//132 130//130
f 128//128 134//134 135//135
f 128//128 129//129 134//134
f 130//130 128//128 135//135
f 130//130 135//135 133//133
f 137//137 138//138 136//136
f 137//137 139//139 138//138
f 140//140 144//144 142//142
f 144//144 141//141 143//143
f 140//140 141//141 144//144
f 163//163 157//157 158//158
f 165//165 151//151 164//164
f 152//152 151//151 165//165
f 149//149 145//145 157//157
f 149//149 163//163 150//150
f 149//149 157//157 163//163
f 150//150 163//163 164//164
f 163//163 158//158 162//162
f 152//152 165//165 153//153
f 150//150 164//164 151//151
f 153//153 165//165 166//166
f 160//160 156//156 147//147
f 146//146 155//155 157//157
f 161//161 159//159 167//167
f 167//167 159//159 160//160
f 166//166 167//167 160//160
f 166//166 160//160 147//147
f 162//162 158//158 161//161
f 161//161 158//158 159//159
f 154//154 166//166 147//147
f 154//154 147//147 148//148
f 153//153 166//166 154//154
f 157//157 145//145 146//146
f 169//169 171//171 168//168
f 169//169 170//170 171//171
f 174//174 190//190 189//189
f 174//174 189//189 188//188
f 174//174 188//188 172//172
f 172//172 187//187 175//175
f 175//175 187//187 186//186
f 175//175 186//186 176//176
f 176//176 186//186 185//185
f 176//176 185//185 180//180
f 172//172 188//188 187//187
f 177//177 180//180 179//179
f 176//176 180//180 177//177
f 174//174 182//182 181//181
f 173//173 182//182 174//174
f 173//173 183//183 182//182
f 174//174 181//181 190//190
f 178//178 183//183 173//173
f 178//178 184//184 183//183
f 177//177 184//184 178//178
f 177//177 179//179 184//184
f 191//191 208//208 207//207
f 191//191 207//207 192//192
f 192//192 207//207 206//206
f 192//192 206//206 193//193
f 206//206 205//205 193//193
f 193//193 205//205 194//194
f 194//194 205//205 204//204
f 191//191 209//209 208//208
f 194//194 204//204 199//199
f 195//195 199//199 198//198
f 195//195 198//198 203//203
f 195//195 203//203 196//196
f 196//196 203//203 202//202
f 196//196 202//202 197//197
f 197//197 202//202 201//201
f 197//197 201//201 191//191
f 191//191 201//201 200//200
f 194//194 199//199 195//195
f 191//191 200//200 209//209
f 212//212 210//210 213//213
f 212//212 211//211 210//210
f 216//216 218//218 217//217
f 215//215 214//214 217//217
f 215//215 217//217 218//218
f 222//222 220//220 219//219
f 222//222 219//219 221//221
f 223//223 226//226 225//225
f 224//224 223//223 225//225
f 228//228 230//230 229//229
f 228//228 229//229 232//232
f 231//231 227//227 228//228
f 231//231 228//228 232//232
f 234//234 236//236 235//235
f 234//234 233//233 236//236
f 241//241 245//245 237//237
f 241//241 242//242 246//246
f 241//241 246//246 245//245
f 237//237 244//244 238//238
f 237//237 245//245 244//244
f 239//239 244//244 243//243
f 239//239 243//243 240//240
f 246//246 240//240 243//243
f 246//246 242//242 240//240
f 238//238 244//244 239//239
f 249//249 247//247 248//248
f 249//249 248//248 250//250
f 251//251 252//252 255//255
f 253//253 256//256 252//252
f 255//255 254//254 251//251
f 252//252 257//257 255//255
f 252//252 256//256 257//257
f 261//261 260//260 272//272
f 261//261 272//272 271//271
f 261//261 271//271 262//262
f 260//260 259//259 264//264
f 262//262 271//271 270//270
f 264//264 259//259 265//265
f 269//269 263//263 262//262
f 265//265 259//259 266//266
f 269//269 268//268 263//263
f 266//266 259//259 258//258
f 263//263 268//268 267//267
f 263//263 267//267 258//258
f 270//270 269//269 262//262
f 266//266 258//258 267//267
f 273//273 281//281 278//278
f 273//273 282//282 281//281
f 278//278 281//281 277//277
f 273//273 274//274 282//282
f 277//277 280//280 276//276
f 276//276 280//280 279//279
f 282//282 275//275 279//279
f 282//282 274//274 275//275
f 281//281 280//280 277//277
f 276//276 279//279 275//275
f 286//286 284//284 285//285
f 286//286 283//283 284//284
f 291//291 289//289 290//290
f 288//288 289//289 291//291
f 287//287 288//288 291//291
f 294//294 295//295 292//292
f 293//293 294//294 292//292
f 296//296 292//292 295//295
f 299//299 297//297 298//298
f 297//297 299//299 300//300
f 302//302 301//301 303//303
f 304//304 306//306 305//305
f 308//308 309//309 307//307
f 312//312 311//311 310//310
f 314//314 313//313 315//315
f 318//318 316//316 317//317
f 320//320 319//319 321//321
f 324//324 322//322 323//323
f 327//327 326//326 325//325
f 329//329 330//330 328//328
f 333//333 332//332 331//331
f 336//336 334//334 335//335
f 338//338 339//339 337//337
f 342//342 340//340 341//341
f 344//344 345//345 343//343
f 348//348 346//346 347//347
f 350//350 351//351 349//349
f 352//352 354//354 353//353
f 355//355 356//356 357//357
