# OMX visual mesh; coordinates in metres
mtllib materials.mtl
usemtl black_electronics
v 0.0257546 -0.0094300 0.0130772
v 0.0248000 -0.0081333 0.0140000
v 0.0263000 -0.0068680 0.0127500
v 0.0295000 -0.0077000 0.0115000
v 0.0207000 -0.0074007 0.0044800
v 0.0207000 -0.0074366 0.0135200
v 0.0248000 -0.0073972 0.0051011
v 0.0248000 -0.0070524 0.0134000
v 0.0255500 -0.0099000 0.0044200
v 0.0257546 -0.0094300 0.0130772
v 0.0248000 -0.0080760 0.0124980
v 0.0248000 -0.0073972 0.0051011
v 0.0248000 -0.0080200 0.0115000
v 0.0248000 -0.0073800 0.0102500
v 0.0248000 -0.0080200 0.0077500
v 0.0248000 -0.0080760 0.0124980
v 0.0248000 -0.0073972 0.0051011
v 0.0248000 -0.0070524 0.0134000
v 0.0248000 -0.0073800 0.0102500
v 0.0248000 -0.0073800 0.0077500
v 0.0248000 -0.0080760 0.0124980
v 0.0248000 -0.0080200 0.0115000
v 0.0248000 -0.0073800 0.0102500
v 0.0208000 -0.0077000 0.0115000
v 0.0263000 -0.0070600 0.0050900
v 0.0207000 -0.0074007 0.0044800
v 0.0263000 -0.0068680 0.0127500
v 0.0207000 -0.0074366 0.0135200
v 0.0255500 -0.0099000 0.0044200
v 0.0263000 -0.0070600 0.0050900
v 0.0257546 -0.0094300 0.0130772
v 0.0263000 -0.0080200 0.0102500
v 0.0263000 -0.0080200 0.0077500
v 0.0263000 -0.0070600 0.0050900
v 0.0263000 -0.0068680 0.0127500
v 0.0263000 -0.0080200 0.0102500
v 0.0263000 -0.0073800 0.0077500
v 0.0216500 -0.0087762 0.0045250
v 0.0255500 -0.0099000 0.0044200
v 0.0248000 -0.0073972 0.0051011
v 0.0216500 -0.0087762 0.0045250
v 0.0248000 -0.0082500 0.0040000
v 0.0248000 -0.0073972 0.0051011
v 0.0255500 -0.0099000 0.0044200
v 0.0248000 -0.0082500 0.0040000
v 0.0263000 -0.0070600 0.0050900
v 0.0216500 -0.0087762 0.0045250
v 0.0255500 -0.0099000 0.0044200
v 0.0248000 -0.0082500 0.0040000
v 0.0248000 -0.0082500 0.0040000
v 0.0263000 -0.0070600 0.0050900
v 0.0207000 -0.0074007 0.0044800
v 0.0257546 -0.0094300 0.0130772
v 0.0216500 -0.0087762 0.0134750
v 0.0248000 -0.0080760 0.0124980
v 0.0216500 -0.0087762 0.0134750
v 0.0248000 -0.0080760 0.0124980
v 0.0248000 -0.0081333 0.0140000
v 0.0257546 -0.0094300 0.0130772
v 0.0216500 -0.0087762 0.0134750
v 0.0248000 -0.0081333 0.0140000
v 0.0248000 -0.0081333 0.0140000
v 0.0263000 -0.0068680 0.0127500
v 0.0207000 -0.0074366 0.0135200
v 0.0248000 -0.0080760 0.0124980
v 0.0248000 -0.0081333 0.0140000
v 0.0207000 -0.0074366 0.0135200
v 0.0248000 -0.0080760 0.0124980
v 0.0207000 -0.0074366 0.0135200
v 0.0248000 -0.0070524 0.0134000
v 0.0248000 -0.0082500 0.0040000
v 0.0207000 -0.0074007 0.0044800
v 0.0248000 -0.0073972 0.0051011
v 0.0248000 -0.0080760 0.0124980
v 0.0248000 -0.0073800 0.0102500
v 0.0208000 -0.0077000 0.0115000
v 0.0248000 -0.0073800 0.0102500
v 0.0248000 -0.0080200 0.0077500
v 0.0208000 -0.0077000 0.0090000
v 0.0248000 -0.0080200 0.0077500
v 0.0248000 -0.0073800 0.0077500
v 0.0208000 -0.0077000 0.0090000
v 0.0248000 -0.0073800 0.0102500
v 0.0248000 -0.0073800 0.0077500
v 0.0208000 -0.0077000 0.0090000
v 0.0248000 -0.0080200 0.0077500
v 0.0248000 -0.0073800 0.0077500
v 0.0208000 -0.0077000 0.0065000
v 0.0248000 -0.0073972 0.0051011
v 0.0248000 -0.0080200 0.0077500
v 0.0208000 -0.0077000 0.0065000
v 0.0248000 -0.0073972 0.0051011
v 0.0248000 -0.0073800 0.0077500
v 0.0208000 -0.0077000 0.0065000
v 0.0263000 -0.0068680 0.0127500
v 0.0263000 -0.0080200 0.0102500
v 0.0295000 -0.0077000 0.0115000
v 0.0257546 -0.0094300 0.0130772
v 0.0263000 -0.0080200 0.0102500
v 0.0295000 -0.0077000 0.0115000
v 0.0263000 -0.0080200 0.0102500
v 0.0263000 -0.0073800 0.0077500
v 0.0295000 -0.0077000 0.0090000
v 0.0263000 -0.0073800 0.0077500
v 0.0263000 -0.0080200 0.0077500
v 0.0295000 -0.0077000 0.0090000
v 0.0263000 -0.0080200 0.0102500
v 0.0263000 -0.0080200 0.0077500
v 0.0295000 -0.0077000 0.0090000
v 0.0263000 -0.0073800 0.0077500
v 0.0263000 -0.0080200 0.0077500
v 0.0295000 -0.0077000 0.0065000
v 0.0263000 -0.0070600 0.0050900
v 0.0263000 -0.0073800 0.0077500
v 0.0295000 -0.0077000 0.0065000
v 0.0263000 -0.0070600 0.0050900
v 0.0263000 -0.0080200 0.0077500
v 0.0295000 -0.0077000 0.0065000
vn 0.533274 -0.005517 0.845925
vn 0.661837 -0.045356 0.748274
vn 0.472741 0.011865 0.881122
vn 0.372377 0.039123 0.927256
vn 0.001453 -0.999991 -0.003969
vn 0.067193 -0.997345 0.028058
vn 0.026045 -0.999629 0.008009
vn 0.094415 -0.994675 0.041328
vn -0.940717 -0.338559 -0.020732
vn -0.843690 -0.536828 0.001580
vn -0.810212 -0.585217 -0.032838
vn -0.960604 -0.270542 -0.063611
vn -0.864842 -0.501991 -0.007307
vn -1.000000 0.000000 0.000000
vn -0.922064 -0.386740 0.015207
vn -1.000000 0.000000 0.000000
vn -1.000000 0.000000 0.000000
vn -1.000000 0.000000 0.000000
vn -1.000000 0.000000 0.000000
vn -1.000000 0.000000 0.000000
vn -0.079620 -0.995260 -0.055846
vn -0.077042 -0.963024 -0.258164
vn -0.071029 -0.887865 -0.454588
vn -0.076212 -0.952657 -0.294341
vn -0.057989 0.998004 -0.025015
vn -0.075365 0.997069 -0.013189
vn -0.085660 0.996305 -0.006168
vn -0.100471 0.994932 0.003949
vn 0.956713 -0.286051 -0.053622
vn 0.968124 -0.235598 -0.085029
vn 0.931152 -0.364624 -0.002204
vn 0.930861 -0.365369 -0.001926
vn 0.941140 -0.337331 -0.021517
vn 1.000000 0.000000 0.000000
vn 1.000000 0.000000 0.000000
vn 1.000000 0.000000 0.000000
vn 1.000000 0.000000 0.000000
vn -0.054069 -0.277259 0.959273
vn -0.054069 -0.277259 0.959273
vn -0.054069 -0.277259 0.959273
vn -0.227954 0.769792 -0.596202
vn -0.227954 0.769792 -0.596202
vn -0.227954 0.769792 -0.596202
vn 0.563137 0.045944 -0.825085
vn 0.563137 0.045944 -0.825085
vn 0.563137 0.045944 -0.825085
vn -0.109638 -0.291707 -0.950203
vn -0.109638 -0.291707 -0.950203
vn -0.109638 -0.291707 -0.950203
vn 0.044011 0.644065 -0.763703
vn 0.044011 0.644065 -0.763703
vn 0.044011 0.644065 -0.763703
vn -0.160223 -0.481507 -0.861673
vn -0.160223 -0.481507 -0.861673
vn -0.160223 -0.481507 -0.861673
vn -0.205787 0.977885 0.037327
vn -0.205787 0.977885 0.037327
vn -0.205787 0.977885 0.037327
vn -0.015071 -0.587126 0.809355
vn -0.015071 -0.587126 0.809355
vn -0.015071 -0.587126 0.809355
vn 0.030838 0.683710 0.729102
vn 0.030838 0.683710 0.729102
vn 0.030838 0.683710 0.729102
vn -0.163139 -0.985885 -0.037633
vn -0.163139 -0.985885 -0.037633
vn -0.163139 -0.985885 -0.037633
vn -0.083616 0.658815 -0.747644
vn -0.083616 0.658815 -0.747644
vn -0.083616 0.658815 -0.747644
vn -0.091701 -0.787276 0.609743
vn -0.091701 -0.787276 0.609743
vn -0.091701 -0.787276 0.609743
vn 0.016001 0.955140 0.295721
vn 0.016001 0.955140 0.295721
vn 0.016001 0.955140 0.295721
vn -0.000001 -0.968759 0.248003
vn -0.000001 -0.968759 0.248003
vn -0.000001 -0.968759 0.248003
vn -0.298272 -0.000022 -0.954481
vn -0.298272 -0.000022 -0.954481
vn -0.298272 -0.000022 -0.954481
vn -0.079745 0.996815 0.000000
vn -0.079745 0.996815 0.000000
vn -0.079745 0.996815 0.000000
vn -0.298272 0.000022 0.954481
vn -0.298272 0.000022 0.954481
vn -0.298272 0.000022 0.954481
vn -0.006351 -0.973435 -0.228877
vn -0.006351 -0.973435 -0.228877
vn -0.006351 -0.973435 -0.228877
vn -0.077735 0.996953 -0.006468
vn -0.077735 0.996953 -0.006468
vn -0.077735 0.996953 -0.006468
vn 0.072467 0.905825 -0.417407
vn 0.072467 0.905825 -0.417407
vn 0.072467 0.905825 -0.417407
vn 0.242900 -0.885983 -0.395012
vn 0.242900 -0.885983 -0.395012
vn 0.242900 -0.885983 -0.395012
vn 0.000001 0.968759 0.248003
vn 0.000001 0.968759 0.248003
vn 0.000001 0.968759 0.248003
vn 0.363849 0.000022 -0.931458
vn 0.363849 0.000022 -0.931458
vn 0.363849 0.000022 -0.931458
vn 0.099504 -0.995037 0.000000
vn 0.099504 -0.995037 0.000000
vn 0.099504 -0.995037 0.000000
vn 0.363849 -0.000022 0.931458
vn 0.363849 -0.000022 0.931458
vn 0.363849 -0.000022 0.931458
vn 0.144411 0.982434 0.118188
vn 0.144411 0.982434 0.118188
vn 0.144411 0.982434 0.118188
vn -0.038515 -0.939918 -0.339221
vn -0.038515 -0.939918 -0.339221
vn -0.038515 -0.939918 -0.339221
f 3//3 2//2 1//1
f 3//3 1//1 4//4
f 6//6 7//7 8//8
f 6//6 5//5 7//7
f 13//13 10//10 11//11
f 15//15 10//10 13//13
f 14//14 15//15 13//13
f 9//9 10//10 15//15
f 12//12 9//9 15//15
f 18//18 20//20 19//19
f 19//19 16//16 18//18
f 18//18 17//17 20//20
f 22//22 24//24 23//23
f 24//24 22//22 21//21
f 27//27 26//26 28//28
f 27//27 25//25 26//26
f 33//33 29//29 30//30
f 32//32 29//29 33//33
f 31//31 29//29 32//32
f 35//35 37//37 34//34
f 36//36 37//37 35//35
f 38//38 39//39 40//40
f 42//42 41//41 43//43
f 46//46 44//44 45//45
f 47//47 49//49 48//48
f 52//52 51//51 50//50
f 53//53 54//54 55//55
f 56//56 58//58 57//57
f 60//60 59//59 61//61
f 64//64 62//62 63//63
f 65//65 66//66 67//67
f 69//69 70//70 68//68
f 71//71 73//73 72//72
f 75//75 76//76 74//74
f 79//79 78//78 77//77
f 80//80 82//82 81//81
f 84//84 85//85 83//83
f 88//88 86//86 87//87
f 90//90 91//91 89//89
f 92//92 94//94 93//93
f 97//97 96//96 95//95
f 98//98 99//99 100//100
f 102//102 101//101 103//103
f 106//106 105//105 104//104
f 107//107 108//108 109//109
f 110//110 111//111 112//112
f 115//115 113//113 114//114
f 117//117 116//116 118//118
v 0.0207000 0.0074007 0.0135200
v 0.0207000 0.0074366 0.0044800
v 0.0248000 0.0073972 0.0128989
v 0.0248000 0.0070524 0.0046000
v 0.0255500 0.0099000 0.0135800
v 0.0255500 0.0099000 0.0044200
v 0.0248000 0.0080760 0.0055020
v 0.0248000 0.0073972 0.0128989
v 0.0248000 0.0080200 0.0077500
v 0.0248000 0.0073800 0.0102500
v 0.0248000 0.0080200 0.0115000
v 0.0248000 0.0080760 0.0055020
v 0.0248000 0.0073972 0.0128989
v 0.0248000 0.0070524 0.0046000
v 0.0248000 0.0073800 0.0077500
v 0.0248000 0.0073800 0.0102500
v 0.0263000 0.0070600 0.0129100
v 0.0207000 0.0074007 0.0135200
v 0.0259250 0.0075200 0.0043964
v 0.0207000 0.0074366 0.0044800
v 0.0263000 0.0073800 0.0077500
v 0.0295000 0.0077000 0.0065000
v 0.0255500 0.0099000 0.0135800
v 0.0263000 0.0070600 0.0129100
v 0.0255500 0.0099000 0.0044200
v 0.0259250 0.0075200 0.0043964
v 0.0263000 0.0080200 0.0077500
v 0.0263000 0.0080200 0.0102500
v 0.0263000 0.0070600 0.0129100
v 0.0263000 0.0073800 0.0077500
v 0.0263000 0.0080200 0.0102500
v 0.0263000 0.0073800 0.0115000
v 0.0263000 0.0070600 0.0129100
v 0.0263000 0.0080200 0.0102500
v 0.0263000 0.0073800 0.0115000
v 0.0295000 0.0077000 0.0115000
v 0.0216500 0.0087762 0.0134750
v 0.0255500 0.0099000 0.0135800
v 0.0248000 0.0073972 0.0128989
v 0.0216500 0.0087762 0.0134750
v 0.0248000 0.0082500 0.0140000
v 0.0248000 0.0073972 0.0128989
v 0.0255500 0.0099000 0.0135800
v 0.0248000 0.0082500 0.0140000
v 0.0263000 0.0070600 0.0129100
v 0.0216500 0.0087762 0.0134750
v 0.0255500 0.0099000 0.0135800
v 0.0248000 0.0082500 0.0140000
v 0.0248000 0.0082500 0.0140000
v 0.0263000 0.0070600 0.0129100
v 0.0207000 0.0074007 0.0135200
v 0.0255500 0.0099000 0.0044200
v 0.0216500 0.0087762 0.0045250
v 0.0248000 0.0080760 0.0055020
v 0.0216500 0.0087762 0.0045250
v 0.0248000 0.0080760 0.0055020
v 0.0259250 0.0075200 0.0043964
v 0.0255500 0.0099000 0.0044200
v 0.0216500 0.0087762 0.0045250
v 0.0259250 0.0075200 0.0043964
v 0.0248000 0.0080760 0.0055020
v 0.0259250 0.0075200 0.0043964
v 0.0207000 0.0074366 0.0044800
v 0.0248000 0.0080760 0.0055020
v 0.0207000 0.0074366 0.0044800
v 0.0248000 0.0070524 0.0046000
v 0.0248000 0.0082500 0.0140000
v 0.0207000 0.0074007 0.0135200
v 0.0248000 0.0073972 0.0128989
v 0.0248000 0.0080760 0.0055020
v 0.0248000 0.0080200 0.0077500
v 0.0208000 0.0077000 0.0065000
v 0.0248000 0.0080200 0.0077500
v 0.0248000 0.0073800 0.0077500
v 0.0208000 0.0077000 0.0065000
v 0.0248000 0.0080760 0.0055020
v 0.0248000 0.0073800 0.0077500
v 0.0208000 0.0077000 0.0065000
v 0.0248000 0.0080200 0.0077500
v 0.0248000 0.0073800 0.0077500
v 0.0208000 0.0077000 0.0090000
v 0.0248000 0.0080200 0.0077500
v 0.0248000 0.0073800 0.0102500
v 0.0208000 0.0077000 0.0090000
v 0.0248000 0.0073800 0.0077500
v 0.0248000 0.0073800 0.0102500
v 0.0208000 0.0077000 0.0090000
v 0.0248000 0.0073800 0.0102500
v 0.0248000 0.0080200 0.0115000
v 0.0208000 0.0077000 0.0115000
v 0.0248000 0.0073972 0.0128989
v 0.0248000 0.0080200 0.0115000
v 0.0208000 0.0077000 0.0115000
v 0.0248000 0.0073972 0.0128989
v 0.0248000 0.0073800 0.0102500
v 0.0208000 0.0077000 0.0115000
v 0.0263000 0.0073800 0.0077500
v 0.0263000 0.0080200 0.0077500
v 0.0295000 0.0077000 0.0065000
v 0.0259250 0.0075200 0.0043964
v 0.0263000 0.0080200 0.0077500
v 0.0295000 0.0077000 0.0065000
v 0.0263000 0.0073800 0.0077500
v 0.0263000 0.0080200 0.0077500
v 0.0295000 0.0077000 0.0090000
v 0.0263000 0.0073800 0.0077500
v 0.0263000 0.0080200 0.0102500
v 0.0295000 0.0077000 0.0090000
v 0.0263000 0.0080200 0.0077500
v 0.0263000 0.0080200 0.0102500
v 0.0295000 0.0077000 0.0090000
v 0.0263000 0.0070600 0.0129100
v 0.0263000 0.0080200 0.0102500
v 0.0295000 0.0077000 0.0115000
vn 0.001453 0.999991 0.003969
vn 0.067193 0.997345 -0.028058
vn 0.026045 0.999629 -0.008009
vn 0.094415 0.994675 -0.041328
vn -0.944787 0.324203 0.047634
vn -0.925922 0.377685 0.004693
vn -0.922814 0.385125 0.009594
vn -0.959767 0.256523 0.114209
vn -0.937875 0.346971 0.001498
vn -1.000000 0.000000 0.000000
vn -0.954539 0.296191 0.033566
vn -1.000000 0.000000 0.000000
vn -1.000000 0.000000 0.000000
vn -1.000000 0.000000 0.000000
vn -1.000000 0.000000 0.000000
vn -1.000000 0.000000 0.000000
vn -0.059710 -0.996900 -0.051234
vn -0.037060 -0.998725 -0.034286
vn 0.025271 -0.999155 -0.032409
vn 0.015904 -0.999866 -0.003969
vn 0.148589 -0.987207 -0.057826
vn 0.079832 -0.995529 -0.050486
vn 0.955352 0.291065 0.050838
vn 0.968124 0.235599 0.085029
vn 0.969006 0.230871 -0.087900
vn 0.978881 0.155554 -0.132646
vn 0.944028 0.328757 -0.027011
vn 0.941140 0.337331 0.021517
vn 1.000000 0.000000 0.000000
vn 1.000000 0.000000 0.000000
vn 1.000000 0.000000 0.000000
vn 1.000000 0.000000 0.000000
vn 0.097060 -0.970596 -0.220280
vn 0.088661 -0.886608 -0.453944
vn 0.093676 -0.936762 -0.337198
vn 0.093585 -0.935852 -0.339740
vn -0.054066 0.277248 -0.959276
vn -0.054066 0.277248 -0.959276
vn -0.054066 0.277248 -0.959276
vn -0.227954 -0.769784 0.596212
vn -0.227954 -0.769784 0.596212
vn -0.227954 -0.769784 0.596212
vn 0.563133 -0.045942 0.825088
vn 0.563133 -0.045942 0.825088
vn 0.563133 -0.045942 0.825088
vn -0.109638 0.291707 0.950203
vn -0.109638 0.291707 0.950203
vn -0.109638 0.291707 0.950203
vn 0.044012 -0.644059 0.763708
vn 0.044012 -0.644059 0.763708
vn 0.044012 -0.644059 0.763708
vn -0.135078 0.546011 0.826817
vn -0.135078 0.546011 0.826817
vn -0.135078 0.546011 0.826817
vn -0.270844 -0.942012 0.198135
vn -0.270844 -0.942012 0.198135
vn -0.270844 -0.942012 0.198135
vn -0.028477 0.005439 -0.999580
vn -0.028477 0.005439 -0.999580
vn -0.028477 0.005439 -0.999580
vn -0.021588 0.884200 -0.466610
vn -0.021588 0.884200 -0.466610
vn -0.021588 0.884200 -0.466610
vn -0.083616 -0.658815 0.747644
vn -0.083616 -0.658815 0.747644
vn -0.083616 -0.658815 0.747644
vn -0.091701 0.787268 -0.609754
vn -0.091701 0.787268 -0.609754
vn -0.091701 0.787268 -0.609754
vn -0.087421 0.995863 0.024808
vn -0.087421 0.995863 0.024808
vn -0.087421 0.995863 0.024808
vn -0.298272 -0.000022 0.954481
vn -0.298272 -0.000022 0.954481
vn -0.298272 -0.000022 0.954481
vn 0.016000 -0.955140 -0.295721
vn 0.016000 -0.955140 -0.295721
vn 0.016000 -0.955140 -0.295721
vn -0.298272 0.000022 -0.954481
vn -0.298272 0.000022 -0.954481
vn -0.298272 0.000022 -0.954481
vn -0.000001 0.968759 0.248003
vn -0.000001 0.968759 0.248003
vn -0.000001 0.968759 0.248003
vn -0.079745 -0.996815 0.000000
vn -0.079745 -0.996815 0.000000
vn -0.079745 -0.996815 0.000000
vn -0.071029 0.887865 -0.454588
vn -0.071029 0.887865 -0.454588
vn -0.071029 0.887865 -0.454588
vn -0.072889 0.911118 0.405649
vn -0.072889 0.911118 0.405649
vn -0.072889 0.911118 0.405649
vn -0.077735 -0.996953 0.006468
vn -0.077735 -0.996953 0.006468
vn -0.077735 -0.996953 0.006468
vn 0.363849 0.000022 0.931458
vn 0.363849 0.000022 0.931458
vn 0.363849 0.000022 0.931458
vn 0.039519 0.987641 -0.151669
vn 0.039519 0.987641 -0.151669
vn 0.039519 0.987641 -0.151669
vn 0.363849 -0.000022 -0.931458
vn 0.363849 -0.000022 -0.931458
vn 0.363849 -0.000022 -0.931458
vn 0.000001 -0.968759 0.248003
vn 0.000001 -0.968759 0.248003
vn 0.000001 -0.968759 0.248003
vn 0.099504 0.995037 0.000000
vn 0.099504 0.995037 0.000000
vn 0.099504 0.995037 0.000000
vn -0.038516 0.939918 0.339221
vn -0.038516 0.939918 0.339221
vn -0.038516 0.939918 0.339221
f 120//120 119//119 121//121
f 120//120 121//121 122//122
f 127//127 124//124 125//125
f 123//123 124//124 127//127
f 129//129 123//123 127//127
f 128//128 129//129 127//127
f 126//126 123//123 129//129
f 133//133 130//130 132//132
f 132//132 131//131 134//134
f 132//132 134//134 133//133
f 139//139 137//137 140//140
f 137//137 139//139 135//135
f 137//137 136//136 138//138
f 137//137 135//135 136//136
f 145//145 141//141 146//146
f 143//143 145//145 144//144
f 143//143 141//141 145//145
f 146//146 141//141 142//142
f 148//148 150//150 147//147
f 149//149 150//150 148//148
f 153//153 152//152 154//154
f 154//154 151//151 153//153
f 155//155 156//156 157//157
f 159//159 158//158 160//160
f 163//163 161//161 162//162
f 164//164 166//166 165//165
f 169//169 168//168 167//167
f 170//170 171//171 172//172
f 173//173 175//175 174//174
f 177//177 176//176 178//178
f 179//179 180//180 181//181
f 183//183 184//184 182//182
f 185//185 187//187 186//186
f 190//190 189//189 188//188
f 191//191 193//193 192//192
f 195//195 196//196 194//194
f 199//199 197//197 198//198
f 200//200 202//202 201//201
f 204//204 205//205 203//203
f 208//208 207//207 206//206
f 210//210 211//211 209//209
f 212//212 214//214 213//213
f 217//217 216//216 215//215
f 218//218 219//219 220//220
f 221//221 222//222 223//223
f 226//226 225//225 224//224
f 227//227 228//228 229//229
f 231//231 230//230 232//232
