# OMX visual mesh; coordinates in metres
mtllib materials.mtl
usemtl black_electronics
v 0.0330200 -0.0080000 0.0974007
v 0.0239800 -0.0080000 0.0974366
v 0.0323989 -0.0039000 0.0973972
v 0.0241000 -0.0039000 0.0970524
v 0.0330800 -0.0031500 0.0999000
v 0.0239200 -0.0031500 0.0999000
v 0.0250020 -0.0039000 0.0980760
v 0.0323989 -0.0039000 0.0973972
v 0.0260000 -0.0039000 0.0980200
v 0.0272500 -0.0039000 0.0973800
v 0.0297500 -0.0039000 0.0980200
v 0.0250020 -0.0039000 0.0980760
v 0.0323989 -0.0039000 0.0973972
v 0.0241000 -0.0039000 0.0970524
v 0.0272500 -0.0039000 0.0973800
v 0.0297500 -0.0039000 0.0973800
v 0.0250020 -0.0039000 0.0980760
v 0.0260000 -0.0039000 0.0980200
v 0.0272500 -0.0039000 0.0973800
v 0.0260000 -0.0079000 0.0977000
v 0.0324100 -0.0024000 0.0970600
v 0.0330200 -0.0080000 0.0974007
v 0.0238964 -0.0027750 0.0975200
v 0.0239800 -0.0080000 0.0974366
v 0.0272500 -0.0024000 0.0973800
v 0.0260000 0.0008000 0.0977000
v 0.0330800 -0.0031500 0.0999000
v 0.0324100 -0.0024000 0.0970600
v 0.0239200 -0.0031500 0.0999000
v 0.0238964 -0.0027750 0.0975200
v 0.0272500 -0.0024000 0.0980200
v 0.0297500 -0.0024000 0.0980200
v 0.0324100 -0.0024000 0.0970600
v 0.0272500 -0.0024000 0.0973800
v 0.0297500 -0.0024000 0.0980200
v 0.0310000 -0.0024000 0.0973800
v 0.0324100 -0.0024000 0.0970600
v 0.0297500 -0.0024000 0.0980200
v 0.0310000 -0.0024000 0.0973800
v 0.0310000 0.0008000 0.0977000
v 0.0329750 -0.0070500 0.0987762
v 0.0330800 -0.0031500 0.0999000
v 0.0323989 -0.0039000 0.0973972
v 0.0329750 -0.0070500 0.0987762
v 0.0335000 -0.0039000 0.0982500
v 0.0323989 -0.0039000 0.0973972
v 0.0330800 -0.0031500 0.0999000
v 0.0335000 -0.0039000 0.0982500
v 0.0324100 -0.0024000 0.0970600
v 0.0329750 -0.0070500 0.0987762
v 0.0330800 -0.0031500 0.0999000
v 0.0335000 -0.0039000 0.0982500
v 0.0335000 -0.0039000 0.0982500
v 0.0324100 -0.0024000 0.0970600
v 0.0330200 -0.0080000 0.0974007
v 0.0239200 -0.0031500 0.0999000
v 0.0240250 -0.0070500 0.0987762
v 0.0250020 -0.0039000 0.0980760
v 0.0240250 -0.0070500 0.0987762
v 0.0250020 -0.0039000 0.0980760
v 0.0238964 -0.0027750 0.0975200
v 0.0239200 -0.0031500 0.0999000
v 0.0240250 -0.0070500 0.0987762
v 0.0238964 -0.0027750 0.0975200
v 0.0250020 -0.0039000 0.0980760
v 0.0238964 -0.0027750 0.0975200
v 0.0239800 -0.0080000 0.0974366
v 0.0250020 -0.0039000 0.0980760
v 0.0239800 -0.0080000 0.0974366
v 0.0241000 -0.0039000 0.0970524
v 0.0335000 -0.0039000 0.0982500
v 0.0330200 -0.0080000 0.0974007
v 0.0323989 -0.0039000 0.0973972
v 0.0250020 -0.0039000 0.0980760
v 0.0272500 -0.0039000 0.0973800
v 0.0260000 -0.0079000 0.0977000
v 0.0272500 -0.0039000 0.0973800
v 0.0297500 -0.0039000 0.0980200
v 0.0285000 -0.0079000 0.0977000
v 0.0297500 -0.0039000 0.0980200
v 0.0297500 -0.0039000 0.0973800
v 0.0285000 -0.0079000 0.0977000
v 0.0272500 -0.0039000 0.0973800
v 0.0297500 -0.0039000 0.0973800
v 0.0285000 -0.0079000 0.0977000
v 0.0297500 -0.0039000 0.0980200
v 0.0297500 -0.0039000 0.0973800
v 0.0310000 -0.0079000 0.0977000
v 0.0323989 -0.0039000 0.0973972
v 0.0297500 -0.0039000 0.0980200
v 0.0310000 -0.0079000 0.0977000
v 0.0323989 -0.0039000 0.0973972
v 0.0297500 -0.0039000 0.0973800
v 0.0310000 -0.0079000 0.0977000
v 0.0272500 -0.0024000 0.0973800
v 0.0272500 -0.0024000 0.0980200
v 0.0260000 0.0008000 0.0977000
v 0.0238964 -0.0027750 0.0975200
v 0.0272500 -0.0024000 0.0980200
v 0.0260000 0.0008000 0.0977000
v 0.0272500 -0.0024000 0.0973800
v 0.0272500 -0.0024000 0.0980200
v 0.0285000 0.0008000 0.0977000
v 0.0272500 -0.0024000 0.0973800
v 0.0297500 -0.0024000 0.0980200
v 0.0285000 0.0008000 0.0977000
v 0.0272500 -0.0024000 0.0980200
v 0.0297500 -0.0024000 0.0980200
v 0.0285000 0.0008000 0.0977000
v 0.0324100 -0.0024000 0.0970600
v 0.0297500 -0.0024000 0.0980200
v 0.0310000 0.0008000 0.0977000
vn 0.003969 0.001452 0.999991
vn -0.028058 0.067191 0.997345
vn -0.008009 0.026043 0.999629
vn -0.041328 0.094414 0.994675
vn 0.037334 -0.949172 0.312535
vn 0.006104 -0.926455 0.376355
vn 0.021944 -0.919999 0.391305
vn 0.063614 -0.960603 0.270545
vn 0.004472 -0.944553 0.328328
vn -0.000000 -1.000000 0.000000
vn 0.013547 -0.945492 0.325363
vn -0.000000 -1.000000 0.000000
vn -0.000000 -1.000000 0.000001
vn -0.000000 -1.000000 0.000000
vn -0.000000 -1.000000 -0.000002
vn -0.000000 -1.000000 0.000001
vn 0.055815 -0.079625 0.995261
vn 0.258159 -0.077046 0.963025
vn 0.454607 -0.071033 0.887855
vn 0.294341 -0.076217 0.952657
vn -0.051232 -0.059708 -0.996900
vn -0.034284 -0.037057 -0.998725
vn -0.032410 0.025272 -0.999155
vn -0.003969 0.015905 -0.999866
vn -0.057824 0.148533 -0.987215
vn -0.050490 0.079836 -0.995529
vn 0.050841 0.955349 0.291074
vn 0.085032 0.968121 0.235607
vn -0.087903 0.969005 0.230874
vn -0.132650 0.978881 0.155553
vn -0.027011 0.944025 0.328766
vn 0.021518 0.941135 0.337344
vn 0.000000 1.000000 0.000002
vn 0.000000 1.000000 0.000000
vn 0.000000 1.000000 -0.000000
vn 0.000000 1.000000 0.000002
vn -0.220259 0.097065 -0.970600
vn -0.453963 0.088665 -0.886598
vn -0.337197 0.093681 -0.936761
vn -0.339740 0.093590 -0.935851
vn -0.959273 -0.054068 0.277257
vn -0.959273 -0.054068 0.277257
vn -0.959273 -0.054068 0.277257
vn 0.596203 -0.227953 -0.769792
vn 0.596203 -0.227953 -0.769792
vn 0.596203 -0.227953 -0.769792
vn 0.825096 0.563122 -0.045941
vn 0.825096 0.563122 -0.045941
vn 0.825096 0.563122 -0.045941
vn 0.950204 -0.109641 0.291705
vn 0.950204 -0.109641 0.291705
vn 0.950204 -0.109641 0.291705
vn 0.763704 0.044010 -0.644064
vn 0.763704 0.044010 -0.644064
vn 0.763704 0.044010 -0.644064
vn 0.826817 -0.135079 0.546010
vn 0.826817 -0.135079 0.546010
vn 0.826817 -0.135079 0.546010
vn 0.198128 -0.270840 -0.942014
vn 0.198128 -0.270840 -0.942014
vn 0.198128 -0.270840 -0.942014
vn -0.999580 -0.028479 0.005439
vn -0.999580 -0.028479 0.005439
vn -0.999580 -0.028479 0.005439
vn -0.466607 -0.021590 0.884201
vn -0.466607 -0.021590 0.884201
vn -0.466607 -0.021590 0.884201
vn 0.747645 -0.083616 -0.658814
vn 0.747645 -0.083616 -0.658814
vn 0.747645 -0.083616 -0.658814
vn -0.609744 -0.091701 0.787276
vn -0.609744 -0.091701 0.787276
vn -0.609744 -0.091701 0.787276
vn -0.295721 0.015998 -0.955140
vn -0.295721 0.015998 -0.955140
vn -0.295721 0.015998 -0.955140
vn -0.248015 0.000000 0.968756
vn -0.248015 0.000000 0.968756
vn -0.248015 0.000000 0.968756
vn 0.954480 -0.298275 -0.000003
vn 0.954480 -0.298275 -0.000003
vn 0.954480 -0.298275 -0.000003
vn -0.000000 -0.079749 -0.996815
vn -0.000000 -0.079749 -0.996815
vn -0.000000 -0.079749 -0.996815
vn -0.954480 -0.298275 0.000003
vn -0.954480 -0.298275 0.000003
vn -0.954480 -0.298275 0.000003
vn 0.228885 -0.006352 0.973433
vn 0.228885 -0.006352 0.973433
vn 0.228885 -0.006352 0.973433
vn 0.006472 -0.077738 -0.996953
vn 0.006472 -0.077738 -0.996953
vn 0.006472 -0.077738 -0.996953
vn 0.931458 0.363850 0.000000
vn 0.931458 0.363850 0.000000
vn 0.931458 0.363850 0.000000
vn -0.151675 0.039521 0.987640
vn -0.151675 0.039521 0.987640
vn -0.151675 0.039521 0.987640
vn -0.931457 0.363850 0.000000
vn -0.931457 0.363850 0.000000
vn -0.931457 0.363850 0.000000
vn 0.248015 0.000000 -0.968756
vn 0.248015 0.000000 -0.968756
vn 0.248015 0.000000 -0.968756
vn 0.000000 0.099509 0.995037
vn 0.000000 0.099509 0.995037
vn 0.000000 0.099509 0.995037
vn 0.339221 -0.038512 0.939918
vn 0.339221 -0.038512 0.939918
vn 0.339221 -0.038512 0.939918
f 2//2 1//1 3//3
f 2//2 3//3 4//4
f 9//9 6//6 7//7
f 11//11 6//6 9//9
f 10//10 11//11 9//9
f 5//5 6//6 11//11
f 8//8 5//5 11//11
f 15//15 12//12 14//14
f 14//14 13//13 16//16
f 14//14 16//16 15//15
f 18//18 20//20 19//19
f 20//20 18//18 17//17
f 23//23 22//22 24//24
f 23//23 21//21 22//22
f 23//23 25//25 21//21
f 25//25 23//23 26//26
f 32//32 27//27 28//28
f 31//31 27//27 32//32
f 29//29 31//31 30//30
f 29//29 27//27 31//31
f 34//34 36//36 33//33
f 35//35 36//36 34//34
f 39//39 38//38 40//40
f 40//40 37//37 39//39
f 41//41 42//42 43//43
f 45//45 44//44 46//46
f 49//49 47//47 48//48
f 50//50 52//52 51//51
f 55//55 54//54 53//53
f 56//56 57//57 58//58
f 59//59 61//61 60//60
f 63//63 62//62 64//64
f 65//65 66//66 67//67
f 69//69 70//70 68//68
f 71//71 73//73 72//72
f 75//75 76//76 74//74
f 79//79 78//78 77//77
f 80//80 82//82 81//81
f 84//84 85//85 83//83
f 88//88 86//86 87//87
f 90//90 91//91 89//89
f 92//92 94//94 93//93
f 97//97 96//96 95//95
f 98//98 99//99 100//100
f 101//101 102//102 103//103
f 106//106 105//105 104//104
f 107//107 108//108 109//109
f 111//111 110//110 112//112
v 0.0239800 -0.0080000 0.0825993
v 0.0330200 -0.0080000 0.0825635
v 0.0246011 -0.0039000 0.0826028
v 0.0329000 -0.0039000 0.0829477
v 0.0239200 -0.0031500 0.0801000
v 0.0330800 -0.0031500 0.0801000
v 0.0319980 -0.0039000 0.0819240
v 0.0246011 -0.0039000 0.0826028
v 0.0310000 -0.0039000 0.0819800
v 0.0297500 -0.0039000 0.0826200
v 0.0272500 -0.0039000 0.0819800
v 0.0319980 -0.0039000 0.0819240
v 0.0246011 -0.0039000 0.0826028
v 0.0329000 -0.0039000 0.0829477
v 0.0297500 -0.0039000 0.0826200
v 0.0272500 -0.0039000 0.0826200
v 0.0319980 -0.0039000 0.0819240
v 0.0310000 -0.0039000 0.0819800
v 0.0297500 -0.0039000 0.0826200
v 0.0310000 -0.0079000 0.0823000
v 0.0245900 -0.0024000 0.0829400
v 0.0239800 -0.0080000 0.0825993
v 0.0331036 -0.0027750 0.0824800
v 0.0330200 -0.0080000 0.0825635
v 0.0297500 -0.0024000 0.0826200
v 0.0310000 0.0008000 0.0823000
v 0.0239200 -0.0031500 0.0801000
v 0.0245900 -0.0024000 0.0829400
v 0.0330800 -0.0031500 0.0801000
v 0.0331036 -0.0027750 0.0824800
v 0.0297500 -0.0024000 0.0819800
v 0.0272500 -0.0024000 0.0819800
v 0.0245900 -0.0024000 0.0829400
v 0.0297500 -0.0024000 0.0826200
v 0.0272500 -0.0024000 0.0819800
v 0.0260000 -0.0024000 0.0826200
v 0.0245900 -0.0024000 0.0829400
v 0.0272500 -0.0024000 0.0819800
v 0.0260000 -0.0024000 0.0826200
v 0.0260000 0.0008000 0.0823000
v 0.0240250 -0.0070500 0.0812238
v 0.0239200 -0.0031500 0.0801000
v 0.0246011 -0.0039000 0.0826028
v 0.0240250 -0.0070500 0.0812238
v 0.0235000 -0.0039000 0.0817500
v 0.0246011 -0.0039000 0.0826028
v 0.0239200 -0.0031500 0.0801000
v 0.0235000 -0.0039000 0.0817500
v 0.0245900 -0.0024000 0.0829400
v 0.0240250 -0.0070500 0.0812238
v 0.0239200 -0.0031500 0.0801000
v 0.0235000 -0.0039000 0.0817500
v 0.0235000 -0.0039000 0.0817500
v 0.0245900 -0.0024000 0.0829400
v 0.0239800 -0.0080000 0.0825993
v 0.0330800 -0.0031500 0.0801000
v 0.0329750 -0.0070500 0.0812238
v 0.0319980 -0.0039000 0.0819240
v 0.0329750 -0.0070500 0.0812238
v 0.0319980 -0.0039000 0.0819240
v 0.0331036 -0.0027750 0.0824800
v 0.0330800 -0.0031500 0.0801000
v 0.0329750 -0.0070500 0.0812238
v 0.0331036 -0.0027750 0.0824800
v 0.0319980 -0.0039000 0.0819240
v 0.0331036 -0.0027750 0.0824800
v 0.0330200 -0.0080000 0.0825635
v 0.0319980 -0.0039000 0.0819240
v 0.0330200 -0.0080000 0.0825635
v 0.0329000 -0.0039000 0.0829477
v 0.0235000 -0.0039000 0.0817500
v 0.0239800 -0.0080000 0.0825993
v 0.0246011 -0.0039000 0.0826028
v 0.0319980 -0.0039000 0.0819240
v 0.0297500 -0.0039000 0.0826200
v 0.0310000 -0.0079000 0.0823000
v 0.0297500 -0.0039000 0.0826200
v 0.0272500 -0.0039000 0.0819800
v 0.0285000 -0.0079000 0.0823000
v 0.0272500 -0.0039000 0.0819800
v 0.0272500 -0.0039000 0.0826200
v 0.0285000 -0.0079000 0.0823000
v 0.0297500 -0.0039000 0.0826200
v 0.0272500 -0.0039000 0.0826200
v 0.0285000 -0.0079000 0.0823000
v 0.0272500 -0.0039000 0.0819800
v 0.0272500 -0.0039000 0.0826200
v 0.0260000 -0.0079000 0.0823000
v 0.0246011 -0.0039000 0.0826028
v 0.0272500 -0.0039000 0.0819800
v 0.0260000 -0.0079000 0.0823000
v 0.0246011 -0.0039000 0.0826028
v 0.0272500 -0.0039000 0.0826200
v 0.0260000 -0.0079000 0.0823000
v 0.0297500 -0.0024000 0.0826200
v 0.0297500 -0.0024000 0.0819800
v 0.0310000 0.0008000 0.0823000
v 0.0331036 -0.0027750 0.0824800
v 0.0297500 -0.0024000 0.0819800
v 0.0310000 0.0008000 0.0823000
v 0.0297500 -0.0024000 0.0826200
v 0.0297500 -0.0024000 0.0819800
v 0.0285000 0.0008000 0.0823000
v 0.0297500 -0.0024000 0.0826200
v 0.0272500 -0.0024000 0.0819800
v 0.0285000 0.0008000 0.0823000
v 0.0297500 -0.0024000 0.0819800
v 0.0272500 -0.0024000 0.0819800
v 0.0285000 0.0008000 0.0823000
v 0.0245900 -0.0024000 0.0829400
v 0.0272500 -0.0024000 0.0819800
v 0.0260000 0.0008000 0.0823000
vn -0.003969 0.001455 -0.999991
vn 0.028058 0.067195 -0.997345
vn 0.008009 0.026047 -0.999629
vn 0.041328 0.094417 -0.994675
vn -0.037333 -0.949173 -0.312534
vn -0.006107 -0.926455 -0.376356
vn -0.021957 -0.919995 -0.391314
vn -0.063612 -0.960603 -0.270546
vn -0.004475 -0.944553 -0.328329
vn 0.000000 -1.000000 0.000000
vn -0.013547 -0.945493 -0.325362
vn 0.000000 -1.000000 0.000000
vn 0.000000 -1.000000 -0.000000
vn 0.000000 -1.000000 0.000000
vn 0.000000 -1.000000 0.000002
vn 0.000000 -1.000000 -0.000000
vn -0.055845 -0.079621 -0.995260
vn -0.258169 -0.077043 -0.963023
vn -0.454598 -0.071030 -0.887860
vn -0.294347 -0.076213 -0.952655
vn 0.051235 -0.059714 0.996900
vn 0.034286 -0.037060 0.998725
vn 0.032412 0.025269 0.999155
vn 0.003969 0.015905 0.999866
vn 0.057827 0.148523 0.987217
vn 0.050494 0.079834 0.995528
vn -0.050840 0.955349 -0.291073
vn -0.085032 0.968122 -0.235606
vn 0.087901 0.969005 -0.230874
vn 0.132649 0.978881 -0.155554
vn 0.027010 0.944026 -0.328765
vn -0.021518 0.941136 -0.337342
vn -0.000000 1.000000 -0.000001
vn -0.000000 1.000000 -0.000000
vn -0.000000 1.000000 -0.000000
vn -0.000000 1.000000 -0.000001
vn 0.220269 0.097065 0.970598
vn 0.453954 0.088665 0.886603
vn 0.337197 0.093681 0.936761
vn 0.339740 0.093590 0.935851
vn 0.959273 -0.054066 -0.277257
vn 0.959273 -0.054066 -0.277257
vn 0.959273 -0.054066 -0.277257
vn -0.596209 -0.227954 0.769787
vn -0.596209 -0.227954 0.769787
vn -0.596209 -0.227954 0.769787
vn -0.825095 0.563122 0.045941
vn -0.825095 0.563122 0.045941
vn -0.825095 0.563122 0.045941
vn -0.950203 -0.109641 -0.291708
vn -0.950203 -0.109641 -0.291708
vn -0.950203 -0.109641 -0.291708
vn -0.763710 0.044007 0.644058
vn -0.763710 0.044007 0.644058
vn -0.763710 0.044007 0.644058
vn -0.826816 -0.135078 -0.546013
vn -0.826816 -0.135078 -0.546013
vn -0.826816 -0.135078 -0.546013
vn -0.198128 -0.270840 0.942014
vn -0.198128 -0.270840 0.942014
vn -0.198128 -0.270840 0.942014
vn 0.999580 -0.028479 -0.005439
vn 0.999580 -0.028479 -0.005439
vn 0.999580 -0.028479 -0.005439
vn 0.466608 -0.021590 -0.884201
vn 0.466608 -0.021590 -0.884201
vn 0.466608 -0.021590 -0.884201
vn -0.747650 -0.083617 0.658808
vn -0.747650 -0.083617 0.658808
vn -0.747650 -0.083617 0.658808
vn 0.609751 -0.091699 -0.787271
vn 0.609751 -0.091699 -0.787271
vn 0.609751 -0.091699 -0.787271
vn 0.295727 0.016000 0.955139
vn 0.295727 0.016000 0.955139
vn 0.295727 0.016000 0.955139
vn 0.248009 -0.000002 -0.968758
vn 0.248009 -0.000002 -0.968758
vn 0.248009 -0.000002 -0.968758
vn -0.954480 -0.298275 0.000000
vn -0.954480 -0.298275 0.000000
vn -0.954480 -0.298275 0.000000
vn 0.000000 -0.079746 0.996815
vn 0.000000 -0.079746 0.996815
vn 0.000000 -0.079746 0.996815
vn 0.954480 -0.298275 0.000000
vn 0.954480 -0.298275 0.000000
vn 0.954480 -0.298275 0.000000
vn -0.228880 -0.006350 -0.973434
vn -0.228880 -0.006350 -0.973434
vn -0.228880 -0.006350 -0.973434
vn -0.006472 -0.077738 0.996953
vn -0.006472 -0.077738 0.996953
vn -0.006472 -0.077738 0.996953
vn -0.931457 0.363850 -0.000000
vn -0.931457 0.363850 -0.000000
vn -0.931457 0.363850 -0.000000
vn 0.151667 0.039520 -0.987641
vn 0.151667 0.039520 -0.987641
vn 0.151667 0.039520 -0.987641
vn 0.931457 0.363851 -0.000000
vn 0.931457 0.363851 -0.000000
vn 0.931457 0.363851 -0.000000
vn -0.248010 0.000002 0.968758
vn -0.248010 0.000002 0.968758
vn -0.248010 0.000002 0.968758
vn -0.000000 0.099504 -0.995037
vn -0.000000 0.099504 -0.995037
vn -0.000000 0.099504 -0.995037
vn -0.339221 -0.038516 -0.939918
vn -0.339221 -0.038516 -0.939918
vn -0.339221 -0.038516 -0.939918
f 114//114 113//113 115//115
f 114//114 115//115 116//116
f 121//121 118//118 119//119
f 123//123 118//118 121//121
f 122//122 123//123 121//121
f 117//117 118//118 123//123
f 120//120 117//117 123//123
f 127//127 124//124 126//126
f 126//126 125//125 128//128
f 126//126 128//128 127//127
f 130//130 132//132 131//131
f 132//132 130//130 129//129
f 135//135 134//134 136//136
f 135//135 133//133 134//134
f 135//135 137//137 133//133
f 137//137 135//135 138//138
f 144//144 139//139 140//140
f 143//143 139//139 144//144
f 141//141 143//143 142//142
f 141//141 139//139 143//143
f 146//146 148//148 145//145
f 147//147 148//148 146//146
f 151//151 150//150 152//152
f 152//152 149//149 151//151
f 153//153 154//154 155//155
f 157//157 156//156 158//158
f 161//161 159//159 160//160
f 162//162 164//164 163//163
f 167//167 166//166 165//165
f 168//168 169//169 170//170
f 171//171 173//173 172//172
f 175//175 174//174 176//176
f 177//177 178//178 179//179
f 181//181 182//182 180//180
f 183//183 185//185 184//184
f 187//187 188//188 186//186
f 191//191 190//190 189//189
f 192//192 194//194 193//193
f 196//196 197//197 195//195
f 200//200 198//198 199//199
f 202//202 203//203 201//201
f 204//204 206//206 205//205
f 209//209 208//208 207//207
f 210//210 211//211 212//212
f 213//213 214//214 215//215
f 218//218 217//217 216//216
f 219//219 220//220 221//221
f 223//223 222//222 224//224
