# OMX visual mesh; coordinates in metres
mtllib materials.mtl
usemtl printed_charcoal
v 0.0142000 -0.0147000 -0.0082500
v 0.0142000 -0.0100357 -0.0083571
v -0.0004858 -0.0147000 -0.0082372
v -0.0014071 -0.0180000 -0.0081809
v 0.0152000 -0.0180000 -0.0082500
v 0.0172000 -0.0160000 -0.0082500
v 0.0172000 -0.0100294 -0.0082941
v 0.0142000 -0.0147000 0.0082500
v 0.0172000 -0.0147000 0.0082500
v 0.0172000 -0.0160000 0.0082500
v -0.0005181 -0.0147000 0.0082364
v 0.0152000 -0.0180000 0.0082500
v -0.0025670 -0.0147000 -0.0079005
v -0.0053861 -0.0147000 -0.0063065
v -0.0076747 -0.0147000 -0.0032913
v -0.0082740 -0.0147000 0.0009793
v -0.0068637 -0.0147000 0.0047082
v -0.0045978 -0.0147000 0.0068812
v -0.0023364 -0.0147000 0.0079446
v -0.0051827 -0.0180000 -0.0065742
v -0.0076748 -0.0180000 -0.0031790
v -0.0083155 -0.0180000 0.0006545
v -0.0072300 -0.0180000 0.0040491
v -0.0053155 -0.0180000 0.0063747
v -0.0019365 -0.0180000 0.0081164
v 0.0142000 0.0100250 -0.0083250
v 0.0142000 0.0147000 -0.0082500
v 0.0172000 0.0100455 -0.0083182
v 0.0172000 0.0160000 -0.0082500
v 0.0152000 0.0180000 -0.0082500
v -0.0004316 0.0180000 -0.0082415
v 0.0142000 0.0147000 0.0082500
v 0.0172000 0.0160000 0.0082500
v 0.0172000 0.0147000 0.0082500
v 0.0152000 0.0180000 0.0082500
v -0.0014071 0.0180000 0.0081809
v -0.0021031 0.0147000 0.0080778
v -0.0053861 0.0147000 0.0063065
v -0.0075157 0.0147000 0.0035765
v -0.0083349 0.0147000 -0.0006560
v -0.0068637 0.0147000 -0.0047082
v -0.0045978 0.0147000 -0.0068812
v -0.0017849 0.0147000 -0.0081259
v -0.0051827 0.0180000 0.0065743
v -0.0076748 0.0180000 0.0031790
v -0.0082994 0.0180000 -0.0000980
v -0.0077644 0.0180000 -0.0028644
v -0.0065599 0.0180000 -0.0050539
v -0.0046038 0.0180000 -0.0068900
v -0.0021589 0.0180000 -0.0079947
v 0.0142000 -0.0147000 -0.0082500
v 0.0142000 -0.0100357 -0.0083571
v 0.0142000 0.0100250 -0.0083250
v 0.0142000 0.0147000 -0.0082500
v 0.0142000 0.0147000 0.0082500
v 0.0142000 0.0090000 -0.0095000
v 0.0142000 -0.0090000 -0.0095000
v 0.0142000 -0.0147000 0.0082500
v 0.0142000 -0.0100000 0.0037500
v 0.0142000 -0.0060000 0.0037500
v 0.0142000 -0.0060000 0.0142500
v 0.0142000 -0.0100000 0.0142500
v 0.0142000 -0.0100000 0.0235000
v 0.0142000 -0.0090000 0.0245000
v 0.0142000 0.0090000 0.0245000
v 0.0142000 0.0100000 0.0235000
v 0.0142000 0.0100000 0.0142500
v 0.0142000 0.0060000 0.0142500
v 0.0142000 0.0060000 0.0037500
v 0.0142000 0.0100000 0.0037500
v 0.0142000 -0.0090894 0.0219450
v 0.0142000 -0.0083383 0.0213007
v 0.0142000 -0.0072603 0.0215089
v 0.0142000 -0.0067489 0.0225162
v 0.0142000 -0.0074256 0.0236273
v 0.0142000 -0.0085567 0.0235927
v 0.0142000 -0.0091809 0.0228671
v 0.0142000 0.0091783 -0.0078828
v 0.0142000 0.0082008 -0.0087680
v 0.0142000 0.0069749 -0.0082042
v 0.0142000 0.0068496 -0.0069876
v 0.0142000 0.0079836 -0.0062320
v 0.0142000 0.0090460 -0.0068403
v 0.0142000 0.0092123 0.0224046
v 0.0142000 0.0088324 0.0215760
v 0.0142000 0.0079041 0.0212811
v 0.0142000 0.0069505 0.0217988
v 0.0142000 0.0068636 0.0229879
v 0.0142000 0.0078993 0.0237799
v 0.0142000 0.0090141 0.0231965
v 0.0142000 -0.0091530 -0.0080498
v 0.0142000 -0.0080812 -0.0087340
v 0.0142000 -0.0072462 -0.0084562
v 0.0142000 -0.0067914 -0.0077404
v 0.0142000 -0.0069376 -0.0069050
v 0.0142000 -0.0078495 -0.0062283
v 0.0142000 -0.0090097 -0.0067860
v 0.0142000 -0.0067914 -0.0077404
v 0.0142000 -0.0069376 -0.0069050
v 0.0142000 -0.0078495 -0.0062283
v 0.0172000 -0.0071612 -0.0066152
v 0.0172000 -0.0080821 -0.0062514
v 0.0172000 -0.0067568 -0.0074672
v 0.0142000 -0.0078495 -0.0062283
v 0.0142000 -0.0090097 -0.0067860
v 0.0172000 -0.0080821 -0.0062514
v 0.0172000 -0.0090141 -0.0068035
v 0.0142000 -0.0091530 -0.0080498
v 0.0142000 -0.0080812 -0.0087340
v 0.0142000 -0.0072462 -0.0084562
v 0.0142000 -0.0090097 -0.0067860
v 0.0172000 -0.0090141 -0.0068035
v 0.0172000 -0.0092123 -0.0075954
v 0.0172000 -0.0087780 -0.0084868
v 0.0172000 -0.0073904 -0.0086225
v 0.0172000 -0.0160000 -0.0082500
v 0.0172000 -0.0100294 -0.0082941
v 0.0172000 0.0100455 -0.0083182
v 0.0172000 0.0160000 -0.0082500
v 0.0172000 -0.0071612 -0.0066152
v 0.0172000 -0.0080821 -0.0062514
v 0.0172000 -0.0090141 -0.0068035
v 0.0172000 -0.0092123 -0.0075954
v 0.0172000 0.0060000 0.0037500
v 0.0172000 0.0100000 0.0037500
v 0.0172000 0.0060000 0.0142500
v 0.0172000 0.0100000 0.0142500
v 0.0172000 0.0100000 0.0235000
v 0.0172000 0.0090000 0.0245000
v 0.0172000 -0.0090000 0.0245000
v 0.0172000 -0.0100000 0.0235000
v 0.0172000 -0.0100000 0.0142500
v 0.0172000 -0.0060000 0.0142500
v 0.0172000 -0.0060000 0.0037500
v 0.0172000 -0.0100000 0.0037500
v 0.0172000 -0.0147000 0.0082500
v 0.0172000 -0.0160000 0.0082500
v 0.0172000 -0.0090000 -0.0095000
v 0.0172000 0.0090000 -0.0095000
v 0.0172000 0.0160000 0.0082500
v 0.0172000 0.0147000 0.0082500
v 0.0172000 -0.0090626 0.0218674
v 0.0172000 -0.0083457 0.0213308
v 0.0172000 -0.0075458 0.0213629
v 0.0172000 -0.0068809 0.0219841
v 0.0172000 -0.0068728 0.0230197
v 0.0172000 -0.0075346 0.0236235
v 0.0172000 -0.0083334 0.0236822
v 0.0172000 -0.0091497 0.0229937
v 0.0172000 0.0085159 -0.0086191
v 0.0172000 0.0077018 -0.0086775
v 0.0172000 0.0068331 -0.0080197
v 0.0172000 0.0070333 -0.0067175
v 0.0172000 0.0078720 -0.0062875
v 0.0172000 0.0087825 -0.0065333
v 0.0172000 0.0092496 -0.0076979
v 0.0172000 0.0089267 0.0216208
v 0.0172000 0.0076959 0.0213013
v 0.0172000 0.0067736 0.0221541
v 0.0172000 0.0070951 0.0233365
v 0.0172000 0.0082997 0.0237484
v 0.0172000 0.0091860 0.0228345
v 0.0172000 -0.0087780 -0.0084868
v 0.0172000 -0.0073904 -0.0086225
v 0.0172000 -0.0067568 -0.0074672
v 0.0142000 -0.0072462 -0.0084562
v 0.0142000 -0.0067914 -0.0077404
v 0.0172000 -0.0073904 -0.0086225
v 0.0172000 -0.0067568 -0.0074672
v 0.0142000 -0.0083383 0.0213007
v 0.0142000 -0.0072603 0.0215089
v 0.0142000 -0.0067489 0.0225162
v 0.0142000 -0.0074256 0.0236273
v 0.0172000 -0.0083457 0.0213308
v 0.0172000 -0.0075458 0.0213629
v 0.0172000 -0.0068809 0.0219841
v 0.0172000 -0.0068728 0.0230197
v 0.0172000 -0.0075346 0.0236235
v 0.0142000 -0.0074256 0.0236273
v 0.0142000 -0.0085567 0.0235927
v 0.0172000 -0.0075346 0.0236235
v 0.0172000 -0.0083334 0.0236822
v 0.0142000 -0.0085567 0.0235927
v 0.0142000 -0.0091809 0.0228671
v 0.0172000 -0.0083334 0.0236822
v 0.0172000 -0.0091497 0.0229937
v 0.0142000 -0.0090894 0.0219450
v 0.0142000 -0.0091809 0.0228671
v 0.0172000 -0.0090626 0.0218674
v 0.0172000 -0.0091497 0.0229937
v 0.0142000 -0.0090894 0.0219450
v 0.0142000 -0.0083383 0.0213007
v 0.0172000 -0.0090626 0.0218674
v 0.0172000 -0.0083457 0.0213308
v 0.0142000 0.0069749 -0.0082042
v 0.0142000 0.0068496 -0.0069876
v 0.0172000 0.0068331 -0.0080197
v 0.0172000 0.0070333 -0.0067175
v 0.0142000 0.0068496 -0.0069876
v 0.0142000 0.0079836 -0.0062320
v 0.0172000 0.0070333 -0.0067175
v 0.0172000 0.0078720 -0.0062875
v 0.0142000 0.0079836 -0.0062320
v 0.0142000 0.0090460 -0.0068403
v 0.0172000 0.0078720 -0.0062875
v 0.0172000 0.0087825 -0.0065333
v 0.0142000 0.0091783 -0.0078828
v 0.0142000 0.0090460 -0.0068403
v 0.0172000 0.0087825 -0.0065333
v 0.0172000 0.0092496 -0.0076979
v 0.0142000 0.0091783 -0.0078828
v 0.0142000 0.0082008 -0.0087680
v 0.0172000 0.0085159 -0.0086191
v 0.0172000 0.0092496 -0.0076979
v 0.0142000 0.0082008 -0.0087680
v 0.0142000 0.0069749 -0.0082042
v 0.0172000 0.0085159 -0.0086191
v 0.0172000 0.0077018 -0.0086775
v 0.0172000 0.0068331 -0.0080197
v 0.0142000 0.0069505 0.0217988
v 0.0142000 0.0068636 0.0229879
v 0.0172000 0.0067736 0.0221541
v 0.0172000 0.0070951 0.0233365
v 0.0142000 0.0068636 0.0229879
v 0.0142000 0.0078993 0.0237799
v 0.0172000 0.0070951 0.0233365
v 0.0172000 0.0082997 0.0237484
v 0.0142000 0.0092123 0.0224046
v 0.0142000 0.0088324 0.0215760
v 0.0142000 0.0078993 0.0237799
v 0.0142000 0.0090141 0.0231965
v 0.0172000 0.0089267 0.0216208
v 0.0172000 0.0082997 0.0237484
v 0.0172000 0.0091860 0.0228345
v 0.0142000 0.0088324 0.0215760
v 0.0142000 0.0079041 0.0212811
v 0.0172000 0.0089267 0.0216208
v 0.0172000 0.0076959 0.0213013
v 0.0142000 0.0079041 0.0212811
v 0.0142000 0.0069505 0.0217988
v 0.0172000 0.0076959 0.0213013
v 0.0172000 0.0067736 0.0221541
v 0.0142000 0.0147000 0.0082500
v 0.0142000 0.0100000 0.0037500
v 0.0172000 0.0100000 0.0037500
v 0.0172000 0.0147000 0.0082500
v 0.0142000 0.0060000 0.0037500
v 0.0142000 0.0100000 0.0037500
v 0.0172000 0.0060000 0.0037500
v 0.0172000 0.0100000 0.0037500
v 0.0142000 0.0060000 0.0142500
v 0.0142000 0.0060000 0.0037500
v 0.0172000 0.0060000 0.0037500
v 0.0172000 0.0060000 0.0142500
v 0.0142000 0.0100000 0.0142500
v 0.0142000 0.0060000 0.0142500
v 0.0172000 0.0060000 0.0142500
v 0.0172000 0.0100000 0.0142500
v 0.0142000 0.0100000 0.0235000
v 0.0142000 0.0100000 0.0142500
v 0.0172000 0.0100000 0.0142500
v 0.0172000 0.0100000 0.0235000
v 0.0142000 0.0100250 -0.0083250
v 0.0172000 0.0100455 -0.0083182
v 0.0142000 0.0090000 -0.0095000
v 0.0172000 0.0090000 -0.0095000
v 0.0142000 0.0090000 -0.0095000
v 0.0142000 -0.0090000 -0.0095000
v 0.0172000 -0.0090000 -0.0095000
v 0.0172000 0.0090000 -0.0095000
v 0.0142000 -0.0100357 -0.0083571
v 0.0172000 -0.0100294 -0.0082941
v 0.0142000 -0.0090000 -0.0095000
v 0.0172000 -0.0090000 -0.0095000
v 0.0142000 -0.0100000 0.0142500
v 0.0142000 -0.0100000 0.0235000
v 0.0172000 -0.0100000 0.0235000
v 0.0172000 -0.0100000 0.0142500
v 0.0142000 -0.0060000 0.0142500
v 0.0142000 -0.0100000 0.0142500
v 0.0172000 -0.0100000 0.0142500
v 0.0172000 -0.0060000 0.0142500
v 0.0142000 -0.0060000 0.0037500
v 0.0142000 -0.0060000 0.0142500
v 0.0172000 -0.0060000 0.0142500
v 0.0172000 -0.0060000 0.0037500
v 0.0142000 -0.0100000 0.0037500
v 0.0142000 -0.0060000 0.0037500
v 0.0172000 -0.0060000 0.0037500
v 0.0172000 -0.0100000 0.0037500
v 0.0142000 -0.0147000 0.0082500
v 0.0142000 -0.0100000 0.0037500
v 0.0172000 -0.0100000 0.0037500
v 0.0172000 -0.0147000 0.0082500
v 0.0142000 0.0147000 -0.0082500
v 0.0142000 0.0147000 0.0082500
v -0.0021031 0.0147000 0.0080778
v -0.0053861 0.0147000 0.0063065
v -0.0075157 0.0147000 0.0035765
v -0.0083349 0.0147000 -0.0006560
v -0.0068637 0.0147000 -0.0047082
v -0.0045978 0.0147000 -0.0068812
v -0.0017849 0.0147000 -0.0081259
v -0.0062688 0.0147000 -0.0011845
v -0.0070023 0.0147000 -0.0007282
v -0.0071987 0.0147000 0.0003041
v -0.0063909 0.0147000 0.0012032
v -0.0050863 0.0147000 0.0008668
v -0.0047883 0.0147000 -0.0001761
v -0.0053325 0.0147000 -0.0010583
v 0.0004206 0.0147000 -0.0071871
v -0.0007825 0.0147000 -0.0069667
v -0.0012189 0.0147000 -0.0060959
v -0.0008668 0.0147000 -0.0050863
v 0.0002892 0.0147000 -0.0047953
v 0.0010222 0.0147000 -0.0053354
v 0.0012166 0.0147000 -0.0062583
v 0.0059368 0.0147000 0.0012176
v 0.0068324 0.0147000 0.0009240
v 0.0072340 0.0147000 -0.0000812
v 0.0065771 0.0147000 -0.0011326
v 0.0053104 0.0147000 -0.0010321
v 0.0047888 0.0147000 -0.0001918
v 0.0050505 0.0147000 0.0008110
v -0.0011221 0.0147000 0.0065536
v -0.0003009 0.0147000 0.0071869
v 0.0006924 0.0147000 0.0070361
v 0.0011845 0.0147000 0.0062689
v 0.0010772 0.0147000 0.0053784
v 0.0002246 0.0147000 0.0047904
v -0.0009762 0.0147000 0.0051662
v 0.0027449 0.0147000 0.0013550
v 0.0015784 0.0147000 0.0025756
v 0.0001195 0.0147000 0.0030418
v -0.0018731 0.0147000 0.0024395
v -0.0029818 0.0147000 0.0006322
v -0.0028729 0.0147000 -0.0009334
v -0.0019851 0.0147000 -0.0023243
v 0.0002430 0.0147000 -0.0030878
v 0.0021738 0.0147000 -0.0021203
v 0.0029857 0.0147000 -0.0005939
v 0.0027449 0.0147000 0.0013550
v 0.0015784 0.0147000 0.0025756
v 0.0001195 0.0147000 0.0030418
v -0.0018731 0.0147000 0.0024395
v -0.0029818 0.0147000 0.0006322
v -0.0028729 0.0147000 -0.0009334
v -0.0019851 0.0147000 -0.0023243
v 0.0002430 0.0147000 -0.0030878
v 0.0021738 0.0147000 -0.0021203
v 0.0029857 0.0147000 -0.0005939
v 0.0018206 0.0180000 0.0025058
v -0.0000356 0.0180000 0.0030180
v -0.0014874 0.0180000 0.0026560
v -0.0027088 0.0180000 0.0013803
v -0.0030240 0.0180000 -0.0002759
v -0.0025546 0.0180000 -0.0016073
v -0.0014875 0.0180000 -0.0026560
v 0.0004404 0.0180000 -0.0030293
v 0.0024194 0.0180000 -0.0019073
v 0.0030494 0.0180000 0.0003609
v 0.0025922 -0.0147000 0.0015886
v 0.0013771 -0.0147000 0.0027026
v -0.0006830 -0.0147000 0.0030153
v -0.0027597 -0.0147000 0.0014062
v -0.0028409 -0.0147000 -0.0012197
v -0.0030594 -0.0180000 0.0003621
v 0.0030049 -0.0180000 0.0004377
v 0.0024626 -0.0180000 0.0017451
v 0.0013803 -0.0180000 0.0027089
v 0.0000000 -0.0180000 0.0030158
v -0.0017850 -0.0180000 0.0025243
v -0.0013449 -0.0147000 -0.0027225
v 0.0002758 -0.0147000 -0.0030241
v 0.0020175 -0.0147000 -0.0023022
v 0.0030494 -0.0147000 -0.0003609
v -0.0025862 -0.0180000 -0.0015848
v -0.0009930 -0.0180000 -0.0029278
v 0.0014684 -0.0180000 -0.0027025
v 0.0027908 -0.0180000 -0.0011968
v 0.0002430 0.0147000 -0.0030878
v 0.0021738 0.0147000 -0.0021203
v 0.0004404 0.0180000 -0.0030293
v 0.0024194 0.0180000 -0.0019073
v 0.0152000 0.0180000 -0.0082500
v -0.0004316 0.0180000 -0.0082415
v 0.0152000 0.0180000 0.0082500
v -0.0014071 0.0180000 0.0081809
v 0.0018206 0.0180000 0.0025058
v -0.0000356 0.0180000 0.0030180
v -0.0014874 0.0180000 0.0026560
v -0.0027088 0.0180000 0.0013803
v -0.0030240 0.0180000 -0.0002759
v -0.0025546 0.0180000 -0.0016073
v -0.0014875 0.0180000 -0.0026560
v 0.0004404 0.0180000 -0.0030293
v 0.0024194 0.0180000 -0.0019073
v 0.0030494 0.0180000 0.0003609
v -0.0051827 0.0180000 0.0065743
v -0.0076748 0.0180000 0.0031790
v -0.0082994 0.0180000 -0.0000980
v -0.0077644 0.0180000 -0.0028644
v -0.0065599 0.0180000 -0.0050539
v -0.0046038 0.0180000 -0.0068900
v -0.0021589 0.0180000 -0.0079947
v -0.0060479 0.0180000 0.0012200
v -0.0050642 0.0180000 0.0008429
v -0.0047908 0.0180000 -0.0001431
v -0.0053614 0.0180000 -0.0011063
v -0.0065874 0.0180000 -0.0010810
v -0.0072384 0.0180000 -0.0001961
v -0.0068729 0.0180000 0.0008729
v -0.0010626 0.0180000 -0.0053674
v -0.0003456 0.0180000 -0.0048308
v 0.0006552 0.0180000 -0.0049309
v 0.0011943 0.0180000 -0.0057624
v 0.0010810 0.0180000 -0.0065873
v 0.0001962 0.0180000 -0.0072384
v -0.0010947 0.0180000 -0.0066708
v 0.0048628 0.0180000 -0.0005610
v 0.0050734 0.0180000 0.0008792
v 0.0062069 0.0180000 0.0012069
v 0.0071373 0.0180000 0.0005610
v 0.0070102 0.0180000 -0.0007339
v 0.0059511 0.0180000 -0.0012451
v 0.0008429 0.0180000 0.0050642
v -0.0001431 0.0180000 0.0047908
v -0.0009786 0.0180000 0.0052286
v -0.0012004 0.0180000 0.0062882
v -0.0005624 0.0180000 0.0071039
v 0.0006611 0.0180000 0.0070787
v 0.0012225 0.0180000 0.0060963
v 0.0099833 0.0192137 -0.0017857
v 0.0096187 0.0184574 -0.0014184
v 0.0088102 0.0180127 -0.0006002
v 0.0140080 0.0192082 -0.0017864
v 0.0143859 0.0184233 -0.0013870
v 0.0151421 0.0180109 -0.0005746
v 0.0099115 0.0188470 -0.0035861
v 0.0089169 0.0180193 -0.0045817
v 0.0140167 0.0191118 -0.0035240
v 0.0144612 0.0183631 -0.0039925
v 0.0151346 0.0180120 -0.0047210
v 0.0140077 0.0192091 0.0035135
v 0.0143859 0.0184233 0.0039130
v 0.0151407 0.0180114 0.0047235
v 0.0140173 0.0191106 0.0017758
v 0.0144612 0.0183631 0.0013075
v 0.0151450 0.0180102 0.0005722
v 0.0099793 0.0191690 0.0035198
v 0.0096337 0.0184951 0.0038651
v 0.0088728 0.0180149 0.0046259
v 0.0099773 0.0191691 0.0017795
v 0.0095842 0.0184285 0.0013845
v 0.0088089 0.0180122 0.0005989
v 0.0140000 0.0216245 0.0016319
v 0.0140000 0.0225156 0.0021290
v 0.0140000 0.0221616 0.0030013
v 0.0140000 0.0213582 0.0034754
v 0.0140000 0.0217225 -0.0033856
v 0.0140000 0.0216038 -0.0016424
v 0.0100000 0.0217419 0.0033791
v 0.0100000 0.0217213 0.0016150
v 0.0100000 0.0225148 0.0022610
v 0.0100000 0.0224397 -0.0026141
v 0.0100000 0.0214348 -0.0034630
v 0.0100000 0.0217357 -0.0016050
v -0.0062688 0.0147000 -0.0011845
v -0.0070023 0.0147000 -0.0007282
v -0.0071987 0.0147000 0.0003041
v -0.0063909 0.0147000 0.0012032
v -0.0053325 0.0147000 -0.0010583
v -0.0060479 0.0180000 0.0012200
v -0.0053614 0.0180000 -0.0011063
v -0.0065874 0.0180000 -0.0010810
v -0.0072384 0.0180000 -0.0001961
v -0.0068729 0.0180000 0.0008729
v -0.0058495 -0.0147000 -0.0012717
v -0.0069646 -0.0147000 -0.0007604
v -0.0058502 -0.0180000 -0.0012654
v -0.0070361 -0.0180000 -0.0006923
v -0.0069646 -0.0147000 -0.0007604
v -0.0072161 -0.0147000 0.0000000
v -0.0069646 -0.0147000 0.0007604
v -0.0060000 -0.0147000 0.0012539
v -0.0070361 -0.0180000 -0.0006923
v -0.0071711 -0.0180000 0.0003972
v -0.0062008 -0.0180000 0.0012681
v -0.0063909 0.0147000 0.0012032
v -0.0050863 0.0147000 0.0008668
v -0.0060479 0.0180000 0.0012200
v -0.0050642 0.0180000 0.0008429
v -0.0050863 0.0147000 0.0008668
v -0.0047883 0.0147000 -0.0001761
v -0.0050642 0.0180000 0.0008429
v -0.0047908 0.0180000 -0.0001431
v -0.0047883 0.0147000 -0.0001761
v -0.0053325 0.0147000 -0.0010583
v -0.0047908 0.0180000 -0.0001431
v -0.0053614 0.0180000 -0.0011063
v -0.0060000 -0.0147000 0.0012539
v -0.0062008 -0.0180000 0.0012681
v -0.0048428 -0.0147000 0.0005335
v -0.0049977 -0.0180000 0.0007283
v -0.0048428 -0.0147000 0.0005335
v -0.0049288 -0.0147000 -0.0005823
v -0.0049977 -0.0180000 0.0007283
v -0.0048151 -0.0180000 -0.0004020
v -0.0058495 -0.0147000 -0.0012717
v -0.0058502 -0.0180000 -0.0012654
v -0.0049288 -0.0147000 -0.0005823
v -0.0048151 -0.0180000 -0.0004020
v 0.0142000 -0.0147000 -0.0082500
v -0.0004858 -0.0147000 -0.0082372
v 0.0142000 -0.0147000 0.0082500
v -0.0005181 -0.0147000 0.0082364
v 0.0025922 -0.0147000 0.0015886
v 0.0013771 -0.0147000 0.0027026
v -0.0006830 -0.0147000 0.0030153
v -0.0027597 -0.0147000 0.0014062
v -0.0028409 -0.0147000 -0.0012197
v -0.0013449 -0.0147000 -0.0027225
v 0.0002758 -0.0147000 -0.0030241
v 0.0020175 -0.0147000 -0.0023022
v 0.0030494 -0.0147000 -0.0003609
v -0.0058495 -0.0147000 -0.0012717
v -0.0069646 -0.0147000 -0.0007604
v -0.0072161 -0.0147000 0.0000000
v -0.0069646 -0.0147000 0.0007604
v -0.0060000 -0.0147000 0.0012539
v -0.0048428 -0.0147000 0.0005335
v -0.0049288 -0.0147000 -0.0005823
v -0.0025670 -0.0147000 -0.0079005
v -0.0053861 -0.0147000 -0.0063065
v -0.0076747 -0.0147000 -0.0032913
v -0.0082740 -0.0147000 0.0009793
v -0.0068637 -0.0147000 0.0047082
v -0.0045978 -0.0147000 0.0068812
v -0.0023364 -0.0147000 0.0079446
v 0.0011090 -0.0147000 -0.0065473
v 0.0005074 -0.0147000 -0.0071006
v -0.0003041 -0.0147000 -0.0071987
v -0.0010999 -0.0147000 -0.0065604
v -0.0011067 -0.0147000 -0.0053989
v -0.0002529 -0.0147000 -0.0048073
v 0.0005420 -0.0147000 -0.0049020
v 0.0011487 -0.0147000 -0.0055594
v 0.0065420 -0.0147000 0.0010980
v 0.0072498 -0.0147000 0.0002146
v 0.0069057 -0.0147000 -0.0008163
v 0.0061449 -0.0147000 -0.0012238
v 0.0050380 -0.0147000 -0.0008217
v 0.0048278 -0.0147000 0.0004154
v 0.0056028 -0.0147000 0.0011712
v -0.0012613 -0.0147000 0.0059505
v -0.0007604 -0.0147000 0.0069646
v 0.0002431 -0.0147000 0.0072222
v 0.0011273 -0.0147000 0.0065197
v 0.0010752 -0.0147000 0.0053600
v 0.0002069 -0.0147000 0.0047932
v -0.0006704 -0.0147000 0.0049684
v 0.0004206 0.0147000 -0.0071871
v -0.0007825 0.0147000 -0.0069667
v -0.0012189 0.0147000 -0.0060959
v -0.0008668 0.0147000 -0.0050863
v 0.0002892 0.0147000 -0.0047953
v 0.0010222 0.0147000 -0.0053354
v 0.0012166 0.0147000 -0.0062583
v -0.0010626 0.0180000 -0.0053674
v -0.0003456 0.0180000 -0.0048308
v 0.0006552 0.0180000 -0.0049309
v 0.0011943 0.0180000 -0.0057624
v 0.0010810 0.0180000 -0.0065873
v 0.0001962 0.0180000 -0.0072384
v -0.0010947 0.0180000 -0.0066708
v 0.0004206 0.0147000 -0.0071871
v -0.0007825 0.0147000 -0.0069667
v 0.0001962 0.0180000 -0.0072384
v -0.0010947 0.0180000 -0.0066708
v 0.0011090 -0.0147000 -0.0065473
v 0.0005074 -0.0147000 -0.0071006
v -0.0003041 -0.0147000 -0.0071987
v -0.0010999 -0.0147000 -0.0065604
v -0.0002529 -0.0147000 -0.0048073
v 0.0005420 -0.0147000 -0.0049020
v 0.0011487 -0.0147000 -0.0055594
v 0.0008600 -0.0180000 -0.0068598
v 0.0001444 -0.0180000 -0.0072197
v -0.0006646 -0.0180000 -0.0070222
v -0.0011860 -0.0180000 -0.0063345
v -0.0002892 -0.0180000 -0.0047953
v 0.0008668 -0.0180000 -0.0050863
v 0.0012198 -0.0180000 -0.0061444
v -0.0010999 -0.0147000 -0.0065604
v -0.0011067 -0.0147000 -0.0053989
v -0.0011860 -0.0180000 -0.0063345
v -0.0010717 -0.0180000 -0.0053999
v -0.0011067 -0.0147000 -0.0053989
v -0.0002529 -0.0147000 -0.0048073
v -0.0010717 -0.0180000 -0.0053999
v -0.0002892 -0.0180000 -0.0047953
v -0.0014071 -0.0180000 -0.0081809
v 0.0152000 -0.0180000 -0.0082500
v 0.0152000 -0.0180000 0.0082500
v -0.0030594 -0.0180000 0.0003621
v 0.0030049 -0.0180000 0.0004377
v 0.0024626 -0.0180000 0.0017451
v 0.0013803 -0.0180000 0.0027089
v 0.0000000 -0.0180000 0.0030158
v -0.0017850 -0.0180000 0.0025243
v -0.0025862 -0.0180000 -0.0015848
v -0.0009930 -0.0180000 -0.0029278
v 0.0014684 -0.0180000 -0.0027025
v 0.0027908 -0.0180000 -0.0011968
v -0.0058502 -0.0180000 -0.0012654
v -0.0070361 -0.0180000 -0.0006923
v -0.0071711 -0.0180000 0.0003972
v -0.0062008 -0.0180000 0.0012681
v -0.0049977 -0.0180000 0.0007283
v -0.0048151 -0.0180000 -0.0004020
v 0.0008600 -0.0180000 -0.0068598
v 0.0001444 -0.0180000 -0.0072197
v -0.0006646 -0.0180000 -0.0070222
v -0.0011860 -0.0180000 -0.0063345
v -0.0010717 -0.0180000 -0.0053999
v -0.0002892 -0.0180000 -0.0047953
v 0.0008668 -0.0180000 -0.0050863
v 0.0012198 -0.0180000 -0.0061444
v -0.0051827 -0.0180000 -0.0065742
v -0.0076748 -0.0180000 -0.0031790
v -0.0083155 -0.0180000 0.0006545
v -0.0072300 -0.0180000 0.0040491
v -0.0053155 -0.0180000 0.0063747
v -0.0019365 -0.0180000 0.0081164
v 0.0061116 -0.0180000 -0.0012193
v 0.0050731 -0.0180000 -0.0008568
v 0.0047997 -0.0180000 0.0002882
v 0.0053593 -0.0180000 0.0010456
v 0.0061913 -0.0180000 0.0012076
v 0.0070361 -0.0180000 0.0006924
v 0.0071118 -0.0180000 -0.0006226
v 0.0009678 -0.0180000 0.0052371
v 0.0002688 -0.0180000 0.0048155
v -0.0005293 -0.0180000 0.0048895
v -0.0011371 -0.0180000 0.0055458
v -0.0010907 -0.0180000 0.0066296
v -0.0001444 -0.0180000 0.0072198
v 0.0006646 -0.0180000 0.0070222
v 0.0012166 -0.0180000 0.0062583
v 0.0100000 -0.0180363 0.0008405
v 0.0140000 -0.0181030 0.0042993
v 0.0140000 -0.0180506 -0.0008150
v 0.0100000 -0.0180090 -0.0046367
v 0.0140000 -0.0180323 0.0007426
v 0.0100000 -0.0180367 0.0043746
v 0.0100000 -0.0180409 -0.0008749
v 0.0140000 -0.0181091 -0.0042800
v 0.0059368 0.0147000 0.0012176
v 0.0068324 0.0147000 0.0009240
v 0.0072340 0.0147000 -0.0000812
v 0.0065771 0.0147000 -0.0011326
v 0.0053104 0.0147000 -0.0010321
v 0.0047888 0.0147000 -0.0001918
v 0.0050505 0.0147000 0.0008110
v 0.0048628 0.0180000 -0.0005610
v 0.0050734 0.0180000 0.0008792
v 0.0062069 0.0180000 0.0012069
v 0.0071373 0.0180000 0.0005610
v 0.0070102 0.0180000 -0.0007339
v 0.0059511 0.0180000 -0.0012451
v 0.0065420 -0.0147000 0.0010980
v 0.0072498 -0.0147000 0.0002146
v 0.0048278 -0.0147000 0.0004154
v 0.0056028 -0.0147000 0.0011712
v 0.0047997 -0.0180000 0.0002882
v 0.0053593 -0.0180000 0.0010456
v 0.0061913 -0.0180000 0.0012076
v 0.0070361 -0.0180000 0.0006924
v 0.0072498 -0.0147000 0.0002146
v 0.0069057 -0.0147000 -0.0008163
v 0.0070361 -0.0180000 0.0006924
v 0.0071118 -0.0180000 -0.0006226
v 0.0069057 -0.0147000 -0.0008163
v 0.0061449 -0.0147000 -0.0012238
v 0.0061116 -0.0180000 -0.0012193
v 0.0071118 -0.0180000 -0.0006226
v 0.0047888 0.0147000 -0.0001918
v 0.0050505 0.0147000 0.0008110
v 0.0048628 0.0180000 -0.0005610
v 0.0050734 0.0180000 0.0008792
v 0.0061449 -0.0147000 -0.0012238
v 0.0050380 -0.0147000 -0.0008217
v 0.0061116 -0.0180000 -0.0012193
v 0.0050731 -0.0180000 -0.0008568
v 0.0050380 -0.0147000 -0.0008217
v 0.0048278 -0.0147000 0.0004154
v 0.0050731 -0.0180000 -0.0008568
v 0.0047997 -0.0180000 0.0002882
v -0.0011221 0.0147000 0.0065536
v -0.0003009 0.0147000 0.0071869
v -0.0012004 0.0180000 0.0062882
v -0.0005624 0.0180000 0.0071039
v -0.0003009 0.0147000 0.0071869
v 0.0006924 0.0147000 0.0070361
v -0.0005624 0.0180000 0.0071039
v 0.0006611 0.0180000 0.0070787
v 0.0006924 0.0147000 0.0070361
v 0.0011845 0.0147000 0.0062689
v 0.0006611 0.0180000 0.0070787
v 0.0012225 0.0180000 0.0060963
v -0.0012613 -0.0147000 0.0059505
v -0.0007604 -0.0147000 0.0069646
v 0.0002431 -0.0147000 0.0072222
v 0.0011273 -0.0147000 0.0065197
v -0.0006704 -0.0147000 0.0049684
v -0.0005293 -0.0180000 0.0048895
v -0.0011371 -0.0180000 0.0055458
v -0.0010907 -0.0180000 0.0066296
v -0.0001444 -0.0180000 0.0072198
v 0.0006646 -0.0180000 0.0070222
v 0.0012166 -0.0180000 0.0062583
v 0.0011845 0.0147000 0.0062689
v 0.0010772 0.0147000 0.0053784
v 0.0008429 0.0180000 0.0050642
v 0.0012225 0.0180000 0.0060963
v 0.0010772 0.0147000 0.0053784
v 0.0002246 0.0147000 0.0047904
v -0.0009762 0.0147000 0.0051662
v 0.0008429 0.0180000 0.0050642
v -0.0001431 0.0180000 0.0047908
v -0.0009786 0.0180000 0.0052286
v -0.0011221 0.0147000 0.0065536
v -0.0009762 0.0147000 0.0051662
v -0.0009786 0.0180000 0.0052286
v -0.0012004 0.0180000 0.0062882
v 0.0011273 -0.0147000 0.0065197
v 0.0010752 -0.0147000 0.0053600
v 0.0009678 -0.0180000 0.0052371
v 0.0012166 -0.0180000 0.0062583
v 0.0010752 -0.0147000 0.0053600
v 0.0002069 -0.0147000 0.0047932
v 0.0009678 -0.0180000 0.0052371
v 0.0002688 -0.0180000 0.0048155
v 0.0002069 -0.0147000 0.0047932
v -0.0006704 -0.0147000 0.0049684
v 0.0002688 -0.0180000 0.0048155
v -0.0005293 -0.0180000 0.0048895
v 0.0152000 -0.0180000 -0.0082500
v 0.0172000 -0.0160000 -0.0082500
v 0.0172000 -0.0160000 0.0082500
v 0.0152000 -0.0180000 0.0082500
v 0.0100000 -0.0180363 0.0008405
v 0.0100000 -0.0189618 0.0017372
v 0.0140000 -0.0188387 0.0017090
v 0.0140000 -0.0180323 0.0007426
v 0.0100000 -0.0180363 0.0008405
v 0.0100000 -0.0189618 0.0017372
v 0.0100000 -0.0190905 0.0035332
v 0.0100000 -0.0180367 0.0043746
v 0.0100000 -0.0216038 0.0016424
v 0.0100000 -0.0225303 0.0022328
v 0.0100000 -0.0217225 0.0033857
v 0.0100000 -0.0180090 -0.0046367
v 0.0100000 -0.0217881 -0.0033688
v 0.0100000 -0.0225174 -0.0022054
v 0.0100000 -0.0217356 -0.0016050
v 0.0100000 -0.0190140 -0.0017525
v 0.0100000 -0.0180409 -0.0008749
v 0.0100000 -0.0187865 -0.0036125
v 0.0100000 -0.0190905 0.0035332
v 0.0100000 -0.0217225 0.0033857
v 0.0140000 -0.0214348 0.0034630
v 0.0140000 -0.0190595 0.0035417
v 0.0140000 -0.0181030 0.0042993
v 0.0100000 -0.0190905 0.0035332
v 0.0100000 -0.0180367 0.0043746
v 0.0140000 -0.0190595 0.0035417
v 0.0140000 -0.0181030 0.0042993
v 0.0140000 -0.0188387 0.0017090
v 0.0140000 -0.0180323 0.0007426
v 0.0140000 -0.0214348 0.0034630
v 0.0140000 -0.0190595 0.0035417
v 0.0140000 -0.0217356 0.0016050
v 0.0140000 -0.0224397 0.0026141
v 0.0140000 -0.0180506 -0.0008150
v 0.0140000 -0.0190905 -0.0035332
v 0.0140000 -0.0225156 -0.0021290
v 0.0140000 -0.0221616 -0.0030012
v 0.0140000 -0.0213704 -0.0034711
v 0.0140000 -0.0216038 -0.0016424
v 0.0140000 -0.0188843 -0.0017172
v 0.0140000 -0.0181091 -0.0042800
v 0.0100000 -0.0189618 0.0017372
v 0.0140000 -0.0188387 0.0017090
v 0.0100000 -0.0216038 0.0016424
v 0.0100000 -0.0225303 0.0022328
v 0.0140000 -0.0217356 0.0016050
v 0.0140000 -0.0224397 0.0026141
v 0.0100000 -0.0225303 0.0022328
v 0.0100000 -0.0217225 0.0033857
v 0.0140000 -0.0214348 0.0034630
v 0.0140000 -0.0224397 0.0026141
v 0.0100000 -0.0180090 -0.0046367
v 0.0100000 -0.0217881 -0.0033688
v 0.0100000 -0.0225174 -0.0022054
v 0.0100000 -0.0187865 -0.0036125
v 0.0140000 -0.0190905 -0.0035332
v 0.0140000 -0.0225156 -0.0021290
v 0.0140000 -0.0221616 -0.0030012
v 0.0140000 -0.0213704 -0.0034711
v 0.0140000 -0.0181091 -0.0042800
v 0.0100000 -0.0225174 -0.0022054
v 0.0100000 -0.0217356 -0.0016050
v 0.0100000 -0.0190140 -0.0017525
v 0.0140000 -0.0225156 -0.0021290
v 0.0140000 -0.0216038 -0.0016424
v 0.0140000 -0.0188843 -0.0017172
v 0.0140000 -0.0180506 -0.0008150
v 0.0100000 -0.0190140 -0.0017525
v 0.0100000 -0.0180409 -0.0008749
v 0.0140000 -0.0188843 -0.0017172
v 0.0172000 0.0160000 -0.0082500
v 0.0152000 0.0180000 -0.0082500
v 0.0172000 0.0160000 0.0082500
v 0.0152000 0.0180000 0.0082500
v 0.0140080 0.0192082 -0.0017864
v 0.0143859 0.0184233 -0.0013870
v 0.0151421 0.0180109 -0.0005746
v 0.0140167 0.0191118 -0.0035240
v 0.0144612 0.0183631 -0.0039925
v 0.0151346 0.0180120 -0.0047210
v 0.0140077 0.0192091 0.0035135
v 0.0143859 0.0184233 0.0039130
v 0.0151407 0.0180114 0.0047235
v 0.0140173 0.0191106 0.0017758
v 0.0144612 0.0183631 0.0013075
v 0.0151450 0.0180102 0.0005722
v 0.0140000 0.0216245 0.0016319
v 0.0140000 0.0225156 0.0021290
v 0.0140000 0.0221616 0.0030013
v 0.0140000 0.0213582 0.0034754
v 0.0140000 0.0217225 -0.0033856
v 0.0140000 0.0225303 -0.0022328
v 0.0140000 0.0216038 -0.0016424
v 0.0140000 0.0217225 -0.0033856
v 0.0140000 0.0225303 -0.0022328
v 0.0100000 0.0224397 -0.0026141
v 0.0100000 0.0214348 -0.0034630
v 0.0140000 0.0225303 -0.0022328
v 0.0140000 0.0216038 -0.0016424
v 0.0100000 0.0224397 -0.0026141
v 0.0100000 0.0217357 -0.0016050
v 0.0142000 -0.0100000 0.0235000
v 0.0142000 -0.0090000 0.0245000
v 0.0172000 -0.0090000 0.0245000
v 0.0172000 -0.0100000 0.0235000
v 0.0142000 -0.0090000 0.0245000
v 0.0142000 0.0090000 0.0245000
v 0.0172000 0.0090000 0.0245000
v 0.0172000 -0.0090000 0.0245000
v 0.0142000 0.0090000 0.0245000
v 0.0142000 0.0100000 0.0235000
v 0.0172000 0.0100000 0.0235000
v 0.0172000 0.0090000 0.0245000
vn 0.000092 -0.006179 -0.999981
vn 0.021044 -0.022959 -0.999515
vn -0.066752 0.001596 -0.997768
vn -0.187785 -0.024070 -0.981915
vn -0.002254 -0.000683 -0.999997
vn -0.001579 -0.003644 -0.999992
vn 0.012222 -0.017295 -0.999776
vn -0.004186 -0.003560 0.999985
vn 0.000000 0.000000 1.000000
vn 0.000000 0.000000 1.000000
vn -0.059513 -0.010718 0.998170
vn -0.004223 -0.001280 0.999990
vn -0.331764 0.001510 -0.943361
vn -0.667433 0.019264 -0.744420
vn -0.920389 -0.001747 -0.391001
vn -0.993580 0.016092 0.111980
vn -0.833788 0.016007 0.551853
vn -0.553545 0.003941 0.832810
vn -0.305950 0.012490 0.951966
vn -0.627664 -0.010147 -0.778418
vn -0.923011 -0.013082 -0.384552
vn -0.997868 -0.001603 0.065239
vn -0.882882 -0.011905 0.469445
vn -0.628884 -0.017502 0.777302
vn -0.237041 -0.016838 0.971354
vn 0.002165 0.016040 -0.999869
vn -0.001773 0.003926 -0.999991
vn -0.000421 0.014374 -0.999897
vn -0.002446 0.005645 -0.999981
vn -0.000294 0.000089 -1.000000
vn -0.057653 -0.008837 -0.998298
vn -0.002894 -0.001260 0.999995
vn 0.000000 0.000000 1.000000
vn 0.000000 0.000000 1.000000
vn -0.002254 0.000683 0.999997
vn -0.179012 0.009149 0.983804
vn -0.252213 -0.005805 0.967654
vn -0.655142 -0.020901 0.755216
vn -0.906091 -0.001462 0.423081
vn -0.997396 -0.020704 -0.069078
vn -0.828838 -0.018569 -0.559181
vn -0.556817 -0.003237 -0.830629
vn -0.218232 -0.011334 -0.975831
vn -0.623106 0.008463 0.782092
vn -0.923555 0.002513 0.383457
vn -0.999795 0.007552 0.018800
vn -0.939416 -0.001322 -0.342777
vn -0.781461 0.006549 -0.623920
vn -0.556182 -0.007821 -0.831024
vn -0.289635 0.005255 -0.957123
vn -1.000000 0.000000 0.000000
vn -1.000000 0.000000 0.000000
vn -1.000000 0.000000 0.000000
vn -1.000000 0.000000 0.000000
vn -1.000000 0.000000 0.000000
vn -1.000000 0.000000 0.000000
vn -1.000000 0.000000 0.000000
vn -1.000000 0.000000 0.000000
vn -1.000000 0.000000 0.000000
vn -1.000000 0.000000 0.000000
vn -1.000000 0.000000 0.000000
vn -1.000000 0.000000 0.000000
vn -1.000000 0.000000 0.000000
vn -1.000000 0.000000 0.000000
vn -1.000000 0.000000 0.000000
vn -1.000000 0.000000 0.000000
vn -1.000000 0.000000 0.000000
vn -1.000000 0.000000 0.000000
vn -1.000000 0.000000 0.000000
vn -1.000000 0.000000 0.000000
vn -1.000000 0.000000 0.000000
vn -1.000000 0.000000 0.000000
vn -1.000000 0.000000 0.000000
vn -1.000000 0.000000 0.000000
vn -1.000000 0.000000 0.000000
vn -1.000000 0.000000 0.000000
vn -1.000000 0.000000 0.000000
vn -1.000000 0.000000 0.000000
vn -1.000000 0.000000 0.000000
vn -1.000000 0.000000 0.000000
vn -1.000000 0.000000 0.000000
vn -1.000000 0.000000 0.000000
vn -1.000000 0.000000 0.000000
vn -1.000000 0.000000 0.000000
vn -1.000000 0.000000 0.000000
vn -1.000000 0.000000 0.000000
vn -1.000000 0.000000 0.000000
vn -1.000000 0.000000 0.000000
vn -1.000000 0.000000 0.000000
vn -1.000000 0.000000 0.000000
vn -1.000000 0.000000 0.000000
vn -1.000000 0.000000 0.000000
vn -1.000000 0.000000 0.000000
vn -1.000000 0.000000 0.000000
vn -1.000000 0.000000 0.000000
vn -1.000000 0.000000 0.000000
vn -1.000000 0.000000 0.000000
vn 0.027051 -0.984662 -0.172360
vn 0.026336 -0.851845 -0.523132
vn 0.019668 -0.553675 -0.832500
vn -0.024511 -0.684822 -0.728298
vn -0.035641 -0.367131 -0.929486
vn -0.017042 -0.921746 -0.387420
vn 0.026617 0.433101 -0.900952
vn 0.019831 0.450274 -0.892670
vn 0.003533 0.490683 -0.871331
vn -0.004270 0.509613 -0.860393
vn 0.041797 0.904395 0.424644
vn 0.033862 0.117511 0.992494
vn 0.037392 -0.315392 0.948225
vn 0.030521 0.990404 -0.134792
vn 0.000000 0.970070 -0.242826
vn -0.018188 0.995927 0.088314
vn -0.044202 0.572801 0.818502
vn -0.042795 0.024675 0.998779
vn 1.000000 0.000000 0.000000
vn 1.000000 0.000000 0.000000
vn 1.000000 0.000000 0.000000
vn 1.000000 0.000000 0.000000
vn 1.000000 0.000000 0.000000
vn 1.000000 0.000000 0.000000
vn 1.000000 0.000000 0.000000
vn 1.000000 0.000000 0.000000
vn 1.000000 0.000000 0.000000
vn 1.000000 0.000000 0.000000
vn 1.000000 0.000000 0.000000
vn 1.000000 0.000000 0.000000
vn 1.000000 0.000000 0.000000
vn 1.000000 0.000000 0.000000
vn 1.000000 0.000000 0.000000
vn 1.000000 0.000000 0.000000
vn 1.000000 0.000000 0.000000
vn 1.000000 0.000000 0.000000
vn 1.000000 0.000000 0.000000
vn 1.000000 0.000000 0.000000
vn 1.000000 0.000000 0.000000
vn 1.000000 0.000000 0.000000
vn 1.000000 0.000000 0.000000
vn 1.000000 0.000000 0.000000
vn 1.000000 0.000000 0.000000
vn 1.000000 0.000000 0.000000
vn 1.000000 0.000000 0.000000
vn 1.000000 0.000000 0.000000
vn 1.000000 0.000000 0.000000
vn 1.000000 0.000000 0.000000
vn 1.000000 0.000000 0.000000
vn 1.000000 0.000000 0.000000
vn 1.000000 0.000000 0.000000
vn 1.000000 0.000000 0.000000
vn 1.000000 0.000000 0.000000
vn 1.000000 0.000000 0.000000
vn 1.000000 0.000000 0.000000
vn 1.000000 0.000000 0.000000
vn 1.000000 0.000000 0.000000
vn 1.000000 0.000000 0.000000
vn 1.000000 0.000000 0.000000
vn 1.000000 0.000000 0.000000
vn 1.000000 0.000000 0.000000
vn 1.000000 0.000000 0.000000
vn 1.000000 0.000000 0.000000
vn 1.000000 0.000000 0.000000
vn 1.000000 0.000000 0.000000
vn 1.000000 0.000000 0.000000
vn 1.000000 0.000000 0.000000
vn 1.000000 0.000000 0.000000
vn -0.010852 -0.844002 0.536230
vn -0.016721 -0.852681 0.522164
vn -0.029587 -0.870815 0.490719
vn -0.033668 -0.876309 0.480572
vn 0.023166 -0.165115 0.986002
vn 0.031995 -0.598875 0.800203
vn 0.041547 -0.998523 -0.035015
vn 0.038100 -0.825518 -0.563088
vn -0.010129 -0.040094 0.999145
vn -0.015462 -0.379557 0.925039
vn -0.028990 -0.913560 0.405669
vn -0.024468 -0.913831 -0.405357
vn -0.025394 -0.673767 -0.738508
vn 0.022266 0.013131 -0.999666
vn 0.027532 0.030565 -0.999154
vn -0.003902 -0.073207 -0.997309
vn 0.003138 -0.050025 -0.998743
vn 0.010176 0.735596 -0.677344
vn 0.019646 0.757938 -0.652031
vn -0.025173 0.644491 -0.764198
vn -0.016524 0.667908 -0.744061
vn -0.006330 0.995089 0.098782
vn -0.007982 0.995552 0.093876
vn -0.012228 0.996618 0.081261
vn -0.013632 0.996931 0.077084
vn 0.013800 0.650971 0.758977
vn 0.010036 0.641623 0.766954
vn -0.002455 0.609873 0.792496
vn -0.006549 0.599224 0.800554
vn 0.040682 0.993911 0.102401
vn 0.018460 0.999118 0.037725
vn -0.025886 0.995504 -0.091119
vn -0.046812 0.987300 -0.151813
vn 0.040908 0.554031 -0.831491
vn 0.033027 0.535490 -0.843895
vn 0.011174 0.482743 -0.875691
vn 0.000511 0.456302 -0.889825
vn 0.031374 -0.453741 -0.890581
vn 0.045109 -0.496393 -0.866925
vn -0.027549 -0.260568 -0.965062
vn -0.010469 -0.318252 -0.947948
vn 0.031315 -0.991564 -0.125781
vn 0.013365 -0.982384 -0.186396
vn -0.043406 -0.927252 -0.371913
vn -0.027889 -0.946280 -0.322145
vn 0.021264 -0.698633 0.715164
vn 0.033682 -0.670884 0.740797
vn -0.006211 -0.755863 0.654700
vn -0.019814 -0.782080 0.622863
vn 0.029033 0.344835 0.938214
vn 0.028680 0.459608 0.887659
vn -0.041970 -0.071413 0.996563
vn -0.022639 0.291111 0.956421
vn -0.020492 0.603556 0.797057
vn 0.050109 0.996091 0.072750
vn 0.028309 0.999581 -0.006068
vn -0.022495 0.982105 -0.186986
vn -0.043914 0.964039 -0.262107
vn 0.045400 0.606851 -0.793518
vn 0.021503 0.543024 -0.839442
vn -0.028806 0.398063 -0.916906
vn -0.053047 0.323063 -0.944890
vn 0.017130 -0.995445 0.093788
vn 0.022337 -0.908758 0.416725
vn 0.052505 -0.463011 -0.884796
vn 0.030196 -0.790071 -0.612271
vn -0.027303 -0.968271 0.248408
vn -0.019921 -0.662260 -0.749009
vn -0.039137 -0.960768 -0.274579
vn -0.004737 -0.302715 0.953069
vn -0.009549 -0.289906 0.957007
vn -0.020075 -0.261666 0.964950
vn -0.023949 -0.251196 0.967640
vn 0.027176 0.476900 0.878537
vn 0.009298 0.528898 0.848634
vn -0.031098 0.638393 0.769082
vn -0.046896 0.678168 0.733409
vn -0.000000 -0.691572 0.722308
vn 0.000000 -0.691572 0.722308
vn -0.000000 -0.691572 0.722308
vn -0.000000 -0.691572 0.722308
vn 0.000000 0.000000 1.000000
vn 0.000000 0.000000 1.000000
vn 0.000000 0.000000 1.000000
vn 0.000000 0.000000 1.000000
vn 0.000000 1.000000 0.000000
vn 0.000000 1.000000 0.000000
vn 0.000000 1.000000 0.000000
vn 0.000000 1.000000 0.000000
vn 0.000000 0.000000 -1.000000
vn 0.000000 0.000000 -1.000000
vn 0.000000 0.000000 -1.000000
vn 0.000000 0.000000 -1.000000
vn 0.000000 1.000000 0.000000
vn 0.000000 1.000000 0.000000
vn 0.000000 1.000000 0.000000
vn 0.000000 1.000000 0.000000
vn -0.003642 0.753565 -0.657364
vn -0.001113 0.750399 -0.660984
vn -0.002520 0.752162 -0.658973
vn 0.000000 0.748999 -0.662571
vn 0.000000 0.000000 -1.000000
vn 0.000000 0.000000 -1.000000
vn 0.000000 0.000000 -1.000000
vn 0.000000 0.000000 -1.000000
vn 0.004703 -0.747092 -0.664705
vn 0.015234 -0.760475 -0.649188
vn 0.000000 -0.740988 -0.671518
vn 0.010631 -0.754673 -0.656014
vn 0.000000 -1.000000 0.000000
vn 0.000000 -1.000000 0.000000
vn 0.000000 -1.000000 0.000000
vn 0.000000 -1.000000 0.000000
vn 0.000000 0.000000 -1.000000
vn 0.000000 0.000000 -1.000000
vn 0.000000 0.000000 -1.000000
vn 0.000000 0.000000 -1.000000
vn -0.000000 -1.000000 -0.000000
vn -0.000000 -1.000000 -0.000000
vn -0.000000 -1.000000 -0.000000
vn -0.000000 -1.000000 -0.000000
vn 0.000000 0.000000 1.000000
vn 0.000000 0.000000 1.000000
vn 0.000000 0.000000 1.000000
vn 0.000000 0.000000 1.000000
vn 0.000000 0.691572 0.722308
vn 0.000000 0.691572 0.722308
vn 0.000000 0.691572 0.722308
vn 0.000000 0.691572 0.722308
vn -0.000000 -1.000000 -0.000000
vn -0.000000 -1.000000 -0.000000
vn -0.000000 -1.000000 -0.000000
vn 0.000000 -1.000000 0.000000
vn 0.000000 -1.000000 0.000000
vn 0.000000 -1.000000 0.000000
vn 0.000000 -1.000000 0.000000
vn 0.000000 -1.000000 0.000000
vn 0.000000 -1.000000 0.000000
vn 0.000000 -1.000000 0.000000
vn 0.000000 -1.000000 0.000000
vn 0.000000 -1.000000 0.000000
vn 0.000000 -1.000000 0.000000
vn 0.000000 -1.000000 0.000000
vn 0.000000 -1.000000 0.000000
vn 0.000000 -1.000000 0.000000
vn 0.000000 -1.000000 0.000000
vn 0.000000 -1.000000 0.000000
vn 0.000000 -1.000000 0.000000
vn 0.000000 -1.000000 0.000000
vn 0.000000 -1.000000 0.000000
vn 0.000000 -1.000000 0.000000
vn 0.000000 -1.000000 0.000000
vn -0.000000 -1.000000 0.000000
vn -0.000000 -1.000000 0.000000
vn -0.000000 -1.000000 -0.000000
vn -0.000000 -1.000000 -0.000000
vn 0.000000 -1.000000 0.000000
vn 0.000000 -1.000000 0.000000
vn 0.000000 -1.000000 0.000000
vn 0.000000 -1.000000 0.000000
vn 0.000000 -1.000000 0.000000
vn -0.000000 -1.000000 0.000000
vn -0.000000 -1.000000 0.000000
vn -0.000000 -1.000000 -0.000001
vn 0.000000 -1.000000 0.000000
vn 0.000000 -1.000000 0.000000
vn 0.000000 -1.000000 0.000000
vn 0.000000 -1.000000 0.000000
vn 0.000000 -1.000000 0.000000
vn 0.000000 -1.000000 0.000000
vn 0.000000 -1.000000 0.000000
vn 0.000000 -1.000000 0.000000
vn 0.000000 -1.000000 0.000000
vn 0.000000 -1.000000 0.000000
vn 0.000000 -1.000000 0.000000
vn 0.000000 -1.000000 0.000000
vn -0.900747 0.021292 -0.433821
vn -0.520116 0.020098 -0.853859
vn -0.016422 0.008569 -0.999828
vn 0.606743 0.026538 -0.794455
vn 0.972070 0.028639 -0.232938
vn 0.949012 0.023710 0.314348
vn 0.622519 0.028956 0.782068
vn 0.279371 0.020890 0.959956
vn -0.882324 0.035383 0.469310
vn -0.981755 0.023764 0.188661
vn -0.601147 -0.027853 -0.798653
vn -0.004862 -0.007449 -0.999960
vn 0.489408 -0.011325 -0.871982
vn 0.888286 -0.022608 -0.458734
vn 0.996541 -0.022128 0.080097
vn 0.845340 -0.019989 0.533855
vn 0.462236 -0.015740 0.886617
vn 0.190023 -0.028763 0.981358
vn -0.943584 -0.030692 0.329709
vn -0.991621 -0.045186 -0.121022
vn -0.856866 -0.016534 -0.515274
vn -0.431644 -0.002138 -0.902042
vn 0.227780 -0.032627 -0.973166
vn 0.890110 -0.049194 -0.453083
vn 0.918409 -0.017928 0.395226
vn 0.990331 0.033147 -0.134709
vn -0.989998 0.018753 -0.139830
vn -0.809805 0.003985 -0.586686
vn -0.446672 -0.019100 -0.894494
vn -0.006436 -0.001499 -0.999978
vn 0.601628 0.032711 -0.798106
vn 0.487360 -0.002357 0.873198
vn -0.102152 -0.020805 0.994551
vn -0.672636 -0.033130 0.739232
vn -0.991410 -0.033569 0.126411
vn 0.835935 0.003789 0.548815
vn 0.325583 0.014443 0.945403
vn -0.457628 0.038214 0.888322
vn -0.910191 0.026537 0.413339
vn -0.465546 -0.009527 0.884972
vn -0.447834 -0.024361 0.893785
vn -0.493146 0.014091 0.869833
vn -0.476540 -0.000195 0.879153
vn 0.000724 0.999992 -0.004026
vn -0.000491 1.000000 -0.000208
vn 0.000334 0.999994 0.003518
vn -0.000237 1.000000 0.000066
vn 0.000001 1.000000 0.000001
vn 0.000000 1.000000 0.000000
vn 0.000000 1.000000 0.000000
vn 0.000000 1.000000 0.000000
vn 0.000000 1.000000 0.000000
vn 0.000000 1.000000 0.000000
vn 0.000000 1.000000 0.000000
vn 0.000000 1.000000 0.000000
vn 0.000000 1.000000 0.000000
vn 0.000000 1.000000 0.000000
vn 0.000000 1.000000 0.000000
vn 0.000000 1.000000 0.000000
vn 0.000000 1.000000 0.000000
vn 0.000000 1.000000 0.000000
vn 0.000000 1.000000 0.000000
vn 0.000000 1.000000 0.000000
vn 0.000000 1.000000 0.000000
vn 0.000000 1.000000 0.000000
vn 0.000000 1.000000 0.000000
vn 0.000000 1.000000 0.000000
vn 0.000000 1.000000 0.000000
vn 0.000000 1.000000 0.000000
vn 0.000000 1.000000 0.000000
vn 0.000000 1.000000 0.000000
vn 0.000000 1.000000 0.000000
vn 0.000000 1.000000 0.000000
vn 0.000000 1.000000 0.000000
vn -0.001703 0.999998 0.000665
vn -0.002860 0.999994 0.002019
vn 0.000000 1.000000 0.000000
vn 0.000000 1.000000 0.000000
vn 0.000000 1.000000 0.000000
vn -0.000566 0.999999 -0.001207
vn 0.000277 0.999990 -0.004563
vn -0.005517 0.999984 -0.000834
vn -0.005158 0.999984 0.002193
vn -0.001714 0.999996 0.002425
vn 0.000003 1.000000 0.000001
vn 0.000000 1.000000 0.000000
vn 0.000000 1.000000 0.000000
vn 0.000000 1.000000 0.000000
vn 0.000000 1.000000 0.000000
vn -0.003301 0.999978 -0.005674
vn -0.001660 0.999998 -0.001021
vn -0.687155 0.299395 0.661952
vn -0.368862 0.857959 0.357558
vn -0.067949 0.995599 0.064540
vn -0.001287 0.233084 0.972456
vn -0.001783 0.776379 0.630264
vn -0.000369 0.986060 0.166392
vn -0.550411 0.638461 -0.537973
vn -0.091826 0.991591 -0.091184
vn -0.005055 0.318472 -0.947919
vn -0.010191 0.804275 -0.594170
vn -0.002397 0.987316 -0.158752
vn -0.001124 0.265392 0.964140
vn -0.004940 0.773434 0.633858
vn -0.002045 0.986014 0.166651
vn -0.002598 0.284871 -0.958562
vn -0.002898 0.807856 -0.589373
vn -0.000348 0.987484 -0.157718
vn -0.651495 0.376871 0.658424
vn -0.387686 0.837694 0.384667
vn -0.074522 0.994416 0.074720
vn -0.668869 0.351740 -0.654899
vn -0.355187 0.866275 -0.351298
vn -0.066684 0.995783 -0.063009
vn 0.009408 0.219422 -0.975585
vn 0.013937 0.943541 -0.330963
vn 0.015374 0.760558 0.649088
vn 0.010401 0.263001 0.964740
vn 0.015503 0.053010 -0.998474
vn 0.002539 -0.064081 0.997941
vn -0.626926 0.379489 0.680406
vn -0.635569 0.231838 -0.736412
vn -0.593843 0.796323 -0.114974
vn -1.000000 0.000000 0.000000
vn -0.824457 0.048135 -0.563874
vn -0.802718 -0.030795 0.595563
vn 0.205942 0.014278 0.978460
vn 0.821549 0.026885 0.569504
vn 0.962731 0.035778 -0.268083
vn 0.695243 0.029649 -0.718163
vn -0.133554 0.013242 0.990953
vn 0.387506 -0.035614 -0.921179
vn -0.006606 -0.021875 0.999739
vn 0.457924 -0.031762 0.888424
vn 0.987856 -0.033354 0.151749
vn 0.730262 -0.029905 -0.682513
vn 0.421221 0.007764 0.906925
vn 0.416771 0.009722 0.908960
vn 0.435098 0.001626 0.900382
vn 0.430931 0.003475 0.902378
vn 0.949319 -0.014093 0.313997
vn 0.999876 -0.015339 0.003566
vn 0.760153 -0.021001 -0.649404
vn 0.455226 -0.031522 -0.889818
vn 0.988144 0.022023 0.151944
vn 0.937390 0.033138 -0.346702
vn 0.628991 0.026051 -0.776976
vn -0.249593 0.030856 -0.967859
vn -0.271127 0.023980 -0.962245
vn -0.332499 0.004048 -0.943095
vn -0.357953 -0.004371 -0.933729
vn -0.961497 0.004455 -0.274780
vn -0.961911 0.003973 -0.273334
vn -0.963203 0.002454 -0.268763
vn -0.963628 0.001949 -0.267241
vn -0.853035 -0.001054 0.521853
vn -0.851089 0.000177 0.525021
vn -0.860339 -0.005751 0.509690
vn -0.858561 -0.004596 0.512691
vn -0.500959 -0.014319 -0.865353
vn -0.409251 0.020994 -0.912180
vn -0.528333 -0.025293 -0.848660
vn -0.439121 0.009722 -0.898375
vn -0.999477 -0.016311 0.027910
vn -0.996590 -0.030147 0.076805
vn -0.986526 0.036894 -0.159392
vn -0.993454 0.023351 -0.111823
vn -0.609585 0.017791 0.792521
vn -0.640522 0.001615 0.767938
vn -0.599204 0.023085 0.800264
vn -0.631724 0.006278 0.775168
vn 0.000000 1.000000 0.000000
vn 0.000000 1.000000 -0.000000
vn 0.000000 1.000000 0.000000
vn 0.000000 1.000000 0.000000
vn 0.000000 1.000000 0.000000
vn 0.000000 1.000000 0.000000
vn 0.000000 1.000000 0.000000
vn 0.000000 1.000000 0.000000
vn 0.000000 1.000000 0.000000
vn 0.000000 1.000000 0.000000
vn 0.000000 1.000000 0.000000
vn 0.000000 1.000000 0.000000
vn 0.000000 1.000000 0.000000
vn 0.000000 1.000000 0.000000
vn 0.000000 1.000000 0.000000
vn 0.000000 1.000000 0.000000
vn 0.000000 1.000000 0.000000
vn 0.000000 1.000000 0.000000
vn 0.000000 1.000000 0.000000
vn 0.000000 1.000000 0.000000
vn 0.000000 1.000000 -0.000000
vn 0.000000 1.000000 0.000000
vn 0.000000 1.000000 0.000000
vn 0.000000 1.000000 0.000000
vn 0.000000 1.000000 0.000000
vn 0.000000 1.000000 0.000000
vn 0.000000 1.000000 0.000000
vn 0.000000 1.000000 0.000000
vn 0.000000 1.000000 0.000000
vn 0.000000 1.000000 0.000000
vn 0.000001 1.000000 -0.000000
vn 0.000000 1.000000 0.000000
vn 0.000000 1.000000 0.000000
vn 0.000000 1.000000 0.000000
vn 0.000000 1.000000 0.000000
vn 0.000000 1.000000 0.000000
vn 0.000000 1.000000 0.000000
vn 0.000000 1.000000 0.000000
vn 0.000000 1.000000 0.000000
vn 0.000000 1.000000 0.000000
vn 0.000000 1.000000 0.000000
vn 0.000000 1.000000 0.000000
vn 0.000000 1.000000 0.000000
vn 0.000000 1.000000 0.000000
vn 0.000000 1.000000 0.000000
vn 0.000000 1.000000 0.000000
vn 0.000000 1.000000 0.000000
vn 0.000000 1.000000 0.000000
vn 0.000000 1.000000 0.000000
vn -0.728887 0.021506 0.684296
vn 0.893118 0.044365 0.447629
vn 0.997842 0.028619 0.059097
vn 0.676593 0.029875 -0.735751
vn -0.193936 0.031074 -0.980522
vn -0.842168 0.024731 -0.538647
vn -0.969181 0.027198 0.244842
vn 0.886912 -0.033490 -0.460722
vn 0.267116 -0.025042 -0.963339
vn -0.521482 -0.025224 -0.852890
vn -0.975739 -0.023592 -0.217664
vn -0.859232 -0.021905 0.511118
vn -0.592448 -0.027760 0.805130
vn 0.997933 -0.027440 0.058111
vn 0.180162 0.027551 0.983251
vn 0.236265 0.009958 0.971638
vn 0.354962 -0.028304 0.934452
vn 0.402160 -0.043943 0.914514
vn -0.905872 -0.021413 0.423009
vn -0.419760 -0.018569 0.907445
vn 0.272938 -0.022191 0.961776
vn 0.655162 -0.019249 0.755243
vn -0.118383 -0.002300 -0.992965
vn -0.445406 -0.014436 -0.895212
vn -0.938819 -0.026170 -0.343414
vn -0.705256 0.018788 0.708704
vn -0.115753 0.019190 0.993093
vn 0.550107 0.019520 0.834866
vn 0.796655 0.020568 0.604085
vn -0.225208 0.025220 -0.973984
vn -0.678442 0.030504 -0.734020
vn -0.996817 0.026430 0.075214
vn 0.999653 -0.025696 0.005835
vn 0.999674 -0.019310 -0.016689
vn 0.995488 0.002946 -0.094837
vn 0.992539 0.010568 -0.121470
vn 0.577452 -0.006273 -0.816401
vn 0.569550 -0.009237 -0.821905
vn 0.611375 0.006720 -0.791313
vn 0.603413 0.003630 -0.797420
vn -0.000141 -1.000000 -0.000039
vn 0.007391 -0.999876 -0.013916
vn 0.009399 -0.999848 0.014715
vn 0.000000 -1.000000 0.000000
vn 0.000000 -1.000000 0.000000
vn 0.000000 -1.000000 0.000000
vn 0.000000 -1.000000 0.000000
vn 0.000000 -1.000000 0.000000
vn 0.000000 -1.000000 0.000000
vn -0.000001 -1.000000 -0.000001
vn -0.000001 -1.000000 -0.000001
vn 0.000000 -1.000000 0.000000
vn 0.000000 -1.000000 0.000000
vn -0.000000 -1.000000 -0.000001
vn 0.000000 -1.000000 -0.000001
vn -0.000000 -1.000000 -0.000001
vn 0.000000 -1.000000 0.000000
vn 0.000000 -1.000000 0.000000
vn -0.000000 -1.000000 -0.000001
vn -0.001532 -0.999996 0.002316
vn 0.000004 -1.000000 -0.000008
vn -0.000002 -1.000000 0.000001
vn -0.000001 -1.000000 -0.000000
vn -0.000001 -1.000000 -0.000001
vn -0.000001 -1.000000 -0.000000
vn 0.000000 -1.000000 0.000000
vn -0.000825 -1.000000 0.000510
vn -0.000001 -1.000000 -0.000001
vn -0.000000 -1.000000 -0.000001
vn 0.000000 -1.000000 -0.000001
vn 0.000000 -1.000000 0.000000
vn 0.000000 -1.000000 0.000000
vn -0.000435 -1.000000 0.000102
vn -0.000796 -0.999999 0.000991
vn 0.000000 -1.000000 0.000000
vn 0.000000 -1.000000 0.000000
vn 0.000000 -1.000000 0.000000
vn -0.003563 -0.999984 -0.004364
vn -0.008856 -0.999956 -0.003059
vn -0.008570 -0.999963 -0.000953
vn 0.000000 -1.000000 0.000000
vn 0.000000 -1.000000 0.000000
vn 0.000000 -1.000000 0.000000
vn 0.000000 -1.000000 0.000000
vn 0.000000 -1.000000 0.000000
vn 0.000000 -1.000000 0.000000
vn -0.010329 -0.999679 -0.023131
vn -0.003742 -0.999989 -0.002906
vn -0.008247 -0.999965 0.001395
vn 0.084709 -0.996406 0.000256
vn 0.076068 -0.997032 0.011858
vn -0.005439 -0.999962 -0.006868
vn 0.023912 -0.999710 0.002826
vn -0.005342 -0.999959 0.007246
vn -0.009585 -0.999954 -0.000565
vn 0.081339 -0.996683 -0.002814
vn 0.059041 0.015316 -0.998138
vn -0.678695 0.028648 -0.733861
vn -0.995367 0.038035 0.088309
vn -0.449867 0.042377 0.892090
vn 0.522398 0.036502 0.851920
vn 0.848928 0.039931 0.526998
vn 0.416977 0.015916 -0.908778
vn 0.596828 -0.033474 0.801671
vn 0.303454 -0.018289 -0.952671
vn -0.158416 -0.029272 -0.986938
vn -0.905659 -0.038489 -0.422257
vn -0.819906 -0.043369 0.570853
vn 0.056690 -0.042890 0.997470
vn -0.463240 -0.028760 -0.885766
vn -0.779768 -0.039949 -0.624793
vn 0.717906 -0.017279 -0.695926
vn 0.340543 -0.022555 -0.939958
vn 0.804186 0.016051 -0.594161
vn 0.536120 0.016350 -0.843984
vn -0.175432 0.022001 -0.984246
vn -0.577337 0.013907 -0.816388
vn -0.972048 -0.018705 0.234036
vn -0.947749 -0.040622 0.316419
vn -0.996767 0.056257 -0.057357
vn -0.999158 0.037694 0.016207
vn -0.471991 0.022251 0.881322
vn -0.480781 0.018823 0.876639
vn -0.512354 0.006313 0.858751
vn -0.505684 0.008982 0.862672
vn 0.974249 -0.010913 -0.225211
vn 0.967583 -0.001465 -0.252550
vn 0.988750 -0.038333 -0.144581
vn 0.985668 -0.031183 -0.165791
vn 0.339015 -0.005489 0.940765
vn 0.341447 -0.006378 0.939880
vn 0.329587 -0.002054 0.944123
vn 0.332169 -0.002994 0.943215
vn 0.983312 -0.009926 0.181654
vn 0.985759 -0.014862 0.167505
vn 0.972614 0.007877 0.232293
vn 0.976041 0.002678 0.217570
vn 0.646887 0.017426 -0.762387
vn 0.610442 0.028469 -0.791549
vn 0.787363 -0.030855 -0.615717
vn 0.757943 -0.019812 -0.652020
vn -0.121799 0.002963 -0.992550
vn -0.150107 0.011344 -0.988605
vn -0.020571 -0.026772 -0.999430
vn -0.044889 -0.019662 -0.998798
vn -0.841699 -0.001008 -0.539947
vn -0.847351 -0.004096 -0.531017
vn -0.863726 -0.013377 -0.503784
vn -0.868107 -0.015953 -0.496121
vn 0.998416 -0.032967 0.045595
vn 0.625611 -0.031992 -0.779479
vn -0.207366 -0.028243 -0.977856
vn -0.657641 -0.022458 -0.752997
vn 0.838724 -0.023430 0.544052
vn 0.733672 0.015095 0.679337
vn 0.935212 0.024592 0.353232
vn 0.861939 0.032283 -0.505982
vn 0.157044 0.026837 -0.987227
vn -0.559340 0.021431 -0.828661
vn -0.810305 0.024452 -0.585498
vn -0.992654 0.017690 0.119684
vn -0.986345 0.007659 0.164516
vn -0.937967 -0.033750 0.345078
vn -0.950711 -0.025349 0.309041
vn -0.567309 0.038032 0.822626
vn -0.148245 0.032084 0.988430
vn 0.328528 0.024471 0.944177
vn -0.325373 -0.017484 0.945424
vn 0.110431 -0.017930 0.993722
vn 0.464050 -0.016402 0.885657
vn 0.994011 0.031979 0.104497
vn 0.991849 0.024873 0.124965
vn 0.978789 -0.003172 0.204845
vn 0.983636 0.005577 0.180079
vn -0.998527 -0.030572 0.044817
vn -0.996417 -0.020334 0.082097
vn -0.971333 0.022804 0.236625
vn -0.980307 0.011671 0.197136
vn -0.546607 -0.013398 0.837282
vn -0.541975 -0.011922 0.840310
vn -0.522295 -0.005712 0.852746
vn -0.516509 -0.003903 0.856273
vn 0.180444 -0.011558 0.983517
vn 0.195911 -0.015097 0.980505
vn 0.092275 0.008467 0.995698
vn 0.109498 0.004575 0.993976
vn 0.707106 -0.707107 -0.000000
vn 0.707106 -0.707107 -0.000000
vn 0.707106 -0.707107 -0.000000
vn 0.707106 -0.707107 0.000000
vn 0.010328 -0.710321 -0.703802
vn 0.016340 -0.695785 -0.718065
vn -0.008778 -0.754319 -0.656450
vn -0.014911 -0.767733 -0.640597
vn -1.000000 0.000000 0.000000
vn -1.000000 0.000000 0.000000
vn -1.000000 0.000000 0.000000
vn -1.000000 0.000000 0.000000
vn -1.000000 0.000000 0.000000
vn -1.000000 0.000000 0.000000
vn -1.000000 0.000000 0.000000
vn -1.000000 0.000000 0.000000
vn -1.000000 0.000000 0.000000
vn -1.000000 0.000000 0.000000
vn -1.000000 0.000000 0.000000
vn -1.000000 0.000000 0.000000
vn -1.000000 0.000000 0.000000
vn -1.000000 0.000000 0.000000
vn -0.010709 -0.048182 0.998781
vn -0.015286 -0.055978 0.998315
vn -0.006783 -0.041492 0.999116
vn -0.001855 -0.033094 0.999451
vn 0.004455 -0.620917 0.783864
vn 0.003185 -0.623932 0.781472
vn 0.003427 -0.623360 0.781928
vn 0.004192 -0.621540 0.783371
vn 1.000000 0.000000 0.000000
vn 1.000000 0.000000 0.000000
vn 1.000000 0.000000 0.000000
vn 1.000000 0.000000 0.000000
vn 1.000000 0.000000 0.000000
vn 1.000000 0.000000 0.000000
vn 1.000000 0.000000 0.000000
vn 1.000000 0.000000 0.000000
vn 1.000000 0.000000 0.000000
vn 1.000000 0.000000 0.000000
vn 1.000000 0.000000 0.000000
vn 1.000000 0.000000 0.000000
vn 1.000000 0.000000 0.000000
vn 1.000000 0.000000 0.000000
vn 1.000000 0.000000 0.000000
vn -0.008170 0.035858 -0.999323
vn -0.008167 0.035855 -0.999324
vn -0.017519 -0.257183 -0.966204
vn -0.007382 -0.596743 -0.802398
vn 0.027910 -0.423381 -0.905522
vn 0.072936 -0.817942 -0.570658
vn -0.036123 -0.818401 0.573510
vn -0.022902 -0.788659 0.614404
vn 0.031623 -0.644989 0.763537
vn 0.017623 -0.685097 0.728239
vn 0.033957 -0.796027 -0.604308
vn -0.012210 -0.508382 -0.861045
vn -0.024815 -0.860224 -0.509312
vn 0.019616 -0.474988 -0.879774
vn -0.019423 -0.328767 -0.944211
vn 0.007603 -0.926576 -0.376032
vn 0.015146 -0.763096 -0.646108
vn 0.002610 -0.261322 -0.965248
vn -0.018063 -0.645641 -0.763427
vn -0.014884 -0.609080 0.792969
vn -0.000778 -0.289298 0.957239
vn 0.001020 0.044032 0.999030
vn 0.017889 -0.492746 0.869989
vn 0.010420 -0.219474 0.975563
vn -0.009701 0.027495 0.999575
vn -0.011931 -0.734357 0.678658
vn 0.015160 -0.669653 0.742519
vn 0.010046 -0.682355 0.730952
vn -0.006533 -0.721973 0.691891
vn 0.703106 0.711062 0.005777
vn 0.707066 0.707067 0.010706
vn 0.703486 0.710689 -0.005313
vn 0.707073 0.707075 -0.009611
vn 0.971901 0.235247 -0.008229
vn 0.643871 0.765124 -0.003879
vn 0.655628 0.755083 -0.001193
vn 0.953722 0.300636 0.005632
vn 0.600878 0.799340 -0.001093
vn 0.655186 0.755468 0.000074
vn 0.970410 0.241288 -0.009169
vn 0.643432 0.765496 -0.003340
vn 0.658472 0.752604 -0.001260
vn 0.956021 0.293225 0.006500
vn 0.598456 0.801155 -0.001204
vn 0.654812 0.755791 -0.001110
vn 0.999995 0.002746 0.001364
vn 1.000000 0.000000 0.000000
vn 1.000000 0.000000 0.000000
vn 0.999997 0.002352 0.000340
vn 0.999990 0.004418 0.000301
vn 1.000000 0.000000 0.000000
vn 0.999994 0.003218 0.001288
vn 0.022903 0.788656 -0.614408
vn 0.036124 0.818398 -0.573516
vn -0.017622 0.685094 -0.728242
vn -0.031622 0.644986 -0.763540
vn 0.007383 0.596749 0.802394
vn 0.025599 0.537196 0.843069
vn -0.072935 0.817948 0.570650
vn -0.057026 0.779681 0.623575
vn 0.000000 -0.707107 0.707106
vn 0.000000 -0.707107 0.707106
vn 0.000000 -0.707107 0.707106
vn 0.000000 -0.707107 0.707106
vn 0.000000 0.000000 1.000000
vn 0.000000 0.000000 1.000000
vn 0.000000 0.000000 1.000000
vn 0.000000 0.000000 1.000000
vn 0.000000 0.707107 0.707106
vn 0.000000 0.707108 0.707106
vn 0.000000 0.707108 0.707106
vn 0.000000 0.707108 0.707106
f 1//1 4//4 3//3
f 10//10 9//9 8//8
f 10//10 8//8 12//12
f 13//13 4//4 20//20
f 11//11 19//19 25//25
f 19//19 18//18 25//25
f 18//18 24//24 25//25
f 18//18 17//17 24//24
f 17//17 23//23 24//24
f 17//17 16//16 23//23
f 16//16 22//22 23//23
f 16//16 15//15 22//22
f 15//15 21//21 22//22
f 15//15 14//14 20//20
f 15//15 20//20 21//21
f 14//14 13//13 20//20
f 12//12 8//8 25//25
f 8//8 11//11 25//25
f 13//13 3//3 4//4
f 5//5 4//4 1//1
f 1//1 2//2 7//7
f 6//6 1//1 7//7
f 5//5 1//1 6//6
f 39//39 38//38 44//44
f 40//40 45//45 46//46
f 40//40 39//39 45//45
f 40//40 46//46 47//47
f 41//41 40//40 47//47
f 41//41 47//47 48//48
f 32//32 35//35 36//36
f 41//41 48//48 49//49
f 42//42 41//41 49//49
f 43//43 42//42 49//49
f 43//43 49//49 50//50
f 43//43 50//50 31//31
f 32//32 36//36 37//37
f 39//39 44//44 45//45
f 38//38 37//37 44//44
f 37//37 36//36 44//44
f 33//33 35//35 32//32
f 28//28 27//27 29//29
f 28//28 26//26 27//27
f 29//29 27//27 30//30
f 27//27 43//43 31//31
f 27//27 31//31 30//30
f 34//34 33//33 32//32
f 83//83 53//53 78//78
f 64//64 76//76 63//63
f 64//64 75//75 76//76
f 69//69 70//70 82//82
f 70//70 83//83 82//82
f 70//70 55//55 54//54
f 69//69 82//82 81//81
f 64//64 65//65 75//75
f 79//79 53//53 56//56
f 78//78 53//53 79//79
f 83//83 54//54 53//53
f 70//70 54//54 83//83
f 63//63 76//76 77//77
f 94//94 80//80 93//93
f 63//63 77//77 71//71
f 66//66 85//85 84//84
f 66//66 67//67 85//85
f 90//90 66//66 84//84
f 59//59 96//96 97//97
f 59//59 97//97 51//51
f 87//87 86//86 68//68
f 71//71 72//72 62//62
f 65//65 90//90 89//89
f 65//65 66//66 90//90
f 86//86 67//67 68//68
f 61//61 68//68 69//69
f 61//61 87//87 68//68
f 58//58 59//59 51//51
f 74//74 61//61 73//73
f 74//74 87//87 61//61
f 72//72 73//73 61//61
f 74//74 88//88 87//87
f 72//72 61//61 62//62
f 75//75 88//88 74//74
f 63//63 71//71 62//62
f 61//61 69//69 60//60
f 86//86 85//85 67//67
f 59//59 60//60 96//96
f 60//60 95//95 96//96
f 75//75 89//89 88//88
f 93//93 80//80 79//79
f 94//94 81//81 80//80
f 57//57 79//79 56//56
f 57//57 93//93 79//79
f 95//95 81//81 94//94
f 57//57 92//92 93//93
f 75//75 65//65 89//89
f 52//52 91//91 57//57
f 97//97 91//91 52//52
f 51//51 97//97 52//52
f 60//60 69//69 81//81
f 91//91 92//92 57//57
f 60//60 81//81 95//95
f 101//101 100//100 99//99
f 103//103 99//99 98//98
f 101//101 99//99 103//103
f 102//102 100//100 101//101
f 107//107 105//105 106//106
f 106//106 105//105 104//104
f 113//113 111//111 112//112
f 113//113 108//108 111//111
f 115//115 110//110 109//109
f 115//115 109//109 114//114
f 114//114 109//109 108//108
f 114//114 108//108 113//113
f 128//128 162//162 157//157
f 128//128 129//129 161//161
f 128//128 157//157 127//127
f 128//128 161//161 162//162
f 129//129 160//160 161//161
f 129//129 147//147 160//160
f 129//129 130//130 147//147
f 160//160 147//147 146//146
f 159//159 145//145 126//126
f 157//157 158//158 127//127
f 118//118 156//156 150//150
f 118//118 150//150 139//139
f 153//153 134//134 120//120
f 153//153 120//120 165//165
f 153//153 165//165 152//152
f 139//139 151//151 138//138
f 139//139 150//150 151//151
f 151//151 152//152 164//164
f 151//151 164//164 138//138
f 152//152 165//165 164//164
f 134//134 135//135 121//121
f 134//134 121//121 120//120
f 135//135 116//116 122//122
f 135//135 122//122 121//121
f 135//135 137//137 116//116
f 135//135 136//136 137//137
f 122//122 116//116 117//117
f 122//122 117//117 123//123
f 164//164 163//163 138//138
f 123//123 117//117 163//163
f 163//163 117//117 138//138
f 155//155 156//156 118//118
f 160//160 146//146 159//159
f 124//124 153//153 154//154
f 143//143 142//142 132//132
f 158//158 126//126 127//127
f 159//159 146//146 145//145
f 158//158 159//159 126//126
f 140//140 125//125 119//119
f 140//140 141//141 125//125
f 126//126 145//145 133//133
f 126//126 134//134 124//124
f 126//126 133//133 134//134
f 147//147 130//130 148//148
f 130//130 149//149 148//148
f 119//119 155//155 118//118
f 130//130 131//131 149//149
f 145//145 144//144 133//133
f 125//125 154//154 155//155
f 125//125 155//155 119//119
f 125//125 124//124 154//154
f 131//131 142//142 149//149
f 131//131 132//132 142//142
f 144//144 143//143 133//133
f 143//143 132//132 133//133
f 124//124 134//134 153//153
f 169//169 167//167 168//168
f 168//168 167//167 166//166
f 177//177 173//173 172//172
f 175//175 171//171 170//170
f 178//178 173//173 177//177
f 176//176 172//172 171//171
f 176//176 171//171 175//175
f 177//177 172//172 176//176
f 175//175 170//170 174//174
f 182//182 179//179 181//181
f 182//182 180//180 179//179
f 186//186 183//183 185//185
f 186//186 184//184 183//183
f 189//189 188//188 190//190
f 189//189 187//187 188//188
f 193//193 192//192 191//191
f 194//194 192//192 193//193
f 196//196 197//197 195//195
f 196//196 198//198 197//197
f 200//200 201//201 199//199
f 200//200 202//202 201//201
f 203//203 206//206 205//205
f 204//204 206//206 203//203
f 208//208 210//210 209//209
f 207//207 210//210 208//208
f 211//211 213//213 214//214
f 212//212 213//213 211//211
f 216//216 219//219 218//218
f 216//216 218//218 215//215
f 215//215 218//218 217//217
f 221//221 222//222 220//220
f 221//221 223//223 222//222
f 225//225 227//227 226//226
f 225//225 226//226 224//224
f 229//229 232//232 228//228
f 228//228 232//232 234//234
f 228//228 234//234 231//231
f 231//231 234//234 233//233
f 231//231 233//233 230//230
f 236//236 237//237 235//235
f 236//236 238//238 237//237
f 240//240 242//242 241//241
f 240//240 241//241 239//239
f 245//245 243//243 244//244
f 245//245 246//246 243//243
f 250//250 247//247 249//249
f 250//250 248//248 247//247
f 253//253 252//252 251//251
f 253//253 251//251 254//254
f 257//257 255//255 258//258
f 257//257 256//256 255//255
f 260//260 259//259 262//262
f 260//260 262//262 261//261
f 264//264 266//266 265//265
f 264//264 265//265 263//263
f 268//268 270//270 269//269
f 268//268 267//267 270//270
f 274//274 272//272 271//271
f 274//274 271//271 273//273
f 276//276 275//275 278//278
f 276//276 278//278 277//277
f 282//282 280//280 279//279
f 282//282 281//281 280//280
f 286//286 284//284 283//283
f 286//286 285//285 284//284
f 290//290 289//289 288//288
f 290//290 288//288 287//287
f 292//292 291//291 294//294
f 292//292 294//294 293//293
f 303//303 295//295 311//311
f 301//301 302//302 338//338
f 302//302 314//314 338//338
f 301//301 338//338 310//310
f 302//302 313//313 314//314
f 302//302 303//303 313//313
f 301//301 310//310 304//304
f 301//301 304//304 300//300
f 303//303 312//312 313//313
f 300//300 304//304 305//305
f 303//303 311//311 312//312
f 300//300 305//305 306//306
f 300//300 307//307 299//299
f 335//335 331//331 298//298
f 310//310 338//338 337//337
f 315//315 316//316 339//339
f 308//308 336//336 335//335
f 316//316 340//340 339//339
f 340//340 322//322 341//341
f 341//341 322//322 323//323
f 335//335 334//334 331//331
f 298//298 331//331 297//297
f 334//334 330//330 331//331
f 341//341 323//323 324//324
f 341//341 324//324 332//332
f 297//297 331//331 325//325
f 334//334 329//329 330//330
f 333//333 332//332 329//329
f 332//332 324//324 318//318
f 332//332 318//318 329//329
f 295//295 320//320 321//321
f 295//295 296//296 320//320
f 325//325 326//326 297//297
f 329//329 318//318 328//328
f 326//326 327//327 297//297
f 328//328 318//318 296//296
f 318//318 319//319 296//296
f 320//320 296//296 319//319
f 328//328 296//296 327//327
f 327//327 296//296 297//297
f 308//308 298//298 299//299
f 300//300 306//306 307//307
f 334//334 333//333 329//329
f 317//317 321//321 322//322
f 317//317 322//322 340//340
f 317//317 340//340 316//316
f 314//314 315//315 339//339
f 309//309 337//337 336//336
f 310//310 337//337 309//309
f 314//314 339//339 338//338
f 311//311 295//295 317//317
f 309//309 336//336 308//308
f 308//308 335//335 298//298
f 317//317 295//295 321//321
f 307//307 308//308 299//299
f 342//342 361//361 351//351
f 342//342 352//352 361//361
f 343//343 352//352 342//342
f 344//344 352//352 343//343
f 344//344 353//353 352//352
f 351//351 361//361 360//360
f 351//351 360//360 350//350
f 345//345 355//355 354//354
f 346//346 355//355 345//345
f 349//349 359//359 358//358
f 349//349 358//358 348//348
f 348//348 358//358 357//357
f 348//348 357//357 347//347
f 347//347 357//357 356//356
f 347//347 356//356 346//346
f 346//346 356//356 355//355
f 344//344 354//354 353//353
f 345//345 354//354 344//344
f 372//372 364//364 371//371
f 371//371 364//364 370//370
f 368//368 362//362 376//376
f 369//369 362//362 368//368
f 370//370 364//364 363//363
f 370//370 363//363 362//362
f 370//370 362//362 369//369
f 380//380 376//376 375//375
f 368//368 376//376 380//380
f 380//380 375//375 379//379
f 379//379 375//375 374//374
f 379//379 374//374 378//378
f 378//378 366//366 377//377
f 378//378 373//373 366//366
f 378//378 374//374 373//373
f 367//367 366//366 365//365
f 367//367 365//365 372//372
f 372//372 365//365 364//364
f 377//377 366//366 367//367
f 382//382 384//384 381//381
f 381//381 384//384 383//383
f 462//462 459//459 458//458
f 463//463 456//456 447//447
f 463//463 457//457 456//456
f 463//463 464//464 457//457
f 464//464 462//462 458//458
f 436//436 433//433 434//434
f 466//466 441//441 439//439
f 466//466 460//460 441//441
f 433//433 461//461 467//467
f 433//433 436//436 461//461
f 463//463 447//447 453//453
f 464//464 458//458 457//457
f 437//437 434//434 435//435
f 467//467 465//465 466//466
f 467//467 466//466 439//439
f 436//436 434//434 437//437
f 434//434 440//440 435//435
f 434//434 439//439 440//440
f 433//433 439//439 434//434
f 440//440 442//442 443//443
f 439//439 442//442 440//440
f 439//439 441//441 442//442
f 437//437 435//435 438//438
f 445//445 451//451 452//452
f 445//445 450//450 451//451
f 444//444 450//450 445//445
f 467//467 439//439 433//433
f 452//452 454//454 455//455
f 450//450 453//453 454//454
f 450//450 454//454 451//451
f 455//455 448//448 449//449
f 454//454 448//448 455//455
f 454//454 447//447 448//448
f 453//453 447//447 454//454
f 450//450 459//459 462//462
f 450//450 444//444 459//459
f 450//450 463//463 453//453
f 462//462 463//463 450//450
f 462//462 464//464 463//463
f 451//451 454//454 452//452
f 445//445 452//452 446//446
f 400//400 407//407 406//406
f 426//426 389//389 390//390
f 398//398 420//420 397//397
f 404//404 419//419 405//405
f 404//404 413//413 419//419
f 452//452 455//455 423//423
f 452//452 387//387 446//446
f 452//452 422//422 421//421
f 396//396 397//397 415//415
f 452//452 423//423 422//422
f 398//398 421//421 420//420
f 395//395 396//396 414//414
f 395//395 414//414 413//413
f 389//389 421//421 398//398
f 395//395 413//413 404//404
f 403//403 395//395 404//404
f 396//396 415//415 414//414
f 403//403 394//394 395//395
f 397//397 420//420 425//425
f 397//397 425//425 416//416
f 440//440 443//443 385//385
f 386//386 440//440 385//385
f 455//455 449//449 438//438
f 455//455 438//438 435//435
f 424//424 435//435 440//440
f 417//417 440//440 386//386
f 397//397 416//416 415//415
f 418//418 417//417 386//386
f 416//416 440//440 417//417
f 423//423 435//435 424//424
f 423//423 455//455 435//435
f 416//416 425//425 440//440
f 419//419 418//418 386//386
f 419//419 386//386 405//405
f 425//425 424//424 440//440
f 409//409 393//393 394//394
f 407//407 392//392 393//393
f 388//388 430//430 429//429
f 399//399 391//391 392//392
f 399//399 392//392 407//407
f 399//399 428//428 391//391
f 399//399 407//407 400//400
f 399//399 429//429 428//428
f 399//399 388//388 429//429
f 400//400 406//406 412//412
f 400//400 412//412 401//401
f 409//409 394//394 403//403
f 401//401 412//412 411//411
f 388//388 431//431 430//430
f 388//388 387//387 452//452
f 388//388 452//452 431//431
f 401//401 411//411 410//410
f 428//428 427//427 391//391
f 431//431 452//452 432//432
f 427//427 390//390 391//391
f 407//407 393//393 408//408
f 410//410 409//409 402//402
f 409//409 403//403 402//402
f 427//427 426//426 390//390
f 432//432 421//421 389//389
f 432//432 389//389 426//426
f 432//432 452//452 421//421
f 408//408 393//393 409//409
f 401//401 410//410 402//402
f 476//476 470//470 469//469
f 477//477 470//470 476//476
f 476//476 469//469 475//475
f 477//477 471//471 470//470
f 475//475 468//468 474//474
f 474//474 468//468 472//472
f 475//475 469//469 468//468
f 473//473 471//471 477//477
f 479//479 481//481 478//478
f 478//478 481//481 480//480
f 483//483 486//486 482//482
f 483//483 487//487 486//486
f 484//484 487//487 483//483
f 484//484 488//488 487//487
f 485//485 488//488 484//484
f 491//491 490//490 489//489
f 492//492 490//490 491//491
f 495//495 494//494 493//493
f 496//496 494//494 495//495
f 500//500 498//498 497//497
f 500//500 497//497 499//499
f 503//503 504//504 501//501
f 501//501 504//504 502//502
f 506//506 508//508 505//505
f 505//505 508//508 507//507
f 509//509 512//512 511//511
f 509//509 510//510 512//512
f 540//540 513//513 514//514
f 558//558 515//515 548//548
f 538//538 539//539 555//555
f 555//555 561//561 519//519
f 541//541 540//540 514//514
f 555//555 519//519 520//520
f 536//536 527//527 535//535
f 536//536 528//528 527//527
f 516//516 515//515 558//558
f 516//516 558//558 557//557
f 536//536 529//529 528//528
f 516//516 557//557 556//556
f 539//539 516//516 556//556
f 536//536 530//530 529//529
f 539//539 556//556 555//555
f 537//537 530//530 536//536
f 535//535 527//527 526//526
f 530//530 520//520 531//531
f 551//551 550//550 513//513
f 540//540 551//551 513//513
f 561//561 560//560 519//519
f 558//558 554//554 559//559
f 531//531 521//521 532//532
f 559//559 554//554 517//517
f 559//559 517//517 518//518
f 526//526 521//521 534//534
f 526//526 534//534 535//535
f 560//560 518//518 519//519
f 560//560 559//559 518//518
f 526//526 532//532 521//521
f 521//521 522//522 534//534
f 522//522 544//544 534//534
f 517//517 554//554 553//553
f 522//522 545//545 544//544
f 517//517 553//553 525//525
f 522//522 523//523 545//545
f 534//534 544//544 533//533
f 542//542 541//541 514//514
f 547//547 551//551 540//540
f 542//542 514//514 533//533
f 543//543 542//542 533//533
f 515//515 549//549 548//548
f 515//515 513//513 549//549
f 549//549 513//513 550//550
f 533//533 544//544 543//543
f 524//524 552//552 551//551
f 525//525 552//552 524//524
f 524//524 547//547 546//546
f 523//523 524//524 546//546
f 525//525 553//553 552//552
f 523//523 546//546 545//545
f 524//524 551//551 547//547
f 531//531 520//520 521//521
f 558//558 548//548 554//554
f 537//537 538//538 520//520
f 537//537 520//520 530//530
f 538//538 555//555 520//520
f 573//573 568//568 572//572
f 571//571 566//566 570//570
f 573//573 562//562 568//568
f 570//570 566//566 565//565
f 570//570 565//565 569//569
f 574//574 562//562 573//573
f 571//571 567//567 566//566
f 575//575 564//564 563//563
f 569//569 564//564 575//575
f 572//572 568//568 567//567
f 569//569 565//565 564//564
f 572//572 567//567 571//571
f 579//579 577//577 578//578
f 578//578 577//577 576//576
f 586//586 593//593 592//592
f 586//586 592//592 585//585
f 585//585 592//592 591//591
f 585//585 591//591 584//584
f 583//583 590//590 589//589
f 580//580 593//593 586//586
f 580//580 587//587 593//593
f 581//581 587//587 580//580
f 581//581 588//588 587//587
f 582//582 588//588 581//581
f 582//582 589//589 588//588
f 583//583 589//589 582//582
f 595//595 596//596 594//594
f 595//595 597//597 596//596
f 598//598 601//601 600//600
f 599//599 601//601 598//598
f 643//643 644//644 609//609
f 637//637 606//606 636//636
f 653//653 635//635 628//628
f 635//635 613//613 628//628
f 615//615 616//616 630//630
f 622//622 623//623 602//602
f 624//624 629//629 602//602
f 617//617 631//631 616//616
f 625//625 629//629 624//624
f 615//615 630//630 629//629
f 621//621 622//622 602//602
f 618//618 631//631 617//617
f 632//632 631//631 618//618
f 612//612 629//629 625//625
f 612//612 611//611 629//629
f 611//611 615//615 629//629
f 611//611 620//620 615//615
f 645//645 634//634 633//633
f 612//612 625//625 626//626
f 605//605 619//619 620//620
f 612//612 626//626 627//627
f 613//613 612//612 627//627
f 610//610 619//619 605//605
f 633//633 632//632 618//618
f 610//610 618//618 619//619
f 610//610 633//633 618//618
f 613//613 627//627 628//628
f 645//645 610//610 644//644
f 645//645 633//633 610//610
f 644//644 610//610 609//609
f 636//636 614//614 613//613
f 636//636 606//606 614//614
f 605//605 620//620 611//611
f 635//635 636//636 613//613
f 616//616 631//631 630//630
f 655//655 649//649 639//639
f 624//624 602//602 623//623
f 655//655 634//634 648//648
f 655//655 640//640 650//650
f 654//654 656//656 652//652
f 654//654 650//650 656//656
f 652//652 657//657 603//603
f 650//650 641//641 656//656
f 650//650 640//640 641//641
f 655//655 639//639 640//640
f 656//656 641//641 653//653
f 634//634 647//647 648//648
f 649//649 638//638 639//639
f 603//603 653//653 602//602
f 649//649 642//642 607//607
f 649//649 607//607 638//638
f 634//634 646//646 647//647
f 642//642 608//608 607//607
f 638//638 607//607 606//606
f 657//657 653//653 603//603
f 655//655 648//648 649//649
f 604//604 634//634 655//655
f 604//604 655//655 651//651
f 653//653 621//621 602//602
f 646//646 634//634 645//645
f 653//653 628//628 621//621
f 643//643 609//609 608//608
f 638//638 606//606 637//637
f 641//641 635//635 653//653
f 603//603 654//654 652//652
f 603//603 604//604 654//654
f 604//604 651//651 654//654
f 642//642 643//643 608//608
f 669//669 660//660 668//668
f 669//669 661//661 660//660
f 670//670 661//661 669//669
f 668//668 659//659 667//667
f 667//667 659//659 658//658
f 670//670 662//662 661//661
f 665//665 662//662 670//670
f 665//665 663//663 662//662
f 666//666 658//658 664//664
f 667//667 658//658 666//666
f 668//668 660//660 659//659
f 674//674 676//676 673//673
f 671//671 678//678 677//677
f 672//672 678//678 671//671
f 673//673 676//676 675//675
f 671//671 677//677 674//674
f 674//674 677//677 676//676
f 679//679 682//682 681//681
f 680//680 682//682 679//679
f 684//684 686//686 683//683
f 684//684 685//685 686//686
f 690//690 687//687 689//689
f 690//690 688//688 687//687
f 691//691 694//694 693//693
f 692//692 694//694 691//691
f 695//695 698//698 697//697
f 696//696 698//698 695//695
f 702//702 699//699 701//701
f 702//702 700//700 699//699
f 706//706 703//703 705//705
f 706//706 704//704 703//703
f 709//709 708//708 707//707
f 710//710 708//708 709//709
f 711//711 717//717 715//715
f 712//712 718//718 711//711
f 712//712 719//719 718//718
f 713//713 719//719 712//712
f 713//713 720//720 719//719
f 714//714 720//720 713//713
f 714//714 721//721 720//720
f 715//715 717//717 716//716
f 711//711 718//718 717//717
f 725//725 723//723 722//722
f 724//724 723//723 725//725
f 730//730 727//727 729//729
f 729//729 727//727 726//726
f 730//730 728//728 727//727
f 731//731 728//728 730//730
f 735//735 733//733 734//734
f 735//735 732//732 733//733
f 737//737 739//739 736//736
f 737//737 738//738 739//739
f 741//741 743//743 742//742
f 741//741 742//742 740//740
f 744//744 747//747 746//746
f 745//745 747//747 744//744
f 748//748 749//749 750//750
f 748//748 750//750 751//751
f 754//754 752//752 755//755
f 754//754 753//753 752//752
f 759//759 756//756 757//757
f 758//758 759//759 757//757
f 758//758 757//757 760//760
f 762//762 758//758 760//760
f 762//762 760//760 761//761
f 766//766 767//767 769//769
f 768//768 763//763 769//769
f 766//766 769//769 764//764
f 767//767 768//768 769//769
f 766//766 764//764 765//765
f 770//770 771//771 772//772
f 770//770 772//772 773//773
f 776//776 777//777 774//774
f 775//775 777//777 776//776
f 778//778 779//779 780//780
f 782//782 779//779 778//778
f 782//782 783//783 779//779
f 781//781 783//783 782//782
f 784//784 783//783 781//781
f 790//790 786//786 791//791
f 790//790 789//789 786//786
f 791//791 786//786 792//792
f 785//785 791//791 792//792
f 790//790 788//788 789//789
f 787//787 788//788 790//790
f 795//795 794//794 797//797
f 797//797 796//796 795//795
f 797//797 798//798 796//796
f 795//795 793//793 794//794
f 802//802 801//801 800//800
f 802//802 800//800 799//799
f 807//807 806//806 811//811
f 811//811 806//806 803//803
f 810//810 809//809 804//804
f 804//804 806//806 807//807
f 804//804 807//807 810//810
f 809//809 808//808 805//805
f 809//809 805//805 804//804
f 814//814 816//816 817//817
f 814//814 813//813 816//816
f 815//815 813//813 812//812
f 815//815 816//816 813//813
f 819//819 821//821 820//820
f 820//820 821//821 818//818
f 822//822 828//828 837//837
f 837//837 834//834 824//824
f 834//834 825//825 824//824
f 829//829 826//826 827//827
f 844//844 826//826 829//829
f 830//830 827//827 831//831
f 831//831 827//827 828//828
f 822//822 823//823 831//831
f 829//829 827//827 830//830
f 822//822 831//831 828//828
f 822//822 837//837 824//824
f 841//841 832//832 838//838
f 844//844 829//829 842//842
f 837//837 833//833 834//834
f 836//836 833//833 837//837
f 835//835 833//833 836//836
f 835//835 832//832 833//833
f 832//832 835//835 838//838
f 844//844 842//842 843//843
f 840//840 838//838 839//839
f 840//840 841//841 838//838
f 848//848 847//847 845//845
f 847//847 846//846 845//845
f 851//851 852//852 849//849
f 852//852 850//850 849//849
f 856//856 855//855 854//854
f 856//856 854//854 853//853
f 858//858 857//857 860//860
f 858//858 860//860 859//859
f 864//864 863//863 862//862
f 864//864 862//862 861//861
