# OMX visual mesh; coordinates in metres
mtllib materials.mtl
usemtl black_fasteners
v -0.0010708 0.0051001 0.0001234
v -0.0009000 0.0050999 0.0006145
v -0.0003704 0.0050999 0.0010275
v 0.0001691 0.0051000 0.0010677
v 0.0006400 0.0050999 0.0008810
v 0.0009632 0.0051000 0.0004907
v 0.0010708 0.0051001 0.0001234
v 0.0010390 0.0051000 -0.0003248
v 0.0007307 0.0051000 -0.0008015
v 0.0002872 0.0051000 -0.0010459
v -0.0001691 0.0051000 -0.0010677
v -0.0006697 0.0050999 -0.0008628
v -0.0010389 0.0051000 -0.0003249
v -0.0010708 0.0051001 0.0001234
v -0.0009000 0.0050999 0.0006145
v -0.0003704 0.0050999 0.0010275
v 0.0001691 0.0051000 0.0010677
v 0.0006400 0.0050999 0.0008810
v 0.0009632 0.0051000 0.0004907
v 0.0010708 0.0051001 0.0001234
v 0.0010390 0.0051000 -0.0003248
v 0.0007307 0.0051000 -0.0008015
v 0.0002872 0.0051000 -0.0010459
v -0.0001691 0.0051000 -0.0010677
v -0.0006697 0.0050999 -0.0008628
v -0.0010389 0.0051000 -0.0003249
v -0.0012973 0.0053247 0.0001480
v 0.0013109 0.0053253 0.0000429
v 0.0012050 0.0053266 -0.0005083
v 0.0009694 0.0053242 -0.0008723
v 0.0005992 0.0053230 -0.0011624
v 0.0002384 0.0053255 -0.0012793
v -0.0000735 0.0053250 -0.0013027
v -0.0004677 0.0053242 -0.0012173
v -0.0007360 0.0053255 -0.0010732
v -0.0009694 0.0053242 -0.0008723
v -0.0011917 0.0053259 -0.0005337
v -0.0012857 0.0053241 -0.0002049
v -0.0012115 0.0053246 0.0004774
v -0.0010165 0.0053258 0.0008195
v -0.0007652 0.0053254 0.0010533
v -0.0004045 0.0053241 0.0012448
v 0.0001109 0.0053266 0.0013031
v 0.0005026 0.0053239 0.0012017
v 0.0008253 0.0053250 0.0010107
v 0.0010534 0.0053253 0.0007652
v 0.0012040 0.0053245 0.0004986
v -0.0012973 0.0053247 0.0001480
v 0.0013109 0.0053253 0.0000429
v 0.0012050 0.0053266 -0.0005083
v 0.0009694 0.0053242 -0.0008723
v 0.0005992 0.0053230 -0.0011624
v 0.0002384 0.0053255 -0.0012793
v -0.0000735 0.0053250 -0.0013027
v -0.0004677 0.0053242 -0.0012173
v -0.0007360 0.0053255 -0.0010732
v -0.0009694 0.0053242 -0.0008723
v -0.0011917 0.0053259 -0.0005337
v -0.0012857 0.0053241 -0.0002049
v -0.0012115 0.0053246 0.0004774
v -0.0010165 0.0053258 0.0008195
v -0.0007652 0.0053254 0.0010533
v -0.0004045 0.0053241 0.0012448
v 0.0001109 0.0053266 0.0013031
v 0.0005026 0.0053239 0.0012017
v 0.0008253 0.0053250 0.0010107
v 0.0010534 0.0053253 0.0007652
v 0.0012040 0.0053245 0.0004986
v 0.0012236 0.0131000 0.0004513
v 0.0010255 0.0131000 0.0008084
v 0.0006702 0.0131000 0.0011232
v 0.0002544 0.0131000 0.0012791
v -0.0001533 0.0131000 0.0012968
v -0.0006547 0.0131000 0.0011364
v -0.0010241 0.0131000 0.0008073
v -0.0012578 0.0131000 0.0003714
v -0.0012877 0.0131000 -0.0002561
v -0.0009994 0.0131000 -0.0008536
v -0.0005467 0.0131000 -0.0011858
v 0.0000000 0.0131000 -0.0013144
v 0.0005800 0.0131000 -0.0011722
v 0.0009844 0.0131000 -0.0008611
v 0.0012251 0.0131000 -0.0004519
v 0.0013078 0.0131000 0.0000155
v 0.0012236 0.0131000 0.0004513
v 0.0010255 0.0131000 0.0008084
v 0.0006702 0.0131000 0.0011232
v 0.0002544 0.0131000 0.0012791
v -0.0001533 0.0131000 0.0012968
v -0.0006547 0.0131000 0.0011364
v -0.0010241 0.0131000 0.0008073
v -0.0012578 0.0131000 0.0003714
v -0.0012877 0.0131000 -0.0002561
v -0.0009994 0.0131000 -0.0008536
v -0.0005467 0.0131000 -0.0011858
v 0.0000000 0.0131000 -0.0013144
v 0.0005800 0.0131000 -0.0011722
v 0.0009844 0.0131000 -0.0008611
v 0.0012251 0.0131000 -0.0004519
v 0.0013078 0.0131000 0.0000155
v 0.0023605 0.0131004 -0.0003937
v 0.0020695 0.0131008 -0.0011987
v 0.0014921 0.0131008 -0.0018790
v 0.0009353 0.0131029 -0.0022123
v 0.0000592 0.0131009 -0.0023910
v -0.0004829 0.0131020 -0.0023427
v -0.0010519 0.0131009 -0.0021531
v -0.0017406 0.0131013 -0.0016404
v -0.0020911 0.0131007 -0.0011704
v -0.0023825 0.0131067 -0.0004137
v -0.0023523 0.0131001 0.0004036
v -0.0020485 0.0131000 0.0012361
v -0.0014915 0.0131000 0.0018633
v -0.0006209 0.0131000 0.0023140
v 0.0002020 0.0131056 0.0023998
v 0.0008445 0.0131017 0.0022463
v 0.0015025 0.0131010 0.0018588
v 0.0020171 0.0131002 0.0012932
v 0.0023358 0.0131000 0.0004917
v 0.0023986 0.0141807 0.0005801
v 0.0021167 0.0142069 0.0011698
v 0.0018016 0.0141738 0.0017049
v 0.0014312 0.0141856 0.0019975
v 0.0010321 0.0141782 0.0022416
v 0.0005451 0.0141932 0.0023811
v 0.0001581 0.0141848 0.0024554
v -0.0004947 0.0141912 0.0024017
v -0.0010764 0.0141973 0.0021844
v -0.0015288 0.0141784 0.0019368
v -0.0018069 0.0141781 0.0016816
v -0.0020877 0.0141860 0.0012941
v -0.0023689 0.0141842 0.0006784
v -0.0024246 0.0142014 -0.0000253
v -0.0025779 0.0140919 0.0001359
v -0.0026996 0.0139132 0.0001059
v -0.0027469 0.0137419 -0.0001271
v -0.0027416 0.0135456 0.0001000
v -0.0026932 0.0134016 -0.0001001
v -0.0026052 0.0132607 -0.0001024
v 0.0027423 0.0135212 0.0000856
v 0.0026248 0.0132872 0.0000951
v 0.0024817 0.0131575 0.0002831
v 0.0025661 0.0140993 0.0002130
v 0.0026343 0.0140232 -0.0000844
v 0.0027321 0.0138236 -0.0001054
v 0.0027241 0.0138257 0.0002155
v 0.0026600 0.0138828 0.0005414
v 0.0025346 0.0140216 0.0007388
v 0.0027066 0.0136617 0.0005136
v 0.0026997 0.0134526 0.0003142
v 0.0023561 0.0140746 0.0010899
v 0.0026117 0.0137552 0.0008491
v 0.0026332 0.0134924 0.0007324
v 0.0024671 0.0138704 0.0011382
v 0.0025743 0.0132837 0.0005101
v 0.0021406 0.0141127 0.0013953
v 0.0025109 0.0136207 0.0011398
v 0.0025022 0.0133417 0.0009213
v 0.0021541 0.0139605 0.0015941
v 0.0023378 0.0137585 0.0014405
v 0.0023309 0.0131661 0.0009209
v 0.0023549 0.0133371 0.0012476
v 0.0022756 0.0135205 0.0015261
v 0.0021562 0.0137554 0.0017023
v 0.0017993 0.0139977 0.0019487
v 0.0015074 0.0140733 0.0021138
v 0.0018683 0.0138118 0.0019988
v 0.0019430 0.0136233 0.0019555
v 0.0021277 0.0132932 0.0015533
v 0.0020736 0.0131544 0.0013701
v 0.0019194 0.0134417 0.0019240
v 0.0014147 0.0138950 0.0023110
v 0.0018111 0.0131855 0.0017689
v 0.0015321 0.0137284 0.0022846
v 0.0017497 0.0133237 0.0019977
v 0.0010153 0.0140114 0.0024450
v 0.0015273 0.0135001 0.0022693
v 0.0005920 0.0140898 0.0025122
v 0.0012490 0.0137077 0.0024521
v 0.0009596 0.0138047 0.0025635
v 0.0013389 0.0131834 0.0021460
v 0.0012771 0.0133516 0.0023485
v 0.0011071 0.0135663 0.0025148
v 0.0005255 0.0139144 0.0026471
v 0.0006424 0.0136696 0.0026841
v 0.0009222 0.0133737 0.0025188
v 0.0007361 0.0135592 0.0026462
v 0.0000848 0.0140432 0.0026166
v 0.0007860 0.0132355 0.0024650
v 0.0002948 0.0138612 0.0027075
v 0.0005332 0.0133044 0.0025915
v -0.0003008 0.0140707 0.0025781
v -0.0001347 0.0138503 0.0027239
v 0.0001953 0.0134636 0.0027178
v 0.0001037 0.0136451 0.0027519
v -0.0004183 0.0138459 0.0026967
v -0.0007299 0.0140312 0.0025282
v 0.0001026 0.0132644 0.0026089
v -0.0003186 0.0136086 0.0027329
v -0.0003229 0.0134244 0.0026891
v -0.0008496 0.0138355 0.0025960
v -0.0011062 0.0140399 0.0023814
v -0.0007384 0.0136525 0.0026541
v -0.0002000 0.0131991 0.0025416
v -0.0007440 0.0134759 0.0026215
v -0.0005707 0.0132049 0.0024909
v -0.0014423 0.0140744 0.0021561
v -0.0008554 0.0133666 0.0025446
v -0.0011577 0.0136151 0.0024988
v -0.0013481 0.0138553 0.0023678
v -0.0016640 0.0139166 0.0021220
v -0.0017848 0.0140462 0.0019125
v -0.0015427 0.0136853 0.0022838
v -0.0013553 0.0134027 0.0023345
v -0.0011079 0.0132602 0.0023580
v -0.0010946 0.0131446 0.0022159
v -0.0019216 0.0138164 0.0019508
v -0.0016041 0.0134952 0.0022086
v -0.0021021 0.0140172 0.0016025
v -0.0018738 0.0135885 0.0020131
v -0.0014039 0.0131970 0.0021184
v -0.0016267 0.0133201 0.0020923
v -0.0018741 0.0133648 0.0019200
v -0.0021617 0.0137031 0.0017095
v -0.0023337 0.0139508 0.0013172
v -0.0022855 0.0141095 0.0011549
v -0.0017251 0.0131611 0.0018086
v -0.0021202 0.0134396 0.0016922
v -0.0023968 0.0137939 0.0013258
v -0.0022863 0.0135929 0.0015321
v -0.0024911 0.0139821 0.0009432
v -0.0020849 0.0132267 0.0015183
v -0.0023756 0.0134474 0.0013217
v -0.0024992 0.0136361 0.0011524
v -0.0025691 0.0137970 0.0009510
v -0.0025724 0.0140423 0.0004922
v -0.0026544 0.0138972 0.0005288
v -0.0025666 0.0135002 0.0009374
v -0.0021973 0.0131489 0.0011484
v -0.0024173 0.0132929 0.0010497
v -0.0026503 0.0137086 0.0007444
v -0.0026910 0.0135359 0.0005349
v -0.0025379 0.0132979 0.0007158
v -0.0027326 0.0137390 0.0002927
v -0.0023886 0.0131530 0.0006784
v -0.0026733 0.0133892 0.0003116
v -0.0025376 0.0131946 0.0002068
v -0.0023565 0.0142016 -0.0005740
v -0.0020746 0.0142013 -0.0012795
v -0.0014721 0.0141926 -0.0019565
v -0.0009385 0.0141742 -0.0022927
v -0.0005065 0.0141878 -0.0024012
v -0.0001282 0.0141737 -0.0024772
v 0.0002966 0.0141906 -0.0024269
v 0.0008253 0.0141964 -0.0022973
v 0.0014403 0.0141975 -0.0019612
v 0.0016780 0.0141795 -0.0018162
v 0.0022113 0.0141805 -0.0011043
v 0.0023651 0.0141945 -0.0006013
v -0.0025775 0.0140746 -0.0003085
v -0.0026681 0.0139035 -0.0004665
v -0.0024631 0.0141064 -0.0006975
v -0.0027314 0.0135860 -0.0003332
v -0.0024869 0.0139914 -0.0009325
v -0.0022563 0.0141284 -0.0011617
v -0.0026757 0.0137078 -0.0006426
v -0.0025640 0.0138085 -0.0009578
v -0.0026631 0.0134468 -0.0005422
v -0.0025826 0.0136122 -0.0009520
v -0.0025645 0.0132766 -0.0005270
v -0.0023406 0.0139326 -0.0013361
v -0.0025283 0.0133752 -0.0009149
v -0.0020217 0.0140798 -0.0016193
v -0.0024028 0.0136839 -0.0013457
v -0.0021261 0.0138874 -0.0016815
v -0.0023396 0.0131576 -0.0008725
v -0.0023915 0.0135026 -0.0013236
v -0.0017108 0.0141375 -0.0018554
v -0.0021619 0.0136777 -0.0017091
v -0.0023280 0.0133592 -0.0013164
v -0.0017091 0.0140102 -0.0020227
v -0.0021793 0.0132213 -0.0013636
v -0.0021452 0.0134782 -0.0016837
v -0.0017930 0.0138120 -0.0020714
v -0.0020742 0.0133019 -0.0016318
v -0.0018626 0.0136563 -0.0020293
v -0.0012636 0.0140632 -0.0022756
v -0.0018526 0.0134945 -0.0020062
v -0.0013177 0.0138891 -0.0023682
v -0.0017188 0.0133123 -0.0020173
v -0.0015420 0.0136224 -0.0022818
v -0.0017831 0.0132058 -0.0018279
v -0.0012218 0.0137808 -0.0024592
v -0.0009270 0.0140000 -0.0024852
v -0.0015074 0.0134495 -0.0022593
v -0.0011546 0.0135724 -0.0024943
v -0.0005013 0.0140513 -0.0025641
v -0.0012734 0.0133175 -0.0023262
v -0.0014417 0.0131525 -0.0020231
v -0.0007274 0.0138885 -0.0026107
v -0.0007632 0.0136829 -0.0026480
v -0.0009470 0.0134374 -0.0025428
v -0.0001991 0.0138541 -0.0027205
v -0.0001197 0.0140039 -0.0026449
v -0.0009178 0.0132233 -0.0024071
v -0.0006351 0.0135445 -0.0026668
v -0.0003316 0.0136836 -0.0027356
v -0.0005190 0.0134064 -0.0026505
v 0.0002941 0.0140726 -0.0025768
v -0.0004760 0.0132258 -0.0025298
v -0.0000982 0.0135860 -0.0027500
v 0.0004343 0.0138857 -0.0026816
v 0.0003242 0.0138001 -0.0027190
v -0.0001001 0.0133986 -0.0026933
v 0.0007308 0.0140492 -0.0025129
v -0.0000917 0.0132131 -0.0025620
v 0.0003235 0.0136370 -0.0027340
v 0.0003486 0.0134690 -0.0027016
v 0.0010322 0.0140543 -0.0024016
v 0.0004187 0.0133443 -0.0026377
v 0.0007518 0.0136785 -0.0026486
v 0.0009409 0.0138281 -0.0025633
v 0.0013341 0.0141239 -0.0021638
v 0.0007406 0.0134926 -0.0026308
v 0.0004780 0.0131732 -0.0024750
v 0.0013406 0.0138796 -0.0023643
v 0.0010533 0.0136194 -0.0025428
v 0.0007208 0.0132422 -0.0024885
v 0.0013576 0.0136382 -0.0023957
v 0.0016471 0.0140069 -0.0020701
v 0.0010956 0.0133798 -0.0024539
v 0.0013204 0.0134602 -0.0023796
v 0.0016825 0.0138434 -0.0021465
v 0.0010834 0.0132330 -0.0023399
v 0.0019417 0.0140417 -0.0017638
v 0.0017144 0.0136423 -0.0021552
v 0.0020100 0.0141652 -0.0014623
v 0.0016584 0.0134215 -0.0021439
v 0.0019944 0.0138391 -0.0018612
v 0.0014122 0.0132349 -0.0021646
v 0.0022239 0.0140544 -0.0013697
v 0.0020188 0.0136638 -0.0018725
v 0.0022946 0.0139064 -0.0014358
v 0.0020061 0.0134745 -0.0018468
v 0.0017452 0.0131717 -0.0018119
v 0.0022863 0.0137239 -0.0015287
v 0.0019409 0.0132904 -0.0017739
v 0.0022868 0.0135609 -0.0015212
v 0.0024710 0.0140678 -0.0008107
v 0.0024792 0.0137820 -0.0011700
v 0.0022261 0.0133327 -0.0014637
v 0.0025339 0.0139066 -0.0009379
v 0.0024993 0.0135904 -0.0011522
v 0.0020798 0.0131705 -0.0013983
v 0.0026037 0.0139953 -0.0005261
v 0.0024653 0.0141815 -0.0001228
v 0.0024527 0.0134007 -0.0011188
v 0.0026543 0.0136522 -0.0007479
v 0.0023437 0.0132403 -0.0010978
v 0.0026790 0.0138208 -0.0005365
v 0.0025939 0.0134750 -0.0008361
v 0.0027371 0.0136137 -0.0003203
v 0.0023323 0.0131557 -0.0008651
v 0.0024910 0.0132441 -0.0007231
v 0.0026149 0.0133559 -0.0005622
v 0.0026616 0.0133649 -0.0003254
v 0.0025168 0.0131920 -0.0003143
v -0.0015451 0.0145021 -0.0002660
v -0.0002657 0.0146360 -0.0008866
v -0.0003802 0.0146660 -0.0005367
v -0.0007224 0.0146520 -0.0002870
v -0.0002624 0.0145115 -0.0015328
v 0.0002697 0.0145179 -0.0015115
v 0.0000144 0.0145010 -0.0015545
v 0.0007163 0.0146524 -0.0002902
v 0.0004321 0.0146663 -0.0004825
v 0.0002819 0.0146482 -0.0007535
v 0.0015382 0.0145079 -0.0002662
v -0.0018406 0.0144227 -0.0001510
v -0.0009965 0.0145681 -0.0008210
v -0.0014515 0.0144273 -0.0011141
v -0.0007700 0.0144244 -0.0016598
v 0.0009970 0.0145677 -0.0008228
v 0.0004860 0.0144256 -0.0017563
v 0.0011808 0.0144290 -0.0013888
v 0.0017194 0.0144310 -0.0005918
v -0.0015290 0.0145072 0.0002692
v 0.0015304 0.0145038 0.0002690
v 0.0002776 0.0146435 0.0007887
v 0.0003542 0.0146646 0.0005940
v 0.0005461 0.0146649 0.0003768
v 0.0008177 0.0146394 0.0002741
v 0.0002694 0.0145048 0.0015292
v -0.0002678 0.0145032 0.0015399
v -0.0007922 0.0146430 0.0002771
v -0.0004858 0.0146673 0.0004211
v -0.0002831 0.0146487 0.0007482
v -0.0014229 0.0144051 0.0012839
v -0.0009636 0.0145545 0.0009555
v -0.0002977 0.0144100 0.0018647
v 0.0008650 0.0143454 0.0018720
v 0.0011547 0.0144668 0.0012633
v 0.0011518 0.0145687 0.0005368
v 0.0016483 0.0144387 0.0006718
v 0.0021393 0.0143171 0.0001453
v -0.0015451 0.0145021 -0.0002660
v -0.0015290 0.0145072 0.0002692
v -0.0015278 0.0139000 -0.0002691
v -0.0015455 0.0139000 0.0002602
v -0.0015290 0.0145072 0.0002692
v -0.0015455 0.0139000 0.0002602
v -0.0002678 0.0145032 0.0015399
v -0.0007922 0.0146430 0.0002771
v -0.0004858 0.0146673 0.0004211
v -0.0002831 0.0146487 0.0007482
v -0.0002689 0.0139000 0.0015295
v -0.0002823 0.0139000 0.0007440
v -0.0004537 0.0139000 0.0004598
v -0.0007381 0.0139000 0.0002834
v -0.0015278 0.0139000 -0.0002691
v -0.0015455 0.0139000 0.0002602
v 0.0002715 0.0139000 -0.0008425
v 0.0002689 0.0139000 -0.0015295
v 0.0003442 0.0139000 -0.0006038
v 0.0005149 0.0139000 -0.0004069
v 0.0007683 0.0139000 -0.0002790
v 0.0015311 0.0139000 -0.0002685
v 0.0015382 0.0139000 0.0002657
v 0.0007934 0.0139000 0.0002758
v 0.0005601 0.0139000 0.0003745
v 0.0003727 0.0139000 0.0005560
v 0.0002733 0.0139000 0.0008180
v 0.0002648 0.0139000 0.0015403
v -0.0002689 0.0139000 0.0015295
v -0.0002823 0.0139000 0.0007440
v -0.0004537 0.0139000 0.0004598
v -0.0007381 0.0139000 0.0002834
v -0.0008146 0.0139000 -0.0002735
v -0.0005520 0.0139000 -0.0003759
v -0.0003455 0.0139000 -0.0006016
v -0.0002718 0.0139000 -0.0008389
v -0.0002648 0.0139000 -0.0015403
v -0.0015451 0.0145021 -0.0002660
v -0.0002657 0.0146360 -0.0008866
v -0.0003802 0.0146660 -0.0005367
v -0.0007224 0.0146520 -0.0002870
v -0.0002624 0.0145115 -0.0015328
v -0.0015278 0.0139000 -0.0002691
v -0.0008146 0.0139000 -0.0002735
v -0.0005520 0.0139000 -0.0003759
v -0.0003455 0.0139000 -0.0006016
v -0.0002718 0.0139000 -0.0008389
v -0.0002648 0.0139000 -0.0015403
v -0.0002624 0.0145115 -0.0015328
v 0.0002697 0.0145179 -0.0015115
v 0.0000144 0.0145010 -0.0015545
v 0.0002689 0.0139000 -0.0015295
v -0.0002648 0.0139000 -0.0015403
v 0.0002697 0.0145179 -0.0015115
v 0.0007163 0.0146524 -0.0002902
v 0.0004321 0.0146663 -0.0004825
v 0.0002819 0.0146482 -0.0007535
v 0.0015382 0.0145079 -0.0002662
v 0.0002715 0.0139000 -0.0008425
v 0.0002689 0.0139000 -0.0015295
v 0.0003442 0.0139000 -0.0006038
v 0.0005149 0.0139000 -0.0004069
v 0.0007683 0.0139000 -0.0002790
v 0.0015311 0.0139000 -0.0002685
v 0.0015382 0.0145079 -0.0002662
v 0.0015304 0.0145038 0.0002690
v 0.0015311 0.0139000 -0.0002685
v 0.0015382 0.0139000 0.0002657
v 0.0015304 0.0145038 0.0002690
v 0.0002776 0.0146435 0.0007887
v 0.0003542 0.0146646 0.0005940
v 0.0005461 0.0146649 0.0003768
v 0.0008177 0.0146394 0.0002741
v 0.0002694 0.0145048 0.0015292
v 0.0015382 0.0139000 0.0002657
v 0.0007934 0.0139000 0.0002758
v 0.0005601 0.0139000 0.0003745
v 0.0003727 0.0139000 0.0005560
v 0.0002733 0.0139000 0.0008180
v 0.0002648 0.0139000 0.0015403
v 0.0002694 0.0145048 0.0015292
v -0.0002678 0.0145032 0.0015399
v 0.0002648 0.0139000 0.0015403
v -0.0002689 0.0139000 0.0015295
vn -0.001353 -0.999999 0.000148
vn -0.000051 -1.000000 -0.000031
vn 0.000217 -1.000000 -0.000372
vn -0.000006 -1.000000 -0.000009
vn -0.000004 -1.000000 0.000008
vn 0.000170 -1.000000 -0.000084
vn 0.000288 -1.000000 -0.000105
vn -0.000291 -1.000000 0.000276
vn -0.000078 -1.000000 0.000053
vn 0.000036 -1.000000 -0.000024
vn 0.000033 -1.000000 -0.000141
vn 0.000007 -1.000000 -0.000029
vn -0.000239 -1.000000 -0.000017
vn -0.687492 -0.722179 0.076239
vn -0.563630 -0.726343 0.393379
vn -0.235193 -0.723434 0.649097
vn 0.101299 -0.724164 0.682148
vn 0.408986 -0.720247 0.560335
vn 0.613382 -0.722448 0.319110
vn 0.687437 -0.721202 0.085429
vn 0.670420 -0.709680 -0.216544
vn 0.474450 -0.721054 -0.504955
vn 0.180018 -0.721997 -0.668068
vn -0.111617 -0.724301 -0.680390
vn -0.428843 -0.725967 -0.537649
vn -0.656821 -0.722743 -0.215008
vn -0.692920 -0.717595 0.070136
vn 0.707092 -0.706893 0.017989
vn 0.647999 -0.706041 -0.285664
vn 0.534715 -0.711351 -0.456135
vn 0.328286 -0.712280 -0.620391
vn 0.122183 -0.700952 -0.702665
vn -0.034375 -0.710120 -0.703241
vn -0.246935 -0.716673 -0.652229
vn -0.405016 -0.684490 -0.606165
vn -0.534565 -0.722836 -0.437890
vn -0.627440 -0.713199 -0.312516
vn -0.692439 -0.716343 -0.085913
vn -0.652177 -0.714998 0.251880
vn -0.549648 -0.698921 0.457599
vn -0.406017 -0.731128 0.548272
vn -0.203967 -0.697137 0.687312
vn 0.040738 -0.709386 0.703641
vn 0.265348 -0.710486 0.651767
vn 0.460566 -0.696408 0.550359
vn 0.559790 -0.714193 0.420195
vn 0.663521 -0.702911 0.256234
vn -0.993907 -0.001287 0.110212
vn 0.999786 -0.001078 0.020655
vn 0.927777 -0.000973 -0.373135
vn 0.737823 -0.000449 -0.674994
vn 0.470000 -0.000238 -0.882666
vn 0.193615 -0.001229 -0.981077
vn -0.070149 -0.000830 -0.997536
vn -0.345257 -0.000319 -0.938508
vn -0.566312 -0.000888 -0.824190
vn -0.751196 -0.001316 -0.660078
vn -0.909061 -0.001828 -0.416659
vn -0.988002 -0.001261 -0.154438
vn -0.925846 -0.000372 0.377901
vn -0.784028 0.001668 0.620723
vn -0.580971 -0.000443 0.813924
vn -0.295997 -0.002804 0.955185
vn 0.070821 -0.002275 0.997486
vn 0.383763 -0.001908 0.923430
vn 0.627605 -0.001659 0.778530
vn 0.807483 -0.000378 0.589891
vn 0.931313 -0.000327 0.364219
vn 0.939775 0.000878 0.341793
vn 0.780340 0.001550 0.625354
vn 0.515571 0.002113 0.856844
vn 0.199804 0.002057 0.979834
vn -0.132279 0.002801 0.991209
vn -0.496501 0.001971 0.868034
vn -0.785446 0.000205 0.618930
vn -0.963494 0.001799 0.267725
vn -0.979910 0.004023 -0.199399
vn -0.768602 0.003518 -0.639718
vn -0.418344 0.002172 -0.908286
vn 0.004260 0.002252 -0.999988
vn 0.433895 0.001697 -0.900962
vn 0.749400 0.000945 -0.662117
vn 0.938369 0.000597 -0.345635
vn 0.999972 0.000423 0.007490
vn 0.000038 -1.000000 0.000078
vn 0.000206 -1.000000 0.000502
vn 0.000425 -0.999999 0.001138
vn -0.000547 -0.999994 0.003544
vn 0.001459 -0.999996 0.002516
vn -0.000014 -1.000000 0.000017
vn -0.000001 -1.000000 0.000014
vn -0.001638 -0.999998 -0.001376
vn -0.004486 -0.999989 0.001059
vn -0.000608 -1.000000 -0.000615
vn -0.000335 -1.000000 -0.000742
vn 0.000491 -0.999999 -0.001499
vn 0.000157 -0.999998 -0.001965
vn 0.000542 -1.000000 -0.000458
vn 0.000454 -1.000000 -0.000317
vn 0.000165 -1.000000 -0.000124
vn 0.298757 -0.952752 -0.054847
vn 0.264619 -0.953016 -0.147436
vn 0.188513 -0.949313 -0.251530
vn 0.127368 -0.944407 -0.303106
vn 0.007182 -0.954032 -0.299619
vn -0.063840 -0.951556 -0.300775
vn -0.142250 -0.946975 -0.288102
vn -0.228406 -0.952264 -0.202542
vn -0.267900 -0.950836 -0.155370
vn -0.354594 -0.933284 -0.056958
vn -0.276703 -0.959995 0.042952
vn -0.244616 -0.956250 0.160463
vn -0.171304 -0.959595 0.223232
vn -0.081522 -0.952423 0.293673
vn 0.038436 -0.937819 0.344990
vn 0.113835 -0.945819 0.304085
vn 0.186305 -0.955007 0.230763
vn 0.241946 -0.958131 0.153122
vn 0.275653 -0.959031 0.065388
vn 0.513495 0.848057 0.130852
vn 0.409302 0.885350 0.220516
vn 0.410777 0.828708 0.380138
vn 0.294091 0.863664 0.409384
vn 0.230520 0.838026 0.494544
vn 0.107281 0.878199 0.466108
vn 0.031617 0.854545 0.518413
vn -0.111078 0.854587 0.507289
vn -0.212832 0.870978 0.442831
vn -0.322734 0.852646 0.410899
vn -0.399782 0.840946 0.364671
vn -0.431803 0.860217 0.271242
vn -0.508104 0.848020 0.150638
vn -0.473720 0.880672 -0.002350
vn -0.709759 0.703515 0.036177
vn -0.909219 0.415617 0.024151
vn -0.988900 0.140125 -0.049424
vn -0.983628 -0.176529 0.036231
vn -0.908715 -0.415304 -0.041943
vn -0.751112 -0.658891 -0.041151
vn 0.977960 -0.207321 0.024740
vn 0.797641 -0.602808 0.019788
vn 0.567395 -0.821569 0.055567
vn 0.716643 0.694236 0.066781
vn 0.809923 0.585507 -0.034716
vn 0.966687 0.253749 -0.033585
vn 0.960118 0.270298 0.071499
vn 0.911904 0.369310 0.178999
vn 0.780670 0.579149 0.234822
vn 0.983396 -0.000813 0.181472
vn 0.929961 -0.347291 0.120670
vn 0.671591 0.672733 0.310477
vn 0.938772 0.161617 0.304281
vn 0.927874 -0.266947 0.260362
vn 0.850127 0.347545 0.395597
vn 0.775147 -0.610215 0.163661
vn 0.566568 0.733227 0.376004
vn 0.906993 -0.082789 0.412929
vn 0.803557 -0.512292 0.303073
vn 0.693888 0.495174 0.522802
vn 0.841107 0.162605 0.515847
vn 0.548814 -0.807097 0.217709
vn 0.755169 -0.522942 0.395287
vn 0.806487 -0.225778 0.546445
vn 0.774653 0.142178 0.616196
vn 0.567466 0.555795 0.607515
vn 0.434658 0.658484 0.614387
vn 0.653261 0.258112 0.711778
vn 0.702619 -0.056495 0.709320
vn 0.652752 -0.586092 0.480011
vn 0.507671 -0.795058 0.331893
vn 0.666892 -0.360619 0.652080
vn 0.476797 0.396781 0.784366
vn 0.455137 -0.775049 0.438347
vn 0.566294 0.099168 0.818216
vn 0.534180 -0.558252 0.634828
vn 0.317419 0.571885 0.756435
vn 0.544939 -0.258921 0.797497
vn 0.166698 0.684601 0.709601
vn 0.456484 0.083437 0.885810
vn 0.338091 0.234688 0.911381
vn 0.335719 -0.772331 0.539256
vn 0.408011 -0.505111 0.760520
vn 0.394446 -0.160065 0.904871
vn 0.173773 0.429307 0.886283
vn 0.219959 0.031874 0.974988
vn 0.311950 -0.452009 0.835688
vn 0.267129 -0.211943 0.940065
vn 0.025743 0.622593 0.782122
vn 0.214904 -0.708855 0.671819
vn 0.103558 0.332389 0.937440
vn 0.155129 -0.576732 0.802069
vn -0.080900 0.663694 0.743617
vn -0.045265 0.310379 0.949535
vn 0.070883 -0.318890 0.945138
vn 0.032667 -0.017940 0.999305
vn -0.149683 0.305504 0.940352
vn -0.221471 0.618486 0.753940
vn 0.033529 -0.643441 0.764761
vn -0.111597 -0.074268 0.990974
vn -0.108346 -0.401806 0.909293
vn -0.310575 0.286313 0.906404
vn -0.322323 0.619618 0.715669
vn -0.263001 -0.014386 0.964688
vn -0.057604 -0.746159 0.663271
vn -0.252451 -0.282366 0.925494
vn -0.149990 -0.719526 0.678075
vn -0.407226 0.667775 0.623091
vn -0.289118 -0.476851 0.830075
vn -0.418024 -0.074100 0.905409
vn -0.462910 0.320212 0.826546
vn -0.559166 0.407192 0.722169
vn -0.538210 0.625035 0.565386
vn -0.558474 0.036566 0.828716
vn -0.457814 -0.407946 0.789928
vn -0.320415 -0.650173 0.688919
vn -0.222157 -0.861561 0.456463
vn -0.679076 0.263621 0.685098
vn -0.564752 -0.265922 0.781243
vn -0.657615 0.563184 0.500366
vn -0.676179 -0.115621 0.727608
vn -0.364152 -0.748908 0.553652
vn -0.507241 -0.561563 0.653722
vn -0.613584 -0.484211 0.623742
vn -0.779547 0.092733 0.619441
vn -0.764354 0.469382 0.442089
vn -0.613568 0.729173 0.303052
vn -0.415700 -0.806615 0.420197
vn -0.728600 -0.358905 0.583377
vn -0.850422 0.215751 0.479826
vn -0.828691 -0.105859 0.549604
vn -0.790334 0.537465 0.294116
vn -0.580878 -0.695920 0.422228
vn -0.813213 -0.361830 0.455811
vn -0.906594 -0.041881 0.419920
vn -0.910939 0.227838 0.343918
vn -0.756730 0.636249 0.150155
vn -0.908800 0.374526 0.183882
vn -0.908245 -0.263954 0.324684
vn -0.509736 -0.823270 0.249791
vn -0.735357 -0.598352 0.318159
vn -0.961211 0.073494 0.265843
vn -0.958835 -0.206068 0.195374
vn -0.786887 -0.578104 0.215882
vn -0.986929 0.118273 0.109465
vn -0.528229 -0.833730 0.160833
vn -0.884215 -0.454927 0.105852
vn -0.653022 -0.755575 0.051666
vn -0.453413 0.883948 -0.114250
vn -0.411108 0.874236 -0.258266
vn -0.305726 0.857538 -0.413716
vn -0.204274 0.838793 -0.504676
vn -0.109741 0.861059 -0.496522
vn -0.024886 0.839576 -0.542672
vn 0.063099 0.870851 -0.487480
vn 0.168082 0.867594 -0.468005
vn 0.266223 0.884574 -0.382955
vn 0.373082 0.841683 -0.390357
vn 0.475371 0.845995 -0.241484
vn 0.498403 0.859457 -0.113698
vn -0.739879 0.668828 -0.072450
vn -0.910032 0.384129 -0.155841
vn -0.668534 0.719019 -0.189932
vn -0.986962 -0.102558 -0.124046
vn -0.786643 0.543296 -0.293296
vn -0.593081 0.750556 -0.291412
vn -0.971394 0.063864 -0.228724
vn -0.906935 0.245828 -0.342108
vn -0.921643 -0.338116 -0.190398
vn -0.933424 -0.092764 -0.346576
vn -0.756108 -0.637454 -0.148168
vn -0.778921 0.435862 -0.450895
vn -0.828042 -0.469381 -0.306639
vn -0.566886 0.683217 -0.460277
vn -0.866756 0.054706 -0.495723
vn -0.728298 0.367970 -0.578084
vn -0.559419 -0.801197 -0.212448
vn -0.847058 -0.245745 -0.471277
vn -0.421546 0.792361 -0.440980
vn -0.787006 0.033895 -0.616014
vn -0.755603 -0.505573 -0.416486
vn -0.523911 0.568393 -0.634387
vn -0.584027 -0.724607 -0.365865
vn -0.749764 -0.294560 -0.592527
vn -0.628953 0.258476 -0.733218
vn -0.632624 -0.582791 -0.510040
vn -0.685138 -0.016525 -0.728226
vn -0.370516 0.663563 -0.649924
vn -0.660216 -0.283741 -0.695418
vn -0.470390 0.381442 -0.795761
vn -0.533415 -0.558742 -0.635039
vn -0.558537 -0.033262 -0.828813
vn -0.471148 -0.747184 -0.468761
vn -0.429934 0.189814 -0.882682
vn -0.292533 0.556299 -0.777790
vn -0.519099 -0.347362 -0.780945
vn -0.419311 -0.154512 -0.894597
vn -0.148882 0.629004 -0.763013
vn -0.397734 -0.559579 -0.727103
vn -0.323190 -0.825905 -0.461984
vn -0.240766 0.361645 -0.900691
vn -0.283621 0.045128 -0.957874
vn -0.317645 -0.367629 -0.874043
vn -0.064548 0.308667 -0.948978
vn -0.025839 0.575821 -0.817168
vn -0.243932 -0.707828 -0.662930
vn -0.221606 -0.189115 -0.956622
vn -0.139583 0.025933 -0.989871
vn -0.164478 -0.416403 -0.894179
vn 0.082019 0.667495 -0.740084
vn -0.131554 -0.706558 -0.695320
vn -0.025544 -0.106001 -0.994038
vn 0.158349 0.375603 -0.913153
vn 0.091187 0.204937 -0.974518
vn -0.034426 -0.437185 -0.898712
vn 0.210603 0.629245 -0.748129
vn -0.027067 -0.722011 -0.691351
vn 0.112301 -0.035458 -0.993041
vn 0.111792 -0.293052 -0.949538
vn 0.309375 0.631535 -0.710951
vn 0.128897 -0.528190 -0.839286
vn 0.261536 0.046049 -0.964095
vn 0.335004 0.287687 -0.897223
vn 0.346829 0.740336 -0.575858
vn 0.260986 -0.293036 -0.919791
vn 0.106747 -0.803718 -0.585356
vn 0.462490 0.357860 -0.811196
vn 0.391430 -0.062118 -0.918109
vn 0.225227 -0.669079 -0.708241
vn 0.500263 -0.014510 -0.865752
vn 0.509551 0.579277 -0.636235
vn 0.357758 -0.447421 -0.819648
vn 0.465344 -0.340551 -0.816995
vn 0.590110 0.286220 -0.754883
vn 0.300493 -0.708011 -0.639080
vn 0.585855 0.613015 -0.530082
vn 0.620777 -0.027947 -0.783489
vn 0.399133 0.866832 -0.298824
vn 0.563974 -0.399602 -0.722670
vn 0.695421 0.301850 -0.652132
vn 0.392414 -0.691023 -0.607040
vn 0.658678 0.642468 -0.391635
vn 0.731041 0.004380 -0.682320
vn 0.779485 0.397520 -0.484129
vn 0.699952 -0.303932 -0.646291
vn 0.430588 -0.784676 -0.445956
vn 0.821939 0.108984 -0.559052
vn 0.589277 -0.600974 -0.539985
vn 0.821379 -0.182634 -0.540353
vn 0.705498 0.667930 -0.236945
vn 0.885904 0.203603 -0.416798
vn 0.713477 -0.522316 -0.467050
vn 0.857533 0.397621 -0.326396
vn 0.897242 -0.117350 -0.425659
vn 0.493219 -0.797910 -0.346517
vn 0.807559 0.569514 -0.153302
vn 0.536914 0.842540 -0.043016
vn 0.821923 -0.421419 -0.383208
vn 0.964505 -0.011545 -0.263812
vn 0.654572 -0.688633 -0.311961
vn 0.947515 0.259552 -0.186676
vn 0.902997 -0.323846 -0.282349
vn 0.988604 -0.085079 -0.124194
vn 0.501896 -0.844701 -0.185960
vn 0.710513 -0.672275 -0.207886
vn 0.871027 -0.456987 -0.180209
vn 0.877809 -0.466066 -0.110607
vn 0.647434 -0.758548 -0.073714
vn -0.290125 0.947177 -0.136690
vn -0.108268 0.980799 -0.162208
vn -0.106399 0.988268 -0.109567
vn -0.142010 0.986457 -0.082075
vn -0.066638 0.958768 -0.276267
vn 0.060886 0.958573 -0.278264
vn 0.008010 0.942740 -0.333432
vn 0.140038 0.986653 -0.083092
vn 0.105658 0.988208 -0.110823
vn 0.096404 0.984218 -0.148396
vn 0.267730 0.962337 -0.047196
vn -0.311672 0.949640 -0.032306
vn -0.164379 0.977056 -0.135427
vn -0.241935 0.953586 -0.179278
vn -0.134482 0.953169 -0.270895
vn 0.161388 0.977341 -0.136962
vn 0.085509 0.948243 -0.305815
vn 0.198843 0.953119 -0.228090
vn 0.288035 0.950867 -0.113523
vn -0.273912 0.958357 0.080769
vn 0.358133 0.932974 0.036064
vn 0.197923 0.963068 0.182553
vn 0.123733 0.981131 0.148565
vn 0.127537 0.985702 0.110117
vn 0.143984 0.986143 0.082410
vn 0.070006 0.961159 0.266969
vn -0.082201 0.964150 0.252304
vn -0.152055 0.984268 0.089975
vn -0.112271 0.987782 0.108079
vn -0.090602 0.984579 0.149651
vn -0.229739 0.950693 0.208333
vn -0.152102 0.975192 0.160826
vn -0.056909 0.949510 0.308531
vn 0.135026 0.943018 0.304115
vn 0.185679 0.961236 0.203835
vn 0.178144 0.979546 0.093562
vn 0.278059 0.953643 0.115101
vn 0.345049 0.938254 0.024915
vn 0.999998 -0.001538 -0.000853
vn 0.999201 -0.026752 -0.029702
vn 0.999031 0.028510 0.033523
vn 0.999986 0.002963 0.004296
vn 0.020862 0.003841 -0.999775
vn 0.028663 0.014009 -0.999491
vn 0.999838 -0.000241 -0.018013
vn 0.230791 0.008537 -0.972966
vn 0.670495 0.008843 -0.741862
vn 0.953245 0.002671 -0.302187
vn 0.999853 -0.001509 -0.017052
vn 0.960189 0.004194 -0.279321
vn 0.718346 -0.005009 -0.695668
vn 0.279761 -0.004134 -0.960061
vn 0.000000 1.000000 0.000000
vn 0.000000 1.000000 0.000000
vn -0.000003 1.000000 0.000001
vn -0.000003 1.000000 0.000000
vn -0.000003 1.000000 0.000002
vn -0.000001 1.000000 0.000000
vn 0.000000 1.000000 0.000000
vn 0.000000 1.000000 0.000000
vn 0.000000 1.000000 0.000000
vn 0.000000 1.000000 0.000000
vn 0.000000 1.000000 0.000000
vn -0.000002 1.000000 -0.000000
vn -0.000002 1.000000 -0.000000
vn -0.000003 1.000000 0.000001
vn -0.000004 1.000000 0.000001
vn -0.000002 1.000000 -0.000001
vn -0.000002 1.000000 -0.000000
vn 0.000000 1.000000 0.000000
vn 0.000000 1.000000 0.000000
vn -0.000001 1.000000 -0.000000
vn -0.000002 1.000000 -0.000001
vn -0.000003 1.000000 -0.000000
vn -0.000003 1.000000 -0.000000
vn 0.014520 0.005266 0.999881
vn 0.986021 0.005421 0.166531
vn 0.809565 0.021079 0.586651
vn 0.334181 0.021006 0.942275
vn 0.999975 -0.003995 0.005866
vn 0.006122 -0.004922 0.999969
vn 0.179016 -0.009146 0.983804
vn 0.566425 -0.015130 0.823975
vn 0.872795 -0.004466 0.488067
vn 0.986954 0.002273 0.160984
vn 0.999950 -0.005967 0.008086
vn 0.077716 -0.012548 0.996897
vn -0.164287 -0.028552 0.985999
vn -0.039867 -0.006950 0.999181
vn -0.057571 0.017150 0.998194
vn 0.006767 0.020481 0.999767
vn -0.999935 0.006842 0.009126
vn -0.322793 0.013302 0.946376
vn -0.736459 0.018624 0.676226
vn -0.962504 0.014410 0.270886
vn -0.020134 0.004474 0.999787
vn -0.989966 -0.005997 0.141178
vn -0.999992 0.001071 0.003796
vn -0.874568 -0.013901 0.484704
vn -0.614609 -0.012182 0.788738
vn -0.232356 -0.005427 0.972616
vn -0.013790 -0.003563 0.999899
vn -0.999997 -0.001511 -0.001811
vn -0.999808 -0.012847 -0.014768
vn -0.999842 0.011739 0.013333
vn -1.000000 0.000442 0.000421
vn -0.010596 0.001729 -0.999942
vn -0.977349 -0.000591 -0.211634
vn -0.852958 0.005289 -0.521953
vn -0.572303 0.008261 -0.820000
vn -0.195219 0.004211 -0.980751
vn -0.999920 0.006326 -0.010953
vn -0.013564 0.005352 -0.999894
vn -0.203203 0.000030 -0.979137
vn -0.550476 -0.007543 -0.834817
vn -0.835630 -0.006434 -0.549255
vn -0.983434 -0.001057 -0.181261
vn -0.999903 0.007345 -0.011819
vn -0.019966 -0.018321 -0.999633
vn -0.001465 -0.001985 -0.999997
vn 0.001620 0.000738 -0.999998
vn 0.020235 0.017175 -0.999648
f 10//10 6//6 5//5
f 12//12 5//5 4//4
f 12//12 4//4 2//2
f 12//12 2//2 13//13
f 12//12 11//11 10//10
f 12//12 10//10 5//5
f 2//2 4//4 3//3
f 10//10 9//9 8//8
f 10//10 8//8 7//7
f 10//10 7//7 6//6
f 13//13 2//2 1//1
f 43//43 16//16 17//17
f 39//39 14//14 15//15
f 41//41 15//15 16//16
f 41//41 40//40 15//15
f 42//42 41//41 16//16
f 43//43 42//42 16//16
f 44//44 43//43 17//17
f 47//47 46//46 19//19
f 45//45 44//44 18//18
f 46//46 45//45 18//18
f 46//46 18//18 19//19
f 39//39 27//27 14//14
f 47//47 19//19 20//20
f 20//20 28//28 47//47
f 44//44 17//17 18//18
f 26//26 38//38 37//37
f 15//15 40//40 39//39
f 26//26 14//14 27//27
f 26//26 27//27 38//38
f 21//21 29//29 28//28
f 21//21 28//28 20//20
f 30//30 29//29 21//21
f 30//30 21//21 22//22
f 31//31 22//22 23//23
f 32//32 31//31 23//23
f 33//33 32//32 23//23
f 31//31 30//30 22//22
f 34//34 33//33 24//24
f 34//34 24//24 25//25
f 35//35 34//34 25//25
f 36//36 35//35 25//25
f 36//36 25//25 26//26
f 37//37 36//36 26//26
f 33//33 23//23 24//24
f 55//55 79//79 80//80
f 58//58 59//59 77//77
f 58//58 77//77 78//78
f 57//57 58//58 78//78
f 56//56 78//78 79//79
f 56//56 57//57 78//78
f 55//55 56//56 79//79
f 54//54 55//55 80//80
f 49//49 83//83 84//84
f 53//53 80//80 81//81
f 52//52 53//53 81//81
f 52//52 81//81 82//82
f 50//50 51//51 82//82
f 50//50 82//82 83//83
f 49//49 50//50 83//83
f 59//59 48//48 77//77
f 53//53 54//54 80//80
f 48//48 76//76 77//77
f 51//51 52//52 82//82
f 60//60 61//61 76//76
f 48//48 60//60 76//76
f 49//49 84//84 69//69
f 68//68 69//69 70//70
f 67//67 68//68 70//70
f 66//66 67//67 70//70
f 66//66 70//70 71//71
f 65//65 66//66 71//71
f 65//65 71//71 72//72
f 68//68 49//49 69//69
f 64//64 72//72 73//73
f 63//63 64//64 73//73
f 63//63 73//73 74//74
f 62//62 63//63 74//74
f 61//61 62//62 74//74
f 61//61 74//74 75//75
f 64//64 65//65 72//72
f 61//61 75//75 76//76
f 315//315 312//312 309//309
f 318//318 311//311 317//317
f 318//318 314//314 311//311
f 319//319 315//315 255//255
f 316//316 106//106 310//310
f 105//105 106//106 316//316
f 320//320 314//314 318//318
f 321//321 317//317 313//313
f 320//320 316//316 314//314
f 322//322 312//312 315//315
f 323//323 319//319 255//255
f 324//324 317//317 321//321
f 317//317 311//311 313//313
f 325//325 316//316 320//320
f 321//321 313//313 312//312
f 316//316 310//310 314//314
f 311//311 307//307 303//303
f 314//314 310//310 308//308
f 308//308 302//302 306//306
f 309//309 253//253 254//254
f 308//308 305//305 302//302
f 308//308 306//306 307//307
f 309//309 304//304 253//253
f 310//310 305//305 308//308
f 312//312 304//304 309//309
f 313//313 311//311 303//303
f 312//312 303//303 304//304
f 324//324 318//318 317//317
f 313//313 303//303 312//312
f 106//106 107//107 305//305
f 106//106 305//305 310//310
f 314//314 308//308 311//311
f 315//315 254//254 255//255
f 315//315 309//309 254//254
f 311//311 308//308 307//307
f 322//322 321//321 312//312
f 328//328 325//325 320//320
f 323//323 255//255 256//256
f 334//334 325//325 328//328
f 336//336 326//326 333//333
f 336//336 329//329 326//326
f 335//335 330//330 257//257
f 104//104 325//325 334//334
f 335//335 257//257 337//337
f 338//338 329//329 336//336
f 339//339 333//333 330//330
f 339//339 330//330 335//335
f 337//337 257//257 258//258
f 340//340 331//331 332//332
f 338//338 332//332 329//329
f 340//340 334//334 331//331
f 341//341 335//335 337//337
f 307//307 306//306 301//301
f 334//334 328//328 331//331
f 319//319 322//322 315//315
f 332//332 331//331 327//327
f 257//257 330//330 323//323
f 105//105 316//316 325//325
f 320//320 318//318 324//324
f 327//327 321//321 322//322
f 326//326 322//322 319//319
f 326//326 319//319 323//323
f 325//325 104//104 105//105
f 327//327 324//324 321//321
f 326//326 327//327 322//322
f 328//328 320//320 324//324
f 329//329 327//327 326//326
f 331//331 324//324 327//327
f 330//330 326//326 323//323
f 257//257 323//323 256//256
f 332//332 327//327 329//329
f 333//333 326//326 330//330
f 331//331 328//328 324//324
f 304//304 303//303 297//297
f 290//290 285//285 283//283
f 306//306 302//302 301//301
f 281//281 275//275 273//273
f 284//284 275//275 281//281
f 283//283 280//280 277//277
f 285//285 280//280 283//283
f 284//284 279//279 275//275
f 281//281 278//278 250//250
f 285//285 282//282 280//280
f 286//286 279//279 284//284
f 109//109 276//276 282//282
f 287//287 281//281 250//250
f 288//288 283//283 279//279
f 288//288 279//279 286//286
f 289//289 281//281 287//287
f 287//287 250//250 251//251
f 338//338 340//340 332//332
f 283//283 274//274 279//279
f 290//290 283//283 288//288
f 283//283 277//277 274//274
f 282//282 272//272 280//280
f 273//273 271//271 265//265
f 272//272 270//270 268//268
f 274//274 269//269 267//267
f 275//275 271//271 273//273
f 276//276 270//270 272//272
f 277//277 269//269 274//274
f 276//276 110//110 270//270
f 277//277 272//272 269//269
f 278//278 249//249 250//250
f 278//278 273//273 249//249
f 279//279 271//271 275//275
f 276//276 109//109 110//110
f 280//280 272//272 277//277
f 279//279 274//274 271//271
f 281//281 273//273 278//278
f 282//282 276//276 272//272
f 307//307 301//301 303//303
f 292//292 282//282 285//285
f 289//289 284//284 281//281
f 298//298 295//295 296//296
f 300//300 294//294 297//297
f 299//299 107//107 108//108
f 301//301 293//293 300//300
f 299//299 290//290 298//298
f 301//301 296//296 293//293
f 302//302 298//298 296//296
f 301//301 302//302 296//296
f 303//303 300//300 297//297
f 253//253 297//297 252//252
f 305//305 299//299 298//298
f 304//304 297//297 253//253
f 305//305 298//298 302//302
f 107//107 299//299 305//305
f 303//303 301//301 300//300
f 300//300 293//293 294//294
f 291//291 286//286 284//284
f 296//296 295//295 291//291
f 299//299 292//292 290//290
f 108//108 282//282 292//292
f 108//108 109//109 282//282
f 292//292 285//285 290//290
f 293//293 284//284 289//289
f 291//291 288//288 286//286
f 293//293 291//291 284//284
f 294//294 287//287 251//251
f 295//295 288//288 291//291
f 295//295 290//290 288//288
f 294//294 289//289 287//287
f 293//293 289//289 294//294
f 299//299 108//108 292//292
f 296//296 291//291 293//293
f 297//297 251//251 252//252
f 297//297 294//294 251//251
f 298//298 290//290 295//295
f 342//342 333//333 339//339
f 361//361 353//353 358//358
f 340//340 104//104 334//334
f 385//385 255//255 384//384
f 385//385 384//384 373//373
f 385//385 257//257 256//256
f 383//383 375//375 378//378
f 385//385 258//258 257//257
f 386//386 385//385 383//383
f 386//386 258//258 385//385
f 386//386 259//259 258//258
f 386//386 383//383 378//378
f 386//386 405//405 259//259
f 386//386 378//378 405//405
f 379//379 133//133 132//132
f 379//379 387//387 368//368
f 387//387 379//379 132//132
f 398//398 387//387 132//132
f 385//385 373//373 383//383
f 398//398 132//132 131//131
f 385//385 256//256 255//255
f 384//384 255//255 254//254
f 381//381 250//250 249//249
f 382//382 250//250 381//381
f 382//382 381//381 380//380
f 382//382 380//380 369//369
f 382//382 251//251 250//250
f 382//382 369//369 372//372
f 382//382 252//252 251//251
f 372//372 252//252 382//382
f 372//372 253//253 252//252
f 372//372 254//254 253//253
f 383//383 373//373 377//377
f 383//383 377//377 376//376
f 384//384 374//374 373//373
f 384//384 254//254 372//372
f 384//384 372//372 374//374
f 383//383 376//376 375//375
f 369//369 380//380 370//370
f 398//398 131//131 130//130
f 399//399 395//395 387//387
f 403//403 388//388 392//392
f 401//401 124//124 123//123
f 402//402 393//393 401//401
f 403//403 390//390 402//402
f 402//402 123//123 122//122
f 402//402 401//401 123//123
f 404//404 388//388 403//403
f 404//404 403//403 402//402
f 121//121 402//402 122//122
f 404//404 378//378 388//388
f 404//404 402//402 121//121
f 404//404 121//121 120//120
f 405//405 404//404 120//120
f 405//405 378//378 404//404
f 405//405 120//120 356//356
f 403//403 392//392 391//391
f 398//398 130//130 129//129
f 403//403 391//391 390//390
f 402//402 390//390 393//393
f 398//398 129//129 128//128
f 399//399 397//397 396//396
f 399//399 387//387 398//398
f 399//399 396//396 395//395
f 399//399 394//394 397//397
f 400//400 398//398 128//128
f 400//400 399//399 398//398
f 400//400 128//128 127//127
f 400//400 394//394 399//399
f 400//400 127//127 126//126
f 400//400 393//393 394//394
f 393//393 126//126 125//125
f 393//393 400//400 126//126
f 390//390 389//389 393//393
f 401//401 393//393 125//125
f 401//401 125//125 124//124
f 342//342 336//336 333//333
f 381//381 249//249 379//379
f 379//379 249//249 248//248
f 349//349 258//258 259//259
f 351//351 347//347 344//344
f 353//353 346//346 350//350
f 353//353 348//348 346//346
f 352//352 350//350 343//343
f 354//354 345//345 347//347
f 354//354 347//347 351//351
f 353//353 351//351 348//348
f 356//356 349//349 259//259
f 357//357 351//351 353//353
f 358//358 350//350 352//352
f 355//355 352//352 349//349
f 102//102 345//345 354//354
f 102//102 103//103 345//345
f 355//355 349//349 356//356
f 352//352 343//343 349//349
f 358//358 353//353 350//350
f 350//350 346//346 343//343
f 349//349 343//343 341//341
f 103//103 104//104 340//340
f 343//343 335//335 341//341
f 344//344 336//336 342//342
f 344//344 338//338 336//336
f 343//343 339//339 335//335
f 258//258 341//341 337//337
f 345//345 340//340 338//338
f 346//346 339//339 343//343
f 346//346 342//342 339//339
f 347//347 338//338 344//344
f 347//347 345//345 338//338
f 345//345 103//103 340//340
f 348//348 344//344 342//342
f 348//348 342//342 346//346
f 349//349 341//341 258//258
f 351//351 344//344 348//348
f 381//381 379//379 380//380
f 359//359 351//351 357//357
f 360//360 358//358 352//352
f 362//362 145//145 140//140
f 101//101 363//363 364//364
f 366//366 362//362 140//140
f 367//367 364//364 365//365
f 366//366 140//140 141//141
f 367//367 101//101 364//364
f 366//366 367//367 365//365
f 367//367 366//366 141//141
f 367//367 141//141 142//142
f 101//101 367//367 142//142
f 248//248 133//133 379//379
f 356//356 259//259 405//405
f 380//380 368//368 371//371
f 380//380 371//371 370//370
f 379//379 368//368 380//380
f 366//366 365//365 358//358
f 360//360 352//352 355//355
f 366//366 358//358 362//362
f 363//363 359//359 364//364
f 274//274 267//267 271//271
f 144//144 356//356 143//143
f 144//144 355//355 356//356
f 359//359 354//354 351//351
f 361//361 357//357 353//353
f 102//102 354//354 359//359
f 145//145 355//355 144//144
f 364//364 359//359 357//357
f 364//364 357//357 361//361
f 362//362 358//358 360//360
f 145//145 360//360 355//355
f 363//363 102//102 359//359
f 365//365 361//361 358//358
f 363//363 101//101 102//102
f 145//145 362//362 360//360
f 365//365 364//364 361//361
f 273//273 265//265 249//249
f 268//268 139//139 138//138
f 272//272 268//268 269//269
f 124//124 166//166 123//123
f 175//175 169//169 171//171
f 176//176 166//166 124//124
f 173//173 170//170 169//169
f 174//174 168//168 167//167
f 175//175 173//173 169//169
f 177//177 168//168 174//174
f 176//176 172//172 166//166
f 118//118 170//170 173//173
f 177//177 171//171 168//168
f 178//178 124//124 125//125
f 179//179 174//174 172//172
f 178//178 176//176 124//124
f 173//173 117//117 118//118
f 175//175 171//171 177//177
f 174//174 167//167 172//172
f 180//180 172//172 176//176
f 172//172 167//167 165//165
f 171//171 169//169 163//163
f 163//163 162//162 157//157
f 163//163 160//160 164//164
f 166//166 122//122 123//123
f 161//161 118//118 119//119
f 162//162 161//161 158//158
f 166//166 165//165 122//122
f 167//167 159//159 165//165
f 168//168 163//163 164//164
f 167//167 164//164 159//159
f 169//169 162//162 163//163
f 170//170 162//162 169//169
f 170//170 161//161 162//162
f 171//171 163//163 168//168
f 168//168 164//164 167//167
f 170//170 118//118 161//161
f 172//172 165//165 166//166
f 165//165 159//159 122//122
f 179//179 177//177 174//174
f 181//181 173//173 175//175
f 190//190 184//184 178//178
f 189//189 181//181 182//182
f 116//116 181//181 189//189
f 191//191 186//186 187//187
f 192//192 126//126 127//127
f 193//193 190//190 188//188
f 192//192 188//188 126//126
f 194//194 187//187 185//185
f 195//195 185//185 190//190
f 189//189 186//186 191//191
f 194//194 191//191 187//187
f 193//193 188//188 192//192
f 194//194 185//185 195//195
f 195//195 190//190 193//193
f 196//196 193//193 192//192
f 190//190 178//178 188//188
f 180//180 179//179 172//172
f 190//190 185//185 184//184
f 189//189 182//182 186//186
f 183//183 177//177 179//179
f 182//182 175//175 177//177
f 182//182 177//177 183//183
f 271//271 267//267 264//264
f 117//117 173//173 181//181
f 182//182 181//181 175//175
f 184//184 176//176 178//178
f 185//185 183//183 180//180
f 184//184 180//180 176//176
f 186//186 182//182 183//183
f 187//187 183//183 185//185
f 185//185 180//180 184//184
f 126//126 178//178 125//125
f 181//181 116//116 117//117
f 188//188 178//178 126//126
f 186//186 183//183 187//187
f 197//197 192//192 127//127
f 161//161 119//119 142//142
f 163//163 157//157 160//160
f 103//103 98//98 97//97
f 104//104 103//103 97//97
f 112//112 92//92 91//91
f 111//111 92//92 112//112
f 104//104 97//97 96//96
f 105//105 104//104 96//96
f 110//110 93//93 92//92
f 110//110 92//92 111//111
f 106//106 105//105 96//96
f 107//107 106//106 96//96
f 107//107 96//96 95//95
f 109//109 93//93 110//110
f 109//109 94//94 93//93
f 107//107 95//95 94//94
f 108//108 107//107 94//94
f 112//112 91//91 113//113
f 108//108 94//94 109//109
f 113//113 91//91 90//90
f 98//98 102//102 99//99
f 87//87 86//86 117//117
f 86//86 118//118 117//117
f 87//87 117//117 116//116
f 85//85 118//118 86//86
f 88//88 87//87 116//116
f 85//85 119//119 118//118
f 88//88 116//116 115//115
f 100//100 119//119 85//85
f 100//100 101//101 119//119
f 89//89 88//88 115//115
f 89//89 115//115 114//114
f 99//99 101//101 100//100
f 90//90 89//89 114//114
f 99//99 102//102 101//101
f 90//90 114//114 113//113
f 98//98 103//103 102//102
f 164//164 160//160 159//159
f 120//120 143//143 356//356
f 146//146 145//145 144//144
f 155//155 142//142 141//141
f 153//153 155//155 150//150
f 157//157 152//152 154//154
f 157//157 153//153 152//152
f 159//159 151//151 156//156
f 159//159 154//154 151//151
f 158//158 155//155 153//153
f 122//122 156//156 121//121
f 160//160 154//154 159//159
f 158//158 153//153 157//157
f 161//161 155//155 158//158
f 160//160 157//157 154//154
f 122//122 159//159 156//156
f 161//161 142//142 155//155
f 162//162 158//158 157//157
f 142//142 119//119 101//101
f 146//146 144//144 143//143
f 153//153 149//149 152//152
f 154//154 152//152 148//148
f 147//147 146//146 143//143
f 148//148 143//143 120//120
f 140//140 145//145 146//146
f 147//147 143//143 148//148
f 149//149 146//146 147//147
f 149//149 140//140 146//146
f 151//151 120//120 121//121
f 151//151 148//148 120//120
f 141//141 140//140 150//150
f 150//150 140//140 149//149
f 152//152 147//147 148//148
f 152//152 149//149 147//147
f 154//154 148//148 151//151
f 155//155 141//141 150//150
f 153//153 150//150 149//149
f 156//156 151//151 121//121
f 198//198 191//191 194//194
f 183//183 179//179 180//180
f 199//199 195//195 193//193
f 240//240 233//233 238//238
f 241//241 235//235 237//237
f 238//238 234//234 241//241
f 239//239 232//232 240//240
f 135//135 236//236 134//134
f 243//243 240//240 238//238
f 239//239 112//112 232//232
f 242//242 238//238 241//241
f 135//135 237//237 236//236
f 242//242 241//241 244//244
f 242//242 243//243 238//238
f 244//244 237//237 135//135
f 115//115 189//189 191//191
f 110//110 139//139 270//270
f 244//244 241//241 237//237
f 241//241 234//234 235//235
f 240//240 232//232 233//233
f 134//134 132//132 133//133
f 231//231 229//229 225//225
f 231//231 226//226 132//132
f 233//233 228//228 230//230
f 234//234 230//230 229//229
f 235//235 229//229 231//231
f 227//227 112//112 113//113
f 233//233 230//230 234//234
f 233//233 232//232 228//228
f 235//235 234//234 229//229
f 236//236 231//231 132//132
f 237//237 231//231 236//236
f 134//134 236//236 132//132
f 112//112 227//227 232//232
f 238//238 233//233 234//234
f 237//237 235//235 231//231
f 244//244 135//135 136//136
f 245//245 240//240 243//243
f 245//245 239//239 240//240
f 137//137 242//242 244//244
f 263//263 137//137 136//136
f 263//263 136//136 261//261
f 264//264 261//261 262//262
f 265//265 248//248 249//249
f 265//265 262//262 248//248
f 138//138 137//137 263//263
f 266//266 263//263 261//261
f 267//267 261//261 264//264
f 264//264 262//262 265//265
f 268//268 138//138 263//263
f 267//267 266//266 261//261
f 268//268 263//263 266//266
f 269//269 268//268 266//266
f 269//269 266//266 267//267
f 110//110 247//247 139//139
f 261//261 260//260 262//262
f 232//232 223//223 228//228
f 262//262 260//260 248//248
f 261//261 135//135 134//134
f 137//137 244//244 136//136
f 245//245 112//112 239//239
f 245//245 111//111 112//112
f 246//246 243//243 242//242
f 246//246 242//242 137//137
f 246//246 137//137 138//138
f 247//247 243//243 246//246
f 247//247 245//245 243//243
f 246//246 138//138 139//139
f 247//247 246//246 139//139
f 111//111 245//245 247//247
f 111//111 247//247 110//110
f 260//260 134//134 133//133
f 260//260 133//133 248//248
f 261//261 134//134 260//260
f 136//136 135//135 261//261
f 270//270 139//139 268//268
f 232//232 227//227 223//223
f 230//230 224//224 229//229
f 204//204 114//114 115//115
f 208//208 200//200 205//205
f 209//209 203//203 201//201
f 210//210 201//201 202//202
f 129//129 207//207 128//128
f 208//208 206//206 200//200
f 207//207 202//202 128//128
f 114//114 204//204 206//206
f 209//209 205//205 203//203
f 210//210 209//209 201//201
f 208//208 205//205 209//209
f 211//211 210//210 207//207
f 212//212 207//207 129//129
f 213//213 209//209 210//210
f 210//210 202//202 207//207
f 206//206 204//204 200//200
f 204//204 115//115 198//198
f 201//201 197//197 202//202
f 115//115 116//116 189//189
f 197//197 196//196 192//192
f 199//199 194//194 195//195
f 198//198 115//115 191//191
f 200//200 194//194 199//199
f 196//196 199//199 193//193
f 201//201 196//196 197//197
f 202//202 127//127 128//128
f 202//202 197//197 127//127
f 200//200 198//198 194//194
f 203//203 196//196 201//201
f 204//204 198//198 200//200
f 203//203 199//199 196//196
f 205//205 200//200 199//199
f 205//205 199//199 203//203
f 214//214 208//208 209//209
f 213//213 210//210 211//211
f 211//211 207//207 212//212
f 130//130 212//212 129//129
f 223//223 222//222 218//218
f 226//226 219//219 131//131
f 224//224 220//220 217//217
f 224//224 217//217 219//219
f 225//225 219//219 226//226
f 113//113 216//216 221//221
f 227//227 221//221 222//222
f 228//228 220//220 224//224
f 226//226 131//131 132//132
f 228//228 223//223 220//220
f 229//229 224//224 219//219
f 229//229 219//219 225//225
f 227//227 113//113 221//221
f 223//223 227//227 222//222
f 230//230 228//228 224//224
f 216//216 113//113 114//114
f 231//231 225//225 226//226
f 222//222 221//221 214//214
f 221//221 216//216 215//215
f 215//215 206//206 208//208
f 215//215 208//208 214//214
f 214//214 209//209 213//213
f 216//216 206//206 215//215
f 217//217 213//213 211//211
f 216//216 114//114 206//206
f 217//217 211//211 212//212
f 219//219 212//212 130//130
f 218//218 214//214 213//213
f 220//220 213//213 217//217
f 221//221 215//215 214//214
f 219//219 217//217 212//212
f 219//219 130//130 131//131
f 222//222 214//214 218//218
f 220//220 218//218 213//213
f 223//223 218//218 220//220
f 271//271 264//264 265//265
f 409//409 406//406 407//407
f 408//408 406//406 409//409
f 418//418 419//419 414//414
f 419//419 413//413 414//414
f 417//417 412//412 416//416
f 417//417 415//415 412//412
f 417//417 418//418 414//414
f 417//417 414//414 415//415
f 411//411 410//410 419//419
f 419//419 410//410 413//413
f 424//424 441//441 440//440
f 437//437 438//438 421//421
f 422//422 423//423 442//442
f 438//438 420//420 421//421
f 428//428 427//427 426//426
f 428//428 426//426 429//429
f 433//433 435//435 434//434
f 433//433 432//432 435//435
f 432//432 431//431 435//435
f 429//429 426//426 430//430
f 430//430 426//426 425//425
f 431//431 436//436 435//435
f 430//430 425//425 431//431
f 431//431 425//425 439//439
f 431//431 439//439 436//436
f 425//425 440//440 439//439
f 425//425 424//424 440//440
f 436//436 439//439 437//437
f 437//437 439//439 438//438
f 424//424 422//422 441//441
f 422//422 442//442 441//441
f 453//453 447//447 444//444
f 453//453 444//444 452//452
f 450//450 445//445 446//446
f 449//449 446//446 443//443
f 449//449 443//443 448//448
f 450//450 451//451 445//445
f 451//451 444//444 445//445
f 451//451 452//452 444//444
f 449//449 450//450 446//446
f 457//457 455//455 456//456
f 458//458 456//456 454//454
f 457//457 456//456 458//458
f 466//466 467//467 461//461
f 466//466 461//461 462//462
f 464//464 466//466 462//462
f 468//468 463//463 460//460
f 469//469 463//463 468//468
f 467//467 468//468 460//460
f 464//464 462//462 459//459
f 464//464 459//459 465//465
f 467//467 460//460 461//461
f 473//473 470//470 472//472
f 473//473 471//471 470//470
f 485//485 479//479 484//484
f 484//484 479//479 475//475
f 482//482 483//483 477//477
f 481//481 482//482 477//477
f 483//483 476//476 477//477
f 483//483 484//484 475//475
f 483//483 475//475 476//476
f 481//481 478//478 474//474
f 481//481 477//477 478//478
f 481//481 474//474 480//480
f 488//488 487//487 486//486
f 489//489 487//487 488//488
