# OMX visual mesh; coordinates in metres
mtllib materials.mtl
usemtl white_led_diffuser
v 0.0323000 -0.0094000 0.0268000
v 0.0273000 -0.0094000 0.0268000
v 0.0273000 -0.0094000 0.0260000
v 0.0323000 -0.0094000 0.0260000
v 0.0323000 -0.0094000 0.0268000
v 0.0273000 -0.0094000 0.0268000
v 0.0273000 -0.0096000 0.0270000
v 0.0323000 -0.0096000 0.0270000
v 0.0323000 -0.0094000 0.0268000
v 0.0323000 -0.0094000 0.0260000
v 0.0323000 -0.0096000 0.0270000
v 0.0323000 -0.0068000 0.0260000
v 0.0323000 -0.0111000 0.0270000
v 0.0323000 -0.0113000 0.0268000
v 0.0323000 -0.0113000 0.0250000
v 0.0323000 -0.0074014 0.0250000
v 0.0323000 -0.0068000 0.0251061
v 0.0323000 -0.0068000 0.0260000
v 0.0323000 -0.0068000 0.0251061
v 0.0273000 -0.0068000 0.0251061
v 0.0273000 -0.0068000 0.0260000
v 0.0273000 -0.0094000 0.0260000
v 0.0323000 -0.0094000 0.0260000
v 0.0323000 -0.0068000 0.0260000
v 0.0273000 -0.0068000 0.0260000
v 0.0273000 -0.0094000 0.0268000
v 0.0273000 -0.0094000 0.0260000
v 0.0273000 -0.0096000 0.0270000
v 0.0273000 -0.0068000 0.0251061
v 0.0273000 -0.0068000 0.0260000
v 0.0273000 -0.0074014 0.0250000
v 0.0273000 -0.0113000 0.0250000
v 0.0273000 -0.0113000 0.0268000
v 0.0273000 -0.0111000 0.0270000
v 0.0273000 -0.0096000 0.0270000
v 0.0323000 -0.0096000 0.0270000
v 0.0323000 -0.0111000 0.0270000
v 0.0273000 -0.0111000 0.0270000
v 0.0323000 -0.0111000 0.0270000
v 0.0323000 -0.0113000 0.0268000
v 0.0273000 -0.0113000 0.0268000
v 0.0273000 -0.0111000 0.0270000
v 0.0323000 -0.0113000 0.0268000
v 0.0323000 -0.0113000 0.0250000
v 0.0273000 -0.0113000 0.0250000
v 0.0273000 -0.0113000 0.0268000
v 0.0323000 -0.0113000 0.0250000
v 0.0323000 -0.0074014 0.0250000
v 0.0323000 -0.0068000 0.0251061
v 0.0273000 -0.0068000 0.0251061
v 0.0273000 -0.0074014 0.0250000
v 0.0273000 -0.0113000 0.0250000
vn 0.000000 1.000000 0.000000
vn 0.000000 1.000000 0.000000
vn 0.000000 1.000000 0.000000
vn 0.000000 1.000000 0.000000
vn 0.000000 0.707087 0.707127
vn 0.000000 0.707087 0.707127
vn 0.000000 0.707087 0.707127
vn 0.000000 0.707087 0.707127
vn 1.000000 0.000000 0.000000
vn 1.000000 0.000000 0.000000
vn 1.000000 0.000000 0.000000
vn 1.000000 0.000000 0.000000
vn 1.000000 0.000000 0.000000
vn 1.000000 0.000000 0.000000
vn 1.000000 0.000000 0.000000
vn 1.000000 0.000000 0.000000
vn 1.000000 0.000000 0.000000
vn 0.000000 1.000000 0.000000
vn 0.000000 1.000000 0.000000
vn 0.000000 1.000000 0.000000
vn 0.000000 1.000000 0.000000
vn 0.000000 0.000000 1.000000
vn 0.000000 0.000000 1.000000
vn 0.000000 0.000000 1.000000
vn 0.000000 0.000000 1.000000
vn -1.000000 0.000000 0.000000
vn -1.000000 0.000000 0.000000
vn -1.000000 0.000000 0.000000
vn -1.000000 0.000000 0.000000
vn -1.000000 0.000000 0.000000
vn -1.000000 0.000000 0.000000
vn -1.000000 0.000000 0.000000
vn -1.000000 0.000000 0.000000
vn -1.000000 0.000000 0.000000
vn 0.000000 0.000000 1.000000
vn 0.000000 0.000000 1.000000
vn 0.000000 0.000000 1.000000
vn 0.000000 0.000000 1.000000
vn 0.000000 -0.707085 0.707128
vn 0.000000 -0.707085 0.707128
vn 0.000000 -0.707085 0.707128
vn 0.000000 -0.707085 0.707128
vn 0.000000 -1.000000 0.000000
vn 0.000000 -1.000000 0.000000
vn 0.000000 -1.000000 0.000000
vn 0.000000 -1.000000 0.000000
vn 0.000000 -0.000004 -1.000000
vn 0.000000 0.087163 -0.996194
vn 0.000000 0.173666 -0.984805
vn 0.000000 0.173666 -0.984805
vn 0.000000 0.087163 -0.996194
vn 0.000000 -0.000004 -1.000000
f 1//1 3//3 2//2
f 1//1 4//4 3//3
f 8//8 5//5 6//6
f 8//8 6//6 7//7
f 13//13 14//14 10//10
f 13//13 10//10 11//11
f 11//11 10//10 9//9
f 14//14 15//15 10//10
f 10//10 16//16 12//12
f 12//12 16//16 17//17
f 15//15 16//16 10//10
f 21//21 19//19 20//20
f 21//21 18//18 19//19
f 24//24 25//25 22//22
f 24//24 22//22 23//23
f 32//32 27//27 31//31
f 32//32 33//33 27//27
f 33//33 34//34 27//27
f 31//31 30//30 29//29
f 27//27 30//30 31//31
f 27//27 28//28 26//26
f 34//34 28//28 27//27
f 38//38 37//37 36//36
f 38//38 36//36 35//35
f 42//42 41//41 40//40
f 42//42 40//40 39//39
f 43//43 46//46 45//45
f 43//43 45//45 44//44
f 50//50 48//48 51//51
f 47//47 52//52 51//51
f 47//47 51//51 48//48
f 50//50 49//49 48//48
